<svg xmlns="http://www.w3.org/2000/svg" xmlns:xlink="http://www.w3.org/1999/xlink" width="430.389" height="369.164" viewBox="0 0 430.389 369.164">
  <defs>
    <linearGradient id="linear-gradient" y1="0.5" x2="1" y2="0.5" gradientUnits="objectBoundingBox">
      <stop offset="0" stop-color="#2a2284"/>
      <stop offset="1" stop-color="#1f0939"/>
    </linearGradient>
  </defs>
  <g id="Group_10204" data-name="Group 10204" transform="translate(-461.821 -252)">
    <g id="Group_10203" data-name="Group 10203" transform="translate(539.725 252)">
      <g id="Group" transform="translate(0 0)">
        <g id="Group-2" data-name="Group" transform="translate(0 0)">
          <g id="Group-3" data-name="Group" transform="translate(0 162.183)">
            <path id="Path" d="M338.849,114.432c4.5,2.583,4.5,6.79.074,9.373L214.934,195.837c-4.8,2.8-12.547,2.8-17.418,0L3.635,83.877c-4.8-2.8-4.871-7.307-.074-10.111L126.96,2.1c4.8-2.8,12.547-2.8,17.418,0Z" transform="translate(0.055 0)" fill="#206dff" opacity="0.158"/>
            <path id="Path-2" data-name="Path" d="M330.2,111.5c4.354,2.509,4.354,6.568.074,9.152L209.463,190.837c-4.65,2.731-12.251,2.731-16.975,0L3.552,81.756c-4.723-2.731-4.723-7.085-.074-9.816L123.7,2.048c4.65-2.731,12.251-2.731,16.975,0Z" transform="translate(4.419 2.491)" fill="#fff"/>
            <path id="Path-3" data-name="Path" d="M342.226,41.108v.074a1.368,1.368,0,0,1-.148.517v.074c-.074.148-.148.369-.221.517a.072.072,0,0,1-.074.074c-.074.148-.221.369-.3.517l-.074.074c-.148.148-.221.3-.369.443l-.074.074a3.411,3.411,0,0,1-.517.517l-.074.074a4.094,4.094,0,0,1-.59.443l-.074.074a6.483,6.483,0,0,1-.738.443L214.989,117.052c-.3.148-.517.3-.812.443-.074,0-.148.074-.221.074a8.656,8.656,0,0,1-.812.369.072.072,0,0,0-.074.074c-.3.074-.59.221-.886.3a2.155,2.155,0,0,1-.664.148,4.7,4.7,0,0,1-.517.148c-.221.074-.443.074-.664.148-.148,0-.3.074-.517.074H209.6c-.3.074-.59.074-.886.148h-.221a1.441,1.441,0,0,0-.517.074c-.3,0-.517.074-.812.074H204.8a1.625,1.625,0,0,1-.59-.074c-.221,0-.443-.074-.59-.074s-.369-.074-.517-.074a2.155,2.155,0,0,1-.664-.148c-.148,0-.369-.074-.517-.074-.221-.074-.517-.148-.738-.221a4.7,4.7,0,0,0-.517-.148c-.074,0-.148-.074-.3-.074-.221-.074-.517-.148-.738-.221-.074,0-.148-.074-.221-.074a2.622,2.622,0,0,1-.664-.3c-.074-.074-.221-.074-.3-.148l-.886-.443L3.69,5.092A8.2,8.2,0,0,1,.738,2.362C.59,2.14.517,1.919.369,1.7A5.436,5.436,0,0,1,.074.664,2.043,2.043,0,0,1,0,0H0V9.3c0,1.845,1.181,3.69,3.616,5.092L197.5,126.351l.886.443c.074.074.221.074.3.148.221.074.369.148.59.221h.074c.074,0,.148.074.221.074.221.074.517.148.738.221.074,0,.148.074.3.074a.258.258,0,0,1,.148.074c.074,0,.221.074.3.074.221.074.517.148.738.221a.271.271,0,0,1,.221.074.444.444,0,0,1,.3.074c.221.074.443.074.664.148a.558.558,0,0,1,.3.074h.3c.221,0,.443.074.59.074h2.952a2.768,2.768,0,0,0,.812-.074h.738a3.7,3.7,0,0,0,.886-.148h.3a3.2,3.2,0,0,0,.369-.074c.221-.074.443-.074.664-.148a4.7,4.7,0,0,1,.517-.148,2.155,2.155,0,0,1,.664-.148c.074,0,.074,0,.148-.074a3.084,3.084,0,0,0,.738-.3.072.072,0,0,0,.074-.074,3.956,3.956,0,0,0,.812-.369c.074,0,.148-.074.221-.074a8.05,8.05,0,0,0,.812-.443L338.831,54.245c.074,0,.074-.074.148-.074.221-.148.369-.221.59-.369l.074-.074c.221-.148.369-.3.59-.443l.074-.074.074-.074.443-.443.074-.074a1.018,1.018,0,0,0,.221-.3c.074-.074.074-.148.148-.221l.074-.074a1.614,1.614,0,0,1,.221-.369c0-.074.074-.074.074-.148a.072.072,0,0,1,.074-.074L341.93,51V50.85c.074-.148.074-.3.148-.443V50.26c0-.148.074-.3.074-.517V40.37A.894.894,0,0,1,342.226,41.108Z" transform="translate(0 78.637)" fill="#206dff" opacity="0.098"/>
          </g>
          <g id="Group-4" data-name="Group" transform="translate(138.012)">
            <path id="Shape" d="M206.512,277.031a8.108,8.108,0,0,1-3.922-1.168L8.709,163.9a17.943,17.943,0,0,1-6.153-6.5A17.6,17.6,0,0,1,0,148.848L.369,6.187A7.19,7.19,0,0,1,1.716,1.619,4.359,4.359,0,0,1,5.229,0,8.111,8.111,0,0,1,9.152,1.168L203.7,113.422a17.835,17.835,0,0,1,8.118,14.023l-.443,143.4a7.19,7.19,0,0,1-1.347,4.567A4.36,4.36,0,0,1,206.512,277.031ZM7.823,9.876,7.454,146.56,203.18,259.553l.369-136.684Z" transform="translate(0 1.637)" fill="#206dff" opacity="0.505"/>
            <path id="Path-4" data-name="Path" d="M196.1,112.993l-.443,136.684L0,136.684.369,0Z" transform="translate(7.528 11.513)" fill="url(#linear-gradient)"/>
            <path id="Path-5" data-name="Path" d="M211.741,127.089v-.738a.553.553,0,0,0-.074-.369.936.936,0,0,0-.074-.443h0c0-.148-.074-.221-.074-.369s-.074-.3-.074-.443v-.221a.271.271,0,0,0-.074-.221,1.049,1.049,0,0,0-.148-.443c0-.074-.074-.221-.074-.3V123.4c-.074-.148-.074-.3-.148-.443s-.074-.3-.148-.443v-.148c0-.074-.074-.148-.074-.3-.074-.148-.074-.3-.148-.369s-.074-.221-.148-.3v-.148a1.247,1.247,0,0,1-.148-.369l-.221-.443v-.074a.072.072,0,0,0-.074-.074c-.074-.148-.148-.221-.148-.369l-.221-.443c-.074-.074-.074-.148-.148-.221a.072.072,0,0,0-.074-.074c-.074-.148-.148-.221-.221-.369s-.221-.369-.3-.517a.072.072,0,0,0-.074-.074,4.056,4.056,0,0,0-.517-.664h0c-.148-.148-.221-.3-.369-.443-.074-.148-.221-.221-.3-.369h0c-.074-.148-.221-.221-.3-.369s-.221-.221-.3-.369l-.074-.074a.072.072,0,0,0-.074-.074l-.221-.221-.369-.369-.074-.074-.074-.074c-.074-.074-.148-.074-.148-.148-.148-.074-.221-.221-.369-.3l-.148-.148-.074-.074c-.074,0-.074-.074-.148-.074a1.3,1.3,0,0,1-.369-.3,1.019,1.019,0,0,0-.3-.221h-.148c-.148-.074-.221-.148-.369-.221s-.221-.148-.369-.221a.072.072,0,0,1-.074-.074L9.152,1.033C9.078.959,8.93.959,8.856.886A.072.072,0,0,1,8.783.812c-.074,0-.074-.074-.148-.074L8.561.664A.258.258,0,0,1,8.414.59C8.34.59,8.34.517,8.266.517H8.192C8.045.443,7.971.443,7.823.369h0C7.676.3,7.6.3,7.454.221H7.38c-.074,0-.074,0-.148-.074A.258.258,0,0,1,7.085.074H7.011c-.074,0-.074,0-.148-.074H4.5a.936.936,0,0,0-.443.074h0c-.221.074-.369.074-.59.148H3.321C3.247.221,3.174.3,3.1.3s-.074,0-.148.074-.221.074-.3.148h0L0,2.066a.56.56,0,0,1,.3-.148.229.229,0,0,0,.148-.074c.074,0,.148-.074.221-.074H.738a1.39,1.39,0,0,1,.59-.148H1.4c.148,0,.3-.074.443-.074h1.55a.271.271,0,0,1,.221.074h.148c.074,0,.148.074.221.074s.074,0,.148.074c.074,0,.148.074.3.074.074,0,.074,0,.148.074.3.074.517.221.812.3.074,0,.074.074.148.074.074.074.221.074.3.148.074,0,.074.074.148.074.148.074.221.148.369.221L200.892,115.059a4.964,4.964,0,0,1,.812.517h.074a5.168,5.168,0,0,1,.738.59l.074.074c.221.221.443.369.664.59l.074.074.664.664a.072.072,0,0,0,.074.074,7.841,7.841,0,0,1,.664.812h0a7.848,7.848,0,0,0,.664.812h0a3.047,3.047,0,0,1,.517.812,1.85,1.85,0,0,1,.3.517,1.544,1.544,0,0,0,.3.443c.074.074.074.148.148.221.148.221.3.517.443.738a.072.072,0,0,0,.074.074c.148.3.3.59.443.959v.074a3.707,3.707,0,0,1,.369.959v.074a4.776,4.776,0,0,1,.3.959v.074c.074.3.148.59.221.959v.074c.074.3.148.664.221.959h0c.074.3.074.664.148.959v.074c0,.3.074.664.074.959l-.443,143.4a4.208,4.208,0,0,1-.074.959v.074a3.14,3.14,0,0,1-.148.812v.074c-.074.221-.148.517-.221.738,0,.074,0,.074-.074.148a5.087,5.087,0,0,1-.221.59v.074a2.991,2.991,0,0,1-.369.664.072.072,0,0,1-.074.074,1.956,1.956,0,0,1-.369.443l-.148.148c-.074.148-.221.221-.3.3l-.148.148a3.122,3.122,0,0,1-.517.369l2.657-1.55a2.242,2.242,0,0,0,.517-.369l.148-.148c.148-.074.221-.221.3-.3l.148-.148c.148-.148.221-.3.369-.443a.072.072,0,0,1,.074-.074h0a2.21,2.21,0,0,0,.3-.59h0v-.074a1.246,1.246,0,0,0,.148-.369c0-.074.074-.148.074-.221s0-.074.074-.148c0-.074,0-.074.074-.148.074-.148.074-.3.148-.443v-.369c0-.148.074-.3.074-.443v-1.255h0l.443-143.4C211.741,127.384,211.741,127.237,211.741,127.089Z" transform="translate(2.731)" fill="#8eb5ff" opacity="0.503"/>
          </g>
          <g id="Group-5" data-name="Group" transform="translate(145.54 11.513)">
            <path id="Path-6" data-name="Path" d="M.369,0,196.1,112.993l-.369,127.532L0,127.532Z" transform="translate(0 9.152)" fill="#206dff"/>
            <path id="Path-7" data-name="Path" d="M0,0,195.726,112.993l-.074,9.152L0,9.152Z" transform="translate(0.369 0)" fill="#eef"/>
            <path id="Path-8" data-name="Path" d="M2.288.318A5.091,5.091,0,0,1,4.576,4.229c0,1.4-1.033,1.993-2.288,1.328A4.975,4.975,0,0,1,0,1.646C.074.17,1.033-.42,2.288.318Z" transform="translate(2.583 4.258)" fill="#206dff" opacity="0.602"/>
            <path id="Path-9" data-name="Path" d="M2.288.273A5.091,5.091,0,0,1,4.576,4.184c0,1.4-1.033,1.993-2.288,1.328A4.975,4.975,0,0,1,0,1.6C0,.2,1.033-.392,2.288.273Z" transform="translate(9.816 8.436)" fill="#206dff" opacity="0.305"/>
            <path id="Path-10" data-name="Path" d="M2.288.32A5.091,5.091,0,0,1,4.576,4.231c0,1.4-1.033,1.993-2.288,1.255A4.975,4.975,0,0,1,0,1.574C.074.172,1.033-.418,2.288.32Z" transform="translate(16.975 12.596)" fill="#3dda4a" opacity="0.799"/>
          </g>
        </g>
        <path id="Path-11" data-name="Path" d="M1.55,35.795c-2.066,1.181-2.066,3.174,0,4.354L175.356,141.112a8.441,8.441,0,0,0,7.528,0L243.329,106.2c2.066-1.181,2.066-3.174,0-4.354L69.523.886a8.441,8.441,0,0,0-7.528,0Z" transform="translate(73.656 176.021)" fill="#206dff" opacity="0.101"/>
        <g id="Group-6" data-name="Group" transform="translate(80.87 180.08)">
          <path id="Path-12" data-name="Path" d="M.387,1.624c-.517.3-.517.738,0,1.033l7.823,4.5a1.88,1.88,0,0,0,1.771,0l2.436-1.4c.517-.3.517-.738,0-1.033L4.594.221a1.88,1.88,0,0,0-1.771,0Z" transform="translate(192.922 79.855)" fill="#206dff"/>
          <path id="Path-13" data-name="Path" d="M.387,4.133c-.517.3-.517.738,0,1.033l7.823,4.5a1.88,1.88,0,0,0,1.771,0L16.7,5.757c.517-.3.517-.738,0-1.033L8.875.221A1.88,1.88,0,0,0,7.1.221Z" transform="translate(177.497 81.257)" fill="#206dff"/>
          <path id="Path-14" data-name="Path" d="M.387,4.133c-.517.3-.517.738,0,1.033l7.823,4.5a1.88,1.88,0,0,0,1.771,0L16.7,5.757c.517-.3.517-.738,0-1.033L8.875.221A1.88,1.88,0,0,0,7.1.221Z" transform="translate(189.97 88.564)" fill="#206dff"/>
          <path id="Path-15" data-name="Path" d="M.387,1.624c-.517.3-.517.738,0,1.033l7.823,4.5a1.88,1.88,0,0,0,1.771,0l2.436-1.4c.517-.3.517-.738,0-1.033L4.594.221a1.88,1.88,0,0,0-1.771,0Z" transform="translate(205.394 87.088)" fill="#206dff"/>
          <path id="Path-16" data-name="Path" d="M.387,1.624c-.517.3-.517.738,0,1.033l7.823,4.5a1.88,1.88,0,0,0,1.771,0l2.436-1.4c.517-.3.517-.738,0-1.033L4.594.221a1.88,1.88,0,0,0-1.771,0Z" transform="translate(217.867 94.321)" fill="#206dff"/>
          <path id="Path-17" data-name="Path" d="M.387,1.624c-.517.3-.517.738,0,1.033l7.749,4.5a1.88,1.88,0,0,0,1.771,0l2.436-1.4c.517-.3.517-.738,0-1.033L4.594.221a1.88,1.88,0,0,0-1.771,0Z" transform="translate(180.375 72.549)" fill="#206dff"/>
          <path id="Path-18" data-name="Path" d="M.387,1.624c-.517.3-.517.738,0,1.033l7.823,4.5a1.88,1.88,0,0,0,1.771,0l2.436-1.4c.517-.3.517-.738,0-1.033L4.594.221a1.88,1.88,0,0,0-1.771,0Z" transform="translate(55.5 0)" fill="#206dff"/>
          <path id="Path-19" data-name="Path" d="M.387,4.133c-.517.3-.517.738,0,1.033l7.823,4.5a1.88,1.88,0,0,0,1.771,0L16.7,5.757c.517-.3.517-.738,0-1.033L8.875.221A1.88,1.88,0,0,0,7.1.221Z" transform="translate(33.433 10.48)" fill="#206dff"/>
          <path id="Path-20" data-name="Path" d="M.387,4.133c-.517.3-.517.738,0,1.033l7.749,4.5a1.88,1.88,0,0,0,1.771,0l6.716-3.912c.517-.3.517-.738,0-1.033L8.875.221A1.88,1.88,0,0,0,7.1.221Z" transform="translate(45.684 17.639)" fill="#206dff"/>
          <path id="Path-21" data-name="Path" d="M.387,4.133c-.517.3-.517.738,0,1.033l7.823,4.5a1.88,1.88,0,0,0,1.771,0L16.7,5.757c.517-.3.517-.738,0-1.033L8.875.221A1.88,1.88,0,0,0,7.1.221Z" transform="translate(61.257 52.474)" fill="#206dff"/>
          <g id="Group-7" data-name="Group" transform="translate(0 3.912)">
            <path id="Path-22" data-name="Path" d="M.387,1.624c-.517.3-.517.738,0,1.033l7.749,4.5a1.88,1.88,0,0,0,1.771,0l2.436-1.4c.517-.3.517-.738,0-1.033L4.594.221a1.88,1.88,0,0,0-1.771,0Z" transform="translate(67.973 3.321)" fill="#206dff"/>
            <path id="Path-23" data-name="Path" d="M.387,4.133c-.517.3-.517.738,0,1.033l15.5,9a1.88,1.88,0,0,0,1.771,0l6.716-3.912c.517-.3.517-.738,0-1.033l-15.5-9A1.88,1.88,0,0,0,7.1.221Z" transform="translate(44.356 0)" fill="#206dff"/>
            <path id="Path-24" data-name="Path" d="M.387,1.624c-.517.3-.517.738,0,1.033l7.823,4.5a1.88,1.88,0,0,0,1.771,0l2.436-1.4c.517-.3.517-.738,0-1.033L4.594.221a1.88,1.88,0,0,0-1.771,0Z" transform="translate(80.446 10.554)" fill="#206dff"/>
            <path id="Path-25" data-name="Path" d="M.387,4.133c-.517.3-.517.738,0,1.033l7.823,4.5a1.88,1.88,0,0,0,1.771,0L16.7,5.757c.517-.3.517-.738,0-1.033L8.875.221A1.88,1.88,0,0,0,7.1.221Z" transform="translate(64.799 11.882)" fill="#206dff"/>
            <path id="Path-26" data-name="Path" d="M.387,4.133c-.517.3-.517.738,0,1.033l15.941,9.3a1.88,1.88,0,0,0,1.771,0l6.716-3.912c.517-.3.517-.738,0-1.033L8.875.221A1.88,1.88,0,0,0,7.1.221Z" transform="translate(22.289 12.989)" fill="#206dff"/>
            <path id="Path-27" data-name="Path" d="M.387,4.133c-.517.3-.517.738,0,1.033l7.749,4.5a1.88,1.88,0,0,0,1.771,0l6.716-3.912c.517-.3.517-.738,0-1.033L8.875.221A1.88,1.88,0,0,0,7.1.221Z" transform="translate(57.936 20.813)" fill="#206dff"/>
            <path id="Path-28" data-name="Path" d="M.387,4.133c-.517.3-.517.738,0,1.033l7.823,4.5a1.88,1.88,0,0,0,1.771,0L16.7,5.757c.517-.3.517-.738,0-1.033L8.875.221A1.88,1.88,0,0,0,7.1.221Z" transform="translate(42.511 24.724)" fill="#206dff"/>
            <path id="Path-29" data-name="Path" d="M.387,4.133c-.517.3-.517.738,0,1.033L21.274,17.344a1.88,1.88,0,0,0,1.771,0l6.716-3.912c.517-.3.517-.738,0-1.033L8.875.221A1.88,1.88,0,0,0,7.1.221Z" transform="translate(11.144 19.484)" fill="#206dff"/>
            <path id="Path-30" data-name="Path" d="M.387,4.133c-.517.3-.517.738,0,1.033l7.823,4.5a1.88,1.88,0,0,0,1.771,0L16.7,5.757c.517-.3.517-.738,0-1.033L8.875.221A1.88,1.88,0,0,0,7.1.221Z" transform="translate(70.63 28.193)" fill="#206dff"/>
            <path id="Path-31" data-name="Path" d="M.387,4.133c-.517.3-.517.738,0,1.033l15.5,9a1.882,1.882,0,0,0,1.771,0l6.716-3.912c.517-.3.517-.738,0-1.033l-15.5-9A1.88,1.88,0,0,0,7.1.221Z" transform="translate(0 25.905)" fill="#206dff"/>
            <path id="Path-32" data-name="Path" d="M.387,4.133c-.517.3-.517.738,0,1.033l7.823,4.5a1.88,1.88,0,0,0,1.771,0L16.7,5.757c.517-.3.517-.738,0-1.033L8.875.221A1.88,1.88,0,0,0,7.1.221Z" transform="translate(54.762 31.883)" fill="#206dff"/>
            <path id="Path-33" data-name="Path" d="M.387,4.133c-.517.3-.517.738,0,1.033l7.823,4.5a1.88,1.88,0,0,0,1.771,0L16.7,5.757c.517-.3.517-.738,0-1.033L8.875.221A1.88,1.88,0,0,0,7.1.221Z" transform="translate(36.533 34.171)" fill="#206dff"/>
            <path id="Path-34" data-name="Path" d="M.387,4.133c-.517.3-.517.738,0,1.033l10.554,6.126a1.882,1.882,0,0,0,1.771,0L19.429,7.38c.517-.3.517-.738,0-1.033L8.875.221A1.88,1.88,0,0,0,7.1.221Z" transform="translate(20.296 37.64)" fill="#206dff"/>
            <path id="Path-35" data-name="Path" d="M.387,4.133c-.517.3-.517.738,0,1.033l7.823,4.5a1.88,1.88,0,0,0,1.771,0L16.7,5.757c.517-.3.517-.738,0-1.033L8.875.221A1.88,1.88,0,0,0,7.1.221Z" transform="translate(48.784 41.33)" fill="#206dff"/>
            <path id="Path-36" data-name="Path" d="M.387,4.133c-.517.3-.517.738,0,1.033l10.554,6.126a1.882,1.882,0,0,0,1.771,0L19.429,7.38c.517-.3.517-.738,0-1.033L8.875.221A1.88,1.88,0,0,0,7.1.221Z" transform="translate(35.573 46.57)" fill="#206dff"/>
          </g>
          <path id="Path-37" data-name="Path" d="M.387,1.624c-.517.3-.517.738,0,1.033l7.823,4.5a1.88,1.88,0,0,0,1.771,0l2.436-1.4c.517-.3.517-.738,0-1.033L4.594.221a1.88,1.88,0,0,0-1.771,0Z" transform="translate(92.992 21.772)" fill="#206dff"/>
          <g id="Group-8" data-name="Group" transform="translate(83.176 30.481)">
            <path id="Path-38" data-name="Path" d="M.387,4.133c-.517.3-.517.738,0,1.033l7.823,4.5a1.88,1.88,0,0,0,1.771,0L16.7,5.757c.517-.3.517-.738,0-1.033L8.875.221A1.88,1.88,0,0,0,7.1.221Z" transform="translate(6.864 0)" fill="#206dff"/>
            <path id="Path-39" data-name="Path" d="M.387,4.133c-.517.3-.517.738,0,1.033l7.749,4.5a1.88,1.88,0,0,0,1.771,0l6.716-3.912c.517-.3.517-.738,0-1.033L8.875.221A1.88,1.88,0,0,0,7.1.221Z" transform="translate(0 8.93)" fill="#206dff"/>
          </g>
          <path id="Path-40" data-name="Path" d="M.387,1.624c-.517.3-.517.738,0,1.033l7.749,4.5a1.88,1.88,0,0,0,1.771,0l2.436-1.4c.517-.3.517-.738,0-1.033L4.594.221a1.88,1.88,0,0,0-1.771,0Z" transform="translate(105.465 29.005)" fill="#206dff"/>
          <path id="Path-41" data-name="Path" d="M.387,1.624c-.517.3-.517.738,0,1.033l7.823,4.5a1.88,1.88,0,0,0,1.771,0l2.436-1.4c.517-.3.517-.738,0-1.033L4.594.221a1.88,1.88,0,0,0-1.771,0Z" transform="translate(117.938 36.311)" fill="#206dff"/>
          <path id="Path-42" data-name="Path" d="M.387,4.133c-.517.3-.517.738,0,1.033l7.749,4.5a1.88,1.88,0,0,0,1.771,0l6.716-3.912c.517-.3.517-.738,0-1.033L8.875.221A1.88,1.88,0,0,0,7.1.221Z" transform="translate(98.749 74.246)" fill="#206dff"/>
          <g id="Group-9" data-name="Group" transform="translate(136.241 96.018)">
            <path id="Path-43" data-name="Path" d="M.387,4.133c-.517.3-.517.738,0,1.033l7.749,4.5a1.88,1.88,0,0,0,1.771,0l6.716-3.912c.517-.3.517-.738,0-1.033L8.875.221A1.88,1.88,0,0,0,7.1.221Z" transform="translate(0 0)" fill="#206dff"/>
            <path id="Path-44" data-name="Path" d="M.387,4.133c-.517.3-.517.738,0,1.033L32.639,23.912a1.88,1.88,0,0,0,1.771,0L41.127,20c.517-.3.517-.738,0-1.033L8.875.221A1.88,1.88,0,0,0,7.1.221Z" transform="translate(12.62 7.38)" fill="#206dff"/>
          </g>
          <path id="Path-45" data-name="Path" d="M.387,4.133c-.517.3-.517.738,0,1.033l7.823,4.5a1.88,1.88,0,0,0,1.771,0L16.7,5.757c.517-.3.517-.738,0-1.033L8.875.221A1.88,1.88,0,0,0,7.1.221Z" transform="translate(123.694 88.785)" fill="#206dff"/>
          <path id="Path-46" data-name="Path" d="M.387,4.133c-.517.3-.517.738,0,1.033l10.554,6.126a1.882,1.882,0,0,0,1.771,0L19.429,7.38c.517-.3.517-.738,0-1.033L8.875.221A1.88,1.88,0,0,0,7.1.221Z" transform="translate(123.842 101.775)" fill="#206dff"/>
          <g id="Group-10" data-name="Group" transform="translate(50.26 50.26)">
            <path id="Path-47" data-name="Path" d="M.387,4.133c-.517.3-.517.738,0,1.033l7.823,4.5a1.88,1.88,0,0,0,1.771,0L16.7,5.757c.517-.3.517-.738,0-1.033L8.875.221A1.88,1.88,0,0,0,7.1.221Z" transform="translate(29.447 0)" fill="#206dff"/>
            <path id="Path-48" data-name="Path" d="M.387,4.133c-.517.3-.517.738,0,1.033l7.823,4.5a1.88,1.88,0,0,0,1.771,0L16.7,5.757c.517-.3.517-.738,0-1.033L8.875.221A1.88,1.88,0,0,0,7.1.221Z" transform="translate(77.272 1.993)" fill="#206dff"/>
            <path id="Path-49" data-name="Path" d="M.387,4.133c-.517.3-.517.738,0,1.033l7.823,4.5a1.88,1.88,0,0,0,1.771,0L16.7,5.757c.517-.3.517-.738,0-1.033L8.875.221A1.88,1.88,0,0,0,7.1.221Z" transform="translate(57.862 3.616)" fill="#206dff"/>
            <path id="Path-50" data-name="Path" d="M.387,4.133c-.517.3-.517.738,0,1.033l7.823,4.5a1.88,1.88,0,0,0,1.771,0L16.7,5.757c.517-.3.517-.738,0-1.033L8.875.221A1.88,1.88,0,0,0,7.1.221Z" transform="translate(41.92 7.307)" fill="#206dff"/>
            <path id="Path-51" data-name="Path" d="M.387,4.133c-.517.3-.517.738,0,1.033l7.823,4.5a1.88,1.88,0,0,0,1.771,0L16.7,5.757c.517-.3.517-.738,0-1.033L8.875.221A1.88,1.88,0,0,0,7.1.221Z" transform="translate(23.469 9.447)" fill="#206dff"/>
            <path id="Path-52" data-name="Path" d="M.387,4.133c-.517.3-.517.738,0,1.033l7.749,4.5a1.88,1.88,0,0,0,1.771,0l6.716-3.912c.517-.3.517-.738,0-1.033L8.875.221A1.88,1.88,0,0,0,7.1.221Z" transform="translate(70.408 10.923)" fill="#206dff"/>
            <path id="Path-53" data-name="Path" d="M.387,4.133c-.517.3-.517.738,0,1.033l7.749,4.5a1.88,1.88,0,0,0,1.771,0l6.716-3.912c.517-.3.517-.738,0-1.033L8.875.221A1.88,1.88,0,0,0,7.1.221Z" transform="translate(54.467 14.539)" fill="#206dff"/>
            <path id="Path-54" data-name="Path" d="M.387,4.133c-.517.3-.517.738,0,1.033l7.823,4.5a1.88,1.88,0,0,0,1.771,0L16.7,5.757c.517-.3.517-.738,0-1.033L8.875.221A1.88,1.88,0,0,0,7.1.221Z" transform="translate(35.942 16.753)" fill="#206dff"/>
            <path id="Path-55" data-name="Path" d="M.387,4.133c-.517.3-.517.738,0,1.033l7.823,4.5a1.88,1.88,0,0,0,1.771,0L16.7,5.757c.517-.3.517-.738,0-1.033L8.875.221A1.88,1.88,0,0,0,7.1.221Z" transform="translate(66.94 21.846)" fill="#206dff"/>
            <path id="Path-56" data-name="Path" d="M.387,4.133c-.517.3-.517.738,0,1.033l7.823,4.5a1.88,1.88,0,0,0,1.771,0L16.7,5.757c.517-.3.517-.738,0-1.033L8.875.221A1.88,1.88,0,0,0,7.1.221Z" transform="translate(60.961 31.293)" fill="#206dff"/>
            <path id="Path-57" data-name="Path" d="M.387,4.133c-.517.3-.517.738,0,1.033l68.785,40a1.882,1.882,0,0,0,1.771,0l6.716-3.912c.517-.3.517-.738,0-1.033L8.875.221A1.88,1.88,0,0,0,7.1.221Z" transform="translate(0 8.709)" fill="#206dff"/>
          </g>
          <path id="Path-58" data-name="Path" d="M.387,4.133c-.517.3-.517.738,0,1.033l7.823,4.5a1.88,1.88,0,0,0,1.771,0L16.7,5.757c.517-.3.517-.738,0-1.033L8.875.221A1.88,1.88,0,0,0,7.1.221Z" transform="translate(102.513 37.713)" fill="#206dff"/>
          <path id="Path-59" data-name="Path" d="M.387,4.133c-.517.3-.517.738,0,1.033l7.749,4.5a1.88,1.88,0,0,0,1.771,0l6.716-3.912c.517-.3.517-.738,0-1.033L8.875.221A1.88,1.88,0,0,0,7.1.221Z" transform="translate(115.059 45.02)" fill="#206dff"/>
          <path id="Path-60" data-name="Path" d="M.387,1.624c-.517.3-.517.738,0,1.033l7.823,4.5a1.88,1.88,0,0,0,1.771,0l2.436-1.4c.517-.3.517-.738,0-1.033L4.594.221a1.88,1.88,0,0,0-1.771,0Z" transform="translate(130.41 43.544)" fill="#206dff"/>
          <path id="Path-61" data-name="Path" d="M.387,1.624c-.517.3-.517.738,0,1.033l7.749,4.5a1.88,1.88,0,0,0,1.771,0l2.436-1.4c.517-.3.517-.738,0-1.033L4.594.221a1.88,1.88,0,0,0-1.771,0Z" transform="translate(142.957 50.777)" fill="#206dff"/>
          <path id="Path-62" data-name="Path" d="M.387,4.133c-.517.3-.517.738,0,1.033l7.823,4.5a1.88,1.88,0,0,0,1.771,0L16.7,5.757c.517-.3.517-.738,0-1.033L8.875.221A1.88,1.88,0,0,0,7.1.221Z" transform="translate(133.141 68.416)" fill="#206dff"/>
          <g id="Group-11" data-name="Group" transform="translate(129.672 75.648)">
            <path id="Path-63" data-name="Path" d="M.387,4.133c-.517.3-.517.738,0,1.033l7.823,4.5a1.88,1.88,0,0,0,1.771,0L16.7,5.757c.517-.3.517-.738,0-1.033L8.875.221A1.88,1.88,0,0,0,7.1.221Z" transform="translate(15.941 0)" fill="#206dff"/>
            <path id="Path-64" data-name="Path" d="M.387,4.133c-.517.3-.517.738,0,1.033l7.823,4.5a1.88,1.88,0,0,0,1.771,0L16.7,5.757c.517-.3.517-.738,0-1.033L8.875.221A1.88,1.88,0,0,0,7.1.221Z" transform="translate(0 3.69)" fill="#206dff"/>
            <path id="Path-65" data-name="Path" d="M.387,4.133c-.517.3-.517.738,0,1.033l7.749,4.5a1.88,1.88,0,0,0,1.771,0l6.716-3.912c.517-.3.517-.738,0-1.033L8.875.221A1.88,1.88,0,0,0,7.1.221Z" transform="translate(28.414 7.307)" fill="#206dff"/>
            <path id="Path-66" data-name="Path" d="M.387,4.133c-.517.3-.517.738,0,1.033l7.749,4.5a1.88,1.88,0,0,0,1.771,0l6.716-3.912c.517-.3.517-.738,0-1.033L8.875.221A1.88,1.88,0,0,0,7.1.221Z" transform="translate(12.547 10.923)" fill="#206dff"/>
            <path id="Path-67" data-name="Path" d="M.387,4.133c-.517.3-.517.738,0,1.033l7.823,4.5a1.88,1.88,0,0,0,1.771,0L16.7,5.757c.517-.3.517-.738,0-1.033L8.875.221A1.88,1.88,0,0,0,7.1.221Z" transform="translate(40.961 14.539)" fill="#206dff"/>
            <path id="Path-68" data-name="Path" d="M.387,4.133c-.517.3-.517.738,0,1.033l7.823,4.5a1.88,1.88,0,0,0,1.771,0L16.7,5.757c.517-.3.517-.738,0-1.033L8.875.221A1.88,1.88,0,0,0,7.1.221Z" transform="translate(25.019 18.229)" fill="#206dff"/>
            <path id="Path-69" data-name="Path" d="M.387,4.133c-.517.3-.517.738,0,1.033l20.3,11.809a1.88,1.88,0,0,0,1.771,0l6.716-3.912c.517-.3.517-.738,0-1.033L8.875.221A1.88,1.88,0,0,0,7.1.221Z" transform="translate(53.434 21.846)" fill="#206dff"/>
            <path id="Path-70" data-name="Path" d="M.387,4.133c-.517.3-.517.738,0,1.033L25.628,19.779a1.88,1.88,0,0,0,1.771,0l6.716-3.912c.517-.3.517-.738,0-1.033L8.875.221A1.88,1.88,0,0,0,7.1.221Z" transform="translate(37.344 25.388)" fill="#206dff"/>
          </g>
          <path id="Path-71" data-name="Path" d="M.387,4.133c-.517.3-.517.738,0,1.033l7.823,4.5a1.88,1.88,0,0,0,1.771,0L16.7,5.757c.517-.3.517-.738,0-1.033L8.875.221A1.88,1.88,0,0,0,7.1.221Z" transform="translate(165.024 74.025)" fill="#206dff"/>
          <path id="Path-72" data-name="Path" d="M.387,4.133c-.517.3-.517.738,0,1.033l7.749,4.5a1.88,1.88,0,0,0,1.771,0l6.716-3.912c.517-.3.517-.738,0-1.033L8.875.221A1.88,1.88,0,0,0,7.1.221Z" transform="translate(152.477 66.792)" fill="#206dff"/>
          <path id="Path-73" data-name="Path" d="M.387,4.133c-.517.3-.517.738,0,1.033l7.823,4.5a1.88,1.88,0,0,0,1.771,0L16.7,5.757c.517-.3.517-.738,0-1.033L8.875.221A1.88,1.88,0,0,0,7.1.221Z" transform="translate(140.005 59.485)" fill="#206dff"/>
          <path id="Path-74" data-name="Path" d="M.387,1.624c-.517.3-.517.738,0,1.033l7.823,4.5a1.88,1.88,0,0,0,1.771,0l2.436-1.4c.517-.3.517-.738,0-1.033L4.594.221a1.88,1.88,0,0,0-1.771,0Z" transform="translate(155.43 58.083)" fill="#206dff"/>
          <path id="Path-75" data-name="Path" d="M.387,1.624c-.517.3-.517.738,0,1.033l7.823,4.5a1.88,1.88,0,0,0,1.771,0l2.436-1.4c.517-.3.517-.738,0-1.033L4.594.221a1.88,1.88,0,0,0-1.771,0Z" transform="translate(167.902 65.316)" fill="#206dff"/>
          <path id="Path-76" data-name="Path" d="M.387,4.133c-.517.3-.517.738,0,1.033l11.735,6.79a1.88,1.88,0,0,0,1.771,0L20.61,8.045c.517-.3.517-.738,0-1.033L8.875.221A1.88,1.88,0,0,0,7.1.221Z" transform="translate(202.811 96.018)" fill="#206dff"/>
          <path id="Path-77" data-name="Path" d="M.387,4.133c-.517.3-.517.738,0,1.033l7.749,4.5a1.88,1.88,0,0,0,1.771,0l6.716-3.912c.517-.3.517-.738,0-1.033L8.875.221A1.88,1.88,0,0,0,7.1.221Z" transform="translate(77.567 23.248)" fill="#206dff"/>
          <path id="Path-78" data-name="Path" d="M.387,4.133c-.517.3-.517.738,0,1.033l7.823,4.5a1.88,1.88,0,0,0,1.771,0L16.7,5.757c.517-.3.517-.738,0-1.033L8.875.221A1.88,1.88,0,0,0,7.1.221Z" transform="translate(95.649 46.644)" fill="#206dff"/>
          <path id="Path-79" data-name="Path" d="M.387,4.133c-.517.3-.517.738,0,1.033l7.749,4.5a1.88,1.88,0,0,0,1.771,0l6.716-3.912c.517-.3.517-.738,0-1.033L8.875.221A1.88,1.88,0,0,0,7.1.221Z" transform="translate(67.235 43.027)" fill="#206dff"/>
          <path id="Path-80" data-name="Path" d="M.387,4.133c-.517.3-.517.738,0,1.033l15.5,9a1.882,1.882,0,0,0,1.771,0l6.716-3.912c.517-.3.517-.738,0-1.033l-15.5-9A1.88,1.88,0,0,0,7.1.221Z" transform="translate(154.47 119.561)" fill="#206dff"/>
          <path id="Path-81" data-name="Path" d="M.387,4.133c-.517.3-.517.738,0,1.033l10.554,6.126a1.882,1.882,0,0,0,1.771,0L19.429,7.38c.517-.3.517-.738,0-1.033L8.875.221A1.88,1.88,0,0,0,7.1.221Z" transform="translate(139.119 110.631)" fill="#206dff"/>
        </g>
        <path id="Path-82" data-name="Path" d="M84.357,28.045c1.476.886,1.476,2.288,0,3.1L53.95,48.858a5.8,5.8,0,0,1-5.388,0L1.107,21.477c-1.476-.886-1.476-2.288,0-3.1L31.514.664a5.8,5.8,0,0,1,5.388,0Z" transform="translate(86.497 260.673)" fill="#206dff" opacity="0.798"/>
      </g>
      <g id="Logo" transform="translate(222.966 115.2)">
        <g id="Group_4" data-name="Group 4" transform="translate(0 0)">
          <g id="Group_1" data-name="Group 1">
            <path id="Path_3988" data-name="Path 3988" d="M53.3,20.449C63.678,22.942,71.917,35.11,71.66,47.58l-2.793-.671c.219-10.613-6.8-20.983-15.638-23.106S37.017,28.592,36.8,39.2s6.8,20.983,15.638,23.106l-.069,3.353C41.987,63.171,33.748,51,34.005,38.533S42.919,17.955,53.3,20.449Z" transform="translate(-33.999 -19.998)" fill="#fff"/>
          </g>
          <g id="Group_2" data-name="Group 2" transform="translate(19.047 23.614)">
            <path id="Path_3989" data-name="Path 3989" d="M59.746,47a4.04,4.04,0,0,1,1.244.543L74.4,56.206a6.06,6.06,0,0,1,2.368,6.589,3.734,3.734,0,0,1-.988,1.622l-3.243,3.032-1.76-2.594,3.249-3.037a2.042,2.042,0,0,0-.491-2.9l-13.4-8.662a1.411,1.411,0,0,0-.435-.189,1.122,1.122,0,0,0-1.354.828,2,2,0,0,0-.022,1.058l4.17,17.307a1.938,1.938,0,0,0,1.3,1.463,1.116,1.116,0,0,0,.444.019,1.006,1.006,0,0,0,.556-.276l3.132-2.936,1.774,2.6-3.133,2.936a2.975,2.975,0,0,1-2.822.735,4.125,4.125,0,0,1-.916-.349,5.794,5.794,0,0,1-2.772-3.786L55.878,52.334c-.641-2.644.534-5.057,2.614-5.391A3.2,3.2,0,0,1,59.746,47Z" transform="translate(-55.703 -46.905)" fill="#fff"/>
          </g>
          <g id="Group_3" data-name="Group 3" transform="translate(6.734 8.169)">
            <path id="Path_3990" data-name="Path 3990" d="M53.763,29.589c6.5,1.563,11.664,9.187,11.5,17l-2.793-.67c.123-5.96-3.816-11.772-8.78-12.965s-9.095,2.681-9.218,8.641,3.815,11.779,8.773,12.97l-.069,3.353c-6.5-1.561-11.664-9.186-11.5-17S47.265,28.027,53.763,29.589Z" transform="translate(-41.673 -29.307)" fill="#fff"/>
          </g>
        </g>
      </g>
    </g>
    <g id="Group-12" data-name="Group" transform="translate(461.821 423.235)">
      <g id="Group-13" data-name="Group" transform="translate(0 28.282)" opacity="0.16">
        <path id="Path-83" data-name="Path" d="M41.917,24.766c-9.821,5.414-25.435,5.1-34.941-.693s-9.255-14.858.5-20.209c9.821-5.414,25.435-5.1,34.941.693S51.675,19.415,41.917,24.766Z" transform="translate(0 0)" fill="rgba(0,0,0,0.2)"/>
      </g>
      <g id="Group-14" data-name="Group" transform="translate(6.736 54.724)" opacity="0.16">
        <path id="Path-84" data-name="Path" d="M41.917,24.766c-9.821,5.414-25.435,5.1-34.941-.693s-9.255-14.858.5-20.209c9.821-5.414,25.435-5.1,34.941.693C51.99,10.349,51.738,19.415,41.917,24.766Z" transform="translate(0 0)" fill="rgba(0,0,0,0.2)"/>
      </g>
      <g id="Group-15" data-name="Group" transform="translate(44.385 28.282)" opacity="0.16">
        <path id="Path-85" data-name="Path" d="M41.917,24.766c-9.821,5.414-25.435,5.1-34.941-.693s-9.255-14.858.5-20.209c9.821-5.414,25.435-5.1,34.941.693S51.675,19.415,41.917,24.766Z" transform="translate(0 0)" fill="rgba(0,0,0,0.2)"/>
      </g>
      <g id="Group-16" data-name="Group" transform="translate(10.375 13.991)">
        <path id="Path-86" data-name="Path" d="M7.555,21.028c.063,0,.063.063.126.063a.477.477,0,0,0,.252.126c.126.063.189.126.315.189.063.063.189.063.252.126.126.063.189.126.315.126.063.063.126.063.189.126.126.063.315.126.441.189.063.063.189.063.252.126a.062.062,0,0,1,.063.063c.252.126.567.252.818.378h0c.063,0,.063.063.126.063.252.063.441.189.693.252.063,0,.063,0,.126.063.126.063.252.063.315.126a.91.91,0,0,0,.441.126c.063,0,.126.063.252.063.126.063.252.063.378.126.126,0,.189.063.315.063.126.063.252.063.378.126s.252.063.378.126c.063,0,.126.063.189.063.189.063.315.063.5.126.126,0,.189.063.315.063h.063a5.245,5.245,0,0,1,.944.252h.063c.252.063.567.126.818.189H17c.126,0,.189.063.315.063s.315.063.441.063a.568.568,0,0,1,.315.063c.126,0,.252.063.378.063a.379.379,0,0,1,.252.063c.189,0,.378.063.5.063a.378.378,0,0,1,.252.063h.126c.315.063.63.063.944.126h.315c.252,0,.5.063.693.063h.126a1.743,1.743,0,0,1,.567.063,1.386,1.386,0,0,1,.5.063h.063c.5,0,1.007.063,1.574.063h.252c.755,0,1.448,0,2.2-.063h.315a15.437,15.437,0,0,0,1.7-.126H28.9c.378-.063.818-.063,1.2-.126h.063c.315-.063.567-.063.881-.126h.189c.315-.063.693-.126,1.007-.189H32.3c.126,0,.189-.063.315-.063.189-.063.441-.063.63-.126h.126c.126,0,.252-.063.441-.063.126-.063.315-.063.5-.126a.231.231,0,0,0,.189-.063c.126-.063.315-.063.441-.126s.252-.063.378-.126c.063,0,.126-.063.189-.063.126-.063.315-.063.441-.126a.568.568,0,0,1,.315-.063c.063,0,.189-.063.252-.063a1.167,1.167,0,0,1,.441-.126c.063,0,.189-.063.252-.063.126-.063.189-.063.315-.126a1.167,1.167,0,0,1,.441-.126c.063,0,.126-.063.252-.063.126-.063.252-.063.378-.126a.9.9,0,0,1,.378-.126c.063,0,.126-.063.189-.063.126-.063.315-.126.441-.189s.189-.063.315-.126a.062.062,0,0,0,.063-.063c.252-.126.567-.252.818-.378h.063a6.867,6.867,0,0,0,.693-.378c.063-.063.126-.063.189-.126.189-.126.378-.189.567-.315.063-.063.126-.063.189-.126s.189-.126.252-.189.126-.063.189-.126c.126-.063.189-.126.315-.189A.327.327,0,0,1,43.5,20.4a.22.22,0,0,1,.126-.063c.189-.126.441-.315.63-.441h0c.189-.126.378-.315.567-.441l.063-.063.189-.189c.126-.063.189-.189.315-.252l.126-.126.252-.252.189-.189.189-.189a.869.869,0,0,0,.189-.252l.126-.126a.869.869,0,0,0,.189-.252l.252-.252c0-.063.063-.063.063-.126a.869.869,0,0,0,.189-.252,1.105,1.105,0,0,1,.252-.315l.063-.063c.063-.063.063-.126.126-.189.063-.126.189-.252.252-.378,0-.063.063-.063.063-.126a.231.231,0,0,0,.063-.189c.063-.189.189-.315.252-.5a.22.22,0,0,1,.063-.126c0-.063,0-.063.063-.126a3.852,3.852,0,0,0,.315-.755V14.1h0c0-.063.063-.126.063-.189a1.482,1.482,0,0,0,.126-.5c0-.063.063-.189.063-.252,0-.126.063-.189.063-.315V12.78a1.386,1.386,0,0,0,.063-.5.379.379,0,0,1,.063-.252c0-.252.063-.5.063-.755l.189-10.262a3.065,3.065,0,0,1-.063.755.378.378,0,0,1-.063.252c0,.189-.063.315-.063.5,0,.126-.063.252-.063.378,0,.063-.063.189-.063.252a1.482,1.482,0,0,0-.126.5c0,.063-.063.126-.063.189a.062.062,0,0,1-.063.063c-.126.252-.189.5-.315.755-.063.063-.063.189-.126.252-.063.189-.189.315-.252.5-.063.063-.126.189-.189.252-.063.126-.189.252-.252.378s-.126.189-.189.315a1.105,1.105,0,0,1-.252.315,1.373,1.373,0,0,1-.252.315c-.063.063-.126.189-.252.252-.126.126-.189.252-.315.315a.869.869,0,0,0-.189.252l-.378.378-.252.252a2.738,2.738,0,0,1-.441.378L44.951,9a2.8,2.8,0,0,1-.693.5h0c-.252.189-.441.315-.693.5a.327.327,0,0,1-.252.126,2.552,2.552,0,0,1-.567.315c-.063.063-.189.126-.252.189-.252.126-.5.315-.755.441a5.756,5.756,0,0,1-.881.441H40.8c-.315.126-.567.315-.881.441-.126.063-.189.063-.315.126a6.532,6.532,0,0,1-.63.252.9.9,0,0,1-.378.126l-.567.189a1.167,1.167,0,0,1-.441.126l-.567.189a1.167,1.167,0,0,1-.441.126l-.567.189c-.126.063-.315.063-.441.126-.189.063-.378.126-.63.189-.126.063-.315.063-.441.126a2.237,2.237,0,0,1-.63.126.934.934,0,0,1-.441.063,3.16,3.16,0,0,1-.755.126c-.126,0-.189.063-.315.063-.378.063-.755.126-1.07.189H31.1c-.315.063-.63.063-.944.126-.378.063-.818.063-1.2.126h0c-.567.063-1.133.063-1.7.126h-.315c-.755,0-1.448.063-2.2.063H24.49a13.693,13.693,0,0,1-1.574-.063,1.743,1.743,0,0,1-.567-.063,1.743,1.743,0,0,1-.567-.063c-.252,0-.567-.063-.818-.063h-.252c-.378-.063-.693-.063-1.07-.126a.379.379,0,0,1-.252-.063c-.252-.063-.5-.063-.755-.126-.126,0-.252-.063-.378-.063-.252-.063-.5-.063-.755-.126-.126,0-.189-.063-.315-.063l-.944-.189H16.18c-.378-.063-.693-.189-1.007-.252-.126,0-.189-.063-.315-.063-.252-.063-.441-.126-.693-.189-.126-.063-.252-.063-.378-.126-.189-.063-.441-.126-.63-.189-.126-.063-.252-.063-.378-.126a2.631,2.631,0,0,1-.63-.252c-.126-.063-.252-.063-.315-.126-.252-.126-.567-.189-.818-.315-.063,0-.063,0-.126-.063l-.944-.378c-.063-.063-.189-.063-.252-.126-.189-.126-.441-.189-.63-.315-.126-.063-.189-.126-.315-.126-.189-.126-.378-.189-.567-.315a.477.477,0,0,0-.252-.126c-.252-.126-.567-.315-.818-.441-.252-.189-.567-.315-.818-.5-.063-.063-.126-.126-.189-.126a3.492,3.492,0,0,1-.5-.378c-.126-.063-.189-.126-.315-.189-.126-.126-.315-.189-.441-.315-.126-.063-.189-.189-.315-.252-.126-.126-.252-.189-.378-.315L3.84,7.807l-.315-.315-.378-.378L2.9,6.862c-.126-.126-.252-.315-.378-.441-.063-.063-.126-.189-.189-.252l-.567-.755c-.126-.189-.252-.441-.378-.63h0a2.941,2.941,0,0,1-.315-.63C.944,3.84.818,3.589.693,3.274c0-.063-.063-.126-.063-.189A4.637,4.637,0,0,1,.378,2.2V2.141A4.86,4.86,0,0,1,.252,1.2V.944C.252.63.189.315.189,0h0L0,10.262a4.765,4.765,0,0,0,.063.944v.252c.063.315.063.63.126.944v.063a4.637,4.637,0,0,0,.252.881c0,.063.063.126.063.189.126.315.252.63.378.881h0a11.7,11.7,0,0,0,.693,1.2h0l.567.755a.062.062,0,0,0,.063.063c.063.063.126.126.126.189.126.126.252.315.378.441l.126.126.189.189.378.378c.063.063.063.126.126.126.063.063.126.126.189.126l.315.315c.063.063.126.126.189.126l.189.189c.126.063.189.189.315.252.063.063.126.063.126.126.063.063.189.126.252.189a1.105,1.105,0,0,1,.315.252c.063,0,.063.063.126.063a1.317,1.317,0,0,0,.378.252c.063.063.126.126.189.126a.062.062,0,0,1,.063.063c.252.126.441.315.693.441h.063A1.485,1.485,0,0,0,7.555,21.028Z" transform="translate(0 13.686)" fill="#fcbc43"/>
        <path id="Path-87" data-name="Path" d="M41.917,24.766c-9.821,5.414-25.435,5.1-34.941-.693s-9.255-14.858.5-20.209c9.821-5.414,25.435-5.1,34.941.693C51.99,10.286,51.738,19.352,41.917,24.766Z" transform="translate(0.076 0)" fill="#fff"/>
        <path id="Shape-2" data-name="Shape" d="M20.086,22.853a32.35,32.35,0,0,1-7.768-.929A24.5,24.5,0,0,1,5.543,19.2a13.171,13.171,0,0,1-4.207-3.841A7.393,7.393,0,0,1,0,11.055,7.444,7.444,0,0,1,1.548,6.777,13.391,13.391,0,0,1,5.983,3.085,27.7,27.7,0,0,1,19.267,0a32.555,32.555,0,0,1,7.72.9A24.07,24.07,0,0,1,33.81,3.651a13.173,13.173,0,0,1,4.207,3.841A7.393,7.393,0,0,1,39.351,11.8,7.444,7.444,0,0,1,37.8,16.077a13.391,13.391,0,0,1-4.435,3.692A27.7,27.7,0,0,1,20.086,22.853ZM19.267.63a31.989,31.989,0,0,0-7.028.748A21.94,21.94,0,0,0,6.3,3.588C2.707,5.542.695,8.18.632,11.017c-.063,2.853,1.793,5.558,5.226,7.618,3.609,2.24,8.773,3.525,14.165,3.525A26.947,26.947,0,0,0,32.992,19.2c3.591-1.953,5.6-4.591,5.666-7.429s-1.792-5.558-5.225-7.618C29.823,1.914,24.66.63,19.267.63Z" transform="translate(5.16 2.92)" fill="#fccb4c"/>
        <g id="DjqNP3.tif" transform="translate(12.598 7.075)">
          <g id="Group_10202" data-name="Group 10202">
            <g id="Group_10196" data-name="Group 10196" transform="translate(15.787 1.531)">
              <path id="Path_4733" data-name="Path 4733" d="M59.765,33.181a.452.452,0,0,1,.04.028c-.206,3.189-.533,6.373-.776,9.586a3.81,3.81,0,0,1-.707-.32c-.474-.269-.948-.543-1.418-.815-.655-.378-1.315-.759-1.977-1.133-.4-.225-.808-.443-1.21-.666-.116-.067-.165-.132-.166-.225,0-.9-.006-1.8-.015-2.7,0-.049-.012-.1-.016-.144,2.056-1.209,4.149-2.4,6.161-3.628A.113.113,0,0,1,59.765,33.181Z" transform="translate(-53.519 -33.167)" fill="#efd6a5"/>
            </g>
            <g id="Group_10197" data-name="Group 10197" transform="translate(8.242 0.007)">
              <path id="Path_4734" data-name="Path 4734" d="M57.863,30.766c.052.03,0,.08,0,.113-.006,1-.025,2-.035,3-.017,1.915-.023,3.827-.052,5.739-.024,1.448,0,2.894.016,4.34.006.3.02.6.021.9,0,.032.065.1-.079.1l-.137-.052q-1.812-.539-3.636-1.072c-2.163-.633-4.334-1.257-6.5-1.891q-2.233-.651-4.459-1.306c-.454-.132-.907-.264-1.365-.395a.359.359,0,0,1-.083-.031c-.047-.027-.028-.056.047-.1.14-.077.276-.161.411-.239.8-.462,1.622-.915,2.441-1.367.551-.307,1.07-.631,1.645-.924,1.032-.53,1.956-1.123,2.939-1.681a.183.183,0,0,1,.053.137c.009.9.018,1.8.015,2.7,0,.093.049.157.166.225.4.223.812.441,1.21.666.663.373,1.322.754,1.977,1.133.47.271.944.545,1.418.815a3.809,3.809,0,0,0,.707.32c.242-3.214.569-6.4.776-9.586.043-.161.275-.249.439-.358.539-.355,1.053-.724,1.653-1.049a2.043,2.043,0,0,1,.34-.161A.184.184,0,0,1,57.863,30.766Z" transform="translate(-41.534 -30.746)" fill="#ebb544"/>
            </g>
            <g id="Group_10198" data-name="Group 10198" transform="translate(0.364 9.113)">
              <path id="Path_4735" data-name="Path 4735" d="M53.1,50.319c-1.046.016-2.1.039-3.141.051-2.953.039-5.9.021-8.854-.009-3.442-.035-6.884-.107-10.329-.088a4.185,4.185,0,0,0-.509-.011,1.907,1.907,0,0,0-.529-.028c-.229,0-.453,0-.717,0a1.959,1.959,0,0,1,.2-.176c.28-.181.567-.358.854-.538,2.144-1.325,4.408-2.581,6.6-3.874a.345.345,0,0,0,.147-.123c.1-.084.079-.2.255-.269a.36.36,0,0,1,.3-.018c-.135.079-.271.162-.411.239-.075.04-.094.069-.047.1a.359.359,0,0,0,.083.031c.458.13.911.263,1.365.395q2.227.654,4.459,1.306c2.163.634,4.334,1.258,6.5,1.891q1.824.533,3.636,1.072Z" transform="translate(-29.021 -45.209)" fill="#fbbb43"/>
            </g>
            <g id="Group_10199" data-name="Group 10199" transform="translate(5.536 1.52)">
              <path id="Path_4736" data-name="Path 4736" d="M53.649,33.164c-2.012,1.23-4.1,2.418-6.162,3.623-1.044.03-2.046.051-3.052.074-.657.014-1.315.028-1.971.047a.484.484,0,0,1-.272-.059C40.84,36,39.493,35.16,38.15,34.32a9.888,9.888,0,0,1-.913-.587c.441-.018.861-.039,1.278-.058,3.793-.156,7.587-.311,11.38-.439,1.158-.039,2.316-.083,3.473-.086C53.464,33.15,53.553,33.159,53.649,33.164Z" transform="translate(-37.237 -33.15)" fill="#fefefe"/>
            </g>
            <g id="Group_10200" data-name="Group 10200" transform="translate(0.024 0.123)">
              <path id="Path_4737" data-name="Path 4737" d="M28.482,30.931a3.8,3.8,0,0,1,.536.587q1.8,2.057,3.577,4.114,1.991,2.287,3.988,4.569l.04.033a.345.345,0,0,1-.147.123c-2.193,1.293-4.457,2.549-6.6,3.874-.288.181-.575.357-.854.538a1.958,1.958,0,0,0-.2.176c.264,0,.489,0,.717,0a1.907,1.907,0,0,1,.529.028c-.352.032-.709.007-1.061.025a1.206,1.206,0,0,0-.272.014C28.724,44.732,28.472,31.253,28.482,30.931Z" transform="translate(-28.482 -30.931)" fill="#fbca4c"/>
            </g>
            <g id="Group_10201" data-name="Group 10201">
              <path id="Path_4738" data-name="Path 4738" d="M52.947,30.742a2.043,2.043,0,0,0-.34.161c-.6.325-1.114.694-1.653,1.049-.164.109-.4.2-.439.358-.061-.04-.086-.048-.125-.04-.1,0-.184-.014-.28-.014-1.158,0-2.316.047-3.473.086-3.793.128-7.587.283-11.38.439-.417.019-.837.04-1.278.058a9.888,9.888,0,0,0,.913.587c1.343.84,2.69,1.678,4.025,2.518a.493.493,0,0,0,.289.07c.657-.019,1.314-.033,1.971-.047,1.006-.023,2.008-.044,3.014-.067-.982.562-1.906,1.155-2.938,1.685-.575.292-1.094.617-1.645.924-.819.452-1.638.9-2.441,1.367a.36.36,0,0,0-.3.018c-.176.065-.159.186-.255.269l-.04-.033q-2-2.283-3.988-4.569Q30.8,33.5,29,31.446a3.8,3.8,0,0,0-.536-.587l-.025-.056c.113.005.2-.007.285-.007q6.617-.01,13.23-.028,5.342-.01,10.689-.033C52.743,30.735,52.846,30.74,52.947,30.742Z" transform="translate(-28.443 -30.735)" fill="#fbbb43"/>
            </g>
          </g>
        </g>
      </g>
      <g id="Group-17" data-name="Group" transform="translate(19.567 46.288)">
        <path id="Path-88" data-name="Path" d="M7.555,21.028c.063,0,.063.063.126.063a.477.477,0,0,0,.252.126c.126.063.189.126.315.189.063.063.189.063.252.126.126.063.189.126.315.126.063.063.126.063.189.126.126.063.315.126.441.189.063.063.189.063.252.126a.062.062,0,0,1,.063.063c.252.126.567.252.818.378h0c.063,0,.063,0,.126.063.252.063.441.189.693.252.063,0,.063,0,.126.063.126.063.252.063.315.126a.91.91,0,0,0,.441.126c.063,0,.126.063.252.063.126.063.252.063.378.126.126,0,.189.063.315.063.126.063.252.063.378.126s.252.063.378.126c.063,0,.126.063.189.063.189.063.315.063.5.126.126,0,.189.063.315.063h.063a5.245,5.245,0,0,1,.944.252h.063c.252.063.567.126.818.189H17c.126,0,.189.063.315.063s.315.063.441.063a.568.568,0,0,1,.315.063c.126,0,.252.063.378.063a.379.379,0,0,1,.252.063c.189,0,.378.063.5.063a.378.378,0,0,1,.252.063h.126c.315.063.63.063.944.126h.315c.252,0,.5.063.693.063h.126a1.743,1.743,0,0,1,.567.063,1.386,1.386,0,0,1,.5.063h.063c.5,0,1.007.063,1.574.063h.252c.755,0,1.448,0,2.2-.063h.315a15.437,15.437,0,0,0,1.7-.126H28.9c.378-.063.818-.063,1.2-.126h.063c.315-.063.567-.063.881-.126h.189c.315-.063.693-.126,1.007-.189H32.3c.126,0,.189-.063.315-.063.189-.063.441-.063.63-.126h.126c.126,0,.252-.063.441-.063.126-.063.315-.063.5-.126a.231.231,0,0,0,.189-.063c.126-.063.315-.063.441-.126s.252-.063.378-.126c.063,0,.126-.063.189-.063.126-.063.315-.063.441-.126a.568.568,0,0,1,.315-.063c.063,0,.189-.063.252-.063a1.167,1.167,0,0,1,.441-.126c.063,0,.189-.063.252-.063.126-.063.189-.063.315-.126a1.167,1.167,0,0,1,.441-.126c.063,0,.126-.063.252-.063.126-.063.252-.063.378-.126a.9.9,0,0,1,.378-.126c.063,0,.126-.063.189-.063.126-.063.315-.126.441-.189s.189-.063.315-.126a.062.062,0,0,0,.063-.063c.252-.126.567-.252.818-.378h.063a6.867,6.867,0,0,0,.693-.378c.063,0,.126-.063.189-.126.189-.126.378-.189.567-.315.063-.063.126-.063.189-.126s.189-.126.252-.189.126-.063.189-.126c.126-.063.189-.126.315-.189A.327.327,0,0,1,43.5,20.4a.22.22,0,0,1,.126-.063c.189-.126.441-.315.63-.441h0c.189-.126.378-.315.567-.441l.063-.063.189-.189c.126-.063.189-.189.315-.252l.126-.126.252-.252.189-.189.189-.189a.869.869,0,0,0,.189-.252l.126-.126a.869.869,0,0,0,.189-.252l.252-.252c0-.063.063-.063.063-.126a.869.869,0,0,0,.189-.252,1.105,1.105,0,0,1,.252-.315l.063-.063c.063-.063.063-.126.126-.189.063-.126.189-.252.252-.378,0-.063.063-.063.063-.126a.231.231,0,0,0,.063-.189c.063-.189.189-.315.252-.5a.22.22,0,0,1,.063-.126c0-.063,0-.063.063-.126a3.852,3.852,0,0,0,.315-.755V14.1h0c0-.063.063-.126.063-.189a1.482,1.482,0,0,0,.126-.5c0-.063.063-.189.063-.252,0-.126.063-.189.063-.315V12.78a1.386,1.386,0,0,0,.063-.5.379.379,0,0,1,.063-.252c0-.252.063-.5.063-.755l.189-10.262a3.065,3.065,0,0,1-.063.755.378.378,0,0,1-.063.252c0,.189-.063.315-.063.5,0,.126-.063.252-.063.378,0,.063-.063.189-.063.252a1.482,1.482,0,0,0-.126.5c0,.063-.063.126-.063.189a.062.062,0,0,1-.063.063c-.126.252-.189.5-.315.755-.063.063-.063.189-.126.252-.063.189-.189.315-.252.5-.063.063-.126.189-.189.252-.063.126-.189.252-.252.378s-.126.189-.189.315a1.105,1.105,0,0,1-.252.315,1.373,1.373,0,0,1-.252.315c-.063.063-.126.189-.252.252-.126.126-.189.252-.315.315a.869.869,0,0,0-.189.252l-.378.378-.252.252a2.738,2.738,0,0,1-.441.378L44.951,9a2.8,2.8,0,0,1-.693.5h0c-.252.189-.441.315-.693.5a.327.327,0,0,1-.252.126,2.552,2.552,0,0,1-.567.315c-.063.063-.189.126-.252.189-.252.126-.5.315-.755.441a5.756,5.756,0,0,1-.881.441H40.8c-.315.126-.567.315-.881.441-.126.063-.189.063-.315.126a6.532,6.532,0,0,1-.63.252.9.9,0,0,1-.378.126l-.567.189a1.167,1.167,0,0,1-.441.126l-.567.189a1.167,1.167,0,0,1-.441.126l-.567.189c-.126.063-.315.063-.441.126-.189.063-.378.126-.63.189-.126.063-.315.063-.441.126a2.237,2.237,0,0,1-.63.126.934.934,0,0,1-.441.063,3.16,3.16,0,0,1-.755.126c-.126,0-.189.063-.315.063-.378.063-.755.126-1.07.189H31.1c-.315.063-.63.063-.944.126-.378.063-.818.063-1.2.126h0c-.567.063-1.133.063-1.7.126h-.315c-.755,0-1.448.063-2.2.063H24.49a13.693,13.693,0,0,1-1.574-.063,1.743,1.743,0,0,1-.567-.063,1.743,1.743,0,0,1-.567-.063c-.252,0-.567-.063-.818-.063h-.252c-.378-.063-.693-.063-1.07-.126a.379.379,0,0,1-.252-.063c-.252-.063-.5-.063-.755-.126-.126,0-.252-.063-.378-.063-.252-.063-.5-.063-.755-.126-.126,0-.189-.063-.315-.063l-.944-.189H16.18c-.378-.063-.693-.189-1.007-.252-.126,0-.189-.063-.315-.063-.252-.063-.441-.126-.693-.189-.126-.063-.252-.063-.378-.126-.189-.063-.441-.126-.63-.189-.126-.063-.252-.063-.378-.126a2.631,2.631,0,0,1-.63-.252c-.126-.063-.252-.063-.315-.126-.252-.126-.567-.189-.818-.315-.063,0-.063,0-.126-.063l-.944-.378c-.063-.063-.189-.063-.252-.126-.189-.126-.441-.189-.63-.315-.126-.063-.189-.126-.315-.126-.189-.126-.378-.189-.567-.315a.477.477,0,0,0-.252-.126c-.252-.126-.567-.315-.818-.441-.252-.189-.567-.315-.818-.5-.063-.063-.126-.126-.189-.126a3.492,3.492,0,0,1-.5-.378c-.126-.063-.189-.126-.315-.189-.126-.126-.315-.189-.441-.315-.126-.063-.189-.189-.315-.252-.126-.126-.252-.189-.378-.315L3.84,7.807l-.315-.315-.378-.378L2.9,6.862c-.126-.126-.252-.315-.378-.441-.063-.063-.126-.189-.189-.252l-.567-.755a5.537,5.537,0,0,1-.378-.63h0a2.941,2.941,0,0,1-.315-.63C.944,3.84.818,3.589.693,3.274c0-.063-.063-.126-.063-.189A4.637,4.637,0,0,1,.378,2.2V2.141A4.86,4.86,0,0,1,.252,1.2V.944C.252.63.189.315.189,0h0L0,10.262a4.765,4.765,0,0,0,.063.944v.252c.063.315.063.63.126.944v.063a4.637,4.637,0,0,0,.252.881c0,.063.063.126.063.189.126.315.252.63.378.881h0a11.7,11.7,0,0,0,.693,1.2h0l.567.755a.062.062,0,0,0,.063.063c.063.063.126.126.126.189.126.126.252.315.378.441l.126.126.189.189.378.378c.063.063.063.126.126.126.063.063.126.126.189.126l.315.315c.063.063.126.126.189.126l.189.189c.126.063.189.189.315.252.063.063.126.063.126.126.063.063.189.126.252.189a1.105,1.105,0,0,1,.315.252c.063,0,.063.063.126.063a1.317,1.317,0,0,0,.378.252c.063.063.126.126.189.126a.062.062,0,0,1,.063.063c.252.126.441.315.693.441h.063A1.485,1.485,0,0,0,7.555,21.028Z" transform="translate(0 13.686)" fill="#888"/>
        <path id="Path-89" data-name="Path" d="M41.917,24.766c-9.821,5.414-25.435,5.1-34.941-.693s-9.255-14.858.5-20.209c9.821-5.414,25.435-5.1,34.941.693S51.738,19.415,41.917,24.766Z" transform="translate(0.076 0)" fill="#a3a3a3"/>
        <path id="Shape-3" data-name="Shape" d="M20.086,22.853a32.35,32.35,0,0,1-7.768-.929A24.5,24.5,0,0,1,5.543,19.2a13.171,13.171,0,0,1-4.207-3.841A7.393,7.393,0,0,1,0,11.055,7.444,7.444,0,0,1,1.548,6.777,13.391,13.391,0,0,1,5.983,3.085,27.7,27.7,0,0,1,19.267,0V.63h-.005A26.937,26.937,0,0,0,6.3,3.588C2.707,5.542.695,8.18.632,11.017c-.063,2.853,1.793,5.558,5.226,7.618,3.609,2.24,8.773,3.525,14.165,3.525A26.947,26.947,0,0,0,32.992,19.2c3.591-1.953,5.6-4.591,5.666-7.429s-1.792-5.558-5.225-7.618C29.823,1.914,24.66.63,19.267.63V0a32.759,32.759,0,0,1,7.768.9A23.4,23.4,0,0,1,33.81,3.651a13.172,13.172,0,0,1,4.207,3.841A7.393,7.393,0,0,1,39.351,11.8,7.444,7.444,0,0,1,37.8,16.077a13.391,13.391,0,0,1-4.435,3.692A27.7,27.7,0,0,1,20.086,22.853Z" transform="translate(5.097 2.92)" fill="#fff"/>
        <g id="Group_10173" data-name="Group 10173" transform="translate(14.543 7.971)">
          <g id="Group_10178" data-name="Group 10178">
            <g id="Group_10174" data-name="Group 10174" transform="translate(0 9.123)">
              <path id="Path_4715" data-name="Path 4715" d="M19.044,27.426l10.285,1.529L13.781,30.484Z" transform="translate(-13.781 -27.426)" fill="#fff"/>
            </g>
            <g id="Group_10175" data-name="Group 10175" transform="translate(0 3.17)">
              <path id="Path_4716" data-name="Path 4716" d="M16.371,22.5l2.674,5.952-5.263,3.059Z" transform="translate(-13.781 -22.505)" fill="#fff"/>
            </g>
            <g id="Group_10176" data-name="Group 10176" transform="translate(3.809)">
              <path id="Path_4717" data-name="Path 4717" d="M16.931,22.345l17.152-2.461L19.6,28.3Z" transform="translate(-16.931 -19.884)" fill="#fff"/>
            </g>
            <g id="Group_10177" data-name="Group 10177" transform="translate(6.483)">
              <path id="Path_4718" data-name="Path 4718" d="M33.619,19.884l-4.193,9.943L19.141,28.3Z" transform="translate(-19.141 -19.884)" fill="#fff"/>
            </g>
          </g>
        </g>
      </g>
      <g id="Group-18" data-name="Group" transform="translate(48.275 0)">
        <path id="Path-90" data-name="Path" d="M3.463,22.35c0,.063.063.063.063.126.063.063.126.189.189.252a1.105,1.105,0,0,0,.252.315.869.869,0,0,1,.189.252c.063.063.126.189.189.252s.063.126.126.189c.126.126.189.252.315.378l.189.189.063.063a5.936,5.936,0,0,0,.63.63h0l.063.063.5.5c.063.063.063.063.126.063l.252.252.315.315.189.189c.126.063.189.189.315.252a.869.869,0,0,0,.252.189l.252.252c.126.063.189.189.315.252.063.063.126.063.126.126a1.129,1.129,0,0,0,.441.315c.063.063.189.126.252.189l.063.063.755.567h0l.063.063c.252.189.441.315.693.5.063,0,.063.063.126.063.063.063.189.126.252.189.126.063.252.189.378.252.063.063.189.126.252.189.126.063.189.126.315.189a.327.327,0,0,0,.252.126c.126.063.315.189.441.252a.327.327,0,0,0,.252.126l.063.063a3.392,3.392,0,0,0,.818.441h.063c.063.063.126.063.252.126.189.126.441.252.63.378.063,0,.063.063.126.063a3.738,3.738,0,0,1,.5.252,1.578,1.578,0,0,1,.441.252.062.062,0,0,1,.063.063c.441.252.944.441,1.385.693.063,0,.063.063.126.063s.063.063.126.063c.693.315,1.322.567,2.015.818.063,0,.063,0,.126.063.063,0,.126.063.189.063.567.189,1.07.378,1.637.567h.063l1.133.378h.063c.252.063.567.189.818.252.063,0,.126.063.189.063h0c.315.063.693.189,1.007.252h.063c.126,0,.189.063.315.063a2.237,2.237,0,0,0,.63.126h.126c.126,0,.315.063.441.063.189,0,.315.063.5.063h.189c.126,0,.315.063.441.063s.252.063.378.063h.252c.189,0,.315.063.5.063a2.727,2.727,0,0,1,.315.063h.252c.189,0,.315.063.5.063h.63a1.071,1.071,0,0,1,.441.063h3.085a3.872,3.872,0,0,0,.818-.063h.189c.189,0,.441-.063.63-.063a.476.476,0,0,0,.252-.063.568.568,0,0,0,.315-.063.379.379,0,0,0,.252-.063c.126,0,.252-.063.378-.063a.379.379,0,0,0,.252-.063h.126l.755-.189h0l.755-.189h.063c.063,0,.189-.063.252-.063.126-.063.252-.063.378-.126.063,0,.126-.063.189-.063.126-.063.189-.063.315-.126.063,0,.126-.063.252-.063.063,0,.126-.063.252-.126s.189-.063.315-.126a.22.22,0,0,0,.126-.063c.063-.063.189-.063.252-.126.126-.063.189-.126.315-.126.063,0,.063-.063.126-.063a.477.477,0,0,1,.252-.126,1.376,1.376,0,0,0,.315-.189c.063,0,.063-.063.126-.063.063-.063.126-.063.189-.126.126-.063.252-.189.378-.252.063,0,.063-.063.126-.063.063-.063.126-.063.126-.126a1.913,1.913,0,0,1,.441-.315l.126-.126L43.5,32.8c.189-.189.441-.378.63-.567a.062.062,0,0,0,.063-.063h0l.126-.126a1.669,1.669,0,0,0,.315-.378c.063-.063.126-.126.126-.189.063-.063.126-.189.189-.252a.062.062,0,0,1,.063-.063,1.015,1.015,0,0,0,.252-.441c.063-.063.063-.126.126-.189a2.94,2.94,0,0,0,.315-.63l4.281-9.318a5.85,5.85,0,0,1-.315.63c-.063.063-.063.126-.126.189-.063.126-.189.315-.252.441s-.189.189-.252.315c-.063.063-.126.126-.126.189a1.67,1.67,0,0,0-.315.378l-.126.126-.063.063a5.677,5.677,0,0,1-.63.567l-.189.189a1.913,1.913,0,0,1-.441.315c-.063.063-.189.126-.252.189-.126.063-.252.189-.378.252s-.189.126-.315.189-.189.126-.315.189l-.378.189c-.126.063-.189.126-.315.126a3.07,3.07,0,0,1-.441.189c-.126.063-.189.063-.315.126s-.315.126-.441.189-.189.063-.315.126a4.338,4.338,0,0,0-.5.189c-.063,0-.189.063-.252.063-.252.063-.567.126-.818.189h0c-.252.063-.567.126-.881.189-.063,0-.189.063-.252.063-.189.063-.441.063-.63.126a.568.568,0,0,0-.315.063c-.315.063-.567.063-.881.126-.315,0-.693.063-1.007.063H35.634a2.142,2.142,0,0,1-.63-.063,1.071,1.071,0,0,1-.441-.063c-.189,0-.378-.063-.63-.063-.189,0-.315-.063-.5-.063s-.378-.063-.567-.063-.315-.063-.5-.063a2.237,2.237,0,0,1-.63-.126c-.126,0-.315-.063-.441-.063-.189-.063-.441-.063-.63-.126-.126,0-.315-.063-.441-.063l-.755-.189c-.126,0-.189-.063-.315-.063-.378-.063-.693-.189-1.07-.252-.063,0-.126-.063-.189-.063-.315-.063-.567-.189-.881-.252l-1.133-.378h0c-.567-.189-1.07-.378-1.637-.567-.126-.063-.189-.063-.315-.126-.693-.252-1.322-.567-2.015-.818-.063-.063-.189-.063-.252-.126a14.2,14.2,0,0,1-1.385-.693c-.189-.063-.315-.189-.5-.252a3.738,3.738,0,0,1-.5-.252l-.755-.378c-.063-.063-.126-.063-.252-.126l-.944-.567a.477.477,0,0,0-.252-.126,4.234,4.234,0,0,1-.693-.441c-.126-.063-.189-.126-.315-.189a3.822,3.822,0,0,1-.63-.441c-.063-.063-.189-.126-.252-.189-.252-.189-.567-.378-.818-.567l-.063-.063a9.254,9.254,0,0,1-.818-.63c-.063-.063-.189-.126-.252-.189-.189-.126-.378-.315-.567-.441-.126-.063-.189-.189-.315-.252-.189-.126-.315-.315-.5-.441-.126-.063-.189-.189-.315-.252-.189-.126-.315-.315-.5-.441l-.252-.252-.63-.63-.063-.063c-.252-.252-.441-.5-.693-.755l-.189-.189a3.46,3.46,0,0,1-.441-.567c-.063-.063-.126-.189-.189-.252a1.7,1.7,0,0,0-.441-.5c-.063-.063-.126-.189-.189-.252l-.567-.755a5.748,5.748,0,0,1-.5-.818c-.063-.063-.063-.126-.126-.252a2.552,2.552,0,0,1-.315-.567c-.063-.126-.126-.189-.189-.315A2.737,2.737,0,0,0,5.981,9.7a1.376,1.376,0,0,0-.189-.315c-.063-.126-.126-.315-.189-.441l-.189-.378-.189-.378c-.063-.126-.126-.315-.189-.441s-.063-.252-.126-.378L4.722,6.8c0-.126-.063-.189-.063-.315L4.47,5.54c-.063-.252-.063-.5-.126-.693h0c0-.252-.063-.441-.063-.693V2.9a3.716,3.716,0,0,1,.126-.881V1.952a3.609,3.609,0,0,1,.252-.881c0-.063.063-.126.063-.189C4.848.567,4.911.315,5.037,0h0L.755,9.318a3.64,3.64,0,0,0-.315.881c0,.063-.063.126-.063.189-.063.315-.189.567-.252.881v.063c-.063.315-.063.567-.126.881v1.259H0a11.307,11.307,0,0,0,.126,1.385v.063l.189.944v.063c0,.063.063.126.063.189l.189.567c0,.063,0,.126.063.126,0,.063.063.126.063.189.063.126.126.315.189.441,0,.063.063.126.063.189s.063.126.063.189l.189.378c0,.063.063.126.063.189.063.063.063.126.126.252l.189.378c0,.063.063.126.063.189.063.126.126.189.189.315s.126.189.189.315c0,.063.063.063.063.126a2.737,2.737,0,0,1,.252.441c.063.063.063.126.126.252a.062.062,0,0,0,.063.063c.126.252.315.441.441.693v.063A4.735,4.735,0,0,0,3.463,22.35Z" transform="translate(0 6.082)" fill="#2891fa"/>
        <path id="Path-91" data-name="Path" d="M34.8,33.154c-11.143,1.007-25.309-5.6-31.73-14.732C-3.291,9.293.549,1.109,11.693.1S37,5.7,43.423,14.833C49.782,23.962,45.941,32.21,34.8,33.154Z" transform="translate(4.236 0)" fill="#2cbdf7"/>
        <path id="Shape-4" data-name="Shape" d="M25.882,26.442a30.266,30.266,0,0,1-13.15-3.337,27.481,27.481,0,0,1-10.27-8.436A13.344,13.344,0,0,1,.139,9.444a7.367,7.367,0,0,1,.5-4.473,7.427,7.427,0,0,1,3.135-3.3A13.547,13.547,0,0,1,9.324.063,17.589,17.589,0,0,1,11.15,0V.63h-.173A14.225,14.225,0,0,0,9.387.692a13.236,13.236,0,0,0-5.178,1.44A6.811,6.811,0,0,0,1.2,5.225c-1.192,2.51-.566,5.73,1.763,9.066a27.238,27.238,0,0,0,10.018,8.216,29.518,29.518,0,0,0,12.9,3.305,15.681,15.681,0,0,0,1.763-.063,13.233,13.233,0,0,0,5.179-1.44,6.81,6.81,0,0,0,3.006-3.093c1.192-2.51.566-5.73-1.763-9.066A27.239,27.239,0,0,0,24.049,3.935,29.52,29.52,0,0,0,11.15.63V0A30.193,30.193,0,0,1,24.3,3.36a27.787,27.787,0,0,1,10.27,8.413A13.343,13.343,0,0,1,36.894,17a7.367,7.367,0,0,1-.5,4.473,7.427,7.427,0,0,1-3.135,3.3,13.546,13.546,0,0,1-5.554,1.612A17.6,17.6,0,0,1,25.882,26.442Z" transform="translate(8.933 3.438)" fill="#fff"/>
        <g id="Group_10195" data-name="Group 10195" transform="translate(16.054 9.751)">
          <g id="Group_10194" data-name="Group 10194">
            <g id="Group_10179" data-name="Group 10179" transform="translate(0 1.114)">
              <path id="Path_4719" data-name="Path 4719" d="M45.454,47.27q.049,1.454.088,2.9l-.1-.012-.1-2.9.068,0Z" transform="translate(-45.342 -47.262)" fill="#fff"/>
            </g>
            <g id="Group_10180" data-name="Group 10180" transform="translate(0.274 9.239)">
              <path id="Path_4720" data-name="Path 4720" d="M45.918,61.318c-.009.466.18.962-.054,1.39l-.047-1.4Z" transform="translate(-45.816 -61.306)" fill="#fff"/>
            </g>
            <g id="Group_10181" data-name="Group 10181" transform="translate(0.243 8.306)">
              <path id="Path_4721" data-name="Path 4721" d="M45.864,59.7l.031.933-.1-.012-.031-.933Z" transform="translate(-45.762 -59.693)" fill="#fff"/>
            </g>
            <g id="Group_10189" data-name="Group 10189" transform="translate(0.098)" style="isolation: isolate">
              <g id="Group_10182" data-name="Group 10182" transform="translate(14.169 1.545)">
                <path id="Path_4722" data-name="Path 4722" d="M73.335,48.01a.6.6,0,0,1,.231.08c1.045.579,2.091,1.154,3.137,1.737.052.034.075.108.112.164q-1.695.572-3.39,1.139c-.948-.536-1.9-1.065-2.843-1.6-.2-.119-.39-.259-.582-.392.976-.426,2.053-.721,3.072-1.087A.578.578,0,0,1,73.335,48.01Z" transform="translate(-70 -48.007)" fill="#fff"/>
              </g>
              <g id="Group_10183" data-name="Group 10183" transform="translate(0.135)">
                <path id="Path_4723" data-name="Path 4723" d="M49.033,45.341a.925.925,0,0,1,.346.123q5.156,2.841,10.326,5.668a2.307,2.307,0,0,1-.355.192c-1.019.362-2.048.714-3.068,1.072q-5.109-2.837-10.219-5.677a.67.67,0,0,1-.32-.3l.046-.016c.963-.336,1.932-.665,2.886-1.011A.782.782,0,0,1,49.033,45.341Z" transform="translate(-45.744 -45.337)" fill="#fff"/>
              </g>
              <g id="Group_10184" data-name="Group 10184" transform="translate(0 4.009)">
                <path id="Path_4724" data-name="Path 4724" d="M45.613,52.278l.041,1.213-.1-.011-.041-1.214Z" transform="translate(-45.511 -52.266)" fill="#fff"/>
              </g>
              <g id="Group_10185" data-name="Group 10185" transform="translate(0.041 5.223)">
                <path id="Path_4725" data-name="Path 4725" d="M45.684,54.375l.038,1.121-.1-.011-.038-1.121Z" transform="translate(-45.582 -54.364)" fill="#fff"/>
              </g>
              <g id="Group_10186" data-name="Group 10186" transform="translate(0.079 6.344)">
                <path id="Path_4726" data-name="Path 4726" d="M45.749,56.313l.035,1.025-.1-.007L45.647,56.3Z" transform="translate(-45.647 -56.302)" fill="#fff"/>
              </g>
              <g id="Group_10187" data-name="Group 10187" transform="translate(0.113 7.373)">
                <path id="Path_4727" data-name="Path 4727" d="M45.809,58.088l.032.937-.1-.012-.032-.933Z" transform="translate(-45.707 -58.081)" fill="#fff"/>
              </g>
              <g id="Group_10188" data-name="Group 10188" transform="translate(3.637 6.463)">
                <path id="Path_4728" data-name="Path 4728" d="M52.062,56.51a1.367,1.367,0,0,1,.477.241c.949.572,2,1,2.9,1.647,0,.069,0,.138,0,.207.012.953.019,1.9.055,2.856.015.285-.091.437-.408.541-.955.309-1.888.644-2.833.966-.064,0-.125-.01-.188-.017l-.051-.005c-.062-1.99-.13-3.981-.186-5.974-.006-.16-.12-.392.116-.454A.311.311,0,0,1,52.062,56.51Z" transform="translate(-51.797 -56.508)" fill="#fff"/>
              </g>
            </g>
            <g id="Group_10190" data-name="Group 10190" transform="translate(14.139 2.671)">
              <path id="Path_4729" data-name="Path 4729" d="M69.907,49.954c.192.133.38.274.582.392.942.54,1.9,1.069,2.843,1.6q.121,3.826.248,7.649a10.184,10.184,0,0,1-.035,2.126c-1.05-.564-2.1-1.139-3.15-1.691a.478.478,0,0,1-.291-.5c-.025-1.04-.056-2.081-.08-3.121-.043-1.118-.08-2.24-.118-3.357-.035-.882-.075-1.764-.1-2.644C69.8,50.258,69.707,50.068,69.907,49.954Z" transform="translate(-69.779 -49.954)" fill="#fff"/>
            </g>
            <g id="Group_10191" data-name="Group 10191" transform="translate(10.734 5.779)">
              <path id="Path_4730" data-name="Path 4730" d="M67.425,55.326c.038,1.117.075,2.239.118,3.357a29.092,29.092,0,0,0-2.981.933c-.15.043-.278.177-.46.157a.343.343,0,0,1-.068-.014.537.537,0,0,1-.14-.069c.158-.142.121-.338.12-.521q-.043-1.28-.082-2.562c1.019-.358,2.049-.71,3.068-1.072a2.307,2.307,0,0,0,.355-.192Z" transform="translate(-63.894 -55.326)" fill="#fff"/>
            </g>
            <g id="Group_10192" data-name="Group 10192" transform="translate(0.068 1.02)">
              <path id="Path_4731" data-name="Path 4731" d="M45.525,47.1l.145.047-.046.016a.67.67,0,0,0,.32.3q5.11,2.842,10.219,5.677.036,1.284.082,2.563c0,.183.038.379-.12.521a.537.537,0,0,0,.14.069.554.554,0,0,1-.287.042,1.566,1.566,0,0,1-.532-.206c-.905-.484-1.785-.989-2.676-1.488,0-.069,0-.138,0-.207-.9-.642-1.952-1.075-2.9-1.647a1.367,1.367,0,0,0-.477-.241.31.31,0,0,0-.115.007c-.237.062-.122.294-.116.454.057,1.993.124,3.983.186,5.974l.051.005A.933.933,0,0,1,49.09,59a2.6,2.6,0,0,1-.764-.265c-.7-.325-1.375-.715-2.048-1.093a1.777,1.777,0,0,1-.552-.544l-.013-.377c.234-.429.045-.925.054-1.39l-.031-.933-.032-.937-.035-1.025-.038-1.121L45.591,50.1q-.041-1.447-.088-2.9l-.043,0A.13.13,0,0,1,45.525,47.1Z" transform="translate(-45.46 -47.101)" fill="#fff"/>
            </g>
            <g id="Group_10193" data-name="Group 10193" transform="translate(17.692 3.528)">
              <path id="Path_4732" data-name="Path 4732" d="M79.31,51.436c.076,1.648.152,3.3.223,4.949.066,1.5.116,2.989.2,4.487.016.309-.1.463-.443.565a23.624,23.624,0,0,1-3.163.949l.009-.035a10.182,10.182,0,0,0,.035-2.126q-.121-3.826-.248-7.649Q77.615,52,79.31,51.436Z" transform="translate(-75.92 -51.436)" fill="#fff"/>
            </g>
          </g>
        </g>
      </g>
    </g>
  </g>
</svg>
