<svg xmlns="http://www.w3.org/2000/svg" xmlns:xlink="http://www.w3.org/1999/xlink" width="284.009" height="388.326" viewBox="0 0 284.009 388.326">
  <defs>
    <linearGradient id="linear-gradient" x1="0.997" y1="0.489" x2="-0.001" y2="0.489" gradientUnits="objectBoundingBox">
      <stop offset="0.001" stop-color="#00366a"/>
      <stop offset="0.341" stop-color="#003368"/>
      <stop offset="0.576" stop-color="#012a62"/>
      <stop offset="0.78" stop-color="#031b58"/>
      <stop offset="0.964" stop-color="#050549"/>
      <stop offset="1" stop-color="#050046"/>
    </linearGradient>
    <linearGradient id="linear-gradient-2" x1="0.998" y1="0.345" x2="0.014" y2="0.615" xlink:href="#linear-gradient"/>
  </defs>
  <g id="Group_10206" data-name="Group 10206" transform="translate(-419.254 -66.703)">
    <g id="Group_10205" data-name="Group 10205" transform="translate(419.254 66.702)">
      <g id="Group" transform="translate(75.056 130.95)">
        <path id="Path" d="M183.272,45.015,91.928,90.031,0,45.015,91.344,0Z" transform="translate(0.657 0)" fill="#b0cbff"/>
        <path id="Path-2" data-name="Path" d="M92,0l-.73,167.346L0,212.361.657,45.015Z" transform="translate(91.928 45.015)" fill="#68a4fa"/>
        <path id="Path-3" data-name="Path" d="M92.584,45.015l-.657,167.346L0,167.346.657,0Z" transform="translate(0 45.015)" fill="#206dff"/>
        <g id="Group-2" data-name="Group" transform="translate(22.011 22.654)">
          <g id="Group-3" data-name="Group" transform="translate(0 15.683)" opacity="0.16">
            <path id="Path-4" data-name="Path" d="M30.577,18.066c-7.164,3.95-18.554,3.72-25.488-.505S-1.663,6.723,5.456,2.819C12.62-1.13,24.009-.9,30.944,3.324,37.924,7.549,37.741,14.163,30.577,18.066Z" transform="translate(0 0)" fill="rgba(0,0,0,0.2)"/>
          </g>
          <g id="Group-4" data-name="Group" transform="translate(9.359 9.529)">
            <path id="Path-5" data-name="Path" d="M5.511,15.339c.046,0,.046.046.092.046a.348.348,0,0,0,.184.092c.092.046.138.092.23.138.046.046.138.046.184.092.092.046.138.092.23.092.046.046.092.046.138.092.092.046.23.092.321.138.046.046.138.046.184.092a.045.045,0,0,1,.046.046c.184.092.413.184.6.276h0c.046,0,.046,0,.092.046.184.046.321.138.505.184.046,0,.046,0,.092.046.092.046.184.046.23.092a.664.664,0,0,0,.321.092c.046,0,.092.046.184.046.092.046.184.046.276.092.092,0,.138.046.23.046.092.046.184.046.276.092s.184.046.276.092c.046,0,.092.046.138.046.138.046.23.046.367.092.092,0,.138.046.23.046h.046a3.826,3.826,0,0,1,.689.184h.046c.184.046.413.092.6.138H12.4c.092,0,.138.046.23.046s.23.046.321.046a.414.414,0,0,1,.23.046c.092,0,.184.046.276.046A.276.276,0,0,1,13.64,18c.138,0,.276.046.367.046a.276.276,0,0,1,.184.046h.092c.23.046.459.046.689.092h.23c.184,0,.367.046.505.046H15.8a1.271,1.271,0,0,1,.413.046,1.011,1.011,0,0,1,.367.046h.046c.367,0,.735.046,1.148.046h.184c.551,0,1.056,0,1.607-.046h.23a11.26,11.26,0,0,0,1.24-.092h.046c.276-.046.6-.046.873-.092H22c.23-.046.413-.046.643-.092h.138c.23-.046.505-.092.735-.138h.046c.092,0,.138-.046.23-.046.138-.046.321-.046.459-.092h.092c.092,0,.184-.046.321-.046.092-.046.23-.046.367-.092a.169.169,0,0,0,.138-.046c.092-.046.23-.046.321-.092s.184-.046.276-.092c.046,0,.092-.046.138-.046.092-.046.23-.046.321-.092a.414.414,0,0,1,.23-.046c.046,0,.138-.046.184-.046a.851.851,0,0,1,.321-.092c.046,0,.138-.046.184-.046.092-.046.138-.046.23-.092a.851.851,0,0,1,.321-.092c.046,0,.092-.046.184-.046.092-.046.184-.046.276-.092a.653.653,0,0,1,.276-.092c.046,0,.092-.046.138-.046.092-.046.23-.092.321-.138s.138-.046.23-.092a.045.045,0,0,0,.046-.046c.184-.092.413-.184.6-.276h.046a5.009,5.009,0,0,0,.505-.276c.046,0,.092-.046.138-.092.138-.092.276-.138.413-.23.046-.046.092-.046.138-.092s.138-.092.184-.138.092-.046.138-.092c.092-.046.138-.092.23-.138a.239.239,0,0,1,.184-.092.16.16,0,0,1,.092-.046c.138-.092.321-.23.459-.321h0c.138-.092.276-.23.413-.321l.046-.046.138-.138c.092-.046.138-.138.23-.184l.092-.092.184-.184.138-.138.138-.138a.634.634,0,0,0,.138-.184L33.893,13a.634.634,0,0,0,.138-.184l.184-.184c0-.046.046-.046.046-.092a.634.634,0,0,0,.138-.184.806.806,0,0,1,.184-.23l.046-.046c.046-.046.046-.092.092-.138.046-.092.138-.184.184-.276,0-.046.046-.046.046-.092a.169.169,0,0,0,.046-.138c.046-.138.138-.23.184-.367a.16.16,0,0,1,.046-.092c0-.046,0-.046.046-.092a2.81,2.81,0,0,0,.23-.551v-.046h0c0-.046.046-.092.046-.138a1.081,1.081,0,0,0,.092-.367c0-.046.046-.138.046-.184,0-.092.046-.138.046-.23V9.323a1.011,1.011,0,0,0,.046-.367.276.276,0,0,1,.046-.184c0-.184.046-.367.046-.551L36.005.735a2.236,2.236,0,0,1-.046.551.276.276,0,0,1-.046.184c0,.138-.046.23-.046.367,0,.092-.046.184-.046.276,0,.046-.046.138-.046.184a1.081,1.081,0,0,0-.092.367c0,.046-.046.092-.046.138a.045.045,0,0,1-.046.046c-.092.184-.138.367-.23.551-.046.046-.046.138-.092.184-.046.138-.138.23-.184.367-.046.046-.092.138-.138.184-.046.092-.138.184-.184.276s-.092.138-.138.23a.806.806,0,0,1-.184.23,1,1,0,0,1-.184.23c-.046.046-.092.138-.184.184-.092.092-.138.184-.23.23a.634.634,0,0,0-.138.184l-.276.276-.184.184a2,2,0,0,1-.321.276l-.138.138a2.039,2.039,0,0,1-.505.367h0c-.184.138-.321.23-.505.367a.239.239,0,0,1-.184.092,1.862,1.862,0,0,1-.413.23c-.046.046-.138.092-.184.138-.184.092-.367.23-.551.321a4.2,4.2,0,0,1-.643.321h-.046c-.23.092-.413.23-.643.321-.092.046-.138.046-.23.092A4.765,4.765,0,0,1,28.427,9a.653.653,0,0,1-.276.092l-.413.138a.851.851,0,0,1-.321.092L27,9.461a.851.851,0,0,1-.321.092l-.413.138c-.092.046-.23.046-.321.092-.138.046-.276.092-.459.138-.092.046-.23.046-.321.092a1.632,1.632,0,0,1-.459.092.681.681,0,0,1-.321.046,2.305,2.305,0,0,1-.551.092c-.092,0-.138.046-.23.046-.276.046-.551.092-.781.138h-.138c-.23.046-.459.046-.689.092-.276.046-.6.046-.873.092h0c-.413.046-.827.046-1.24.092h-.23c-.551,0-1.056.046-1.607.046h-.184a9.989,9.989,0,0,1-1.148-.046,1.272,1.272,0,0,1-.413-.046,1.271,1.271,0,0,1-.413-.046c-.184,0-.413-.046-.6-.046h-.184c-.276-.046-.505-.046-.781-.092a.276.276,0,0,1-.184-.046c-.184-.046-.367-.046-.551-.092-.092,0-.184-.046-.276-.046-.184-.046-.367-.046-.551-.092-.092,0-.138-.046-.23-.046l-.689-.138H11.8c-.276-.046-.505-.138-.735-.184-.092,0-.138-.046-.23-.046-.184-.046-.321-.092-.505-.138-.092-.046-.184-.046-.276-.092-.138-.046-.321-.092-.459-.138-.092-.046-.184-.046-.276-.092a1.919,1.919,0,0,1-.459-.184c-.092-.046-.184-.046-.23-.092-.184-.092-.413-.138-.6-.23-.046,0-.046,0-.092-.046L7.256,8.5C7.21,8.45,7.118,8.45,7.072,8.4c-.138-.092-.321-.138-.459-.23-.092-.046-.138-.092-.23-.092-.138-.092-.276-.138-.413-.23a.348.348,0,0,0-.184-.092c-.184-.092-.413-.23-.6-.321-.184-.138-.413-.23-.6-.367-.046-.046-.092-.092-.138-.092a2.547,2.547,0,0,1-.367-.276c-.092-.046-.138-.092-.23-.138-.092-.092-.23-.138-.321-.23-.092-.046-.138-.138-.23-.184-.092-.092-.184-.138-.276-.23l-.23-.23-.23-.23L2.3,5.19l-.184-.184c-.092-.092-.184-.23-.276-.321-.046-.046-.092-.138-.138-.184L1.286,3.95A4.039,4.039,0,0,1,1.01,3.49h0a2.145,2.145,0,0,1-.23-.459C.689,2.8.6,2.618.505,2.388c0-.046-.046-.092-.046-.138a3.383,3.383,0,0,1-.184-.643V1.561A3.545,3.545,0,0,1,.184.873V.689C.184.459.138.23.138,0h0L0,7.486a3.476,3.476,0,0,0,.046.689v.184c.046.23.046.459.092.689v.046a3.383,3.383,0,0,0,.184.643c0,.046.046.092.046.138.092.23.184.459.276.643h0a8.531,8.531,0,0,0,.505.873h0l.413.551a.045.045,0,0,0,.046.046c.046.046.092.092.092.138.092.092.184.23.276.321l.092.092.138.138.276.276c.046.046.046.092.092.092.046.046.092.092.138.092l.23.23c.046.046.092.092.138.092l.138.138c.092.046.138.138.23.184.046.046.092.046.092.092.046.046.138.092.184.138a.806.806,0,0,1,.23.184c.046,0,.046.046.092.046a.961.961,0,0,0,.276.184c.046.046.092.092.138.092a.045.045,0,0,1,.046.046c.184.092.321.23.505.321h.046A1.084,1.084,0,0,0,5.511,15.339Z" transform="translate(0 9.983)" fill="#888"/>
            <path id="Path-6" data-name="Path" d="M30.577,18.066c-7.164,3.95-18.554,3.72-25.488-.505S-1.663,6.723,5.456,2.819C12.62-1.13,24.009-.9,30.944,3.324S37.741,14.163,30.577,18.066Z" transform="translate(0.055 0)" fill="#a3a3a3"/>
            <path id="Shape" d="M14.652,16.671a23.6,23.6,0,0,1-5.666-.677,17.872,17.872,0,0,1-4.943-1.986,9.608,9.608,0,0,1-3.069-2.8A5.393,5.393,0,0,1,0,8.064,5.43,5.43,0,0,1,1.13,4.943,9.768,9.768,0,0,1,4.365,2.25,20.21,20.21,0,0,1,14.055,0V.459h0A19.65,19.65,0,0,0,4.594,2.618C1.975,4.042.507,5.967.461,8.037s1.308,4.055,3.812,5.557a20.175,20.175,0,0,0,10.333,2.572,19.657,19.657,0,0,0,9.46-2.158c2.619-1.425,4.087-3.349,4.133-5.419s-1.307-4.054-3.812-5.557A20.175,20.175,0,0,0,14.055.459V0a23.9,23.9,0,0,1,5.666.66,17.073,17.073,0,0,1,4.943,2,9.609,9.609,0,0,1,3.069,2.8,5.393,5.393,0,0,1,.973,3.141,5.43,5.43,0,0,1-1.128,3.121,9.768,9.768,0,0,1-3.235,2.693A20.206,20.206,0,0,1,14.652,16.671Z" transform="translate(3.718 2.13)" fill="#fff"/>
            <g id="Group_10173" data-name="Group 10173" transform="translate(10.609 5.815)">
              <g id="Group_10178" data-name="Group 10178">
                <g id="Group_10174" data-name="Group 10174" transform="translate(0 6.655)">
                  <path id="Path_4715" data-name="Path 4715" d="M17.621,27.426l7.5,1.116L13.781,29.657Z" transform="translate(-13.781 -27.426)" fill="#fff"/>
                </g>
                <g id="Group_10175" data-name="Group 10175" transform="translate(0 2.313)">
                  <path id="Path_4716" data-name="Path 4716" d="M15.67,22.5l1.95,4.342-3.839,2.231Z" transform="translate(-13.781 -22.505)" fill="#fff"/>
                </g>
                <g id="Group_10176" data-name="Group 10176" transform="translate(2.779)">
                  <path id="Path_4717" data-name="Path 4717" d="M16.931,21.679l12.512-1.8L18.881,26.021Z" transform="translate(-16.931 -19.884)" fill="#fff"/>
                </g>
                <g id="Group_10177" data-name="Group 10177" transform="translate(4.729)">
                  <path id="Path_4718" data-name="Path 4718" d="M29.7,19.884l-3.059,7.253-7.5-1.116Z" transform="translate(-19.141 -19.884)" fill="#fff"/>
                </g>
              </g>
            </g>
          </g>
          <g id="Group-5" data-name="Group" transform="translate(5.148 0)">
            <path id="Path-7" data-name="Path" d="M5.511,15.339c.046,0,.046.046.092.046a.348.348,0,0,0,.184.092c.092.046.138.092.23.138.046.046.138.046.184.092.092.046.138.092.23.092.046.046.092.046.138.092.092.046.23.092.321.138.046.046.138.046.184.092a.045.045,0,0,1,.046.046c.184.092.413.184.6.276h0c.046,0,.046.046.092.046.184.046.321.138.505.184.046,0,.046,0,.092.046.092.046.184.046.23.092a.664.664,0,0,0,.321.092c.046,0,.092.046.184.046.092.046.184.046.276.092.092,0,.138.046.23.046.092.046.184.046.276.092s.184.046.276.092c.046,0,.092.046.138.046.138.046.23.046.367.092.092,0,.138.046.23.046h.046a3.826,3.826,0,0,1,.689.184h.046c.184.046.413.092.6.138H12.4c.092,0,.138.046.23.046s.23.046.321.046a.414.414,0,0,1,.23.046c.092,0,.184.046.276.046A.276.276,0,0,1,13.64,18c.138,0,.276.046.367.046a.276.276,0,0,1,.184.046h.092c.23.046.459.046.689.092h.23c.184,0,.367.046.505.046H15.8a1.271,1.271,0,0,1,.413.046,1.011,1.011,0,0,1,.367.046h.046c.367,0,.735.046,1.148.046h.184c.551,0,1.056,0,1.607-.046h.23a11.26,11.26,0,0,0,1.24-.092h.046c.276-.046.6-.046.873-.092H22c.23-.046.413-.046.643-.092h.138c.23-.046.505-.092.735-.138h.046c.092,0,.138-.046.23-.046.138-.046.321-.046.459-.092h.092c.092,0,.184-.046.321-.046.092-.046.23-.046.367-.092a.169.169,0,0,0,.138-.046c.092-.046.23-.046.321-.092s.184-.046.276-.092c.046,0,.092-.046.138-.046.092-.046.23-.046.321-.092a.414.414,0,0,1,.23-.046c.046,0,.138-.046.184-.046a.851.851,0,0,1,.321-.092c.046,0,.138-.046.184-.046.092-.046.138-.046.23-.092a.851.851,0,0,1,.321-.092c.046,0,.092-.046.184-.046.092-.046.184-.046.276-.092a.653.653,0,0,1,.276-.092c.046,0,.092-.046.138-.046.092-.046.23-.092.321-.138s.138-.046.23-.092a.045.045,0,0,0,.046-.046c.184-.092.413-.184.6-.276h.046a5.009,5.009,0,0,0,.505-.276c.046-.046.092-.046.138-.092.138-.092.276-.138.413-.23.046-.046.092-.046.138-.092s.138-.092.184-.138.092-.046.138-.092c.092-.046.138-.092.23-.138a.239.239,0,0,1,.184-.092.16.16,0,0,1,.092-.046c.138-.092.321-.23.459-.321h0c.138-.092.276-.23.413-.321l.046-.046.138-.138c.092-.046.138-.138.23-.184l.092-.092.184-.184.138-.138.138-.138a.634.634,0,0,0,.138-.184L33.893,13a.634.634,0,0,0,.138-.184l.184-.184c0-.046.046-.046.046-.092a.634.634,0,0,0,.138-.184.806.806,0,0,1,.184-.23l.046-.046c.046-.046.046-.092.092-.138.046-.092.138-.184.184-.276,0-.046.046-.046.046-.092a.169.169,0,0,0,.046-.138c.046-.138.138-.23.184-.367a.16.16,0,0,1,.046-.092c0-.046,0-.046.046-.092a2.81,2.81,0,0,0,.23-.551v-.046h0c0-.046.046-.092.046-.138a1.081,1.081,0,0,0,.092-.367c0-.046.046-.138.046-.184,0-.092.046-.138.046-.23V9.323a1.011,1.011,0,0,0,.046-.367.276.276,0,0,1,.046-.184c0-.184.046-.367.046-.551L36.005.735a2.236,2.236,0,0,1-.046.551.276.276,0,0,1-.046.184c0,.138-.046.23-.046.367,0,.092-.046.184-.046.276,0,.046-.046.138-.046.184a1.081,1.081,0,0,0-.092.367c0,.046-.046.092-.046.138a.045.045,0,0,1-.046.046c-.092.184-.138.367-.23.551-.046.046-.046.138-.092.184-.046.138-.138.23-.184.367-.046.046-.092.138-.138.184-.046.092-.138.184-.184.276s-.092.138-.138.23a.806.806,0,0,1-.184.23,1,1,0,0,1-.184.23c-.046.046-.092.138-.184.184-.092.092-.138.184-.23.23a.634.634,0,0,0-.138.184l-.276.276-.184.184a2,2,0,0,1-.321.276l-.138.138a2.039,2.039,0,0,1-.505.367h0c-.184.138-.321.23-.505.367a.239.239,0,0,1-.184.092,1.862,1.862,0,0,1-.413.23c-.046.046-.138.092-.184.138-.184.092-.367.23-.551.321a4.2,4.2,0,0,1-.643.321h-.046c-.23.092-.413.23-.643.321-.092.046-.138.046-.23.092A4.765,4.765,0,0,1,28.427,9a.653.653,0,0,1-.276.092l-.413.138a.851.851,0,0,1-.321.092L27,9.461a.851.851,0,0,1-.321.092l-.413.138c-.092.046-.23.046-.321.092-.138.046-.276.092-.459.138-.092.046-.23.046-.321.092a1.632,1.632,0,0,1-.459.092.681.681,0,0,1-.321.046,2.305,2.305,0,0,1-.551.092c-.092,0-.138.046-.23.046-.276.046-.551.092-.781.138h-.138c-.23.046-.459.046-.689.092-.276.046-.6.046-.873.092h0c-.413.046-.827.046-1.24.092h-.23c-.551,0-1.056.046-1.607.046h-.184a9.989,9.989,0,0,1-1.148-.046,1.272,1.272,0,0,1-.413-.046,1.271,1.271,0,0,1-.413-.046c-.184,0-.413-.046-.6-.046h-.184c-.276-.046-.505-.046-.781-.092a.276.276,0,0,1-.184-.046c-.184-.046-.367-.046-.551-.092-.092,0-.184-.046-.276-.046-.184-.046-.367-.046-.551-.092-.092,0-.138-.046-.23-.046l-.689-.138H11.8c-.276-.046-.505-.138-.735-.184-.092,0-.138-.046-.23-.046-.184-.046-.321-.092-.505-.138-.092-.046-.184-.046-.276-.092-.138-.046-.321-.092-.459-.138-.092-.046-.184-.046-.276-.092a1.919,1.919,0,0,1-.459-.184c-.092-.046-.184-.046-.23-.092-.184-.092-.413-.138-.6-.23-.046,0-.046,0-.092-.046L7.256,8.5C7.21,8.45,7.118,8.45,7.072,8.4c-.138-.092-.321-.138-.459-.23-.092-.046-.138-.092-.23-.092-.138-.092-.276-.138-.413-.23a.348.348,0,0,0-.184-.092c-.184-.092-.413-.23-.6-.321-.184-.138-.413-.23-.6-.367-.046-.046-.092-.092-.138-.092a2.547,2.547,0,0,1-.367-.276c-.092-.046-.138-.092-.23-.138-.092-.092-.23-.138-.321-.23-.092-.046-.138-.138-.23-.184-.092-.092-.184-.138-.276-.23l-.23-.23-.23-.23L2.3,5.19l-.184-.184c-.092-.092-.184-.23-.276-.321-.046-.046-.092-.138-.138-.184L1.286,3.95c-.092-.138-.184-.321-.276-.459h0a2.145,2.145,0,0,1-.23-.459C.689,2.8.6,2.618.505,2.388c0-.046-.046-.092-.046-.138a3.383,3.383,0,0,1-.184-.643V1.561A3.545,3.545,0,0,1,.184.873V.689C.184.459.138.23.138,0h0L0,7.486a3.476,3.476,0,0,0,.046.689v.184c.046.23.046.459.092.689v.046a3.383,3.383,0,0,0,.184.643c0,.046.046.092.046.138.092.23.184.459.276.643h0a8.531,8.531,0,0,0,.505.873h0l.413.551a.045.045,0,0,0,.046.046c.046.046.092.092.092.138.092.092.184.23.276.321l.092.092.138.138.276.276c.046.046.046.092.092.092.046.046.092.092.138.092l.23.23c.046.046.092.092.138.092l.138.138c.092.046.138.138.23.184.046.046.092.046.092.092.046.046.138.092.184.138a.806.806,0,0,1,.23.184c.046,0,.046.046.092.046a.961.961,0,0,0,.276.184c.046.046.092.092.138.092a.045.045,0,0,1,.046.046c.184.092.321.23.505.321h.046A1.084,1.084,0,0,0,5.511,15.339Z" transform="translate(0 9.983)" fill="#fcbc43"/>
            <path id="Path-8" data-name="Path" d="M30.577,18.066c-7.164,3.95-18.554,3.72-25.488-.505S-1.663,6.723,5.456,2.819C12.62-1.13,24.009-.9,30.944,3.324,37.924,7.5,37.741,14.117,30.577,18.066Z" transform="translate(0.055 0)" fill="#fff"/>
            <path id="Shape-2" data-name="Shape" d="M14.652,16.671a23.6,23.6,0,0,1-5.666-.677,17.872,17.872,0,0,1-4.943-1.986,9.607,9.607,0,0,1-3.069-2.8A5.393,5.393,0,0,1,0,8.064,5.43,5.43,0,0,1,1.13,4.943,9.768,9.768,0,0,1,4.365,2.25,20.21,20.21,0,0,1,14.055,0a23.748,23.748,0,0,1,5.632.66,17.558,17.558,0,0,1,4.977,2,9.609,9.609,0,0,1,3.069,2.8,5.393,5.393,0,0,1,.973,3.141,5.43,5.43,0,0,1-1.128,3.121,9.768,9.768,0,0,1-3.235,2.693A20.206,20.206,0,0,1,14.652,16.671ZM14.055.459A23.335,23.335,0,0,0,8.928,1,16,16,0,0,0,4.594,2.618C1.975,4.042.507,5.967.461,8.037s1.308,4.055,3.812,5.557a20.175,20.175,0,0,0,10.333,2.572,19.657,19.657,0,0,0,9.46-2.158c2.619-1.425,4.087-3.349,4.133-5.419s-1.307-4.054-3.812-5.557A20.175,20.175,0,0,0,14.055.459Z" transform="translate(3.764 2.13)" fill="#fccb4c"/>
            <g id="DjqNP3.tif" transform="translate(9.19 5.161)">
              <g id="Group_10202" data-name="Group 10202">
                <g id="Group_10196" data-name="Group 10196" transform="translate(11.516 1.117)">
                  <path id="Path_4733" data-name="Path 4733" d="M58.075,33.177a.329.329,0,0,1,.029.021c-.151,2.326-.389,4.649-.566,6.993a2.779,2.779,0,0,1-.516-.233c-.346-.2-.692-.4-1.035-.594-.478-.276-.959-.554-1.442-.826-.291-.164-.59-.323-.883-.486-.085-.049-.12-.1-.121-.164,0-.657,0-1.312-.011-1.967,0-.036-.009-.07-.012-.1,1.5-.882,3.026-1.749,4.494-2.646A.082.082,0,0,1,58.075,33.177Z" transform="translate(-53.519 -33.167)" fill="#efd6a5"/>
                </g>
                <g id="Group_10197" data-name="Group 10197" transform="translate(6.012 0.005)">
                  <path id="Path_4734" data-name="Path 4734" d="M53.445,30.76c.038.022,0,.058,0,.083,0,.729-.018,1.461-.026,2.192-.012,1.4-.017,2.792-.038,4.187-.017,1.056,0,2.111.012,3.166,0,.219.014.437.015.657,0,.023.047.071-.058.071l-.1-.038q-1.322-.393-2.652-.782c-1.578-.462-3.161-.917-4.739-1.38q-1.629-.475-3.252-.953c-.331-.1-.662-.193-1-.288a.262.262,0,0,1-.061-.023c-.034-.02-.021-.041.034-.07.1-.056.2-.117.3-.175.586-.337,1.183-.667,1.781-1,.4-.224.78-.461,1.2-.674.753-.387,1.427-.819,2.144-1.226a.133.133,0,0,1,.039.1c.006.655.013,1.31.011,1.967,0,.068.036.115.121.164.293.163.592.321.883.486.484.272.964.55,1.442.826.343.2.689.4,1.035.594a2.779,2.779,0,0,0,.516.233c.177-2.344.415-4.667.566-6.993.032-.117.2-.181.32-.261.393-.259.768-.528,1.206-.765a1.49,1.49,0,0,1,.248-.117A.134.134,0,0,1,53.445,30.76Z" transform="translate(-41.534 -30.746)" fill="#ebb544"/>
                </g>
                <g id="Group_10198" data-name="Group 10198" transform="translate(0.265 6.647)">
                  <path id="Path_4735" data-name="Path 4735" d="M46.586,48.936c-.763.011-1.528.028-2.291.037-2.154.028-4.3.015-6.459-.007-2.511-.025-5.021-.078-7.535-.064a3.053,3.053,0,0,0-.372-.008,1.391,1.391,0,0,0-.386-.021c-.167,0-.33,0-.523,0a1.428,1.428,0,0,1,.146-.129c.2-.132.413-.261.623-.393,1.564-.967,3.216-1.882,4.815-2.826a.251.251,0,0,0,.107-.09c.07-.061.058-.149.186-.2a.263.263,0,0,1,.222-.013c-.1.057-.2.118-.3.175-.055.029-.068.051-.034.07a.262.262,0,0,0,.061.023c.334.1.665.192,1,.288q1.624.477,3.252.953c1.578.462,3.161.918,4.739,1.38q1.33.389,2.652.782Z" transform="translate(-29.021 -45.209)" fill="#fbbb43"/>
                </g>
                <g id="Group_10199" data-name="Group 10199" transform="translate(4.039 1.109)">
                  <path id="Path_4736" data-name="Path 4736" d="M49.209,33.16c-1.468.9-2.994,1.764-4.495,2.643-.761.022-1.493.037-2.226.054-.479.01-.959.02-1.438.034a.353.353,0,0,1-.2-.043c-.986-.62-1.969-1.232-2.948-1.844a7.213,7.213,0,0,1-.666-.428c.321-.013.628-.028.932-.042,2.767-.113,5.534-.227,8.3-.32.845-.028,1.689-.061,2.534-.062C49.074,33.15,49.139,33.157,49.209,33.16Z" transform="translate(-37.237 -33.15)" fill="#fefefe"/>
                </g>
                <g id="Group_10200" data-name="Group 10200" transform="translate(0.018 0.09)">
                  <path id="Path_4737" data-name="Path 4737" d="M28.482,30.931a2.772,2.772,0,0,1,.391.428q1.31,1.5,2.609,3,1.452,1.668,2.909,3.333l.029.024a.251.251,0,0,1-.107.09c-1.6.943-3.251,1.859-4.815,2.826-.21.132-.419.26-.623.393a1.428,1.428,0,0,0-.146.129c.193,0,.356,0,.523,0a1.391,1.391,0,0,1,.386.021c-.257.023-.517.005-.774.018a.88.88,0,0,0-.2.01C28.658,41,28.474,31.166,28.482,30.931Z" transform="translate(-28.482 -30.931)" fill="#fbca4c"/>
                </g>
                <g id="Group_10201" data-name="Group 10201">
                  <path id="Path_4738" data-name="Path 4738" d="M46.318,30.74a1.49,1.49,0,0,0-.248.117c-.437.237-.812.506-1.206.765-.119.079-.288.144-.32.261-.045-.029-.063-.035-.091-.029-.07,0-.135-.01-.2-.01-.845,0-1.689.034-2.534.062-2.767.093-5.534.207-8.3.32-.3.014-.611.029-.932.042a7.214,7.214,0,0,0,.666.428c.98.613,1.962,1.224,2.936,1.837a.36.36,0,0,0,.211.051c.479-.014.958-.024,1.438-.034l2.2-.049c-.716.41-1.39.842-2.143,1.229-.42.213-.8.45-1.2.674-.6.33-1.195.66-1.781,1a.263.263,0,0,0-.222.013c-.128.048-.116.135-.186.2l-.029-.024q-1.456-1.666-2.909-3.333-1.3-1.5-2.609-3a2.771,2.771,0,0,0-.391-.428l-.018-.041c.082,0,.149-.005.208-.005q4.827-.008,9.651-.02,3.9-.008,7.8-.024C46.169,30.735,46.244,30.739,46.318,30.74Z" transform="translate(-28.443 -30.735)" fill="#fbbb43"/>
                </g>
              </g>
            </g>
          </g>
        </g>
      </g>
      <g id="Group-6" data-name="Group" transform="translate(140.377 50.685)">
        <path id="Path-9" data-name="Path" d="M12.706,1.921s1.773,22.31,3.694,26.89c1.773,4.58,20.389,24.674,20.685,31.027L22.31,55.849s-.3-3.989-5.171-8.422S5.614,37.528,3.1,26.89A139.079,139.079,0,0,1,0,10.047L1.33,2.659,4.285,0Z" transform="translate(41.387 50.09)" fill="#fcacac"/>
        <g id="Group-7" data-name="Group" transform="translate(68.721 163.117)">
          <path id="Path-10" data-name="Path" d="M0,2.807s9.013,28.22,9.308,32.357-1.33,8.717,1.33,10.342c2.807,1.625,20.832.739,23.492-1.477S17.582,36.494,16.991,32.357s-3.4-30.879-3.4-30.879L7.24,0Z" transform="translate(0 0)" fill="#fcacac"/>
          <path id="Path-11" data-name="Path" d="M15.517.591c.148-.148.148-.3.148-.591C20.836,2.512,26.6,4.876,25.121,6.205,22.461,8.422,4.436,9.308,1.629,7.683-.588,6.353,0,3.25.3,0,6.061,2.807,14.63,2.068,15.517.591Z" transform="translate(9.157 37.824)" fill="url(#linear-gradient)"/>
        </g>
        <g id="Group-8" data-name="Group" transform="translate(92.951 145.24)">
          <path id="Path-12" data-name="Path" d="M0,3.694S11.82,30.879,12.559,34.869c.739,4.137-.443,8.865,2.364,10.195,2.955,1.33,20.832-1.33,23.2-3.841s-17.139-5.91-18.173-9.9S13.445.886,13.445.886L6.944,0Z" transform="translate(0 0)" fill="#fcacac"/>
          <path id="Path-13" data-name="Path" d="M15.366.591c.148-.148,0-.443,0-.591,5.467,2.068,11.377,3.694,10.047,5.171-2.364,2.512-20.241,5.171-23.2,3.841C-.148,7.978.148,4.728,0,1.477,6.058,3.694,14.627,2.068,15.366.591Z" transform="translate(12.854 36.198)" fill="url(#linear-gradient-2)"/>
        </g>
        <path id="Path-14" data-name="Path" d="M18.912,0s42.7,13.888,49.939,28.663a67.583,67.583,0,0,1,5.91,17.582,9.627,9.627,0,0,1-5.614,10.342h0a9.236,9.236,0,0,1-11.229-3.4,85.722,85.722,0,0,1-5.91-10.49L10.49,38.71,1.182,27.186,0,14.036,2.512,3.546Z" transform="translate(32.67 97.517)" fill="#206dff"/>
        <path id="Path-15" data-name="Path" d="M10.49,36.494,1.182,24.969,0,11.82,2.512,1.33,8.569,0l1.477.148S37.085,19.8,41.665,24.969s13.593,5.023,16.7,10.638c3.1,5.762,2.364,9.9,4.432,12.559,1.182,1.625,3.989,3.841,5.614,6.205a9.183,9.183,0,0,1-10.342-3.694,85.721,85.721,0,0,1-5.91-10.49Z" transform="translate(32.522 99.586)" fill="#0145c6"/>
        <path id="Path-16" data-name="Path" d="M23.049,0S61.906,22.605,65.9,38.71a66.44,66.44,0,0,1,2.068,18.469,9.312,9.312,0,0,1-7.683,8.865h0a9.528,9.528,0,0,1-10.342-5.614A84.785,84.785,0,0,1,46.393,48.9L6.649,36.2,0,23.049,1.625,9.9,6.353.3h16.7Z" transform="translate(16.27 104.166)" fill="#206dff"/>
        <g id="Group-9" data-name="Group" transform="translate(23.153 121.391)" opacity="0.48">
          <path id="Shape-3" data-name="Shape" d="M52.66,43.942h-.149c0-.092-.056-.127-.134-.174a.835.835,0,0,1-.161-.121c-.4-1.736-.854-3.6-1.477-5.467,0-.145,0-.444.3-.444.144,0,.444,0,.444.3l0,.015,0,.014c.431,1.728.877,3.514,1.47,5.438C52.955,43.644,52.955,43.942,52.66,43.942ZM49.7,33.157h-.148a.8.8,0,0,0-.156-.118c-.084-.052-.14-.086-.14-.177-.529-1.72-1.146-3.248-1.69-4.6l-.06-.15,0-.008-.084-.209-.084-.209c0-.145,0-.444.148-.444s.443,0,.443.149l.092.229.092.229.006.015a46.952,46.952,0,0,1,1.731,4.847C49.851,32.858,49.851,33.157,49.7,33.157Zm-4.653-10.38c-.036,0-.074-.035-.074-.11a19.421,19.421,0,0,0-3.989-3.694.545.545,0,0,1-.148-.443.545.545,0,0,1,.443-.148,17.828,17.828,0,0,1,4.137,3.842.3.3,0,0,1,.08.316.224.224,0,0,1-.227.126h-.148C45.124,22.742,45.086,22.777,45.051,22.777Zm-8.7-6.8c-.058,0-.092-.04-.092-.11-1.469-.882-3.109-1.777-4.875-2.659-.1-.1-.21-.208-.21-.312a.181.181,0,0,1,.061-.13c.1-.1.21-.21.315-.21a.18.18,0,0,1,.129.061c1.729.866,3.382,1.766,4.841,2.56l.061.033.121.066a.549.549,0,0,1,.148.444c0,.148-.144.148-.3.148A.322.322,0,0,1,36.351,15.981Zm-9.86-5.073a.181.181,0,0,1-.13-.061c-1.653-.75-3.5-1.519-5.123-2.2l-.048-.02c-.145-.145-.3-.3-.148-.443.1-.1.209-.209.312-.209a.181.181,0,0,1,.13.061l.153.064.1.044c1.561.651,3.33,1.388,4.915,2.109a.981.981,0,0,1,.185.222.173.173,0,0,1-.037.221C26.7,10.8,26.594,10.908,26.491,10.908ZM16.018,6.562h0l-.047-.02c-1.631-.68-3.479-1.45-5.124-2.049a.231.231,0,0,1-.182-.162A.256.256,0,0,1,10.7,4.05c0-.1.144-.209.286-.209a.216.216,0,0,1,.157.061c1.586.575,3.341,1.306,5.038,2.012l.053.022.08.033a.231.231,0,0,1,.182.162.254.254,0,0,1-.035.282A.648.648,0,0,1,16.018,6.562ZM5.528,2.573h0c-1.383-.5-2.57-.905-3.438-1.2A8.367,8.367,0,0,1,.208.652.235.235,0,0,1,.026.49.256.256,0,0,1,.061.209C.061.106.206,0,.347,0A.216.216,0,0,1,.5.061L.549.077c.7.25,2.611.937,5.273,1.9a.235.235,0,0,1,.184.163.256.256,0,0,1-.036.281A.652.652,0,0,1,5.528,2.573Z" transform="translate(0 0)" fill="#fff"/>
        </g>
        <path id="Path-17" data-name="Path" d="M0,7.092C2.364,3.4,4.58,0,4.58,0s10.49,9.456,8.865,20.832L5.614,18.321Z" transform="translate(17.157 121.748)" fill="#206dff"/>
        <path id="Path-18" data-name="Path" d="M45.2.055c.3.148,4.432-1.182,6.8,3.841s1.921,15.07,1.921,15.07a30.1,30.1,0,0,1-6.058,1.921s4.285,8.865,3.989,14.775-5.91,7.683-6.649,11.229c-1.921,9.6.3,11.081,1.773,13.741,1.625,2.659,5.467,4.285,5.467,4.285S35,70.827,28.354,80.43s-5.762,26.742-5.762,26.742S9.885,108.8,4.123,86.931.134,24.877.725,22.513c1.33-5.319,12.263-11.229,12.263-11.229Z" transform="translate(0.179 32.896)" fill="#206dff"/>
        <path id="Path-19" data-name="Path" d="M2.512.055c.3.148,4.432-1.182,6.8,3.841s1.921,15.07,1.921,15.07A31.656,31.656,0,0,1,6.5,20.592l-1.33.3S4.285,4.488,0,.942Z" transform="translate(42.865 32.896)" fill="#0145c6"/>
        <path id="Path-20" data-name="Path" d="M20.088,44.328S12.11,46.987,5.609,41.521-.3,30,.438,21.87,6.5,4.584,13.587,1.629,39.3-.735,42.546,7.391s0,12.706,0,12.706,5.91,6.649,4.728,13.593a11.817,11.817,0,0,1-10.047,9.6c-2.807.3-3.25-3.989-3.25-3.989l-2.955-2.068-4.876,1.33Z" transform="translate(2.978 0)" fill="#383d4d"/>
        <path id="Path-21" data-name="Path" d="M.013,17.678c-.3-5.319,4.58-3.1,5.614-1.182.886,1.477,1.921,2.955,3.25,2.364s.739-2.659.739-2.659,6.353-1.182,7.978-4.58c1.773-3.4.148-7.978,5.171-11.524,0,0,5.614-1.034,8.126,3.694,2.512,4.876,1.773,8.126,1.773,8.126s1.921,8.865-1.182,14.775c-2.659,5.171-6.649,5.023-9.308,4.58l.443,2.807a2.72,2.72,0,0,1-1.182,2.659c-5.023,3.4-9.751-.3-11.377-1.625a1.877,1.877,0,0,1-.591-1.034L6.514,22.11s-.886,1.773-3.4.739C1.49,22.258.161,20.042.013,17.678Z" transform="translate(13.598 11.875)" fill="#fcacac"/>
        <path id="Path-22" data-name="Path" d="M5.792,0a11.429,11.429,0,0,1,8.422,6.353c4.137,7.978,1.034,22.014,1.034,22.014S5.939,33.243,5.2,33.391c-.443.148-3.25-1.182-5.171-2.068C-.118,18.173.325,7.535.62,6.353,1.211,4.285,3.428,1.921,5.792,0Z" transform="translate(0.284 49.056)" fill="#0145c6"/>
        <g id="Group-10" data-name="Group" transform="translate(17.6 90.071)">
          <path id="Path-23" data-name="Path" d="M0,34.832V32.615l3.841-.591L59.247.111a1.262,1.262,0,0,1,1.034,0L91.161,18.432l2.068-.3v2.216h0a.919.919,0,0,1-.591.886L34.425,54.925a1.262,1.262,0,0,1-1.034,0L.443,35.866c-.148-.3-.3-.739-.443-1.034Z" transform="translate(0 2.311)" fill="#8eb5ff"/>
          <path id="Path-24" data-name="Path" d="M59.21.206.554,34.04a1.109,1.109,0,0,0,0,1.921L33.5,55.02a1.262,1.262,0,0,0,1.034,0L92.749,21.334a.985.985,0,0,0,0-1.773L60.244.354C59.949-.09,59.653-.09,59.21.206Z" transform="translate(0.037 0)" fill="#e9f1ff"/>
          <g id="Group-11" data-name="Group" transform="translate(23.27 11.73)">
            <path id="Path-25" data-name="Path" d="M18.69,0,.222,10.638a.419.419,0,0,0,0,.739L6.87,15.514a.277.277,0,0,0,.443,0L25.93,4.728a.419.419,0,0,0,0-.739L19.133.148A.543.543,0,0,0,18.69,0Z" transform="translate(0 0)" fill="#ccc"/>
            <path id="Path-26" data-name="Path" d="M.209,11.229c-.148-.148-.3-.443-.148-.591L3.607,8.569,18.677,0l7.535,4.285c0,.148-.148.148-.148.3L7.449,15.366c-.148.148-.3,0-.443,0Z" transform="translate(0.013 0)" fill="#206dff"/>
            <path id="Path-27" data-name="Path" d="M3.546,8.569,18.616,0l7.24,4.137c0,.148-.148.148-.148.3L7.092,15.218H6.8L.148,11.229c-.148,0-.148-.148-.148-.3s0-.443.148-.443Z" transform="translate(0.222 0.148)" fill="#8eb5ff"/>
          </g>
          <g id="Group-12" data-name="Group" transform="translate(12.3 8.126)">
            <g id="Group-13" data-name="Group" transform="translate(0 0)">
              <path id="Path-28" data-name="Path" d="M53.891.206.554,30.79a1.242,1.242,0,0,0,0,2.068l19.355,11.82a.894.894,0,0,0,1.182,0L74.724,13.651a1.242,1.242,0,0,0,0-2.068L55.073.354A.77.77,0,0,0,53.891.206Z" transform="translate(0 0)" fill="#e8f0ff"/>
              <path id="Path-29" data-name="Path" d="M.553,32.5a1.227,1.227,0,0,1-.3-1.773L10.3,24.822,53.743,0,75.314,12.411a.982.982,0,0,1-.591.739L21.09,44.177a1.618,1.618,0,0,1-1.182,0Z" transform="translate(0.001 0.206)" fill="#206dff"/>
              <path id="Path-30" data-name="Path" d="M10.3,24.822,53.743,0l20.98,12.115a.982.982,0,0,1-.591.739L20.5,43.881a2.2,2.2,0,0,1-.886.148L.553,32.5a1.243,1.243,0,0,1-.3-1.773Z" transform="translate(0.74 0.649)" fill="#8eb5ff"/>
            </g>
            <g id="Group-14" data-name="Group" transform="translate(0.85 1.979)">
              <path id="Path-31" data-name="Path" d="M3.25,3.546,6.058,1.921,2.807,0,0,1.625Z" transform="translate(50.087 0)" fill="#999"/>
              <path id="Path-32" data-name="Path" d="M3.25,3.546,6.058,1.921,2.807,0,0,1.625Z" transform="translate(66.339 8.865)" fill="#999"/>
              <path id="Path-33" data-name="Path" d="M3.4,3.4,6.205,1.773,2.807,0,0,1.477Z" transform="translate(62.793 10.933)" fill="#999"/>
              <path id="Path-34" data-name="Path" d="M3.4,3.4,6.205,1.921,2.807,0,0,1.625Z" transform="translate(59.542 12.706)" fill="#999"/>
              <g id="Group-15" data-name="Group" transform="translate(22.458 12.854)">
                <path id="Path-35" data-name="Path" d="M3.4,3.4,6.205,1.921,2.807,0,0,1.477Z" transform="translate(28.959 0)" fill="#999"/>
                <path id="Path-36" data-name="Path" d="M3.4,3.546,6.205,1.921,2.807,0,0,1.625Z" transform="translate(25.708 1.773)" fill="#999"/>
                <path id="Path-37" data-name="Path" d="M3.25,3.546,6.058,1.921,2.659,0,0,1.625Z" transform="translate(22.605 3.546)" fill="#999"/>
                <path id="Path-38" data-name="Path" d="M3.4,3.4,6.058,1.921,2.807,0,0,1.477Z" transform="translate(19.355 5.467)" fill="#999"/>
                <path id="Path-39" data-name="Path" d="M3.4,3.546,6.205,1.921,2.807,0,0,1.625Z" transform="translate(16.105 7.24)" fill="#999"/>
                <path id="Path-40" data-name="Path" d="M3.4,3.546,6.205,1.921,2.807,0,0,1.625Z" transform="translate(12.854 9.013)" fill="#999"/>
                <path id="Path-41" data-name="Path" d="M3.4,3.4,6.205,1.921,2.807,0,0,1.625Z" transform="translate(9.604 10.933)" fill="#999"/>
                <path id="Path-42" data-name="Path" d="M3.25,3.546,6.058,1.921,2.659,0,0,1.625Z" transform="translate(6.501 12.706)" fill="#999"/>
                <path id="Path-43" data-name="Path" d="M3.4,3.4,6.205,1.773,2.807,0,0,1.477Z" transform="translate(3.25 14.627)" fill="#999"/>
                <path id="Path-44" data-name="Path" d="M3.4,3.4,6.205,1.921,2.807,0,0,1.625Z" transform="translate(0 16.4)" fill="#999"/>
              </g>
              <g id="Group-16" data-name="Group" transform="translate(16.991 9.456)">
                <path id="Path-45" data-name="Path" d="M3.4,3.546,6.205,1.921,2.807,0,0,1.625Z" transform="translate(32.357 0)" fill="#999"/>
                <path id="Path-46" data-name="Path" d="M3.4,3.4,6.205,1.773,2.807,0,0,1.477Z" transform="translate(29.106 1.921)" fill="#999"/>
                <path id="Path-47" data-name="Path" d="M3.4,3.546,6.205,1.921,2.807,0,0,1.625Z" transform="translate(25.856 3.694)" fill="#999"/>
                <path id="Path-48" data-name="Path" d="M3.4,3.546,6.058,1.921,2.807,0,0,1.625Z" transform="translate(22.753 5.467)" fill="#999"/>
                <path id="Path-49" data-name="Path" d="M3.4,3.4,6.205,1.773,2.807,0,0,1.477Z" transform="translate(19.503 7.387)" fill="#999"/>
                <path id="Path-50" data-name="Path" d="M3.4,3.546,6.205,1.921,2.807,0,0,1.625Z" transform="translate(16.252 9.16)" fill="#999"/>
                <path id="Path-51" data-name="Path" d="M3.4,3.546,6.205,1.921,2.807,0,0,1.625Z" transform="translate(13.002 10.933)" fill="#999"/>
                <path id="Path-52" data-name="Path" d="M3.4,3.4,6.205,1.921,2.807,0,0,1.477Z" transform="translate(9.751 12.854)" fill="#999"/>
                <path id="Path-53" data-name="Path" d="M3.4,3.546,6.058,1.921,2.807,0,0,1.625Z" transform="translate(6.649 14.627)" fill="#999"/>
                <path id="Path-54" data-name="Path" d="M3.4,3.546,6.205,1.921,2.807,0,0,1.625Z" transform="translate(3.398 16.4)" fill="#999"/>
                <path id="Path-55" data-name="Path" d="M3.4,3.546,6.205,1.921,2.807,0,0,1.625Z" transform="translate(0 18.321)" fill="#206dff"/>
              </g>
              <g id="Group-17" data-name="Group" transform="translate(3.989 6.649)">
                <path id="Path-56" data-name="Path" d="M3.4,3.4,6.205,1.921,2.807,0,0,1.477Z" transform="translate(39.153 1.921)" fill="#999"/>
                <path id="Path-57" data-name="Path" d="M3.25,3.4,6.058,1.921,2.659,0,0,1.625Z" transform="translate(42.551 0)" fill="#999"/>
                <path id="Path-58" data-name="Path" d="M3.4,3.546,6.205,1.921,2.807,0,0,1.625Z" transform="translate(35.903 3.694)" fill="#999"/>
                <path id="Path-59" data-name="Path" d="M3.4,3.546,6.205,1.921,2.807,0,0,1.625Z" transform="translate(32.652 5.467)" fill="#999"/>
                <path id="Path-60" data-name="Path" d="M3.4,3.4,6.205,1.921,2.807,0,0,1.477Z" transform="translate(29.402 7.387)" fill="#999"/>
                <path id="Path-61" data-name="Path" d="M3.4,3.546,6.058,1.921,2.807,0,0,1.625Z" transform="translate(26.299 9.16)" fill="#999"/>
                <path id="Path-62" data-name="Path" d="M3.4,3.4,6.205,1.773,2.807,0,0,1.477Z" transform="translate(23.049 11.081)" fill="#999"/>
                <path id="Path-63" data-name="Path" d="M3.4,3.4,6.205,1.921,2.807,0,0,1.625Z" transform="translate(19.798 12.854)" fill="#999"/>
                <path id="Path-64" data-name="Path" d="M3.4,3.546,6.205,1.921,2.807,0,0,1.625Z" transform="translate(16.548 14.627)" fill="#999"/>
                <path id="Path-65" data-name="Path" d="M3.25,3.4,6.058,1.773,2.659,0,0,1.477Z" transform="translate(13.445 16.548)" fill="#206dff"/>
                <path id="Path-66" data-name="Path" d="M3.4,3.4,6.205,1.921,2.807,0,0,1.625Z" transform="translate(10.195 18.321)" fill="#206dff"/>
                <path id="Path-67" data-name="Path" d="M3.4,3.4,6.205,1.921,2.807,0,0,1.477Z" transform="translate(6.796 20.241)" fill="#206dff"/>
                <path id="Path-68" data-name="Path" d="M3.4,3.4,6.205,1.921,2.807,0,0,1.625Z" transform="translate(3.398 22.162)" fill="#206dff"/>
                <path id="Path-69" data-name="Path" d="M3.4,3.4,6.205,1.921,2.807,0,0,1.625Z" transform="translate(0 24.083)" fill="#206dff"/>
              </g>
              <g id="Group-18" data-name="Group" transform="translate(4.137 1.921)">
                <path id="Path-70" data-name="Path" d="M3.4,3.546,6.205,1.921,2.807,0,0,1.625Z" transform="translate(39.153 1.921)" fill="#999"/>
                <path id="Path-71" data-name="Path" d="M3.4,3.546,6.205,1.921,2.807,0,0,1.625Z" transform="translate(42.551)" fill="#999"/>
                <path id="Path-72" data-name="Path" d="M3.4,3.546,6.205,1.921,2.807,0,0,1.625Z" transform="translate(35.903 3.694)" fill="#999"/>
                <path id="Path-73" data-name="Path" d="M3.4,3.4,6.205,1.921,2.807,0,0,1.477Z" transform="translate(32.652 5.614)" fill="#999"/>
                <path id="Path-74" data-name="Path" d="M3.25,3.546,6.058,1.921,2.659,0,0,1.625Z" transform="translate(29.55 7.387)" fill="#999"/>
                <path id="Path-75" data-name="Path" d="M3.4,3.546,6.205,1.921,2.807,0,0,1.625Z" transform="translate(26.299 9.16)" fill="#999"/>
                <path id="Path-76" data-name="Path" d="M3.4,3.4,6.205,1.921,2.807,0,0,1.477Z" transform="translate(23.049 11.081)" fill="#999"/>
                <path id="Path-77" data-name="Path" d="M3.4,3.546,6.205,1.921,2.807,0,0,1.625Z" transform="translate(19.798 12.854)" fill="#999"/>
                <path id="Path-78" data-name="Path" d="M3.4,3.546,6.205,1.921,2.807,0,0,1.625Z" transform="translate(16.548 14.627)" fill="#999"/>
                <path id="Path-79" data-name="Path" d="M3.25,3.4,6.058,1.921,2.659,0,0,1.477Z" transform="translate(13.445 16.548)" fill="#206dff"/>
                <path id="Path-80" data-name="Path" d="M3.4,3.546,6.205,1.921,2.807,0,0,1.625Z" transform="translate(10.195 18.321)" fill="#999"/>
                <path id="Path-81" data-name="Path" d="M3.4,3.546,6.205,1.921,2.807,0,0,1.625Z" transform="translate(6.796 20.241)" fill="#206dff"/>
                <path id="Path-82" data-name="Path" d="M3.4,3.546,6.205,1.921,2.807,0,0,1.625Z" transform="translate(3.398 22.162)" fill="#206dff"/>
                <path id="Path-83" data-name="Path" d="M3.4,3.546,6.205,1.921,2.807,0,0,1.625Z" transform="translate(0 24.083)" fill="#206dff"/>
              </g>
              <path id="Path-84" data-name="Path" d="M3.25,3.546,6.058,1.921,2.659,0,0,1.625Z" transform="translate(56.44 14.479)" fill="#999"/>
              <path id="Path-85" data-name="Path" d="M3.4,3.4,6.205,1.921,2.807,0,0,1.477Z" transform="translate(28.811 30.141)" fill="#999"/>
              <path id="Path-86" data-name="Path" d="M3.25,3.546,6.058,1.921,2.659,0,0,1.625Z" transform="translate(25.708 31.914)" fill="#999"/>
              <path id="Path-87" data-name="Path" d="M3.4,3.4,6.205,1.921,2.807,0,0,1.477Z" transform="translate(22.31 33.834)" fill="#999"/>
              <path id="Path-88" data-name="Path" d="M3.4,3.546,6.205,1.921,2.807,0,0,1.625Z" transform="translate(15.957 37.38)" fill="#206dff"/>
              <path id="Path-89" data-name="Path" d="M3.4,15.366,27.186,1.773,23.935,0,0,13.445Z" transform="translate(32.061 16.4)" fill="#999"/>
              <path id="Path-90" data-name="Path" d="M3.4,5.762l6.944-3.841L6.944,0,0,3.841Z" transform="translate(49.939 2.216)" fill="#999"/>
              <path id="Path-91" data-name="Path" d="M3.4,3.841,6.8,1.921,3.546,0,0,1.921Z" transform="translate(0 28.072)" fill="#206dff"/>
              <path id="Path-92" data-name="Path" d="M3.4,6.5l8.274-4.58L8.274,0,0,4.58Z" transform="translate(52.451 4.432)" fill="#999"/>
              <path id="Path-93" data-name="Path" d="M3.4,6.8,11.82,1.921,8.422,0,0,4.876Z" transform="translate(7.978 29.697)" fill="#206dff"/>
              <path id="Path-94" data-name="Path" d="M3.4,7.831l10.342-5.91L10.49,0,0,5.91Z" transform="translate(54.667 6.649)" fill="#999"/>
              <path id="Path-95" data-name="Path" d="M3.4,7.387,13.15,1.773,9.751,0,0,5.467Z" transform="translate(11.968 31.323)" fill="#206dff"/>
              <g id="Group-19" data-name="Group" transform="translate(19.207 35.607)">
                <path id="Path-96" data-name="Path" d="M1.625,2.512,0,1.625,2.807,0,4.285.886Z" transform="translate(0 0)" fill="#206dff"/>
                <path id="Path-97" data-name="Path" d="M2.807,0l1.33.886L1.477,2.512,0,1.625Z" transform="translate(1.921 1.034)" fill="#999"/>
              </g>
            </g>
          </g>
        </g>
        <path id="Path-98" data-name="Path" d="M15.531,1.33S7.553,6.205.165,0c0,0-1.034,21.719,2.068,25.413S30.011,42.4,31.34,42.995c1.182.591,13.445,7.535,19.946,6.8,6.649-.739-2.364-8.126-10.933-11.377S15.236,17.582,15.236,17.582Z" transform="translate(0 76.094)" fill="#fcacac"/>
        <path id="Path-99" data-name="Path" d="M3.24,3.25A65.408,65.408,0,0,0,22.891,0h0a6.1,6.1,0,0,0-1.034,2.216,34.606,34.606,0,0,0-.739,6.944q-2.438.222-6.205.443C8.707,9.9-6.659,3.1,3.24,3.25Z" transform="translate(23.52 77.719)" fill="#0145c6"/>
        <path id="Path-100" data-name="Path" d="M.915,34.227,59.719.245A1.436,1.436,0,0,1,61.049.1h0c.148,0,.148,0,.3.148l1.182.591-.443.443v.3l.148,39.892a1.7,1.7,0,0,1-.886,1.625L2.984,76.778c-.148.148-.443.148-.591.3l-.3.443L.915,76.926c-.148,0-.3-.148-.443-.148h0a.792.792,0,0,1-.443-.591v-39.3C-.119,35.261.324,34.67.915,34.227Z" transform="translate(51.405 70.678)" fill="#c6daff"/>
        <path id="Path-101" data-name="Path" d="M3.1,76.8l58.36-33.687a1.7,1.7,0,0,0,.886-1.625L62.2,1.6A1.533,1.533,0,0,0,59.838.27L1.034,34.252C.443,34.548,0,35.286,0,37.059v39.3A2.453,2.453,0,0,0,3.1,76.8Z" transform="translate(52.616 71.539)" fill="#8eb5ff"/>
      </g>
      <g id="Group-20" data-name="Group" transform="translate(215.777 17.443)" opacity="0.35">
        <path id="Path-102" data-name="Path" d="M5.279.711C2.442-.944.158.4.158,3.626L0,46.8a11.447,11.447,0,0,0,5.121,8.9L55.94,85.016c2.836,1.655,5.121.315,5.121-2.915l.158-43.177a11.447,11.447,0,0,0-5.121-8.9Z" transform="translate(0 0)" fill="#206dff"/>
      </g>
      <g id="Group-21" data-name="Group" transform="translate(222.79 17.443)" opacity="0.35">
        <path id="Path-103" data-name="Path" d="M5.279.711C2.442-.944.158.4.158,3.626L0,46.8a11.447,11.447,0,0,0,5.121,8.9L55.94,85.016c2.836,1.655,5.121.315,5.121-2.915l.158-43.177a11.447,11.447,0,0,0-5.121-8.9Z" transform="translate(0 0)" fill="#206dff"/>
      </g>
      <path id="Path-104" data-name="Path" d="M5.279.711C2.442-.944.158.4.158,3.626L0,46.8a11.447,11.447,0,0,0,5.121,8.9L55.94,85.016c2.836,1.655,5.121.315,5.121-2.915l.158-43.177a11.447,11.447,0,0,0-5.121-8.9Z" transform="translate(209.317 17.444)" fill="#206dff"/>
      <g id="Group-22" data-name="Group" transform="translate(0 0)">
        <g id="Group-23" data-name="Group" transform="translate(0 0)">
          <g id="Group-24" data-name="Group" transform="translate(0 0)">
            <path id="Path-105" data-name="Path" d="M6.125,64.827C2.734,66.807-.092,71.617,0,75.484l.283,94.875c0,3.867,2.826,5.47,6.217,3.584l110.77-64.036c3.391-1.981,6.217-6.79,6.122-10.657l-.283-94.875c0-3.867-2.826-5.47-6.217-3.584Z" transform="translate(0 0)" fill="#206dff" opacity="0.201"/>
            <path id="Path-106" data-name="Path" d="M6.125,64.827C2.734,66.807-.092,71.617,0,75.484l.283,94.875c0,3.867,2.826,5.47,6.217,3.584l110.77-64.036c3.391-1.981,6.217-6.79,6.122-10.657l-.283-94.875c0-3.867-2.826-5.47-6.217-3.584Z" transform="translate(6.236 3.118)" fill="#206dff" opacity="0.504"/>
            <path id="Path-107" data-name="Path" d="M6.125,64.827C2.734,66.807-.092,71.617,0,75.484l.283,94.875c0,3.867,2.826,5.47,6.217,3.584l110.77-64.036c3.391-1.981,6.217-6.79,6.122-10.657l-.283-94.875c0-3.867-2.826-5.47-6.217-3.584Z" transform="translate(12.471 6.236)" fill="#206dff"/>
          </g>
        </g>
        <g id="Group-25" data-name="Group" transform="translate(215.103 29.551)">
          <path id="Path-108" data-name="Path" d="M18.95,9.967A3.679,3.679,0,0,1,20.739,13.2c0,1.177-.895,1.618-1.938,1.03l-17-9.707A3.679,3.679,0,0,1,.016,1.289C.016.112.911-.329,1.954.259Z" transform="translate(0 20.886)" fill="#fff"/>
          <path id="Path-109" data-name="Path" d="M22.975,12.32a4.184,4.184,0,0,1,1.938,3.236c0,1.177-.895,1.618-1.938,1.03L1.805,4.525A3.679,3.679,0,0,1,.016,1.289C.016.112.911-.329,1.954.259Z" transform="translate(0.149 13.973)" fill="#fff"/>
          <path id="Path-110" data-name="Path" d="M29.088,15.7a3.679,3.679,0,0,1,1.789,3.236c0,1.177-.895,1.618-1.938,1.03L1.805,4.525A3.679,3.679,0,0,1,.016,1.289C.016.112.911-.329,1.954.259Z" transform="translate(0 7.06)" fill="#fff"/>
          <path id="Path-111" data-name="Path" d="M39.673,21.733a3.679,3.679,0,0,1,1.789,3.236c0,1.177-.895,1.618-1.938,1.03L1.805,4.525A3.679,3.679,0,0,1,.016,1.289C.016.112.911-.329,1.954.259Z" transform="translate(0 0)" fill="#fff"/>
          <path id="Path-112" data-name="Path" d="M1.967.319A3.679,3.679,0,0,1,3.756,3.555c0,1.177-.907,1.558-1.951.97h0A3.679,3.679,0,0,1,.016,1.289C.016.112.924-.269,1.967.319Z" transform="translate(42 24)" fill="#3dda4a"/>
          <path id="Path-113" data-name="Path" d="M1.967.319A3.679,3.679,0,0,1,3.756,3.555c0,1.177-.907,1.558-1.951.97h0A3.679,3.679,0,0,1,.016,1.289C.016.112.924-.269,1.967.319Z" transform="translate(32 25)" fill="#3dda4a"/>
          <path id="Path-114" data-name="Path" d="M1.967.319A3.679,3.679,0,0,1,3.756,3.555c0,1.177-.907,1.558-1.951.97h0A3.679,3.679,0,0,1,.016,1.289C.016.112.924-.269,1.967.319Z" transform="translate(26 29)" fill="#3dda4a"/>
          <path id="Path-115" data-name="Path" d="M1.967.319A3.679,3.679,0,0,1,3.756,3.555c0,1.177-.907,1.558-1.951.97h0A3.679,3.679,0,0,1,.016,1.289C.016.112.924-.269,1.967.319Z" transform="translate(22 33)" fill="#3dda4a"/>
          <path id="Path-116" data-name="Path" d="M18.95,9.967A3.679,3.679,0,0,1,20.739,13.2c0,1.177-.895,1.618-1.938,1.03l-17-9.707A3.679,3.679,0,0,1,.016,1.289C.016.112.911-.329,1.954.259Z" transform="translate(0 20.886)" fill="#fff"/>
        </g>
        <g id="Group-26" data-name="Group" transform="translate(24.557 54.734)">
          <path id="Path-117" data-name="Path" d="M43.182,10.464C45.56,9.1,47.6,5.7,47.258,2.981,47.258.26,45.22-.761,42.842.6L4.114,23.05C1.736,24.41-.3,27.812.037,30.533c0,2.721,2.038,3.742,4.416,2.381Z" transform="translate(0 0)" fill="#fff"/>
          <path id="Path-118" data-name="Path" d="M4.454,32.914c2.378-1.361,4.416-4.762,4.077-7.483,0-2.721-2.038-3.742-4.416-2.381h0C1.736,24.41-.3,27.812.037,30.533c0,2.721,2.038,3.742,4.416,2.381Z" transform="translate(51 -30)" fill="#3dda4a"/>
          <path id="Path-119" data-name="Path" d="M4.454,32.914c2.378-1.361,4.416-4.762,4.077-7.483,0-2.721-2.038-3.742-4.416-2.381h0C1.736,24.41-.3,27.812.037,30.533c0,2.721,2.038,3.742,4.416,2.381Z" transform="translate(61 -19)" fill="#3dda4a"/>
          <path id="Path-120" data-name="Path" d="M4.454,32.914c2.378-1.361,4.416-4.762,4.077-7.483,0-2.721-2.038-3.742-4.416-2.381h0C1.736,24.41-.3,27.812.037,30.533c0,2.721,2.038,3.742,4.416,2.381Z" transform="translate(74 -11)" fill="#3dda4a"/>
          <path id="Path-121" data-name="Path" d="M4.454,32.914c2.378-1.361,4.416-4.762,4.077-7.483,0-2.721-2.038-3.742-4.416-2.381h0C1.736,24.41-.3,27.812.037,30.533c0,2.721,2.038,3.742,4.416,2.381Z" transform="translate(97 -8)" fill="#3dda4a"/>
          <path id="Path-122" data-name="Path" d="M52.354,10.464a9.7,9.7,0,0,0,4.416-7.483C56.771.26,54.732-.761,52.354.6L4.114,28.492C1.736,29.852-.3,33.254.037,35.975c0,2.721,2.038,3.742,4.416,2.381Z" transform="translate(0.34 10.544)" fill="#fff"/>
          <path id="Path-123" data-name="Path" d="M66.283,10.464C68.661,9.1,70.7,5.7,70.359,2.981,70.359.26,68.321-.761,65.943.6L4.114,36.315C1.736,37.676-.3,41.077.037,43.8c0,2.721,2.038,3.742,4.416,2.381Z" transform="translate(0 18.708)" fill="#fff"/>
          <path id="Path-124" data-name="Path" d="M90.4,10.464C92.781,9.1,94.819,5.7,94.48,2.981,94.48.26,92.441-.761,90.063.6L4.114,50.261C1.736,51.622-.3,55.023.037,57.744c0,2.721,2.038,3.742,4.416,2.381Z" transform="translate(0 21.089)" fill="#fff"/>
        </g>
      </g>
    </g>
  </g>
</svg>
