<svg xmlns="http://www.w3.org/2000/svg" xmlns:xlink="http://www.w3.org/1999/xlink" width="425.149" height="417.518" viewBox="0 0 425.149 417.518">
  <defs>
    <linearGradient id="linear-gradient" x1="0.5" x2="0.5" y2="1" gradientUnits="objectBoundingBox">
      <stop offset="0" stop-color="#4d89ff" stop-opacity="0"/>
      <stop offset="0.511" stop-color="#4c86ff" stop-opacity="0.51"/>
      <stop offset="0.883" stop-color="#497dff" stop-opacity="0.882"/>
      <stop offset="1" stop-color="#4878ff"/>
    </linearGradient>
    <linearGradient id="linear-gradient-2" x1="0.5" y1="0" x2="0.5" y2="1" xlink:href="#linear-gradient"/>
    <linearGradient id="linear-gradient-3" x1="0.5" x2="0.5" y2="1" gradientUnits="objectBoundingBox">
      <stop offset="0" stop-color="#fff" stop-opacity="0"/>
      <stop offset="0.888" stop-color="#fff" stop-opacity="0.886"/>
      <stop offset="1" stop-color="#fff"/>
    </linearGradient>
  </defs>
  <g id="Group_10216" data-name="Group 10216" transform="translate(-585.863 -377.559)">
    <g id="Group" transform="translate(841.786 428.809)">
      <g id="Group-2" data-name="Group" transform="translate(0 0)">
        <g id="Group-3" data-name="Group" transform="translate(0 131.641)">
          <path id="Path" d="M138.923,5.648V90.369L93.144,117.123a7.96,7.96,0,0,1-8.125,0L3.369,69.759A6.663,6.663,0,0,1,0,63.913V0Z" transform="translate(0 52.319)" fill="#7da9ff"/>
          <path id="Path-2" data-name="Path" d="M138.923,5.648V87.793L93.144,114.547a7.96,7.96,0,0,1-8.125,0L3.369,67.183A6.663,6.663,0,0,1,0,61.336V0Z" transform="translate(0 52.319)" fill="#8eb5ff"/>
          <path id="Path-3" data-name="Path" d="M138.871,57.967,39.287,0,2.029,47.563A9.407,9.407,0,0,0,4.7,61.534l82.839,48.554a9.474,9.474,0,0,0,12.188-2.279Z" transform="translate(0.052 0)" fill="#b0cbff"/>
          <path id="Path-4" data-name="Path" d="M108.309,41.687,38.451,1.06A7.789,7.789,0,0,0,28.443,2.943L1.689,37.129a7.813,7.813,0,0,0,2.18,11.593L72.736,89.051a7.807,7.807,0,0,0,10.107-1.883L110.291,52.19A7.043,7.043,0,0,0,108.309,41.687Z" transform="translate(11.787 11.821)" fill="#206dff"/>
          <path id="Path-5" data-name="Path" d="M57.057,18.285,26.934.746A5.4,5.4,0,0,0,19.9,2.134L1.171,26.113a5.482,5.482,0,0,0,1.585,8.125L32.384,51.579a5.554,5.554,0,0,0,6.54-1.685L58.147,25.32A4.967,4.967,0,0,0,57.057,18.285Z" transform="translate(23.205 21.45)" fill="#fff" opacity="0.24"/>
          <path id="Path-6" data-name="Path" d="M41.6,14.566c-4.063-4.558-13.377,1.288-16.449,0s-4.657-2.279-6.837-8.224A12.566,12.566,0,0,0,12.566,0L1.171,14.665a5.482,5.482,0,0,0,1.585,8.125L32.384,40.131a5.554,5.554,0,0,0,6.54-1.685l7.432-9.513C43.581,27.547,45.563,19.124,41.6,14.566Z" transform="translate(23.304 32.898)" fill="#2cbdf7"/>
          <path id="Path-7" data-name="Path" d="M31.988,17.043c-2.675-2.973,1.189-11.494-3.27-14.863-4.558-3.468-12.584.892-15.656.595C11.476,2.675,9.494,1.288,8.008,0L1.171,8.819a5.482,5.482,0,0,0,1.585,8.125L32.384,34.285a5.554,5.554,0,0,0,6.54-1.685l9.612-12.287C44.473,17.142,34.465,19.818,31.988,17.043Z" transform="translate(23.304 38.645)" fill="#3dda4a"/>
          <path id="Path-8" data-name="Path" d="M16.845,8.819,1.685,0,0,2.081,15.161,11Z" transform="translate(92.153 54.301)" fill="#3dda4a"/>
          <path id="Path-9" data-name="Path" d="M16.845,8.918,1.685,0,0,2.18,15.161,11.1Z" transform="translate(88.09 59.454)" fill="#fcbc43"/>
          <path id="Path-10" data-name="Path" d="M16.845,8.918,1.685,0,0,2.18,15.161,11.1Z" transform="translate(84.028 64.606)" fill="#3dda4a"/>
          <path id="Path-11" data-name="Path" d="M16.845,8.918,1.685,0,0,2.18,15.161,11.1Z" transform="translate(79.965 69.858)" fill="#fcbc43"/>
          <path id="Path-12" data-name="Path" d="M16.845,8.918,1.685,0,0,2.18,15.161,11.1Z" transform="translate(76.002 75.011)" fill="#3dda4a"/>
        </g>
        <g id="Group-4" data-name="Group" transform="translate(24.77)">
          <path id="Path-13" data-name="Path" d="M123.369,68.112c3.567,2.081,6.54,7.134,6.441,11.2l-.3,99.684c0,4.063-2.973,5.747-6.54,3.765L6.443,115.477C2.876,113.4-.1,108.343,0,104.28L.3,4.6C.3.534,3.272-1.151,6.84.831Z" transform="translate(14.644)" fill="#b0cbff"/>
          <path id="Path-14" data-name="Path" d="M123.369,68.112c3.567,2.081,6.54,7.134,6.441,11.2l-.3,99.684c0,4.063-2.973,5.747-6.54,3.765L6.443,115.477C2.876,113.4-.1,108.343,0,104.28L.3,4.6C.3.534,3.272-1.151,6.84.831Z" transform="translate(7.322 7.322)" fill="#7da9ff"/>
          <path id="Path-15" data-name="Path" d="M123.369,68.112c3.567,2.081,6.54,7.134,6.441,11.2l-.3,99.684c0,4.063-2.973,5.747-6.54,3.765L6.443,115.477C2.876,113.4-.1,108.343,0,104.28L.3,4.6C.3.534,3.272-1.151,6.84.831Z" transform="translate(0 14.644)" fill="#206dff"/>
        </g>
      </g>
      <path id="Path-16" data-name="Path" d="M16.845,2.31l-.1,18.827,16.647,9.612v.3c0,10.6-7.531,14.863-16.746,9.513S0,22.326,0,11.823C.1,1.22,7.63-3.041,16.845,2.31Z" transform="translate(113.854 83.48)" fill="#4d89ff"/>
      <path id="Path-17" data-name="Path" d="M0,0C9.116,5.252,16.449,17.935,16.647,28.439L0,18.827Z" transform="translate(132.681 84.7)" fill="#3dda4a"/>
      <g id="Group-5" data-name="Group" transform="translate(113.942 130.674)">
        <path id="Path-18" data-name="Path" d="M12.6,6.715a2.486,2.486,0,0,1,1.189,2.18c0,.793-.595,1.09-1.288.694L1.2,3.048A2.486,2.486,0,0,1,.011.868C.011.076.605-.222,1.3.175Z" transform="translate(0 14.071)" fill="#fff"/>
        <path id="Path-19" data-name="Path" d="M15.271,8.3a2.825,2.825,0,0,1,1.288,2.18c0,.793-.595,1.09-1.288.694L1.2,3.048A2.486,2.486,0,0,1,.011.868C.011.076.605-.222,1.3.175Z" transform="translate(0.099 9.413)" fill="#fff"/>
        <path id="Path-20" data-name="Path" d="M19.333,10.579a2.486,2.486,0,0,1,1.189,2.18c0,.793-.595,1.09-1.288.694L1.2,3.048A2.486,2.486,0,0,1,.011.868C.011.076.605-.222,1.3.175Z" transform="translate(0 4.756)" fill="#fff"/>
        <path id="Path-21" data-name="Path" d="M26.369,14.642a2.486,2.486,0,0,1,1.189,2.18c0,.793-.595,1.09-1.288.694L1.2,3.048A2.486,2.486,0,0,1,.011.868C.011.076.605-.222,1.3.175Z" transform="translate(0 0)" fill="#fff"/>
      </g>
      <g id="Group-6" data-name="Group" transform="translate(31.004 25.71)">
        <path id="Path-22" data-name="Path" d="M12.6,6.715a2.486,2.486,0,0,1,1.189,2.18c0,.793-.595,1.09-1.288.694L1.2,3.048A2.486,2.486,0,0,1,.011.868C.011.076.605-.222,1.3.175Z" transform="translate(0 14.071)" fill="#fff"/>
        <path id="Path-23" data-name="Path" d="M15.271,8.3a2.825,2.825,0,0,1,1.288,2.18c0,.793-.595,1.09-1.288.694L1.2,3.048A2.486,2.486,0,0,1,.011.868C.011.076.605-.222,1.3.175Z" transform="translate(0.099 9.413)" fill="#fff"/>
        <path id="Path-24" data-name="Path" d="M19.333,10.579a2.486,2.486,0,0,1,1.189,2.18c0,.793-.595,1.09-1.288.694L1.2,3.048A2.486,2.486,0,0,1,.011.868C.011.076.605-.222,1.3.175Z" transform="translate(0 4.756)" fill="#fff"/>
        <path id="Path-25" data-name="Path" d="M26.369,14.642a2.486,2.486,0,0,1,1.189,2.18c0,.793-.595,1.09-1.288.694L1.2,3.048A2.486,2.486,0,0,1,.011.868C.011.076.605-.222,1.3.175Z" transform="translate(0 0)" fill="#fff"/>
      </g>
      <g id="Group-7" data-name="Group" transform="translate(30.778 118.567)">
        <path id="Path-26" data-name="Path" d="M40.131,23.187v5.45L0,5.45v0L23.088,18.827l1.784-4.459Z" transform="translate(0 0)" fill="#fff"/>
        <path id="Path-27" data-name="Path" d="M24.871,14.368l-1.784,4.459L0,5.45V0Z" transform="translate(0 0)" fill="#3dda4a"/>
      </g>
    </g>
    <g id="Group-8" data-name="Group" transform="translate(585.863 378.059)">
      <g id="Group-9" data-name="Group" transform="translate(0 207.63)">
        <path id="Path-28" data-name="Path" d="M209.2,1.464a3,3,0,0,1-.073.805,2.027,2.027,0,0,1-.073.659c0,.293-.073.513-.073.805,0,.22-.073.439-.073.659,0,.293-.073.513-.073.805,0,.22-.073.439-.073.659-.073.293-.073.513-.146.805-.073.22-.073.439-.146.659a3.114,3.114,0,0,0-.146.805c-.073.22-.073.439-.146.659-.073.293-.146.513-.22.805a2.138,2.138,0,0,0-.146.659c-.073.293-.146.513-.22.805l-.22.659c-.073.293-.22.586-.293.879-.073.22-.146.366-.22.586a8.933,8.933,0,0,1-.513,1.245c0,.073-.073.146-.073.22-.22.513-.439.952-.659,1.464l-.22.439a6.7,6.7,0,0,1-.513,1.025c-.073.22-.22.366-.293.586l-.439.879c-.073.146-.22.366-.293.513a10.84,10.84,0,0,1-.586.952c-.146.22-.22.366-.366.586-.22.293-.366.586-.586.879a2.569,2.569,0,0,0-.366.586l-.659.879c-.146.22-.293.366-.439.586-.22.293-.439.586-.732.952-.146.146-.293.366-.439.513-.439.513-.879,1.1-1.318,1.611a1.011,1.011,0,0,0-.22.293c-.366.439-.805.879-1.172,1.318a3.185,3.185,0,0,0-.439.513c-.366.366-.732.805-1.172,1.172l-.439.439c-.513.513-1.025,1.025-1.611,1.538a4.42,4.42,0,0,0-.586.586,7.291,7.291,0,0,0-.805.732c-.22.22-.439.366-.659.586-.293.22-.513.439-.805.659a6.4,6.4,0,0,1-.732.586,7.784,7.784,0,0,0-.805.659c-.22.22-.513.366-.732.586l-.879.659A7.671,7.671,0,0,1,186.5,38l-.879.659c-.293.22-.513.366-.805.586l-.879.659a7.669,7.669,0,0,0-.805.586,6.682,6.682,0,0,1-.952.586c-.293.146-.586.366-.879.513-.293.22-.659.366-.952.586-.513.293-1.025.659-1.538.952-1.1.659-2.27,1.318-3.441,1.9-.293.146-.586.293-.952.513-1.025.513-2.123,1.1-3.222,1.611l-.439.22c-1.172.586-2.416,1.1-3.661,1.684-.293.146-.659.293-.952.439-1.025.439-2.123.879-3.222,1.318a7.6,7.6,0,0,1-.732.293c-1.245.513-2.563.952-3.881,1.391-.293.073-.659.22-.952.293l-2.636.879c-.879.293-1.684.513-2.563.805-.732.22-1.464.439-2.2.586l-2.636.659c-.732.22-1.464.366-2.2.586-.879.22-1.757.439-2.636.586-.732.146-1.464.366-2.2.513-.879.22-1.831.366-2.709.513l-2.416.439-1.1.22c-1.245.22-2.49.439-3.734.586-.22,0-.439.073-.659.073-1.464.22-2.856.366-4.32.586-.366.073-.732.073-1.1.146-.879.073-1.831.146-2.709.293-1.1.073-2.27.22-3.368.293-.732.073-1.391.073-2.123.146-1.172.073-2.343.146-3.515.146-.659,0-1.318.073-1.977.073-1.025,0-2.05.073-3.075.073h-7.322c-1.025,0-1.977-.073-3-.146-.659,0-1.391-.073-2.05-.073-1.1-.073-2.123-.146-3.222-.22-.586-.073-1.245-.073-1.831-.146-1.318-.073-2.636-.22-3.881-.366a5.542,5.542,0,0,0-1.1-.073c-1.684-.22-3.368-.366-4.979-.659-.293-.073-.513-.073-.805-.146-1.391-.22-2.856-.439-4.247-.659a15,15,0,0,1-1.757-.366c-1.1-.22-2.123-.366-3.222-.586-.586-.146-1.1-.22-1.684-.366-1.172-.22-2.343-.513-3.515-.805a14.45,14.45,0,0,1-1.9-.513c-1.1-.293-2.123-.513-3.149-.805-.879-.22-1.831-.513-2.709-.805-.366-.073-.659-.22-1.025-.293-1.318-.439-2.709-.805-4.027-1.318a3.06,3.06,0,0,1-.732-.293c-1.1-.366-2.2-.805-3.222-1.172l-1.1-.439c-.879-.366-1.684-.659-2.563-1.025a17.885,17.885,0,0,1-1.757-.732l-2.416-1.1a15.667,15.667,0,0,1-1.611-.732l-2.636-1.318-1.318-.659c-1.245-.659-2.563-1.391-3.734-2.05C18.086,35.659,9.226,26.8,4.394,17.354A38.262,38.262,0,0,1,.074,0h0L0,35.952c-.073,15.6,10.251,31.266,30.9,43.128,1.245.732,2.49,1.391,3.734,2.05l1.318.659,2.636,1.318c.513.22,1.025.513,1.611.732l2.416,1.1c.586.22,1.172.513,1.757.732s1.1.439,1.684.659c.293.146.586.22.879.366l1.1.439c1.1.439,2.123.805,3.222,1.172a3.06,3.06,0,0,1,.732.293c1.318.439,2.636.879,4.027,1.318.366.073.659.22,1.025.293.586.146,1.172.366,1.757.513.293.073.659.146.952.22,1.025.293,2.123.586,3.149.805.659.146,1.318.366,1.9.513,1.172.293,2.343.513,3.515.805.439.073.879.22,1.318.293.146,0,.22.073.366.073,1.1.22,2.123.439,3.222.586.586.073,1.172.22,1.757.293,1.391.22,2.856.439,4.247.659.22.073.513.073.732.146h.073c1.684.22,3.295.439,4.979.659a5.542,5.542,0,0,0,1.1.073c1.318.146,2.636.293,3.954.366h.073c.586.073,1.172.073,1.757.146,1.1.073,2.123.146,3.222.22a19.184,19.184,0,0,0,2.05.073c1.025.073,1.977.073,3,.146h7.322c1.025,0,2.05,0,3.075-.073h.586c.439,0,.952-.073,1.391-.073,1.172-.073,2.343-.073,3.515-.146.732-.073,1.391-.073,2.123-.146,1.1-.073,2.27-.146,3.368-.293.366,0,.805-.073,1.172-.073a10.924,10.924,0,0,1,1.538-.146c.366-.073.732-.073,1.1-.146,1.464-.146,2.929-.366,4.32-.586.22,0,.439-.073.659-.073,1.245-.146,2.49-.366,3.734-.586l1.1-.22c.293-.073.586-.073.879-.146.513-.073,1.025-.22,1.538-.293.952-.146,1.831-.366,2.709-.513.732-.146,1.464-.293,2.2-.513.879-.22,1.757-.366,2.636-.586.732-.146,1.464-.366,2.2-.586l2.636-.659c.732-.22,1.464-.439,2.2-.586.879-.22,1.684-.513,2.563-.805.366-.146.732-.22,1.1-.366.513-.146,1.025-.366,1.538-.513.293-.073.659-.22.952-.293,1.318-.439,2.563-.952,3.881-1.391a7.59,7.59,0,0,1,.732-.293c1.1-.439,2.123-.879,3.222-1.318.293-.146.659-.293.952-.439,1.245-.513,2.49-1.1,3.661-1.684l.439-.22c1.1-.513,2.123-1.025,3.222-1.611a6.051,6.051,0,0,0,.952-.513c1.172-.586,2.343-1.245,3.441-1.9.439-.22.879-.513,1.245-.732a.555.555,0,0,1,.293-.146c.293-.22.659-.366.952-.586.293-.146.586-.366.879-.513a6.687,6.687,0,0,1,.952-.586,7.671,7.671,0,0,0,.805-.586l.879-.659c.293-.22.513-.366.805-.586l.879-.659c.293-.22.513-.366.805-.586l.879-.659c.22-.22.513-.366.732-.586a7.777,7.777,0,0,0,.805-.659,6.405,6.405,0,0,1,.732-.586c.293-.22.513-.439.805-.659.22-.22.439-.366.659-.586a7.291,7.291,0,0,0,.805-.732c.22-.146.366-.366.586-.513l.073-.073c.513-.513,1.1-1.025,1.611-1.538l.439-.439,1.172-1.172a3.183,3.183,0,0,0,.439-.513c.439-.439.805-.879,1.172-1.318a1.01,1.01,0,0,0,.22-.293c.439-.513.879-1.025,1.318-1.611,0-.073.073-.073.073-.146a1.6,1.6,0,0,1,.293-.366c.22-.293.439-.586.732-.952.146-.22.293-.366.439-.586l.659-.879a2.57,2.57,0,0,0,.366-.586c.22-.293.366-.586.586-.879.146-.22.22-.366.366-.586.22-.293.366-.659.586-.952a1.6,1.6,0,0,1,.22-.366c0-.073.073-.073.073-.146l.439-.879c.073-.22.22-.366.293-.586.146-.366.366-.659.513-1.025l.22-.439c.22-.513.439-.952.659-1.464,0-.073.073-.146.073-.22.146-.439.366-.805.513-1.245v-.073c.073-.146.146-.366.22-.513.073-.293.22-.586.293-.879l.22-.659c.073-.293.146-.513.22-.805a2.138,2.138,0,0,0,.146-.659c.073-.293.146-.513.22-.805.073-.22.073-.439.146-.659a3.114,3.114,0,0,0,.146-.805v-.146c0-.146.073-.366.073-.513.073-.293.073-.513.146-.805,0-.22.073-.439.073-.659a3,3,0,0,0,.073-.805c0-.22.073-.439.073-.659,0-.293.073-.513.073-.805a2.028,2.028,0,0,1,.073-.659,3,3,0,0,1,.073-.805V36.245L209.2.293A6.262,6.262,0,0,1,209.2,1.464Z" transform="translate(0.084 60.876)" fill="#8eb5ff"/>
        <ellipse id="Oval" cx="60.555" cy="104.562" rx="60.555" ry="104.562" transform="translate(0 121.11) rotate(-89.838)" fill="#e9f1ff"/>
        <ellipse id="Oval-2" data-name="Oval" cx="54.844" cy="94.75" rx="54.844" ry="94.75" transform="translate(9.828 115.426) rotate(-89.838)" fill="#fff"/>
        <ellipse id="Oval-3" data-name="Oval" cx="42.835" cy="73.955" rx="42.835" ry="73.955" transform="translate(30.658 103.477) rotate(-89.838)" fill="#4d89ff"/>
        <path id="Path-29" data-name="Path" d="M124.771,12.521c-29-16.695-75.785-16.695-104.561,0C9.372,18.818,2.636,26.653,0,34.781c2.636,8.347,9.519,16.255,20.649,22.7,29,16.695,75.785,16.695,104.561,0,10.837-6.3,17.573-14.132,20.209-22.26C142.783,26.946,135.9,18.965,124.771,12.521Z" transform="translate(32.009 33.637)" fill="#00e15d"/>
        <g id="Group-10" data-name="Group" transform="translate(47.02 123.774)">
          <path id="Path-30" data-name="Path" d="M2.2,17.061h0a2.157,2.157,0,0,1-2.2-2.2V2.2A2.157,2.157,0,0,1,2.2,0h0a2.157,2.157,0,0,1,2.2,2.2V14.864A2.252,2.252,0,0,1,2.2,17.061Z" transform="translate(0)" fill="#7da9ff"/>
          <path id="Path-31" data-name="Path" d="M1.391,0A2.242,2.242,0,0,0,0,2.05V14.718a2.242,2.242,0,0,0,1.391,2.05,2.242,2.242,0,0,0,1.391-2.05V2.05A2.242,2.242,0,0,0,1.391,0Z" transform="translate(1.611 0.146)" fill="#3dda4a"/>
        </g>
        <g id="Group-11" data-name="Group" transform="translate(59.687 126.117)">
          <path id="Path-32" data-name="Path" d="M2.2,17.061h0a2.157,2.157,0,0,1-2.2-2.2V2.2A2.157,2.157,0,0,1,2.2,0h0a2.157,2.157,0,0,1,2.2,2.2V14.864A2.157,2.157,0,0,1,2.2,17.061Z" transform="translate(0 0)" fill="#7da9ff"/>
          <path id="Path-33" data-name="Path" d="M1.391,0A2.242,2.242,0,0,0,0,2.05V14.718a2.242,2.242,0,0,0,1.391,2.05,2.242,2.242,0,0,0,1.391-2.05V2.05A2.242,2.242,0,0,0,1.391,0Z" transform="translate(1.684 0.146)" fill="#3dda4a"/>
        </g>
        <g id="Group-12" data-name="Group" transform="translate(72.428 128.46)">
          <path id="Path-34" data-name="Path" d="M2.2,17.061h0a2.157,2.157,0,0,1-2.2-2.2V2.2A2.157,2.157,0,0,1,2.2,0h0a2.157,2.157,0,0,1,2.2,2.2V14.864A2.157,2.157,0,0,1,2.2,17.061Z" transform="translate(0 0)" fill="#7da9ff"/>
          <path id="Path-35" data-name="Path" d="M1.391,0A2.242,2.242,0,0,0,0,2.05V14.718a2.242,2.242,0,0,0,1.391,2.05,2.242,2.242,0,0,0,1.391-2.05V2.05A2.457,2.457,0,0,0,1.391,0Z" transform="translate(1.684 0.146)" fill="#3dda4a"/>
        </g>
      </g>
      <path id="Path-36" data-name="Path" d="M73.954,0h0A73.936,73.936,0,0,0,0,73.954V268.506H0C.073,279.489,7.322,290.4,21.82,298.82c29,16.695,75.785,16.695,104.561,0,14.425-8.347,21.527-19.331,21.527-30.314h0V73.954A73.936,73.936,0,0,0,73.954,0Z" transform="translate(30.764 0)" fill="url(#linear-gradient)"/>
      <path id="Path-37" data-name="Path" d="M118.034,0H0V214.321H0c.073,8.787,5.858,17.5,17.427,24.163,23.138,13.326,60.482,13.326,83.473,0,11.5-6.663,17.207-15.45,17.134-24.163h0V0Z" transform="translate(45.702 51.915)" fill="url(#linear-gradient-2)"/>
      <path id="Path-38" data-name="Path" d="M91.821,0H0V166.727H0c.073,6.81,4.54,13.619,13.546,18.818,18.013,10.4,47.082,10.4,64.948,0,8.933-5.2,13.4-12.008,13.326-18.818h0V0Z" transform="translate(58.808 96.36)" opacity="0.53" fill="url(#linear-gradient-3)"/>
      <path id="Path-39" data-name="Path" d="M73.954,0h0A73.936,73.936,0,0,0,0,73.954V268.506H0C.073,279.489,7.322,290.4,21.82,298.82c29,16.695,75.785,16.695,104.561,0,14.425-8.347,21.527-19.331,21.527-30.314h0V73.954A73.936,73.936,0,0,0,73.954,0Z" transform="translate(30.764 0)" fill="none" stroke="#707070" stroke-miterlimit="10" stroke-width="1"/>
      <ellipse id="Oval-4" data-name="Oval" cx="2.856" cy="2.856" rx="2.856" ry="2.856" transform="translate(44.457 219.374)" fill="#fff"/>
      <ellipse id="Oval-5" data-name="Oval" cx="1.464" cy="1.464" rx="1.464" ry="1.464" transform="translate(156.121 267.041)" fill="#fff"/>
      <ellipse id="Oval-6" data-name="Oval" cx="1.464" cy="1.464" rx="1.464" ry="1.464" transform="translate(146.895 137.218)" fill="#fff"/>
      <ellipse id="Oval-7" data-name="Oval" cx="1.464" cy="1.464" rx="1.464" ry="1.464" transform="translate(78.725 198.066)" fill="#fff"/>
      <ellipse id="Oval-8" data-name="Oval" cx="2.856" cy="2.856" rx="2.856" ry="2.856" transform="translate(142.575 181.005)" fill="#fff"/>
      <ellipse id="Oval-9" data-name="Oval" cx="2.856" cy="2.856" rx="2.856" ry="2.856" transform="translate(59.028 112.03)" fill="#fff"/>
      <g id="Group-13" data-name="Group" transform="translate(77.556 90.694)">
        <path id="Path-40" data-name="Path" d="M3.758,24.255c0,.068.068.068.068.137.068.068.137.2.2.273a1.2,1.2,0,0,0,.273.342.943.943,0,0,1,.2.273c.068.068.137.2.2.273s.068.137.137.2c.137.137.2.273.342.41l.2.2.068.068a6.441,6.441,0,0,0,.683.683h0l.068.068.547.547c.068.068.068.068.137.068l.273.273.342.342.2.2c.137.068.2.2.342.273a.943.943,0,0,0,.273.2l.273.273c.137.068.2.2.342.273.068.068.137.068.137.137a1.226,1.226,0,0,0,.478.342c.068.068.2.137.273.2l.068.068.82.615h0l.068.068c.273.2.478.342.752.547.068,0,.068.068.137.068.068.068.2.137.273.2.137.068.273.2.41.273.068.068.2.137.273.2.137.068.2.137.342.2a.355.355,0,0,0,.273.137c.137.068.342.2.478.273a.355.355,0,0,0,.273.137l.068.068a3.681,3.681,0,0,0,.888.478h.068c.068.068.137.068.273.137.2.137.478.273.683.41.068,0,.068.068.137.068a4.057,4.057,0,0,1,.547.273,1.712,1.712,0,0,1,.478.273.067.067,0,0,1,.068.068c.478.273,1.025.478,1.5.752.068,0,.068.068.137.068s.068.068.137.068c.752.342,1.435.615,2.186.888.068,0,.068,0,.137.068.068,0,.137.068.2.068.615.2,1.162.41,1.776.615h.068l1.23.41h.068c.273.068.615.2.888.273.068,0,.137.068.2.068h0c.342.068.752.2,1.093.273h.068c.137,0,.2.068.342.068a2.428,2.428,0,0,0,.683.137h.137c.137,0,.342.068.478.068.2,0,.342.068.547.068h.2c.137,0,.342.068.478.068s.273.068.41.068h.273c.2,0,.342.068.547.068a2.96,2.96,0,0,1,.342.068h.273c.2,0,.342.068.547.068h.683a1.163,1.163,0,0,1,.478.068H36.69a4.2,4.2,0,0,0,.888-.068h.2c.2,0,.478-.068.683-.068a.516.516,0,0,0,.273-.068.616.616,0,0,0,.342-.068.411.411,0,0,0,.273-.068c.137,0,.273-.068.41-.068a.411.411,0,0,0,.273-.068h.137l.82-.2h0l.82-.2h.068c.068,0,.2-.068.273-.068.137-.068.273-.068.41-.137.068,0,.137-.068.2-.068.137-.068.2-.068.342-.137.068,0,.137-.068.273-.068.068,0,.137-.068.273-.137s.2-.068.342-.137a.239.239,0,0,0,.137-.068c.068-.068.2-.068.273-.137.137-.068.2-.137.342-.137.068,0,.068-.068.137-.068a.518.518,0,0,1,.273-.137,1.493,1.493,0,0,0,.342-.2c.068,0,.068-.068.137-.068.068-.068.137-.068.2-.137.137-.068.273-.2.41-.273.068,0,.068-.068.137-.068.068-.068.137-.068.137-.137a2.076,2.076,0,0,1,.478-.342l.137-.137.068-.068c.2-.2.478-.41.683-.615a.067.067,0,0,0,.068-.068h0l.137-.137a1.812,1.812,0,0,0,.342-.41c.068-.068.137-.137.137-.2.068-.068.137-.2.2-.273a.067.067,0,0,1,.068-.068,1.1,1.1,0,0,0,.273-.478c.068-.068.068-.137.137-.2a3.192,3.192,0,0,0,.342-.683L54.25,22.342a6.35,6.35,0,0,1-.342.683c-.068.068-.068.137-.137.2-.068.137-.2.342-.273.478s-.2.2-.273.342c-.068.068-.137.137-.137.2a1.812,1.812,0,0,0-.342.41l-.137.137-.068.068a6.16,6.16,0,0,1-.683.615l-.2.2a2.076,2.076,0,0,1-.478.342c-.068.068-.2.137-.273.2-.137.068-.273.2-.41.273s-.2.137-.342.2-.2.137-.342.2l-.41.2c-.137.068-.2.137-.342.137a3.331,3.331,0,0,1-.478.2c-.137.068-.2.068-.342.137s-.342.137-.478.2-.2.068-.342.137a4.709,4.709,0,0,0-.547.2c-.068,0-.2.068-.273.068-.273.068-.615.137-.888.2h0c-.273.068-.615.137-.957.2-.068,0-.2.068-.273.068-.2.068-.478.068-.683.137a.616.616,0,0,0-.342.068c-.342.068-.615.068-.957.137-.342,0-.752.068-1.093.068H38.672a2.324,2.324,0,0,1-.683-.068,1.163,1.163,0,0,1-.478-.068c-.2,0-.41-.068-.683-.068-.2,0-.342-.068-.547-.068s-.41-.068-.615-.068-.342-.068-.547-.068a2.427,2.427,0,0,1-.683-.137c-.137,0-.342-.068-.478-.068-.2-.068-.478-.068-.683-.137-.137,0-.342-.068-.478-.068l-.82-.2c-.137,0-.2-.068-.342-.068-.41-.068-.752-.2-1.162-.273-.068,0-.137-.068-.2-.068-.342-.068-.615-.2-.957-.273l-1.23-.41h0c-.615-.2-1.162-.41-1.776-.615-.137-.068-.2-.068-.342-.137-.752-.273-1.435-.615-2.186-.888-.068-.068-.2-.068-.273-.137A15.414,15.414,0,0,1,22,24.46c-.2-.068-.342-.2-.547-.273a4.057,4.057,0,0,1-.547-.273l-.82-.41c-.068-.068-.137-.068-.273-.137l-1.025-.615a.518.518,0,0,0-.273-.137,4.6,4.6,0,0,1-.752-.478c-.137-.068-.2-.137-.342-.2a4.148,4.148,0,0,1-.683-.478c-.068-.068-.2-.137-.273-.2-.273-.2-.615-.41-.888-.615l-.068-.068a10.043,10.043,0,0,1-.888-.683c-.068-.068-.2-.137-.273-.2-.2-.137-.41-.342-.615-.478-.137-.068-.2-.2-.342-.273-.2-.137-.342-.342-.547-.478-.137-.068-.2-.2-.342-.273-.2-.137-.342-.342-.547-.478l-.273-.273L11,16.739l-.068-.068c-.273-.273-.478-.547-.752-.82l-.2-.2a3.755,3.755,0,0,1-.478-.615c-.068-.068-.137-.2-.2-.273a1.842,1.842,0,0,0-.478-.547c-.068-.068-.137-.2-.2-.273l-.615-.82a6.238,6.238,0,0,1-.547-.888c-.068-.068-.068-.137-.137-.273a2.769,2.769,0,0,1-.342-.615c-.068-.137-.137-.2-.2-.342a2.971,2.971,0,0,0-.273-.478,1.493,1.493,0,0,0-.2-.342c-.068-.137-.137-.342-.2-.478l-.2-.41-.2-.41c-.068-.137-.137-.342-.2-.478s-.068-.273-.137-.41l-.2-.615c0-.137-.068-.2-.068-.342l-.2-1.025c-.068-.273-.068-.547-.137-.752h0c0-.273-.068-.478-.068-.752V3.143a4.032,4.032,0,0,1,.137-.957V2.118a3.917,3.917,0,0,1,.273-.957c0-.068.068-.137.068-.2.137-.342.2-.615.342-.957h0L.82,10.112a3.951,3.951,0,0,0-.342.957c0,.068-.068.137-.068.2-.068.342-.2.615-.273.957V12.3c-.068.342-.068.615-.137.957v1.366H0a12.271,12.271,0,0,0,.137,1.5v.068l.2,1.025v.068c0,.068.068.137.068.2l.2.615c0,.068,0,.137.068.137,0,.068.068.137.068.2.068.137.137.342.2.478,0,.068.068.137.068.2s.068.137.068.2l.2.41c0,.068.068.137.068.2.068.068.068.137.137.273l.2.41c0,.068.068.137.068.2.068.137.137.2.2.342s.137.2.2.342c0,.068.068.068.068.137a2.971,2.971,0,0,1,.273.478c.068.068.068.137.137.273a.067.067,0,0,0,.068.068c.137.273.342.478.478.752V23.3A5.139,5.139,0,0,0,3.758,24.255Z" transform="translate(0 6.601)" fill="#2891fa"/>
        <path id="Path-41" data-name="Path" d="M37.764,35.98C25.671,37.074,10.3,29.9,3.329,19.992-3.572,10.085.6,1.2,12.689.11S40.156,6.191,47.125,16.1C54.026,26.005,49.858,34.956,37.764,35.98Z" transform="translate(4.597)" fill="#2cbdf7"/>
        <path id="Shape" d="M28.088,28.7a32.847,32.847,0,0,1-14.271-3.621A29.824,29.824,0,0,1,2.672,15.92,14.481,14.481,0,0,1,.15,10.249,8,8,0,0,1,.689,5.394a8.06,8.06,0,0,1,3.4-3.577A14.7,14.7,0,0,1,10.119.068,19.088,19.088,0,0,1,12.1,0V.683h-.188a15.438,15.438,0,0,0-1.725.068,14.365,14.365,0,0,0-5.62,1.563A7.392,7.392,0,0,0,1.306,5.671C.012,8.395.691,11.889,3.219,15.51a29.56,29.56,0,0,0,10.872,8.917,32.034,32.034,0,0,0,14,3.587A17.019,17.019,0,0,0,30,27.944a14.361,14.361,0,0,0,5.62-1.563,7.391,7.391,0,0,0,3.262-3.357c1.294-2.724.615-6.218-1.913-9.839A29.561,29.561,0,0,0,26.1,4.27,32.037,32.037,0,0,0,12.1.683V0A32.768,32.768,0,0,1,26.372,3.647a30.155,30.155,0,0,1,11.146,9.13,14.48,14.48,0,0,1,2.521,5.671A8,8,0,0,1,39.5,23.3a8.061,8.061,0,0,1-3.4,3.577,14.7,14.7,0,0,1-6.028,1.75A19.107,19.107,0,0,1,28.088,28.7Z" transform="translate(9.695 3.731)" fill="#fff"/>
        <g id="Group_10195" data-name="Group 10195" transform="translate(17.423 9.197)">
          <g id="Group_10194" data-name="Group 10194">
            <g id="Group_10179" data-name="Group 10179" transform="translate(0 1.315)">
              <path id="Path_4719" data-name="Path 4719" d="M45.474,47.272q.058,1.717.1,3.423l-.12-.014-.115-3.419.081.005Z" transform="translate(-45.342 -47.262)" fill="#fff"/>
            </g>
            <g id="Group_10180" data-name="Group 10180" transform="translate(0.324 10.91)">
              <path id="Path_4720" data-name="Path 4720" d="M45.936,61.32c-.011.55.212,1.136-.064,1.642l-.056-1.656Z" transform="translate(-45.816 -61.306)" fill="#fff"/>
            </g>
            <g id="Group_10181" data-name="Group 10181" transform="translate(0.287 9.808)">
              <path id="Path_4721" data-name="Path 4721" d="M45.882,59.707l.037,1.1L45.8,60.8l-.037-1.1Z" transform="translate(-45.762 -59.693)" fill="#fff"/>
            </g>
            <g id="Group_10189" data-name="Group 10189" transform="translate(0.115)" style="isolation: isolate">
              <g id="Group_10182" data-name="Group 10182" transform="translate(16.732 1.824)">
                <path id="Path_4722" data-name="Path 4722" d="M73.938,48.01a.714.714,0,0,1,.273.094c1.235.684,2.469,1.363,3.7,2.052.061.04.088.128.133.193q-2,.675-4,1.345c-1.119-.633-2.244-1.257-3.357-1.895-.239-.14-.461-.306-.687-.463,1.153-.5,2.424-.851,3.628-1.283A.682.682,0,0,1,73.938,48.01Z" transform="translate(-70 -48.007)" fill="#fff"/>
              </g>
              <g id="Group_10183" data-name="Group 10183" transform="translate(0.159)">
                <path id="Path_4723" data-name="Path 4723" d="M49.628,45.342a1.092,1.092,0,0,1,.409.146q6.089,3.355,12.195,6.694a2.726,2.726,0,0,1-.419.227c-1.2.427-2.419.843-3.623,1.265q-6.033-3.35-12.068-6.7a.791.791,0,0,1-.378-.353L45.8,46.6c1.138-.4,2.282-.785,3.408-1.194A.923.923,0,0,1,49.628,45.342Z" transform="translate(-45.744 -45.337)" fill="#fff"/>
              </g>
              <g id="Group_10184" data-name="Group 10184" transform="translate(0 4.734)">
                <path id="Path_4724" data-name="Path 4724" d="M45.631,52.28l.049,1.433-.12-.013-.049-1.433Z" transform="translate(-45.511 -52.266)" fill="#fff"/>
              </g>
              <g id="Group_10185" data-name="Group 10185" transform="translate(0.049 6.167)">
                <path id="Path_4725" data-name="Path 4725" d="M45.7,54.377l.044,1.324-.12-.013-.044-1.324Z" transform="translate(-45.582 -54.364)" fill="#fff"/>
              </g>
              <g id="Group_10186" data-name="Group 10186" transform="translate(0.093 7.491)">
                <path id="Path_4726" data-name="Path 4726" d="M45.767,56.315l.041,1.211-.12-.008L45.647,56.3Z" transform="translate(-45.647 -56.302)" fill="#fff"/>
              </g>
              <g id="Group_10187" data-name="Group 10187" transform="translate(0.134 8.707)">
                <path id="Path_4727" data-name="Path 4727" d="M45.827,58.089l.038,1.107-.12-.014-.038-1.1Z" transform="translate(-45.707 -58.081)" fill="#fff"/>
              </g>
              <g id="Group_10188" data-name="Group 10188" transform="translate(4.295 7.632)">
                <path id="Path_4728" data-name="Path 4728" d="M52.109,56.511a1.614,1.614,0,0,1,.564.284c1.121.676,2.367,1.187,3.425,1.945,0,.081,0,.163,0,.244.014,1.126.022,2.247.065,3.372.018.337-.108.516-.482.639-1.128.365-2.23.76-3.345,1.141-.076,0-.148-.012-.222-.02l-.061-.006c-.073-2.35-.153-4.7-.22-7.055-.007-.189-.142-.463.137-.536A.367.367,0,0,1,52.109,56.511Z" transform="translate(-51.797 -56.508)" fill="#fff"/>
              </g>
            </g>
            <g id="Group_10190" data-name="Group 10190" transform="translate(16.697 3.154)">
              <path id="Path_4729" data-name="Path 4729" d="M69.93,49.954c.227.157.448.323.687.463,1.113.637,2.238,1.262,3.357,1.895q.143,4.519.293,9.033a12.025,12.025,0,0,1-.042,2.511c-1.24-.665-2.475-1.345-3.72-2a.564.564,0,0,1-.344-.585c-.03-1.228-.066-2.457-.095-3.685-.051-1.32-.095-2.645-.139-3.964-.042-1.041-.089-2.083-.118-3.122C69.8,50.313,69.694,50.089,69.93,49.954Z" transform="translate(-69.779 -49.954)" fill="#fff"/>
            </g>
            <g id="Group_10191" data-name="Group 10191" transform="translate(12.676 6.825)">
              <path id="Path_4730" data-name="Path 4730" d="M68.064,55.326c.044,1.319.089,2.644.139,3.964a34.359,34.359,0,0,0-3.52,1.1c-.178.051-.328.209-.543.185a.405.405,0,0,1-.081-.017.635.635,0,0,1-.165-.081c.187-.168.143-.4.141-.616q-.051-1.512-.1-3.026c1.2-.422,2.419-.838,3.623-1.265a2.724,2.724,0,0,0,.419-.227Z" transform="translate(-63.894 -55.326)" fill="#fff"/>
            </g>
            <g id="Group_10192" data-name="Group 10192" transform="translate(0.081 1.205)">
              <path id="Path_4731" data-name="Path 4731" d="M45.537,47.1l.172.055-.055.019a.791.791,0,0,0,.378.353q6.034,3.356,12.068,6.7.043,1.517.1,3.026c0,.217.045.448-.141.616a.634.634,0,0,0,.165.081.654.654,0,0,1-.339.049,1.849,1.849,0,0,1-.628-.243c-1.069-.571-2.108-1.168-3.16-1.757,0-.081,0-.163,0-.244-1.058-.758-2.3-1.269-3.425-1.945a1.614,1.614,0,0,0-.564-.284.367.367,0,0,0-.136.008c-.279.073-.144.347-.137.536.067,2.354.147,4.7.22,7.055l.061.006a1.1,1.1,0,0,1-.363.017,3.07,3.07,0,0,1-.9-.313c-.829-.384-1.624-.844-2.419-1.291a2.1,2.1,0,0,1-.652-.642l-.015-.445c.277-.506.053-1.092.064-1.642l-.037-1.1-.038-1.107L45.708,53.4l-.044-1.324-.049-1.433q-.048-1.708-.1-3.423l-.051,0A.153.153,0,0,1,45.537,47.1Z" transform="translate(-45.46 -47.101)" fill="#fff"/>
            </g>
            <g id="Group_10193" data-name="Group 10193" transform="translate(20.892 4.167)">
              <path id="Path_4732" data-name="Path 4732" d="M79.924,51.436c.09,1.947.18,3.9.263,5.844.078,1.766.137,3.53.233,5.3.018.365-.12.547-.523.667a27.9,27.9,0,0,1-3.735,1.121l.01-.042a12.025,12.025,0,0,0,.042-2.511q-.143-4.519-.293-9.032Q77.922,52.107,79.924,51.436Z" transform="translate(-75.92 -51.436)" fill="#fff"/>
            </g>
          </g>
        </g>
      </g>
      <g id="Group-14" data-name="Group" transform="translate(71.473 142.834)">
        <g id="Group-15" data-name="Group" transform="translate(1.092 90.832) rotate(-20)">
          <path id="Path-42" data-name="Path" d="M8.3,23.1c.069,0,.069.069.138.069a.524.524,0,0,0,.277.138c.138.069.207.138.346.207.069.069.207.069.277.138.138.069.207.138.346.138.069.069.138.069.207.138.138.069.346.138.484.207.069.069.207.069.277.138a.068.068,0,0,1,.069.069c.277.138.622.277.9.415h0c.069,0,.069,0,.138.069.277.069.484.207.761.277.069,0,.069,0,.138.069.138.069.277.069.346.138a1,1,0,0,0,.484.138c.069,0,.138.069.277.069.138.069.277.069.415.138.138,0,.207.069.346.069.138.069.277.069.415.138s.277.069.415.138c.069,0,.138.069.207.069.207.069.346.069.553.138.138,0,.207.069.346.069h.069a5.762,5.762,0,0,1,1.037.277h.069c.277.069.622.138.9.207h.138c.138,0,.207.069.346.069s.346.069.484.069a.623.623,0,0,1,.346.069c.138,0,.277.069.415.069a.416.416,0,0,1,.277.069c.207,0,.415.069.553.069a.416.416,0,0,1,.277.069h.138c.346.069.692.069,1.037.138h.346c.277,0,.553.069.761.069h.138a1.915,1.915,0,0,1,.622.069,1.523,1.523,0,0,1,.553.069h.069c.553,0,1.106.069,1.729.069h.277c.83,0,1.591,0,2.42-.069h.346a16.955,16.955,0,0,0,1.867-.138h.069c.415-.069.9-.069,1.314-.138h.069c.346-.069.622-.069.968-.138H34.3c.346-.069.761-.138,1.106-.207h.069c.138,0,.207-.069.346-.069.207-.069.484-.069.692-.138h.138c.138,0,.277-.069.484-.069.138-.069.346-.069.553-.138a.254.254,0,0,0,.207-.069c.138-.069.346-.069.484-.138s.277-.069.415-.138c.069,0,.138-.069.207-.069.138-.069.346-.069.484-.138a.623.623,0,0,1,.346-.069c.069,0,.207-.069.277-.069a1.282,1.282,0,0,1,.484-.138c.069,0,.207-.069.277-.069.138-.069.207-.069.346-.138a1.282,1.282,0,0,1,.484-.138c.069,0,.138-.069.277-.069.138-.069.277-.069.415-.138a.983.983,0,0,1,.415-.138c.069,0,.138-.069.207-.069.138-.069.346-.138.484-.207s.207-.069.346-.138a.068.068,0,0,0,.069-.069c.277-.138.622-.277.9-.415h.069a7.543,7.543,0,0,0,.761-.415c.069,0,.138-.069.207-.138.207-.138.415-.207.622-.346.069-.069.138-.069.207-.138s.207-.138.277-.207.138-.069.207-.138c.138-.069.207-.138.346-.207a.359.359,0,0,1,.277-.138.241.241,0,0,1,.138-.069c.207-.138.484-.346.692-.484h0c.207-.138.415-.346.622-.484l.069-.069.207-.207c.138-.069.207-.207.346-.277L50,20.677l.277-.277.207-.207.207-.207a.955.955,0,0,0,.207-.277l.138-.138a.955.955,0,0,0,.207-.277l.277-.277c0-.069.069-.069.069-.138A.955.955,0,0,0,51.8,18.6a1.214,1.214,0,0,1,.277-.346l.069-.069c.069-.069.069-.138.138-.207.069-.138.207-.277.277-.415,0-.069.069-.069.069-.138a.254.254,0,0,0,.069-.207c.069-.207.207-.346.277-.553a.241.241,0,0,1,.069-.138c0-.069,0-.069.069-.138a4.231,4.231,0,0,0,.346-.83v-.069h0c0-.069.069-.138.069-.207a1.628,1.628,0,0,0,.138-.553c0-.069.069-.207.069-.277,0-.138.069-.207.069-.346v-.069a1.523,1.523,0,0,0,.069-.553.416.416,0,0,1,.069-.277c0-.277.069-.553.069-.83l.207-11.272a3.367,3.367,0,0,1-.069.83.416.416,0,0,1-.069.277c0,.207-.069.346-.069.553,0,.138-.069.277-.069.415,0,.069-.069.207-.069.277a1.628,1.628,0,0,0-.138.553c0,.069-.069.138-.069.207a.068.068,0,0,1-.069.069c-.138.277-.207.553-.346.83-.069.069-.069.207-.138.277-.069.207-.207.346-.277.553-.069.069-.138.207-.207.277-.069.138-.207.277-.277.415s-.138.207-.207.346a1.214,1.214,0,0,1-.277.346,1.509,1.509,0,0,1-.277.346c-.069.069-.138.207-.277.277-.138.138-.207.277-.346.346a.954.954,0,0,0-.207.277l-.415.415-.277.277a3.007,3.007,0,0,1-.484.415l-.207.207a3.071,3.071,0,0,1-.761.553h0c-.277.207-.484.346-.761.553a.359.359,0,0,1-.277.138,2.8,2.8,0,0,1-.622.346c-.069.069-.207.138-.277.207-.277.138-.553.346-.83.484a6.323,6.323,0,0,1-.968.484h-.069c-.346.138-.622.346-.968.484-.138.069-.207.069-.346.138a7.176,7.176,0,0,1-.692.277.983.983,0,0,1-.415.138l-.622.207a1.282,1.282,0,0,1-.484.138l-.622.207a1.282,1.282,0,0,1-.484.138l-.622.207c-.138.069-.346.069-.484.138-.207.069-.415.138-.692.207-.138.069-.346.069-.484.138a2.457,2.457,0,0,1-.692.138,1.025,1.025,0,0,1-.484.069,3.471,3.471,0,0,1-.83.138c-.138,0-.207.069-.346.069-.415.069-.83.138-1.176.207h-.207c-.346.069-.692.069-1.037.138-.415.069-.9.069-1.314.138h0c-.622.069-1.245.069-1.867.138H29.6c-.83,0-1.591.069-2.42.069H26.9a15.041,15.041,0,0,1-1.729-.069,1.915,1.915,0,0,1-.622-.069,1.915,1.915,0,0,1-.622-.069c-.277,0-.622-.069-.9-.069h-.277c-.415-.069-.761-.069-1.176-.138A.416.416,0,0,1,21.3,15.7c-.277-.069-.553-.069-.83-.138-.138,0-.277-.069-.415-.069-.277-.069-.553-.069-.83-.138-.138,0-.207-.069-.346-.069l-1.037-.207h-.069c-.415-.069-.761-.207-1.106-.277-.138,0-.207-.069-.346-.069-.277-.069-.484-.138-.761-.207-.138-.069-.277-.069-.415-.138-.207-.069-.484-.138-.692-.207-.138-.069-.277-.069-.415-.138a2.89,2.89,0,0,1-.692-.277c-.138-.069-.277-.069-.346-.138-.277-.138-.622-.207-.9-.346-.069,0-.069,0-.138-.069l-1.037-.415c-.069-.069-.207-.069-.277-.138-.207-.138-.484-.207-.692-.346-.138-.069-.207-.138-.346-.138-.207-.138-.415-.207-.622-.346a.524.524,0,0,0-.277-.138c-.277-.138-.622-.346-.9-.484-.277-.207-.622-.346-.9-.553-.069-.069-.138-.138-.207-.138a3.836,3.836,0,0,1-.553-.415c-.138-.069-.207-.138-.346-.207-.138-.138-.346-.207-.484-.346-.138-.069-.207-.207-.346-.277-.138-.138-.277-.207-.415-.346l-.346-.346-.346-.346-.415-.415-.277-.277c-.138-.138-.277-.346-.415-.484-.069-.069-.138-.207-.207-.277l-.622-.83a6.082,6.082,0,0,1-.415-.692h0a3.23,3.23,0,0,1-.346-.692C1.037,4.218.9,3.942.761,3.6c0-.069-.069-.138-.069-.207A5.094,5.094,0,0,1,.415,2.42V2.351A5.338,5.338,0,0,1,.277,1.314V1.037C.277.692.207.346.207,0h0L0,11.272A5.234,5.234,0,0,0,.069,12.31c0,.069,0,.138,0,.277.069.346.069.692.138,1.037v.069a5.094,5.094,0,0,0,.277.968c0,.069.069.138.069.207.138.346.277.692.415.968h0a12.846,12.846,0,0,0,.761,1.314h0l.622.83a.068.068,0,0,0,.069.069c.069.069.138.138.138.207.138.138.277.346.415.484l.138.138.207.207.415.415c.069.069.069.138.138.138.069.069.138.138.207.138l.346.346c.069.069.138.138.207.138l.207.207c.138.069.207.207.346.277.069.069.138.069.138.138.069.069.207.138.277.207a1.214,1.214,0,0,1,.346.277c.069,0,.069.069.138.069a1.447,1.447,0,0,0,.415.277c.069.069.138.138.207.138a.068.068,0,0,1,.069.069c.277.138.484.346.761.484h.069A1.632,1.632,0,0,0,8.3,23.1Z" transform="translate(0 15.033)" fill="#888"/>
          <path id="Path-43" data-name="Path" d="M46.043,27.2c-10.788,5.947-27.939,5.6-38.381-.761S-2.5,10.123,8.215,4.245C19-1.7,36.154-1.356,46.6,5.006S56.832,21.326,46.043,27.2Z" transform="translate(0.083 0)" fill="#a3a3a3"/>
          <path id="Shape-2" data-name="Shape" d="M22.063,25.1a35.535,35.535,0,0,1-8.532-1.02,26.912,26.912,0,0,1-7.443-2.991,14.467,14.467,0,0,1-4.621-4.219A8.12,8.12,0,0,1,0,12.144a8.177,8.177,0,0,1,1.7-4.7A14.709,14.709,0,0,1,6.573,3.388,30.432,30.432,0,0,1,21.164,0V.691h-.006A29.589,29.589,0,0,0,6.918,3.942C2.974,6.087.763,8.985.694,12.1c-.07,3.134,1.969,6.105,5.74,8.368,3.965,2.461,9.636,3.873,15.56,3.873a29.6,29.6,0,0,0,14.245-3.25c3.944-2.145,6.155-5.043,6.224-8.16.07-3.133-1.968-6.1-5.74-8.368C32.759,2.1,27.088.691,21.164.691V0A35.984,35.984,0,0,1,29.7.994a25.709,25.709,0,0,1,7.443,3.017A14.469,14.469,0,0,1,41.76,8.23a8.12,8.12,0,0,1,1.466,4.73,8.176,8.176,0,0,1-1.7,4.7,14.71,14.71,0,0,1-4.872,4.055A30.426,30.426,0,0,1,22.063,25.1Z" transform="translate(5.599 3.208)" fill="#fff"/>
          <g id="Group_10173" data-name="Group 10173" transform="translate(15.975 8.756)">
            <g id="Group_10178" data-name="Group 10178" transform="translate(0 0)">
              <g id="Group_10174" data-name="Group 10174" transform="translate(0 10.021)">
                <path id="Path_4715" data-name="Path 4715" d="M5.781,0l11.3,1.68L0,3.36Z" transform="translate(0 0)" fill="#fff"/>
              </g>
              <g id="Group_10175" data-name="Group 10175" transform="translate(0 3.482)">
                <path id="Path_4716" data-name="Path 4716" d="M2.844,0,5.781,6.538,0,9.9Z" transform="translate(0 0)" fill="#fff"/>
              </g>
              <g id="Group_10176" data-name="Group 10176" transform="translate(4.184 0)">
                <path id="Path_4717" data-name="Path 4717" d="M0,2.7,18.84,0,2.937,9.242Z" transform="translate(0)" fill="#fff"/>
              </g>
              <g id="Group_10177" data-name="Group 10177" transform="translate(7.121 0)">
                <path id="Path_4718" data-name="Path 4718" d="M15.9,0,11.3,10.922,0,9.242Z" transform="translate(0)" fill="#fff"/>
              </g>
            </g>
          </g>
        </g>
        <g id="Group-16" data-name="Group" transform="translate(32.707 0) rotate(50)">
          <path id="Path-44" data-name="Path" d="M8.3,23.1c.069,0,.069.069.138.069a.524.524,0,0,0,.277.138c.138.069.207.138.346.207.069.069.207.069.277.138.138.069.207.138.346.138.069.069.138.069.207.138.138.069.346.138.484.207.069.069.207.069.277.138a.068.068,0,0,1,.069.069c.277.138.622.277.9.415h0c.069,0,.069.069.138.069.277.069.484.207.761.277.069,0,.069,0,.138.069.138.069.277.069.346.138a1,1,0,0,0,.484.138c.069,0,.138.069.277.069.138.069.277.069.415.138.138,0,.207.069.346.069.138.069.277.069.415.138s.277.069.415.138c.069,0,.138.069.207.069.207.069.346.069.553.138.138,0,.207.069.346.069h.069a5.762,5.762,0,0,1,1.037.277h.069c.277.069.622.138.9.207h.138c.138,0,.207.069.346.069s.346.069.484.069a.623.623,0,0,1,.346.069c.138,0,.277.069.415.069a.416.416,0,0,1,.277.069c.207,0,.415.069.553.069a.416.416,0,0,1,.277.069h.138c.346.069.692.069,1.037.138h.346c.277,0,.553.069.761.069h.138a1.915,1.915,0,0,1,.622.069,1.523,1.523,0,0,1,.553.069h.069c.553,0,1.106.069,1.729.069h.277c.83,0,1.591,0,2.42-.069h.346a16.957,16.957,0,0,0,1.867-.138h.069c.415-.069.9-.069,1.314-.138h.069c.346-.069.622-.069.968-.138H34.3c.346-.069.761-.138,1.106-.207h.069c.138,0,.207-.069.346-.069.207-.069.484-.069.692-.138h.138c.138,0,.277-.069.484-.069.138-.069.346-.069.553-.138a.254.254,0,0,0,.207-.069c.138-.069.346-.069.484-.138s.277-.069.415-.138c.069,0,.138-.069.207-.069.138-.069.346-.069.484-.138a.623.623,0,0,1,.346-.069c.069,0,.207-.069.277-.069a1.282,1.282,0,0,1,.484-.138c.069,0,.207-.069.277-.069.138-.069.207-.069.346-.138a1.282,1.282,0,0,1,.484-.138c.069,0,.138-.069.277-.069.138-.069.277-.069.415-.138a.983.983,0,0,1,.415-.138c.069,0,.138-.069.207-.069.138-.069.346-.138.484-.207s.207-.069.346-.138a.068.068,0,0,0,.069-.069c.277-.138.622-.277.9-.415h.069a7.541,7.541,0,0,0,.761-.415c.069-.069.138-.069.207-.138.207-.138.415-.207.622-.346.069-.069.138-.069.207-.138s.207-.138.277-.207.138-.069.207-.138c.138-.069.207-.138.346-.207a.359.359,0,0,1,.277-.138.241.241,0,0,1,.138-.069c.207-.138.484-.346.692-.484h0c.207-.138.415-.346.622-.484l.069-.069.207-.207c.138-.069.207-.207.346-.277L50,20.677l.277-.277.207-.207.207-.207a.955.955,0,0,0,.207-.277l.138-.138a.955.955,0,0,0,.207-.277l.277-.277c0-.069.069-.069.069-.138A.955.955,0,0,0,51.8,18.6a1.214,1.214,0,0,1,.277-.346l.069-.069c.069-.069.069-.138.138-.207.069-.138.207-.277.277-.415,0-.069.069-.069.069-.138a.254.254,0,0,0,.069-.207c.069-.207.207-.346.277-.553a.241.241,0,0,1,.069-.138c0-.069,0-.069.069-.138a4.231,4.231,0,0,0,.346-.83v-.069h0c0-.069.069-.138.069-.207a1.628,1.628,0,0,0,.138-.553c0-.069.069-.207.069-.277,0-.138.069-.207.069-.346v-.069a1.523,1.523,0,0,0,.069-.553.416.416,0,0,1,.069-.277c0-.277.069-.553.069-.83l.207-11.272a3.367,3.367,0,0,1-.069.83.416.416,0,0,1-.069.277c0,.207-.069.346-.069.553,0,.138-.069.277-.069.415,0,.069-.069.207-.069.277a1.628,1.628,0,0,0-.138.553c0,.069-.069.138-.069.207a.068.068,0,0,1-.069.069c-.138.277-.207.553-.346.83-.069.069-.069.207-.138.277-.069.207-.207.346-.277.553-.069.069-.138.207-.207.277-.069.138-.207.277-.277.415s-.138.207-.207.346a1.214,1.214,0,0,1-.277.346,1.508,1.508,0,0,1-.277.346c-.069.069-.138.207-.277.277-.138.138-.207.277-.346.346a.954.954,0,0,0-.207.277l-.415.415-.277.277a3.007,3.007,0,0,1-.484.415l-.207.207a3.071,3.071,0,0,1-.761.553h0c-.277.207-.484.346-.761.553a.359.359,0,0,1-.277.138,2.8,2.8,0,0,1-.622.346c-.069.069-.207.138-.277.207-.277.138-.553.346-.83.484a6.323,6.323,0,0,1-.968.484h-.069c-.346.138-.622.346-.968.484-.138.069-.207.069-.346.138a7.175,7.175,0,0,1-.692.277.983.983,0,0,1-.415.138l-.622.207a1.282,1.282,0,0,1-.484.138l-.622.207a1.282,1.282,0,0,1-.484.138l-.622.207c-.138.069-.346.069-.484.138-.207.069-.415.138-.692.207-.138.069-.346.069-.484.138a2.457,2.457,0,0,1-.692.138,1.025,1.025,0,0,1-.484.069,3.471,3.471,0,0,1-.83.138c-.138,0-.207.069-.346.069-.415.069-.83.138-1.176.207h-.207c-.346.069-.692.069-1.037.138-.415.069-.9.069-1.314.138h0c-.622.069-1.245.069-1.867.138H29.6c-.83,0-1.591.069-2.42.069H26.9a15.041,15.041,0,0,1-1.729-.069,1.915,1.915,0,0,1-.622-.069,1.915,1.915,0,0,1-.622-.069c-.277,0-.622-.069-.9-.069h-.277c-.415-.069-.761-.069-1.176-.138A.416.416,0,0,1,21.3,15.7c-.277-.069-.553-.069-.83-.138-.138,0-.277-.069-.415-.069-.277-.069-.553-.069-.83-.138-.138,0-.207-.069-.346-.069l-1.037-.207h-.069c-.415-.069-.761-.207-1.106-.277-.138,0-.207-.069-.346-.069-.277-.069-.484-.138-.761-.207-.138-.069-.277-.069-.415-.138-.207-.069-.484-.138-.692-.207-.138-.069-.277-.069-.415-.138a2.89,2.89,0,0,1-.692-.277c-.138-.069-.277-.069-.346-.138-.277-.138-.622-.207-.9-.346-.069,0-.069,0-.138-.069l-1.037-.415c-.069-.069-.207-.069-.277-.138-.207-.138-.484-.207-.692-.346-.138-.069-.207-.138-.346-.138-.207-.138-.415-.207-.622-.346a.524.524,0,0,0-.277-.138c-.277-.138-.622-.346-.9-.484-.277-.207-.622-.346-.9-.553-.069-.069-.138-.138-.207-.138a3.836,3.836,0,0,1-.553-.415c-.138-.069-.207-.138-.346-.207-.138-.138-.346-.207-.484-.346-.138-.069-.207-.207-.346-.277-.138-.138-.277-.207-.415-.346l-.346-.346-.346-.346-.415-.415-.277-.277c-.138-.138-.277-.346-.415-.484-.069-.069-.138-.207-.207-.277l-.622-.83c-.138-.207-.277-.484-.415-.692h0a3.23,3.23,0,0,1-.346-.692C1.037,4.218.9,3.942.761,3.6c0-.069-.069-.138-.069-.207A5.094,5.094,0,0,1,.415,2.42V2.351A5.338,5.338,0,0,1,.277,1.314c0-.069,0-.138,0-.277C.277.692.207.346.207,0h0L0,11.272A5.234,5.234,0,0,0,.069,12.31c0,.069,0,.138,0,.277.069.346.069.692.138,1.037v.069a5.094,5.094,0,0,0,.277.968c0,.069.069.138.069.207.138.346.277.692.415.968h0a12.846,12.846,0,0,0,.761,1.314h0l.622.83a.068.068,0,0,0,.069.069c.069.069.138.138.138.207.138.138.277.346.415.484l.138.138.207.207.415.415c.069.069.069.138.138.138.069.069.138.138.207.138l.346.346c.069.069.138.138.207.138l.207.207c.138.069.207.207.346.277.069.069.138.069.138.138.069.069.207.138.277.207a1.214,1.214,0,0,1,.346.277c.069,0,.069.069.138.069a1.447,1.447,0,0,0,.415.277c.069.069.138.138.207.138a.068.068,0,0,1,.069.069c.277.138.484.346.761.484h.069A1.632,1.632,0,0,0,8.3,23.1Z" transform="translate(0 15.033)" fill="#fcbc43"/>
          <path id="Path-45" data-name="Path" d="M46.043,27.2c-10.788,5.947-27.939,5.6-38.381-.761S-2.5,10.123,8.215,4.245C19-1.7,36.154-1.356,46.6,5.006,57.108,11.3,56.832,21.257,46.043,27.2Z" transform="translate(0.083 0)" fill="#fff"/>
          <path id="Shape-3" data-name="Shape" d="M22.063,25.1a35.535,35.535,0,0,1-8.532-1.02,26.912,26.912,0,0,1-7.443-2.991,14.467,14.467,0,0,1-4.621-4.219A8.12,8.12,0,0,1,0,12.144a8.177,8.177,0,0,1,1.7-4.7A14.709,14.709,0,0,1,6.573,3.388,30.432,30.432,0,0,1,21.164,0a35.76,35.76,0,0,1,8.48.994,26.44,26.44,0,0,1,7.495,3.017A14.47,14.47,0,0,1,41.76,8.23a8.121,8.121,0,0,1,1.466,4.73,8.176,8.176,0,0,1-1.7,4.7,14.71,14.71,0,0,1-4.872,4.055A30.426,30.426,0,0,1,22.063,25.1ZM21.164.691a35.138,35.138,0,0,0-7.719.821A24.1,24.1,0,0,0,6.918,3.942C2.974,6.087.763,8.985.694,12.1c-.07,3.134,1.969,6.105,5.74,8.368,3.965,2.461,9.636,3.873,15.56,3.873a29.6,29.6,0,0,0,14.245-3.25c3.944-2.145,6.155-5.043,6.224-8.16.07-3.133-1.968-6.1-5.74-8.368C32.759,2.1,27.088.691,21.164.691Z" transform="translate(5.668 3.208)" fill="#fccb4c"/>
          <g id="DjqNP3.tif" transform="translate(13.838 7.772)">
            <g id="Group_10202" data-name="Group 10202" transform="translate(0 0)">
              <g id="Group_10196" data-name="Group 10196" transform="translate(17.341 1.682)">
                <path id="Path_4733" data-name="Path 4733" d="M6.861.016A.5.5,0,0,1,6.9.047c-.227,3.5-.586,7-.852,10.53a4.184,4.184,0,0,1-.777-.351c-.521-.3-1.041-.6-1.558-.895C3,8.916,2.274,8.5,1.546,8.087,1.108,7.84.658,7.6.216,7.356.089,7.282.035,7.21.035,7.109c0-.99-.007-1.976-.017-2.963C.018,4.092,0,4.04,0,3.988,2.259,2.66,4.557,1.355,6.768,0A.124.124,0,0,1,6.861.016Z" transform="translate(0 0)" fill="#efd6a5"/>
              </g>
              <g id="Group_10197" data-name="Group 10197" transform="translate(9.053 0.008)">
                <path id="Path_4734" data-name="Path 4734" d="M17.936.021c.057.033,0,.088,0,.124-.007,1.1-.027,2.2-.039,3.3-.019,2.1-.025,4.2-.057,6.3-.026,1.591,0,3.179.018,4.767.006.329.021.658.023.99,0,.035.071.107-.087.107l-.15-.057q-1.991-.592-3.994-1.178C11.277,13.684,8.893,13,6.516,12.3q-2.453-.715-4.9-1.435c-.5-.145-1-.29-1.5-.434A.394.394,0,0,1,.028,10.4c-.052-.03-.031-.062.051-.106.154-.084.3-.176.452-.263.882-.508,1.781-1,2.681-1.5.605-.337,1.175-.694,1.807-1.015,1.133-.582,2.149-1.233,3.229-1.846a.2.2,0,0,1,.058.151c.01.987.02,1.973.017,2.963,0,.1.054.173.182.247.441.245.891.484,1.329.732.728.41,1.452.828,2.172,1.244.517.3,1.037.6,1.558.895a4.185,4.185,0,0,0,.777.351c.266-3.53.625-7.028.852-10.53.048-.176.3-.273.482-.393.592-.39,1.157-.8,1.815-1.152A2.244,2.244,0,0,1,17.863,0,.2.2,0,0,1,17.936.021Z" transform="translate(0 0)" fill="#ebb544"/>
              </g>
              <g id="Group_10198" data-name="Group 10198" transform="translate(0.4 10.01)">
                <path id="Path_4735" data-name="Path 4735" d="M26.451,5.612c-1.149.017-2.3.043-3.45.056-3.243.043-6.483.023-9.726-.01-3.781-.038-7.561-.118-11.346-.1a4.6,4.6,0,0,0-.559-.012,2.094,2.094,0,0,0-.581-.031c-.251,0-.5,0-.788,0a2.151,2.151,0,0,1,.219-.194c.307-.2.622-.393.938-.591C3.512,3.28,6,1.9,8.409.48A.379.379,0,0,0,8.57.346c.105-.092.087-.224.28-.3A.4.4,0,0,1,9.185.03c-.149.086-.3.178-.452.263-.082.044-.1.076-.051.106a.4.4,0,0,0,.091.034c.5.143,1,.288,1.5.434q2.446.719,4.9,1.435c2.376.7,4.761,1.382,7.137,2.077q2,.585,3.994,1.178Z" transform="translate(0 0)" fill="#fbbb43"/>
              </g>
              <g id="Group_10199" data-name="Group 10199" transform="translate(6.082 1.67)">
                <path id="Path_4736" data-name="Path 4736" d="M18.027.015c-2.21,1.351-4.509,2.656-6.768,3.979-1.147.033-2.248.056-3.353.082-.722.015-1.444.03-2.165.051a.532.532,0,0,1-.3-.065C3.958,3.128,2.478,2.207,1,1.285A10.862,10.862,0,0,1,0,.64C.484.62.946.6,1.4.576,5.57.405,9.738.234,13.9.094,15.176.051,16.448,0,17.72,0,17.825,0,17.922.01,18.027.015Z" transform="translate(0 0)" fill="#fefefe"/>
              </g>
              <g id="Group_10200" data-name="Group 10200" transform="translate(0.027 0.136)">
                <path id="Path_4737" data-name="Path 4737" d="M0,0A4.173,4.173,0,0,1,.59.645Q2.563,2.9,4.518,5.165,6.7,7.677,8.9,10.184l.044.036a.379.379,0,0,1-.162.135c-2.409,1.42-4.9,2.8-7.251,4.255-.316.2-.631.392-.938.591a2.151,2.151,0,0,0-.219.194c.29,0,.537,0,.788,0a2.1,2.1,0,0,1,.581.031c-.387.035-.779.008-1.166.028a1.325,1.325,0,0,0-.3.015C.266,15.16-.011.354,0,0Z" transform="translate(0 0)" fill="#fbca4c"/>
              </g>
              <g id="Group_10201" data-name="Group 10201">
                <path id="Path_4738" data-name="Path 4738" d="M26.917.008a2.244,2.244,0,0,0-.373.176c-.658.357-1.223.762-1.815,1.152-.18.12-.434.216-.482.393-.067-.044-.095-.053-.137-.044-.105,0-.2-.015-.308-.015-1.272,0-2.544.051-3.815.094-4.167.14-8.334.311-12.5.482-.458.021-.92.044-1.4.064a10.862,10.862,0,0,0,1,.645c1.475.923,2.955,1.843,4.421,2.766a.541.541,0,0,0,.317.077c.721-.021,1.443-.036,2.165-.051,1.105-.026,2.206-.048,3.311-.073-1.078.618-2.093,1.268-3.227,1.851-.632.321-1.2.678-1.807,1.015-.9.5-1.8.994-2.681,1.5a.4.4,0,0,0-.334.02c-.193.072-.175.2-.28.3l-.044-.036Q6.733,7.811,4.545,5.3,2.585,3.041.616.781A4.173,4.173,0,0,0,.027.136L0,.074C.124.08.225.066.313.066Q7.581.055,14.845.036,20.713.025,26.586,0C26.692,0,26.806.006,26.917.008Z" fill="#fbbb43"/>
              </g>
            </g>
          </g>
        </g>
      </g>
    </g>
    <g id="Group-17" data-name="Group" transform="translate(717.265 501.505)">
      <g id="Group-18" data-name="Group" transform="translate(0 0)">
        <g id="Group-19" data-name="Group" transform="translate(62.188)">
          <path id="Path-46" data-name="Path" d="M36.705,0s-.879,2.343,0,7.762,3,12.96-1.318,15.3-14.644-3.881-20.063-3.222S.9,17.28.24,14.644C-.419,12.082.021,4.32,4.853,4.1s16.621,1.538,17.793-.879S24.184,0,24.184,0H36.705Z" transform="translate(0 269.977)" fill="#4d89ff"/>
          <path id="Path-47" data-name="Path" d="M36.611,7.835c.366,2.27.952,4.979,1.172,7.469a5.292,5.292,0,0,1-2.49,4.247c-4.32,2.343-14.644-3.881-20.063-3.222S.805,13.766.146,11.13c-.073-.22-.073-.366-.146-.659.366-3,1.684-6.224,4.759-6.37,4.833-.22,16.621,1.538,17.793-.879S24.09,0,24.09,0H36.245a12.411,12.411,0,0,0,.073,1.611A21.466,21.466,0,0,0,36.611,7.835Z" transform="translate(0.094 269.904)" fill="#304ccf"/>
          <path id="Path-48" data-name="Path" d="M9.1.038S4.123-.4,2.659,1.722-.2,7.653.023,9.557,10.567,26.837,16.278,26.91s6.81-4.833,7.029-8.054Z" transform="translate(53.889 248.558)" fill="#4d89ff"/>
          <path id="Path-49" data-name="Path" d="M17.438,1.153s-.879,4.833,0,6.444,4.759,8.054,2.636,11.789c-2.05,3.734-8.713,2.563-10.837,0S.158,10.306.012,7.889,1.11,1.226,4.039.274C7.041-.678,17.438,1.153,17.438,1.153Z" transform="translate(56.537 250.225)" fill="#304ccf"/>
          <path id="Path-50" data-name="Path" d="M0,.182l9.446,135.9a5.817,5.817,0,0,0,5.345,5.418c4.54.439,10.544.732,10.544-.586,0-2.123-3.881-69.927-3.881-69.927L23.8,27.054,27.6,29.178,33.1,63.006l15.377,57.26a6.869,6.869,0,0,0,8.054,4.906h0a6.818,6.818,0,0,0,5.126-8.2L49.279,64.983,48.4,15.631S51.475,7.8,50.377,3.33,0,.182,0,.182Z" transform="translate(12.835 129.648)" fill="#6a6dff"/>
          <path id="Path-51" data-name="Path" d="M35.005,14.358C32.589,14.212,29.66,12.528,26,10.99c2.49-1.245,5.711-3.368,3.881-5.126C27.1,3.228,18.97,5.205,18.97,5.205S26.145,1.837,21.313.373,7.327,1.91,3.154,6.743.151,23,.151,23s.293,10.4.952,11.5c.659,1.172,1.611,3,2.636,4.467a66.259,66.259,0,0,0,5.492,5.565s.439,6.663,15.523,3.368,9.812-28.63,9.812-28.63c.805-.439,1.318-2.343,1.611-3.661A1.27,1.27,0,0,0,35.005,14.358Z" transform="translate(19.932 0)" fill="#383d4d"/>
          <path id="Path-52" data-name="Path" d="M1.367,0s-3.075,20.209,0,24.456c3.075,4.174,9.226,2.123,9.226,2.123s3.222,3.734,3.881,7.762c0,0,8.274,1.977,12.3,0s3.588-3.881,3.588-3.881-4.027-3.588-4.393-5.492c-.293-1.977-10.324.293-11.935-2.27s1.757-7.762-.952-9.739a2.238,2.238,0,0,0-3.734,1.1S1.22,6.663,1.367,0Z" transform="translate(18.57 22.998)" fill="#fcacac"/>
          <path id="Path-53" data-name="Path" d="M10.4,9.519C14.352,3.441,20.942,7.176,20.722,0c0,0-9.08,6.663-20.722,6L3.808,8.128,9.3,41.956C9.3,42.03,6.444,15.523,10.4,9.519Z" transform="translate(36.632 150.698)" fill="#4f53ff"/>
        </g>
        <path id="Path-54" data-name="Path" d="M9.006,0s9.006,2.929,17.427,29.509S0,65.021,0,65.021Z" transform="translate(111.927 50.53)" fill="#0145c6"/>
        <g id="Group-20" data-name="Group" transform="translate(112.293 50.53)">
          <path id="Path-55" data-name="Path" d="M.616.446A.8.8,0,0,1,.323.3L.25.593Z" transform="translate(8.39 -0.3)" fill="#fff"/>
          <path id="Path-56" data-name="Path" d="M0,1.391l1.1,2.05c.22-.073.513-.146.805-.22L.22,0Z" transform="translate(0 61.141)" fill="#fff"/>
        </g>
        <path id="Path-57" data-name="Path" d="M3.924,0s.439.586-.439.952S-.4.513.044,1.538,14.615,8.421,15.2,8.274s-1.172-4.979-1.172-4.979a16.81,16.81,0,0,0-2.49-2.05C11.027,1.172,3.924,0,3.924,0Z" transform="translate(0 64.076)" fill="#fcacac"/>
        <path id="Path-58" data-name="Path" d="M22.156,15.393s1.538-6.151.659-8.2-3.149,4.174-4.613,4.1S12.271-.5,9.635.016s2.636,6.956,1.611,8.347-6.956-5.345-8.2-4.247c-1.318,1.1,3.149,5.2,3,6.883C5.9,12.611.848,8.29.043,9.9S10.074,21.983,14.321,22.642,22.156,15.393,22.156,15.393Z" transform="translate(0.953 49.781)" fill="#fcacac"/>
        <path id="Path-59" data-name="Path" d="M106.575.242c-5.052-1.611-33.9,4.906-46.643,17.28L34.89,33.411,13.217,16.351a8.184,8.184,0,0,0-10.471.293h0a8.18,8.18,0,0,0,0,12.228L26.4,49.74a12.373,12.373,0,0,0,11.13,2.709l20.136-5.2h0c.513,3.588.879,6.224.879,6.663a1.237,1.237,0,0,1-.146.366l.146-.146c-.073,1.684-.293,12.594-.22,18.6h0a17.836,17.836,0,0,0,.22,3.808,15.013,15.013,0,0,0,5.418,7.1A36.944,36.944,0,0,1,62.2,80.274l1.757,3.368s9.3,11.789,46.862,0c0,0-.22-32.73,1.1-47.814C113.238,20.817,112.36,2.145,106.575.242Z" transform="translate(15.164 50.508)" fill="#0145c6"/>
      </g>
      <path id="Path-60" data-name="Path" d="M4.686,17.542C17.427,5.095,46.276-1.422,51.329.262c5.858,1.831,6.663,20.575,5.418,35.659-1.318,15.084-1.1,47.814-1.1,47.814-37.49,11.789-46.862,0-46.862,0L7.029,80.367a22.979,22.979,0,0,0,1.757,3.368,14.086,14.086,0,0,1-5.418-7.1,26.359,26.359,0,0,1-.22-3.808c-.073-6,.146-16.988.22-18.6l-.146.146a1.237,1.237,0,0,0,.146-.366c0-.366-.366-3.075-.879-6.663A36.036,36.036,0,0,0,0,20.544Z" transform="translate(70.41 50.561)" fill="#206dff"/>
    </g>
    <g id="Group_10215" data-name="Group 10215" transform="translate(896.044 488.441)">
      <g id="Group_10214" data-name="Group 10214" transform="translate(0 0)">
        <g id="Group_10213" data-name="Group 10213" style="isolation: isolate">
          <g id="Group_10207" data-name="Group 10207" transform="translate(0 27.271)">
            <path id="Path_4739" data-name="Path 4739" d="M56.517,85.544,38.964,46.821l17.6,22.153Z" transform="translate(-38.964 -46.821)" fill="#fff"/>
          </g>
          <g id="Group_10208" data-name="Group 10208" transform="translate(0.011 23.435)">
            <path id="Path_4740" data-name="Path 4740" d="M56.576,64.837l-17.6-22.153,28,8.291Z" transform="translate(-38.976 -42.684)" fill="#fff"/>
          </g>
          <g id="Group_10209" data-name="Group 10209" transform="translate(16.867 47.637)">
            <path id="Path_4741" data-name="Path 4741" d="M56.958,70.595l18.408-1.808L57.645,87.144Z" transform="translate(-56.958 -68.787)" fill="#fff"/>
          </g>
          <g id="Group_10210" data-name="Group 10210" transform="translate(13.78 24.598)">
            <path id="Path_4742" data-name="Path 4742" d="M52.726,43.995,74.214,63.188l-17.657,1.8Z" transform="translate(-52.726 -43.995)" fill="#fff"/>
          </g>
          <g id="Group_10211" data-name="Group 10211" transform="translate(0.011)">
            <path id="Path_4743" data-name="Path 4743" d="M38.976,40.843l17.73-23.435-.069,24.4Z" transform="translate(-38.976 -17.408)" fill="#fff"/>
          </g>
          <g id="Group_10212" data-name="Group 10212" transform="translate(0.064)">
            <path id="Path_4744" data-name="Path 4744" d="M51.654,17.408,69.181,61.2l-35.2-20.342Z" transform="translate(-33.977 -17.408)" fill="#fff"/>
          </g>
        </g>
      </g>
    </g>
  </g>
</svg>
