<?xml version="1.0" encoding="utf-8"?>
<!-- Generator: Adobe Illustrator 19.0.0, SVG Export Plug-In . SVG Version: 6.00 Build 0)  -->
<svg version="1.1" id="Layer_1" xmlns="http://www.w3.org/2000/svg" xmlns:xlink="http://www.w3.org/1999/xlink" x="0px" y="0px"
	 viewBox="0 0 566.8 464" style="enable-background:new 0 0 566.8 464;" xml:space="preserve">
<g id="XMLID_42_">
	<path id="XMLID_43_" d="M100.1,38.5c0,1.2-0.4,2.3-1.3,3.1c-0.9,0.8-2.1,1.3-3.6,1.3s-2.8-0.4-3.6-1.3c-0.9-0.8-1.3-1.9-1.3-3.1
		c0-1.2,0.4-2.3,1.3-3.1c0.9-0.8,2.1-1.3,3.6-1.3s2.8,0.4,3.6,1.3C99.7,36.2,100.1,37.2,100.1,38.5z"/>
	<path id="XMLID_45_" d="M146.5,26.1h-27.6v-6h27.6V26.1z"/>
	<path id="XMLID_47_" d="M184.2,26.1h-27.6v-6h27.6V26.1z"/>
	<path id="XMLID_49_" d="M221.8,26.1h-27.6v-6h27.6V26.1z"/>
	<path id="XMLID_51_" d="M259.4,26.1h-27.6v-6h27.6V26.1z"/>
	<path id="XMLID_53_" d="M297,26.1h-27.6v-6H297V26.1z"/>
	<path id="XMLID_55_" d="M334.7,26.1h-27.6v-6h27.6V26.1z"/>
	<path id="XMLID_57_" d="M372.3,26.1h-27.6v-6h27.6V26.1z"/>
	<path id="XMLID_59_" d="M409.9,26.1h-27.6v-6h27.6V26.1z"/>
	<path id="XMLID_61_" d="M447.5,26.1h-27.6v-6h27.6V26.1z"/>
	<path id="XMLID_63_" d="M476.4,38.5c0,1.2-0.4,2.3-1.3,3.1s-2.1,1.3-3.6,1.3s-2.8-0.4-3.6-1.3s-1.3-1.9-1.3-3.1
		c0-1.2,0.4-2.3,1.3-3.1s2.1-1.3,3.6-1.3s2.8,0.4,3.6,1.3S476.4,37.2,476.4,38.5z"/>
	<path id="XMLID_65_" d="M98.4,64.4v39.3c0,2.3-0.1,3.6-0.2,4c-0.2,0.6-0.6,1.2-1.1,1.6c-0.6,0.5-1.3,0.7-2,0.7
		c-0.8,0-1.4-0.2-2-0.7c-0.6-0.5-1-1-1.1-1.7c-0.1-0.4-0.2-1.7-0.2-4V64.4c0-2.3,0.1-3.6,0.2-4c0.2-0.6,0.6-1.2,1.1-1.6
		c0.6-0.5,1.3-0.7,2-0.7c0.7,0,1.4,0.2,2,0.7c0.6,0.5,1,1,1.1,1.7C98.3,60.9,98.4,62.2,98.4,64.4z"/>
	<path id="XMLID_67_" d="M137.7,96.5c0,1.2-0.4,2.3-1.3,3.1c-0.9,0.8-2.1,1.3-3.6,1.3s-2.8-0.4-3.6-1.3c-0.9-0.8-1.3-1.9-1.3-3.1
		c0-1.2,0.4-2.3,1.3-3.1c0.9-0.8,2.1-1.3,3.6-1.3s2.8,0.4,3.6,1.3C137.3,94.2,137.7,95.2,137.7,96.5z"/>
	<path id="XMLID_69_" d="M184.2,84.1h-27.6v-6h27.6V84.1z"/>
	<path id="XMLID_71_" d="M221.8,84.1h-27.6v-6h27.6V84.1z"/>
	<path id="XMLID_73_" d="M259.4,84.1h-27.6v-6h27.6V84.1z"/>
	<path id="XMLID_75_" d="M297,84.1h-27.6v-6H297V84.1z"/>
	<path id="XMLID_77_" d="M334.7,84.1h-27.6v-6h27.6V84.1z"/>
	<path id="XMLID_79_" d="M372.3,84.1h-27.6v-6h27.6V84.1z"/>
	<path id="XMLID_81_" d="M409.9,84.1h-27.6v-6h27.6V84.1z"/>
	<path id="XMLID_83_" d="M438.7,96.5c0,1.2-0.4,2.3-1.3,3.1s-2.1,1.3-3.6,1.3s-2.8-0.4-3.6-1.3s-1.3-1.9-1.3-3.1
		c0-1.2,0.4-2.3,1.3-3.1s2.1-1.3,3.6-1.3s2.8,0.4,3.6,1.3S438.7,95.2,438.7,96.5z"/>
	<path id="XMLID_85_" d="M474.7,64.4v39.3c0,2.3-0.1,3.6-0.2,4c-0.2,0.6-0.6,1.2-1.1,1.6c-0.6,0.5-1.3,0.7-2,0.7
		c-0.8,0-1.4-0.2-2-0.7c-0.6-0.5-1-1-1.1-1.7c-0.1-0.4-0.2-1.7-0.2-4V64.4c0-2.3,0.1-3.6,0.2-4c0.2-0.6,0.6-1.2,1.1-1.6
		c0.6-0.5,1.3-0.7,2-0.7c0.7,0,1.4,0.2,2,0.7c0.6,0.5,1,1,1.1,1.7C474.6,60.9,474.7,62.2,474.7,64.4z"/>
	<path id="XMLID_87_" d="M98.4,122.4v39.3c0,2.3-0.1,3.6-0.2,4c-0.2,0.6-0.6,1.2-1.1,1.6c-0.6,0.5-1.3,0.7-2,0.7
		c-0.8,0-1.4-0.2-2-0.7c-0.6-0.5-1-1-1.1-1.7c-0.1-0.4-0.2-1.7-0.2-4v-39.3c0-2.3,0.1-3.6,0.2-4c0.2-0.6,0.6-1.2,1.1-1.6
		c0.6-0.5,1.3-0.7,2-0.7c0.7,0,1.4,0.2,2,0.7c0.6,0.5,1,1,1.1,1.7C98.3,118.9,98.4,120.2,98.4,122.4z"/>
	<path id="XMLID_89_" d="M136,122.4v39.3c0,2.3-0.1,3.6-0.2,4c-0.2,0.6-0.6,1.2-1.1,1.6c-0.6,0.5-1.3,0.7-2,0.7
		c-0.8,0-1.4-0.2-2-0.7c-0.6-0.5-1-1-1.1-1.7c-0.1-0.4-0.2-1.7-0.2-4v-39.3c0-2.3,0.1-3.6,0.2-4c0.2-0.6,0.6-1.2,1.1-1.6
		c0.6-0.5,1.3-0.7,2-0.7c0.7,0,1.4,0.2,2,0.7c0.6,0.5,1,1,1.1,1.7C136,118.9,136,120.2,136,122.4z"/>
	<path id="XMLID_91_" d="M177.3,139l-21.4-11.9c-1.1-0.6-1.8-1.1-2.1-1.6c-0.4-0.5-0.5-1.1-0.5-1.8c0-0.9,0.3-1.7,1-2.4
		c0.7-0.7,1.5-1,2.4-1c0.6,0,1.4,0.3,2.6,0.9L191,139l-31.9,17.7c-1.2,0.6-2,1-2.6,1c-0.9,0-1.7-0.3-2.4-1c-0.7-0.7-1-1.5-1-2.4
		c0-0.7,0.2-1.3,0.5-1.8c0.4-0.5,1.1-1,2.1-1.6L177.3,139z"/>
	<path id="XMLID_93_" d="M244.2,128.5v4.1c2.8-2,5-3.3,6.6-4c1.6-0.7,3.1-1,4.5-1c2.1,0,4.2,0.8,6.3,2.4c1.4,1.1,2.1,2.2,2.1,3.3
		c0,0.9-0.3,1.7-1,2.4c-0.7,0.7-1.4,1-2.4,1c-0.8,0-1.7-0.4-2.6-1.2c-0.9-0.8-1.7-1.2-2.4-1.2c-0.9,0-2.3,0.6-4.1,1.7
		s-4.1,2.9-6.9,5.2v10h9.4c1.6,0,2.7,0.3,3.4,0.9s1,1.4,1,2.4c0,1-0.3,1.8-1,2.4s-1.8,0.9-3.4,0.9h-19.9c-1.6,0-2.7-0.3-3.4-0.9
		s-1-1.4-1-2.4c0-1,0.3-1.8,1-2.4s1.8-0.9,3.4-0.9h3.9v-16h-2.4c-1.6,0-2.7-0.3-3.4-0.9s-1-1.4-1-2.4c0-1,0.3-1.8,1-2.4
		s1.8-0.9,3.4-0.9H244.2z"/>
	<path id="XMLID_95_" d="M297.2,128.5v22.7c1.4,0,2.4,0.3,3.1,0.9c0.7,0.6,1,1.4,1,2.4s-0.3,1.8-1,2.4s-1.8,0.9-3.4,0.9h-6.3v-1.5
		c-1.9,0.9-3.7,1.5-5.4,1.9c-1.7,0.4-3.4,0.6-4.9,0.6c-2.2,0-4-0.5-5.6-1.4c-1.6-0.9-2.8-2.2-3.8-3.8c-0.7-1.2-1-2.6-1-4.4v-14.2
		h-1.1c-1.6,0-2.7-0.3-3.4-0.9s-1-1.4-1-2.4c0-1,0.3-1.8,1-2.4s1.8-0.9,3.4-0.9h7.7v19.7c0,1.4,0.3,2.4,1,3.1c0.7,0.7,1.7,1,3.1,1
		c1.3,0,2.8-0.3,4.3-0.8c1.5-0.5,3.4-1.5,5.7-2.9v-13.5h-2.4c-1.6,0-2.7-0.3-3.4-0.9s-1-1.4-1-2.4c0-1,0.3-1.8,1-2.4
		s1.8-0.9,3.4-0.9H297.2z"/>
	<path id="XMLID_97_" d="M314.1,128.5v2.2c1.2-1,2.5-1.8,4-2.3c1.5-0.5,3-0.8,4.7-0.8c3.9,0,7,1.2,9.3,3.6c1.8,1.9,2.7,4.5,2.7,7.6
		v12.3c1.4,0,2.4,0.3,3.1,0.9s1,1.4,1,2.4c0,1-0.3,1.8-1,2.4s-1.8,0.9-3.4,0.9h-6c-1.6,0-2.7-0.3-3.4-0.9s-1-1.4-1-2.4
		c0-1,0.3-1.8,1-2.4s1.7-0.9,3.1-0.9v-12.5c0-1.4-0.4-2.5-1.2-3.2c-1-0.9-2.5-1.3-4.5-1.3c-1.5,0-2.9,0.3-4,0.9
		c-1.1,0.6-2.6,1.8-4.4,3.8v12.3c1.7,0,2.8,0.2,3.3,0.5c1.1,0.6,1.6,1.6,1.6,2.8c0,1-0.3,1.8-1,2.4s-1.8,0.9-3.4,0.9h-7.5
		c-1.6,0-2.7-0.3-3.4-0.9s-1-1.4-1-2.4c0-1.2,0.5-2.1,1.5-2.8c0.5-0.3,1.6-0.5,3.3-0.5v-16c-1.4,0-2.4-0.3-3.1-0.9
		c-0.7-0.6-1-1.4-1-2.4s0.3-1.8,1-2.4s1.8-0.9,3.4-0.9H314.1z"/>
	<path id="XMLID_99_" d="M437,122.4v39.3c0,2.3-0.1,3.6-0.2,4c-0.2,0.6-0.6,1.2-1.1,1.6c-0.6,0.5-1.3,0.7-2,0.7
		c-0.8,0-1.4-0.2-2-0.7c-0.6-0.5-1-1-1.1-1.7c-0.1-0.4-0.2-1.7-0.2-4v-39.3c0-2.3,0.1-3.6,0.2-4c0.2-0.6,0.6-1.2,1.1-1.6
		c0.6-0.5,1.3-0.7,2-0.7c0.7,0,1.4,0.2,2,0.7c0.6,0.5,1,1,1.1,1.7C437,118.9,437,120.2,437,122.4z"/>
	<path id="XMLID_101_" d="M474.7,122.4v39.3c0,2.3-0.1,3.6-0.2,4c-0.2,0.6-0.6,1.2-1.1,1.6c-0.6,0.5-1.3,0.7-2,0.7
		c-0.8,0-1.4-0.2-2-0.7c-0.6-0.5-1-1-1.1-1.7c-0.1-0.4-0.2-1.7-0.2-4v-39.3c0-2.3,0.1-3.6,0.2-4c0.2-0.6,0.6-1.2,1.1-1.6
		c0.6-0.5,1.3-0.7,2-0.7c0.7,0,1.4,0.2,2,0.7c0.6,0.5,1,1,1.1,1.7C474.6,118.9,474.7,120.2,474.7,122.4z"/>
	<path id="XMLID_103_" d="M98.4,180.4v39.3c0,2.3-0.1,3.6-0.2,4c-0.2,0.6-0.6,1.2-1.1,1.6c-0.6,0.5-1.3,0.7-2,0.7
		c-0.8,0-1.4-0.2-2-0.7c-0.6-0.5-1-1-1.1-1.7c-0.1-0.4-0.2-1.7-0.2-4v-39.3c0-2.3,0.1-3.6,0.2-4c0.2-0.6,0.6-1.2,1.1-1.6
		c0.6-0.5,1.3-0.7,2-0.7c0.7,0,1.4,0.2,2,0.7c0.6,0.5,1,1,1.1,1.7C98.3,176.9,98.4,178.2,98.4,180.4z"/>
	<path id="XMLID_105_" d="M136,180.4v39.3c0,2.3-0.1,3.6-0.2,4c-0.2,0.6-0.6,1.2-1.1,1.6c-0.6,0.5-1.3,0.7-2,0.7
		c-0.8,0-1.4-0.2-2-0.7c-0.6-0.5-1-1-1.1-1.7c-0.1-0.4-0.2-1.7-0.2-4v-39.3c0-2.3,0.1-3.6,0.2-4c0.2-0.6,0.6-1.2,1.1-1.6
		c0.6-0.5,1.3-0.7,2-0.7c0.7,0,1.4,0.2,2,0.7c0.6,0.5,1,1,1.1,1.7C136,176.9,136,178.2,136,180.4z"/>
	<path id="XMLID_107_" d="M437,180.4v39.3c0,2.3-0.1,3.6-0.2,4c-0.2,0.6-0.6,1.2-1.1,1.6c-0.6,0.5-1.3,0.7-2,0.7
		c-0.8,0-1.4-0.2-2-0.7c-0.6-0.5-1-1-1.1-1.7c-0.1-0.4-0.2-1.7-0.2-4v-39.3c0-2.3,0.1-3.6,0.2-4c0.2-0.6,0.6-1.2,1.1-1.6
		c0.6-0.5,1.3-0.7,2-0.7c0.7,0,1.4,0.2,2,0.7c0.6,0.5,1,1,1.1,1.7C437,176.9,437,178.2,437,180.4z"/>
	<path id="XMLID_109_" d="M474.7,180.4v39.3c0,2.3-0.1,3.6-0.2,4c-0.2,0.6-0.6,1.2-1.1,1.6c-0.6,0.5-1.3,0.7-2,0.7
		c-0.8,0-1.4-0.2-2-0.7c-0.6-0.5-1-1-1.1-1.7c-0.1-0.4-0.2-1.7-0.2-4v-39.3c0-2.3,0.1-3.6,0.2-4c0.2-0.6,0.6-1.2,1.1-1.6
		c0.6-0.5,1.3-0.7,2-0.7c0.7,0,1.4,0.2,2,0.7c0.6,0.5,1,1,1.1,1.7C474.6,176.9,474.7,178.2,474.7,180.4z"/>
	<path id="XMLID_111_" d="M98.4,238.4v39.3c0,2.3-0.1,3.6-0.2,4c-0.2,0.6-0.6,1.2-1.1,1.6c-0.6,0.5-1.3,0.7-2,0.7
		c-0.8,0-1.4-0.2-2-0.7c-0.6-0.5-1-1-1.1-1.7c-0.1-0.4-0.2-1.7-0.2-4v-39.3c0-2.3,0.1-3.6,0.2-4c0.2-0.6,0.6-1.2,1.1-1.6
		c0.6-0.5,1.3-0.7,2-0.7c0.7,0,1.4,0.2,2,0.7c0.6,0.5,1,1,1.1,1.7C98.3,234.9,98.4,236.2,98.4,238.4z"/>
	<path id="XMLID_113_" d="M121.4,233.9h8.5l-2.1,15.8c-0.1,0.8-0.3,1.4-0.7,1.7s-0.8,0.5-1.4,0.5c-0.6,0-1-0.2-1.4-0.5
		c-0.3-0.3-0.6-0.9-0.7-1.7L121.4,233.9z M135.1,233.9h8.5l-2.1,15.8c-0.1,0.8-0.3,1.4-0.7,1.7c-0.3,0.3-0.8,0.5-1.4,0.5
		s-1-0.2-1.4-0.5c-0.3-0.3-0.6-0.9-0.7-1.7L135.1,233.9z"/>
	<path id="XMLID_116_" d="M184.2,258.1h-27.6v-6h27.6V258.1z"/>
	<path id="XMLID_118_" d="M221.8,258.1h-27.6v-6h27.6V258.1z"/>
	<path id="XMLID_120_" d="M259.4,258.1h-27.6v-6h27.6V258.1z"/>
	<path id="XMLID_122_" d="M297,258.1h-27.6v-6H297V258.1z"/>
	<path id="XMLID_124_" d="M334.7,258.1h-27.6v-6h27.6V258.1z"/>
	<path id="XMLID_126_" d="M372.3,258.1h-27.6v-6h27.6V258.1z"/>
	<path id="XMLID_128_" d="M409.9,258.1h-27.6v-6h27.6V258.1z"/>
	<path id="XMLID_130_" d="M429.4,233.4h8.5l-2.1,17c-0.1,0.9-0.3,1.5-0.7,1.9c-0.4,0.3-0.8,0.5-1.4,0.5c-0.5,0-1-0.2-1.3-0.5
		c-0.4-0.3-0.6-0.9-0.7-1.8L429.4,233.4z"/>
	<path id="XMLID_132_" d="M474.7,238.4v39.3c0,2.3-0.1,3.6-0.2,4c-0.2,0.6-0.6,1.2-1.1,1.6c-0.6,0.5-1.3,0.7-2,0.7
		c-0.8,0-1.4-0.2-2-0.7c-0.6-0.5-1-1-1.1-1.7c-0.1-0.4-0.2-1.7-0.2-4v-39.3c0-2.3,0.1-3.6,0.2-4c0.2-0.6,0.6-1.2,1.1-1.6
		c0.6-0.5,1.3-0.7,2-0.7c0.7,0,1.4,0.2,2,0.7c0.6,0.5,1,1,1.1,1.7C474.6,234.9,474.7,236.2,474.7,238.4z"/>
	<path id="XMLID_134_" d="M24.8,328.5c0,1.2-0.4,2.3-1.3,3.1c-0.9,0.8-2.1,1.3-3.6,1.3s-2.8-0.4-3.6-1.3c-0.9-0.8-1.3-1.9-1.3-3.1
		s0.4-2.3,1.3-3.1c0.9-0.8,2.1-1.3,3.6-1.3s2.8,0.4,3.6,1.3C24.4,326.2,24.8,327.2,24.8,328.5z"/>
	<path id="XMLID_136_" d="M71.3,316.1H43.7v-6h27.6V316.1z"/>
	<path id="XMLID_138_" d="M95,298.6l-7.8,9.3c-0.7,0.9-1.3,1.4-1.7,1.7c-0.4,0.3-0.9,0.4-1.5,0.4c-0.9,0-1.7-0.3-2.4-1
		c-0.7-0.7-1-1.5-1-2.4c0-0.8,0.5-1.7,1.5-2.9L95,288.1l13,15.6c0.6,0.8,1,1.3,1.2,1.7c0.2,0.4,0.3,0.8,0.3,1.2c0,0.9-0.3,1.7-1,2.4
		c-0.7,0.7-1.4,1-2.3,1c-0.6,0-1.1-0.1-1.5-0.4c-0.4-0.3-1-0.8-1.7-1.6L95,298.6z"/>
	<path id="XMLID_140_" d="M146.5,316.1h-27.6v-6h27.6V316.1z"/>
	<path id="XMLID_142_" d="M184.2,316.1h-27.6v-6h27.6V316.1z"/>
	<path id="XMLID_144_" d="M221.8,316.1h-27.6v-6h27.6V316.1z"/>
	<path id="XMLID_146_" d="M259.4,316.1h-27.6v-6h27.6V316.1z"/>
	<path id="XMLID_148_" d="M297,316.1h-27.6v-6H297V316.1z"/>
	<path id="XMLID_150_" d="M334.7,316.1h-27.6v-6h27.6V316.1z"/>
	<path id="XMLID_152_" d="M372.3,316.1h-27.6v-6h27.6V316.1z"/>
	<path id="XMLID_154_" d="M409.9,316.1h-27.6v-6h27.6V316.1z"/>
	<path id="XMLID_156_" d="M447.5,316.1h-27.6v-6h27.6V316.1z"/>
	<path id="XMLID_158_" d="M471.2,298.6l-7.8,9.3c-0.7,0.9-1.3,1.4-1.7,1.7s-0.9,0.4-1.5,0.4c-0.9,0-1.7-0.3-2.4-1
		c-0.7-0.7-1-1.5-1-2.4c0-0.8,0.5-1.7,1.5-2.9l12.9-15.6l13,15.6c0.6,0.8,1,1.3,1.2,1.7s0.3,0.8,0.3,1.2c0,0.9-0.3,1.7-1,2.4
		c-0.7,0.7-1.4,1-2.3,1c-0.6,0-1.1-0.1-1.5-0.4s-1-0.8-1.7-1.6L471.2,298.6z"/>
	<path id="XMLID_160_" d="M522.8,316.1h-27.6v-6h27.6V316.1z"/>
	<path id="XMLID_162_" d="M551.6,328.5c0,1.2-0.4,2.3-1.3,3.1s-2.1,1.3-3.6,1.3s-2.8-0.4-3.6-1.3s-1.3-1.9-1.3-3.1s0.4-2.3,1.3-3.1
		s2.1-1.3,3.6-1.3s2.8,0.4,3.6,1.3S551.6,327.2,551.6,328.5z"/>
	<path id="XMLID_164_" d="M23.1,354.4v39.3c0,2.3-0.1,3.6-0.2,4c-0.2,0.6-0.6,1.2-1.1,1.6c-0.6,0.5-1.3,0.7-2,0.7
		c-0.8,0-1.4-0.2-2-0.7c-0.6-0.5-1-1-1.1-1.7c-0.1-0.4-0.2-1.7-0.2-4v-39.3c0-2.3,0.1-3.6,0.2-4c0.2-0.6,0.6-1.2,1.1-1.6
		c0.6-0.5,1.3-0.7,2-0.7c0.7,0,1.4,0.2,2,0.7c0.6,0.5,1,1,1.1,1.7C23.1,350.9,23.1,352.2,23.1,354.4z"/>
	<path id="XMLID_166_" d="M74.1,377.7v8.9c-3,1.6-5.5,2.7-7.6,3.3s-4.4,0.9-6.8,0.9c-3.4,0-6.5-0.5-9.4-1.5c-2.3-0.8-4-1.8-5.3-2.9
		c-1.3-1.2-2.5-2.9-3.6-5.2c-1.1-2.3-1.6-4.9-1.6-7.8v-4.8c0-4.4,1.3-8.3,4-11.8c3.6-4.7,8.5-7,14.7-7c1.8,0,3.5,0.2,5.1,0.5
		c1.6,0.4,3.2,0.9,4.6,1.6c0.9-0.8,1.7-1.2,2.6-1.2c1,0,1.8,0.3,2.4,1c0.6,0.7,0.9,1.8,0.9,3.4v4.3c0,1.6-0.3,2.7-0.9,3.4
		s-1.4,1-2.4,1c-0.8,0-1.4-0.2-2-0.7c-0.4-0.3-0.8-1-1.1-2.1c-0.3-1.1-0.6-1.9-1-2.2c-0.6-0.6-1.6-1.2-3.1-1.7
		c-1.5-0.5-3.1-0.7-4.9-0.7c-2.6,0-4.9,0.5-6.8,1.6c-1.4,0.8-2.6,2.2-3.8,4.2s-1.7,4.1-1.7,6.4v4.8c0,3.5,1,6.2,3.1,8.1
		c2.1,1.8,5.3,2.8,9.8,2.8c3,0,5.8-0.6,8.3-1.7v-4.7h-6.7c-1.6,0-2.7-0.3-3.4-0.9s-1-1.4-1-2.4s0.3-1.8,1-2.4s1.8-0.9,3.4-0.9
		l11.7,0c1.6,0,2.7,0.3,3.4,0.9s1,1.4,1,2.4c0,0.8-0.2,1.5-0.7,2C75.7,377,75,377.4,74.1,377.7z"/>
	<path id="XMLID_168_" d="M112.2,375.7c0,2.5-0.7,5-2.1,7.4c-1.4,2.4-3.5,4.3-6.3,5.7c-2.8,1.4-5.7,2.1-8.7,2.1
		c-3,0-5.9-0.7-8.6-2.1c-2.8-1.4-4.8-3.3-6.3-5.7c-1.4-2.4-2.2-4.9-2.2-7.5c0-2.6,0.7-5.2,2.2-7.8c1.5-2.5,3.6-4.5,6.3-6
		s5.6-2.2,8.6-2.2c3,0,5.9,0.7,8.7,2.2c2.8,1.5,4.9,3.5,6.3,6C111.5,370.4,112.2,373,112.2,375.7z M105.6,375.7
		c0-2.1-0.8-4.1-2.3-5.9c-2.1-2.4-4.8-3.6-8.2-3.6c-3,0-5.5,1-7.5,2.9s-3,4.1-3,6.6c0,2.1,1,4,3,5.8c2,1.8,4.5,2.7,7.4,2.7
		c3,0,5.5-0.9,7.5-2.7C104.6,379.8,105.6,377.8,105.6,375.7z M91.7,351.8c0,1-0.3,1.8-1,2.5s-1.5,1-2.5,1s-1.8-0.3-2.5-1
		c-0.7-0.7-1-1.5-1-2.5s0.3-1.8,1-2.5c0.7-0.7,1.5-1,2.5-1s1.8,0.3,2.5,1S91.7,350.9,91.7,351.8z M105.4,351.8c0,1-0.3,1.8-1,2.5
		c-0.7,0.7-1.5,1-2.5,1s-1.8-0.3-2.5-1s-1-1.5-1-2.5s0.3-1.8,1-2.5s1.5-1,2.5-1s1.8,0.3,2.5,1C105.1,350.1,105.4,350.9,105.4,351.8z
		"/>
	<path id="XMLID_173_" d="M131.3,360.5v4.1c2.8-2,5-3.3,6.6-4c1.6-0.7,3.1-1,4.5-1c2.1,0,4.2,0.8,6.3,2.4c1.4,1.1,2.1,2.2,2.1,3.3
		c0,0.9-0.3,1.7-1,2.4c-0.7,0.7-1.4,1-2.4,1c-0.8,0-1.7-0.4-2.6-1.2s-1.7-1.2-2.4-1.2c-0.9,0-2.3,0.6-4.1,1.7s-4.1,2.9-6.9,5.2v10
		h9.4c1.6,0,2.7,0.3,3.4,0.9s1,1.4,1,2.4c0,1-0.3,1.8-1,2.4s-1.8,0.9-3.4,0.9h-19.9c-1.6,0-2.7-0.3-3.4-0.9s-1-1.4-1-2.4
		c0-1,0.3-1.8,1-2.4s1.8-0.9,3.4-0.9h3.9v-16h-2.4c-1.6,0-2.7-0.3-3.4-0.9s-1-1.4-1-2.4c0-1,0.3-1.8,1-2.4s1.8-0.9,3.4-0.9H131.3z"
		/>
	<path id="XMLID_175_" d="M173.6,348v35.2h7.9c1.6,0,2.7,0.3,3.4,0.9s1,1.4,1,2.4c0,1-0.3,1.8-1,2.4s-1.8,0.9-3.4,0.9h-22.5
		c-1.6,0-2.7-0.3-3.4-0.9s-1-1.4-1-2.4c0-1,0.3-1.8,1-2.4s1.8-0.9,3.4-0.9h7.9v-28.6h-5.3c-1.6,0-2.7-0.3-3.4-0.9
		c-0.7-0.6-1-1.4-1-2.4c0-1,0.3-1.8,1-2.4s1.8-0.9,3.4-0.9H173.6z"/>
	<path id="XMLID_177_" d="M211.2,360.5v22.7h7.9c1.6,0,2.7,0.3,3.4,0.9s1,1.4,1,2.4c0,1-0.3,1.8-1,2.4s-1.8,0.9-3.4,0.9h-22.5
		c-1.6,0-2.7-0.3-3.4-0.9s-1-1.4-1-2.4c0-1,0.3-1.8,1-2.4s1.8-0.9,3.4-0.9h7.9v-16h-5.3c-1.6,0-2.7-0.3-3.4-0.9
		c-0.7-0.6-1-1.4-1-2.4c0-1,0.3-1.8,1-2.4s1.8-0.9,3.4-0.9H211.2z M210.3,348v7h-7.9v-7H210.3z"/>
	<path id="XMLID_180_" d="M286.4,357.3v25.8h4.4c1.6,0,2.7,0.3,3.4,0.9s1,1.4,1,2.4c0,1-0.3,1.8-1,2.4s-1.8,0.9-3.4,0.9h-15.5
		c-1.6,0-2.7-0.3-3.4-0.9s-1-1.4-1-2.4c0-1,0.3-1.8,1-2.4s1.8-0.9,3.4-0.9h4.4v-25.8h-7.2v6.3c0,1.6-0.3,2.7-0.9,3.4s-1.4,1-2.4,1
		c-1,0-1.8-0.3-2.4-1s-0.9-1.8-0.9-3.4v-12.9l34.2,0v12.9c0,1.6-0.3,2.7-0.9,3.4s-1.4,1-2.4,1c-1,0-1.8-0.3-2.4-1s-0.9-1.8-0.9-3.4
		v-6.3H286.4z"/>
	<path id="XMLID_182_" d="M337.4,378.5h-27.1c0.7,1.7,1.9,3.1,3.7,4.2c1.8,1.1,4.1,1.6,7.1,1.6c2.4,0,5.7-0.5,9.8-1.6
		c1.7-0.4,2.8-0.6,3.5-0.6c0.9,0,1.6,0.3,2.2,0.9s0.9,1.4,0.9,2.4c0,0.9-0.3,1.6-1,2.2c-0.9,0.8-3,1.6-6.3,2.3s-6.5,1.1-9.6,1.1
		c-5.3,0-9.5-1.5-12.7-4.5c-3.2-3-4.8-6.7-4.8-11c0-4.6,1.7-8.4,5.1-11.3c3.4-2.9,7.4-4.4,11.8-4.4c2.7,0,5.2,0.5,7.4,1.4
		c2.2,0.9,3.9,2,5,3.1c1.5,1.6,2.8,3.6,3.8,5.9c0.7,1.6,1,3.5,1,5.7V378.5z M330.1,371.9c-1-1.9-2.3-3.3-4-4.2s-3.6-1.4-5.8-1.4
		c-2.2,0-4.2,0.5-5.8,1.4s-3,2.3-4,4.2H330.1z"/>
	<path id="XMLID_185_" d="M365.6,368.3c-1.1-0.7-2.2-1.2-3.4-1.5c-1.2-0.3-2.4-0.5-3.7-0.5c-2.6,0-4.6,0.4-6.1,1.3
		c-0.7,0.4-1,0.8-1,1.2c0,0.5,0.5,1,1.4,1.5c0.7,0.3,2.2,0.7,4.6,1c4.4,0.6,7.4,1.2,9.2,1.8c2.3,0.8,4,2,5.2,3.5s1.8,3.2,1.8,5
		c0,2.4-1,4.3-3.1,5.9c-3,2.3-6.9,3.4-11.6,3.4c-1.9,0-3.7-0.2-5.3-0.5s-3.1-0.8-4.5-1.5c-0.3,0.3-0.7,0.5-1,0.6
		c-0.4,0.2-0.7,0.2-1.1,0.2c-1,0-1.9-0.3-2.5-1s-0.9-1.8-0.9-3.4v-2.2c0-1.6,0.3-2.7,0.9-3.4s1.4-1,2.4-1c0.8,0,1.5,0.2,2,0.7
		c0.5,0.4,1,1.2,1.3,2.3c1,0.9,2.2,1.5,3.6,1.9c1.4,0.4,3,0.7,4.9,0.7c3,0,5.4-0.5,7.1-1.4c0.8-0.5,1.2-1,1.2-1.5
		c0-0.9-0.6-1.6-1.7-2.1c-1.1-0.6-3.5-1-7.1-1.4c-5.3-0.6-8.9-1.6-10.6-3.2c-1.8-1.6-2.7-3.5-2.7-5.8c0-2.4,1-4.3,3-5.9
		c2.7-2.1,6.3-3.2,10.6-3.2c1.5,0,3,0.1,4.4,0.4s2.8,0.7,4,1.3c0.4-0.3,0.8-0.5,1.1-0.7s0.7-0.2,1-0.2c0.9,0,1.7,0.3,2.3,1
		c0.6,0.7,0.9,1.8,0.9,3.4v1.6c0,1.4-0.2,2.4-0.5,2.9c-0.7,1-1.6,1.5-2.8,1.5c-0.8,0-1.5-0.2-2.1-0.7
		C366.1,369.7,365.8,369.1,365.6,368.3z"/>
	<path id="XMLID_187_" d="M394.4,367.1v13.2c0,1.4,0.3,2.4,0.9,2.8c0.9,0.7,2.5,1.1,4.8,1.1c3.4,0,6.5-0.7,9.3-2.2
		c1.1-0.6,2-0.8,2.6-0.8c0.9,0,1.6,0.3,2.2,1s1,1.4,1,2.4c0,0.9-0.3,1.6-1,2.2c-1.1,1-3.1,1.9-6.2,2.8s-5.7,1.3-7.8,1.3
		c-4.1,0-7.2-0.9-9.2-2.7c-2.1-1.8-3.1-3.9-3.1-6.5v-14.5h-2.4c-1.6,0-2.7-0.3-3.4-0.9s-1-1.4-1-2.4c0-1,0.3-1.8,1-2.4
		s1.8-0.9,3.4-0.9h2.4v-6c0-1.6,0.3-2.7,0.9-3.4s1.4-1,2.4-1c1,0,1.8,0.3,2.4,1s0.9,1.8,0.9,3.4v6h12.2c1.6,0,2.7,0.3,3.4,0.9
		c0.7,0.6,1,1.4,1,2.4c0,1-0.3,1.8-1,2.4c-0.7,0.6-1.8,0.9-3.4,0.9H394.4z"/>
	<path id="XMLID_189_" d="M427,360.5v2.2c1.2-1,2.5-1.8,4-2.3c1.5-0.5,3-0.8,4.7-0.8c3.9,0,7,1.2,9.3,3.6c1.8,1.9,2.7,4.5,2.7,7.6
		v12.3c1.4,0,2.4,0.3,3.1,0.9s1,1.4,1,2.4c0,1-0.3,1.8-1,2.4c-0.7,0.6-1.8,0.9-3.4,0.9h-6c-1.6,0-2.7-0.3-3.4-0.9
		c-0.7-0.6-1-1.4-1-2.4c0-1,0.3-1.8,1-2.4s1.7-0.9,3.1-0.9v-12.5c0-1.4-0.4-2.5-1.2-3.2c-1-0.9-2.5-1.3-4.5-1.3
		c-1.5,0-2.9,0.3-4,0.9c-1.1,0.6-2.6,1.8-4.4,3.8v12.3c1.7,0,2.8,0.2,3.3,0.5c1.1,0.6,1.6,1.6,1.6,2.8c0,1-0.3,1.8-1,2.4
		c-0.7,0.6-1.8,0.9-3.4,0.9h-7.5c-1.6,0-2.7-0.3-3.4-0.9c-0.7-0.6-1-1.4-1-2.4c0-1.2,0.5-2.1,1.5-2.8c0.5-0.3,1.6-0.5,3.3-0.5v-16
		c-1.4,0-2.4-0.3-3.1-0.9s-1-1.4-1-2.4s0.3-1.8,1-2.4c0.7-0.6,1.8-0.9,3.4-0.9H427z"/>
	<path id="XMLID_191_" d="M487.9,378.5h-27.1c0.7,1.7,1.9,3.1,3.7,4.2c1.8,1.1,4.1,1.6,7.1,1.6c2.4,0,5.7-0.5,9.8-1.6
		c1.7-0.4,2.8-0.6,3.5-0.6c0.9,0,1.6,0.3,2.2,0.9s0.9,1.4,0.9,2.4c0,0.9-0.3,1.6-1,2.2c-0.9,0.8-3,1.6-6.3,2.3s-6.5,1.1-9.6,1.1
		c-5.3,0-9.5-1.5-12.7-4.5c-3.2-3-4.8-6.7-4.8-11c0-4.6,1.7-8.4,5.1-11.3c3.4-2.9,7.4-4.4,11.8-4.4c2.7,0,5.2,0.5,7.4,1.4
		s3.9,2,5,3.1c1.5,1.6,2.8,3.6,3.8,5.9c0.7,1.6,1,3.5,1,5.7V378.5z M480.6,371.9c-1-1.9-2.3-3.3-4-4.2s-3.6-1.4-5.8-1.4
		c-2.2,0-4.2,0.5-5.8,1.4s-3,2.3-4,4.2H480.6z"/>
	<path id="XMLID_194_" d="M507.3,367.1v13.2c0,1.4,0.3,2.4,0.9,2.8c0.9,0.7,2.5,1.1,4.8,1.1c3.4,0,6.5-0.7,9.3-2.2
		c1.1-0.6,2-0.8,2.6-0.8c0.9,0,1.6,0.3,2.2,1s1,1.4,1,2.4c0,0.9-0.3,1.6-1,2.2c-1.1,1-3.1,1.9-6.2,2.8s-5.7,1.3-7.8,1.3
		c-4.1,0-7.2-0.9-9.2-2.7s-3.1-3.9-3.1-6.5v-14.5h-2.4c-1.6,0-2.7-0.3-3.4-0.9c-0.7-0.6-1-1.4-1-2.4c0-1,0.3-1.8,1-2.4
		c0.7-0.6,1.8-0.9,3.4-0.9h2.4v-6c0-1.6,0.3-2.7,0.9-3.4c0.6-0.7,1.4-1,2.4-1c1,0,1.8,0.3,2.4,1c0.6,0.7,0.9,1.8,0.9,3.4v6h12.2
		c1.6,0,2.7,0.3,3.4,0.9c0.7,0.6,1,1.4,1,2.4c0,1-0.3,1.8-1,2.4c-0.7,0.6-1.8,0.9-3.4,0.9H507.3z"/>
	<path id="XMLID_196_" d="M549.9,354.4v39.3c0,2.3-0.1,3.6-0.2,4c-0.2,0.6-0.6,1.2-1.1,1.6c-0.6,0.5-1.3,0.7-2,0.7
		c-0.8,0-1.4-0.2-2-0.7c-0.6-0.5-1-1-1.1-1.7c-0.1-0.4-0.2-1.7-0.2-4v-39.3c0-2.3,0.1-3.6,0.2-4c0.2-0.6,0.6-1.2,1.1-1.6
		c0.6-0.5,1.3-0.7,2-0.7c0.7,0,1.4,0.2,2,0.7c0.6,0.5,1,1,1.1,1.7C549.9,350.9,549.9,352.2,549.9,354.4z"/>
	<path id="XMLID_198_" d="M8.5,407.9H17l-2.1,15.8c-0.1,0.8-0.3,1.4-0.7,1.7s-0.8,0.5-1.4,0.5c-0.6,0-1-0.2-1.4-0.5
		c-0.3-0.3-0.6-0.9-0.7-1.7L8.5,407.9z M22.3,407.9h8.5l-2.1,15.8c-0.1,0.8-0.3,1.4-0.7,1.7c-0.3,0.3-0.8,0.5-1.4,0.5
		s-1-0.2-1.4-0.5c-0.3-0.3-0.6-0.9-0.7-1.7L22.3,407.9z"/>
	<path id="XMLID_201_" d="M71.3,432.1H43.7v-6h27.6V432.1z"/>
	<path id="XMLID_203_" d="M108.9,432.1H81.3v-6h27.6V432.1z"/>
	<path id="XMLID_205_" d="M146.5,432.1h-27.6v-6h27.6V432.1z"/>
	<path id="XMLID_207_" d="M184.2,432.1h-27.6v-6h27.6V432.1z"/>
	<path id="XMLID_209_" d="M221.8,432.1h-27.6v-6h27.6V432.1z"/>
	<path id="XMLID_211_" d="M259.4,432.1h-27.6v-6h27.6V432.1z"/>
	<path id="XMLID_213_" d="M297,432.1h-27.6v-6H297V432.1z"/>
	<path id="XMLID_215_" d="M334.7,432.1h-27.6v-6h27.6V432.1z"/>
	<path id="XMLID_217_" d="M372.3,432.1h-27.6v-6h27.6V432.1z"/>
	<path id="XMLID_219_" d="M409.9,432.1h-27.6v-6h27.6V432.1z"/>
	<path id="XMLID_221_" d="M447.5,432.1h-27.6v-6h27.6V432.1z"/>
	<path id="XMLID_223_" d="M485.2,432.1h-27.6v-6h27.6V432.1z"/>
	<path id="XMLID_225_" d="M522.8,432.1h-27.6v-6h27.6V432.1z"/>
	<path id="XMLID_227_" d="M542.3,407.4h8.5l-2.1,17c-0.1,0.9-0.3,1.5-0.7,1.9c-0.4,0.3-0.8,0.5-1.4,0.5c-0.5,0-1-0.2-1.3-0.5
		c-0.4-0.3-0.6-0.9-0.7-1.8L542.3,407.4z"/>
</g>
</svg>
