<svg width="466" height="336" viewBox="0 0 466 336" fill="none" xmlns="http://www.w3.org/2000/svg">
<g clip-path="url(#clip0)">
<path opacity="0.3" d="M226.921 336.001C330.778 336.001 414.971 331.239 414.971 325.364C414.971 319.489 330.778 314.727 226.921 314.727C123.063 314.727 38.8706 319.489 38.8706 325.364C38.8706 331.239 123.063 336.001 226.921 336.001Z" fill="#0FFFFF"/>
<path d="M109.878 331.006C109.878 331.006 125.949 247.795 76.5198 231.333C39.121 218.878 20.9706 176.107 56.7764 149.937C56.7764 149.937 -21.5142 158.31 15.9301 250.557L0.27179 231.333C0.27179 231.333 -32.5744 334.916 109.878 331.006Z" fill="white"/>
<path d="M198.935 47.7404L170.518 4C170.518 4 148.316 8.6164 149.404 51.8513L198.935 47.7404Z" fill="#3C2A34"/>
<path d="M187.395 50.1548L169.46 16.4712C169.46 16.4712 152.877 26.3757 153.757 51.4935L187.395 50.1548Z" fill="#E76650"/>
<path d="M178.501 44.8554C178.501 44.8554 177.378 31.604 164.73 29.1504L169.598 37.9216C169.598 37.9216 166.848 36.2885 161.553 37.004C161.553 37.004 167.695 41.6839 168.121 46.7377C168.631 45.175 168.641 43.5005 168.149 41.9322C167.658 40.3639 166.687 38.9744 165.364 37.9446C165.364 37.9446 170.449 39.3503 171.508 41.1853C171.508 41.1853 171.508 35.678 168.12 32.4142C168.121 32.4096 174.898 35.4691 178.501 44.8554Z" fill="#FBE4D3"/>
<path d="M265.344 47.7404L293.761 4C293.761 4 315.963 8.6164 314.874 51.8513L265.344 47.7404Z" fill="#3C2A34"/>
<path d="M276.884 50.1548L294.82 16.4712C294.82 16.4712 311.402 26.3757 310.522 51.4935L276.884 50.1548Z" fill="#E76650"/>
<path d="M285.778 44.8554C285.778 44.8554 286.902 31.604 299.55 29.1504L294.682 37.9216C294.682 37.9216 297.433 36.2885 302.726 37.004C302.726 37.004 296.584 41.6839 296.159 46.7377C295.649 45.175 295.639 43.5005 296.13 41.9322C296.622 40.3639 297.593 38.9744 298.916 37.9446C298.916 37.9446 293.831 39.3503 292.771 41.1853C292.771 41.1853 292.771 35.678 296.16 32.4142C296.159 32.4096 289.382 35.4691 285.778 44.8554Z" fill="#FBE4D3"/>
<path d="M149.66 51.8559C149.66 51.8559 93.5387 130.069 104.23 151.307C114.921 172.545 231.756 277.563 231.756 277.563C231.756 277.563 360.974 155.9 360.974 129.925C360.974 103.95 314.882 51.8559 314.882 51.8559C314.882 51.8559 224.564 33.9824 149.66 51.8559Z" fill="white"/>
<path d="M114.148 331.115C114.148 331.115 39.2627 269.183 112.79 112.81C138.811 57.4649 338.462 71.7365 351.76 102.028C418.047 253.026 360.966 331.117 360.966 331.117L114.148 331.115Z" fill="white" stroke="#E5E5E5"/>
<path d="M231.302 86.4026V136.222L220.394 156.343L234.538 139.147L247.27 156.343L236.482 134.391L234.538 84.6357L231.302 86.4026Z" fill="#3C2A34"/>
<path d="M315.357 217.664C315.357 217.664 322.377 262.601 303.393 277.562C304.347 269.371 304.347 261.104 303.393 252.914C303.393 252.914 291.579 287.437 255.721 293.251C255.721 293.251 280.632 300.521 300.637 264.542C300.637 264.542 302.145 281.26 300.637 286.709C300.637 286.71 329.323 269.63 315.357 217.664Z" fill="#A5FFFF"/>
<path d="M302.617 142.723C302.617 142.723 307.532 187.917 287.864 202.043C289.201 193.903 289.588 185.644 289.017 177.421C289.017 177.421 275.6 211.397 239.512 215.65C239.512 215.65 264.059 223.99 285.726 188.918C285.726 188.918 286.452 205.683 284.69 211.063C284.684 211.062 314.139 195.241 302.617 142.723Z" fill="#A5FFFF" stroke="#A5FFFF"/>
<path d="M142.806 217.664C142.806 217.664 135.784 262.601 154.768 277.562C153.814 269.371 153.814 261.104 154.768 252.914C154.768 252.914 166.584 287.437 202.44 293.251C202.44 293.251 177.529 300.521 157.527 264.542C157.527 264.542 156.016 281.26 157.527 286.709C157.527 286.71 128.84 269.63 142.806 217.664Z" fill="#A5FFFF"/>
<path d="M122.436 145.639C122.436 145.639 92.7091 189.373 100.842 212.481C104.375 203.605 108.743 195.059 113.891 186.948C113.891 186.948 105.606 227.445 132.854 247.835C132.854 247.835 107.938 245.381 110.066 200.098C110.066 200.098 99.9383 216.81 98.3297 223.064C98.3345 223.06 83.1196 193.872 122.436 145.639Z" fill="#A5FFFF"/>
<path d="M166.2 164.156C166.2 164.156 184.387 202.308 222.069 217.255L200.099 190.71C200.099 190.71 231.954 211.752 254.431 201.526C254.431 201.526 235.57 215.685 213.556 200.346L226.668 221.979C226.668 221.979 182.115 211.772 166.2 164.156Z" fill="#A5FFFF"/>
<path d="M29.0147 196.735C29.0147 196.735 21.9929 241.672 40.9776 256.633C40.0243 248.442 40.0243 240.174 40.9776 231.983C40.9776 231.983 52.7941 266.507 88.6491 272.32C88.6491 272.32 63.7393 279.591 43.7345 243.612C43.7345 243.612 42.2242 260.329 43.7345 265.779C43.7345 265.782 15.0501 248.703 29.0147 196.735Z" fill="#A5FFFF"/>
<path d="M267.171 129.074C267.171 129.074 246.434 79.5001 229.379 83.6664C213.184 87.6203 197.107 130.649 197.107 130.649C197.107 130.649 213.326 76.6183 232.916 77.7424C252.506 78.8665 267.171 129.074 267.171 129.074Z" fill="#3C2A34"/>
<path d="M221.469 54.5493L220.65 76.378H156.924L217.817 73.2307L221.469 54.5493Z" fill="#3C2A34"/>
<path d="M242.813 54.5493L243.628 76.378H307.356L246.463 73.2307L242.813 54.5493Z" fill="#3C2A34"/>
<path d="M221.434 83.1263C221.434 83.1263 227.918 99.5642 233.03 98.881C239.503 98.0154 243.955 83.4668 243.955 83.4668C243.955 83.4668 233.827 69.411 221.434 83.1263Z" fill="#E76650"/>
<path d="M231.182 95.2791C231.182 95.2791 230.712 85.6701 226.66 85.6724C228.983 88.4572 230.538 91.7615 231.182 95.2791Z" fill="#FBE4D3"/>
<path d="M233.827 95.2791C233.827 95.2791 234.298 85.6701 238.351 85.6724C236.026 88.4565 234.47 91.761 233.827 95.2791Z" fill="#FBE4D3"/>
<path d="M153.649 79.499H214.542C214.542 79.499 207.195 128.298 184.095 121.844C160.996 115.39 153.649 79.499 153.649 79.499Z" fill="#707173"/>
<path d="M153.649 79.6318H214.542C214.542 79.6318 207.195 115.821 184.095 110.368C160.996 104.915 153.649 79.6318 153.649 79.6318Z" fill="#FAB217"/>
<path d="M168.731 79.6318H205.939C205.939 79.6318 201.864 98.087 187.336 98.4125C172.098 98.7518 168.731 79.6318 168.731 79.6318Z" fill="#3C2A34"/>
<path d="M206.67 86.0462C206.67 86.6435 206.486 87.2275 206.142 87.7241C205.797 88.2208 205.307 88.6079 204.734 88.8365C204.161 89.0651 203.53 89.1249 202.921 89.0084C202.313 88.8919 201.754 88.6042 201.315 88.1818C200.877 87.7594 200.578 87.2213 200.457 86.6354C200.336 86.0495 200.398 85.4423 200.635 84.8904C200.873 84.3385 201.275 83.8668 201.791 83.5349C202.306 83.203 202.913 83.0259 203.533 83.0259C203.945 83.0257 204.353 83.1038 204.734 83.2555C205.115 83.4072 205.461 83.6297 205.752 83.9102C206.043 84.1906 206.274 84.5237 206.432 84.8902C206.589 85.2567 206.671 85.6495 206.67 86.0462Z" fill="#FBE4D3"/>
<path d="M310.63 79.499H249.737C249.737 79.499 257.982 127.912 281.083 121.459C304.184 115.005 310.63 79.499 310.63 79.499Z" fill="#707173"/>
<path d="M310.63 79.6318H249.737C249.737 79.6318 257.084 115.821 280.184 110.368C303.284 104.915 310.63 79.6318 310.63 79.6318Z" fill="#FAB217"/>
<path d="M295.549 79.6318H258.341C258.341 79.6318 262.417 98.087 276.946 98.4125C292.185 98.7518 295.549 79.6318 295.549 79.6318Z" fill="#3C2A34"/>
<path d="M288.32 86.0462C288.32 86.6435 288.504 87.2275 288.849 87.7241C289.194 88.2208 289.684 88.6079 290.257 88.8365C290.83 89.0651 291.461 89.1249 292.069 89.0084C292.678 88.8919 293.237 88.6042 293.675 88.1818C294.114 87.7594 294.413 87.2213 294.534 86.6354C294.655 86.0495 294.593 85.4423 294.355 84.8904C294.118 84.3385 293.716 83.8668 293.2 83.5349C292.684 83.203 292.078 83.0259 291.457 83.0259C291.045 83.0259 290.637 83.104 290.257 83.2558C289.876 83.4076 289.53 83.63 289.239 83.9105C288.948 84.191 288.717 84.5239 288.559 84.8904C288.401 85.2568 288.32 85.6495 288.32 86.0462Z" fill="#FBE4D3"/>
<path d="M435.697 172.87C435.697 172.87 428.356 232.815 369.729 235.547L367.348 142.723C367.348 142.723 390.015 191.066 411.862 147.224C411.862 147.224 435.404 157.337 435.697 172.87Z" fill="white"/>
<path d="M407.647 124.578L411.864 202.651H402.634L399.795 124.578H407.647Z" fill="#3C2A34"/>
<path d="M411.714 144.046C411.714 144.046 385.9 145.061 390.018 164.359C394.135 183.656 408.168 202.144 423.78 192.906C439.391 183.669 443.647 146.787 411.714 144.046Z" fill="white"/>
<path d="M376.77 130.67L348.028 82.7371L376.771 34.8027H434.258L463.001 82.7371L434.258 130.67H376.77Z" fill="#EE3A3D"/>
<path d="M372.093 52.1768C372.094 48.2796 372.49 44.3918 373.277 40.5688L347.993 82.7373L376.737 130.671H434.224L446.44 110.293C437.461 112.104 428.176 111.965 419.26 109.885C410.344 107.806 402.022 103.838 394.9 98.2711C387.778 92.7042 382.035 85.6782 378.089 77.7046C374.142 69.7309 372.093 61.0104 372.089 52.1779L372.093 52.1768Z" fill="#EE3A3D"/>
<path d="M431.668 125.633H379.355L353.176 82.7375L379.355 39.8408H431.668L457.853 82.7375L431.668 125.633ZM381.185 122.559H429.84L454.148 82.7422L429.84 42.92H381.185L356.88 82.7422L381.185 122.559Z" fill="#FFF9EF"/>
<path d="M392.395 81.1382C392.395 83.8804 391.7 86.0366 390.309 87.6069C388.926 89.1772 387 89.9624 384.532 89.9624C382.008 89.9624 380.059 89.1929 378.684 87.6538C377.317 86.1069 376.633 83.9272 376.633 81.1147C376.633 78.3257 377.321 76.1655 378.696 74.6343C380.071 73.0952 382.024 72.3257 384.555 72.3257C387.016 72.3257 388.938 73.1069 390.321 74.6694C391.704 76.2319 392.395 78.3882 392.395 81.1382ZM378.743 81.1382C378.743 83.4585 379.235 85.2202 380.219 86.4233C381.211 87.6187 382.649 88.2163 384.532 88.2163C386.43 88.2163 387.864 87.6187 388.833 86.4233C389.801 85.228 390.286 83.4663 390.286 81.1382C390.286 78.8335 389.801 77.0874 388.833 75.8999C387.872 74.7046 386.446 74.1069 384.555 74.1069C382.657 74.1069 381.211 74.7085 380.219 75.9116C379.235 77.1069 378.743 78.8491 378.743 81.1382ZM411.098 81.1382C411.098 83.8804 410.403 86.0366 409.012 87.6069C407.629 89.1772 405.704 89.9624 403.235 89.9624C400.711 89.9624 398.762 89.1929 397.387 87.6538C396.02 86.1069 395.336 83.9272 395.336 81.1147C395.336 78.3257 396.024 76.1655 397.399 74.6343C398.774 73.0952 400.727 72.3257 403.258 72.3257C405.719 72.3257 407.641 73.1069 409.024 74.6694C410.407 76.2319 411.098 78.3882 411.098 81.1382ZM397.446 81.1382C397.446 83.4585 397.938 85.2202 398.922 86.4233C399.915 87.6187 401.352 88.2163 403.235 88.2163C405.133 88.2163 406.567 87.6187 407.536 86.4233C408.504 85.228 408.989 83.4663 408.989 81.1382C408.989 78.8335 408.504 77.0874 407.536 75.8999C406.575 74.7046 405.149 74.1069 403.258 74.1069C401.36 74.1069 399.915 74.7085 398.922 75.9116C397.938 77.1069 397.446 78.8491 397.446 81.1382ZM425.793 77.5874C425.793 79.3218 425.2 80.6577 424.012 81.5952C422.833 82.5249 421.141 82.9897 418.938 82.9897H416.922V89.728H414.93V72.5952H419.372C423.653 72.5952 425.793 74.2593 425.793 77.5874ZM416.922 81.2788H418.715C420.481 81.2788 421.758 80.9937 422.547 80.4233C423.336 79.853 423.731 78.939 423.731 77.6812C423.731 76.5483 423.36 75.7046 422.618 75.1499C421.875 74.5952 420.719 74.3179 419.149 74.3179H416.922V81.2788ZM439.059 85.1694C439.059 86.6772 438.512 87.853 437.418 88.6968C436.325 89.5405 434.84 89.9624 432.965 89.9624C430.934 89.9624 429.372 89.7007 428.278 89.1772V87.2554C428.981 87.5522 429.747 87.7866 430.575 87.9585C431.403 88.1304 432.223 88.2163 433.036 88.2163C434.364 88.2163 435.364 87.9663 436.036 87.4663C436.708 86.9585 437.043 86.2554 437.043 85.3569C437.043 84.7632 436.922 84.2788 436.68 83.9038C436.446 83.521 436.047 83.1694 435.485 82.8491C434.93 82.5288 434.083 82.1655 432.942 81.7593C431.348 81.189 430.208 80.5132 429.52 79.7319C428.84 78.9507 428.5 77.9312 428.5 76.6733C428.5 75.353 428.997 74.3022 429.989 73.521C430.981 72.7397 432.293 72.3491 433.926 72.3491C435.629 72.3491 437.196 72.6616 438.625 73.2866L438.004 75.021C436.59 74.4272 435.215 74.1304 433.879 74.1304C432.825 74.1304 432 74.3569 431.407 74.8101C430.813 75.2632 430.516 75.8921 430.516 76.6968C430.516 77.2905 430.625 77.7788 430.844 78.1616C431.063 78.5366 431.43 78.8843 431.946 79.2046C432.469 79.5171 433.266 79.8647 434.336 80.2476C436.133 80.8882 437.368 81.5757 438.04 82.3101C438.719 83.0444 439.059 83.9976 439.059 85.1694Z" fill="white"/>
<path d="M105.851 79.6318C105.851 79.6318 143.12 114.756 226.827 108.267C226.827 108.267 147.943 121.542 105.851 79.6318Z" fill="#767676"/>
<path d="M92.3496 98.0156C92.3496 98.0156 144.025 130.649 226.182 110.595C226.181 110.598 139.69 134.366 92.3496 98.0156Z" fill="#767676"/>
<path d="M105.851 124.313C105.851 124.313 154.504 148.534 226.859 112.81C226.859 112.81 157.809 154.25 105.851 124.313Z" fill="#767676"/>
<path d="M358.432 79.6318C358.432 79.6318 321.16 114.756 237.454 108.267C237.454 108.267 316.338 121.542 358.432 79.6318Z" fill="#767676"/>
<path d="M371.931 98.0156C371.931 98.0156 320.257 130.649 238.1 110.595C238.1 110.598 324.59 134.366 371.931 98.0156Z" fill="#767676"/>
<path d="M358.431 124.313C358.431 124.313 309.774 148.534 237.421 112.81C237.421 112.81 306.471 154.25 358.431 124.313Z" fill="#767676"/>
<path d="M348.33 159.526C348.33 159.526 375.899 196.414 366.104 218.074C363.068 210.367 359.145 203.012 354.41 196.146C354.41 196.146 360.283 232.053 331.137 252.993C331.137 252.993 356.746 248.504 357.476 207.702C357.476 207.702 366.748 221.91 367.991 227.421C367.991 227.422 385.406 199.614 348.33 159.526Z" fill="#A5FFFF"/>
</g>
<defs>
<clipPath id="clip0">
<rect width="466" height="336" fill="white"/>
</clipPath>
</defs>
</svg>
