<svg xmlns="http://www.w3.org/2000/svg" width="16" height="16" viewBox="0 0 16 16"><defs><style>.a{fill:#206dff;}</style></defs><ellipse class="a" cx="5.177" cy="5.177" rx="5.177" ry="5.177" transform="translate(2.823 2.823)"/><path class="a" d="M235.019,2.118a.353.353,0,0,0,.353-.353V.353a.353.353,0,1,0-.706,0V1.765A.353.353,0,0,0,235.019,2.118Z" transform="translate(-227.019)"/><path class="a" d="M235.019,426.667a.353.353,0,0,0-.353.353v1.412a.353.353,0,1,0,.706,0V427.02A.353.353,0,0,0,235.019,426.667Z" transform="translate(-227.019 -412.785)"/><path class="a" d="M428.431,234.667h-1.412a.353.353,0,0,0,0,.706h1.412a.353.353,0,1,0,0-.706Z" transform="translate(-412.784 -227.02)"/><path class="a" d="M2.118,235.019a.353.353,0,0,0-.353-.353H.353a.353.353,0,1,0,0,.706H1.765A.353.353,0,0,0,2.118,235.019Z" transform="translate(0 -227.019)"/><path class="a" d="M118.14,33.255a.353.353,0,0,0,.306.176.348.348,0,0,0,.176-.047.353.353,0,0,0,.129-.482l-.706-1.223a.353.353,0,0,0-.611.353Z" transform="translate(-113.566 -30.463)"/><path class="a" d="M331.359,401.173a.353.353,0,0,0-.611.353l.706,1.223a.353.353,0,0,0,.306.176.348.348,0,0,0,.176-.047.353.353,0,0,0,.129-.482Z" transform="translate(-319.933 -387.966)"/><path class="a" d="M401.289,118.536a.348.348,0,0,0,.176-.047l1.223-.706a.353.353,0,0,0-.327-.625l-.026.015-1.222.706a.353.353,0,0,0,.176.659Z" transform="translate(-387.905 -113.304)"/><path class="a" d="M32.843,330.5l-1.223.706a.353.353,0,0,0,.176.659.348.348,0,0,0,.176-.047l1.223-.706a.353.353,0,1,0-.327-.625l-.026.015Z" transform="translate(-30.404 -319.69)"/><path class="a" d="M31.224,117.762l1.223.706a.348.348,0,0,0,.176.047.353.353,0,0,0,.176-.659l-1.223-.706a.353.353,0,0,0-.379.6l.026.015Z" transform="translate(-30.007 -113.283)"/><path class="a" d="M402.314,331.191l-1.223-.706a.353.353,0,0,0-.379.6l.026.015,1.223.706a.347.347,0,0,0,.176.047.353.353,0,0,0,.176-.659h0Z" transform="translate(-387.531 -319.67)"/><path class="a" d="M330.857,33.386a.348.348,0,0,0,.176.047.353.353,0,0,0,.306-.176l.706-1.223a.353.353,0,0,0-.611-.353l-.706,1.223A.353.353,0,0,0,330.857,33.386Z" transform="translate(-319.913 -30.465)"/><path class="a" d="M118.568,400.985a.353.353,0,0,0-.482.129l-.706,1.223a.353.353,0,0,0,.129.482.349.349,0,0,0,.176.047.353.353,0,0,0,.306-.176l.706-1.223a.353.353,0,0,0-.13-.482Z" transform="translate(-113.512 -387.906)"/></svg>