<svg width="208" height="208" viewBox="0 0 208 208" fill="none" xmlns="http://www.w3.org/2000/svg">
<g filter="url(#filter0_d)">
<g clip-path="url(#clip0)">
<rect x="4" width="200" height="200" rx="20" fill="white"/>
<path d="M19.959 29.1182L21.6484 25.8613H22.918L20.54 30.2314V33H19.3682V30.2705L17 25.8613H18.2695L19.959 29.1182ZM28.5283 30.29C28.5283 31.1722 28.3021 31.8607 27.8496 32.3555C27.3971 32.8503 26.7673 33.0977 25.96 33.0977C25.4554 33.0977 25.0094 32.9837 24.6221 32.7559C24.2347 32.528 23.9368 32.2008 23.7285 31.7744C23.5202 31.348 23.416 30.8532 23.416 30.29C23.416 29.4144 23.6406 28.7308 24.0898 28.2393C24.5391 27.7477 25.1722 27.502 25.9893 27.502C26.7705 27.502 27.389 27.7542 27.8447 28.2588C28.3005 28.7601 28.5283 29.4372 28.5283 30.29ZM24.5977 30.29C24.5977 31.5368 25.0583 32.1602 25.9795 32.1602C26.891 32.1602 27.3467 31.5368 27.3467 30.29C27.3467 29.0563 26.8877 28.4395 25.9697 28.4395C25.488 28.4395 25.138 28.599 24.9199 28.918C24.7051 29.237 24.5977 29.6943 24.5977 30.29ZM33.6602 33L33.499 32.292H33.4404C33.2809 32.5426 33.0531 32.7396 32.7568 32.8828C32.4639 33.026 32.1286 33.0977 31.751 33.0977C31.0967 33.0977 30.6084 32.9349 30.2861 32.6094C29.9639 32.2839 29.8027 31.7907 29.8027 31.1299V27.5996H30.96V30.9297C30.96 31.3431 31.0446 31.654 31.2139 31.8623C31.3831 32.0674 31.6484 32.1699 32.0098 32.1699C32.4915 32.1699 32.8447 32.0267 33.0693 31.7402C33.2972 31.4505 33.4111 30.9671 33.4111 30.29V27.5996H34.5635V33H33.6602ZM37.1172 25.8613L37.1904 25.9688C37.0179 26.6491 36.7314 27.4287 36.3311 28.3076H35.501C35.7256 27.3669 35.8883 26.5514 35.9893 25.8613H37.1172ZM40.8721 27.502C41.1032 27.502 41.2936 27.5182 41.4434 27.5508L41.3311 28.6201C41.1683 28.5811 40.999 28.5615 40.8232 28.5615C40.3643 28.5615 39.9915 28.7113 39.7051 29.0107C39.4219 29.3102 39.2803 29.6992 39.2803 30.1777V33H38.1328V27.5996H39.0312L39.1826 28.5518H39.2412C39.4202 28.2295 39.653 27.974 39.9395 27.7852C40.2292 27.5964 40.54 27.502 40.8721 27.502ZM44.8076 33.0977C43.9678 33.0977 43.3102 32.8535 42.835 32.3652C42.363 31.8737 42.127 31.1982 42.127 30.3389C42.127 29.4567 42.3467 28.7633 42.7861 28.2588C43.2256 27.7542 43.8294 27.502 44.5977 27.502C45.3105 27.502 45.8737 27.7184 46.2871 28.1514C46.7005 28.5843 46.9072 29.18 46.9072 29.9385V30.5586H43.3086C43.3249 31.0827 43.4665 31.4863 43.7334 31.7695C44.0003 32.0495 44.3763 32.1895 44.8613 32.1895C45.1803 32.1895 45.4766 32.1602 45.75 32.1016C46.0267 32.0397 46.3229 31.9388 46.6387 31.7988V32.7314C46.3587 32.8649 46.0755 32.9593 45.7891 33.0146C45.5026 33.07 45.1755 33.0977 44.8076 33.0977ZM44.5977 28.3711C44.2331 28.3711 43.9401 28.4867 43.7188 28.7178C43.5007 28.9489 43.3704 29.2858 43.3281 29.7285H45.7793C45.7728 29.2826 45.6654 28.9456 45.457 28.7178C45.2487 28.4867 44.9622 28.3711 44.5977 28.3711ZM54.1875 33L53.958 32.248H53.9189C53.6585 32.5768 53.3965 32.8014 53.1328 32.9219C52.8691 33.0391 52.5306 33.0977 52.1172 33.0977C51.5866 33.0977 51.1715 32.9544 50.8721 32.668C50.5758 32.3815 50.4277 31.9762 50.4277 31.4521C50.4277 30.8955 50.6344 30.4756 51.0479 30.1924C51.4613 29.9092 52.0911 29.7546 52.9375 29.7285L53.8701 29.6992V29.4111C53.8701 29.0661 53.7887 28.8089 53.626 28.6396C53.4665 28.4671 53.2174 28.3809 52.8789 28.3809C52.6022 28.3809 52.3369 28.4215 52.083 28.5029C51.8291 28.5843 51.585 28.6803 51.3506 28.791L50.9795 27.9707C51.2725 27.8177 51.5931 27.7021 51.9414 27.624C52.2897 27.5426 52.6185 27.502 52.9277 27.502C53.6146 27.502 54.1322 27.6517 54.4805 27.9512C54.832 28.2507 55.0078 28.721 55.0078 29.3623V33H54.1875ZM52.4785 32.2188C52.8952 32.2188 53.2288 32.1032 53.4795 31.8721C53.7334 31.6377 53.8604 31.3105 53.8604 30.8906V30.4219L53.167 30.4512C52.6266 30.4707 52.2327 30.5618 51.9854 30.7246C51.7412 30.8841 51.6191 31.1299 51.6191 31.4619C51.6191 31.7028 51.6908 31.89 51.834 32.0234C51.9772 32.1536 52.1921 32.2188 52.4785 32.2188ZM57.7568 33H56.6094V25.4023H57.7568V33ZM63.9531 33H62.8008V29.6699C62.8008 29.2565 62.7227 28.9489 62.5664 28.7471C62.4102 28.542 62.166 28.4395 61.834 28.4395C61.3913 28.4395 61.0658 28.5843 60.8574 28.874C60.6523 29.1605 60.5498 29.639 60.5498 30.3096V33H59.4023V27.5996H60.3008L60.4619 28.3076H60.5205C60.6702 28.0505 60.8867 27.8519 61.1699 27.7119C61.4564 27.5719 61.7705 27.502 62.1123 27.502C62.9424 27.502 63.4925 27.7852 63.7627 28.3516H63.8408C64.0003 28.0846 64.2249 27.8763 64.5146 27.7266C64.8044 27.5768 65.1364 27.502 65.5107 27.502C66.1553 27.502 66.624 27.6647 66.917 27.9902C67.2132 28.3158 67.3613 28.8122 67.3613 29.4795V33H66.2139V29.6699C66.2139 29.2565 66.1341 28.9489 65.9746 28.7471C65.8184 28.542 65.5742 28.4395 65.2422 28.4395C64.7962 28.4395 64.4691 28.5794 64.2607 28.8594C64.0557 29.1361 63.9531 29.5625 63.9531 30.1387V33ZM73.7529 30.29C73.7529 31.1722 73.5267 31.8607 73.0742 32.3555C72.6217 32.8503 71.9919 33.0977 71.1846 33.0977C70.68 33.0977 70.234 32.9837 69.8467 32.7559C69.4593 32.528 69.1615 32.2008 68.9531 31.7744C68.7448 31.348 68.6406 30.8532 68.6406 30.29C68.6406 29.4144 68.8652 28.7308 69.3145 28.2393C69.7637 27.7477 70.3968 27.502 71.2139 27.502C71.9951 27.502 72.6136 27.7542 73.0693 28.2588C73.5251 28.7601 73.7529 29.4372 73.7529 30.29ZM69.8223 30.29C69.8223 31.5368 70.2829 32.1602 71.2041 32.1602C72.1156 32.1602 72.5713 31.5368 72.5713 30.29C72.5713 29.0563 72.1123 28.4395 71.1943 28.4395C70.7126 28.4395 70.3626 28.599 70.1445 28.918C69.9297 29.237 69.8223 29.6943 69.8223 30.29ZM78.7041 31.4619C78.7041 31.9893 78.512 32.3945 78.1279 32.6777C77.7438 32.9577 77.1937 33.0977 76.4775 33.0977C75.7581 33.0977 75.1803 32.9886 74.7441 32.7705V31.7793C75.3789 32.0723 75.9697 32.2188 76.5166 32.2188C77.223 32.2188 77.5762 32.0055 77.5762 31.5791C77.5762 31.4424 77.5371 31.3285 77.459 31.2373C77.3809 31.1462 77.2523 31.0518 77.0732 30.9541C76.8942 30.8564 76.6452 30.7458 76.3262 30.6221C75.7044 30.3812 75.2829 30.1403 75.0615 29.8994C74.8434 29.6585 74.7344 29.346 74.7344 28.9619C74.7344 28.4997 74.9199 28.1416 75.291 27.8877C75.6654 27.6305 76.1732 27.502 76.8145 27.502C77.4492 27.502 78.0498 27.6305 78.6162 27.8877L78.2451 28.752C77.6624 28.5111 77.1725 28.3906 76.7754 28.3906C76.1699 28.3906 75.8672 28.5632 75.8672 28.9082C75.8672 29.0775 75.9453 29.2207 76.1016 29.3379C76.2611 29.4551 76.6061 29.6162 77.1367 29.8213C77.5827 29.9938 77.9066 30.1517 78.1084 30.2949C78.3102 30.4382 78.46 30.6042 78.5576 30.793C78.6553 30.9785 78.7041 31.2015 78.7041 31.4619ZM81.9609 32.1699C82.2409 32.1699 82.5208 32.126 82.8008 32.0381V32.9023C82.6738 32.9577 82.5094 33.0033 82.3076 33.0391C82.109 33.0781 81.9023 33.0977 81.6875 33.0977C80.6003 33.0977 80.0566 32.5247 80.0566 31.3789V28.4688H79.3193V27.9609L80.1104 27.541L80.501 26.3984H81.209V27.5996H82.7471V28.4688H81.209V31.3594C81.209 31.6361 81.2773 31.8411 81.4141 31.9746C81.554 32.1048 81.7363 32.1699 81.9609 32.1699ZM88.3037 33.0977C87.6299 33.0977 87.1042 32.8535 86.7266 32.3652C86.349 31.877 86.1602 31.1917 86.1602 30.3096C86.1602 29.4242 86.3506 28.7357 86.7314 28.2441C87.1156 27.7493 87.6462 27.502 88.3232 27.502C89.0329 27.502 89.5732 27.764 89.9443 28.2881H90.0029C89.9476 27.9007 89.9199 27.5947 89.9199 27.3701V25.4023H91.0723V33H90.1738L89.9736 32.292H89.9199C89.5521 32.8291 89.0133 33.0977 88.3037 33.0977ZM88.6113 32.1699C89.0833 32.1699 89.4268 32.0381 89.6416 31.7744C89.8564 31.5075 89.9671 31.0762 89.9736 30.4805V30.3193C89.9736 29.639 89.863 29.1556 89.6416 28.8691C89.4202 28.5827 89.0736 28.4395 88.6016 28.4395C88.1979 28.4395 87.887 28.6038 87.6689 28.9326C87.4508 29.2581 87.3418 29.7236 87.3418 30.3291C87.3418 30.9281 87.4476 31.3854 87.6592 31.7012C87.8708 32.0137 88.1882 32.1699 88.6113 32.1699ZM97.5029 30.29C97.5029 31.1722 97.2767 31.8607 96.8242 32.3555C96.3717 32.8503 95.7419 33.0977 94.9346 33.0977C94.43 33.0977 93.984 32.9837 93.5967 32.7559C93.2093 32.528 92.9115 32.2008 92.7031 31.7744C92.4948 31.348 92.3906 30.8532 92.3906 30.29C92.3906 29.4144 92.6152 28.7308 93.0645 28.2393C93.5137 27.7477 94.1468 27.502 94.9639 27.502C95.7451 27.502 96.3636 27.7542 96.8193 28.2588C97.2751 28.7601 97.5029 29.4372 97.5029 30.29ZM93.5723 30.29C93.5723 31.5368 94.0329 32.1602 94.9541 32.1602C95.8656 32.1602 96.3213 31.5368 96.3213 30.29C96.3213 29.0563 95.8623 28.4395 94.9443 28.4395C94.4626 28.4395 94.1126 28.599 93.8945 28.918C93.6797 29.237 93.5723 29.6943 93.5723 30.29ZM103.577 33H102.425V29.6797C102.425 29.263 102.34 28.9521 102.171 28.7471C102.005 28.542 101.74 28.4395 101.375 28.4395C100.89 28.4395 100.535 28.5827 100.311 28.8691C100.086 29.1556 99.9736 29.6357 99.9736 30.3096V33H98.8262V27.5996H99.7246L99.8857 28.3076H99.9443C100.107 28.0505 100.338 27.8519 100.638 27.7119C100.937 27.5719 101.269 27.502 101.634 27.502C102.929 27.502 103.577 28.1611 103.577 29.4795V33ZM107.532 33.0977C106.692 33.0977 106.035 32.8535 105.56 32.3652C105.088 31.8737 104.852 31.1982 104.852 30.3389C104.852 29.4567 105.071 28.7633 105.511 28.2588C105.95 27.7542 106.554 27.502 107.322 27.502C108.035 27.502 108.598 27.7184 109.012 28.1514C109.425 28.5843 109.632 29.18 109.632 29.9385V30.5586H106.033C106.049 31.0827 106.191 31.4863 106.458 31.7695C106.725 32.0495 107.101 32.1895 107.586 32.1895C107.905 32.1895 108.201 32.1602 108.475 32.1016C108.751 32.0397 109.048 31.9388 109.363 31.7988V32.7314C109.083 32.8649 108.8 32.9593 108.514 33.0146C108.227 33.07 107.9 33.0977 107.532 33.0977ZM107.322 28.3711C106.958 28.3711 106.665 28.4867 106.443 28.7178C106.225 28.9489 106.095 29.2858 106.053 29.7285H108.504C108.497 29.2826 108.39 28.9456 108.182 28.7178C107.973 28.4867 107.687 28.3711 107.322 28.3711ZM111.927 30.832H111.077L110.823 25.8613H112.176L111.927 30.832ZM110.765 32.3896C110.765 32.1488 110.828 31.9665 110.955 31.8428C111.082 31.7158 111.263 31.6523 111.497 31.6523C111.728 31.6523 111.906 31.7174 112.029 31.8477C112.153 31.9779 112.215 32.1585 112.215 32.3896C112.215 32.6208 112.151 32.8047 112.024 32.9414C111.901 33.0749 111.725 33.1416 111.497 33.1416C111.266 33.1416 111.085 33.0765 110.955 32.9463C110.828 32.8161 110.765 32.6305 110.765 32.3896ZM115.516 34.9922C115.197 34.9922 114.93 34.9515 114.715 34.8701V33.8887C114.988 33.957 115.226 33.9912 115.428 33.9912C116.066 33.9912 116.385 33.5876 116.385 32.7803V25.8613H117.557V32.7412C117.557 33.4704 117.382 34.027 117.034 34.4111C116.689 34.7985 116.183 34.9922 115.516 34.9922ZM123.094 33L122.933 32.292H122.874C122.715 32.5426 122.487 32.7396 122.19 32.8828C121.897 33.026 121.562 33.0977 121.185 33.0977C120.53 33.0977 120.042 32.9349 119.72 32.6094C119.397 32.2839 119.236 31.7907 119.236 31.1299V27.5996H120.394V30.9297C120.394 31.3431 120.478 31.654 120.647 31.8623C120.817 32.0674 121.082 32.1699 121.443 32.1699C121.925 32.1699 122.278 32.0267 122.503 31.7402C122.731 31.4505 122.845 30.9671 122.845 30.29V27.5996H123.997V33H123.094ZM129.261 31.4619C129.261 31.9893 129.069 32.3945 128.685 32.6777C128.3 32.9577 127.75 33.0977 127.034 33.0977C126.315 33.0977 125.737 32.9886 125.301 32.7705V31.7793C125.936 32.0723 126.526 32.2188 127.073 32.2188C127.78 32.2188 128.133 32.0055 128.133 31.5791C128.133 31.4424 128.094 31.3285 128.016 31.2373C127.938 31.1462 127.809 31.0518 127.63 30.9541C127.451 30.8564 127.202 30.7458 126.883 30.6221C126.261 30.3812 125.84 30.1403 125.618 29.8994C125.4 29.6585 125.291 29.346 125.291 28.9619C125.291 28.4997 125.477 28.1416 125.848 27.8877C126.222 27.6305 126.73 27.502 127.371 27.502C128.006 27.502 128.606 27.6305 129.173 27.8877L128.802 28.752C128.219 28.5111 127.729 28.3906 127.332 28.3906C126.727 28.3906 126.424 28.5632 126.424 28.9082C126.424 29.0775 126.502 29.2207 126.658 29.3379C126.818 29.4551 127.163 29.6162 127.693 29.8213C128.139 29.9938 128.463 30.1517 128.665 30.2949C128.867 30.4382 129.017 30.6042 129.114 30.793C129.212 30.9785 129.261 31.2015 129.261 31.4619ZM132.518 32.1699C132.798 32.1699 133.077 32.126 133.357 32.0381V32.9023C133.23 32.9577 133.066 33.0033 132.864 33.0391C132.666 33.0781 132.459 33.0977 132.244 33.0977C131.157 33.0977 130.613 32.5247 130.613 31.3789V28.4688H129.876V27.9609L130.667 27.541L131.058 26.3984H131.766V27.5996H133.304V28.4688H131.766V31.3594C131.766 31.6361 131.834 31.8411 131.971 31.9746C132.111 32.1048 132.293 32.1699 132.518 32.1699ZM138.86 33.0977C138.187 33.0977 137.661 32.8535 137.283 32.3652C136.906 31.877 136.717 31.1917 136.717 30.3096C136.717 29.4242 136.907 28.7357 137.288 28.2441C137.672 27.7493 138.203 27.502 138.88 27.502C139.59 27.502 140.13 27.764 140.501 28.2881H140.56C140.504 27.9007 140.477 27.5947 140.477 27.3701V25.4023H141.629V33H140.73L140.53 32.292H140.477C140.109 32.8291 139.57 33.0977 138.86 33.0977ZM139.168 32.1699C139.64 32.1699 139.983 32.0381 140.198 31.7744C140.413 31.5075 140.524 31.0762 140.53 30.4805V30.3193C140.53 29.639 140.42 29.1556 140.198 28.8691C139.977 28.5827 139.63 28.4395 139.158 28.4395C138.755 28.4395 138.444 28.6038 138.226 28.9326C138.007 29.2581 137.898 29.7236 137.898 30.3291C137.898 30.9281 138.004 31.3854 138.216 31.7012C138.427 32.0137 138.745 32.1699 139.168 32.1699ZM145.628 33.0977C144.788 33.0977 144.131 32.8535 143.655 32.3652C143.183 31.8737 142.947 31.1982 142.947 30.3389C142.947 29.4567 143.167 28.7633 143.606 28.2588C144.046 27.7542 144.65 27.502 145.418 27.502C146.131 27.502 146.694 27.7184 147.107 28.1514C147.521 28.5843 147.728 29.18 147.728 29.9385V30.5586H144.129C144.145 31.0827 144.287 31.4863 144.554 31.7695C144.821 32.0495 145.197 32.1895 145.682 32.1895C146.001 32.1895 146.297 32.1602 146.57 32.1016C146.847 32.0397 147.143 31.9388 147.459 31.7988V32.7314C147.179 32.8649 146.896 32.9593 146.609 33.0146C146.323 33.07 145.996 33.0977 145.628 33.0977ZM145.418 28.3711C145.053 28.3711 144.76 28.4867 144.539 28.7178C144.321 28.9489 144.191 29.2858 144.148 29.7285H146.6C146.593 29.2826 146.486 28.9456 146.277 28.7178C146.069 28.4867 145.783 28.3711 145.418 28.3711ZM151.771 33.0977C151.087 33.0977 150.556 32.8519 150.179 32.3604H150.11C150.156 32.8161 150.179 33.0928 150.179 33.1904V35.4023H149.031V27.5996H149.959C149.985 27.7005 150.039 27.9414 150.12 28.3223H150.179C150.537 27.7754 151.074 27.502 151.79 27.502C152.464 27.502 152.988 27.7461 153.362 28.2344C153.74 28.7227 153.929 29.4079 153.929 30.29C153.929 31.1722 153.737 31.8607 153.353 32.3555C152.972 32.8503 152.444 33.0977 151.771 33.0977ZM151.492 28.4395C151.036 28.4395 150.703 28.5729 150.491 28.8398C150.283 29.1068 150.179 29.5332 150.179 30.1191V30.29C150.179 30.9476 150.283 31.4245 150.491 31.7207C150.7 32.0137 151.04 32.1602 151.512 32.1602C151.909 32.1602 152.215 31.9974 152.43 31.6719C152.645 31.3464 152.752 30.8825 152.752 30.2803C152.752 29.6748 152.645 29.2174 152.43 28.9082C152.218 28.5957 151.906 28.4395 151.492 28.4395ZM160.052 30.29C160.052 31.1722 159.826 31.8607 159.373 32.3555C158.921 32.8503 158.291 33.0977 157.483 33.0977C156.979 33.0977 156.533 32.9837 156.146 32.7559C155.758 32.528 155.46 32.2008 155.252 31.7744C155.044 31.348 154.939 30.8532 154.939 30.29C154.939 29.4144 155.164 28.7308 155.613 28.2393C156.062 27.7477 156.696 27.502 157.513 27.502C158.294 27.502 158.912 27.7542 159.368 28.2588C159.824 28.7601 160.052 29.4372 160.052 30.29ZM156.121 30.29C156.121 31.5368 156.582 32.1602 157.503 32.1602C158.414 32.1602 158.87 31.5368 158.87 30.29C158.87 29.0563 158.411 28.4395 157.493 28.4395C157.011 28.4395 156.661 28.599 156.443 28.918C156.229 29.237 156.121 29.6943 156.121 30.29ZM165.003 31.4619C165.003 31.9893 164.811 32.3945 164.427 32.6777C164.043 32.9577 163.493 33.0977 162.776 33.0977C162.057 33.0977 161.479 32.9886 161.043 32.7705V31.7793C161.678 32.0723 162.269 32.2188 162.815 32.2188C163.522 32.2188 163.875 32.0055 163.875 31.5791C163.875 31.4424 163.836 31.3285 163.758 31.2373C163.68 31.1462 163.551 31.0518 163.372 30.9541C163.193 30.8564 162.944 30.7458 162.625 30.6221C162.003 30.3812 161.582 30.1403 161.36 29.8994C161.142 29.6585 161.033 29.346 161.033 28.9619C161.033 28.4997 161.219 28.1416 161.59 27.8877C161.964 27.6305 162.472 27.502 163.113 27.502C163.748 27.502 164.349 27.6305 164.915 27.8877L164.544 28.752C163.961 28.5111 163.471 28.3906 163.074 28.3906C162.469 28.3906 162.166 28.5632 162.166 28.9082C162.166 29.0775 162.244 29.2207 162.4 29.3379C162.56 29.4551 162.905 29.6162 163.436 29.8213C163.882 29.9938 164.205 30.1517 164.407 30.2949C164.609 30.4382 164.759 30.6042 164.856 30.793C164.954 30.9785 165.003 31.2015 165.003 31.4619ZM167.396 33H166.248V27.5996H167.396V33ZM166.18 26.1689C166.18 25.9639 166.235 25.806 166.346 25.6953C166.46 25.5846 166.621 25.5293 166.829 25.5293C167.031 25.5293 167.187 25.5846 167.298 25.6953C167.412 25.806 167.469 25.9639 167.469 26.1689C167.469 26.3643 167.412 26.5189 167.298 26.6328C167.187 26.7435 167.031 26.7988 166.829 26.7988C166.621 26.7988 166.46 26.7435 166.346 26.6328C166.235 26.5189 166.18 26.3643 166.18 26.1689ZM171.053 32.1699C171.333 32.1699 171.613 32.126 171.893 32.0381V32.9023C171.766 32.9577 171.601 33.0033 171.399 33.0391C171.201 33.0781 170.994 33.0977 170.779 33.0977C169.692 33.0977 169.148 32.5247 169.148 31.3789V28.4688H168.411V27.9609L169.202 27.541L169.593 26.3984H170.301V27.5996H171.839V28.4688H170.301V31.3594C170.301 31.6361 170.369 31.8411 170.506 31.9746C170.646 32.1048 170.828 32.1699 171.053 32.1699ZM179.734 33H175.696V25.8613H179.734V26.8477H176.863V28.791H179.554V29.7676H176.863V32.0088H179.734V33ZM183.748 33H182.581V26.8623H180.481V25.8613H185.848V26.8623H183.748V33ZM192.576 33H191.404V29.7822H188.113V33H186.946V25.8613H188.113V28.7812H191.404V25.8613H192.576V33Z" fill="#333333"/>
<path d="M31.7266 65H30.793V60.0898H29.1133V59.2891H33.4062V60.0898H31.7266V65ZM38.0195 62.832C38.0195 63.5378 37.8385 64.0885 37.4766 64.4844C37.1146 64.8802 36.6107 65.0781 35.9648 65.0781C35.5612 65.0781 35.2044 64.987 34.8945 64.8047C34.5846 64.6224 34.3464 64.3607 34.1797 64.0195C34.013 63.6784 33.9297 63.2826 33.9297 62.832C33.9297 62.1315 34.1094 61.5846 34.4688 61.1914C34.8281 60.7982 35.3346 60.6016 35.9883 60.6016C36.6133 60.6016 37.1081 60.8034 37.4727 61.207C37.8372 61.6081 38.0195 62.1497 38.0195 62.832ZM34.875 62.832C34.875 63.8294 35.2435 64.3281 35.9805 64.3281C36.7096 64.3281 37.0742 63.8294 37.0742 62.832C37.0742 61.8451 36.707 61.3516 35.9727 61.3516C35.5872 61.3516 35.3073 61.4792 35.1328 61.7344C34.9609 61.9896 34.875 62.3555 34.875 62.832ZM40.6875 64.3359C40.9115 64.3359 41.1354 64.3008 41.3594 64.2305V64.9219C41.2578 64.9661 41.1263 65.0026 40.9648 65.0312C40.806 65.0625 40.6406 65.0781 40.4688 65.0781C39.599 65.0781 39.1641 64.6198 39.1641 63.7031V61.375H38.5742V60.9688L39.207 60.6328L39.5195 59.7188H40.0859V60.6797H41.3164V61.375H40.0859V63.6875C40.0859 63.9089 40.1406 64.0729 40.25 64.1797C40.362 64.2839 40.5078 64.3359 40.6875 64.3359ZM44.9297 65L44.7461 64.3984H44.7148C44.5065 64.6615 44.2969 64.8411 44.0859 64.9375C43.875 65.0312 43.6042 65.0781 43.2734 65.0781C42.849 65.0781 42.5169 64.9635 42.2773 64.7344C42.0404 64.5052 41.9219 64.181 41.9219 63.7617C41.9219 63.3164 42.0872 62.9805 42.418 62.7539C42.7487 62.5273 43.2526 62.4036 43.9297 62.3828L44.6758 62.3594V62.1289C44.6758 61.8529 44.6107 61.6471 44.4805 61.5117C44.3529 61.3737 44.1536 61.3047 43.8828 61.3047C43.6615 61.3047 43.4492 61.3372 43.2461 61.4023C43.043 61.4674 42.8477 61.5443 42.6602 61.6328L42.3633 60.9766C42.5977 60.8542 42.8542 60.7617 43.1328 60.6992C43.4115 60.6341 43.6745 60.6016 43.9219 60.6016C44.4714 60.6016 44.8854 60.7214 45.1641 60.9609C45.4453 61.2005 45.5859 61.5768 45.5859 62.0898V65H44.9297ZM43.5625 64.375C43.8958 64.375 44.1628 64.2826 44.3633 64.0977C44.5664 63.9102 44.668 63.6484 44.668 63.3125V62.9375L44.1133 62.9609C43.681 62.9766 43.3659 63.0495 43.168 63.1797C42.9727 63.3073 42.875 63.5039 42.875 63.7695C42.875 63.9622 42.9323 64.112 43.0469 64.2188C43.1615 64.3229 43.3333 64.375 43.5625 64.375ZM47.7852 65H46.8672V58.9219H47.7852V65ZM52.9219 65.0781C52.2682 65.0781 51.7708 64.888 51.4297 64.5078C51.0911 64.125 50.9219 63.5768 50.9219 62.8633C50.9219 62.1367 51.099 61.5781 51.4531 61.1875C51.8099 60.7969 52.3242 60.6016 52.9961 60.6016C53.4518 60.6016 53.862 60.6862 54.2266 60.8555L53.9492 61.5938C53.5612 61.4427 53.2409 61.3672 52.9883 61.3672C52.2409 61.3672 51.8672 61.8633 51.8672 62.8555C51.8672 63.3398 51.9596 63.7044 52.1445 63.9492C52.332 64.1914 52.6055 64.3125 52.9648 64.3125C53.3737 64.3125 53.7604 64.2109 54.125 64.0078V64.8086C53.9609 64.9049 53.7852 64.974 53.5977 65.0156C53.4128 65.0573 53.1875 65.0781 52.9219 65.0781ZM58.9727 62.832C58.9727 63.5378 58.7917 64.0885 58.4297 64.4844C58.0677 64.8802 57.5638 65.0781 56.918 65.0781C56.5143 65.0781 56.1576 64.987 55.8477 64.8047C55.5378 64.6224 55.2995 64.3607 55.1328 64.0195C54.9661 63.6784 54.8828 63.2826 54.8828 62.832C54.8828 62.1315 55.0625 61.5846 55.4219 61.1914C55.7812 60.7982 56.2878 60.6016 56.9414 60.6016C57.5664 60.6016 58.0612 60.8034 58.4258 61.207C58.7904 61.6081 58.9727 62.1497 58.9727 62.832ZM55.8281 62.832C55.8281 63.8294 56.1966 64.3281 56.9336 64.3281C57.6628 64.3281 58.0273 63.8294 58.0273 62.832C58.0273 61.8451 57.6602 61.3516 56.9258 61.3516C56.5404 61.3516 56.2604 61.4792 56.0859 61.7344C55.9141 61.9896 55.8281 62.3555 55.8281 62.832ZM62.9336 63.7695C62.9336 64.1914 62.7799 64.5156 62.4727 64.7422C62.1654 64.9661 61.7253 65.0781 61.1523 65.0781C60.5768 65.0781 60.1146 64.9909 59.7656 64.8164V64.0234C60.2734 64.2578 60.7461 64.375 61.1836 64.375C61.7487 64.375 62.0312 64.2044 62.0312 63.8633C62.0312 63.7539 62 63.6628 61.9375 63.5898C61.875 63.5169 61.7721 63.4414 61.6289 63.3633C61.4857 63.2852 61.2865 63.1966 61.0312 63.0977C60.5339 62.9049 60.1966 62.7122 60.0195 62.5195C59.8451 62.3268 59.7578 62.0768 59.7578 61.7695C59.7578 61.3997 59.9062 61.1133 60.2031 60.9102C60.5026 60.7044 60.9089 60.6016 61.4219 60.6016C61.9297 60.6016 62.4102 60.7044 62.8633 60.9102L62.5664 61.6016C62.1003 61.4089 61.7083 61.3125 61.3906 61.3125C60.9062 61.3125 60.6641 61.4505 60.6641 61.7266C60.6641 61.862 60.7266 61.9766 60.8516 62.0703C60.9792 62.1641 61.2552 62.293 61.6797 62.457C62.0365 62.5951 62.2956 62.7214 62.457 62.8359C62.6185 62.9505 62.7383 63.0833 62.8164 63.2344C62.8945 63.3828 62.9336 63.5612 62.9336 63.7695ZM65.5391 64.3359C65.763 64.3359 65.987 64.3008 66.2109 64.2305V64.9219C66.1094 64.9661 65.9779 65.0026 65.8164 65.0312C65.6576 65.0625 65.4922 65.0781 65.3203 65.0781C64.4505 65.0781 64.0156 64.6198 64.0156 63.7031V61.375H63.4258V60.9688L64.0586 60.6328L64.3711 59.7188H64.9375V60.6797H66.168V61.375H64.9375V63.6875C64.9375 63.9089 64.9922 64.0729 65.1016 64.1797C65.2135 64.2839 65.3594 64.3359 65.5391 64.3359ZM66.9414 64.5117C66.9414 64.3216 66.9909 64.1758 67.0898 64.0742C67.1888 63.9727 67.332 63.9219 67.5195 63.9219C67.7096 63.9219 67.8542 63.9753 67.9531 64.082C68.0521 64.1862 68.1016 64.3294 68.1016 64.5117C68.1016 64.6966 68.0508 64.8438 67.9492 64.9531C67.8503 65.0599 67.707 65.1133 67.5195 65.1133C67.332 65.1133 67.1888 65.0599 67.0898 64.9531C66.9909 64.8464 66.9414 64.6992 66.9414 64.5117ZM66.9414 61.1758C66.9414 60.7826 67.1341 60.5859 67.5195 60.5859C67.7148 60.5859 67.8607 60.638 67.957 60.7422C68.0534 60.8464 68.1016 60.9909 68.1016 61.1758C68.1016 61.3607 68.0508 61.5078 67.9492 61.6172C67.8503 61.724 67.707 61.7773 67.5195 61.7773C67.332 61.7773 67.1888 61.724 67.0898 61.6172C66.9909 61.5104 66.9414 61.3633 66.9414 61.1758Z" fill="#9A9A9A"/>
<path d="M34.0469 109.449C34.0469 109.957 33.8633 110.355 33.4961 110.645C33.1289 110.934 32.6224 111.078 31.9766 111.078C31.3307 111.078 30.8021 110.978 30.3906 110.777V109.895C30.651 110.017 30.9271 110.113 31.2188 110.184C31.513 110.254 31.7865 110.289 32.0391 110.289C32.4089 110.289 32.681 110.219 32.8555 110.078C33.0326 109.938 33.1211 109.749 33.1211 109.512C33.1211 109.298 33.0404 109.117 32.8789 108.969C32.7174 108.82 32.3841 108.645 31.8789 108.441C31.3581 108.23 30.9909 107.99 30.7773 107.719C30.5638 107.448 30.457 107.122 30.457 106.742C30.457 106.266 30.6263 105.891 30.9648 105.617C31.3034 105.344 31.7578 105.207 32.3281 105.207C32.875 105.207 33.4193 105.327 33.9609 105.566L33.6641 106.328C33.1562 106.115 32.7031 106.008 32.3047 106.008C32.0026 106.008 31.7734 106.074 31.6172 106.207C31.4609 106.337 31.3828 106.51 31.3828 106.727C31.3828 106.875 31.4141 107.003 31.4766 107.109C31.5391 107.214 31.6419 107.312 31.7852 107.406C31.9284 107.5 32.1862 107.624 32.5586 107.777C32.9779 107.952 33.2852 108.115 33.4805 108.266C33.6758 108.417 33.819 108.587 33.9102 108.777C34.0013 108.967 34.0469 109.191 34.0469 109.449ZM36.9414 111.078C36.2695 111.078 35.7435 110.883 35.3633 110.492C34.9857 110.099 34.7969 109.559 34.7969 108.871C34.7969 108.165 34.9727 107.611 35.3242 107.207C35.6758 106.803 36.1589 106.602 36.7734 106.602C37.3438 106.602 37.7943 106.775 38.125 107.121C38.4557 107.467 38.6211 107.944 38.6211 108.551V109.047H35.7422C35.7552 109.466 35.8685 109.789 36.082 110.016C36.2956 110.24 36.5964 110.352 36.9844 110.352C37.2396 110.352 37.4766 110.328 37.6953 110.281C37.9167 110.232 38.1536 110.151 38.4062 110.039V110.785C38.1823 110.892 37.9557 110.967 37.7266 111.012C37.4974 111.056 37.2357 111.078 36.9414 111.078ZM36.7734 107.297C36.4818 107.297 36.2474 107.389 36.0703 107.574C35.8958 107.759 35.7917 108.029 35.7578 108.383H37.7188C37.7135 108.026 37.6276 107.757 37.4609 107.574C37.2943 107.389 37.0651 107.297 36.7734 107.297ZM43.4648 111H42.543V108.344C42.543 108.01 42.4753 107.762 42.3398 107.598C42.207 107.434 41.9948 107.352 41.7031 107.352C41.3151 107.352 41.0312 107.466 40.8516 107.695C40.6719 107.924 40.582 108.309 40.582 108.848V111H39.6641V106.68H40.3828L40.5117 107.246H40.5586C40.6888 107.04 40.8737 106.882 41.1133 106.77C41.3529 106.658 41.6185 106.602 41.9102 106.602C42.9466 106.602 43.4648 107.129 43.4648 108.184V111ZM46.1992 111.078C45.6602 111.078 45.2396 110.883 44.9375 110.492C44.6354 110.102 44.4844 109.553 44.4844 108.848C44.4844 108.139 44.6367 107.589 44.9414 107.195C45.2487 106.799 45.6732 106.602 46.2148 106.602C46.7826 106.602 47.2148 106.811 47.5117 107.23H47.5586C47.5143 106.921 47.4922 106.676 47.4922 106.496V104.922H48.4141V111H47.6953L47.5352 110.434H47.4922C47.1979 110.863 46.7669 111.078 46.1992 111.078ZM46.4453 110.336C46.8229 110.336 47.0977 110.23 47.2695 110.02C47.4414 109.806 47.5299 109.461 47.5352 108.984V108.855C47.5352 108.311 47.4466 107.924 47.2695 107.695C47.0924 107.466 46.8151 107.352 46.4375 107.352C46.1146 107.352 45.8659 107.483 45.6914 107.746C45.5169 108.007 45.4297 108.379 45.4297 108.863C45.4297 109.342 45.5143 109.708 45.6836 109.961C45.8529 110.211 46.1068 110.336 46.4453 110.336ZM55.1328 111H51.9023V105.289H55.1328V106.078H52.8359V107.633H54.9883V108.414H52.8359V110.207H55.1328V111ZM58.3438 111H57.4102V106.09H55.7305V105.289H60.0234V106.09H58.3438V111ZM65.4062 111H64.4688V108.426H61.8359V111H60.9023V105.289H61.8359V107.625H64.4688V105.289H65.4062V111ZM70.5 110.336C70.724 110.336 70.9479 110.301 71.1719 110.23V110.922C71.0703 110.966 70.9388 111.003 70.7773 111.031C70.6185 111.062 70.4531 111.078 70.2812 111.078C69.4115 111.078 68.9766 110.62 68.9766 109.703V107.375H68.3867V106.969L69.0195 106.633L69.332 105.719H69.8984V106.68H71.1289V107.375H69.8984V109.688C69.8984 109.909 69.9531 110.073 70.0625 110.18C70.1745 110.284 70.3203 110.336 70.5 110.336ZM75.8711 108.832C75.8711 109.538 75.6901 110.089 75.3281 110.484C74.9661 110.88 74.4622 111.078 73.8164 111.078C73.4128 111.078 73.056 110.987 72.7461 110.805C72.4362 110.622 72.1979 110.361 72.0312 110.02C71.8646 109.678 71.7812 109.283 71.7812 108.832C71.7812 108.132 71.9609 107.585 72.3203 107.191C72.6797 106.798 73.1862 106.602 73.8398 106.602C74.4648 106.602 74.9596 106.803 75.3242 107.207C75.6888 107.608 75.8711 108.15 75.8711 108.832ZM72.7266 108.832C72.7266 109.829 73.0951 110.328 73.832 110.328C74.5612 110.328 74.9258 109.829 74.9258 108.832C74.9258 107.845 74.5586 107.352 73.8242 107.352C73.4388 107.352 73.1589 107.479 72.9844 107.734C72.8125 107.99 72.7266 108.355 72.7266 108.832ZM80.75 111.078C80.0964 111.078 79.599 110.888 79.2578 110.508C78.9193 110.125 78.75 109.577 78.75 108.863C78.75 108.137 78.9271 107.578 79.2812 107.188C79.638 106.797 80.1523 106.602 80.8242 106.602C81.2799 106.602 81.6901 106.686 82.0547 106.855L81.7773 107.594C81.3893 107.443 81.069 107.367 80.8164 107.367C80.069 107.367 79.6953 107.863 79.6953 108.855C79.6953 109.34 79.7878 109.704 79.9727 109.949C80.1602 110.191 80.4336 110.312 80.793 110.312C81.2018 110.312 81.5885 110.211 81.9531 110.008V110.809C81.7891 110.905 81.6133 110.974 81.4258 111.016C81.2409 111.057 81.0156 111.078 80.75 111.078ZM85.6719 111L85.4883 110.398H85.457C85.2487 110.661 85.0391 110.841 84.8281 110.938C84.6172 111.031 84.3464 111.078 84.0156 111.078C83.5911 111.078 83.2591 110.964 83.0195 110.734C82.7826 110.505 82.6641 110.181 82.6641 109.762C82.6641 109.316 82.8294 108.98 83.1602 108.754C83.4909 108.527 83.9948 108.404 84.6719 108.383L85.418 108.359V108.129C85.418 107.853 85.3529 107.647 85.2227 107.512C85.0951 107.374 84.8958 107.305 84.625 107.305C84.4036 107.305 84.1914 107.337 83.9883 107.402C83.7852 107.467 83.5898 107.544 83.4023 107.633L83.1055 106.977C83.3398 106.854 83.5964 106.762 83.875 106.699C84.1536 106.634 84.4167 106.602 84.6641 106.602C85.2135 106.602 85.6276 106.721 85.9062 106.961C86.1875 107.201 86.3281 107.577 86.3281 108.09V111H85.6719ZM84.3047 110.375C84.638 110.375 84.9049 110.283 85.1055 110.098C85.3086 109.91 85.4102 109.648 85.4102 109.312V108.938L84.8555 108.961C84.4232 108.977 84.1081 109.049 83.9102 109.18C83.7148 109.307 83.6172 109.504 83.6172 109.77C83.6172 109.962 83.6745 110.112 83.7891 110.219C83.9036 110.323 84.0755 110.375 84.3047 110.375ZM91.25 111H90.3281V108.336C90.3281 108.005 90.2656 107.759 90.1406 107.598C90.0156 107.434 89.8203 107.352 89.5547 107.352C89.2005 107.352 88.9401 107.467 88.7734 107.699C88.6094 107.928 88.5273 108.311 88.5273 108.848V111H87.6094V106.68H88.3281L88.457 107.246H88.5039C88.6237 107.04 88.7969 106.882 89.0234 106.77C89.2526 106.658 89.5039 106.602 89.7773 106.602C90.4414 106.602 90.8815 106.828 91.0977 107.281H91.1602C91.2878 107.068 91.4674 106.901 91.6992 106.781C91.931 106.661 92.1966 106.602 92.4961 106.602C93.0117 106.602 93.3867 106.732 93.6211 106.992C93.8581 107.253 93.9766 107.65 93.9766 108.184V111H93.0586V108.336C93.0586 108.005 92.9948 107.759 92.8672 107.598C92.7422 107.434 92.5469 107.352 92.2812 107.352C91.9245 107.352 91.6628 107.464 91.4961 107.688C91.332 107.909 91.25 108.25 91.25 108.711V111ZM97.4492 111.078C96.9023 111.078 96.4779 110.882 96.1758 110.488H96.1211C96.1576 110.853 96.1758 111.074 96.1758 111.152V112.922H95.2578V106.68H96C96.0208 106.76 96.0638 106.953 96.1289 107.258H96.1758C96.4622 106.82 96.8919 106.602 97.4648 106.602C98.0039 106.602 98.4232 106.797 98.7227 107.188C99.0247 107.578 99.1758 108.126 99.1758 108.832C99.1758 109.538 99.0221 110.089 98.7148 110.484C98.4102 110.88 97.9883 111.078 97.4492 111.078ZM97.2266 107.352C96.862 107.352 96.5951 107.458 96.4258 107.672C96.2591 107.885 96.1758 108.227 96.1758 108.695V108.832C96.1758 109.358 96.2591 109.74 96.4258 109.977C96.5924 110.211 96.8646 110.328 97.2422 110.328C97.5599 110.328 97.8047 110.198 97.9766 109.938C98.1484 109.677 98.2344 109.306 98.2344 108.824C98.2344 108.34 98.1484 107.974 97.9766 107.727C97.8073 107.477 97.5573 107.352 97.2266 107.352ZM102.945 111L102.762 110.398H102.73C102.522 110.661 102.312 110.841 102.102 110.938C101.891 111.031 101.62 111.078 101.289 111.078C100.865 111.078 100.533 110.964 100.293 110.734C100.056 110.505 99.9375 110.181 99.9375 109.762C99.9375 109.316 100.103 108.98 100.434 108.754C100.764 108.527 101.268 108.404 101.945 108.383L102.691 108.359V108.129C102.691 107.853 102.626 107.647 102.496 107.512C102.368 107.374 102.169 107.305 101.898 107.305C101.677 107.305 101.465 107.337 101.262 107.402C101.059 107.467 100.863 107.544 100.676 107.633L100.379 106.977C100.613 106.854 100.87 106.762 101.148 106.699C101.427 106.634 101.69 106.602 101.938 106.602C102.487 106.602 102.901 106.721 103.18 106.961C103.461 107.201 103.602 107.577 103.602 108.09V111H102.945ZM101.578 110.375C101.911 110.375 102.178 110.283 102.379 110.098C102.582 109.91 102.684 109.648 102.684 109.312V108.938L102.129 108.961C101.697 108.977 101.382 109.049 101.184 109.18C100.988 109.307 100.891 109.504 100.891 109.77C100.891 109.962 100.948 110.112 101.062 110.219C101.177 110.323 101.349 110.375 101.578 110.375ZM105.801 111H104.883V106.68H105.801V111ZM104.828 105.535C104.828 105.371 104.872 105.245 104.961 105.156C105.052 105.068 105.181 105.023 105.348 105.023C105.509 105.023 105.634 105.068 105.723 105.156C105.814 105.245 105.859 105.371 105.859 105.535C105.859 105.691 105.814 105.815 105.723 105.906C105.634 105.995 105.509 106.039 105.348 106.039C105.181 106.039 105.052 105.995 104.961 105.906C104.872 105.815 104.828 105.691 104.828 105.535ZM110.766 106.68V107.184L110.027 107.32C110.095 107.411 110.151 107.523 110.195 107.656C110.24 107.789 110.262 107.93 110.262 108.078C110.262 108.523 110.108 108.874 109.801 109.129C109.493 109.384 109.07 109.512 108.531 109.512C108.393 109.512 108.268 109.501 108.156 109.48C107.958 109.603 107.859 109.746 107.859 109.91C107.859 110.009 107.905 110.083 107.996 110.133C108.09 110.182 108.26 110.207 108.508 110.207H109.262C109.738 110.207 110.1 110.309 110.348 110.512C110.595 110.715 110.719 111.008 110.719 111.391C110.719 111.88 110.517 112.258 110.113 112.523C109.71 112.789 109.126 112.922 108.363 112.922C107.775 112.922 107.326 112.818 107.016 112.609C106.706 112.401 106.551 112.104 106.551 111.719C106.551 111.453 106.634 111.229 106.801 111.047C106.97 110.867 107.206 110.742 107.508 110.672C107.385 110.62 107.284 110.536 107.203 110.422C107.125 110.305 107.086 110.182 107.086 110.055C107.086 109.893 107.132 109.757 107.223 109.645C107.314 109.533 107.449 109.422 107.629 109.312C107.405 109.216 107.223 109.06 107.082 108.844C106.944 108.625 106.875 108.37 106.875 108.078C106.875 107.609 107.022 107.246 107.316 106.988C107.613 106.73 108.035 106.602 108.582 106.602C108.704 106.602 108.832 106.611 108.965 106.629C109.1 106.645 109.202 106.661 109.27 106.68H110.766ZM107.371 111.672C107.371 111.87 107.46 112.022 107.637 112.129C107.816 112.236 108.068 112.289 108.391 112.289C108.891 112.289 109.263 112.217 109.508 112.074C109.753 111.931 109.875 111.741 109.875 111.504C109.875 111.316 109.807 111.182 109.672 111.102C109.539 111.023 109.29 110.984 108.926 110.984H108.23C107.967 110.984 107.758 111.046 107.602 111.168C107.448 111.293 107.371 111.461 107.371 111.672ZM107.766 108.078C107.766 108.349 107.835 108.557 107.973 108.703C108.113 108.849 108.314 108.922 108.574 108.922C109.105 108.922 109.371 108.638 109.371 108.07C109.371 107.789 109.305 107.573 109.172 107.422C109.042 107.268 108.842 107.191 108.574 107.191C108.309 107.191 108.107 107.267 107.969 107.418C107.833 107.569 107.766 107.789 107.766 108.078ZM115.371 111H114.449V108.344C114.449 108.01 114.382 107.762 114.246 107.598C114.113 107.434 113.901 107.352 113.609 107.352C113.221 107.352 112.938 107.466 112.758 107.695C112.578 107.924 112.488 108.309 112.488 108.848V111H111.57V106.68H112.289L112.418 107.246H112.465C112.595 107.04 112.78 106.882 113.02 106.77C113.259 106.658 113.525 106.602 113.816 106.602C114.853 106.602 115.371 107.129 115.371 108.184V111ZM120.469 111.078C119.815 111.078 119.318 110.888 118.977 110.508C118.638 110.125 118.469 109.577 118.469 108.863C118.469 108.137 118.646 107.578 119 107.188C119.357 106.797 119.871 106.602 120.543 106.602C120.999 106.602 121.409 106.686 121.773 106.855L121.496 107.594C121.108 107.443 120.788 107.367 120.535 107.367C119.788 107.367 119.414 107.863 119.414 108.855C119.414 109.34 119.507 109.704 119.691 109.949C119.879 110.191 120.152 110.312 120.512 110.312C120.921 110.312 121.307 110.211 121.672 110.008V110.809C121.508 110.905 121.332 110.974 121.145 111.016C120.96 111.057 120.734 111.078 120.469 111.078ZM126.52 108.832C126.52 109.538 126.339 110.089 125.977 110.484C125.615 110.88 125.111 111.078 124.465 111.078C124.061 111.078 123.704 110.987 123.395 110.805C123.085 110.622 122.846 110.361 122.68 110.02C122.513 109.678 122.43 109.283 122.43 108.832C122.43 108.132 122.609 107.585 122.969 107.191C123.328 106.798 123.835 106.602 124.488 106.602C125.113 106.602 125.608 106.803 125.973 107.207C126.337 107.608 126.52 108.15 126.52 108.832ZM123.375 108.832C123.375 109.829 123.743 110.328 124.48 110.328C125.21 110.328 125.574 109.829 125.574 108.832C125.574 107.845 125.207 107.352 124.473 107.352C124.087 107.352 123.807 107.479 123.633 107.734C123.461 107.99 123.375 108.355 123.375 108.832ZM131.379 111H130.457V108.344C130.457 108.01 130.389 107.762 130.254 107.598C130.121 107.434 129.909 107.352 129.617 107.352C129.229 107.352 128.945 107.466 128.766 107.695C128.586 107.924 128.496 108.309 128.496 108.848V111H127.578V106.68H128.297L128.426 107.246H128.473C128.603 107.04 128.788 106.882 129.027 106.77C129.267 106.658 129.533 106.602 129.824 106.602C130.861 106.602 131.379 107.129 131.379 108.184V111ZM134.266 110.336C134.49 110.336 134.714 110.301 134.938 110.23V110.922C134.836 110.966 134.704 111.003 134.543 111.031C134.384 111.062 134.219 111.078 134.047 111.078C133.177 111.078 132.742 110.62 132.742 109.703V107.375H132.152V106.969L132.785 106.633L133.098 105.719H133.664V106.68H134.895V107.375H133.664V109.688C133.664 109.909 133.719 110.073 133.828 110.18C133.94 110.284 134.086 110.336 134.266 110.336ZM137.996 106.602C138.181 106.602 138.333 106.615 138.453 106.641L138.363 107.496C138.233 107.465 138.098 107.449 137.957 107.449C137.59 107.449 137.292 107.569 137.062 107.809C136.836 108.048 136.723 108.359 136.723 108.742V111H135.805V106.68H136.523L136.645 107.441H136.691C136.835 107.184 137.021 106.979 137.25 106.828C137.482 106.677 137.73 106.602 137.996 106.602ZM141.961 111L141.777 110.398H141.746C141.538 110.661 141.328 110.841 141.117 110.938C140.906 111.031 140.635 111.078 140.305 111.078C139.88 111.078 139.548 110.964 139.309 110.734C139.072 110.505 138.953 110.181 138.953 109.762C138.953 109.316 139.118 108.98 139.449 108.754C139.78 108.527 140.284 108.404 140.961 108.383L141.707 108.359V108.129C141.707 107.853 141.642 107.647 141.512 107.512C141.384 107.374 141.185 107.305 140.914 107.305C140.693 107.305 140.48 107.337 140.277 107.402C140.074 107.467 139.879 107.544 139.691 107.633L139.395 106.977C139.629 106.854 139.885 106.762 140.164 106.699C140.443 106.634 140.706 106.602 140.953 106.602C141.503 106.602 141.917 106.721 142.195 106.961C142.477 107.201 142.617 107.577 142.617 108.09V111H141.961ZM140.594 110.375C140.927 110.375 141.194 110.283 141.395 110.098C141.598 109.91 141.699 109.648 141.699 109.312V108.938L141.145 108.961C140.712 108.977 140.397 109.049 140.199 109.18C140.004 109.307 139.906 109.504 139.906 109.77C139.906 109.962 139.964 110.112 140.078 110.219C140.193 110.323 140.365 110.375 140.594 110.375ZM145.641 111.078C144.987 111.078 144.49 110.888 144.148 110.508C143.81 110.125 143.641 109.577 143.641 108.863C143.641 108.137 143.818 107.578 144.172 107.188C144.529 106.797 145.043 106.602 145.715 106.602C146.171 106.602 146.581 106.686 146.945 106.855L146.668 107.594C146.28 107.443 145.96 107.367 145.707 107.367C144.96 107.367 144.586 107.863 144.586 108.855C144.586 109.34 144.678 109.704 144.863 109.949C145.051 110.191 145.324 110.312 145.684 110.312C146.092 110.312 146.479 110.211 146.844 110.008V110.809C146.68 110.905 146.504 110.974 146.316 111.016C146.132 111.057 145.906 111.078 145.641 111.078ZM149.469 110.336C149.693 110.336 149.917 110.301 150.141 110.23V110.922C150.039 110.966 149.908 111.003 149.746 111.031C149.587 111.062 149.422 111.078 149.25 111.078C148.38 111.078 147.945 110.62 147.945 109.703V107.375H147.355V106.969L147.988 106.633L148.301 105.719H148.867V106.68H150.098V107.375H148.867V109.688C148.867 109.909 148.922 110.073 149.031 110.18C149.143 110.284 149.289 110.336 149.469 110.336ZM150.871 110.512C150.871 110.322 150.921 110.176 151.02 110.074C151.118 109.973 151.262 109.922 151.449 109.922C151.639 109.922 151.784 109.975 151.883 110.082C151.982 110.186 152.031 110.329 152.031 110.512C152.031 110.697 151.98 110.844 151.879 110.953C151.78 111.06 151.637 111.113 151.449 111.113C151.262 111.113 151.118 111.06 151.02 110.953C150.921 110.846 150.871 110.699 150.871 110.512ZM150.871 107.176C150.871 106.783 151.064 106.586 151.449 106.586C151.645 106.586 151.79 106.638 151.887 106.742C151.983 106.846 152.031 106.991 152.031 107.176C152.031 107.361 151.98 107.508 151.879 107.617C151.78 107.724 151.637 107.777 151.449 107.777C151.262 107.777 151.118 107.724 151.02 107.617C150.921 107.51 150.871 107.363 150.871 107.176Z" fill="#9A9A9A"/>
<rect x="41.35" y="74.35" width="133.3" height="14.3" rx="2.65" fill="white" stroke="#E7E7EA" stroke-width="0.7"/>
<rect x="41.35" y="120.35" width="133.3" height="14.3" rx="2.65" fill="white" stroke="#00E15D" stroke-width="0.7"/>
<path d="M115 161C115 158.239 117.239 156 120 156H185C187.761 156 190 158.239 190 161V175C190 177.761 187.761 180 185 180H120C117.239 180 115 177.761 115 175V161Z" fill="#FF9C2A"/>
<path d="M29 161C29 158.239 31.2386 156 34 156H99C101.761 156 104 158.239 104 161V175C104 177.761 101.761 180 99 180H34C31.2386 180 29 177.761 29 175V161Z" fill="#206DFF"/>
<path d="M47.6333 82.4517C47.6333 82.7821 47.5125 83.0544 47.271 83.2686C47.0295 83.4827 46.6808 83.6149 46.2251 83.665V84.4067H45.7705V83.6855C45.2054 83.6764 44.7417 83.5898 44.3794 83.4258V82.7046C44.5754 82.8003 44.8044 82.8812 45.0664 82.9473C45.3285 83.0111 45.5632 83.0441 45.7705 83.0464V81.7681L45.4834 81.6621C45.1097 81.5186 44.8363 81.3477 44.6631 81.1494C44.4922 80.9489 44.4067 80.7017 44.4067 80.4077C44.4067 80.0933 44.5286 79.8346 44.7725 79.6318C45.0186 79.429 45.3512 79.306 45.7705 79.2627V78.6885H46.2251V79.2524C46.6877 79.2684 47.1263 79.3618 47.541 79.5327L47.2915 80.1582C46.9338 80.0169 46.5783 79.9326 46.2251 79.9053V81.1494L46.4849 81.2485C46.9178 81.4149 47.2174 81.5903 47.3838 81.7749C47.5501 81.9595 47.6333 82.1851 47.6333 82.4517ZM46.8267 82.5029C46.8267 82.3708 46.7799 82.2625 46.6865 82.1782C46.5954 82.0916 46.4416 82.0085 46.2251 81.9287V83.019C46.6261 82.9575 46.8267 82.7855 46.8267 82.5029ZM45.21 80.4009C45.21 80.5308 45.2498 80.639 45.3296 80.7256C45.4116 80.8122 45.5586 80.8976 45.7705 80.9819V79.9189C45.5882 79.9463 45.4492 80.0021 45.3535 80.0864C45.2578 80.1707 45.21 80.2756 45.21 80.4009ZM50.665 84H49.8618V80.7734C49.8618 80.3883 49.8709 80.083 49.8892 79.8574C49.8368 79.9121 49.7718 79.9725 49.6943 80.0386C49.6191 80.1047 49.3639 80.3143 48.9287 80.6675L48.5254 80.1582L49.9951 79.0029H50.665V84ZM55.6929 81.5015C55.6929 82.3696 55.5527 83.0145 55.2725 83.436C54.9945 83.8576 54.5684 84.0684 53.9941 84.0684C53.4382 84.0684 53.0166 83.8507 52.7295 83.4155C52.4424 82.9803 52.2988 82.3423 52.2988 81.5015C52.2988 80.6196 52.4378 79.9702 52.7158 79.5532C52.9961 79.134 53.4222 78.9243 53.9941 78.9243C54.5524 78.9243 54.9751 79.1431 55.2622 79.5806C55.5493 80.0181 55.6929 80.6584 55.6929 81.5015ZM53.1123 81.5015C53.1123 82.1828 53.1818 82.6693 53.3208 82.9609C53.4621 83.2526 53.6865 83.3984 53.9941 83.3984C54.3018 83.3984 54.5262 83.2503 54.6675 82.9541C54.811 82.6579 54.8828 82.1737 54.8828 81.5015C54.8828 80.8315 54.811 80.3473 54.6675 80.0488C54.5262 79.748 54.3018 79.5977 53.9941 79.5977C53.6865 79.5977 53.4621 79.7446 53.3208 80.0386C53.1818 80.3325 53.1123 80.8201 53.1123 81.5015ZM59.6919 81.5015C59.6919 82.3696 59.5518 83.0145 59.2715 83.436C58.9935 83.8576 58.5674 84.0684 57.9932 84.0684C57.4372 84.0684 57.0156 83.8507 56.7285 83.4155C56.4414 82.9803 56.2979 82.3423 56.2979 81.5015C56.2979 80.6196 56.4368 79.9702 56.7148 79.5532C56.9951 79.134 57.4212 78.9243 57.9932 78.9243C58.5514 78.9243 58.9741 79.1431 59.2612 79.5806C59.5483 80.0181 59.6919 80.6584 59.6919 81.5015ZM57.1113 81.5015C57.1113 82.1828 57.1808 82.6693 57.3198 82.9609C57.4611 83.2526 57.6855 83.3984 57.9932 83.3984C58.3008 83.3984 58.5252 83.2503 58.6665 82.9541C58.8101 82.6579 58.8818 82.1737 58.8818 81.5015C58.8818 80.8315 58.8101 80.3473 58.6665 80.0488C58.5252 79.748 58.3008 79.5977 57.9932 79.5977C57.6855 79.5977 57.4611 79.7446 57.3198 80.0386C57.1808 80.3325 57.1113 80.8201 57.1113 81.5015ZM62.6689 79.0029L60.8096 84H60.0508L61.9136 79.0029H62.6689ZM66.2168 84H63.3901V79.0029H66.2168V79.6934H64.207V81.0537H66.0903V81.7373H64.207V83.3062H66.2168V84ZM69.0264 84H68.2095V79.7036H66.7397V79.0029H70.4961V79.7036H69.0264V84ZM75.2061 84H74.3857V81.7476H72.082V84H71.2651V79.0029H72.082V81.0469H74.3857V79.0029H75.2061V84ZM81.3755 81.5015C81.3755 82.3696 81.2354 83.0145 80.9551 83.436C80.6771 83.8576 80.251 84.0684 79.6768 84.0684C79.1208 84.0684 78.6992 83.8507 78.4121 83.4155C78.125 82.9803 77.9814 82.3423 77.9814 81.5015C77.9814 80.6196 78.1204 79.9702 78.3984 79.5532C78.6787 79.134 79.1048 78.9243 79.6768 78.9243C80.235 78.9243 80.6577 79.1431 80.9448 79.5806C81.2319 80.0181 81.3755 80.6584 81.3755 81.5015ZM78.7949 81.5015C78.7949 82.1828 78.8644 82.6693 79.0034 82.9609C79.1447 83.2526 79.3691 83.3984 79.6768 83.3984C79.9844 83.3984 80.2088 83.2503 80.3501 82.9541C80.4937 82.6579 80.5654 82.1737 80.5654 81.5015C80.5654 80.8315 80.4937 80.3473 80.3501 80.0488C80.2088 79.748 79.9844 79.5977 79.6768 79.5977C79.3691 79.5977 79.1447 79.7446 79.0034 80.0386C78.8644 80.3325 78.7949 80.8201 78.7949 81.5015ZM82.1343 83.5728C82.1343 83.4064 82.1776 83.2788 82.2642 83.1899C82.3507 83.1011 82.4761 83.0566 82.6401 83.0566C82.8065 83.0566 82.9329 83.1034 83.0195 83.1968C83.1061 83.2879 83.1494 83.4132 83.1494 83.5728C83.1494 83.7345 83.105 83.8633 83.0161 83.959C82.9295 84.0524 82.8042 84.0991 82.6401 84.0991C82.4761 84.0991 82.3507 84.0524 82.2642 83.959C82.1776 83.8656 82.1343 83.7368 82.1343 83.5728ZM85.6104 80.8794C86.1139 80.8794 86.5127 81.0127 86.8066 81.2793C87.1006 81.5459 87.2476 81.9093 87.2476 82.3696C87.2476 82.9028 87.0801 83.3198 86.7451 83.6206C86.4124 83.9191 85.9385 84.0684 85.3232 84.0684C84.765 84.0684 84.3263 83.9784 84.0073 83.7983V83.0703C84.1919 83.1751 84.4038 83.256 84.6431 83.313C84.8823 83.37 85.1045 83.3984 85.3096 83.3984C85.6719 83.3984 85.9476 83.3175 86.1367 83.1558C86.3258 82.994 86.4204 82.757 86.4204 82.4448C86.4204 81.8478 86.0399 81.5493 85.2788 81.5493C85.1717 81.5493 85.0396 81.5607 84.8823 81.5835C84.7251 81.604 84.5872 81.6279 84.4688 81.6553L84.1099 81.4434L84.3013 79.0029H86.8989V79.7173H85.0088L84.896 80.9546C84.9757 80.9409 85.0726 80.925 85.1865 80.9067C85.3027 80.8885 85.444 80.8794 85.6104 80.8794ZM87.9277 81.8706C87.9277 79.9155 88.7241 78.938 90.3169 78.938C90.5675 78.938 90.7795 78.9574 90.9526 78.9961V79.666C90.7795 79.6159 90.5789 79.5908 90.3511 79.5908C89.8156 79.5908 89.4134 79.7344 89.1445 80.0215C88.8757 80.3086 88.7298 80.7689 88.707 81.4023H88.748C88.8551 81.2178 89.0055 81.0754 89.1992 80.9751C89.3929 80.8726 89.6208 80.8213 89.8828 80.8213C90.3363 80.8213 90.6895 80.9603 90.9424 81.2383C91.1953 81.5163 91.3218 81.8934 91.3218 82.3696C91.3218 82.8937 91.1748 83.3084 90.8809 83.6138C90.5892 83.9168 90.1904 84.0684 89.6846 84.0684C89.3268 84.0684 89.0158 83.9829 88.7515 83.812C88.4871 83.6388 88.2832 83.3882 88.1396 83.0601C87.9984 82.7297 87.9277 82.3332 87.9277 81.8706ZM89.6709 83.4053C89.9466 83.4053 90.1585 83.3164 90.3066 83.1387C90.457 82.9609 90.5322 82.7069 90.5322 82.3765C90.5322 82.0894 90.4616 81.8638 90.3203 81.6997C90.1813 81.5356 89.9717 81.4536 89.6914 81.4536C89.5182 81.4536 89.3587 81.4912 89.2129 81.5664C89.0671 81.6393 88.952 81.7407 88.8677 81.8706C88.7834 81.9982 88.7412 82.1292 88.7412 82.2637C88.7412 82.585 88.8278 82.8561 89.001 83.0771C89.1764 83.2959 89.3997 83.4053 89.6709 83.4053Z" fill="#4B4848"/>
<path d="M46.6401 128.146C46.6401 129.014 46.5 129.659 46.2197 130.08C45.9417 130.502 45.5156 130.712 44.9414 130.712C44.3854 130.712 43.9639 130.495 43.6768 130.06C43.3896 129.624 43.2461 128.986 43.2461 128.146C43.2461 127.264 43.3851 126.614 43.6631 126.197C43.9434 125.778 44.3695 125.568 44.9414 125.568C45.4997 125.568 45.9224 125.787 46.2095 126.225C46.4966 126.662 46.6401 127.302 46.6401 128.146ZM44.0596 128.146C44.0596 128.827 44.1291 129.313 44.2681 129.605C44.4093 129.897 44.6338 130.042 44.9414 130.042C45.249 130.042 45.4735 129.894 45.6147 129.598C45.7583 129.302 45.8301 128.818 45.8301 128.146C45.8301 127.476 45.7583 126.991 45.6147 126.693C45.4735 126.392 45.249 126.242 44.9414 126.242C44.6338 126.242 44.4093 126.389 44.2681 126.683C44.1291 126.977 44.0596 127.464 44.0596 128.146ZM48.3594 128.713L47.0913 126.864H48.0073L48.8687 128.187L49.7368 126.864H50.646L49.3745 128.713L50.7109 130.644H49.8018L48.8687 129.229L47.939 130.644H47.0298L48.3594 128.713ZM52.6489 130.712C52.1772 130.712 51.8092 130.542 51.5449 130.2C51.2806 129.858 51.1484 129.378 51.1484 128.761C51.1484 128.141 51.2817 127.659 51.5483 127.315C51.8172 126.969 52.1886 126.795 52.6626 126.795C53.1593 126.795 53.5376 126.979 53.7974 127.346H53.8384C53.7996 127.075 53.7803 126.86 53.7803 126.703V125.326H54.5869V130.644H53.958L53.8179 130.148H53.7803C53.5228 130.524 53.1457 130.712 52.6489 130.712ZM52.8643 130.063C53.1947 130.063 53.4351 129.971 53.5854 129.786C53.7358 129.599 53.8133 129.297 53.8179 128.88V128.768C53.8179 128.291 53.7404 127.953 53.5854 127.752C53.4305 127.552 53.1878 127.452 52.8574 127.452C52.5749 127.452 52.3573 127.567 52.2046 127.797C52.0519 128.025 51.9756 128.351 51.9756 128.774C51.9756 129.194 52.0496 129.514 52.1978 129.735C52.3459 129.954 52.568 130.063 52.8643 130.063ZM57.3862 130.712C56.7983 130.712 56.3381 130.542 56.0054 130.2C55.675 129.856 55.5098 129.383 55.5098 128.781C55.5098 128.164 55.6636 127.678 55.9712 127.325C56.2788 126.972 56.7015 126.795 57.2393 126.795C57.7383 126.795 58.1325 126.947 58.4219 127.25C58.7113 127.553 58.856 127.97 58.856 128.501V128.935H56.3369C56.3483 129.302 56.4474 129.584 56.6343 129.783C56.8211 129.979 57.0843 130.077 57.4238 130.077C57.6471 130.077 57.8545 130.056 58.0459 130.015C58.2396 129.972 58.4469 129.901 58.668 129.803V130.456C58.472 130.549 58.2738 130.616 58.0732 130.654C57.8727 130.693 57.6437 130.712 57.3862 130.712ZM57.2393 127.404C56.984 127.404 56.779 127.485 56.624 127.646C56.4714 127.808 56.3802 128.044 56.3506 128.354H58.0664C58.0618 128.042 57.9867 127.806 57.8408 127.646C57.695 127.485 57.4945 127.404 57.2393 127.404ZM62.8892 128.146C62.8892 129.014 62.749 129.659 62.4688 130.08C62.1908 130.502 61.7646 130.712 61.1904 130.712C60.6344 130.712 60.2129 130.495 59.9258 130.06C59.6387 129.624 59.4951 128.986 59.4951 128.146C59.4951 127.264 59.6341 126.614 59.9121 126.197C60.1924 125.778 60.6185 125.568 61.1904 125.568C61.7487 125.568 62.1714 125.787 62.4585 126.225C62.7456 126.662 62.8892 127.302 62.8892 128.146ZM60.3086 128.146C60.3086 128.827 60.3781 129.313 60.5171 129.605C60.6584 129.897 60.8828 130.042 61.1904 130.042C61.498 130.042 61.7225 129.894 61.8638 129.598C62.0073 129.302 62.0791 128.818 62.0791 128.146C62.0791 127.476 62.0073 126.991 61.8638 126.693C61.7225 126.392 61.498 126.242 61.1904 126.242C60.8828 126.242 60.6584 126.389 60.5171 126.683C60.3781 126.977 60.3086 127.464 60.3086 128.146ZM63.853 125.647H65.3364C66.0246 125.647 66.5213 125.747 66.8267 125.948C67.1343 126.148 67.2881 126.465 67.2881 126.898C67.2881 127.19 67.2129 127.432 67.0625 127.626C66.9121 127.82 66.6956 127.942 66.4131 127.992V128.026C66.764 128.092 67.0215 128.223 67.1855 128.419C67.3519 128.613 67.4351 128.876 67.4351 129.208C67.4351 129.657 67.2778 130.009 66.9634 130.265C66.6512 130.518 66.216 130.644 65.6577 130.644H63.853V125.647ZM64.6699 127.711H65.4561C65.7979 127.711 66.0474 127.658 66.2046 127.551C66.3618 127.441 66.4404 127.257 66.4404 126.997C66.4404 126.762 66.355 126.593 66.1841 126.488C66.0155 126.383 65.7466 126.331 65.3774 126.331H64.6699V127.711ZM64.6699 128.375V129.957H65.5381C65.8799 129.957 66.1374 129.892 66.3105 129.762C66.486 129.63 66.5737 129.423 66.5737 129.14C66.5737 128.88 66.4849 128.688 66.3071 128.562C66.1294 128.437 65.8594 128.375 65.4971 128.375H64.6699ZM71.5093 130.644H68.1221V130.036L69.4106 128.74C69.7912 128.351 70.043 128.075 70.166 127.913C70.2913 127.749 70.3825 127.595 70.4395 127.452C70.4964 127.308 70.5249 127.154 70.5249 126.99C70.5249 126.765 70.4565 126.587 70.3198 126.457C70.1854 126.327 69.9985 126.262 69.7593 126.262C69.5679 126.262 69.3822 126.298 69.2021 126.368C69.0244 126.439 68.8182 126.566 68.5835 126.751L68.1494 126.221C68.4274 125.986 68.6974 125.82 68.9595 125.722C69.2215 125.624 69.5007 125.575 69.7969 125.575C70.2617 125.575 70.6343 125.697 70.9146 125.941C71.1948 126.182 71.335 126.508 71.335 126.918C71.335 127.144 71.2939 127.358 71.2119 127.561C71.1322 127.764 71.008 127.973 70.8394 128.19C70.673 128.404 70.395 128.695 70.0054 129.062L69.1372 129.902V129.937H71.5093V130.644ZM75.5015 127.78C75.5015 128.764 75.3032 129.499 74.9067 129.984C74.5103 130.47 73.9132 130.712 73.1157 130.712C72.8127 130.712 72.5951 130.694 72.4629 130.658V129.984C72.6657 130.041 72.8696 130.07 73.0747 130.07C73.617 130.07 74.0215 129.924 74.2881 129.632C74.5547 129.341 74.7005 128.883 74.7256 128.258H74.6846C74.5501 128.463 74.3872 128.611 74.1958 128.703C74.0067 128.794 73.7845 128.839 73.5293 128.839C73.0872 128.839 72.7397 128.701 72.4868 128.426C72.2339 128.15 72.1074 127.772 72.1074 127.291C72.1074 126.769 72.2533 126.354 72.5449 126.047C72.8389 125.737 73.2388 125.582 73.7446 125.582C74.1001 125.582 74.41 125.669 74.6743 125.842C74.9386 126.015 75.1426 126.267 75.2861 126.597C75.4297 126.925 75.5015 127.319 75.5015 127.78ZM73.7583 126.249C73.4803 126.249 73.2673 126.34 73.1191 126.522C72.971 126.702 72.897 126.956 72.897 127.284C72.897 127.569 72.9653 127.793 73.1021 127.958C73.241 128.119 73.4507 128.2 73.731 128.2C74.0021 128.2 74.23 128.119 74.4146 127.958C74.5991 127.796 74.6914 127.607 74.6914 127.39C74.6914 127.187 74.6515 126.998 74.5718 126.823C74.4943 126.645 74.3849 126.505 74.2437 126.402C74.1024 126.3 73.9406 126.249 73.7583 126.249ZM77.8154 127.523C78.319 127.523 78.7178 127.657 79.0117 127.923C79.3057 128.19 79.4526 128.553 79.4526 129.014C79.4526 129.547 79.2852 129.964 78.9502 130.265C78.6175 130.563 78.1436 130.712 77.5283 130.712C76.9701 130.712 76.5314 130.622 76.2124 130.442V129.714C76.397 129.819 76.6089 129.9 76.8481 129.957C77.0874 130.014 77.3096 130.042 77.5146 130.042C77.877 130.042 78.1527 129.962 78.3418 129.8C78.5309 129.638 78.6255 129.401 78.6255 129.089C78.6255 128.492 78.245 128.193 77.4839 128.193C77.3768 128.193 77.2446 128.205 77.0874 128.228C76.9302 128.248 76.7923 128.272 76.6738 128.299L76.3149 128.087L76.5063 125.647H79.104V126.361H77.2139L77.1011 127.599C77.1808 127.585 77.2777 127.569 77.3916 127.551C77.5078 127.533 77.6491 127.523 77.8154 127.523ZM80.1328 128.515C80.1328 126.56 80.9292 125.582 82.522 125.582C82.7726 125.582 82.9845 125.601 83.1577 125.64V126.31C82.9845 126.26 82.784 126.235 82.5562 126.235C82.0207 126.235 81.6185 126.378 81.3496 126.666C81.0807 126.953 80.9349 127.413 80.9121 128.046H80.9531C81.0602 127.862 81.2106 127.719 81.4043 127.619C81.598 127.517 81.8258 127.465 82.0879 127.465C82.5413 127.465 82.8945 127.604 83.1475 127.882C83.4004 128.16 83.5269 128.537 83.5269 129.014C83.5269 129.538 83.3799 129.952 83.0859 130.258C82.7943 130.561 82.3955 130.712 81.8896 130.712C81.5319 130.712 81.2209 130.627 80.9565 130.456C80.6922 130.283 80.4883 130.032 80.3447 129.704C80.2035 129.374 80.1328 128.977 80.1328 128.515ZM81.876 130.049C82.1517 130.049 82.3636 129.96 82.5117 129.783C82.6621 129.605 82.7373 129.351 82.7373 129.021C82.7373 128.733 82.6667 128.508 82.5254 128.344C82.3864 128.18 82.1768 128.098 81.8965 128.098C81.7233 128.098 81.5638 128.135 81.418 128.21C81.2721 128.283 81.1571 128.385 81.0728 128.515C80.9884 128.642 80.9463 128.773 80.9463 128.908C80.9463 129.229 81.0329 129.5 81.2061 129.721C81.3815 129.94 81.6048 130.049 81.876 130.049ZM84.1318 128.515C84.1318 126.56 84.9282 125.582 86.521 125.582C86.7716 125.582 86.9836 125.601 87.1567 125.64V126.31C86.9836 126.26 86.783 126.235 86.5552 126.235C86.0197 126.235 85.6175 126.378 85.3486 126.666C85.0798 126.953 84.9339 127.413 84.9111 128.046H84.9521C85.0592 127.862 85.2096 127.719 85.4033 127.619C85.597 127.517 85.8249 127.465 86.0869 127.465C86.5404 127.465 86.8936 127.604 87.1465 127.882C87.3994 128.16 87.5259 128.537 87.5259 129.014C87.5259 129.538 87.3789 129.952 87.085 130.258C86.7933 130.561 86.3945 130.712 85.8887 130.712C85.5309 130.712 85.2199 130.627 84.9556 130.456C84.6912 130.283 84.4873 130.032 84.3438 129.704C84.2025 129.374 84.1318 128.977 84.1318 128.515ZM85.875 130.049C86.1507 130.049 86.3626 129.96 86.5107 129.783C86.6611 129.605 86.7363 129.351 86.7363 129.021C86.7363 128.733 86.6657 128.508 86.5244 128.344C86.3854 128.18 86.1758 128.098 85.8955 128.098C85.7223 128.098 85.5628 128.135 85.417 128.21C85.2712 128.283 85.1561 128.385 85.0718 128.515C84.9875 128.642 84.9453 128.773 84.9453 128.908C84.9453 129.229 85.0319 129.5 85.2051 129.721C85.3805 129.94 85.6038 130.049 85.875 130.049ZM91.4976 127.78C91.4976 128.764 91.2993 129.499 90.9028 129.984C90.5063 130.47 89.9093 130.712 89.1118 130.712C88.8088 130.712 88.5911 130.694 88.459 130.658V129.984C88.6618 130.041 88.8657 130.07 89.0708 130.07C89.6131 130.07 90.0176 129.924 90.2842 129.632C90.5508 129.341 90.6966 128.883 90.7217 128.258H90.6807C90.5462 128.463 90.3833 128.611 90.1919 128.703C90.0028 128.794 89.7806 128.839 89.5254 128.839C89.0833 128.839 88.7358 128.701 88.4829 128.426C88.23 128.15 88.1035 127.772 88.1035 127.291C88.1035 126.769 88.2493 126.354 88.541 126.047C88.835 125.737 89.2349 125.582 89.7407 125.582C90.0962 125.582 90.4061 125.669 90.6704 125.842C90.9347 126.015 91.1387 126.267 91.2822 126.597C91.4258 126.925 91.4976 127.319 91.4976 127.78ZM89.7544 126.249C89.4764 126.249 89.2633 126.34 89.1152 126.522C88.9671 126.702 88.8931 126.956 88.8931 127.284C88.8931 127.569 88.9614 127.793 89.0981 127.958C89.2371 128.119 89.4468 128.2 89.7271 128.2C89.9982 128.2 90.2261 128.119 90.4106 127.958C90.5952 127.796 90.6875 127.607 90.6875 127.39C90.6875 127.187 90.6476 126.998 90.5679 126.823C90.4904 126.645 90.381 126.505 90.2397 126.402C90.0985 126.3 89.9367 126.249 89.7544 126.249ZM94.748 130.644L94.5874 130.118H94.5601C94.3778 130.348 94.1943 130.505 94.0098 130.589C93.8252 130.671 93.5882 130.712 93.2988 130.712C92.9274 130.712 92.6369 130.612 92.4272 130.412C92.2199 130.211 92.1162 129.927 92.1162 129.561C92.1162 129.171 92.2609 128.877 92.5503 128.679C92.8397 128.48 93.2806 128.372 93.873 128.354L94.5259 128.333V128.132C94.5259 127.89 94.4689 127.71 94.355 127.592C94.2433 127.471 94.069 127.411 93.832 127.411C93.6383 127.411 93.4526 127.439 93.2749 127.496C93.0972 127.553 92.9263 127.62 92.7622 127.698L92.5024 127.124C92.7075 127.016 92.932 126.936 93.1758 126.881C93.4196 126.824 93.6497 126.795 93.8662 126.795C94.347 126.795 94.7093 126.9 94.9531 127.11C95.1992 127.319 95.3223 127.649 95.3223 128.098V130.644H94.748ZM93.5518 130.097C93.8434 130.097 94.077 130.016 94.2524 129.854C94.4302 129.69 94.519 129.461 94.519 129.167V128.839L94.0337 128.86C93.6554 128.874 93.3797 128.937 93.2065 129.051C93.0356 129.163 92.9502 129.335 92.9502 129.567C92.9502 129.736 93.0003 129.867 93.1006 129.96C93.2008 130.052 93.3512 130.097 93.5518 130.097ZM99.5571 127.78C99.5571 128.764 99.3589 129.499 98.9624 129.984C98.5659 130.47 97.9689 130.712 97.1714 130.712C96.8683 130.712 96.6507 130.694 96.5186 130.658V129.984C96.7214 130.041 96.9253 130.07 97.1304 130.07C97.6727 130.07 98.0771 129.924 98.3438 129.632C98.6104 129.341 98.7562 128.883 98.7812 128.258H98.7402C98.6058 128.463 98.4429 128.611 98.2515 128.703C98.0623 128.794 97.8402 128.839 97.585 128.839C97.1429 128.839 96.7954 128.701 96.5425 128.426C96.2896 128.15 96.1631 127.772 96.1631 127.291C96.1631 126.769 96.3089 126.354 96.6006 126.047C96.8945 125.737 97.2944 125.582 97.8003 125.582C98.1558 125.582 98.4657 125.669 98.73 125.842C98.9943 126.015 99.1982 126.267 99.3418 126.597C99.4854 126.925 99.5571 127.319 99.5571 127.78ZM97.814 126.249C97.536 126.249 97.3229 126.34 97.1748 126.522C97.0267 126.702 96.9526 126.956 96.9526 127.284C96.9526 127.569 97.021 127.793 97.1577 127.958C97.2967 128.119 97.5063 128.2 97.7866 128.2C98.0578 128.2 98.2856 128.119 98.4702 127.958C98.6548 127.796 98.7471 127.607 98.7471 127.39C98.7471 127.187 98.7072 126.998 98.6274 126.823C98.55 126.645 98.4406 126.505 98.2993 126.402C98.158 126.3 97.9963 126.249 97.814 126.249ZM101.338 130.644H100.528V125.647H103.348V126.337H101.338V127.899H103.221V128.593H101.338V130.644ZM108.317 128.098C108.317 128.923 108.088 129.554 107.63 129.991C107.172 130.426 106.513 130.644 105.651 130.644H104.253V125.647H105.798C106.594 125.647 107.212 125.861 107.654 126.29C108.096 126.718 108.317 127.321 108.317 128.098ZM107.456 128.125C107.456 126.929 106.897 126.331 105.778 126.331H105.07V129.957H105.651C106.854 129.957 107.456 129.346 107.456 128.125ZM112.422 127.78C112.422 128.764 112.224 129.499 111.828 129.984C111.431 130.47 110.834 130.712 110.037 130.712C109.734 130.712 109.516 130.694 109.384 130.658V129.984C109.587 130.041 109.791 130.07 109.996 130.07C110.538 130.07 110.942 129.924 111.209 129.632C111.476 129.341 111.621 128.883 111.646 128.258H111.605C111.471 128.463 111.308 128.611 111.117 128.703C110.928 128.794 110.705 128.839 110.45 128.839C110.008 128.839 109.661 128.701 109.408 128.426C109.155 128.15 109.028 127.772 109.028 127.291C109.028 126.769 109.174 126.354 109.466 126.047C109.76 125.737 110.16 125.582 110.666 125.582C111.021 125.582 111.331 125.669 111.595 125.842C111.86 126.015 112.063 126.267 112.207 126.597C112.351 126.925 112.422 127.319 112.422 127.78ZM110.679 126.249C110.401 126.249 110.188 126.34 110.04 126.522C109.892 126.702 109.818 126.956 109.818 127.284C109.818 127.569 109.886 127.793 110.023 127.958C110.162 128.119 110.372 128.2 110.652 128.2C110.923 128.2 111.151 128.119 111.335 127.958C111.52 127.796 111.612 127.607 111.612 127.39C111.612 127.187 111.572 126.998 111.493 126.823C111.415 126.645 111.306 126.505 111.165 126.402C111.023 126.3 110.861 126.249 110.679 126.249ZM116.24 126.795C116.24 127.112 116.148 127.376 115.963 127.588C115.779 127.798 115.519 127.939 115.184 128.012V128.04C115.585 128.09 115.886 128.215 116.086 128.416C116.287 128.614 116.387 128.878 116.387 129.208C116.387 129.689 116.217 130.061 115.878 130.323C115.538 130.583 115.055 130.712 114.429 130.712C113.875 130.712 113.408 130.622 113.027 130.442V129.728C113.239 129.833 113.464 129.914 113.701 129.971C113.938 130.028 114.166 130.056 114.384 130.056C114.772 130.056 115.061 129.984 115.252 129.841C115.444 129.697 115.54 129.475 115.54 129.174C115.54 128.908 115.434 128.712 115.222 128.586C115.01 128.461 114.677 128.398 114.224 128.398H113.79V127.746H114.23C115.028 127.746 115.427 127.47 115.427 126.918C115.427 126.704 115.357 126.539 115.218 126.423C115.079 126.307 114.874 126.249 114.603 126.249C114.414 126.249 114.232 126.276 114.056 126.331C113.881 126.383 113.673 126.487 113.434 126.642L113.041 126.081C113.499 125.744 114.031 125.575 114.637 125.575C115.141 125.575 115.534 125.683 115.816 125.9C116.099 126.116 116.24 126.415 116.24 126.795ZM118.582 130.712C118.11 130.712 117.742 130.542 117.478 130.2C117.213 129.858 117.081 129.378 117.081 128.761C117.081 128.141 117.214 127.659 117.481 127.315C117.75 126.969 118.121 126.795 118.595 126.795C119.092 126.795 119.47 126.979 119.73 127.346H119.771C119.732 127.075 119.713 126.86 119.713 126.703V125.326H120.52V130.644H119.891L119.75 130.148H119.713C119.455 130.524 119.078 130.712 118.582 130.712ZM118.797 130.063C119.127 130.063 119.368 129.971 119.518 129.786C119.668 129.599 119.746 129.297 119.75 128.88V128.768C119.75 128.291 119.673 127.953 119.518 127.752C119.363 127.552 119.12 127.452 118.79 127.452C118.507 127.452 118.29 127.567 118.137 127.797C117.985 128.025 117.908 128.351 117.908 128.774C117.908 129.194 117.982 129.514 118.13 129.735C118.278 129.954 118.501 130.063 118.797 130.063ZM123.097 127.523C123.6 127.523 123.999 127.657 124.293 127.923C124.587 128.19 124.734 128.553 124.734 129.014C124.734 129.547 124.566 129.964 124.231 130.265C123.899 130.563 123.425 130.712 122.81 130.712C122.251 130.712 121.813 130.622 121.494 130.442V129.714C121.678 129.819 121.89 129.9 122.129 129.957C122.369 130.014 122.591 130.042 122.796 130.042C123.158 130.042 123.434 129.962 123.623 129.8C123.812 129.638 123.907 129.401 123.907 129.089C123.907 128.492 123.526 128.193 122.765 128.193C122.658 128.193 122.526 128.205 122.369 128.228C122.211 128.248 122.074 128.272 121.955 128.299L121.596 128.087L121.788 125.647H124.385V126.361H122.495L122.382 127.599C122.462 127.585 122.559 127.569 122.673 127.551C122.789 127.533 122.93 127.523 123.097 127.523ZM126.562 130.644H125.752V125.647H128.572V126.337H126.562V127.899H128.446V128.593H126.562V130.644ZM132.513 130.644H129.126V130.036L130.415 128.74C130.795 128.351 131.047 128.075 131.17 127.913C131.295 127.749 131.386 127.595 131.443 127.452C131.5 127.308 131.529 127.154 131.529 126.99C131.529 126.765 131.46 126.587 131.324 126.457C131.189 126.327 131.002 126.262 130.763 126.262C130.572 126.262 130.386 126.298 130.206 126.368C130.028 126.439 129.822 126.566 129.587 126.751L129.153 126.221C129.431 125.986 129.701 125.82 129.963 125.722C130.225 125.624 130.505 125.575 130.801 125.575C131.266 125.575 131.638 125.697 131.918 125.941C132.199 126.182 132.339 126.508 132.339 126.918C132.339 127.144 132.298 127.358 132.216 127.561C132.136 127.764 132.012 127.973 131.843 128.19C131.677 128.404 131.399 128.695 131.009 129.062L130.141 129.902V129.937H132.513V130.644ZM134.813 125.582C135.287 125.582 135.662 125.691 135.938 125.91C136.214 126.127 136.352 126.417 136.352 126.782C136.352 127.294 136.044 127.702 135.429 128.005C135.821 128.201 136.099 128.408 136.263 128.624C136.429 128.84 136.512 129.082 136.512 129.349C136.512 129.761 136.361 130.091 136.058 130.34C135.755 130.588 135.344 130.712 134.827 130.712C134.285 130.712 133.864 130.596 133.566 130.364C133.267 130.131 133.118 129.802 133.118 129.376C133.118 129.098 133.196 128.848 133.351 128.627C133.508 128.404 133.764 128.206 134.12 128.033C133.814 127.85 133.597 127.658 133.467 127.455C133.337 127.252 133.272 127.024 133.272 126.771C133.272 126.409 133.414 126.121 133.699 125.907C133.984 125.69 134.355 125.582 134.813 125.582ZM133.887 129.349C133.887 129.586 133.97 129.77 134.137 129.902C134.303 130.032 134.529 130.097 134.813 130.097C135.107 130.097 135.335 130.03 135.497 129.896C135.661 129.759 135.743 129.574 135.743 129.342C135.743 129.157 135.668 128.989 135.518 128.836C135.367 128.683 135.139 128.542 134.834 128.412L134.735 128.368C134.434 128.5 134.218 128.646 134.085 128.805C133.953 128.962 133.887 129.144 133.887 129.349ZM134.807 126.201C134.579 126.201 134.395 126.258 134.256 126.372C134.117 126.483 134.048 126.636 134.048 126.83C134.048 126.948 134.073 127.054 134.123 127.147C134.173 127.241 134.246 127.326 134.342 127.404C134.438 127.479 134.599 127.57 134.827 127.677C135.101 127.556 135.293 127.43 135.405 127.298C135.519 127.163 135.576 127.007 135.576 126.83C135.576 126.636 135.505 126.483 135.364 126.372C135.225 126.258 135.039 126.201 134.807 126.201ZM141.54 128.098C141.54 128.923 141.311 129.554 140.853 129.991C140.395 130.426 139.735 130.644 138.874 130.644H137.476V125.647H139.021C139.816 125.647 140.435 125.861 140.877 126.29C141.319 126.718 141.54 127.321 141.54 128.098ZM140.679 128.125C140.679 126.929 140.119 126.331 139 126.331H138.293V129.957H138.874C140.077 129.957 140.679 129.346 140.679 128.125ZM145.645 127.78C145.645 128.764 145.447 129.499 145.05 129.984C144.654 130.47 144.057 130.712 143.259 130.712C142.956 130.712 142.739 130.694 142.606 130.658V129.984C142.809 130.041 143.013 130.07 143.218 130.07C143.761 130.07 144.165 129.924 144.432 129.632C144.698 129.341 144.844 128.883 144.869 128.258H144.828C144.694 128.463 144.531 128.611 144.339 128.703C144.15 128.794 143.928 128.839 143.673 128.839C143.231 128.839 142.883 128.701 142.63 128.426C142.377 128.15 142.251 127.772 142.251 127.291C142.251 126.769 142.397 126.354 142.688 126.047C142.982 125.737 143.382 125.582 143.888 125.582C144.244 125.582 144.554 125.669 144.818 125.842C145.082 126.015 145.286 126.267 145.43 126.597C145.573 126.925 145.645 127.319 145.645 127.78ZM143.902 126.249C143.624 126.249 143.411 126.34 143.263 126.522C143.115 126.702 143.041 126.956 143.041 127.284C143.041 127.569 143.109 127.793 143.246 127.958C143.385 128.119 143.594 128.2 143.875 128.2C144.146 128.2 144.374 128.119 144.558 127.958C144.743 127.796 144.835 127.607 144.835 127.39C144.835 127.187 144.795 126.998 144.715 126.823C144.638 126.645 144.528 126.505 144.387 126.402C144.246 126.3 144.084 126.249 143.902 126.249ZM149.442 130.644H146.616V125.647H149.442V126.337H147.433V127.698H149.316V128.381H147.433V129.95H149.442V130.644ZM151.965 130.712C151.393 130.712 150.958 130.546 150.659 130.213C150.363 129.878 150.215 129.399 150.215 128.774C150.215 128.139 150.37 127.65 150.68 127.308C150.992 126.966 151.442 126.795 152.03 126.795C152.429 126.795 152.787 126.869 153.106 127.018L152.864 127.664C152.524 127.531 152.244 127.465 152.023 127.465C151.369 127.465 151.042 127.899 151.042 128.768C151.042 129.191 151.123 129.51 151.285 129.725C151.449 129.937 151.688 130.042 152.002 130.042C152.36 130.042 152.699 129.954 153.018 129.776V130.477C152.874 130.561 152.72 130.621 152.556 130.658C152.394 130.694 152.197 130.712 151.965 130.712ZM155.328 125.582C155.802 125.582 156.177 125.691 156.453 125.91C156.728 126.127 156.866 126.417 156.866 126.782C156.866 127.294 156.559 127.702 155.943 128.005C156.335 128.201 156.613 128.408 156.777 128.624C156.944 128.84 157.027 129.082 157.027 129.349C157.027 129.761 156.875 130.091 156.572 130.34C156.269 130.588 155.859 130.712 155.342 130.712C154.799 130.712 154.379 130.596 154.081 130.364C153.782 130.131 153.633 129.802 153.633 129.376C153.633 129.098 153.71 128.848 153.865 128.627C154.022 128.404 154.279 128.206 154.634 128.033C154.329 127.85 154.111 127.658 153.981 127.455C153.852 127.252 153.787 127.024 153.787 126.771C153.787 126.409 153.929 126.121 154.214 125.907C154.499 125.69 154.87 125.582 155.328 125.582ZM154.402 129.349C154.402 129.586 154.485 129.77 154.651 129.902C154.818 130.032 155.043 130.097 155.328 130.097C155.622 130.097 155.85 130.03 156.012 129.896C156.176 129.759 156.258 129.574 156.258 129.342C156.258 129.157 156.183 128.989 156.032 128.836C155.882 128.683 155.654 128.542 155.349 128.412L155.25 128.368C154.949 128.5 154.732 128.646 154.6 128.805C154.468 128.962 154.402 129.144 154.402 129.349ZM155.321 126.201C155.093 126.201 154.91 126.258 154.771 126.372C154.632 126.483 154.562 126.636 154.562 126.83C154.562 126.948 154.588 127.054 154.638 127.147C154.688 127.241 154.761 127.326 154.856 127.404C154.952 127.479 155.114 127.57 155.342 127.677C155.615 127.556 155.808 127.43 155.919 127.298C156.033 127.163 156.09 127.007 156.09 126.83C156.09 126.636 156.02 126.483 155.878 126.372C155.739 126.258 155.554 126.201 155.321 126.201ZM159.334 127.523C159.838 127.523 160.236 127.657 160.53 127.923C160.824 128.19 160.971 128.553 160.971 129.014C160.971 129.547 160.804 129.964 160.469 130.265C160.136 130.563 159.662 130.712 159.047 130.712C158.489 130.712 158.05 130.622 157.731 130.442V129.714C157.916 129.819 158.127 129.9 158.367 129.957C158.606 130.014 158.828 130.042 159.033 130.042C159.396 130.042 159.671 129.962 159.86 129.8C160.049 129.638 160.144 129.401 160.144 129.089C160.144 128.492 159.764 128.193 159.002 128.193C158.895 128.193 158.763 128.205 158.606 128.228C158.449 128.248 158.311 128.272 158.192 128.299L157.833 128.087L158.025 125.647H160.623V126.361H158.732L158.62 127.599C158.699 127.585 158.796 127.569 158.91 127.551C159.026 127.533 159.168 127.523 159.334 127.523ZM164.816 130.644H161.99V125.647H164.816V126.337H162.807V127.698H164.69V128.381H162.807V129.95H164.816V130.644ZM165.695 130.217C165.695 130.05 165.738 129.923 165.825 129.834C165.911 129.745 166.037 129.701 166.201 129.701C166.367 129.701 166.493 129.747 166.58 129.841C166.667 129.932 166.71 130.057 166.71 130.217C166.71 130.379 166.666 130.507 166.577 130.603C166.49 130.696 166.365 130.743 166.201 130.743C166.037 130.743 165.911 130.696 165.825 130.603C165.738 130.51 165.695 130.381 165.695 130.217ZM167.623 130.217C167.623 130.05 167.666 129.923 167.752 129.834C167.839 129.745 167.964 129.701 168.128 129.701C168.295 129.701 168.421 129.747 168.508 129.841C168.594 129.932 168.638 130.057 168.638 130.217C168.638 130.379 168.593 130.507 168.504 130.603C168.418 130.696 168.292 130.743 168.128 130.743C167.964 130.743 167.839 130.696 167.752 130.603C167.666 130.51 167.623 130.381 167.623 130.217ZM169.55 130.217C169.55 130.05 169.594 129.923 169.68 129.834C169.767 129.745 169.892 129.701 170.056 129.701C170.222 129.701 170.349 129.747 170.436 129.841C170.522 129.932 170.565 130.057 170.565 130.217C170.565 130.379 170.521 130.507 170.432 130.603C170.346 130.696 170.22 130.743 170.056 130.743C169.892 130.743 169.767 130.696 169.68 130.603C169.594 130.51 169.55 130.381 169.55 130.217Z" fill="#4B4848"/>
<g filter="url(#filter1_d)">
<path d="M180 130.257V124.683L183.199 122H187.374L187.71 122.388V124.415H189.562L190 124.683V132.642L189.562 133H182.694L182.357 132.642V130.585H180.404L180 130.257Z" stroke="#00E15D" stroke-width="0.3"/>
</g>
<path d="M119.688 167.354H120.037C120.363 167.354 120.607 167.291 120.769 167.163C120.93 167.033 121.011 166.845 121.011 166.599C121.011 166.351 120.943 166.167 120.806 166.049C120.672 165.93 120.46 165.871 120.17 165.871H119.688V167.354ZM122.081 166.562C122.081 167.099 121.912 167.511 121.575 167.795C121.24 168.08 120.763 168.223 120.143 168.223H119.688V170H118.629V165.003H120.225C120.831 165.003 121.292 165.134 121.606 165.396C121.923 165.656 122.081 166.044 122.081 166.562ZM125.369 170L125.167 169.48H125.14C124.965 169.701 124.784 169.855 124.597 169.942C124.412 170.026 124.171 170.068 123.872 170.068C123.505 170.068 123.216 169.964 123.004 169.754C122.794 169.544 122.689 169.246 122.689 168.858C122.689 168.453 122.831 168.154 123.113 167.963C123.398 167.769 123.826 167.662 124.398 167.642L125.062 167.621V167.454C125.062 167.066 124.863 166.873 124.467 166.873C124.161 166.873 123.803 166.965 123.39 167.149L123.045 166.445C123.485 166.215 123.972 166.1 124.508 166.1C125.021 166.1 125.414 166.212 125.687 166.435C125.96 166.658 126.097 166.998 126.097 167.454V170H125.369ZM125.062 168.229L124.658 168.243C124.355 168.252 124.13 168.307 123.981 168.407C123.833 168.507 123.759 168.66 123.759 168.865C123.759 169.159 123.928 169.306 124.265 169.306C124.507 169.306 124.699 169.237 124.843 169.098C124.989 168.959 125.062 168.774 125.062 168.544V168.229ZM126.627 166.179H127.769L128.49 168.329C128.551 168.515 128.593 168.736 128.616 168.992H128.637C128.662 168.757 128.711 168.536 128.784 168.329L129.491 166.179H130.609L128.992 170.489C128.844 170.888 128.632 171.186 128.356 171.384C128.083 171.583 127.763 171.682 127.396 171.682C127.216 171.682 127.039 171.662 126.866 171.624V170.796C126.992 170.826 127.128 170.841 127.276 170.841C127.461 170.841 127.622 170.784 127.758 170.67C127.897 170.558 128.006 170.389 128.083 170.161L128.145 169.973L126.627 166.179ZM136.119 170L135.825 168.664L135.428 166.975H135.404L134.707 170H133.586L132.499 166.179H133.538L133.979 167.871C134.05 168.174 134.121 168.592 134.194 169.125H134.215C134.224 168.952 134.264 168.677 134.334 168.301L134.389 168.011L134.861 166.179H136.009L136.457 168.011C136.466 168.061 136.48 168.135 136.498 168.233C136.519 168.331 136.538 168.436 136.556 168.547C136.574 168.657 136.59 168.765 136.604 168.872C136.62 168.977 136.629 169.061 136.631 169.125H136.652C136.672 168.961 136.709 168.736 136.761 168.452C136.814 168.165 136.851 167.971 136.874 167.871L137.332 166.179H138.354L137.253 170H136.119ZM138.928 165.191C138.928 164.851 139.117 164.682 139.496 164.682C139.874 164.682 140.063 164.851 140.063 165.191C140.063 165.353 140.015 165.479 139.919 165.57C139.826 165.659 139.685 165.704 139.496 165.704C139.117 165.704 138.928 165.533 138.928 165.191ZM140.015 170H138.973V166.179H140.015V170ZM142.722 169.238C142.904 169.238 143.123 169.198 143.378 169.118V169.894C143.119 170.01 142.8 170.068 142.421 170.068C142.004 170.068 141.7 169.964 141.509 169.754C141.32 169.542 141.225 169.225 141.225 168.804V166.961H140.726V166.521L141.3 166.172L141.601 165.365H142.268V166.179H143.337V166.961H142.268V168.804C142.268 168.952 142.309 169.061 142.391 169.132C142.475 169.202 142.585 169.238 142.722 169.238ZM147.682 170H146.639V167.768C146.639 167.217 146.434 166.941 146.024 166.941C145.732 166.941 145.521 167.04 145.392 167.238C145.262 167.437 145.197 167.758 145.197 168.202V170H144.154V164.682H145.197V165.765C145.197 165.849 145.189 166.048 145.173 166.36L145.149 166.667H145.204C145.436 166.294 145.805 166.107 146.311 166.107C146.76 166.107 147.101 166.228 147.333 166.469C147.565 166.711 147.682 167.057 147.682 167.508V170ZM152.771 170L151.568 166.08H151.537C151.58 166.877 151.602 167.409 151.602 167.676V170H150.655V165.003H152.098L153.28 168.824H153.301L154.555 165.003H155.998V170H155.01V167.635C155.01 167.523 155.011 167.394 155.013 167.249C155.018 167.103 155.034 166.715 155.061 166.086H155.03L153.742 170H152.771ZM158.759 166.849C158.538 166.849 158.365 166.919 158.24 167.061C158.114 167.2 158.043 167.398 158.024 167.655H159.487C159.483 167.398 159.416 167.2 159.286 167.061C159.156 166.919 158.98 166.849 158.759 166.849ZM158.906 170.068C158.291 170.068 157.81 169.899 157.464 169.559C157.118 169.22 156.944 168.739 156.944 168.117C156.944 167.476 157.104 166.982 157.423 166.633C157.744 166.282 158.187 166.107 158.752 166.107C159.292 166.107 159.713 166.261 160.014 166.568C160.314 166.876 160.465 167.301 160.465 167.843V168.349H158C158.012 168.645 158.1 168.877 158.264 169.043C158.428 169.209 158.658 169.292 158.954 169.292C159.184 169.292 159.402 169.269 159.607 169.221C159.812 169.173 160.026 169.097 160.25 168.992V169.798C160.067 169.889 159.872 169.957 159.665 170C159.458 170.046 159.205 170.068 158.906 170.068ZM162.922 169.238C163.105 169.238 163.323 169.198 163.579 169.118V169.894C163.319 170.01 163 170.068 162.622 170.068C162.205 170.068 161.9 169.964 161.709 169.754C161.52 169.542 161.425 169.225 161.425 168.804V166.961H160.926V166.521L161.5 166.172L161.801 165.365H162.468V166.179H163.538V166.961H162.468V168.804C162.468 168.952 162.509 169.061 162.591 169.132C162.675 169.202 162.786 169.238 162.922 169.238ZM166.781 170L166.58 169.48H166.552C166.377 169.701 166.196 169.855 166.009 169.942C165.824 170.026 165.583 170.068 165.284 170.068C164.917 170.068 164.628 169.964 164.416 169.754C164.206 169.544 164.102 169.246 164.102 168.858C164.102 168.453 164.243 168.154 164.525 167.963C164.81 167.769 165.239 167.662 165.811 167.642L166.474 167.621V167.454C166.474 167.066 166.275 166.873 165.879 166.873C165.574 166.873 165.215 166.965 164.802 167.149L164.457 166.445C164.897 166.215 165.384 166.1 165.92 166.1C166.433 166.1 166.826 166.212 167.099 166.435C167.373 166.658 167.509 166.998 167.509 167.454V170H166.781ZM166.474 168.229L166.07 168.243C165.767 168.252 165.542 168.307 165.394 168.407C165.245 168.507 165.171 168.66 165.171 168.865C165.171 169.159 165.34 169.306 165.677 169.306C165.919 169.306 166.111 169.237 166.255 169.098C166.401 168.959 166.474 168.774 166.474 168.544V168.229ZM172.007 170H170.965V167.768C170.965 167.492 170.918 167.286 170.825 167.149C170.734 167.01 170.589 166.941 170.391 166.941C170.124 166.941 169.93 167.039 169.81 167.235C169.689 167.431 169.628 167.753 169.628 168.202V170H168.586V166.179H169.382L169.522 166.667H169.581C169.683 166.492 169.831 166.355 170.025 166.257C170.219 166.157 170.441 166.107 170.691 166.107C171.263 166.107 171.651 166.294 171.854 166.667H171.946C172.048 166.49 172.199 166.352 172.397 166.254C172.597 166.156 172.823 166.107 173.074 166.107C173.507 166.107 173.834 166.219 174.055 166.442C174.278 166.663 174.39 167.018 174.39 167.508V170H173.344V167.768C173.344 167.492 173.297 167.286 173.204 167.149C173.112 167.01 172.968 166.941 172.77 166.941C172.514 166.941 172.323 167.032 172.195 167.214C172.07 167.397 172.007 167.686 172.007 168.083V170ZM177.89 170L177.688 169.48H177.661C177.485 169.701 177.304 169.855 177.117 169.942C176.933 170.026 176.691 170.068 176.393 170.068C176.026 170.068 175.736 169.964 175.524 169.754C175.315 169.544 175.21 169.246 175.21 168.858C175.21 168.453 175.351 168.154 175.634 167.963C175.919 167.769 176.347 167.662 176.919 167.642L177.582 167.621V167.454C177.582 167.066 177.384 166.873 176.987 166.873C176.682 166.873 176.323 166.965 175.911 167.149L175.565 166.445C176.005 166.215 176.493 166.1 177.028 166.1C177.541 166.1 177.934 166.212 178.208 166.435C178.481 166.658 178.618 166.998 178.618 167.454V170H177.89ZM177.582 168.229L177.179 168.243C176.876 168.252 176.65 168.307 176.502 168.407C176.354 168.507 176.28 168.66 176.28 168.865C176.28 169.159 176.448 169.306 176.786 169.306C177.027 169.306 177.22 169.237 177.363 169.098C177.509 168.959 177.582 168.774 177.582 168.544V168.229ZM182.36 168.865C182.36 169.257 182.224 169.556 181.95 169.761C181.679 169.966 181.272 170.068 180.73 170.068C180.452 170.068 180.215 170.049 180.019 170.01C179.823 169.974 179.64 169.919 179.469 169.846V168.985C179.662 169.076 179.88 169.152 180.122 169.214C180.365 169.275 180.58 169.306 180.764 169.306C181.142 169.306 181.332 169.197 181.332 168.978C181.332 168.896 181.306 168.83 181.256 168.78C181.206 168.727 181.12 168.669 180.997 168.605C180.874 168.539 180.709 168.463 180.504 168.376C180.21 168.253 179.994 168.139 179.855 168.035C179.718 167.93 179.618 167.81 179.554 167.676C179.493 167.539 179.462 167.372 179.462 167.173C179.462 166.834 179.593 166.572 179.855 166.387C180.119 166.2 180.493 166.107 180.976 166.107C181.436 166.107 181.884 166.207 182.319 166.408L182.005 167.16C181.813 167.078 181.635 167.01 181.468 166.958C181.302 166.906 181.132 166.879 180.959 166.879C180.651 166.879 180.498 166.963 180.498 167.129C180.498 167.222 180.547 167.303 180.645 167.372C180.745 167.44 180.962 167.541 181.297 167.676C181.596 167.797 181.815 167.909 181.954 168.014C182.093 168.119 182.195 168.24 182.261 168.376C182.327 168.513 182.36 168.676 182.36 168.865ZM184.175 167.922L184.63 167.341L185.7 166.179H186.875L185.358 167.836L186.968 170H185.765L184.664 168.452L184.216 168.811V170H183.174V164.682H184.216V167.054L184.162 167.922H184.175Z" fill="white"/>
<path d="M47.5786 168.612C47.5786 169.063 47.4157 169.419 47.0898 169.679C46.7663 169.938 46.3151 170.068 45.7363 170.068C45.2031 170.068 44.7314 169.968 44.3213 169.768V168.783C44.6585 168.934 44.9434 169.04 45.1758 169.101C45.4105 169.163 45.6247 169.193 45.8184 169.193C46.0508 169.193 46.2285 169.149 46.3516 169.06C46.4769 168.971 46.5396 168.839 46.5396 168.664C46.5396 168.566 46.5122 168.479 46.4575 168.404C46.4028 168.326 46.3219 168.252 46.2148 168.182C46.11 168.111 45.8947 167.998 45.5688 167.843C45.2635 167.7 45.0345 167.562 44.8818 167.43C44.7292 167.298 44.6073 167.144 44.5161 166.968C44.425 166.793 44.3794 166.588 44.3794 166.353C44.3794 165.911 44.5286 165.563 44.8271 165.311C45.1279 165.058 45.5426 164.931 46.0713 164.931C46.3311 164.931 46.5783 164.962 46.813 165.023C47.05 165.085 47.2972 165.172 47.5547 165.283L47.2129 166.107C46.9463 165.998 46.7253 165.921 46.5498 165.878C46.3766 165.835 46.2057 165.813 46.0371 165.813C45.8366 165.813 45.6828 165.86 45.5757 165.953C45.4686 166.047 45.415 166.168 45.415 166.319C45.415 166.412 45.4367 166.494 45.48 166.565C45.5233 166.633 45.5916 166.701 45.6851 166.767C45.7808 166.83 46.0052 166.947 46.3584 167.115C46.8255 167.339 47.1457 167.563 47.3188 167.789C47.492 168.012 47.5786 168.286 47.5786 168.612ZM49.4038 167.922L49.8584 167.341L50.9282 166.179H52.104L50.5864 167.836L52.1963 170H50.9932L49.8926 168.452L49.4448 168.811V170H48.4023V164.682H49.4448V167.054L49.3901 167.922H49.4038ZM52.6987 165.191C52.6987 164.851 52.8879 164.682 53.2661 164.682C53.6444 164.682 53.8335 164.851 53.8335 165.191C53.8335 165.353 53.7856 165.479 53.6899 165.57C53.5965 165.659 53.4552 165.704 53.2661 165.704C52.8879 165.704 52.6987 165.533 52.6987 165.191ZM53.7856 170H52.7432V166.179H53.7856V170ZM56.9814 170.068C56.5326 170.068 56.1805 169.905 55.9253 169.58H55.8706C55.9071 169.899 55.9253 170.083 55.9253 170.133V171.682H54.8828V166.179H55.7305L55.8774 166.674H55.9253C56.1691 166.296 56.5303 166.107 57.0088 166.107C57.46 166.107 57.8132 166.281 58.0684 166.63C58.3236 166.979 58.4512 167.463 58.4512 168.083C58.4512 168.49 58.3908 168.845 58.27 169.146C58.1515 169.446 57.9818 169.675 57.7607 169.833C57.5397 169.99 57.2799 170.068 56.9814 170.068ZM56.6738 166.941C56.4163 166.941 56.2284 167.021 56.1099 167.18C55.9914 167.337 55.9299 167.598 55.9253 167.963V168.076C55.9253 168.486 55.9857 168.78 56.1064 168.958C56.2295 169.135 56.4232 169.224 56.6875 169.224C57.1546 169.224 57.3882 168.839 57.3882 168.069C57.3882 167.693 57.3301 167.411 57.2139 167.225C57.0999 167.035 56.9199 166.941 56.6738 166.941ZM62.7407 169.238C62.923 169.238 63.1418 169.198 63.397 169.118V169.894C63.1372 170.01 62.8182 170.068 62.4399 170.068C62.0229 170.068 61.7188 169.964 61.5273 169.754C61.3382 169.542 61.2437 169.225 61.2437 168.804V166.961H60.7446V166.521L61.3188 166.172L61.6196 165.365H62.2861V166.179H63.356V166.961H62.2861V168.804C62.2861 168.952 62.3271 169.061 62.4092 169.132C62.4935 169.202 62.604 169.238 62.7407 169.238ZM65.0034 168.083C65.0034 168.461 65.0649 168.747 65.188 168.94C65.3133 169.134 65.5161 169.231 65.7964 169.231C66.0744 169.231 66.2738 169.135 66.3945 168.944C66.5176 168.75 66.5791 168.463 66.5791 168.083C66.5791 167.704 66.5176 167.421 66.3945 167.231C66.2715 167.042 66.0698 166.948 65.7896 166.948C65.5116 166.948 65.311 167.042 65.188 167.231C65.0649 167.418 65.0034 167.702 65.0034 168.083ZM67.6455 168.083C67.6455 168.705 67.4814 169.191 67.1533 169.542C66.8252 169.893 66.3683 170.068 65.7827 170.068C65.4159 170.068 65.0923 169.989 64.812 169.829C64.5317 169.667 64.3164 169.436 64.166 169.135C64.0156 168.834 63.9404 168.484 63.9404 168.083C63.9404 167.458 64.1034 166.973 64.4292 166.626C64.755 166.28 65.2131 166.107 65.8032 166.107C66.1701 166.107 66.4937 166.187 66.7739 166.346C67.0542 166.506 67.2695 166.735 67.4199 167.033C67.5703 167.332 67.6455 167.681 67.6455 168.083ZM71.5352 170.068C71.0863 170.068 70.7331 169.894 70.4756 169.545C70.2204 169.197 70.0928 168.714 70.0928 168.096C70.0928 167.47 70.2227 166.982 70.4824 166.633C70.7445 166.282 71.1045 166.107 71.5625 166.107C72.0433 166.107 72.4102 166.294 72.6631 166.667H72.6973C72.6449 166.383 72.6187 166.129 72.6187 165.905V164.682H73.6646V170H72.8647L72.6631 169.504H72.6187C72.3817 169.88 72.0205 170.068 71.5352 170.068ZM71.9009 169.238C72.1675 169.238 72.3623 169.16 72.4854 169.005C72.6107 168.85 72.679 168.587 72.6904 168.216V168.103C72.6904 167.693 72.6266 167.399 72.499 167.221C72.3737 167.043 72.1686 166.955 71.8838 166.955C71.6514 166.955 71.4702 167.054 71.3403 167.252C71.2127 167.448 71.1489 167.734 71.1489 168.11C71.1489 168.486 71.2139 168.768 71.3438 168.958C71.4736 169.144 71.6593 169.238 71.9009 169.238ZM76.8877 166.107C77.029 166.107 77.1463 166.117 77.2397 166.138L77.1611 167.115C77.0768 167.092 76.9743 167.081 76.8535 167.081C76.5208 167.081 76.2611 167.167 76.0742 167.337C75.8896 167.508 75.7974 167.748 75.7974 168.055V170H74.7549V166.179H75.5444L75.6982 166.821H75.7495C75.868 166.607 76.0275 166.435 76.228 166.305C76.4308 166.173 76.6507 166.107 76.8877 166.107ZM80.3604 170L80.1587 169.48H80.1313C79.9559 169.701 79.7747 169.855 79.5879 169.942C79.4033 170.026 79.1618 170.068 78.8633 170.068C78.4964 170.068 78.207 169.964 77.9951 169.754C77.7855 169.544 77.6807 169.246 77.6807 168.858C77.6807 168.453 77.8219 168.154 78.1045 167.963C78.3893 167.769 78.8177 167.662 79.3896 167.642L80.0527 167.621V167.454C80.0527 167.066 79.8545 166.873 79.458 166.873C79.1527 166.873 78.7938 166.965 78.3813 167.149L78.0361 166.445C78.4759 166.215 78.9635 166.1 79.499 166.1C80.0117 166.1 80.4048 166.212 80.6782 166.435C80.9517 166.658 81.0884 166.998 81.0884 167.454V170H80.3604ZM80.0527 168.229L79.6494 168.243C79.3464 168.252 79.1208 168.307 78.9727 168.407C78.8245 168.507 78.7505 168.66 78.7505 168.865C78.7505 169.159 78.9191 169.306 79.2563 169.306C79.4979 169.306 79.6904 169.237 79.834 169.098C79.9798 168.959 80.0527 168.774 80.0527 168.544V168.229ZM84.2773 166.961H83.375V170H82.3325V166.961H81.7583V166.459L82.3325 166.179V165.898C82.3325 165.463 82.4396 165.145 82.6538 164.945C82.868 164.744 83.2109 164.644 83.6826 164.644C84.0426 164.644 84.3628 164.698 84.6431 164.805L84.3765 165.57C84.1668 165.504 83.9731 165.471 83.7954 165.471C83.6473 165.471 83.5402 165.516 83.4741 165.604C83.408 165.691 83.375 165.803 83.375 165.939V166.179H84.2773V166.961ZM86.4888 169.238C86.6711 169.238 86.8898 169.198 87.145 169.118V169.894C86.8853 170.01 86.5662 170.068 86.188 170.068C85.771 170.068 85.4668 169.964 85.2754 169.754C85.0863 169.542 84.9917 169.225 84.9917 168.804V166.961H84.4927V166.521L85.0669 166.172L85.3677 165.365H86.0342V166.179H87.104V166.961H86.0342V168.804C86.0342 168.952 86.0752 169.061 86.1572 169.132C86.2415 169.202 86.3521 169.238 86.4888 169.238Z" fill="white"/>
</g>
</g>
<defs>
<filter id="filter0_d" x="0" y="0" width="208" height="208" filterUnits="userSpaceOnUse" color-interpolation-filters="sRGB">
<feFlood flood-opacity="0" result="BackgroundImageFix"/>
<feColorMatrix in="SourceAlpha" type="matrix" values="0 0 0 0 0 0 0 0 0 0 0 0 0 0 0 0 0 0 127 0"/>
<feOffset dy="4"/>
<feGaussianBlur stdDeviation="2"/>
<feColorMatrix type="matrix" values="0 0 0 0 0 0 0 0 0 0 0 0 0 0 0 0 0 0 0.25 0"/>
<feBlend mode="normal" in2="BackgroundImageFix" result="effect1_dropShadow"/>
<feBlend mode="normal" in="SourceGraphic" in2="effect1_dropShadow" result="shape"/>
</filter>
<filter id="filter1_d" x="175.85" y="121.85" width="18.3" height="19.3" filterUnits="userSpaceOnUse" color-interpolation-filters="sRGB">
<feFlood flood-opacity="0" result="BackgroundImageFix"/>
<feColorMatrix in="SourceAlpha" type="matrix" values="0 0 0 0 0 0 0 0 0 0 0 0 0 0 0 0 0 0 127 0"/>
<feOffset dy="4"/>
<feGaussianBlur stdDeviation="2"/>
<feColorMatrix type="matrix" values="0 0 0 0 0 0 0 0 0 0 0 0 0 0 0 0 0 0 0.25 0"/>
<feBlend mode="normal" in2="BackgroundImageFix" result="effect1_dropShadow"/>
<feBlend mode="normal" in="SourceGraphic" in2="effect1_dropShadow" result="shape"/>
</filter>
<clipPath id="clip0">
<rect x="4" width="200" height="200" rx="20" fill="white"/>
</clipPath>
</defs>
</svg>
