<svg width="208" height="208" viewBox="0 0 208 208" fill="none" xmlns="http://www.w3.org/2000/svg">
<g filter="url(#filter0_d)">
<g clip-path="url(#clip0)">
<rect x="4" width="200" height="200" rx="20" fill="white"/>
<rect x="29.35" y="62.35" width="151.3" height="14.3" rx="1.65" fill="white" stroke="#E7E7EA" stroke-width="0.7"/>
<rect x="29.35" y="160.35" width="151.3" height="14.3" rx="1.65" fill="white" stroke="#E7E7EA" stroke-width="0.7"/>
<path d="M59.5127 21.0186C58.943 21.0186 58.502 21.2334 58.1895 21.6631C57.877 22.0895 57.7207 22.6852 57.7207 23.4502C57.7207 25.042 58.318 25.8379 59.5127 25.8379C60.014 25.8379 60.6211 25.7126 61.334 25.4619V26.7314C60.748 26.9756 60.0938 27.0977 59.3711 27.0977C58.3327 27.0977 57.5384 26.7835 56.9883 26.1553C56.4382 25.5238 56.1631 24.6188 56.1631 23.4404C56.1631 22.6982 56.2982 22.0488 56.5684 21.4922C56.8385 20.9323 57.2259 20.5042 57.7305 20.208C58.2383 19.9085 58.8324 19.7588 59.5127 19.7588C60.2061 19.7588 60.9027 19.9264 61.6025 20.2617L61.1143 21.4922C60.8473 21.3652 60.5788 21.2546 60.3086 21.1602C60.0384 21.0658 59.7731 21.0186 59.5127 21.0186ZM65.7871 21.4385C65.9889 21.4385 66.1566 21.4531 66.29 21.4824L66.1777 22.8789C66.0573 22.8464 65.9108 22.8301 65.7383 22.8301C65.263 22.8301 64.8919 22.9521 64.625 23.1963C64.3613 23.4404 64.2295 23.7822 64.2295 24.2217V27H62.7402V21.541H63.8682L64.0879 22.459H64.1611C64.3304 22.153 64.5583 21.9072 64.8447 21.7217C65.1344 21.5329 65.4486 21.4385 65.7871 21.4385ZM69.542 22.498C69.2262 22.498 68.9788 22.599 68.7998 22.8008C68.6208 22.9993 68.5182 23.2826 68.4922 23.6504H70.582C70.5755 23.2826 70.4795 22.9993 70.2939 22.8008C70.1084 22.599 69.8577 22.498 69.542 22.498ZM69.752 27.0977C68.873 27.0977 68.1862 26.8551 67.6914 26.3701C67.1966 25.8851 66.9492 25.1982 66.9492 24.3096C66.9492 23.3949 67.1771 22.6885 67.6328 22.1904C68.0918 21.6891 68.7249 21.4385 69.5322 21.4385C70.3037 21.4385 70.9043 21.6582 71.334 22.0977C71.7637 22.5371 71.9785 23.1442 71.9785 23.9189V24.6416H68.458C68.4743 25.0648 68.5996 25.3952 68.834 25.6328C69.0684 25.8704 69.3971 25.9893 69.8203 25.9893C70.1491 25.9893 70.46 25.9551 70.7529 25.8867C71.0459 25.8184 71.3519 25.7093 71.6709 25.5596V26.7119C71.4105 26.8421 71.1322 26.9382 70.8359 27C70.5397 27.0651 70.1784 27.0977 69.752 27.0977ZM76.6562 27L76.3682 26.2578H76.3291C76.0785 26.5736 75.8197 26.7933 75.5527 26.917C75.2891 27.0374 74.944 27.0977 74.5176 27.0977C73.9935 27.0977 73.5801 26.9479 73.2773 26.6484C72.9779 26.349 72.8281 25.9225 72.8281 25.3691C72.8281 24.7897 73.0299 24.3633 73.4336 24.0898C73.8405 23.8132 74.4525 23.6602 75.2695 23.6309L76.2168 23.6016V23.3623C76.2168 22.8089 75.9336 22.5322 75.3672 22.5322C74.931 22.5322 74.4183 22.6641 73.8291 22.9277L73.3359 21.9219C73.9642 21.5931 74.6608 21.4287 75.4258 21.4287C76.1582 21.4287 76.7197 21.5882 77.1104 21.9072C77.501 22.2262 77.6963 22.7113 77.6963 23.3623V27H76.6562ZM76.2168 24.4707L75.6406 24.4902C75.2077 24.5033 74.8854 24.5814 74.6738 24.7246C74.4622 24.8678 74.3564 25.0859 74.3564 25.3789C74.3564 25.7988 74.5973 26.0088 75.0791 26.0088C75.4242 26.0088 75.6992 25.9095 75.9043 25.7109C76.1126 25.5124 76.2168 25.2487 76.2168 24.9199V24.4707ZM81.5342 25.9111C81.7946 25.9111 82.1071 25.8542 82.4717 25.7402V26.8486C82.1006 27.0146 81.6449 27.0977 81.1045 27.0977C80.5088 27.0977 80.0742 26.9479 79.8008 26.6484C79.5306 26.3457 79.3955 25.8932 79.3955 25.291V22.6592H78.6826V22.0293L79.5029 21.5312L79.9326 20.3789H80.8848V21.541H82.4131V22.6592H80.8848V25.291C80.8848 25.5026 80.9434 25.6589 81.0605 25.7598C81.181 25.8607 81.3389 25.9111 81.5342 25.9111ZM85.8408 22.498C85.5251 22.498 85.2777 22.599 85.0986 22.8008C84.9196 22.9993 84.8171 23.2826 84.791 23.6504H86.8809C86.8743 23.2826 86.7783 22.9993 86.5928 22.8008C86.4072 22.599 86.1566 22.498 85.8408 22.498ZM86.0508 27.0977C85.1719 27.0977 84.485 26.8551 83.9902 26.3701C83.4954 25.8851 83.248 25.1982 83.248 24.3096C83.248 23.3949 83.4759 22.6885 83.9316 22.1904C84.3906 21.6891 85.0238 21.4385 85.8311 21.4385C86.6025 21.4385 87.2031 21.6582 87.6328 22.0977C88.0625 22.5371 88.2773 23.1442 88.2773 23.9189V24.6416H84.7568C84.7731 25.0648 84.8984 25.3952 85.1328 25.6328C85.3672 25.8704 85.696 25.9893 86.1191 25.9893C86.4479 25.9893 86.7588 25.9551 87.0518 25.8867C87.3447 25.8184 87.6507 25.7093 87.9697 25.5596V26.7119C87.7093 26.8421 87.431 26.9382 87.1348 27C86.8385 27.0651 86.4772 27.0977 86.0508 27.0977ZM91.3047 21.541H92.9355L93.9658 24.6123C94.0537 24.8792 94.1139 25.195 94.1465 25.5596H94.1758C94.2116 25.2243 94.2816 24.9085 94.3857 24.6123L95.3965 21.541H96.9932L94.6836 27.6982C94.472 28.2679 94.1693 28.6943 93.7754 28.9775C93.3848 29.2607 92.9274 29.4023 92.4033 29.4023C92.1462 29.4023 91.8939 29.3747 91.6465 29.3193V28.1377C91.8255 28.18 92.0208 28.2012 92.2324 28.2012C92.4961 28.2012 92.7256 28.1198 92.9209 27.957C93.1195 27.7975 93.2741 27.555 93.3848 27.2295L93.4727 26.9609L91.3047 21.541ZM98.9658 24.2607C98.9658 24.8011 99.0537 25.2096 99.2295 25.4863C99.4085 25.763 99.6982 25.9014 100.099 25.9014C100.496 25.9014 100.781 25.7646 100.953 25.4912C101.129 25.2145 101.217 24.8044 101.217 24.2607C101.217 23.7204 101.129 23.3151 100.953 23.0449C100.777 22.7747 100.489 22.6396 100.089 22.6396C99.6917 22.6396 99.4053 22.7747 99.2295 23.0449C99.0537 23.3118 98.9658 23.7171 98.9658 24.2607ZM102.74 24.2607C102.74 25.1494 102.506 25.8444 102.037 26.3457C101.568 26.847 100.916 27.0977 100.079 27.0977C99.555 27.0977 99.0928 26.9837 98.6924 26.7559C98.292 26.5247 97.9844 26.1943 97.7695 25.7646C97.5547 25.335 97.4473 24.8337 97.4473 24.2607C97.4473 23.3688 97.68 22.6755 98.1455 22.1807C98.611 21.6859 99.2653 21.4385 100.108 21.4385C100.632 21.4385 101.095 21.5524 101.495 21.7803C101.896 22.0081 102.203 22.3353 102.418 22.7617C102.633 23.1882 102.74 23.6878 102.74 24.2607ZM107.838 27L107.638 26.3018H107.56C107.4 26.5557 107.174 26.7526 106.881 26.8926C106.588 27.0293 106.254 27.0977 105.88 27.0977C105.239 27.0977 104.755 26.9268 104.43 26.585C104.104 26.2399 103.941 25.7451 103.941 25.1006V21.541H105.431V24.7295C105.431 25.1234 105.501 25.4196 105.641 25.6182C105.781 25.8135 106.004 25.9111 106.31 25.9111C106.726 25.9111 107.027 25.7728 107.213 25.4961C107.398 25.2161 107.491 24.7539 107.491 24.1094V21.541H108.98V27H107.838ZM113.59 21.4385C113.792 21.4385 113.959 21.4531 114.093 21.4824L113.98 22.8789C113.86 22.8464 113.714 22.8301 113.541 22.8301C113.066 22.8301 112.695 22.9521 112.428 23.1963C112.164 23.4404 112.032 23.7822 112.032 24.2217V27H110.543V21.541H111.671L111.891 22.459H111.964C112.133 22.153 112.361 21.9072 112.647 21.7217C112.937 21.5329 113.251 21.4385 113.59 21.4385ZM120.68 27.0977C120.038 27.0977 119.535 26.8649 119.171 26.3994H119.093C119.145 26.8551 119.171 27.1188 119.171 27.1904V29.4023H117.682V21.541H118.893L119.103 22.249H119.171C119.519 21.7087 120.035 21.4385 120.719 21.4385C121.363 21.4385 121.868 21.6875 122.232 22.1855C122.597 22.6836 122.779 23.3753 122.779 24.2607C122.779 24.8434 122.693 25.3496 122.521 25.7793C122.351 26.209 122.109 26.5361 121.793 26.7607C121.477 26.9854 121.106 27.0977 120.68 27.0977ZM120.24 22.6299C119.872 22.6299 119.604 22.7438 119.435 22.9717C119.265 23.1963 119.177 23.569 119.171 24.0898V24.251C119.171 24.8369 119.257 25.2568 119.43 25.5107C119.605 25.7646 119.882 25.8916 120.26 25.8916C120.927 25.8916 121.261 25.3415 121.261 24.2412C121.261 23.7041 121.178 23.3021 121.012 23.0352C120.849 22.765 120.592 22.6299 120.24 22.6299ZM127.057 21.4385C127.258 21.4385 127.426 21.4531 127.56 21.4824L127.447 22.8789C127.327 22.8464 127.18 22.8301 127.008 22.8301C126.533 22.8301 126.161 22.9521 125.895 23.1963C125.631 23.4404 125.499 23.7822 125.499 24.2217V27H124.01V21.541H125.138L125.357 22.459H125.431C125.6 22.153 125.828 21.9072 126.114 21.7217C126.404 21.5329 126.718 21.4385 127.057 21.4385ZM129.737 24.2607C129.737 24.8011 129.825 25.2096 130.001 25.4863C130.18 25.763 130.47 25.9014 130.87 25.9014C131.267 25.9014 131.552 25.7646 131.725 25.4912C131.9 25.2145 131.988 24.8044 131.988 24.2607C131.988 23.7204 131.9 23.3151 131.725 23.0449C131.549 22.7747 131.261 22.6396 130.86 22.6396C130.463 22.6396 130.177 22.7747 130.001 23.0449C129.825 23.3118 129.737 23.7171 129.737 24.2607ZM133.512 24.2607C133.512 25.1494 133.277 25.8444 132.809 26.3457C132.34 26.847 131.687 27.0977 130.851 27.0977C130.326 27.0977 129.864 26.9837 129.464 26.7559C129.063 26.5247 128.756 26.1943 128.541 25.7646C128.326 25.335 128.219 24.8337 128.219 24.2607C128.219 23.3688 128.451 22.6755 128.917 22.1807C129.382 21.6859 130.037 21.4385 130.88 21.4385C131.404 21.4385 131.866 21.5524 132.267 21.7803C132.667 22.0081 132.975 22.3353 133.189 22.7617C133.404 23.1882 133.512 23.6878 133.512 24.2607ZM134.303 29.4023C133.922 29.4023 133.595 29.3617 133.321 29.2803V28.1084C133.549 28.1702 133.782 28.2012 134.02 28.2012C134.27 28.2012 134.452 28.1312 134.566 27.9912C134.684 27.8512 134.742 27.6445 134.742 27.3711V21.541H136.231V27.5908C136.231 28.1702 136.064 28.6162 135.729 28.9287C135.393 29.2445 134.918 29.4023 134.303 29.4023ZM134.679 20.1299C134.679 19.6449 134.949 19.4023 135.489 19.4023C136.03 19.4023 136.3 19.6449 136.3 20.1299C136.3 20.361 136.231 20.5417 136.095 20.6719C135.961 20.7988 135.759 20.8623 135.489 20.8623C134.949 20.8623 134.679 20.6182 134.679 20.1299ZM140.06 22.498C139.744 22.498 139.496 22.599 139.317 22.8008C139.138 22.9993 139.036 23.2826 139.01 23.6504H141.1C141.093 23.2826 140.997 22.9993 140.812 22.8008C140.626 22.599 140.375 22.498 140.06 22.498ZM140.27 27.0977C139.391 27.0977 138.704 26.8551 138.209 26.3701C137.714 25.8851 137.467 25.1982 137.467 24.3096C137.467 23.3949 137.695 22.6885 138.15 22.1904C138.609 21.6891 139.243 21.4385 140.05 21.4385C140.821 21.4385 141.422 21.6582 141.852 22.0977C142.281 22.5371 142.496 23.1442 142.496 23.9189V24.6416H138.976C138.992 25.0648 139.117 25.3952 139.352 25.6328C139.586 25.8704 139.915 25.9893 140.338 25.9893C140.667 25.9893 140.978 25.9551 141.271 25.8867C141.563 25.8184 141.869 25.7093 142.188 25.5596V26.7119C141.928 26.8421 141.65 26.9382 141.354 27C141.057 27.0651 140.696 27.0977 140.27 27.0977ZM145.924 27.0977C144.225 27.0977 143.375 26.165 143.375 24.2998C143.375 23.3721 143.606 22.6641 144.068 22.1758C144.531 21.6842 145.193 21.4385 146.056 21.4385C146.687 21.4385 147.254 21.5622 147.755 21.8096L147.315 22.9619C147.081 22.8675 146.863 22.791 146.661 22.7324C146.459 22.6706 146.257 22.6396 146.056 22.6396C145.281 22.6396 144.894 23.1898 144.894 24.29C144.894 25.3577 145.281 25.8916 146.056 25.8916C146.342 25.8916 146.607 25.8542 146.852 25.7793C147.096 25.7012 147.34 25.5807 147.584 25.418V26.6924C147.343 26.8454 147.099 26.9512 146.852 27.0098C146.607 27.0684 146.298 27.0977 145.924 27.0977ZM151.153 25.9111C151.414 25.9111 151.726 25.8542 152.091 25.7402V26.8486C151.72 27.0146 151.264 27.0977 150.724 27.0977C150.128 27.0977 149.693 26.9479 149.42 26.6484C149.15 26.3457 149.015 25.8932 149.015 25.291V22.6592H148.302V22.0293L149.122 21.5312L149.552 20.3789H150.504V21.541H152.032V22.6592H150.504V25.291C150.504 25.5026 150.562 25.6589 150.68 25.7598C150.8 25.8607 150.958 25.9111 151.153 25.9111Z" fill="#333333"/>
<path d="M36.4917 72.0684C36.0132 72.0684 35.6418 71.8963 35.3774 71.5522H35.3296C35.3615 71.8713 35.3774 72.0649 35.3774 72.1333V73.6816H34.5742V68.2197H35.2236C35.2419 68.2904 35.2795 68.459 35.3364 68.7256H35.3774C35.6281 68.3428 36.0041 68.1514 36.5054 68.1514C36.9771 68.1514 37.3439 68.3223 37.606 68.6641C37.8703 69.0059 38.0024 69.4855 38.0024 70.103C38.0024 70.7205 37.868 71.2025 37.5991 71.5488C37.3325 71.8952 36.9634 72.0684 36.4917 72.0684ZM36.2969 68.8076C35.9779 68.8076 35.7443 68.901 35.5962 69.0879C35.4504 69.2747 35.3774 69.5732 35.3774 69.9834V70.103C35.3774 70.5633 35.4504 70.8971 35.5962 71.1045C35.742 71.3096 35.9801 71.4121 36.3105 71.4121C36.5885 71.4121 36.8027 71.2982 36.9531 71.0703C37.1035 70.8424 37.1787 70.5177 37.1787 70.0962C37.1787 69.6724 37.1035 69.3522 36.9531 69.1357C36.805 68.917 36.5863 68.8076 36.2969 68.8076ZM40.853 68.1514C41.0148 68.1514 41.1481 68.1628 41.2529 68.1855L41.1743 68.9341C41.0604 68.9067 40.9419 68.8931 40.8188 68.8931C40.4976 68.8931 40.2367 68.9979 40.0361 69.2075C39.8379 69.4172 39.7388 69.6895 39.7388 70.0244V72H38.9355V68.2197H39.5645L39.6704 68.8862H39.7114C39.8368 68.6606 39.9997 68.4818 40.2002 68.3496C40.403 68.2174 40.6206 68.1514 40.853 68.1514ZM45.3101 70.103C45.3101 70.7205 45.1517 71.2025 44.835 71.5488C44.5182 71.8952 44.0773 72.0684 43.5122 72.0684C43.159 72.0684 42.8468 71.9886 42.5757 71.8291C42.3045 71.6696 42.096 71.4406 41.9502 71.1421C41.8044 70.8436 41.7314 70.4972 41.7314 70.103C41.7314 69.4901 41.8887 69.0116 42.2031 68.6675C42.5176 68.3234 42.9608 68.1514 43.5327 68.1514C44.0796 68.1514 44.5125 68.328 44.8315 68.6812C45.1506 69.0321 45.3101 69.506 45.3101 70.103ZM42.5586 70.103C42.5586 70.9757 42.881 71.4121 43.5259 71.4121C44.1639 71.4121 44.4829 70.9757 44.4829 70.103C44.4829 69.2394 44.1616 68.8076 43.519 68.8076C43.1818 68.8076 42.9368 68.9193 42.7842 69.1426C42.6338 69.3659 42.5586 69.686 42.5586 70.103ZM45.8501 73.6816C45.6086 73.6816 45.408 73.6532 45.2485 73.5962V72.9604C45.4035 73.0015 45.5618 73.022 45.7236 73.022C46.0654 73.022 46.2363 72.8283 46.2363 72.4409V68.2197H47.0396V72.4956C47.0396 72.8853 46.937 73.1803 46.7319 73.3809C46.5291 73.5814 46.2352 73.6816 45.8501 73.6816ZM46.1885 67.2183C46.1885 67.0747 46.2272 66.9642 46.3047 66.8867C46.3844 66.8092 46.4972 66.7705 46.6431 66.7705C46.7843 66.7705 46.8937 66.8092 46.9712 66.8867C47.0509 66.9642 47.0908 67.0747 47.0908 67.2183C47.0908 67.355 47.0509 67.4632 46.9712 67.543C46.8937 67.6204 46.7843 67.6592 46.6431 67.6592C46.4972 67.6592 46.3844 67.6204 46.3047 67.543C46.2272 67.4632 46.1885 67.355 46.1885 67.2183ZM49.8423 72.0684C49.2544 72.0684 48.7941 71.8975 48.4614 71.5557C48.131 71.2116 47.9658 70.7388 47.9658 70.1372C47.9658 69.5197 48.1196 69.0343 48.4272 68.6812C48.7349 68.328 49.1576 68.1514 49.6953 68.1514C50.1943 68.1514 50.5885 68.3029 50.8779 68.606C51.1673 68.909 51.312 69.326 51.312 69.8569V70.291H48.793C48.8044 70.6579 48.9035 70.9404 49.0903 71.1387C49.2772 71.3346 49.5404 71.4326 49.8799 71.4326C50.1032 71.4326 50.3105 71.4121 50.502 71.3711C50.6956 71.3278 50.903 71.2572 51.124 71.1592V71.812C50.9281 71.9054 50.7298 71.9715 50.5293 72.0103C50.3288 72.049 50.0998 72.0684 49.8423 72.0684ZM49.6953 68.7598C49.4401 68.7598 49.235 68.8407 49.0801 69.0024C48.9274 69.1642 48.8363 69.4001 48.8066 69.71H50.5225C50.5179 69.3978 50.4427 69.1619 50.2969 69.0024C50.151 68.8407 49.9505 68.7598 49.6953 68.7598ZM53.749 72.0684C53.1771 72.0684 52.7419 71.902 52.4434 71.5693C52.1471 71.2344 51.999 70.7547 51.999 70.1304C51.999 69.4946 52.154 69.0059 52.4639 68.6641C52.776 68.3223 53.2261 68.1514 53.814 68.1514C54.2127 68.1514 54.5716 68.2254 54.8906 68.3735L54.6479 69.0195C54.3084 68.8874 54.0282 68.8213 53.8071 68.8213C53.1532 68.8213 52.8262 69.2554 52.8262 70.1235C52.8262 70.5474 52.9071 70.8664 53.0688 71.0806C53.2329 71.2925 53.4722 71.3984 53.7866 71.3984C54.1444 71.3984 54.4827 71.3096 54.8018 71.1318V71.8325C54.6582 71.9168 54.5044 71.9772 54.3403 72.0137C54.1785 72.0501 53.9814 72.0684 53.749 72.0684ZM57.0986 71.4189C57.2946 71.4189 57.4906 71.3882 57.6865 71.3267V71.9316C57.5977 71.9704 57.4826 72.0023 57.3413 72.0273C57.2023 72.0547 57.0576 72.0684 56.9072 72.0684C56.1462 72.0684 55.7656 71.6673 55.7656 70.8652V68.8281H55.2495V68.4727L55.8032 68.1787L56.0767 67.3789H56.5723V68.2197H57.6489V68.8281H56.5723V70.8516C56.5723 71.0452 56.6201 71.1888 56.7158 71.2822C56.8138 71.3734 56.9414 71.4189 57.0986 71.4189ZM63.5894 72H62.7827V69.6758C62.7827 69.3841 62.7235 69.1665 62.605 69.0229C62.4888 68.8794 62.3031 68.8076 62.0479 68.8076C61.7083 68.8076 61.46 68.9079 61.3027 69.1084C61.1455 69.3089 61.0669 69.645 61.0669 70.1167V72H60.2637V68.2197H60.8926L61.0054 68.7153H61.0464C61.1603 68.5353 61.3221 68.3963 61.5317 68.2983C61.7414 68.2004 61.9738 68.1514 62.229 68.1514C63.1359 68.1514 63.5894 68.6128 63.5894 69.5356V72ZM67.0723 72L66.9116 71.4736H66.8843C66.702 71.7038 66.5186 71.861 66.334 71.9453C66.1494 72.0273 65.9124 72.0684 65.623 72.0684C65.2516 72.0684 64.9611 71.9681 64.7515 71.7676C64.5441 71.5671 64.4404 71.2834 64.4404 70.9165C64.4404 70.5269 64.5851 70.2329 64.8745 70.0347C65.1639 69.8364 65.6048 69.7282 66.1973 69.71L66.8501 69.6895V69.4878C66.8501 69.2463 66.7931 69.0662 66.6792 68.9478C66.5675 68.827 66.3932 68.7666 66.1562 68.7666C65.9626 68.7666 65.7769 68.7951 65.5991 68.8521C65.4214 68.909 65.2505 68.9762 65.0864 69.0537L64.8267 68.4795C65.0317 68.3724 65.2562 68.2915 65.5 68.2368C65.7438 68.1799 65.974 68.1514 66.1904 68.1514C66.6712 68.1514 67.0335 68.2562 67.2773 68.4658C67.5234 68.6755 67.6465 69.0047 67.6465 69.4536V72H67.0723ZM65.876 71.4531C66.1676 71.4531 66.4012 71.3722 66.5767 71.2104C66.7544 71.0464 66.8433 70.8174 66.8433 70.5234V70.1953L66.3579 70.2158C65.9797 70.2295 65.7039 70.2933 65.5308 70.4072C65.3599 70.5189 65.2744 70.6909 65.2744 70.9233C65.2744 71.092 65.3245 71.223 65.4248 71.3164C65.5251 71.4076 65.6755 71.4531 65.876 71.4531ZM71.9531 72H71.1465V69.6689C71.1465 69.3796 71.0918 69.1642 70.9824 69.0229C70.873 68.8794 70.7021 68.8076 70.4697 68.8076C70.1598 68.8076 69.932 68.909 69.7861 69.1118C69.6426 69.3123 69.5708 69.6473 69.5708 70.1167V72H68.7676V68.2197H69.3965L69.5093 68.7153H69.5503C69.6551 68.5353 69.8066 68.3963 70.0049 68.2983C70.2054 68.2004 70.4253 68.1514 70.6646 68.1514C71.2456 68.1514 71.6307 68.3496 71.8198 68.7461H71.8745C71.9862 68.5592 72.1434 68.4134 72.3462 68.3086C72.549 68.2038 72.7814 68.1514 73.0435 68.1514C73.4946 68.1514 73.8228 68.2653 74.0278 68.4932C74.2352 68.721 74.3389 69.0685 74.3389 69.5356V72H73.5356V69.6689C73.5356 69.3796 73.4798 69.1642 73.3682 69.0229C73.2588 68.8794 73.0879 68.8076 72.8555 68.8076C72.5433 68.8076 72.3143 68.9056 72.1685 69.1016C72.0249 69.2952 71.9531 69.5938 71.9531 69.9971V72ZM77.1108 72.0684C76.5229 72.0684 76.0627 71.8975 75.73 71.5557C75.3996 71.2116 75.2344 70.7388 75.2344 70.1372C75.2344 69.5197 75.3882 69.0343 75.6958 68.6812C76.0034 68.328 76.4261 68.1514 76.9639 68.1514C77.4629 68.1514 77.8571 68.3029 78.1465 68.606C78.4359 68.909 78.5806 69.326 78.5806 69.8569V70.291H76.0615C76.0729 70.6579 76.172 70.9404 76.3589 71.1387C76.5457 71.3346 76.8089 71.4326 77.1484 71.4326C77.3717 71.4326 77.5791 71.4121 77.7705 71.3711C77.9642 71.3278 78.1715 71.2572 78.3926 71.1592V71.812C78.1966 71.9054 77.9984 71.9715 77.7979 72.0103C77.5973 72.049 77.3683 72.0684 77.1108 72.0684ZM76.9639 68.7598C76.7087 68.7598 76.5036 68.8407 76.3486 69.0024C76.196 69.1642 76.1048 69.4001 76.0752 69.71H77.791C77.7865 69.3978 77.7113 69.1619 77.5654 69.0024C77.4196 68.8407 77.2191 68.7598 76.9639 68.7598Z" fill="#4B4848"/>
<rect x="29.35" y="106.35" width="151.3" height="27.3" rx="1.65" fill="white" stroke="#E7E7EA" stroke-width="0.7"/>
<path d="M36.4917 116.068C36.0132 116.068 35.6418 115.896 35.3774 115.552H35.3296C35.3615 115.871 35.3774 116.065 35.3774 116.133V117.682H34.5742V112.22H35.2236C35.2419 112.29 35.2795 112.459 35.3364 112.726H35.3774C35.6281 112.343 36.0041 112.151 36.5054 112.151C36.9771 112.151 37.3439 112.322 37.606 112.664C37.8703 113.006 38.0024 113.486 38.0024 114.103C38.0024 114.721 37.868 115.202 37.5991 115.549C37.3325 115.895 36.9634 116.068 36.4917 116.068ZM36.2969 112.808C35.9779 112.808 35.7443 112.901 35.5962 113.088C35.4504 113.275 35.3774 113.573 35.3774 113.983V114.103C35.3774 114.563 35.4504 114.897 35.5962 115.104C35.742 115.31 35.9801 115.412 36.3105 115.412C36.5885 115.412 36.8027 115.298 36.9531 115.07C37.1035 114.842 37.1787 114.518 37.1787 114.096C37.1787 113.672 37.1035 113.352 36.9531 113.136C36.805 112.917 36.5863 112.808 36.2969 112.808ZM40.853 112.151C41.0148 112.151 41.1481 112.163 41.2529 112.186L41.1743 112.934C41.0604 112.907 40.9419 112.893 40.8188 112.893C40.4976 112.893 40.2367 112.998 40.0361 113.208C39.8379 113.417 39.7388 113.689 39.7388 114.024V116H38.9355V112.22H39.5645L39.6704 112.886H39.7114C39.8368 112.661 39.9997 112.482 40.2002 112.35C40.403 112.217 40.6206 112.151 40.853 112.151ZM45.3101 114.103C45.3101 114.721 45.1517 115.202 44.835 115.549C44.5182 115.895 44.0773 116.068 43.5122 116.068C43.159 116.068 42.8468 115.989 42.5757 115.829C42.3045 115.67 42.096 115.441 41.9502 115.142C41.8044 114.844 41.7314 114.497 41.7314 114.103C41.7314 113.49 41.8887 113.012 42.2031 112.667C42.5176 112.323 42.9608 112.151 43.5327 112.151C44.0796 112.151 44.5125 112.328 44.8315 112.681C45.1506 113.032 45.3101 113.506 45.3101 114.103ZM42.5586 114.103C42.5586 114.976 42.881 115.412 43.5259 115.412C44.1639 115.412 44.4829 114.976 44.4829 114.103C44.4829 113.239 44.1616 112.808 43.519 112.808C43.1818 112.808 42.9368 112.919 42.7842 113.143C42.6338 113.366 42.5586 113.686 42.5586 114.103ZM45.8501 117.682C45.6086 117.682 45.408 117.653 45.2485 117.596V116.96C45.4035 117.001 45.5618 117.022 45.7236 117.022C46.0654 117.022 46.2363 116.828 46.2363 116.441V112.22H47.0396V116.496C47.0396 116.885 46.937 117.18 46.7319 117.381C46.5291 117.581 46.2352 117.682 45.8501 117.682ZM46.1885 111.218C46.1885 111.075 46.2272 110.964 46.3047 110.887C46.3844 110.809 46.4972 110.771 46.6431 110.771C46.7843 110.771 46.8937 110.809 46.9712 110.887C47.0509 110.964 47.0908 111.075 47.0908 111.218C47.0908 111.355 47.0509 111.463 46.9712 111.543C46.8937 111.62 46.7843 111.659 46.6431 111.659C46.4972 111.659 46.3844 111.62 46.3047 111.543C46.2272 111.463 46.1885 111.355 46.1885 111.218ZM49.8423 116.068C49.2544 116.068 48.7941 115.897 48.4614 115.556C48.131 115.212 47.9658 114.739 47.9658 114.137C47.9658 113.52 48.1196 113.034 48.4272 112.681C48.7349 112.328 49.1576 112.151 49.6953 112.151C50.1943 112.151 50.5885 112.303 50.8779 112.606C51.1673 112.909 51.312 113.326 51.312 113.857V114.291H48.793C48.8044 114.658 48.9035 114.94 49.0903 115.139C49.2772 115.335 49.5404 115.433 49.8799 115.433C50.1032 115.433 50.3105 115.412 50.502 115.371C50.6956 115.328 50.903 115.257 51.124 115.159V115.812C50.9281 115.905 50.7298 115.972 50.5293 116.01C50.3288 116.049 50.0998 116.068 49.8423 116.068ZM49.6953 112.76C49.4401 112.76 49.235 112.841 49.0801 113.002C48.9274 113.164 48.8363 113.4 48.8066 113.71H50.5225C50.5179 113.398 50.4427 113.162 50.2969 113.002C50.151 112.841 49.9505 112.76 49.6953 112.76ZM53.749 116.068C53.1771 116.068 52.7419 115.902 52.4434 115.569C52.1471 115.234 51.999 114.755 51.999 114.13C51.999 113.495 52.154 113.006 52.4639 112.664C52.776 112.322 53.2261 112.151 53.814 112.151C54.2127 112.151 54.5716 112.225 54.8906 112.374L54.6479 113.02C54.3084 112.887 54.0282 112.821 53.8071 112.821C53.1532 112.821 52.8262 113.255 52.8262 114.124C52.8262 114.547 52.9071 114.866 53.0688 115.081C53.2329 115.292 53.4722 115.398 53.7866 115.398C54.1444 115.398 54.4827 115.31 54.8018 115.132V115.833C54.6582 115.917 54.5044 115.977 54.3403 116.014C54.1785 116.05 53.9814 116.068 53.749 116.068ZM57.0986 115.419C57.2946 115.419 57.4906 115.388 57.6865 115.327V115.932C57.5977 115.97 57.4826 116.002 57.3413 116.027C57.2023 116.055 57.0576 116.068 56.9072 116.068C56.1462 116.068 55.7656 115.667 55.7656 114.865V112.828H55.2495V112.473L55.8032 112.179L56.0767 111.379H56.5723V112.22H57.6489V112.828H56.5723V114.852C56.5723 115.045 56.6201 115.189 56.7158 115.282C56.8138 115.373 56.9414 115.419 57.0986 115.419ZM61.5386 116.068C61.0669 116.068 60.6989 115.897 60.4346 115.556C60.1702 115.214 60.0381 114.734 60.0381 114.117C60.0381 113.497 60.1714 113.015 60.438 112.671C60.7069 112.325 61.0783 112.151 61.5522 112.151C62.049 112.151 62.4272 112.335 62.687 112.702H62.728C62.6893 112.431 62.6699 112.216 62.6699 112.059V110.682H63.4766V116H62.8477L62.7075 115.504H62.6699C62.4124 115.88 62.0353 116.068 61.5386 116.068ZM61.7539 115.419C62.0843 115.419 62.3247 115.327 62.4751 115.142C62.6255 114.955 62.703 114.653 62.7075 114.236V114.124C62.7075 113.647 62.63 113.309 62.4751 113.108C62.3201 112.908 62.0775 112.808 61.7471 112.808C61.4645 112.808 61.2469 112.923 61.0942 113.153C60.9416 113.381 60.8652 113.707 60.8652 114.13C60.8652 114.55 60.9393 114.87 61.0874 115.091C61.2355 115.31 61.4577 115.419 61.7539 115.419ZM66.2759 116.068C65.688 116.068 65.2277 115.897 64.895 115.556C64.5646 115.212 64.3994 114.739 64.3994 114.137C64.3994 113.52 64.5532 113.034 64.8608 112.681C65.1685 112.328 65.5911 112.151 66.1289 112.151C66.6279 112.151 67.0221 112.303 67.3115 112.606C67.6009 112.909 67.7456 113.326 67.7456 113.857V114.291H65.2266C65.238 114.658 65.3371 114.94 65.5239 115.139C65.7108 115.335 65.974 115.433 66.3135 115.433C66.5368 115.433 66.7441 115.412 66.9355 115.371C67.1292 115.328 67.3366 115.257 67.5576 115.159V115.812C67.3617 115.905 67.1634 115.972 66.9629 116.01C66.7624 116.049 66.5334 116.068 66.2759 116.068ZM66.1289 112.76C65.8737 112.76 65.6686 112.841 65.5137 113.002C65.361 113.164 65.2699 113.4 65.2402 113.71H66.9561C66.9515 113.398 66.8763 113.162 66.7305 113.002C66.5846 112.841 66.3841 112.76 66.1289 112.76ZM71.1978 114.923C71.1978 115.292 71.0633 115.576 70.7944 115.774C70.5256 115.97 70.1405 116.068 69.6392 116.068C69.1356 116.068 68.7311 115.992 68.4258 115.839V115.146C68.8701 115.351 69.2837 115.453 69.6665 115.453C70.161 115.453 70.4082 115.304 70.4082 115.005C70.4082 114.91 70.3809 114.83 70.3262 114.766C70.2715 114.702 70.1815 114.636 70.0562 114.568C69.9308 114.5 69.7565 114.422 69.5332 114.335C69.098 114.167 68.8029 113.998 68.6479 113.83C68.4953 113.661 68.4189 113.442 68.4189 113.173C68.4189 112.85 68.5488 112.599 68.8086 112.421C69.0706 112.241 69.4261 112.151 69.875 112.151C70.3193 112.151 70.7397 112.241 71.1362 112.421L70.8765 113.026C70.4686 112.858 70.1257 112.773 69.8477 112.773C69.4238 112.773 69.2119 112.894 69.2119 113.136C69.2119 113.254 69.2666 113.354 69.376 113.437C69.4876 113.519 69.7292 113.631 70.1006 113.775C70.4128 113.896 70.6395 114.006 70.7808 114.106C70.922 114.207 71.0269 114.323 71.0952 114.455C71.1636 114.585 71.1978 114.741 71.1978 114.923ZM73.5938 116.068C73.0218 116.068 72.5866 115.902 72.2881 115.569C71.9919 115.234 71.8438 114.755 71.8438 114.13C71.8438 113.495 71.9987 113.006 72.3086 112.664C72.6208 112.322 73.0708 112.151 73.6587 112.151C74.0575 112.151 74.4163 112.225 74.7354 112.374L74.4927 113.02C74.1532 112.887 73.8729 112.821 73.6519 112.821C72.9979 112.821 72.6709 113.255 72.6709 114.124C72.6709 114.547 72.7518 114.866 72.9136 115.081C73.0776 115.292 73.3169 115.398 73.6313 115.398C73.9891 115.398 74.3275 115.31 74.6465 115.132V115.833C74.5029 115.917 74.3491 115.977 74.1851 116.014C74.0233 116.05 73.8262 116.068 73.5938 116.068ZM77.4526 112.151C77.6144 112.151 77.7477 112.163 77.8525 112.186L77.7739 112.934C77.66 112.907 77.5415 112.893 77.4185 112.893C77.0972 112.893 76.8363 112.998 76.6357 113.208C76.4375 113.417 76.3384 113.689 76.3384 114.024V116H75.5352V112.22H76.1641L76.27 112.886H76.311C76.4364 112.661 76.5993 112.482 76.7998 112.35C77.0026 112.217 77.2202 112.151 77.4526 112.151ZM79.3599 116H78.5566V112.22H79.3599V116ZM78.5088 111.218C78.5088 111.075 78.5475 110.964 78.625 110.887C78.7048 110.809 78.8175 110.771 78.9634 110.771C79.1047 110.771 79.214 110.809 79.2915 110.887C79.3713 110.964 79.4111 111.075 79.4111 111.218C79.4111 111.355 79.3713 111.463 79.2915 111.543C79.214 111.62 79.1047 111.659 78.9634 111.659C78.8175 111.659 78.7048 111.62 78.625 111.543C78.5475 111.463 78.5088 111.355 78.5088 111.218ZM82.4292 116.068C81.9507 116.068 81.5793 115.896 81.3149 115.552H81.2671C81.299 115.871 81.3149 116.065 81.3149 116.133V117.682H80.5117V112.22H81.1611C81.1794 112.29 81.217 112.459 81.2739 112.726H81.3149C81.5656 112.343 81.9416 112.151 82.4429 112.151C82.9146 112.151 83.2814 112.322 83.5435 112.664C83.8078 113.006 83.9399 113.486 83.9399 114.103C83.9399 114.721 83.8055 115.202 83.5366 115.549C83.27 115.895 82.9009 116.068 82.4292 116.068ZM82.2344 112.808C81.9154 112.808 81.6818 112.901 81.5337 113.088C81.3879 113.275 81.3149 113.573 81.3149 113.983V114.103C81.3149 114.563 81.3879 114.897 81.5337 115.104C81.6795 115.31 81.9176 115.412 82.248 115.412C82.526 115.412 82.7402 115.298 82.8906 115.07C83.041 114.842 83.1162 114.518 83.1162 114.096C83.1162 113.672 83.041 113.352 82.8906 113.136C82.7425 112.917 82.5238 112.808 82.2344 112.808ZM86.2812 115.419C86.4772 115.419 86.6732 115.388 86.8691 115.327V115.932C86.7803 115.97 86.6652 116.002 86.5239 116.027C86.3849 116.055 86.2402 116.068 86.0898 116.068C85.3288 116.068 84.9482 115.667 84.9482 114.865V112.828H84.4321V112.473L84.9858 112.179L85.2593 111.379H85.7549V112.22H86.8315V112.828H85.7549V114.852C85.7549 115.045 85.8027 115.189 85.8984 115.282C85.9964 115.373 86.124 115.419 86.2812 115.419ZM88.4312 116H87.6279V112.22H88.4312V116ZM87.5801 111.218C87.5801 111.075 87.6188 110.964 87.6963 110.887C87.776 110.809 87.8888 110.771 88.0347 110.771C88.1759 110.771 88.2853 110.809 88.3628 110.887C88.4425 110.964 88.4824 111.075 88.4824 111.218C88.4824 111.355 88.4425 111.463 88.3628 111.543C88.2853 111.62 88.1759 111.659 88.0347 111.659C87.8888 111.659 87.776 111.62 87.6963 111.543C87.6188 111.463 87.5801 111.355 87.5801 111.218ZM92.936 114.103C92.936 114.721 92.7777 115.202 92.4609 115.549C92.1442 115.895 91.7033 116.068 91.1382 116.068C90.785 116.068 90.4728 115.989 90.2017 115.829C89.9305 115.67 89.722 115.441 89.5762 115.142C89.4303 114.844 89.3574 114.497 89.3574 114.103C89.3574 113.49 89.5146 113.012 89.8291 112.667C90.1436 112.323 90.5868 112.151 91.1587 112.151C91.7056 112.151 92.1385 112.328 92.4575 112.681C92.7765 113.032 92.936 113.506 92.936 114.103ZM90.1846 114.103C90.1846 114.976 90.507 115.412 91.1519 115.412C91.7899 115.412 92.1089 114.976 92.1089 114.103C92.1089 113.239 91.7876 112.808 91.145 112.808C90.8078 112.808 90.5628 112.919 90.4102 113.143C90.2598 113.366 90.1846 113.686 90.1846 114.103ZM97.188 116H96.3813V113.676C96.3813 113.384 96.3221 113.167 96.2036 113.023C96.0874 112.879 95.9017 112.808 95.6465 112.808C95.307 112.808 95.0586 112.908 94.9014 113.108C94.7441 113.309 94.6655 113.645 94.6655 114.117V116H93.8623V112.22H94.4912L94.604 112.715H94.645C94.759 112.535 94.9207 112.396 95.1304 112.298C95.34 112.2 95.5724 112.151 95.8276 112.151C96.7345 112.151 97.188 112.613 97.188 113.536V116Z" fill="#4B4848"/>
<path d="M33 166.22H33.875L34.644 168.363C34.7603 168.668 34.8377 168.955 34.8765 169.224H34.9038C34.9243 169.099 34.9619 168.947 35.0166 168.77C35.0713 168.59 35.3607 167.74 35.8848 166.22H36.7529L35.1362 170.502C34.8423 171.289 34.3524 171.682 33.6665 171.682C33.4888 171.682 33.3156 171.662 33.147 171.624V170.988C33.2677 171.015 33.4056 171.029 33.5605 171.029C33.9479 171.029 34.2202 170.804 34.3774 170.355L34.5176 170L33 166.22ZM40.6802 168.103C40.6802 168.721 40.5218 169.202 40.2051 169.549C39.8883 169.895 39.4474 170.068 38.8823 170.068C38.5291 170.068 38.217 169.989 37.9458 169.829C37.6746 169.67 37.4661 169.441 37.3203 169.142C37.1745 168.844 37.1016 168.497 37.1016 168.103C37.1016 167.49 37.2588 167.012 37.5732 166.667C37.8877 166.323 38.3309 166.151 38.9028 166.151C39.4497 166.151 39.8826 166.328 40.2017 166.681C40.5207 167.032 40.6802 167.506 40.6802 168.103ZM37.9287 168.103C37.9287 168.976 38.2511 169.412 38.896 169.412C39.534 169.412 39.853 168.976 39.853 168.103C39.853 167.239 39.5317 166.808 38.8892 166.808C38.5519 166.808 38.307 166.919 38.1543 167.143C38.0039 167.366 37.9287 167.686 37.9287 168.103ZM44.2725 170L44.1597 169.504H44.1187C44.007 169.68 43.8475 169.818 43.6401 169.918C43.4351 170.018 43.2004 170.068 42.936 170.068C42.478 170.068 42.1362 169.954 41.9106 169.727C41.6851 169.499 41.5723 169.153 41.5723 168.691V166.22H42.3823V168.551C42.3823 168.84 42.4416 169.058 42.5601 169.204C42.6785 169.347 42.8643 169.419 43.1172 169.419C43.4544 169.419 43.7017 169.319 43.8589 169.118C44.0184 168.915 44.0981 168.577 44.0981 168.103V166.22H44.9048V170H44.2725ZM47.9673 166.151C48.1291 166.151 48.2624 166.163 48.3672 166.186L48.2886 166.934C48.1746 166.907 48.0562 166.893 47.9331 166.893C47.6118 166.893 47.3509 166.998 47.1504 167.208C46.9521 167.417 46.853 167.689 46.853 168.024V170H46.0498V166.22H46.6787L46.7847 166.886H46.8257C46.951 166.661 47.1139 166.482 47.3145 166.35C47.5173 166.217 47.7349 166.151 47.9673 166.151ZM52.8071 170.068C52.3286 170.068 51.9572 169.896 51.6929 169.552H51.645C51.6769 169.871 51.6929 170.065 51.6929 170.133V171.682H50.8896V166.22H51.5391C51.5573 166.29 51.5949 166.459 51.6519 166.726H51.6929C51.9435 166.343 52.3195 166.151 52.8208 166.151C53.2925 166.151 53.6593 166.322 53.9214 166.664C54.1857 167.006 54.3179 167.486 54.3179 168.103C54.3179 168.721 54.1834 169.202 53.9146 169.549C53.6479 169.895 53.2788 170.068 52.8071 170.068ZM52.6123 166.808C52.2933 166.808 52.0597 166.901 51.9116 167.088C51.7658 167.275 51.6929 167.573 51.6929 167.983V168.103C51.6929 168.563 51.7658 168.897 51.9116 169.104C52.0575 169.31 52.2956 169.412 52.626 169.412C52.904 169.412 53.1182 169.298 53.2686 169.07C53.4189 168.842 53.4941 168.518 53.4941 168.096C53.4941 167.672 53.4189 167.352 53.2686 167.136C53.1204 166.917 52.9017 166.808 52.6123 166.808ZM57.1685 166.151C57.3302 166.151 57.4635 166.163 57.5684 166.186L57.4897 166.934C57.3758 166.907 57.2573 166.893 57.1343 166.893C56.813 166.893 56.5521 166.998 56.3516 167.208C56.1533 167.417 56.0542 167.689 56.0542 168.024V170H55.251V166.22H55.8799L55.9858 166.886H56.0269C56.1522 166.661 56.3151 166.482 56.5156 166.35C56.7184 166.217 56.936 166.151 57.1685 166.151ZM61.6255 168.103C61.6255 168.721 61.4671 169.202 61.1504 169.549C60.8337 169.895 60.3927 170.068 59.8276 170.068C59.4744 170.068 59.1623 169.989 58.8911 169.829C58.62 169.67 58.4115 169.441 58.2656 169.142C58.1198 168.844 58.0469 168.497 58.0469 168.103C58.0469 167.49 58.2041 167.012 58.5186 166.667C58.833 166.323 59.2762 166.151 59.8481 166.151C60.395 166.151 60.828 166.328 61.147 166.681C61.466 167.032 61.6255 167.506 61.6255 168.103ZM58.874 168.103C58.874 168.976 59.1965 169.412 59.8413 169.412C60.4793 169.412 60.7983 168.976 60.7983 168.103C60.7983 167.239 60.4771 166.808 59.8345 166.808C59.4972 166.808 59.2523 166.919 59.0996 167.143C58.9492 167.366 58.874 167.686 58.874 168.103ZM62.1655 171.682C61.924 171.682 61.7235 171.653 61.564 171.596V170.96C61.7189 171.001 61.8773 171.022 62.0391 171.022C62.3809 171.022 62.5518 170.828 62.5518 170.441V166.22H63.355V170.496C63.355 170.885 63.2524 171.18 63.0474 171.381C62.8446 171.581 62.5506 171.682 62.1655 171.682ZM62.5039 165.218C62.5039 165.075 62.5426 164.964 62.6201 164.887C62.6999 164.809 62.8127 164.771 62.9585 164.771C63.0998 164.771 63.2091 164.809 63.2866 164.887C63.3664 164.964 63.4062 165.075 63.4062 165.218C63.4062 165.355 63.3664 165.463 63.2866 165.543C63.2091 165.62 63.0998 165.659 62.9585 165.659C62.8127 165.659 62.6999 165.62 62.6201 165.543C62.5426 165.463 62.5039 165.355 62.5039 165.218ZM66.1577 170.068C65.5698 170.068 65.1095 169.897 64.7769 169.556C64.4465 169.212 64.2812 168.739 64.2812 168.137C64.2812 167.52 64.4351 167.034 64.7427 166.681C65.0503 166.328 65.473 166.151 66.0107 166.151C66.5098 166.151 66.904 166.303 67.1934 166.606C67.4827 166.909 67.6274 167.326 67.6274 167.857V168.291H65.1084C65.1198 168.658 65.2189 168.94 65.4058 169.139C65.5926 169.335 65.8558 169.433 66.1953 169.433C66.4186 169.433 66.626 169.412 66.8174 169.371C67.0111 169.328 67.2184 169.257 67.4395 169.159V169.812C67.2435 169.905 67.0452 169.972 66.8447 170.01C66.6442 170.049 66.4152 170.068 66.1577 170.068ZM66.0107 166.76C65.7555 166.76 65.5505 166.841 65.3955 167.002C65.2428 167.164 65.1517 167.4 65.1221 167.71H66.8379C66.8333 167.398 66.7581 167.162 66.6123 167.002C66.4665 166.841 66.266 166.76 66.0107 166.76ZM70.0645 170.068C69.4925 170.068 69.0573 169.902 68.7588 169.569C68.4626 169.234 68.3145 168.755 68.3145 168.13C68.3145 167.495 68.4694 167.006 68.7793 166.664C69.0915 166.322 69.5415 166.151 70.1294 166.151C70.5282 166.151 70.887 166.225 71.2061 166.374L70.9634 167.02C70.6239 166.887 70.3436 166.821 70.1226 166.821C69.4686 166.821 69.1416 167.255 69.1416 168.124C69.1416 168.547 69.2225 168.866 69.3843 169.081C69.5483 169.292 69.7876 169.398 70.1021 169.398C70.4598 169.398 70.7982 169.31 71.1172 169.132V169.833C70.9736 169.917 70.8198 169.977 70.6558 170.014C70.494 170.05 70.2969 170.068 70.0645 170.068ZM73.4141 169.419C73.61 169.419 73.806 169.388 74.002 169.327V169.932C73.9131 169.97 73.798 170.002 73.6567 170.027C73.5177 170.055 73.373 170.068 73.2227 170.068C72.4616 170.068 72.0811 169.667 72.0811 168.865V166.828H71.5649V166.473L72.1187 166.179L72.3921 165.379H72.8877V166.22H73.9644V166.828H72.8877V168.852C72.8877 169.045 72.9355 169.189 73.0312 169.282C73.1292 169.373 73.2568 169.419 73.4141 169.419ZM80.5815 165.003V168.236C80.5815 168.605 80.5018 168.929 80.3423 169.207C80.1851 169.483 79.9561 169.696 79.6553 169.846C79.3568 169.994 78.999 170.068 78.582 170.068C77.9622 170.068 77.4803 169.904 77.1362 169.576C76.7922 169.248 76.6201 168.797 76.6201 168.223V165.003H77.4404V168.165C77.4404 168.577 77.5361 168.881 77.7275 169.077C77.9189 169.273 78.2129 169.371 78.6094 169.371C79.3796 169.371 79.7646 168.967 79.7646 168.158V165.003H80.5815ZM82.6768 167.327H83.2441C83.6247 167.327 83.9004 167.257 84.0713 167.115C84.2422 166.974 84.3276 166.764 84.3276 166.486C84.3276 166.204 84.2354 166.001 84.0508 165.878C83.8662 165.755 83.5882 165.693 83.2168 165.693H82.6768V167.327ZM82.6768 168.004V170H81.8599V165.003H83.2715C83.9163 165.003 84.3937 165.124 84.7036 165.365C85.0135 165.607 85.1685 165.971 85.1685 166.459C85.1685 167.081 84.8449 167.524 84.1978 167.789L85.6094 170H84.6797L83.4834 168.004H82.6768ZM86.3374 170V165.003H87.1543V169.299H89.27V170H86.3374Z" fill="#4B4848"/>
<path d="M33.5352 49.0156C33.5352 49.612 33.3398 50.069 32.9492 50.3867C32.5586 50.7044 32.0026 50.8633 31.2812 50.8633H30.6875V53H29.7539V47.2891H31.3984C32.112 47.2891 32.6458 47.4349 33 47.7266C33.3568 48.0182 33.5352 48.4479 33.5352 49.0156ZM30.6875 50.0781H31.1836C31.6628 50.0781 32.0143 49.9948 32.2383 49.8281C32.4622 49.6615 32.5742 49.401 32.5742 49.0469C32.5742 48.7188 32.474 48.474 32.2734 48.3125C32.0729 48.151 31.7604 48.0703 31.3359 48.0703H30.6875V50.0781ZM36.7695 48.6016C36.9544 48.6016 37.1068 48.6146 37.2266 48.6406L37.1367 49.4961C37.0065 49.4648 36.8711 49.4492 36.7305 49.4492C36.3633 49.4492 36.0651 49.569 35.8359 49.8086C35.6094 50.0482 35.4961 50.3594 35.4961 50.7422V53H34.5781V48.6797H35.2969L35.418 49.4414H35.4648C35.6081 49.1836 35.7943 48.9792 36.0234 48.8281C36.2552 48.6771 36.5039 48.6016 36.7695 48.6016ZM41.8633 50.832C41.8633 51.5378 41.6823 52.0885 41.3203 52.4844C40.9583 52.8802 40.4544 53.0781 39.8086 53.0781C39.4049 53.0781 39.0482 52.987 38.7383 52.8047C38.4284 52.6224 38.1901 52.3607 38.0234 52.0195C37.8568 51.6784 37.7734 51.2826 37.7734 50.832C37.7734 50.1315 37.9531 49.5846 38.3125 49.1914C38.6719 48.7982 39.1784 48.6016 39.832 48.6016C40.457 48.6016 40.9518 48.8034 41.3164 49.207C41.681 49.6081 41.8633 50.1497 41.8633 50.832ZM38.7188 50.832C38.7188 51.8294 39.0872 52.3281 39.8242 52.3281C40.5534 52.3281 40.918 51.8294 40.918 50.832C40.918 49.8451 40.5508 49.3516 39.8164 49.3516C39.431 49.3516 39.151 49.4792 38.9766 49.7344C38.8047 49.9896 38.7188 50.3555 38.7188 50.832ZM42.4805 54.9219C42.2044 54.9219 41.9753 54.8893 41.793 54.8242V54.0977C41.9701 54.1445 42.151 54.168 42.3359 54.168C42.7266 54.168 42.9219 53.9466 42.9219 53.5039V48.6797H43.8398V53.5664C43.8398 54.0117 43.7227 54.349 43.4883 54.5781C43.2565 54.8073 42.9206 54.9219 42.4805 54.9219ZM42.8672 47.5352C42.8672 47.3711 42.9115 47.2448 43 47.1562C43.0911 47.0677 43.2201 47.0234 43.3867 47.0234C43.5482 47.0234 43.6732 47.0677 43.7617 47.1562C43.8529 47.2448 43.8984 47.3711 43.8984 47.5352C43.8984 47.6914 43.8529 47.8151 43.7617 47.9062C43.6732 47.9948 43.5482 48.0391 43.3867 48.0391C43.2201 48.0391 43.0911 47.9948 43 47.9062C42.9115 47.8151 42.8672 47.6914 42.8672 47.5352ZM47.043 53.0781C46.3711 53.0781 45.8451 52.8828 45.4648 52.4922C45.0872 52.099 44.8984 51.5586 44.8984 50.8711C44.8984 50.1654 45.0742 49.6107 45.4258 49.207C45.7773 48.8034 46.2604 48.6016 46.875 48.6016C47.4453 48.6016 47.8958 48.7747 48.2266 49.1211C48.5573 49.4674 48.7227 49.944 48.7227 50.5508V51.0469H45.8438C45.8568 51.4661 45.9701 51.7891 46.1836 52.0156C46.3971 52.2396 46.6979 52.3516 47.0859 52.3516C47.3411 52.3516 47.5781 52.3281 47.7969 52.2812C48.0182 52.2318 48.2552 52.151 48.5078 52.0391V52.7852C48.2839 52.8919 48.0573 52.9674 47.8281 53.0117C47.599 53.056 47.3372 53.0781 47.043 53.0781ZM46.875 49.2969C46.5833 49.2969 46.349 49.3893 46.1719 49.5742C45.9974 49.7591 45.8932 50.0286 45.8594 50.3828H47.8203C47.8151 50.026 47.7292 49.7565 47.5625 49.5742C47.3958 49.3893 47.1667 49.2969 46.875 49.2969ZM51.5078 53.0781C50.8542 53.0781 50.3568 52.888 50.0156 52.5078C49.6771 52.125 49.5078 51.5768 49.5078 50.8633C49.5078 50.1367 49.6849 49.5781 50.0391 49.1875C50.3958 48.7969 50.9102 48.6016 51.582 48.6016C52.0378 48.6016 52.4479 48.6862 52.8125 48.8555L52.5352 49.5938C52.1471 49.4427 51.8268 49.3672 51.5742 49.3672C50.8268 49.3672 50.4531 49.8633 50.4531 50.8555C50.4531 51.3398 50.5456 51.7044 50.7305 51.9492C50.918 52.1914 51.1914 52.3125 51.5508 52.3125C51.9596 52.3125 52.3464 52.2109 52.7109 52.0078V52.8086C52.5469 52.9049 52.3711 52.974 52.1836 53.0156C51.9987 53.0573 51.7734 53.0781 51.5078 53.0781ZM55.3359 52.3359C55.5599 52.3359 55.7839 52.3008 56.0078 52.2305V52.9219C55.9062 52.9661 55.7747 53.0026 55.6133 53.0312C55.4544 53.0625 55.2891 53.0781 55.1172 53.0781C54.2474 53.0781 53.8125 52.6198 53.8125 51.7031V49.375H53.2227V48.9688L53.8555 48.6328L54.168 47.7188H54.7344V48.6797H55.9648V49.375H54.7344V51.6875C54.7344 51.9089 54.7891 52.0729 54.8984 52.1797C55.0104 52.2839 55.1562 52.3359 55.3359 52.3359ZM60.5625 52.3359C60.7865 52.3359 61.0104 52.3008 61.2344 52.2305V52.9219C61.1328 52.9661 61.0013 53.0026 60.8398 53.0312C60.681 53.0625 60.5156 53.0781 60.3438 53.0781C59.474 53.0781 59.0391 52.6198 59.0391 51.7031V49.375H58.4492V48.9688L59.082 48.6328L59.3945 47.7188H59.9609V48.6797H61.1914V49.375H59.9609V51.6875C59.9609 51.9089 60.0156 52.0729 60.125 52.1797C60.237 52.2839 60.3828 52.3359 60.5625 52.3359ZM63.0195 53H62.1016V48.6797H63.0195V53ZM62.0469 47.5352C62.0469 47.3711 62.0911 47.2448 62.1797 47.1562C62.2708 47.0677 62.3997 47.0234 62.5664 47.0234C62.7279 47.0234 62.8529 47.0677 62.9414 47.1562C63.0326 47.2448 63.0781 47.3711 63.0781 47.5352C63.0781 47.6914 63.0326 47.8151 62.9414 47.9062C62.8529 47.9948 62.7279 48.0391 62.5664 48.0391C62.3997 48.0391 62.2708 47.9948 62.1797 47.9062C62.0911 47.8151 62.0469 47.6914 62.0469 47.5352ZM65.9453 52.3359C66.1693 52.3359 66.3932 52.3008 66.6172 52.2305V52.9219C66.5156 52.9661 66.3841 53.0026 66.2227 53.0312C66.0638 53.0625 65.8984 53.0781 65.7266 53.0781C64.8568 53.0781 64.4219 52.6198 64.4219 51.7031V49.375H63.832V48.9688L64.4648 48.6328L64.7773 47.7188H65.3438V48.6797H66.5742V49.375H65.3438V51.6875C65.3438 51.9089 65.3984 52.0729 65.5078 52.1797C65.6198 52.2839 65.7656 52.3359 65.9453 52.3359ZM68.4023 53H67.4844V46.9219H68.4023V53ZM71.6055 53.0781C70.9336 53.0781 70.4076 52.8828 70.0273 52.4922C69.6497 52.099 69.4609 51.5586 69.4609 50.8711C69.4609 50.1654 69.6367 49.6107 69.9883 49.207C70.3398 48.8034 70.8229 48.6016 71.4375 48.6016C72.0078 48.6016 72.4583 48.7747 72.7891 49.1211C73.1198 49.4674 73.2852 49.944 73.2852 50.5508V51.0469H70.4062C70.4193 51.4661 70.5326 51.7891 70.7461 52.0156C70.9596 52.2396 71.2604 52.3516 71.6484 52.3516C71.9036 52.3516 72.1406 52.3281 72.3594 52.2812C72.5807 52.2318 72.8177 52.151 73.0703 52.0391V52.7852C72.8464 52.8919 72.6198 52.9674 72.3906 53.0117C72.1615 53.056 71.8997 53.0781 71.6055 53.0781ZM71.4375 49.2969C71.1458 49.2969 70.9115 49.3893 70.7344 49.5742C70.5599 49.7591 70.4557 50.0286 70.4219 50.3828H72.3828C72.3776 50.026 72.2917 49.7565 72.125 49.5742C71.9583 49.3893 71.7292 49.2969 71.4375 49.2969ZM74.1914 52.5117C74.1914 52.3216 74.2409 52.1758 74.3398 52.0742C74.4388 51.9727 74.582 51.9219 74.7695 51.9219C74.9596 51.9219 75.1042 51.9753 75.2031 52.082C75.3021 52.1862 75.3516 52.3294 75.3516 52.5117C75.3516 52.6966 75.3008 52.8438 75.1992 52.9531C75.1003 53.0599 74.957 53.1133 74.7695 53.1133C74.582 53.1133 74.4388 53.0599 74.3398 52.9531C74.2409 52.8464 74.1914 52.6992 74.1914 52.5117ZM74.1914 49.1758C74.1914 48.7826 74.3841 48.5859 74.7695 48.5859C74.9648 48.5859 75.1107 48.638 75.207 48.7422C75.3034 48.8464 75.3516 48.9909 75.3516 49.1758C75.3516 49.3607 75.3008 49.5078 75.1992 49.6172C75.1003 49.724 74.957 49.7773 74.7695 49.7773C74.582 49.7773 74.4388 49.724 74.3398 49.6172C74.2409 49.5104 74.1914 49.3633 74.1914 49.1758Z" fill="#9A9A9A"/>
<path d="M33.5352 147.016C33.5352 147.612 33.3398 148.069 32.9492 148.387C32.5586 148.704 32.0026 148.863 31.2812 148.863H30.6875V151H29.7539V145.289H31.3984C32.112 145.289 32.6458 145.435 33 145.727C33.3568 146.018 33.5352 146.448 33.5352 147.016ZM30.6875 148.078H31.1836C31.6628 148.078 32.0143 147.995 32.2383 147.828C32.4622 147.661 32.5742 147.401 32.5742 147.047C32.5742 146.719 32.474 146.474 32.2734 146.312C32.0729 146.151 31.7604 146.07 31.3359 146.07H30.6875V148.078ZM36.7695 146.602C36.9544 146.602 37.1068 146.615 37.2266 146.641L37.1367 147.496C37.0065 147.465 36.8711 147.449 36.7305 147.449C36.3633 147.449 36.0651 147.569 35.8359 147.809C35.6094 148.048 35.4961 148.359 35.4961 148.742V151H34.5781V146.68H35.2969L35.418 147.441H35.4648C35.6081 147.184 35.7943 146.979 36.0234 146.828C36.2552 146.677 36.5039 146.602 36.7695 146.602ZM41.8633 148.832C41.8633 149.538 41.6823 150.089 41.3203 150.484C40.9583 150.88 40.4544 151.078 39.8086 151.078C39.4049 151.078 39.0482 150.987 38.7383 150.805C38.4284 150.622 38.1901 150.361 38.0234 150.02C37.8568 149.678 37.7734 149.283 37.7734 148.832C37.7734 148.132 37.9531 147.585 38.3125 147.191C38.6719 146.798 39.1784 146.602 39.832 146.602C40.457 146.602 40.9518 146.803 41.3164 147.207C41.681 147.608 41.8633 148.15 41.8633 148.832ZM38.7188 148.832C38.7188 149.829 39.0872 150.328 39.8242 150.328C40.5534 150.328 40.918 149.829 40.918 148.832C40.918 147.845 40.5508 147.352 39.8164 147.352C39.431 147.352 39.151 147.479 38.9766 147.734C38.8047 147.99 38.7188 148.355 38.7188 148.832ZM42.4805 152.922C42.2044 152.922 41.9753 152.889 41.793 152.824V152.098C41.9701 152.145 42.151 152.168 42.3359 152.168C42.7266 152.168 42.9219 151.947 42.9219 151.504V146.68H43.8398V151.566C43.8398 152.012 43.7227 152.349 43.4883 152.578C43.2565 152.807 42.9206 152.922 42.4805 152.922ZM42.8672 145.535C42.8672 145.371 42.9115 145.245 43 145.156C43.0911 145.068 43.2201 145.023 43.3867 145.023C43.5482 145.023 43.6732 145.068 43.7617 145.156C43.8529 145.245 43.8984 145.371 43.8984 145.535C43.8984 145.691 43.8529 145.815 43.7617 145.906C43.6732 145.995 43.5482 146.039 43.3867 146.039C43.2201 146.039 43.0911 145.995 43 145.906C42.9115 145.815 42.8672 145.691 42.8672 145.535ZM47.043 151.078C46.3711 151.078 45.8451 150.883 45.4648 150.492C45.0872 150.099 44.8984 149.559 44.8984 148.871C44.8984 148.165 45.0742 147.611 45.4258 147.207C45.7773 146.803 46.2604 146.602 46.875 146.602C47.4453 146.602 47.8958 146.775 48.2266 147.121C48.5573 147.467 48.7227 147.944 48.7227 148.551V149.047H45.8438C45.8568 149.466 45.9701 149.789 46.1836 150.016C46.3971 150.24 46.6979 150.352 47.0859 150.352C47.3411 150.352 47.5781 150.328 47.7969 150.281C48.0182 150.232 48.2552 150.151 48.5078 150.039V150.785C48.2839 150.892 48.0573 150.967 47.8281 151.012C47.599 151.056 47.3372 151.078 47.043 151.078ZM46.875 147.297C46.5833 147.297 46.349 147.389 46.1719 147.574C45.9974 147.759 45.8932 148.029 45.8594 148.383H47.8203C47.8151 148.026 47.7292 147.757 47.5625 147.574C47.3958 147.389 47.1667 147.297 46.875 147.297ZM51.5078 151.078C50.8542 151.078 50.3568 150.888 50.0156 150.508C49.6771 150.125 49.5078 149.577 49.5078 148.863C49.5078 148.137 49.6849 147.578 50.0391 147.188C50.3958 146.797 50.9102 146.602 51.582 146.602C52.0378 146.602 52.4479 146.686 52.8125 146.855L52.5352 147.594C52.1471 147.443 51.8268 147.367 51.5742 147.367C50.8268 147.367 50.4531 147.863 50.4531 148.855C50.4531 149.34 50.5456 149.704 50.7305 149.949C50.918 150.191 51.1914 150.312 51.5508 150.312C51.9596 150.312 52.3464 150.211 52.7109 150.008V150.809C52.5469 150.905 52.3711 150.974 52.1836 151.016C51.9987 151.057 51.7734 151.078 51.5078 151.078ZM55.3359 150.336C55.5599 150.336 55.7839 150.301 56.0078 150.23V150.922C55.9062 150.966 55.7747 151.003 55.6133 151.031C55.4544 151.062 55.2891 151.078 55.1172 151.078C54.2474 151.078 53.8125 150.62 53.8125 149.703V147.375H53.2227V146.969L53.8555 146.633L54.168 145.719H54.7344V146.68H55.9648V147.375H54.7344V149.688C54.7344 149.909 54.7891 150.073 54.8984 150.18C55.0104 150.284 55.1562 150.336 55.3359 150.336ZM63.5273 145.289V148.984C63.5273 149.406 63.4362 149.776 63.2539 150.094C63.0742 150.409 62.8125 150.652 62.4688 150.824C62.1276 150.993 61.7188 151.078 61.2422 151.078C60.5339 151.078 59.9831 150.891 59.5898 150.516C59.1966 150.141 59 149.625 59 148.969V145.289H59.9375V148.902C59.9375 149.374 60.0469 149.721 60.2656 149.945C60.4844 150.169 60.8203 150.281 61.2734 150.281C62.1536 150.281 62.5938 149.819 62.5938 148.895V145.289H63.5273ZM65.9219 147.945H66.5703C67.0052 147.945 67.3203 147.865 67.5156 147.703C67.7109 147.542 67.8086 147.302 67.8086 146.984C67.8086 146.661 67.7031 146.43 67.4922 146.289C67.2812 146.148 66.9635 146.078 66.5391 146.078H65.9219V147.945ZM65.9219 148.719V151H64.9883V145.289H66.6016C67.3385 145.289 67.8841 145.427 68.2383 145.703C68.5924 145.979 68.7695 146.396 68.7695 146.953C68.7695 147.664 68.3997 148.171 67.6602 148.473L69.2734 151H68.2109L66.8438 148.719H65.9219ZM70.1055 151V145.289H71.0391V150.199H73.457V151H70.1055ZM74.207 150.512C74.207 150.322 74.2565 150.176 74.3555 150.074C74.4544 149.973 74.5977 149.922 74.7852 149.922C74.9753 149.922 75.1198 149.975 75.2188 150.082C75.3177 150.186 75.3672 150.329 75.3672 150.512C75.3672 150.697 75.3164 150.844 75.2148 150.953C75.1159 151.06 74.9727 151.113 74.7852 151.113C74.5977 151.113 74.4544 151.06 74.3555 150.953C74.2565 150.846 74.207 150.699 74.207 150.512ZM74.207 147.176C74.207 146.783 74.3997 146.586 74.7852 146.586C74.9805 146.586 75.1263 146.638 75.2227 146.742C75.319 146.846 75.3672 146.991 75.3672 147.176C75.3672 147.361 75.3164 147.508 75.2148 147.617C75.1159 147.724 74.9727 147.777 74.7852 147.777C74.5977 147.777 74.4544 147.724 74.3555 147.617C74.2565 147.51 74.207 147.363 74.207 147.176Z" fill="#9A9A9A"/>
<path d="M33.5352 93.0156C33.5352 93.612 33.3398 94.069 32.9492 94.3867C32.5586 94.7044 32.0026 94.8633 31.2812 94.8633H30.6875V97H29.7539V91.2891H31.3984C32.112 91.2891 32.6458 91.4349 33 91.7266C33.3568 92.0182 33.5352 92.4479 33.5352 93.0156ZM30.6875 94.0781H31.1836C31.6628 94.0781 32.0143 93.9948 32.2383 93.8281C32.4622 93.6615 32.5742 93.401 32.5742 93.0469C32.5742 92.7188 32.474 92.474 32.2734 92.3125C32.0729 92.151 31.7604 92.0703 31.3359 92.0703H30.6875V94.0781ZM36.7695 92.6016C36.9544 92.6016 37.1068 92.6146 37.2266 92.6406L37.1367 93.4961C37.0065 93.4648 36.8711 93.4492 36.7305 93.4492C36.3633 93.4492 36.0651 93.569 35.8359 93.8086C35.6094 94.0482 35.4961 94.3594 35.4961 94.7422V97H34.5781V92.6797H35.2969L35.418 93.4414H35.4648C35.6081 93.1836 35.7943 92.9792 36.0234 92.8281C36.2552 92.6771 36.5039 92.6016 36.7695 92.6016ZM41.8633 94.832C41.8633 95.5378 41.6823 96.0885 41.3203 96.4844C40.9583 96.8802 40.4544 97.0781 39.8086 97.0781C39.4049 97.0781 39.0482 96.987 38.7383 96.8047C38.4284 96.6224 38.1901 96.3607 38.0234 96.0195C37.8568 95.6784 37.7734 95.2826 37.7734 94.832C37.7734 94.1315 37.9531 93.5846 38.3125 93.1914C38.6719 92.7982 39.1784 92.6016 39.832 92.6016C40.457 92.6016 40.9518 92.8034 41.3164 93.207C41.681 93.6081 41.8633 94.1497 41.8633 94.832ZM38.7188 94.832C38.7188 95.8294 39.0872 96.3281 39.8242 96.3281C40.5534 96.3281 40.918 95.8294 40.918 94.832C40.918 93.8451 40.5508 93.3516 39.8164 93.3516C39.431 93.3516 39.151 93.4792 38.9766 93.7344C38.8047 93.9896 38.7188 94.3555 38.7188 94.832ZM42.4805 98.9219C42.2044 98.9219 41.9753 98.8893 41.793 98.8242V98.0977C41.9701 98.1445 42.151 98.168 42.3359 98.168C42.7266 98.168 42.9219 97.9466 42.9219 97.5039V92.6797H43.8398V97.5664C43.8398 98.0117 43.7227 98.349 43.4883 98.5781C43.2565 98.8073 42.9206 98.9219 42.4805 98.9219ZM42.8672 91.5352C42.8672 91.3711 42.9115 91.2448 43 91.1562C43.0911 91.0677 43.2201 91.0234 43.3867 91.0234C43.5482 91.0234 43.6732 91.0677 43.7617 91.1562C43.8529 91.2448 43.8984 91.3711 43.8984 91.5352C43.8984 91.6914 43.8529 91.8151 43.7617 91.9062C43.6732 91.9948 43.5482 92.0391 43.3867 92.0391C43.2201 92.0391 43.0911 91.9948 43 91.9062C42.9115 91.8151 42.8672 91.6914 42.8672 91.5352ZM47.043 97.0781C46.3711 97.0781 45.8451 96.8828 45.4648 96.4922C45.0872 96.099 44.8984 95.5586 44.8984 94.8711C44.8984 94.1654 45.0742 93.6107 45.4258 93.207C45.7773 92.8034 46.2604 92.6016 46.875 92.6016C47.4453 92.6016 47.8958 92.7747 48.2266 93.1211C48.5573 93.4674 48.7227 93.944 48.7227 94.5508V95.0469H45.8438C45.8568 95.4661 45.9701 95.7891 46.1836 96.0156C46.3971 96.2396 46.6979 96.3516 47.0859 96.3516C47.3411 96.3516 47.5781 96.3281 47.7969 96.2812C48.0182 96.2318 48.2552 96.151 48.5078 96.0391V96.7852C48.2839 96.8919 48.0573 96.9674 47.8281 97.0117C47.599 97.056 47.3372 97.0781 47.043 97.0781ZM46.875 93.2969C46.5833 93.2969 46.349 93.3893 46.1719 93.5742C45.9974 93.7591 45.8932 94.0286 45.8594 94.3828H47.8203C47.8151 94.026 47.7292 93.7565 47.5625 93.5742C47.3958 93.3893 47.1667 93.2969 46.875 93.2969ZM51.5078 97.0781C50.8542 97.0781 50.3568 96.888 50.0156 96.5078C49.6771 96.125 49.5078 95.5768 49.5078 94.8633C49.5078 94.1367 49.6849 93.5781 50.0391 93.1875C50.3958 92.7969 50.9102 92.6016 51.582 92.6016C52.0378 92.6016 52.4479 92.6862 52.8125 92.8555L52.5352 93.5938C52.1471 93.4427 51.8268 93.3672 51.5742 93.3672C50.8268 93.3672 50.4531 93.8633 50.4531 94.8555C50.4531 95.3398 50.5456 95.7044 50.7305 95.9492C50.918 96.1914 51.1914 96.3125 51.5508 96.3125C51.9596 96.3125 52.3464 96.2109 52.7109 96.0078V96.8086C52.5469 96.9049 52.3711 96.974 52.1836 97.0156C51.9987 97.0573 51.7734 97.0781 51.5078 97.0781ZM55.3359 96.3359C55.5599 96.3359 55.7839 96.3008 56.0078 96.2305V96.9219C55.9062 96.9661 55.7747 97.0026 55.6133 97.0312C55.4544 97.0625 55.2891 97.0781 55.1172 97.0781C54.2474 97.0781 53.8125 96.6198 53.8125 95.7031V93.375H53.2227V92.9688L53.8555 92.6328L54.168 91.7188H54.7344V92.6797H55.9648V93.375H54.7344V95.6875C54.7344 95.9089 54.7891 96.0729 54.8984 96.1797C55.0104 96.2839 55.1562 96.3359 55.3359 96.3359ZM60.4102 97.0781C59.8711 97.0781 59.4505 96.8828 59.1484 96.4922C58.8464 96.1016 58.6953 95.5534 58.6953 94.8477C58.6953 94.1393 58.8477 93.5885 59.1523 93.1953C59.4596 92.7995 59.8841 92.6016 60.4258 92.6016C60.9935 92.6016 61.4258 92.8112 61.7227 93.2305H61.7695C61.7253 92.9206 61.7031 92.6758 61.7031 92.4961V90.9219H62.625V97H61.9062L61.7461 96.4336H61.7031C61.4089 96.8633 60.9779 97.0781 60.4102 97.0781ZM60.6562 96.3359C61.0339 96.3359 61.3086 96.2305 61.4805 96.0195C61.6523 95.806 61.7409 95.4609 61.7461 94.9844V94.8555C61.7461 94.3112 61.6576 93.9245 61.4805 93.6953C61.3034 93.4661 61.026 93.3516 60.6484 93.3516C60.3255 93.3516 60.0768 93.4831 59.9023 93.7461C59.7279 94.0065 59.6406 94.3789 59.6406 94.8633C59.6406 95.3424 59.7253 95.7083 59.8945 95.9609C60.0638 96.2109 60.3177 96.3359 60.6562 96.3359ZM65.8242 97.0781C65.1523 97.0781 64.6263 96.8828 64.2461 96.4922C63.8685 96.099 63.6797 95.5586 63.6797 94.8711C63.6797 94.1654 63.8555 93.6107 64.207 93.207C64.5586 92.8034 65.0417 92.6016 65.6562 92.6016C66.2266 92.6016 66.6771 92.7747 67.0078 93.1211C67.3385 93.4674 67.5039 93.944 67.5039 94.5508V95.0469H64.625C64.638 95.4661 64.7513 95.7891 64.9648 96.0156C65.1784 96.2396 65.4792 96.3516 65.8672 96.3516C66.1224 96.3516 66.3594 96.3281 66.5781 96.2812C66.7995 96.2318 67.0365 96.151 67.2891 96.0391V96.7852C67.0651 96.8919 66.8385 96.9674 66.6094 97.0117C66.3802 97.056 66.1185 97.0781 65.8242 97.0781ZM65.6562 93.2969C65.3646 93.2969 65.1302 93.3893 64.9531 93.5742C64.7786 93.7591 64.6745 94.0286 64.6406 94.3828H66.6016C66.5964 94.026 66.5104 93.7565 66.3438 93.5742C66.1771 93.3893 65.9479 93.2969 65.6562 93.2969ZM70.2891 97.0781C69.6354 97.0781 69.138 96.888 68.7969 96.5078C68.4583 96.125 68.2891 95.5768 68.2891 94.8633C68.2891 94.1367 68.4661 93.5781 68.8203 93.1875C69.1771 92.7969 69.6914 92.6016 70.3633 92.6016C70.819 92.6016 71.2292 92.6862 71.5938 92.8555L71.3164 93.5938C70.9284 93.4427 70.6081 93.3672 70.3555 93.3672C69.6081 93.3672 69.2344 93.8633 69.2344 94.8555C69.2344 95.3398 69.3268 95.7044 69.5117 95.9492C69.6992 96.1914 69.9727 96.3125 70.332 96.3125C70.7409 96.3125 71.1276 96.2109 71.4922 96.0078V96.8086C71.3281 96.9049 71.1523 96.974 70.9648 97.0156C70.7799 97.0573 70.5547 97.0781 70.2891 97.0781ZM74.6992 92.6016C74.8841 92.6016 75.0365 92.6146 75.1562 92.6406L75.0664 93.4961C74.9362 93.4648 74.8008 93.4492 74.6602 93.4492C74.293 93.4492 73.9948 93.569 73.7656 93.8086C73.5391 94.0482 73.4258 94.3594 73.4258 94.7422V97H72.5078V92.6797H73.2266L73.3477 93.4414H73.3945C73.5378 93.1836 73.724 92.9792 73.9531 92.8281C74.1849 92.6771 74.4336 92.6016 74.6992 92.6016ZM76.8789 97H75.9609V92.6797H76.8789V97ZM75.9062 91.5352C75.9062 91.3711 75.9505 91.2448 76.0391 91.1562C76.1302 91.0677 76.2591 91.0234 76.4258 91.0234C76.5872 91.0234 76.7122 91.0677 76.8008 91.1562C76.8919 91.2448 76.9375 91.3711 76.9375 91.5352C76.9375 91.6914 76.8919 91.8151 76.8008 91.9062C76.7122 91.9948 76.5872 92.0391 76.4258 92.0391C76.2591 92.0391 76.1302 91.9948 76.0391 91.9062C75.9505 91.8151 75.9062 91.6914 75.9062 91.5352ZM80.3867 97.0781C79.8398 97.0781 79.4154 96.8815 79.1133 96.4883H79.0586C79.0951 96.8529 79.1133 97.0742 79.1133 97.1523V98.9219H78.1953V92.6797H78.9375C78.9583 92.7604 79.0013 92.9531 79.0664 93.2578H79.1133C79.3997 92.8203 79.8294 92.6016 80.4023 92.6016C80.9414 92.6016 81.3607 92.7969 81.6602 93.1875C81.9622 93.5781 82.1133 94.1263 82.1133 94.832C82.1133 95.5378 81.9596 96.0885 81.6523 96.4844C81.3477 96.8802 80.9258 97.0781 80.3867 97.0781ZM80.1641 93.3516C79.7995 93.3516 79.5326 93.4583 79.3633 93.6719C79.1966 93.8854 79.1133 94.2266 79.1133 94.6953V94.832C79.1133 95.3581 79.1966 95.7396 79.3633 95.9766C79.5299 96.2109 79.8021 96.3281 80.1797 96.3281C80.4974 96.3281 80.7422 96.1979 80.9141 95.9375C81.0859 95.6771 81.1719 95.306 81.1719 94.8242C81.1719 94.3398 81.0859 93.974 80.9141 93.7266C80.7448 93.4766 80.4948 93.3516 80.1641 93.3516ZM84.7891 96.3359C85.013 96.3359 85.237 96.3008 85.4609 96.2305V96.9219C85.3594 96.9661 85.2279 97.0026 85.0664 97.0312C84.9076 97.0625 84.7422 97.0781 84.5703 97.0781C83.7005 97.0781 83.2656 96.6198 83.2656 95.7031V93.375H82.6758V92.9688L83.3086 92.6328L83.6211 91.7188H84.1875V92.6797H85.418V93.375H84.1875V95.6875C84.1875 95.9089 84.2422 96.0729 84.3516 96.1797C84.4635 96.2839 84.6094 96.3359 84.7891 96.3359ZM87.2461 97H86.3281V92.6797H87.2461V97ZM86.2734 91.5352C86.2734 91.3711 86.3177 91.2448 86.4062 91.1562C86.4974 91.0677 86.6263 91.0234 86.793 91.0234C86.9544 91.0234 87.0794 91.0677 87.168 91.1562C87.2591 91.2448 87.3047 91.3711 87.3047 91.5352C87.3047 91.6914 87.2591 91.8151 87.168 91.9062C87.0794 91.9948 86.9544 92.0391 86.793 92.0391C86.6263 92.0391 86.4974 91.9948 86.4062 91.9062C86.3177 91.8151 86.2734 91.6914 86.2734 91.5352ZM92.3945 94.832C92.3945 95.5378 92.2135 96.0885 91.8516 96.4844C91.4896 96.8802 90.9857 97.0781 90.3398 97.0781C89.9362 97.0781 89.5794 96.987 89.2695 96.8047C88.9596 96.6224 88.7214 96.3607 88.5547 96.0195C88.388 95.6784 88.3047 95.2826 88.3047 94.832C88.3047 94.1315 88.4844 93.5846 88.8438 93.1914C89.2031 92.7982 89.7096 92.6016 90.3633 92.6016C90.9883 92.6016 91.4831 92.8034 91.8477 93.207C92.2122 93.6081 92.3945 94.1497 92.3945 94.832ZM89.25 94.832C89.25 95.8294 89.6185 96.3281 90.3555 96.3281C91.0846 96.3281 91.4492 95.8294 91.4492 94.832C91.4492 93.8451 91.082 93.3516 90.3477 93.3516C89.9622 93.3516 89.6823 93.4792 89.5078 93.7344C89.3359 93.9896 89.25 94.3555 89.25 94.832ZM97.2539 97H96.332V94.3438C96.332 94.0104 96.2643 93.7617 96.1289 93.5977C95.9961 93.4336 95.7839 93.3516 95.4922 93.3516C95.1042 93.3516 94.8203 93.4661 94.6406 93.6953C94.4609 93.9245 94.3711 94.3086 94.3711 94.8477V97H93.4531V92.6797H94.1719L94.3008 93.2461H94.3477C94.4779 93.0404 94.6628 92.8815 94.9023 92.7695C95.1419 92.6576 95.4076 92.6016 95.6992 92.6016C96.7357 92.6016 97.2539 93.1289 97.2539 94.1836V97ZM100.273 94.8086C100.273 94.1185 100.374 93.4727 100.574 92.8711C100.777 92.2695 101.069 91.7422 101.449 91.2891H102.25C101.888 91.7786 101.611 92.3281 101.418 92.9375C101.225 93.5443 101.129 94.1654 101.129 94.8008C101.129 95.4362 101.225 96.0521 101.418 96.6484C101.611 97.2448 101.885 97.7839 102.242 98.2656H101.449C101.066 97.8229 100.775 97.306 100.574 96.7148C100.374 96.1237 100.273 95.4883 100.273 94.8086ZM106.789 97H105.867V94.3359C105.867 94.0052 105.805 93.7591 105.68 93.5977C105.555 93.4336 105.359 93.3516 105.094 93.3516C104.74 93.3516 104.479 93.4674 104.312 93.6992C104.148 93.9284 104.066 94.3112 104.066 94.8477V97H103.148V92.6797H103.867L103.996 93.2461H104.043C104.163 93.0404 104.336 92.8815 104.562 92.7695C104.792 92.6576 105.043 92.6016 105.316 92.6016C105.98 92.6016 106.421 92.8281 106.637 93.2812H106.699C106.827 93.0677 107.007 92.901 107.238 92.7812C107.47 92.6615 107.736 92.6016 108.035 92.6016C108.551 92.6016 108.926 92.7318 109.16 92.9922C109.397 93.2526 109.516 93.6497 109.516 94.1836V97H108.598V94.3359C108.598 94.0052 108.534 93.7591 108.406 93.5977C108.281 93.4336 108.086 93.3516 107.82 93.3516C107.464 93.3516 107.202 93.4635 107.035 93.6875C106.871 93.9089 106.789 94.25 106.789 94.7109V97ZM113.5 97L113.316 96.3984H113.285C113.077 96.6615 112.867 96.8411 112.656 96.9375C112.445 97.0312 112.174 97.0781 111.844 97.0781C111.419 97.0781 111.087 96.9635 110.848 96.7344C110.611 96.5052 110.492 96.181 110.492 95.7617C110.492 95.3164 110.658 94.9805 110.988 94.7539C111.319 94.5273 111.823 94.4036 112.5 94.3828L113.246 94.3594V94.1289C113.246 93.8529 113.181 93.6471 113.051 93.5117C112.923 93.3737 112.724 93.3047 112.453 93.3047C112.232 93.3047 112.02 93.3372 111.816 93.4023C111.613 93.4674 111.418 93.5443 111.23 93.6328L110.934 92.9766C111.168 92.8542 111.424 92.7617 111.703 92.6992C111.982 92.6341 112.245 92.6016 112.492 92.6016C113.042 92.6016 113.456 92.7214 113.734 92.9609C114.016 93.2005 114.156 93.5768 114.156 94.0898V97H113.5ZM112.133 96.375C112.466 96.375 112.733 96.2826 112.934 96.0977C113.137 95.9102 113.238 95.6484 113.238 95.3125V94.9375L112.684 94.9609C112.251 94.9766 111.936 95.0495 111.738 95.1797C111.543 95.3073 111.445 95.5039 111.445 95.7695C111.445 95.9622 111.503 96.112 111.617 96.2188C111.732 96.3229 111.904 96.375 112.133 96.375ZM116.398 94.793L114.949 92.6797H115.996L116.98 94.1914L117.973 92.6797H119.012L117.559 94.793L119.086 97H118.047L116.98 95.3828L115.918 97H114.879L116.398 94.793ZM124.312 97H123.395V93.3125C123.395 92.8724 123.405 92.5234 123.426 92.2656C123.366 92.3281 123.292 92.3971 123.203 92.4727C123.117 92.5482 122.826 92.7878 122.328 93.1914L121.867 92.6094L123.547 91.2891H124.312V97ZM130.059 94.1445C130.059 95.1367 129.898 95.8737 129.578 96.3555C129.26 96.8372 128.773 97.0781 128.117 97.0781C127.482 97.0781 127 96.8294 126.672 96.332C126.344 95.8346 126.18 95.1055 126.18 94.1445C126.18 93.1367 126.339 92.3945 126.656 91.918C126.977 91.4388 127.464 91.1992 128.117 91.1992C128.755 91.1992 129.238 91.4492 129.566 91.9492C129.895 92.4492 130.059 93.181 130.059 94.1445ZM127.109 94.1445C127.109 94.9232 127.189 95.4792 127.348 95.8125C127.509 96.1458 127.766 96.3125 128.117 96.3125C128.469 96.3125 128.725 96.1432 128.887 95.8047C129.051 95.4661 129.133 94.9128 129.133 94.1445C129.133 93.3789 129.051 92.8255 128.887 92.4844C128.725 92.1406 128.469 91.9688 128.117 91.9688C127.766 91.9688 127.509 92.1367 127.348 92.4727C127.189 92.8086 127.109 93.3659 127.109 94.1445ZM134.629 94.1445C134.629 95.1367 134.469 95.8737 134.148 96.3555C133.831 96.8372 133.344 97.0781 132.688 97.0781C132.052 97.0781 131.57 96.8294 131.242 96.332C130.914 95.8346 130.75 95.1055 130.75 94.1445C130.75 93.1367 130.909 92.3945 131.227 91.918C131.547 91.4388 132.034 91.1992 132.688 91.1992C133.326 91.1992 133.809 91.4492 134.137 91.9492C134.465 92.4492 134.629 93.181 134.629 94.1445ZM131.68 94.1445C131.68 94.9232 131.759 95.4792 131.918 95.8125C132.079 96.1458 132.336 96.3125 132.688 96.3125C133.039 96.3125 133.296 96.1432 133.457 95.8047C133.621 95.4661 133.703 94.9128 133.703 94.1445C133.703 93.3789 133.621 92.8255 133.457 92.4844C133.296 92.1406 133.039 91.9688 132.688 91.9688C132.336 91.9688 132.079 92.1367 131.918 92.4727C131.759 92.8086 131.68 93.3659 131.68 94.1445ZM139.453 97.0781C138.799 97.0781 138.302 96.888 137.961 96.5078C137.622 96.125 137.453 95.5768 137.453 94.8633C137.453 94.1367 137.63 93.5781 137.984 93.1875C138.341 92.7969 138.855 92.6016 139.527 92.6016C139.983 92.6016 140.393 92.6862 140.758 92.8555L140.48 93.5938C140.092 93.4427 139.772 93.3672 139.52 93.3672C138.772 93.3672 138.398 93.8633 138.398 94.8555C138.398 95.3398 138.491 95.7044 138.676 95.9492C138.863 96.1914 139.137 96.3125 139.496 96.3125C139.905 96.3125 140.292 96.2109 140.656 96.0078V96.8086C140.492 96.9049 140.316 96.974 140.129 97.0156C139.944 97.0573 139.719 97.0781 139.453 97.0781ZM145.473 97H144.551V94.3438C144.551 94.0104 144.483 93.7617 144.348 93.5977C144.215 93.4336 144.003 93.3516 143.711 93.3516C143.326 93.3516 143.042 93.4674 142.859 93.6992C142.68 93.9284 142.59 94.3138 142.59 94.8555V97H141.672V90.9219H142.59V92.4648C142.59 92.7122 142.574 92.9766 142.543 93.2578H142.602C142.727 93.0495 142.9 92.888 143.121 92.7734C143.345 92.6589 143.605 92.6016 143.902 92.6016C144.949 92.6016 145.473 93.1289 145.473 94.1836V97ZM149.453 97L149.27 96.3984H149.238C149.03 96.6615 148.82 96.8411 148.609 96.9375C148.398 97.0312 148.128 97.0781 147.797 97.0781C147.372 97.0781 147.04 96.9635 146.801 96.7344C146.564 96.5052 146.445 96.181 146.445 95.7617C146.445 95.3164 146.611 94.9805 146.941 94.7539C147.272 94.5273 147.776 94.4036 148.453 94.3828L149.199 94.3594V94.1289C149.199 93.8529 149.134 93.6471 149.004 93.5117C148.876 93.3737 148.677 93.3047 148.406 93.3047C148.185 93.3047 147.973 93.3372 147.77 93.4023C147.566 93.4674 147.371 93.5443 147.184 93.6328L146.887 92.9766C147.121 92.8542 147.378 92.7617 147.656 92.6992C147.935 92.6341 148.198 92.6016 148.445 92.6016C148.995 92.6016 149.409 92.7214 149.688 92.9609C149.969 93.2005 150.109 93.5768 150.109 94.0898V97H149.453ZM148.086 96.375C148.419 96.375 148.686 96.2826 148.887 96.0977C149.09 95.9102 149.191 95.6484 149.191 95.3125V94.9375L148.637 94.9609C148.204 94.9766 147.889 95.0495 147.691 95.1797C147.496 95.3073 147.398 95.5039 147.398 95.7695C147.398 95.9622 147.456 96.112 147.57 96.2188C147.685 96.3229 147.857 96.375 148.086 96.375ZM153.582 92.6016C153.767 92.6016 153.919 92.6146 154.039 92.6406L153.949 93.4961C153.819 93.4648 153.684 93.4492 153.543 93.4492C153.176 93.4492 152.878 93.569 152.648 93.8086C152.422 94.0482 152.309 94.3594 152.309 94.7422V97H151.391V92.6797H152.109L152.23 93.4414H152.277C152.421 93.1836 152.607 92.9792 152.836 92.8281C153.068 92.6771 153.316 92.6016 153.582 92.6016ZM157.547 97L157.363 96.3984H157.332C157.124 96.6615 156.914 96.8411 156.703 96.9375C156.492 97.0312 156.221 97.0781 155.891 97.0781C155.466 97.0781 155.134 96.9635 154.895 96.7344C154.658 96.5052 154.539 96.181 154.539 95.7617C154.539 95.3164 154.704 94.9805 155.035 94.7539C155.366 94.5273 155.87 94.4036 156.547 94.3828L157.293 94.3594V94.1289C157.293 93.8529 157.228 93.6471 157.098 93.5117C156.97 93.3737 156.771 93.3047 156.5 93.3047C156.279 93.3047 156.066 93.3372 155.863 93.4023C155.66 93.4674 155.465 93.5443 155.277 93.6328L154.98 92.9766C155.215 92.8542 155.471 92.7617 155.75 92.6992C156.029 92.6341 156.292 92.6016 156.539 92.6016C157.089 92.6016 157.503 92.7214 157.781 92.9609C158.062 93.2005 158.203 93.5768 158.203 94.0898V97H157.547ZM156.18 96.375C156.513 96.375 156.78 96.2826 156.98 96.0977C157.184 95.9102 157.285 95.6484 157.285 95.3125V94.9375L156.73 94.9609C156.298 94.9766 155.983 95.0495 155.785 95.1797C155.59 95.3073 155.492 95.5039 155.492 95.7695C155.492 95.9622 155.549 96.112 155.664 96.2188C155.779 96.3229 155.951 96.375 156.18 96.375ZM161.227 97.0781C160.573 97.0781 160.076 96.888 159.734 96.5078C159.396 96.125 159.227 95.5768 159.227 94.8633C159.227 94.1367 159.404 93.5781 159.758 93.1875C160.115 92.7969 160.629 92.6016 161.301 92.6016C161.757 92.6016 162.167 92.6862 162.531 92.8555L162.254 93.5938C161.866 93.4427 161.546 93.3672 161.293 93.3672C160.546 93.3672 160.172 93.8633 160.172 94.8555C160.172 95.3398 160.264 95.7044 160.449 95.9492C160.637 96.1914 160.91 96.3125 161.27 96.3125C161.678 96.3125 162.065 96.2109 162.43 96.0078V96.8086C162.266 96.9049 162.09 96.974 161.902 97.0156C161.717 97.0573 161.492 97.0781 161.227 97.0781ZM165.055 96.3359C165.279 96.3359 165.503 96.3008 165.727 96.2305V96.9219C165.625 96.9661 165.493 97.0026 165.332 97.0312C165.173 97.0625 165.008 97.0781 164.836 97.0781C163.966 97.0781 163.531 96.6198 163.531 95.7031V93.375H162.941V92.9688L163.574 92.6328L163.887 91.7188H164.453V92.6797H165.684V93.375H164.453V95.6875C164.453 95.9089 164.508 96.0729 164.617 96.1797C164.729 96.2839 164.875 96.3359 165.055 96.3359ZM168.48 97.0781C167.809 97.0781 167.283 96.8828 166.902 96.4922C166.525 96.099 166.336 95.5586 166.336 94.8711C166.336 94.1654 166.512 93.6107 166.863 93.207C167.215 92.8034 167.698 92.6016 168.312 92.6016C168.883 92.6016 169.333 92.7747 169.664 93.1211C169.995 93.4674 170.16 93.944 170.16 94.5508V95.0469H167.281C167.294 95.4661 167.408 95.7891 167.621 96.0156C167.835 96.2396 168.135 96.3516 168.523 96.3516C168.779 96.3516 169.016 96.3281 169.234 96.2812C169.456 96.2318 169.693 96.151 169.945 96.0391V96.7852C169.721 96.8919 169.495 96.9674 169.266 97.0117C169.036 97.056 168.775 97.0781 168.48 97.0781ZM168.312 93.2969C168.021 93.2969 167.786 93.3893 167.609 93.5742C167.435 93.7591 167.331 94.0286 167.297 94.3828H169.258C169.253 94.026 169.167 93.7565 169 93.5742C168.833 93.3893 168.604 93.2969 168.312 93.2969ZM173.395 92.6016C173.579 92.6016 173.732 92.6146 173.852 92.6406L173.762 93.4961C173.632 93.4648 173.496 93.4492 173.355 93.4492C172.988 93.4492 172.69 93.569 172.461 93.8086C172.234 94.0482 172.121 94.3594 172.121 94.7422V97H171.203V92.6797H171.922L172.043 93.4414H172.09C172.233 93.1836 172.419 92.9792 172.648 92.8281C172.88 92.6771 173.129 92.6016 173.395 92.6016ZM177.559 95.7695C177.559 96.1914 177.405 96.5156 177.098 96.7422C176.79 96.9661 176.35 97.0781 175.777 97.0781C175.202 97.0781 174.74 96.9909 174.391 96.8164V96.0234C174.898 96.2578 175.371 96.375 175.809 96.375C176.374 96.375 176.656 96.2044 176.656 95.8633C176.656 95.7539 176.625 95.6628 176.562 95.5898C176.5 95.5169 176.397 95.4414 176.254 95.3633C176.111 95.2852 175.911 95.1966 175.656 95.0977C175.159 94.9049 174.822 94.7122 174.645 94.5195C174.47 94.3268 174.383 94.0768 174.383 93.7695C174.383 93.3997 174.531 93.1133 174.828 92.9102C175.128 92.7044 175.534 92.6016 176.047 92.6016C176.555 92.6016 177.035 92.7044 177.488 92.9102L177.191 93.6016C176.725 93.4089 176.333 93.3125 176.016 93.3125C175.531 93.3125 175.289 93.4505 175.289 93.7266C175.289 93.862 175.352 93.9766 175.477 94.0703C175.604 94.1641 175.88 94.293 176.305 94.457C176.661 94.5951 176.921 94.7214 177.082 94.8359C177.243 94.9505 177.363 95.0833 177.441 95.2344C177.52 95.3828 177.559 95.5612 177.559 95.7695ZM180.113 94.8086C180.113 95.4935 180.012 96.1315 179.809 96.7227C179.608 97.3138 179.318 97.8281 178.938 98.2656H178.145C178.504 97.7786 178.779 97.2383 178.969 96.6445C179.161 96.0508 179.258 95.4362 179.258 94.8008C179.258 94.1628 179.161 93.5417 178.969 92.9375C178.776 92.3307 178.499 91.7812 178.137 91.2891H178.938C179.32 91.7448 179.612 92.2747 179.812 92.8789C180.013 93.4805 180.113 94.1237 180.113 94.8086Z" fill="#9A9A9A"/>
</g>
</g>
<defs>
<filter id="filter0_d" x="0" y="0" width="208" height="208" filterUnits="userSpaceOnUse" color-interpolation-filters="sRGB">
<feFlood flood-opacity="0" result="BackgroundImageFix"/>
<feColorMatrix in="SourceAlpha" type="matrix" values="0 0 0 0 0 0 0 0 0 0 0 0 0 0 0 0 0 0 127 0"/>
<feOffset dy="4"/>
<feGaussianBlur stdDeviation="2"/>
<feColorMatrix type="matrix" values="0 0 0 0 0 0 0 0 0 0 0 0 0 0 0 0 0 0 0.25 0"/>
<feBlend mode="normal" in2="BackgroundImageFix" result="effect1_dropShadow"/>
<feBlend mode="normal" in="SourceGraphic" in2="effect1_dropShadow" result="shape"/>
</filter>
<clipPath id="clip0">
<rect x="4" width="200" height="200" rx="20" fill="white"/>
</clipPath>
</defs>
</svg>
