<svg width="208" height="208" viewBox="0 0 208 208" fill="none" xmlns="http://www.w3.org/2000/svg">
<g filter="url(#filter0_d)">
<g clip-path="url(#clip0)">
<rect x="4" width="200" height="200" rx="20" fill="white"/>
<path d="M64.3398 24.2207H64.8379C65.3034 24.2207 65.6517 24.1296 65.8828 23.9473C66.1139 23.7617 66.2295 23.4932 66.2295 23.1416C66.2295 22.7868 66.1318 22.5247 65.9365 22.3555C65.7445 22.1862 65.4417 22.1016 65.0283 22.1016H64.3398V24.2207ZM67.7578 23.0879C67.7578 23.8561 67.5169 24.4437 67.0352 24.8506C66.5566 25.2575 65.8747 25.4609 64.9893 25.4609H64.3398V28H62.8262V20.8613H65.1064C65.9723 20.8613 66.6299 21.0485 67.0791 21.4229C67.5316 21.7939 67.7578 22.349 67.7578 23.0879ZM70.4775 28H68.9883V20.4023H70.4775V28ZM75.5117 28L75.2236 27.2578H75.1846C74.9339 27.5736 74.6751 27.7933 74.4082 27.917C74.1445 28.0374 73.7995 28.0977 73.373 28.0977C72.849 28.0977 72.4355 27.9479 72.1328 27.6484C71.8333 27.349 71.6836 26.9225 71.6836 26.3691C71.6836 25.7897 71.8854 25.3633 72.2891 25.0898C72.696 24.8132 73.3079 24.6602 74.125 24.6309L75.0723 24.6016V24.3623C75.0723 23.8089 74.7891 23.5322 74.2227 23.5322C73.7865 23.5322 73.2738 23.6641 72.6846 23.9277L72.1914 22.9219C72.8197 22.5931 73.5163 22.4287 74.2812 22.4287C75.0137 22.4287 75.5752 22.5882 75.9658 22.9072C76.3564 23.2262 76.5518 23.7113 76.5518 24.3623V28H75.5117ZM75.0723 25.4707L74.4961 25.4902C74.0632 25.5033 73.7409 25.5814 73.5293 25.7246C73.3177 25.8678 73.2119 26.0859 73.2119 26.3789C73.2119 26.7988 73.4528 27.0088 73.9346 27.0088C74.2796 27.0088 74.5547 26.9095 74.7598 26.7109C74.9681 26.5124 75.0723 26.2487 75.0723 25.9199V25.4707ZM83.1289 28H81.6396V24.8115C81.6396 24.4176 81.5697 24.123 81.4297 23.9277C81.2897 23.7292 81.0667 23.6299 80.7607 23.6299C80.3441 23.6299 80.043 23.7699 79.8574 24.0498C79.6719 24.3265 79.5791 24.7871 79.5791 25.4316V28H78.0898V22.541H79.2275L79.4277 23.2393H79.5107C79.6768 22.9756 79.9046 22.777 80.1943 22.6436C80.4873 22.5068 80.8193 22.4385 81.1904 22.4385C81.8252 22.4385 82.307 22.611 82.6357 22.9561C82.9645 23.2979 83.1289 23.7926 83.1289 24.4404V28ZM86.4785 22.541H88.1094L89.1396 25.6123C89.2275 25.8792 89.2878 26.195 89.3203 26.5596H89.3496C89.3854 26.2243 89.4554 25.9085 89.5596 25.6123L90.5703 22.541H92.167L89.8574 28.6982C89.6458 29.2679 89.3431 29.6943 88.9492 29.9775C88.5586 30.2607 88.1012 30.4023 87.5771 30.4023C87.32 30.4023 87.0677 30.3747 86.8203 30.3193V29.1377C86.9993 29.18 87.1947 29.2012 87.4062 29.2012C87.6699 29.2012 87.8994 29.1198 88.0947 28.957C88.2933 28.7975 88.4479 28.555 88.5586 28.2295L88.6465 27.9609L86.4785 22.541ZM94.1396 25.2607C94.1396 25.8011 94.2275 26.2096 94.4033 26.4863C94.5824 26.763 94.8721 26.9014 95.2725 26.9014C95.6696 26.9014 95.9544 26.7646 96.127 26.4912C96.3027 26.2145 96.3906 25.8044 96.3906 25.2607C96.3906 24.7204 96.3027 24.3151 96.127 24.0449C95.9512 23.7747 95.6631 23.6396 95.2627 23.6396C94.8656 23.6396 94.5791 23.7747 94.4033 24.0449C94.2275 24.3118 94.1396 24.7171 94.1396 25.2607ZM97.9141 25.2607C97.9141 26.1494 97.6797 26.8444 97.2109 27.3457C96.7422 27.847 96.0895 28.0977 95.2529 28.0977C94.7288 28.0977 94.2666 27.9837 93.8662 27.7559C93.4658 27.5247 93.1582 27.1943 92.9434 26.7646C92.7285 26.335 92.6211 25.8337 92.6211 25.2607C92.6211 24.3688 92.8538 23.6755 93.3193 23.1807C93.7848 22.6859 94.4391 22.4385 95.2822 22.4385C95.8063 22.4385 96.2686 22.5524 96.6689 22.7803C97.0693 23.0081 97.377 23.3353 97.5918 23.7617C97.8066 24.1882 97.9141 24.6878 97.9141 25.2607ZM103.012 28L102.812 27.3018H102.733C102.574 27.5557 102.348 27.7526 102.055 27.8926C101.762 28.0293 101.428 28.0977 101.054 28.0977C100.412 28.0977 99.929 27.9268 99.6035 27.585C99.278 27.2399 99.1152 26.7451 99.1152 26.1006V22.541H100.604V25.7295C100.604 26.1234 100.674 26.4196 100.814 26.6182C100.954 26.8135 101.177 26.9111 101.483 26.9111C101.9 26.9111 102.201 26.7728 102.387 26.4961C102.572 26.2161 102.665 25.7539 102.665 25.1094V22.541H104.154V28H103.012ZM108.764 22.4385C108.965 22.4385 109.133 22.4531 109.267 22.4824L109.154 23.8789C109.034 23.8464 108.887 23.8301 108.715 23.8301C108.24 23.8301 107.868 23.9521 107.602 24.1963C107.338 24.4404 107.206 24.7822 107.206 25.2217V28H105.717V22.541H106.845L107.064 23.459H107.138C107.307 23.153 107.535 22.9072 107.821 22.7217C108.111 22.5329 108.425 22.4385 108.764 22.4385ZM115.893 22.4385C116.537 22.4385 117.042 22.6908 117.406 23.1953C117.771 23.6966 117.953 24.3851 117.953 25.2607C117.953 26.1624 117.764 26.8607 117.387 27.3555C117.012 27.8503 116.501 28.0977 115.854 28.0977C115.212 28.0977 114.709 27.8649 114.345 27.3994H114.242L113.993 28H112.855V20.4023H114.345V22.1699C114.345 22.3945 114.325 22.7542 114.286 23.249H114.345C114.693 22.7087 115.209 22.4385 115.893 22.4385ZM115.414 23.6299C115.046 23.6299 114.778 23.7438 114.608 23.9717C114.439 24.1963 114.351 24.569 114.345 25.0898V25.251C114.345 25.8369 114.431 26.2568 114.604 26.5107C114.779 26.7646 115.056 26.8916 115.434 26.8916C115.74 26.8916 115.982 26.7516 116.161 26.4717C116.343 26.1885 116.435 25.7783 116.435 25.2412C116.435 24.7041 116.343 24.3021 116.161 24.0352C115.979 23.765 115.73 23.6299 115.414 23.6299ZM123.051 28L122.851 27.3018H122.772C122.613 27.5557 122.387 27.7526 122.094 27.8926C121.801 28.0293 121.467 28.0977 121.093 28.0977C120.451 28.0977 119.968 27.9268 119.643 27.585C119.317 27.2399 119.154 26.7451 119.154 26.1006V22.541H120.644V25.7295C120.644 26.1234 120.714 26.4196 120.854 26.6182C120.993 26.8135 121.216 26.9111 121.522 26.9111C121.939 26.9111 122.24 26.7728 122.426 26.4961C122.611 26.2161 122.704 25.7539 122.704 25.1094V22.541H124.193V28H123.051ZM127.484 28.0977C126.843 28.0977 126.339 27.8486 125.971 27.3506C125.606 26.8525 125.424 26.1624 125.424 25.2803C125.424 24.3851 125.609 23.6885 125.98 23.1904C126.355 22.6891 126.869 22.4385 127.523 22.4385C128.21 22.4385 128.734 22.7054 129.096 23.2393H129.145C129.07 22.8324 129.032 22.4694 129.032 22.1504V20.4023H130.526V28H129.384L129.096 27.292H129.032C128.694 27.8291 128.178 28.0977 127.484 28.0977ZM128.007 26.9111C128.388 26.9111 128.666 26.8005 128.842 26.5791C129.021 26.3577 129.118 25.9818 129.135 25.4512V25.29C129.135 24.7041 129.044 24.2842 128.861 24.0303C128.682 23.7764 128.389 23.6494 127.982 23.6494C127.65 23.6494 127.392 23.791 127.206 24.0742C127.024 24.3542 126.933 24.7627 126.933 25.2998C126.933 25.8369 127.025 26.2406 127.211 26.5107C127.396 26.7777 127.662 26.9111 128.007 26.9111ZM136.835 22.541V23.2979L135.98 23.5176C136.137 23.7617 136.215 24.0352 136.215 24.3379C136.215 24.9238 136.01 25.3812 135.6 25.71C135.193 26.0355 134.626 26.1982 133.9 26.1982L133.632 26.1836L133.412 26.1592C133.259 26.2764 133.183 26.4066 133.183 26.5498C133.183 26.7646 133.456 26.8721 134.003 26.8721H134.931C135.53 26.8721 135.985 27.0007 136.298 27.2578C136.614 27.515 136.771 27.8926 136.771 28.3906C136.771 29.0286 136.505 29.5234 135.971 29.875C135.44 30.2266 134.677 30.4023 133.681 30.4023C132.919 30.4023 132.336 30.2689 131.933 30.002C131.532 29.7383 131.332 29.3672 131.332 28.8887C131.332 28.5599 131.435 28.2848 131.64 28.0635C131.845 27.8421 132.146 27.6842 132.543 27.5898C132.39 27.5247 132.257 27.4189 132.143 27.2725C132.029 27.1227 131.972 26.9648 131.972 26.7988C131.972 26.5905 132.032 26.418 132.152 26.2812C132.273 26.1413 132.447 26.0046 132.675 25.8711C132.388 25.7474 132.16 25.5488 131.991 25.2754C131.825 25.002 131.742 24.6797 131.742 24.3086C131.742 23.7129 131.936 23.2523 132.323 22.9268C132.711 22.6012 133.264 22.4385 133.983 22.4385C134.136 22.4385 134.317 22.4531 134.525 22.4824C134.737 22.5085 134.872 22.528 134.931 22.541H136.835ZM132.621 28.7715C132.621 28.9766 132.719 29.1377 132.914 29.2549C133.113 29.3721 133.389 29.4307 133.744 29.4307C134.278 29.4307 134.696 29.3574 134.999 29.2109C135.302 29.0645 135.453 28.8643 135.453 28.6104C135.453 28.4053 135.364 28.2637 135.185 28.1855C135.006 28.1074 134.729 28.0684 134.354 28.0684H133.583C133.31 28.0684 133.08 28.1318 132.895 28.2588C132.712 28.389 132.621 28.5599 132.621 28.7715ZM133.163 24.3281C133.163 24.6243 133.23 24.8587 133.363 25.0312C133.5 25.2038 133.707 25.29 133.983 25.29C134.263 25.29 134.468 25.2038 134.599 25.0312C134.729 24.8587 134.794 24.6243 134.794 24.3281C134.794 23.6706 134.524 23.3418 133.983 23.3418C133.437 23.3418 133.163 23.6706 133.163 24.3281ZM139.999 23.498C139.683 23.498 139.436 23.599 139.257 23.8008C139.078 23.9993 138.975 24.2826 138.949 24.6504H141.039C141.033 24.2826 140.937 23.9993 140.751 23.8008C140.565 23.599 140.315 23.498 139.999 23.498ZM140.209 28.0977C139.33 28.0977 138.643 27.8551 138.148 27.3701C137.654 26.8851 137.406 26.1982 137.406 25.3096C137.406 24.3949 137.634 23.6885 138.09 23.1904C138.549 22.6891 139.182 22.4385 139.989 22.4385C140.761 22.4385 141.361 22.6582 141.791 23.0977C142.221 23.5371 142.436 24.1442 142.436 24.9189V25.6416H138.915C138.931 26.0648 139.057 26.3952 139.291 26.6328C139.525 26.8704 139.854 26.9893 140.277 26.9893C140.606 26.9893 140.917 26.9551 141.21 26.8867C141.503 26.8184 141.809 26.7093 142.128 26.5596V27.7119C141.868 27.8421 141.589 27.9382 141.293 28C140.997 28.0651 140.635 28.0977 140.209 28.0977ZM145.946 26.9111C146.207 26.9111 146.519 26.8542 146.884 26.7402V27.8486C146.513 28.0146 146.057 28.0977 145.517 28.0977C144.921 28.0977 144.486 27.9479 144.213 27.6484C143.943 27.3457 143.808 26.8932 143.808 26.291V23.6592H143.095V23.0293L143.915 22.5312L144.345 21.3789H145.297V22.541H146.825V23.6592H145.297V26.291C145.297 26.5026 145.355 26.6589 145.473 26.7598C145.593 26.8607 145.751 26.9111 145.946 26.9111ZM149.242 25.6318H148.051L147.802 20.8613H149.491L149.242 25.6318ZM147.782 27.3018C147.782 27.0283 147.855 26.8216 148.002 26.6816C148.148 26.5417 148.362 26.4717 148.642 26.4717C148.912 26.4717 149.12 26.5433 149.267 26.6865C149.416 26.8298 149.491 27.0348 149.491 27.3018C149.491 27.5589 149.416 27.7624 149.267 27.9121C149.117 28.0586 148.909 28.1318 148.642 28.1318C148.368 28.1318 148.157 28.0602 148.007 27.917C147.857 27.7705 147.782 27.5654 147.782 27.3018Z" fill="#333333"/>
<rect x="32.35" y="60.35" width="151.3" height="14.3" rx="1.65" fill="white" stroke="#E7E7EA" stroke-width="0.7"/>
<rect x="32.35" y="104.35" width="151.3" height="14.3" rx="1.65" fill="white" stroke="#E7E7EA" stroke-width="0.7"/>
<rect x="32.35" y="158.35" width="151.3" height="14.3" rx="1.65" fill="white" stroke="#E7E7EA" stroke-width="0.7"/>
<path d="M37.4546 69.5728C37.4546 69.4064 37.4979 69.2788 37.5845 69.1899C37.6711 69.1011 37.7964 69.0566 37.9604 69.0566C38.1268 69.0566 38.2533 69.1034 38.3398 69.1968C38.4264 69.2879 38.4697 69.4132 38.4697 69.5728C38.4697 69.7345 38.4253 69.8633 38.3364 69.959C38.2498 70.0524 38.1245 70.0991 37.9604 70.0991C37.7964 70.0991 37.6711 70.0524 37.5845 69.959C37.4979 69.8656 37.4546 69.7368 37.4546 69.5728ZM42.6226 67.5015C42.6226 68.3696 42.4824 69.0145 42.2021 69.436C41.9242 69.8576 41.498 70.0684 40.9238 70.0684C40.3678 70.0684 39.9463 69.8507 39.6592 69.4155C39.3721 68.9803 39.2285 68.3423 39.2285 67.5015C39.2285 66.6196 39.3675 65.9702 39.6455 65.5532C39.9258 65.134 40.3519 64.9243 40.9238 64.9243C41.4821 64.9243 41.9048 65.1431 42.1919 65.5806C42.479 66.0181 42.6226 66.6584 42.6226 67.5015ZM40.042 67.5015C40.042 68.1828 40.1115 68.6693 40.2505 68.9609C40.3918 69.2526 40.6162 69.3984 40.9238 69.3984C41.2314 69.3984 41.4559 69.2503 41.5972 68.9541C41.7407 68.6579 41.8125 68.1737 41.8125 67.5015C41.8125 66.8315 41.7407 66.3473 41.5972 66.0488C41.4559 65.748 41.2314 65.5977 40.9238 65.5977C40.6162 65.5977 40.3918 65.7446 40.2505 66.0386C40.1115 66.3325 40.042 66.8201 40.042 67.5015ZM45.5928 70H44.7896V66.7734C44.7896 66.3883 44.7987 66.083 44.8169 65.8574C44.7645 65.9121 44.6995 65.9725 44.6221 66.0386C44.5469 66.1047 44.2917 66.3143 43.8564 66.6675L43.4531 66.1582L44.9229 65.0029H45.5928V70Z" fill="#4B4848"/>
<path d="M39.666 114H38.8628V110.773C38.8628 110.388 38.8719 110.083 38.8901 109.857C38.8377 109.912 38.7728 109.972 38.6953 110.039C38.6201 110.105 38.3649 110.314 37.9297 110.667L37.5264 110.158L38.9961 109.003H39.666V114ZM44.6938 111.501C44.6938 112.37 44.5537 113.014 44.2734 113.436C43.9954 113.858 43.5693 114.068 42.9951 114.068C42.4391 114.068 42.0176 113.851 41.7305 113.416C41.4434 112.98 41.2998 112.342 41.2998 111.501C41.2998 110.62 41.4388 109.97 41.7168 109.553C41.9971 109.134 42.4232 108.924 42.9951 108.924C43.5534 108.924 43.9761 109.143 44.2632 109.581C44.5503 110.018 44.6938 110.658 44.6938 111.501ZM42.1133 111.501C42.1133 112.183 42.1828 112.669 42.3218 112.961C42.4631 113.253 42.6875 113.398 42.9951 113.398C43.3027 113.398 43.5272 113.25 43.6685 112.954C43.812 112.658 43.8838 112.174 43.8838 111.501C43.8838 110.832 43.812 110.347 43.6685 110.049C43.5272 109.748 43.3027 109.598 42.9951 109.598C42.6875 109.598 42.4631 109.745 42.3218 110.039C42.1828 110.333 42.1133 110.82 42.1133 111.501ZM48.6929 111.501C48.6929 112.37 48.5527 113.014 48.2725 113.436C47.9945 113.858 47.5684 114.068 46.9941 114.068C46.4382 114.068 46.0166 113.851 45.7295 113.416C45.4424 112.98 45.2988 112.342 45.2988 111.501C45.2988 110.62 45.4378 109.97 45.7158 109.553C45.9961 109.134 46.4222 108.924 46.9941 108.924C47.5524 108.924 47.9751 109.143 48.2622 109.581C48.5493 110.018 48.6929 110.658 48.6929 111.501ZM46.1123 111.501C46.1123 112.183 46.1818 112.669 46.3208 112.961C46.4621 113.253 46.6865 113.398 46.9941 113.398C47.3018 113.398 47.5262 113.25 47.6675 112.954C47.811 112.658 47.8828 112.174 47.8828 111.501C47.8828 110.832 47.811 110.347 47.6675 110.049C47.5262 109.748 47.3018 109.598 46.9941 109.598C46.6865 109.598 46.4621 109.745 46.3208 110.039C46.1818 110.333 46.1123 110.82 46.1123 111.501Z" fill="#4B4848"/>
<path d="M39.5068 164.151C39.5068 164.468 39.4146 164.732 39.23 164.944C39.0454 165.154 38.7856 165.295 38.4507 165.368V165.396C38.8517 165.446 39.1525 165.571 39.353 165.771C39.5535 165.97 39.6538 166.234 39.6538 166.564C39.6538 167.045 39.484 167.417 39.1445 167.679C38.805 167.938 38.3219 168.068 37.6953 168.068C37.1416 168.068 36.6745 167.978 36.2939 167.798V167.084C36.5059 167.189 36.7303 167.27 36.9673 167.327C37.2043 167.384 37.4321 167.412 37.6509 167.412C38.0382 167.412 38.3276 167.34 38.519 167.197C38.7104 167.053 38.8062 166.831 38.8062 166.53C38.8062 166.264 38.7002 166.068 38.4883 165.942C38.2764 165.817 37.9437 165.754 37.4902 165.754H37.0562V165.102H37.4971C38.2946 165.102 38.6934 164.826 38.6934 164.274C38.6934 164.06 38.6239 163.895 38.4849 163.779C38.3459 163.663 38.1408 163.604 37.8696 163.604C37.6805 163.604 37.4982 163.632 37.3228 163.687C37.1473 163.739 36.9399 163.843 36.7007 163.998L36.3076 163.437C36.7656 163.1 37.2977 162.931 37.9038 162.931C38.4074 162.931 38.8005 163.039 39.083 163.256C39.3656 163.472 39.5068 163.771 39.5068 164.151ZM43.6938 165.501C43.6938 166.37 43.5537 167.014 43.2734 167.436C42.9954 167.858 42.5693 168.068 41.9951 168.068C41.4391 168.068 41.0176 167.851 40.7305 167.416C40.4434 166.98 40.2998 166.342 40.2998 165.501C40.2998 164.62 40.4388 163.97 40.7168 163.553C40.9971 163.134 41.4232 162.924 41.9951 162.924C42.5534 162.924 42.9761 163.143 43.2632 163.581C43.5503 164.018 43.6938 164.658 43.6938 165.501ZM41.1133 165.501C41.1133 166.183 41.1828 166.669 41.3218 166.961C41.4631 167.253 41.6875 167.398 41.9951 167.398C42.3027 167.398 42.5272 167.25 42.6685 166.954C42.812 166.658 42.8838 166.174 42.8838 165.501C42.8838 164.832 42.812 164.347 42.6685 164.049C42.5272 163.748 42.3027 163.598 41.9951 163.598C41.6875 163.598 41.4631 163.745 41.3218 164.039C41.1828 164.333 41.1133 164.82 41.1133 165.501ZM48.9302 166.923C48.9302 167.292 48.7957 167.576 48.5269 167.774C48.258 167.97 47.8729 168.068 47.3716 168.068C46.868 168.068 46.4635 167.992 46.1582 167.839V167.146C46.6025 167.351 47.0161 167.453 47.3989 167.453C47.8934 167.453 48.1406 167.304 48.1406 167.005C48.1406 166.91 48.1133 166.83 48.0586 166.766C48.0039 166.702 47.9139 166.636 47.7886 166.568C47.6632 166.5 47.4889 166.422 47.2656 166.335C46.8304 166.167 46.5353 165.998 46.3804 165.83C46.2277 165.661 46.1514 165.442 46.1514 165.173C46.1514 164.85 46.2812 164.599 46.541 164.421C46.8031 164.241 47.1585 164.151 47.6074 164.151C48.0518 164.151 48.4722 164.241 48.8687 164.421L48.6089 165.026C48.201 164.858 47.8581 164.773 47.5801 164.773C47.1562 164.773 46.9443 164.894 46.9443 165.136C46.9443 165.254 46.999 165.354 47.1084 165.437C47.2201 165.519 47.4616 165.631 47.833 165.775C48.1452 165.896 48.3719 166.006 48.5132 166.106C48.6545 166.207 48.7593 166.323 48.8276 166.455C48.896 166.585 48.9302 166.741 48.9302 166.923ZM51.4526 168.068C50.8647 168.068 50.4045 167.897 50.0718 167.556C49.7414 167.212 49.5762 166.739 49.5762 166.137C49.5762 165.52 49.73 165.034 50.0376 164.681C50.3452 164.328 50.7679 164.151 51.3057 164.151C51.8047 164.151 52.1989 164.303 52.4883 164.606C52.7777 164.909 52.9224 165.326 52.9224 165.857V166.291H50.4033C50.4147 166.658 50.5138 166.94 50.7007 167.139C50.8875 167.335 51.1507 167.433 51.4902 167.433C51.7135 167.433 51.9209 167.412 52.1123 167.371C52.306 167.328 52.5133 167.257 52.7344 167.159V167.812C52.5384 167.905 52.3402 167.972 52.1396 168.01C51.9391 168.049 51.7101 168.068 51.4526 168.068ZM51.3057 164.76C51.0505 164.76 50.8454 164.841 50.6904 165.002C50.5378 165.164 50.4466 165.4 50.417 165.71H52.1328C52.1283 165.398 52.0531 165.162 51.9072 165.002C51.7614 164.841 51.5609 164.76 51.3057 164.76ZM55.3594 168.068C54.7874 168.068 54.3522 167.902 54.0537 167.569C53.7575 167.234 53.6094 166.755 53.6094 166.13C53.6094 165.495 53.7643 165.006 54.0742 164.664C54.3864 164.322 54.8364 164.151 55.4243 164.151C55.8231 164.151 56.182 164.225 56.501 164.374L56.2583 165.02C55.9188 164.887 55.6385 164.821 55.4175 164.821C54.7635 164.821 54.4365 165.255 54.4365 166.124C54.4365 166.547 54.5174 166.866 54.6792 167.081C54.8433 167.292 55.0825 167.398 55.397 167.398C55.7547 167.398 56.0931 167.31 56.4121 167.132V167.833C56.2686 167.917 56.1147 167.977 55.9507 168.014C55.7889 168.05 55.5918 168.068 55.3594 168.068ZM60.6538 166.103C60.6538 166.721 60.4954 167.202 60.1787 167.549C59.862 167.895 59.4211 168.068 58.856 168.068C58.5028 168.068 58.1906 167.989 57.9194 167.829C57.6483 167.67 57.4398 167.441 57.2939 167.142C57.1481 166.844 57.0752 166.497 57.0752 166.103C57.0752 165.49 57.2324 165.012 57.5469 164.667C57.8613 164.323 58.3045 164.151 58.8765 164.151C59.4233 164.151 59.8563 164.328 60.1753 164.681C60.4943 165.032 60.6538 165.506 60.6538 166.103ZM57.9023 166.103C57.9023 166.976 58.2248 167.412 58.8696 167.412C59.5076 167.412 59.8267 166.976 59.8267 166.103C59.8267 165.239 59.5054 164.808 58.8628 164.808C58.5256 164.808 58.2806 164.919 58.1279 165.143C57.9775 165.366 57.9023 165.686 57.9023 166.103ZM64.9058 168H64.0991V165.676C64.0991 165.384 64.0399 165.167 63.9214 165.023C63.8052 164.879 63.6195 164.808 63.3643 164.808C63.0247 164.808 62.7764 164.908 62.6191 165.108C62.4619 165.309 62.3833 165.645 62.3833 166.117V168H61.5801V164.22H62.209L62.3218 164.715H62.3628C62.4767 164.535 62.6385 164.396 62.8481 164.298C63.0578 164.2 63.2902 164.151 63.5454 164.151C64.4523 164.151 64.9058 164.613 64.9058 165.536V168ZM67.2983 168.068C66.8267 168.068 66.4587 167.897 66.1943 167.556C65.93 167.214 65.7979 166.734 65.7979 166.117C65.7979 165.497 65.9312 165.015 66.1978 164.671C66.4666 164.325 66.8381 164.151 67.312 164.151C67.8088 164.151 68.187 164.335 68.4468 164.702H68.4878C68.4491 164.431 68.4297 164.216 68.4297 164.059V162.682H69.2363V168H68.6074L68.4673 167.504H68.4297C68.1722 167.88 67.7951 168.068 67.2983 168.068ZM67.5137 167.419C67.8441 167.419 68.0845 167.327 68.2349 167.142C68.3853 166.955 68.4627 166.653 68.4673 166.236V166.124C68.4673 165.647 68.3898 165.309 68.2349 165.108C68.0799 164.908 67.8372 164.808 67.5068 164.808C67.2243 164.808 67.0067 164.923 66.854 165.153C66.7013 165.381 66.625 165.707 66.625 166.13C66.625 166.55 66.6991 166.87 66.8472 167.091C66.9953 167.31 67.2174 167.419 67.5137 167.419ZM72.9243 166.923C72.9243 167.292 72.7899 167.576 72.521 167.774C72.2521 167.97 71.867 168.068 71.3657 168.068C70.8621 168.068 70.4577 167.992 70.1523 167.839V167.146C70.5967 167.351 71.0103 167.453 71.3931 167.453C71.8875 167.453 72.1348 167.304 72.1348 167.005C72.1348 166.91 72.1074 166.83 72.0527 166.766C71.998 166.702 71.908 166.636 71.7827 166.568C71.6574 166.5 71.4831 166.422 71.2598 166.335C70.8245 166.167 70.5295 165.998 70.3745 165.83C70.2218 165.661 70.1455 165.442 70.1455 165.173C70.1455 164.85 70.2754 164.599 70.5352 164.421C70.7972 164.241 71.1527 164.151 71.6016 164.151C72.0459 164.151 72.4663 164.241 72.8628 164.421L72.603 165.026C72.1951 164.858 71.8522 164.773 71.5742 164.773C71.1504 164.773 70.9385 164.894 70.9385 165.136C70.9385 165.254 70.9932 165.354 71.1025 165.437C71.2142 165.519 71.4557 165.631 71.8271 165.775C72.1393 165.896 72.366 166.006 72.5073 166.106C72.6486 166.207 72.7534 166.323 72.8218 166.455C72.8901 166.585 72.9243 166.741 72.9243 166.923Z" fill="#4B4848"/>
<path d="M33.6875 47.9453H34.3359C34.7708 47.9453 35.0859 47.8646 35.2812 47.7031C35.4766 47.5417 35.5742 47.3021 35.5742 46.9844C35.5742 46.6615 35.4688 46.4297 35.2578 46.2891C35.0469 46.1484 34.7292 46.0781 34.3047 46.0781H33.6875V47.9453ZM33.6875 48.7188V51H32.7539V45.2891H34.3672C35.1042 45.2891 35.6497 45.4271 36.0039 45.7031C36.3581 45.9792 36.5352 46.3958 36.5352 46.9531C36.5352 47.6641 36.1654 48.1706 35.4258 48.4727L37.0391 51H35.9766L34.6094 48.7188H33.6875ZM39.6602 51.0781C38.9883 51.0781 38.4622 50.8828 38.082 50.4922C37.7044 50.099 37.5156 49.5586 37.5156 48.8711C37.5156 48.1654 37.6914 47.6107 38.043 47.207C38.3945 46.8034 38.8776 46.6016 39.4922 46.6016C40.0625 46.6016 40.513 46.7747 40.8438 47.1211C41.1745 47.4674 41.3398 47.944 41.3398 48.5508V49.0469H38.4609C38.474 49.4661 38.5872 49.7891 38.8008 50.0156C39.0143 50.2396 39.3151 50.3516 39.7031 50.3516C39.9583 50.3516 40.1953 50.3281 40.4141 50.2812C40.6354 50.2318 40.8724 50.151 41.125 50.0391V50.7852C40.901 50.8919 40.6745 50.9674 40.4453 51.0117C40.2161 51.056 39.9544 51.0781 39.6602 51.0781ZM39.4922 47.2969C39.2005 47.2969 38.9661 47.3893 38.7891 47.5742C38.6146 47.7591 38.5104 48.0286 38.4766 48.3828H40.4375C40.4323 48.026 40.3464 47.7565 40.1797 47.5742C40.013 47.3893 39.7839 47.2969 39.4922 47.2969ZM45.9258 51L45.3672 48.9844C45.2995 48.7708 45.1771 48.2747 45 47.4961H44.9648C44.8138 48.1992 44.694 48.6979 44.6055 48.9922L44.0312 51H43.0156L41.8047 46.6797H42.7422L43.293 48.8086C43.418 49.3346 43.5065 49.7852 43.5586 50.1602H43.582C43.6081 49.9701 43.6471 49.7526 43.6992 49.5078C43.7539 49.2604 43.8008 49.0755 43.8398 48.9531L44.4961 46.6797H45.5039L46.1406 48.9531C46.1797 49.0807 46.2279 49.276 46.2852 49.5391C46.3451 49.8021 46.3802 50.0065 46.3906 50.1523H46.4219C46.4609 49.832 46.5521 49.3841 46.6953 48.8086L47.2539 46.6797H48.1758L46.957 51H45.9258ZM51.625 51L51.4414 50.3984H51.4102C51.2018 50.6615 50.9922 50.8411 50.7812 50.9375C50.5703 51.0312 50.2995 51.0781 49.9688 51.0781C49.5443 51.0781 49.2122 50.9635 48.9727 50.7344C48.7357 50.5052 48.6172 50.181 48.6172 49.7617C48.6172 49.3164 48.7826 48.9805 49.1133 48.7539C49.444 48.5273 49.9479 48.4036 50.625 48.3828L51.3711 48.3594V48.1289C51.3711 47.8529 51.306 47.6471 51.1758 47.5117C51.0482 47.3737 50.849 47.3047 50.5781 47.3047C50.3568 47.3047 50.1445 47.3372 49.9414 47.4023C49.7383 47.4674 49.543 47.5443 49.3555 47.6328L49.0586 46.9766C49.293 46.8542 49.5495 46.7617 49.8281 46.6992C50.1068 46.6341 50.3698 46.6016 50.6172 46.6016C51.1667 46.6016 51.5807 46.7214 51.8594 46.9609C52.1406 47.2005 52.2812 47.5768 52.2812 48.0898V51H51.625ZM50.2578 50.375C50.5911 50.375 50.8581 50.2826 51.0586 50.0977C51.2617 49.9102 51.3633 49.6484 51.3633 49.3125V48.9375L50.8086 48.9609C50.3763 48.9766 50.0612 49.0495 49.8633 49.1797C49.668 49.3073 49.5703 49.5039 49.5703 49.7695C49.5703 49.9622 49.6276 50.112 49.7422 50.2188C49.8568 50.3229 50.0286 50.375 50.2578 50.375ZM55.7539 46.6016C55.9388 46.6016 56.0911 46.6146 56.2109 46.6406L56.1211 47.4961C55.9909 47.4648 55.8555 47.4492 55.7148 47.4492C55.3477 47.4492 55.0495 47.569 54.8203 47.8086C54.5938 48.0482 54.4805 48.3594 54.4805 48.7422V51H53.5625V46.6797H54.2812L54.4023 47.4414H54.4492C54.5924 47.1836 54.7786 46.9792 55.0078 46.8281C55.2396 46.6771 55.4883 46.6016 55.7539 46.6016ZM58.4727 51.0781C57.9336 51.0781 57.513 50.8828 57.2109 50.4922C56.9089 50.1016 56.7578 49.5534 56.7578 48.8477C56.7578 48.1393 56.9102 47.5885 57.2148 47.1953C57.5221 46.7995 57.9466 46.6016 58.4883 46.6016C59.056 46.6016 59.4883 46.8112 59.7852 47.2305H59.832C59.7878 46.9206 59.7656 46.6758 59.7656 46.4961V44.9219H60.6875V51H59.9688L59.8086 50.4336H59.7656C59.4714 50.8633 59.0404 51.0781 58.4727 51.0781ZM58.7188 50.3359C59.0964 50.3359 59.3711 50.2305 59.543 50.0195C59.7148 49.806 59.8034 49.4609 59.8086 48.9844V48.8555C59.8086 48.3112 59.7201 47.9245 59.543 47.6953C59.3659 47.4661 59.0885 47.3516 58.7109 47.3516C58.388 47.3516 58.1393 47.4831 57.9648 47.7461C57.7904 48.0065 57.7031 48.3789 57.7031 48.8633C57.7031 49.3424 57.7878 49.7083 57.957 49.9609C58.1263 50.2109 58.3802 50.3359 58.7188 50.3359ZM66.2695 51.0781C65.7227 51.0781 65.2982 50.8815 64.9961 50.4883H64.9414C64.9779 50.8529 64.9961 51.0742 64.9961 51.1523V52.9219H64.0781V46.6797H64.8203C64.8411 46.7604 64.8841 46.9531 64.9492 47.2578H64.9961C65.2826 46.8203 65.7122 46.6016 66.2852 46.6016C66.8242 46.6016 67.2435 46.7969 67.543 47.1875C67.8451 47.5781 67.9961 48.1263 67.9961 48.832C67.9961 49.5378 67.8424 50.0885 67.5352 50.4844C67.2305 50.8802 66.8086 51.0781 66.2695 51.0781ZM66.0469 47.3516C65.6823 47.3516 65.4154 47.4583 65.2461 47.6719C65.0794 47.8854 64.9961 48.2266 64.9961 48.6953V48.832C64.9961 49.3581 65.0794 49.7396 65.2461 49.9766C65.4128 50.2109 65.6849 50.3281 66.0625 50.3281C66.3802 50.3281 66.625 50.1979 66.7969 49.9375C66.9688 49.6771 67.0547 49.306 67.0547 48.8242C67.0547 48.3398 66.9688 47.974 66.7969 47.7266C66.6276 47.4766 66.3776 47.3516 66.0469 47.3516ZM70.9492 51.0781C70.2773 51.0781 69.7513 50.8828 69.3711 50.4922C68.9935 50.099 68.8047 49.5586 68.8047 48.8711C68.8047 48.1654 68.9805 47.6107 69.332 47.207C69.6836 46.8034 70.1667 46.6016 70.7812 46.6016C71.3516 46.6016 71.8021 46.7747 72.1328 47.1211C72.4635 47.4674 72.6289 47.944 72.6289 48.5508V49.0469H69.75C69.763 49.4661 69.8763 49.7891 70.0898 50.0156C70.3034 50.2396 70.6042 50.3516 70.9922 50.3516C71.2474 50.3516 71.4844 50.3281 71.7031 50.2812C71.9245 50.2318 72.1615 50.151 72.4141 50.0391V50.7852C72.1901 50.8919 71.9635 50.9674 71.7344 51.0117C71.5052 51.056 71.2435 51.0781 70.9492 51.0781ZM70.7812 47.2969C70.4896 47.2969 70.2552 47.3893 70.0781 47.5742C69.9036 47.7591 69.7995 48.0286 69.7656 48.3828H71.7266C71.7214 48.026 71.6354 47.7565 71.4688 47.5742C71.3021 47.3893 71.0729 47.2969 70.7812 47.2969ZM75.8633 46.6016C76.0482 46.6016 76.2005 46.6146 76.3203 46.6406L76.2305 47.4961C76.1003 47.4648 75.9648 47.4492 75.8242 47.4492C75.457 47.4492 75.1589 47.569 74.9297 47.8086C74.7031 48.0482 74.5898 48.3594 74.5898 48.7422V51H73.6719V46.6797H74.3906L74.5117 47.4414H74.5586C74.7018 47.1836 74.888 46.9792 75.1172 46.8281C75.349 46.6771 75.5977 46.6016 75.8633 46.6016ZM80.9453 51.0781C80.2917 51.0781 79.7943 50.888 79.4531 50.5078C79.1146 50.125 78.9453 49.5768 78.9453 48.8633C78.9453 48.1367 79.1224 47.5781 79.4766 47.1875C79.8333 46.7969 80.3477 46.6016 81.0195 46.6016C81.4753 46.6016 81.8854 46.6862 82.25 46.8555L81.9727 47.5938C81.5846 47.4427 81.2643 47.3672 81.0117 47.3672C80.2643 47.3672 79.8906 47.8633 79.8906 48.8555C79.8906 49.3398 79.9831 49.7044 80.168 49.9492C80.3555 50.1914 80.6289 50.3125 80.9883 50.3125C81.3971 50.3125 81.7839 50.2109 82.1484 50.0078V50.8086C81.9844 50.9049 81.8086 50.974 81.6211 51.0156C81.4362 51.0573 81.2109 51.0781 80.9453 51.0781ZM84.082 51H83.1641V44.9219H84.082V51ZM86.3164 51H85.3984V46.6797H86.3164V51ZM85.3438 45.5352C85.3438 45.3711 85.388 45.2448 85.4766 45.1562C85.5677 45.0677 85.6966 45.0234 85.8633 45.0234C86.0247 45.0234 86.1497 45.0677 86.2383 45.1562C86.3294 45.2448 86.375 45.3711 86.375 45.5352C86.375 45.6914 86.3294 45.8151 86.2383 45.9062C86.1497 45.9948 86.0247 46.0391 85.8633 46.0391C85.6966 46.0391 85.5677 45.9948 85.4766 45.9062C85.388 45.8151 85.3438 45.6914 85.3438 45.5352ZM89.375 51.0781C88.7214 51.0781 88.224 50.888 87.8828 50.5078C87.5443 50.125 87.375 49.5768 87.375 48.8633C87.375 48.1367 87.5521 47.5781 87.9062 47.1875C88.263 46.7969 88.7773 46.6016 89.4492 46.6016C89.9049 46.6016 90.3151 46.6862 90.6797 46.8555L90.4023 47.5938C90.0143 47.4427 89.694 47.3672 89.4414 47.3672C88.694 47.3672 88.3203 47.8633 88.3203 48.8555C88.3203 49.3398 88.4128 49.7044 88.5977 49.9492C88.7852 50.1914 89.0586 50.3125 89.418 50.3125C89.8268 50.3125 90.2135 50.2109 90.5781 50.0078V50.8086C90.4141 50.9049 90.2383 50.974 90.0508 51.0156C89.8659 51.0573 89.6406 51.0781 89.375 51.0781ZM92.4805 48.7188L93 48.0703L94.3047 46.6797H95.3633L93.625 48.5352L95.4727 51H94.3945L93.0078 49.1055L92.5039 49.5195V51H91.5938V44.9219H92.5039V47.8867L92.457 48.7188H92.4805ZM96.0352 50.5117C96.0352 50.3216 96.0846 50.1758 96.1836 50.0742C96.2826 49.9727 96.4258 49.9219 96.6133 49.9219C96.8034 49.9219 96.9479 49.9753 97.0469 50.082C97.1458 50.1862 97.1953 50.3294 97.1953 50.5117C97.1953 50.6966 97.1445 50.8438 97.043 50.9531C96.944 51.0599 96.8008 51.1133 96.6133 51.1133C96.4258 51.1133 96.2826 51.0599 96.1836 50.9531C96.0846 50.8464 96.0352 50.6992 96.0352 50.5117ZM96.0352 47.1758C96.0352 46.7826 96.2279 46.5859 96.6133 46.5859C96.8086 46.5859 96.9544 46.638 97.0508 46.7422C97.1471 46.8464 97.1953 46.9909 97.1953 47.1758C97.1953 47.3607 97.1445 47.5078 97.043 47.6172C96.944 47.724 96.8008 47.7773 96.6133 47.7773C96.4258 47.7773 96.2826 47.724 96.1836 47.6172C96.0846 47.5104 96.0352 47.3633 96.0352 47.1758Z" fill="#9A9A9A"/>
<path d="M34.7266 149H33.793V144.09H32.1133V143.289H36.4062V144.09H34.7266V149ZM38.1055 149H37.1875V144.68H38.1055V149ZM37.1328 143.535C37.1328 143.371 37.1771 143.245 37.2656 143.156C37.3568 143.068 37.4857 143.023 37.6523 143.023C37.8138 143.023 37.9388 143.068 38.0273 143.156C38.1185 143.245 38.1641 143.371 38.1641 143.535C38.1641 143.691 38.1185 143.815 38.0273 143.906C37.9388 143.995 37.8138 144.039 37.6523 144.039C37.4857 144.039 37.3568 143.995 37.2656 143.906C37.1771 143.815 37.1328 143.691 37.1328 143.535ZM43.0625 149H42.1406V146.336C42.1406 146.005 42.0781 145.759 41.9531 145.598C41.8281 145.434 41.6328 145.352 41.3672 145.352C41.013 145.352 40.7526 145.467 40.5859 145.699C40.4219 145.928 40.3398 146.311 40.3398 146.848V149H39.4219V144.68H40.1406L40.2695 145.246H40.3164C40.4362 145.04 40.6094 144.882 40.8359 144.77C41.0651 144.658 41.3164 144.602 41.5898 144.602C42.2539 144.602 42.694 144.828 42.9102 145.281H42.9727C43.1003 145.068 43.2799 144.901 43.5117 144.781C43.7435 144.661 44.0091 144.602 44.3086 144.602C44.8242 144.602 45.1992 144.732 45.4336 144.992C45.6706 145.253 45.7891 145.65 45.7891 146.184V149H44.8711V146.336C44.8711 146.005 44.8073 145.759 44.6797 145.598C44.5547 145.434 44.3594 145.352 44.0938 145.352C43.737 145.352 43.4753 145.464 43.3086 145.688C43.1445 145.909 43.0625 146.25 43.0625 146.711V149ZM48.957 149.078C48.2852 149.078 47.7591 148.883 47.3789 148.492C47.0013 148.099 46.8125 147.559 46.8125 146.871C46.8125 146.165 46.9883 145.611 47.3398 145.207C47.6914 144.803 48.1745 144.602 48.7891 144.602C49.3594 144.602 49.8099 144.775 50.1406 145.121C50.4714 145.467 50.6367 145.944 50.6367 146.551V147.047H47.7578C47.7708 147.466 47.8841 147.789 48.0977 148.016C48.3112 148.24 48.612 148.352 49 148.352C49.2552 148.352 49.4922 148.328 49.7109 148.281C49.9323 148.232 50.1693 148.151 50.4219 148.039V148.785C50.1979 148.892 49.9714 148.967 49.7422 149.012C49.513 149.056 49.2513 149.078 48.957 149.078ZM48.7891 145.297C48.4974 145.297 48.263 145.389 48.0859 145.574C47.9115 145.759 47.8073 146.029 47.7734 146.383H49.7344C49.7292 146.026 49.6432 145.757 49.4766 145.574C49.3099 145.389 49.0807 145.297 48.7891 145.297ZM55.2148 149.078C54.6758 149.078 54.2552 148.883 53.9531 148.492C53.651 148.102 53.5 147.553 53.5 146.848C53.5 146.139 53.6523 145.589 53.957 145.195C54.2643 144.799 54.6888 144.602 55.2305 144.602C55.7982 144.602 56.2305 144.811 56.5273 145.23H56.5742C56.5299 144.921 56.5078 144.676 56.5078 144.496V142.922H57.4297V149H56.7109L56.5508 148.434H56.5078C56.2135 148.863 55.7826 149.078 55.2148 149.078ZM55.4609 148.336C55.8385 148.336 56.1133 148.23 56.2852 148.02C56.457 147.806 56.5456 147.461 56.5508 146.984V146.855C56.5508 146.311 56.4622 145.924 56.2852 145.695C56.1081 145.466 55.8307 145.352 55.4531 145.352C55.1302 145.352 54.8815 145.483 54.707 145.746C54.5326 146.007 54.4453 146.379 54.4453 146.863C54.4453 147.342 54.5299 147.708 54.6992 147.961C54.8685 148.211 55.1224 148.336 55.4609 148.336ZM61.7891 149L61.6602 148.434H61.6133C61.4857 148.634 61.3034 148.792 61.0664 148.906C60.832 149.021 60.5638 149.078 60.2617 149.078C59.7383 149.078 59.3477 148.948 59.0898 148.688C58.832 148.427 58.7031 148.033 58.7031 147.504V144.68H59.6289V147.344C59.6289 147.674 59.6966 147.923 59.832 148.09C59.9674 148.254 60.1797 148.336 60.4688 148.336C60.8542 148.336 61.1367 148.221 61.3164 147.992C61.4987 147.76 61.5898 147.374 61.5898 146.832V144.68H62.5117V149H61.7891ZM66.0117 144.602C66.1966 144.602 66.349 144.615 66.4688 144.641L66.3789 145.496C66.2487 145.465 66.1133 145.449 65.9727 145.449C65.6055 145.449 65.3073 145.569 65.0781 145.809C64.8516 146.048 64.7383 146.359 64.7383 146.742V149H63.8203V144.68H64.5391L64.6602 145.441H64.707C64.8503 145.184 65.0365 144.979 65.2656 144.828C65.4974 144.677 65.7461 144.602 66.0117 144.602ZM69.9766 149L69.793 148.398H69.7617C69.5534 148.661 69.3438 148.841 69.1328 148.938C68.9219 149.031 68.651 149.078 68.3203 149.078C67.8958 149.078 67.5638 148.964 67.3242 148.734C67.0872 148.505 66.9688 148.181 66.9688 147.762C66.9688 147.316 67.1341 146.98 67.4648 146.754C67.7956 146.527 68.2995 146.404 68.9766 146.383L69.7227 146.359V146.129C69.7227 145.853 69.6576 145.647 69.5273 145.512C69.3997 145.374 69.2005 145.305 68.9297 145.305C68.7083 145.305 68.4961 145.337 68.293 145.402C68.0898 145.467 67.8945 145.544 67.707 145.633L67.4102 144.977C67.6445 144.854 67.901 144.762 68.1797 144.699C68.4583 144.634 68.7214 144.602 68.9688 144.602C69.5182 144.602 69.9323 144.721 70.2109 144.961C70.4922 145.201 70.6328 145.577 70.6328 146.09V149H69.9766ZM68.6094 148.375C68.9427 148.375 69.2096 148.283 69.4102 148.098C69.6133 147.91 69.7148 147.648 69.7148 147.312V146.938L69.1602 146.961C68.7279 146.977 68.4128 147.049 68.2148 147.18C68.0195 147.307 67.9219 147.504 67.9219 147.77C67.9219 147.962 67.9792 148.112 68.0938 148.219C68.2083 148.323 68.3802 148.375 68.6094 148.375ZM73.5234 148.336C73.7474 148.336 73.9714 148.301 74.1953 148.23V148.922C74.0938 148.966 73.9622 149.003 73.8008 149.031C73.6419 149.062 73.4766 149.078 73.3047 149.078C72.4349 149.078 72 148.62 72 147.703V145.375H71.4102V144.969L72.043 144.633L72.3555 143.719H72.9219V144.68H74.1523V145.375H72.9219V147.688C72.9219 147.909 72.9766 148.073 73.0859 148.18C73.1979 148.284 73.3438 148.336 73.5234 148.336ZM75.9805 149H75.0625V144.68H75.9805V149ZM75.0078 143.535C75.0078 143.371 75.0521 143.245 75.1406 143.156C75.2318 143.068 75.3607 143.023 75.5273 143.023C75.6888 143.023 75.8138 143.068 75.9023 143.156C75.9935 143.245 76.0391 143.371 76.0391 143.535C76.0391 143.691 75.9935 143.815 75.9023 143.906C75.8138 143.995 75.6888 144.039 75.5273 144.039C75.3607 144.039 75.2318 143.995 75.1406 143.906C75.0521 143.815 75.0078 143.691 75.0078 143.535ZM81.1289 146.832C81.1289 147.538 80.9479 148.089 80.5859 148.484C80.224 148.88 79.7201 149.078 79.0742 149.078C78.6706 149.078 78.3138 148.987 78.0039 148.805C77.694 148.622 77.4557 148.361 77.2891 148.02C77.1224 147.678 77.0391 147.283 77.0391 146.832C77.0391 146.132 77.2188 145.585 77.5781 145.191C77.9375 144.798 78.444 144.602 79.0977 144.602C79.7227 144.602 80.2174 144.803 80.582 145.207C80.9466 145.608 81.1289 146.15 81.1289 146.832ZM77.9844 146.832C77.9844 147.829 78.3529 148.328 79.0898 148.328C79.819 148.328 80.1836 147.829 80.1836 146.832C80.1836 145.845 79.8164 145.352 79.082 145.352C78.6966 145.352 78.4167 145.479 78.2422 145.734C78.0703 145.99 77.9844 146.355 77.9844 146.832ZM85.9883 149H85.0664V146.344C85.0664 146.01 84.9987 145.762 84.8633 145.598C84.7305 145.434 84.5182 145.352 84.2266 145.352C83.8385 145.352 83.5547 145.466 83.375 145.695C83.1953 145.924 83.1055 146.309 83.1055 146.848V149H82.1875V144.68H82.9062L83.0352 145.246H83.082C83.2122 145.04 83.3971 144.882 83.6367 144.77C83.8763 144.658 84.1419 144.602 84.4336 144.602C85.4701 144.602 85.9883 145.129 85.9883 146.184V149ZM87.1289 148.512C87.1289 148.322 87.1784 148.176 87.2773 148.074C87.3763 147.973 87.5195 147.922 87.707 147.922C87.8971 147.922 88.0417 147.975 88.1406 148.082C88.2396 148.186 88.2891 148.329 88.2891 148.512C88.2891 148.697 88.2383 148.844 88.1367 148.953C88.0378 149.06 87.8945 149.113 87.707 149.113C87.5195 149.113 87.3763 149.06 87.2773 148.953C87.1784 148.846 87.1289 148.699 87.1289 148.512ZM87.1289 145.176C87.1289 144.783 87.3216 144.586 87.707 144.586C87.9023 144.586 88.0482 144.638 88.1445 144.742C88.2409 144.846 88.2891 144.991 88.2891 145.176C88.2891 145.361 88.2383 145.508 88.1367 145.617C88.0378 145.724 87.8945 145.777 87.707 145.777C87.5195 145.777 87.3763 145.724 87.2773 145.617C87.1784 145.51 87.1289 145.363 87.1289 145.176Z" fill="#9A9A9A"/>
<path d="M35.2227 95L33.5664 90.2305H33.5352C33.5794 90.9388 33.6016 91.6029 33.6016 92.2227V95H32.7539V89.2891H34.0703L35.6562 93.832H35.6797L37.3125 89.2891H38.6328V95H37.7344V92.1758C37.7344 91.8919 37.7409 91.5221 37.7539 91.0664C37.7695 90.6107 37.7826 90.3346 37.793 90.2383H37.7617L36.0469 95H35.2227ZM42.7422 95L42.5586 94.3984H42.5273C42.319 94.6615 42.1094 94.8411 41.8984 94.9375C41.6875 95.0312 41.4167 95.0781 41.0859 95.0781C40.6615 95.0781 40.3294 94.9635 40.0898 94.7344C39.8529 94.5052 39.7344 94.181 39.7344 93.7617C39.7344 93.3164 39.8997 92.9805 40.2305 92.7539C40.5612 92.5273 41.0651 92.4036 41.7422 92.3828L42.4883 92.3594V92.1289C42.4883 91.8529 42.4232 91.6471 42.293 91.5117C42.1654 91.3737 41.9661 91.3047 41.6953 91.3047C41.474 91.3047 41.2617 91.3372 41.0586 91.4023C40.8555 91.4674 40.6602 91.5443 40.4727 91.6328L40.1758 90.9766C40.4102 90.8542 40.6667 90.7617 40.9453 90.6992C41.224 90.6341 41.487 90.6016 41.7344 90.6016C42.2839 90.6016 42.6979 90.7214 42.9766 90.9609C43.2578 91.2005 43.3984 91.5768 43.3984 92.0898V95H42.7422ZM41.375 94.375C41.7083 94.375 41.9753 94.2826 42.1758 94.0977C42.3789 93.9102 42.4805 93.6484 42.4805 93.3125V92.9375L41.9258 92.9609C41.4935 92.9766 41.1784 93.0495 40.9805 93.1797C40.7852 93.3073 40.6875 93.5039 40.6875 93.7695C40.6875 93.9622 40.7448 94.112 40.8594 94.2188C40.974 94.3229 41.1458 94.375 41.375 94.375ZM45.6406 92.793L44.1914 90.6797H45.2383L46.2227 92.1914L47.2148 90.6797H48.2539L46.8008 92.793L48.3281 95H47.2891L46.2227 93.3828L45.1602 95H44.1211L45.6406 92.793ZM53.3711 90.6016C53.9102 90.6016 54.3294 90.7969 54.6289 91.1875C54.931 91.5781 55.082 92.1263 55.082 92.832C55.082 93.5404 54.9297 94.0924 54.625 94.4883C54.3203 94.8815 53.8971 95.0781 53.3555 95.0781C52.8086 95.0781 52.3841 94.8815 52.082 94.4883H52.0195L51.8516 95H51.1641V88.9219H52.082V90.3672C52.082 90.474 52.0768 90.6328 52.0664 90.8438C52.056 91.0547 52.0482 91.1888 52.043 91.2461H52.082C52.3737 90.8164 52.8034 90.6016 53.3711 90.6016ZM53.1328 91.3516C52.763 91.3516 52.4961 91.4609 52.332 91.6797C52.1706 91.8958 52.0872 92.2591 52.082 92.7695V92.832C52.082 93.3581 52.1654 93.7396 52.332 93.9766C52.4987 94.2109 52.7708 94.3281 53.1484 94.3281C53.474 94.3281 53.7201 94.1992 53.8867 93.9414C54.056 93.6836 54.1406 93.3112 54.1406 92.8242C54.1406 91.8424 53.8047 91.3516 53.1328 91.3516ZM59.1953 95L59.0664 94.4336H59.0195C58.8919 94.6341 58.7096 94.7917 58.4727 94.9062C58.2383 95.0208 57.9701 95.0781 57.668 95.0781C57.1445 95.0781 56.7539 94.9479 56.4961 94.6875C56.2383 94.4271 56.1094 94.0326 56.1094 93.5039V90.6797H57.0352V93.3438C57.0352 93.6745 57.1029 93.9232 57.2383 94.0898C57.3737 94.2539 57.5859 94.3359 57.875 94.3359C58.2604 94.3359 58.543 94.2214 58.7227 93.9922C58.9049 93.7604 58.9961 93.3737 58.9961 92.832V90.6797H59.918V95H59.1953ZM62.6836 95.0781C62.1445 95.0781 61.724 94.8828 61.4219 94.4922C61.1198 94.1016 60.9688 93.5534 60.9688 92.8477C60.9688 92.1393 61.1211 91.5885 61.4258 91.1953C61.7331 90.7995 62.1576 90.6016 62.6992 90.6016C63.2669 90.6016 63.6992 90.8112 63.9961 91.2305H64.043C63.9987 90.9206 63.9766 90.6758 63.9766 90.4961V88.9219H64.8984V95H64.1797L64.0195 94.4336H63.9766C63.6823 94.8633 63.2513 95.0781 62.6836 95.0781ZM62.9297 94.3359C63.3073 94.3359 63.582 94.2305 63.7539 94.0195C63.9258 93.806 64.0143 93.4609 64.0195 92.9844V92.8555C64.0195 92.3112 63.931 91.9245 63.7539 91.6953C63.5768 91.4661 63.2995 91.3516 62.9219 91.3516C62.599 91.3516 62.3503 91.4831 62.1758 91.7461C62.0013 92.0065 61.9141 92.3789 61.9141 92.8633C61.9141 93.3424 61.9987 93.7083 62.168 93.9609C62.3372 94.2109 62.5911 94.3359 62.9297 94.3359ZM69.8594 90.6797V91.1836L69.1211 91.3203C69.1888 91.4115 69.2448 91.5234 69.2891 91.6562C69.3333 91.7891 69.3555 91.9297 69.3555 92.0781C69.3555 92.5234 69.2018 92.8737 68.8945 93.1289C68.5872 93.3841 68.1641 93.5117 67.625 93.5117C67.487 93.5117 67.362 93.5013 67.25 93.4805C67.0521 93.6029 66.9531 93.7461 66.9531 93.9102C66.9531 94.0091 66.9987 94.0833 67.0898 94.1328C67.1836 94.1823 67.3542 94.207 67.6016 94.207H68.3555C68.832 94.207 69.194 94.3086 69.4414 94.5117C69.6888 94.7148 69.8125 95.0078 69.8125 95.3906C69.8125 95.8802 69.6107 96.2578 69.207 96.5234C68.8034 96.7891 68.2201 96.9219 67.457 96.9219C66.8685 96.9219 66.4193 96.8177 66.1094 96.6094C65.7995 96.401 65.6445 96.1042 65.6445 95.7188C65.6445 95.4531 65.7279 95.2292 65.8945 95.0469C66.0638 94.8672 66.2995 94.7422 66.6016 94.6719C66.4792 94.6198 66.3776 94.5365 66.2969 94.4219C66.2188 94.3047 66.1797 94.1823 66.1797 94.0547C66.1797 93.8932 66.2253 93.7565 66.3164 93.6445C66.4076 93.5326 66.543 93.4219 66.7227 93.3125C66.4987 93.2161 66.3164 93.0599 66.1758 92.8438C66.0378 92.625 65.9688 92.3698 65.9688 92.0781C65.9688 91.6094 66.1159 91.2461 66.4102 90.9883C66.707 90.7305 67.1289 90.6016 67.6758 90.6016C67.7982 90.6016 67.9258 90.6107 68.0586 90.6289C68.194 90.6445 68.2956 90.6615 68.3633 90.6797H69.8594ZM66.4648 95.6719C66.4648 95.8698 66.5534 96.0221 66.7305 96.1289C66.9102 96.2357 67.1615 96.2891 67.4844 96.2891C67.9844 96.2891 68.3568 96.2174 68.6016 96.0742C68.8464 95.931 68.9688 95.7409 68.9688 95.5039C68.9688 95.3164 68.901 95.1823 68.7656 95.1016C68.6328 95.0234 68.3841 94.9844 68.0195 94.9844H67.3242C67.0612 94.9844 66.8516 95.0456 66.6953 95.168C66.5417 95.293 66.4648 95.4609 66.4648 95.6719ZM66.8594 92.0781C66.8594 92.349 66.9284 92.5573 67.0664 92.7031C67.207 92.849 67.4076 92.9219 67.668 92.9219C68.1992 92.9219 68.4648 92.638 68.4648 92.0703C68.4648 91.7891 68.3984 91.5729 68.2656 91.4219C68.1354 91.2682 67.9362 91.1914 67.668 91.1914C67.4023 91.1914 67.2005 91.2669 67.0625 91.418C66.9271 91.569 66.8594 91.7891 66.8594 92.0781ZM72.5508 95.0781C71.8789 95.0781 71.3529 94.8828 70.9727 94.4922C70.5951 94.099 70.4062 93.5586 70.4062 92.8711C70.4062 92.1654 70.582 91.6107 70.9336 91.207C71.2852 90.8034 71.7682 90.6016 72.3828 90.6016C72.9531 90.6016 73.4036 90.7747 73.7344 91.1211C74.0651 91.4674 74.2305 91.944 74.2305 92.5508V93.0469H71.3516C71.3646 93.4661 71.4779 93.7891 71.6914 94.0156C71.9049 94.2396 72.2057 94.3516 72.5938 94.3516C72.849 94.3516 73.0859 94.3281 73.3047 94.2812C73.526 94.2318 73.763 94.151 74.0156 94.0391V94.7852C73.7917 94.8919 73.5651 94.9674 73.3359 95.0117C73.1068 95.056 72.8451 95.0781 72.5508 95.0781ZM72.3828 91.2969C72.0911 91.2969 71.8568 91.3893 71.6797 91.5742C71.5052 91.7591 71.401 92.0286 71.3672 92.3828H73.3281C73.3229 92.026 73.237 91.7565 73.0703 91.5742C72.9036 91.3893 72.6745 91.2969 72.3828 91.2969ZM76.8828 94.3359C77.1068 94.3359 77.3307 94.3008 77.5547 94.2305V94.9219C77.4531 94.9661 77.3216 95.0026 77.1602 95.0312C77.0013 95.0625 76.8359 95.0781 76.6641 95.0781C75.7943 95.0781 75.3594 94.6198 75.3594 93.7031V91.375H74.7695V90.9688L75.4023 90.6328L75.7148 89.7188H76.2812V90.6797H77.5117V91.375H76.2812V93.6875C76.2812 93.9089 76.3359 94.0729 76.4453 94.1797C76.5573 94.2839 76.7031 94.3359 76.8828 94.3359ZM82.1094 94.3359C82.3333 94.3359 82.5573 94.3008 82.7812 94.2305V94.9219C82.6797 94.9661 82.5482 95.0026 82.3867 95.0312C82.2279 95.0625 82.0625 95.0781 81.8906 95.0781C81.0208 95.0781 80.5859 94.6198 80.5859 93.7031V91.375H79.9961V90.9688L80.6289 90.6328L80.9414 89.7188H81.5078V90.6797H82.7383V91.375H81.5078V93.6875C81.5078 93.9089 81.5625 94.0729 81.6719 94.1797C81.7839 94.2839 81.9297 94.3359 82.1094 94.3359ZM87.4805 92.832C87.4805 93.5378 87.2995 94.0885 86.9375 94.4844C86.5755 94.8802 86.0716 95.0781 85.4258 95.0781C85.0221 95.0781 84.6654 94.987 84.3555 94.8047C84.0456 94.6224 83.8073 94.3607 83.6406 94.0195C83.474 93.6784 83.3906 93.2826 83.3906 92.832C83.3906 92.1315 83.5703 91.5846 83.9297 91.1914C84.2891 90.7982 84.7956 90.6016 85.4492 90.6016C86.0742 90.6016 86.569 90.8034 86.9336 91.207C87.2982 91.6081 87.4805 92.1497 87.4805 92.832ZM84.3359 92.832C84.3359 93.8294 84.7044 94.3281 85.4414 94.3281C86.1706 94.3281 86.5352 93.8294 86.5352 92.832C86.5352 91.8451 86.168 91.3516 85.4336 91.3516C85.0482 91.3516 84.7682 91.4792 84.5938 91.7344C84.4219 91.9896 84.3359 92.3555 84.3359 92.832ZM93.5195 93.7695C93.5195 94.1914 93.3659 94.5156 93.0586 94.7422C92.7513 94.9661 92.3112 95.0781 91.7383 95.0781C91.1628 95.0781 90.7005 94.9909 90.3516 94.8164V94.0234C90.8594 94.2578 91.332 94.375 91.7695 94.375C92.3346 94.375 92.6172 94.2044 92.6172 93.8633C92.6172 93.7539 92.5859 93.6628 92.5234 93.5898C92.4609 93.5169 92.3581 93.4414 92.2148 93.3633C92.0716 93.2852 91.8724 93.1966 91.6172 93.0977C91.1198 92.9049 90.7826 92.7122 90.6055 92.5195C90.431 92.3268 90.3438 92.0768 90.3438 91.7695C90.3438 91.3997 90.4922 91.1133 90.7891 90.9102C91.0885 90.7044 91.4948 90.6016 92.0078 90.6016C92.5156 90.6016 92.9961 90.7044 93.4492 90.9102L93.1523 91.6016C92.6862 91.4089 92.2943 91.3125 91.9766 91.3125C91.4922 91.3125 91.25 91.4505 91.25 91.7266C91.25 91.862 91.3125 91.9766 91.4375 92.0703C91.5651 92.1641 91.8411 92.293 92.2656 92.457C92.6224 92.5951 92.8815 92.7214 93.043 92.8359C93.2044 92.9505 93.3242 93.0833 93.4023 93.2344C93.4805 93.3828 93.5195 93.5612 93.5195 93.7695ZM96.707 95.0781C96.1602 95.0781 95.7357 94.8815 95.4336 94.4883H95.3789C95.4154 94.8529 95.4336 95.0742 95.4336 95.1523V96.9219H94.5156V90.6797H95.2578C95.2786 90.7604 95.3216 90.9531 95.3867 91.2578H95.4336C95.7201 90.8203 96.1497 90.6016 96.7227 90.6016C97.2617 90.6016 97.681 90.7969 97.9805 91.1875C98.2826 91.5781 98.4336 92.1263 98.4336 92.832C98.4336 93.5378 98.2799 94.0885 97.9727 94.4844C97.668 94.8802 97.2461 95.0781 96.707 95.0781ZM96.4844 91.3516C96.1198 91.3516 95.8529 91.4583 95.6836 91.6719C95.5169 91.8854 95.4336 92.2266 95.4336 92.6953V92.832C95.4336 93.3581 95.5169 93.7396 95.6836 93.9766C95.8503 94.2109 96.1224 94.3281 96.5 94.3281C96.8177 94.3281 97.0625 94.1979 97.2344 93.9375C97.4062 93.6771 97.4922 93.306 97.4922 92.8242C97.4922 92.3398 97.4062 91.974 97.2344 91.7266C97.0651 91.4766 96.8151 91.3516 96.4844 91.3516ZM101.387 95.0781C100.715 95.0781 100.189 94.8828 99.8086 94.4922C99.431 94.099 99.2422 93.5586 99.2422 92.8711C99.2422 92.1654 99.418 91.6107 99.7695 91.207C100.121 90.8034 100.604 90.6016 101.219 90.6016C101.789 90.6016 102.24 90.7747 102.57 91.1211C102.901 91.4674 103.066 91.944 103.066 92.5508V93.0469H100.188C100.201 93.4661 100.314 93.7891 100.527 94.0156C100.741 94.2396 101.042 94.3516 101.43 94.3516C101.685 94.3516 101.922 94.3281 102.141 94.2812C102.362 94.2318 102.599 94.151 102.852 94.0391V94.7852C102.628 94.8919 102.401 94.9674 102.172 95.0117C101.943 95.056 101.681 95.0781 101.387 95.0781ZM101.219 91.2969C100.927 91.2969 100.693 91.3893 100.516 91.5742C100.341 91.7591 100.237 92.0286 100.203 92.3828H102.164C102.159 92.026 102.073 91.7565 101.906 91.5742C101.74 91.3893 101.51 91.2969 101.219 91.2969ZM107.91 95H106.988V92.3438C106.988 92.0104 106.921 91.7617 106.785 91.5977C106.652 91.4336 106.44 91.3516 106.148 91.3516C105.76 91.3516 105.477 91.4661 105.297 91.6953C105.117 91.9245 105.027 92.3086 105.027 92.8477V95H104.109V90.6797H104.828L104.957 91.2461H105.004C105.134 91.0404 105.319 90.8815 105.559 90.7695C105.798 90.6576 106.064 90.6016 106.355 90.6016C107.392 90.6016 107.91 91.1289 107.91 92.1836V95ZM110.645 95.0781C110.105 95.0781 109.685 94.8828 109.383 94.4922C109.081 94.1016 108.93 93.5534 108.93 92.8477C108.93 92.1393 109.082 91.5885 109.387 91.1953C109.694 90.7995 110.118 90.6016 110.66 90.6016C111.228 90.6016 111.66 90.8112 111.957 91.2305H112.004C111.96 90.9206 111.938 90.6758 111.938 90.4961V88.9219H112.859V95H112.141L111.98 94.4336H111.938C111.643 94.8633 111.212 95.0781 110.645 95.0781ZM110.891 94.3359C111.268 94.3359 111.543 94.2305 111.715 94.0195C111.887 93.806 111.975 93.4609 111.98 92.9844V92.8555C111.98 92.3112 111.892 91.9245 111.715 91.6953C111.538 91.4661 111.26 91.3516 110.883 91.3516C110.56 91.3516 110.311 91.4831 110.137 91.7461C109.962 92.0065 109.875 92.3789 109.875 92.8633C109.875 93.3424 109.96 93.7083 110.129 93.9609C110.298 94.2109 110.552 94.3359 110.891 94.3359ZM115.914 92.8086C115.914 92.1185 116.014 91.4727 116.215 90.8711C116.418 90.2695 116.71 89.7422 117.09 89.2891H117.891C117.529 89.7786 117.251 90.3281 117.059 90.9375C116.866 91.5443 116.77 92.1654 116.77 92.8008C116.77 93.4362 116.866 94.0521 117.059 94.6484C117.251 95.2448 117.526 95.7839 117.883 96.2656H117.09C116.707 95.8229 116.415 95.306 116.215 94.7148C116.014 94.1237 115.914 93.4883 115.914 92.8086ZM119.707 95H118.789V90.6797H119.707V95ZM118.734 89.5352C118.734 89.3711 118.779 89.2448 118.867 89.1562C118.958 89.0677 119.087 89.0234 119.254 89.0234C119.415 89.0234 119.54 89.0677 119.629 89.1562C119.72 89.2448 119.766 89.3711 119.766 89.5352C119.766 89.6914 119.72 89.8151 119.629 89.9062C119.54 89.9948 119.415 90.0391 119.254 90.0391C119.087 90.0391 118.958 89.9948 118.867 89.9062C118.779 89.8151 118.734 89.6914 118.734 89.5352ZM124.824 95H123.902V92.3438C123.902 92.0104 123.835 91.7617 123.699 91.5977C123.566 91.4336 123.354 91.3516 123.062 91.3516C122.674 91.3516 122.391 91.4661 122.211 91.6953C122.031 91.9245 121.941 92.3086 121.941 92.8477V95H121.023V90.6797H121.742L121.871 91.2461H121.918C122.048 91.0404 122.233 90.8815 122.473 90.7695C122.712 90.6576 122.978 90.6016 123.27 90.6016C124.306 90.6016 124.824 91.1289 124.824 92.1836V95ZM129.789 94.3359C130.013 94.3359 130.237 94.3008 130.461 94.2305V94.9219C130.359 94.9661 130.228 95.0026 130.066 95.0312C129.908 95.0625 129.742 95.0781 129.57 95.0781C128.701 95.0781 128.266 94.6198 128.266 93.7031V91.375H127.676V90.9688L128.309 90.6328L128.621 89.7188H129.188V90.6797H130.418V91.375H129.188V93.6875C129.188 93.9089 129.242 94.0729 129.352 94.1797C129.464 94.2839 129.609 94.3359 129.789 94.3359ZM135.16 92.832C135.16 93.5378 134.979 94.0885 134.617 94.4844C134.255 94.8802 133.751 95.0781 133.105 95.0781C132.702 95.0781 132.345 94.987 132.035 94.8047C131.725 94.6224 131.487 94.3607 131.32 94.0195C131.154 93.6784 131.07 93.2826 131.07 92.832C131.07 92.1315 131.25 91.5846 131.609 91.1914C131.969 90.7982 132.475 90.6016 133.129 90.6016C133.754 90.6016 134.249 90.8034 134.613 91.207C134.978 91.6081 135.16 92.1497 135.16 92.832ZM132.016 92.832C132.016 93.8294 132.384 94.3281 133.121 94.3281C133.85 94.3281 134.215 93.8294 134.215 92.832C134.215 91.8451 133.848 91.3516 133.113 91.3516C132.728 91.3516 132.448 91.4792 132.273 91.7344C132.102 91.9896 132.016 92.3555 132.016 92.832ZM137.828 94.3359C138.052 94.3359 138.276 94.3008 138.5 94.2305V94.9219C138.398 94.9661 138.267 95.0026 138.105 95.0312C137.947 95.0625 137.781 95.0781 137.609 95.0781C136.74 95.0781 136.305 94.6198 136.305 93.7031V91.375H135.715V90.9688L136.348 90.6328L136.66 89.7188H137.227V90.6797H138.457V91.375H137.227V93.6875C137.227 93.9089 137.281 94.0729 137.391 94.1797C137.503 94.2839 137.648 94.3359 137.828 94.3359ZM142.07 95L141.887 94.3984H141.855C141.647 94.6615 141.438 94.8411 141.227 94.9375C141.016 95.0312 140.745 95.0781 140.414 95.0781C139.99 95.0781 139.658 94.9635 139.418 94.7344C139.181 94.5052 139.062 94.181 139.062 93.7617C139.062 93.3164 139.228 92.9805 139.559 92.7539C139.889 92.5273 140.393 92.4036 141.07 92.3828L141.816 92.3594V92.1289C141.816 91.8529 141.751 91.6471 141.621 91.5117C141.493 91.3737 141.294 91.3047 141.023 91.3047C140.802 91.3047 140.59 91.3372 140.387 91.4023C140.184 91.4674 139.988 91.5443 139.801 91.6328L139.504 90.9766C139.738 90.8542 139.995 90.7617 140.273 90.6992C140.552 90.6341 140.815 90.6016 141.062 90.6016C141.612 90.6016 142.026 90.7214 142.305 90.9609C142.586 91.2005 142.727 91.5768 142.727 92.0898V95H142.07ZM140.703 94.375C141.036 94.375 141.303 94.2826 141.504 94.0977C141.707 93.9102 141.809 93.6484 141.809 93.3125V92.9375L141.254 92.9609C140.822 92.9766 140.507 93.0495 140.309 93.1797C140.113 93.3073 140.016 93.5039 140.016 93.7695C140.016 93.9622 140.073 94.112 140.188 94.2188C140.302 94.3229 140.474 94.375 140.703 94.375ZM144.926 95H144.008V88.9219H144.926V95ZM147.801 92.8086C147.801 93.4935 147.699 94.1315 147.496 94.7227C147.296 95.3138 147.005 95.8281 146.625 96.2656H145.832C146.191 95.7786 146.466 95.2383 146.656 94.6445C146.849 94.0508 146.945 93.4362 146.945 92.8008C146.945 92.1628 146.849 91.5417 146.656 90.9375C146.464 90.3307 146.186 89.7812 145.824 89.2891H146.625C147.008 89.7448 147.299 90.2747 147.5 90.8789C147.701 91.4805 147.801 92.1237 147.801 92.8086ZM148.645 94.5117C148.645 94.3216 148.694 94.1758 148.793 94.0742C148.892 93.9727 149.035 93.9219 149.223 93.9219C149.413 93.9219 149.557 93.9753 149.656 94.082C149.755 94.1862 149.805 94.3294 149.805 94.5117C149.805 94.6966 149.754 94.8438 149.652 94.9531C149.553 95.0599 149.41 95.1133 149.223 95.1133C149.035 95.1133 148.892 95.0599 148.793 94.9531C148.694 94.8464 148.645 94.6992 148.645 94.5117ZM148.645 91.1758C148.645 90.7826 148.837 90.5859 149.223 90.5859C149.418 90.5859 149.564 90.638 149.66 90.7422C149.757 90.8464 149.805 90.9909 149.805 91.1758C149.805 91.3607 149.754 91.5078 149.652 91.6172C149.553 91.724 149.41 91.7773 149.223 91.7773C149.035 91.7773 148.892 91.724 148.793 91.6172C148.694 91.5104 148.645 91.3633 148.645 91.1758Z" fill="#9A9A9A"/>
<path d="M34.9883 131H32.5654V126.717H34.9883V127.309H33.2656V128.475H34.8799V129.061H33.2656V130.405H34.9883V131ZM36.5645 129.345L35.4775 127.76H36.2627L37.001 128.894L37.7451 127.76H38.5244L37.4346 129.345L38.5801 131H37.8008L37.001 129.787L36.2041 131H35.4248L36.5645 129.345ZM40.792 131.059C40.3818 131.059 40.0635 130.911 39.8369 130.616H39.7959C39.8232 130.89 39.8369 131.056 39.8369 131.114V132.441H39.1484V127.76H39.7051C39.7207 127.82 39.7529 127.965 39.8018 128.193H39.8369C40.0518 127.865 40.374 127.701 40.8037 127.701C41.208 127.701 41.5225 127.848 41.7471 128.141C41.9736 128.434 42.0869 128.845 42.0869 129.374C42.0869 129.903 41.9717 130.316 41.7412 130.613C41.5127 130.91 41.1963 131.059 40.792 131.059ZM40.625 128.264C40.3516 128.264 40.1514 128.344 40.0244 128.504C39.8994 128.664 39.8369 128.92 39.8369 129.271V129.374C39.8369 129.769 39.8994 130.055 40.0244 130.232C40.1494 130.408 40.3535 130.496 40.6367 130.496C40.875 130.496 41.0586 130.398 41.1875 130.203C41.3164 130.008 41.3809 129.729 41.3809 129.368C41.3809 129.005 41.3164 128.73 41.1875 128.545C41.0605 128.357 40.873 128.264 40.625 128.264ZM44.3018 131.059C43.7979 131.059 43.4033 130.912 43.1182 130.619C42.835 130.324 42.6934 129.919 42.6934 129.403C42.6934 128.874 42.8252 128.458 43.0889 128.155C43.3525 127.853 43.7148 127.701 44.1758 127.701C44.6035 127.701 44.9414 127.831 45.1895 128.091C45.4375 128.351 45.5615 128.708 45.5615 129.163V129.535H43.4023C43.4121 129.85 43.4971 130.092 43.6572 130.262C43.8174 130.43 44.043 130.514 44.334 130.514C44.5254 130.514 44.7031 130.496 44.8672 130.461C45.0332 130.424 45.2109 130.363 45.4004 130.279V130.839C45.2324 130.919 45.0625 130.976 44.8906 131.009C44.7188 131.042 44.5225 131.059 44.3018 131.059ZM44.1758 128.223C43.957 128.223 43.7812 128.292 43.6484 128.431C43.5176 128.569 43.4395 128.771 43.4141 129.037H44.8848C44.8809 128.77 44.8164 128.567 44.6914 128.431C44.5664 128.292 44.3945 128.223 44.1758 128.223ZM47.6504 131.059C47.1602 131.059 46.7871 130.916 46.5312 130.631C46.2773 130.344 46.1504 129.933 46.1504 129.397C46.1504 128.853 46.2832 128.434 46.5488 128.141C46.8164 127.848 47.2021 127.701 47.7061 127.701C48.0479 127.701 48.3555 127.765 48.6289 127.892L48.4209 128.445C48.1299 128.332 47.8896 128.275 47.7002 128.275C47.1396 128.275 46.8594 128.647 46.8594 129.392C46.8594 129.755 46.9287 130.028 47.0674 130.212C47.208 130.394 47.4131 130.484 47.6826 130.484C47.9893 130.484 48.2793 130.408 48.5527 130.256V130.856C48.4297 130.929 48.2979 130.98 48.1572 131.012C48.0186 131.043 47.8496 131.059 47.6504 131.059ZM50.5215 130.502C50.6895 130.502 50.8574 130.476 51.0254 130.423V130.941C50.9492 130.975 50.8506 131.002 50.7295 131.023C50.6104 131.047 50.4863 131.059 50.3574 131.059C49.7051 131.059 49.3789 130.715 49.3789 130.027V128.281H48.9365V127.977L49.4111 127.725L49.6455 127.039H50.0703V127.76H50.9932V128.281H50.0703V130.016C50.0703 130.182 50.1113 130.305 50.1934 130.385C50.2773 130.463 50.3867 130.502 50.5215 130.502ZM53.0908 131.059C52.5869 131.059 52.1924 130.912 51.9072 130.619C51.624 130.324 51.4824 129.919 51.4824 129.403C51.4824 128.874 51.6143 128.458 51.8779 128.155C52.1416 127.853 52.5039 127.701 52.9648 127.701C53.3926 127.701 53.7305 127.831 53.9785 128.091C54.2266 128.351 54.3506 128.708 54.3506 129.163V129.535H52.1914C52.2012 129.85 52.2861 130.092 52.4463 130.262C52.6064 130.43 52.832 130.514 53.123 130.514C53.3145 130.514 53.4922 130.496 53.6562 130.461C53.8223 130.424 54 130.363 54.1895 130.279V130.839C54.0215 130.919 53.8516 130.976 53.6797 131.009C53.5078 131.042 53.3115 131.059 53.0908 131.059ZM52.9648 128.223C52.7461 128.223 52.5703 128.292 52.4375 128.431C52.3066 128.569 52.2285 128.771 52.2031 129.037H53.6738C53.6699 128.77 53.6055 128.567 53.4805 128.431C53.3555 128.292 53.1836 128.223 52.9648 128.223ZM56.2256 131.059C55.8213 131.059 55.5059 130.912 55.2793 130.619C55.0527 130.326 54.9395 129.915 54.9395 129.386C54.9395 128.854 55.0537 128.441 55.2822 128.146C55.5127 127.85 55.8311 127.701 56.2373 127.701C56.6631 127.701 56.9873 127.858 57.21 128.173H57.2451C57.2119 127.94 57.1953 127.757 57.1953 127.622V126.441H57.8867V131H57.3477L57.2275 130.575H57.1953C56.9746 130.897 56.6514 131.059 56.2256 131.059ZM56.4102 130.502C56.6934 130.502 56.8994 130.423 57.0283 130.265C57.1572 130.104 57.2236 129.846 57.2275 129.488V129.392C57.2275 128.983 57.1611 128.693 57.0283 128.521C56.8955 128.35 56.6875 128.264 56.4043 128.264C56.1621 128.264 55.9756 128.362 55.8447 128.56C55.7139 128.755 55.6484 129.034 55.6484 129.397C55.6484 129.757 55.7119 130.031 55.8389 130.221C55.9658 130.408 56.1562 130.502 56.4102 130.502ZM62.0732 127.701C62.2119 127.701 62.3262 127.711 62.416 127.73L62.3486 128.372C62.251 128.349 62.1494 128.337 62.0439 128.337C61.7686 128.337 61.5449 128.427 61.373 128.606C61.2031 128.786 61.1182 129.02 61.1182 129.307V131H60.4297V127.76H60.9688L61.0596 128.331H61.0947C61.2021 128.138 61.3418 127.984 61.5137 127.871C61.6875 127.758 61.874 127.701 62.0732 127.701ZM64.4346 131.059C63.9307 131.059 63.5361 130.912 63.251 130.619C62.9678 130.324 62.8262 129.919 62.8262 129.403C62.8262 128.874 62.958 128.458 63.2217 128.155C63.4854 127.853 63.8477 127.701 64.3086 127.701C64.7363 127.701 65.0742 127.831 65.3223 128.091C65.5703 128.351 65.6943 128.708 65.6943 129.163V129.535H63.5352C63.5449 129.85 63.6299 130.092 63.79 130.262C63.9502 130.43 64.1758 130.514 64.4668 130.514C64.6582 130.514 64.8359 130.496 65 130.461C65.166 130.424 65.3438 130.363 65.5332 130.279V130.839C65.3652 130.919 65.1953 130.976 65.0234 131.009C64.8516 131.042 64.6553 131.059 64.4346 131.059ZM64.3086 128.223C64.0898 128.223 63.9141 128.292 63.7812 128.431C63.6504 128.569 63.5723 128.771 63.5469 129.037H65.0176C65.0137 128.77 64.9492 128.567 64.8242 128.431C64.6992 128.292 64.5273 128.223 64.3086 128.223ZM68.5039 131L68.3662 130.549H68.3428C68.1865 130.746 68.0293 130.881 67.8711 130.953C67.7129 131.023 67.5098 131.059 67.2617 131.059C66.9434 131.059 66.6943 130.973 66.5146 130.801C66.3369 130.629 66.248 130.386 66.248 130.071C66.248 129.737 66.3721 129.485 66.6201 129.315C66.8682 129.146 67.2461 129.053 67.7539 129.037L68.3135 129.02V128.847C68.3135 128.64 68.2646 128.485 68.167 128.384C68.0713 128.28 67.9219 128.229 67.7188 128.229C67.5527 128.229 67.3936 128.253 67.2412 128.302C67.0889 128.351 66.9424 128.408 66.8018 128.475L66.5791 127.982C66.7549 127.891 66.9473 127.821 67.1562 127.774C67.3652 127.726 67.5625 127.701 67.748 127.701C68.1602 127.701 68.4707 127.791 68.6797 127.971C68.8906 128.15 68.9961 128.433 68.9961 128.817V131H68.5039ZM67.4785 130.531C67.7285 130.531 67.9287 130.462 68.0791 130.323C68.2314 130.183 68.3076 129.986 68.3076 129.734V129.453L67.8916 129.471C67.5674 129.482 67.3311 129.537 67.1826 129.635C67.0361 129.73 66.9629 129.878 66.9629 130.077C66.9629 130.222 67.0059 130.334 67.0918 130.414C67.1777 130.492 67.3066 130.531 67.4785 130.531ZM71.2637 131.059C70.7734 131.059 70.4004 130.916 70.1445 130.631C69.8906 130.344 69.7637 129.933 69.7637 129.397C69.7637 128.853 69.8965 128.434 70.1621 128.141C70.4297 127.848 70.8154 127.701 71.3193 127.701C71.6611 127.701 71.9688 127.765 72.2422 127.892L72.0342 128.445C71.7432 128.332 71.5029 128.275 71.3135 128.275C70.7529 128.275 70.4727 128.647 70.4727 129.392C70.4727 129.755 70.542 130.028 70.6807 130.212C70.8213 130.394 71.0264 130.484 71.2959 130.484C71.6025 130.484 71.8926 130.408 72.166 130.256V130.856C72.043 130.929 71.9111 130.98 71.7705 131.012C71.6318 131.043 71.4629 131.059 71.2637 131.059ZM75.7783 131H75.0869V129.008C75.0869 128.758 75.0361 128.571 74.9346 128.448C74.835 128.325 74.6758 128.264 74.457 128.264C74.168 128.264 73.9551 128.351 73.8184 128.524C73.6836 128.696 73.6162 128.985 73.6162 129.392V131H72.9277V126.441H73.6162V127.599C73.6162 127.784 73.6045 127.982 73.5811 128.193H73.625C73.7188 128.037 73.8486 127.916 74.0146 127.83C74.1826 127.744 74.3779 127.701 74.6006 127.701C75.3857 127.701 75.7783 128.097 75.7783 128.888V131ZM76.6338 130.634C76.6338 130.491 76.6709 130.382 76.7451 130.306C76.8193 130.229 76.9268 130.191 77.0674 130.191C77.21 130.191 77.3184 130.231 77.3926 130.312C77.4668 130.39 77.5039 130.497 77.5039 130.634C77.5039 130.772 77.4658 130.883 77.3896 130.965C77.3154 131.045 77.208 131.085 77.0674 131.085C76.9268 131.085 76.8193 131.045 76.7451 130.965C76.6709 130.885 76.6338 130.774 76.6338 130.634ZM76.6338 128.132C76.6338 127.837 76.7783 127.689 77.0674 127.689C77.2139 127.689 77.3232 127.729 77.3955 127.807C77.4678 127.885 77.5039 127.993 77.5039 128.132C77.5039 128.271 77.4658 128.381 77.3896 128.463C77.3154 128.543 77.208 128.583 77.0674 128.583C76.9268 128.583 76.8193 128.543 76.7451 128.463C76.6709 128.383 76.6338 128.272 76.6338 128.132ZM81.166 126.661C81.5723 126.661 81.8936 126.755 82.1299 126.942C82.3662 127.128 82.4844 127.377 82.4844 127.689C82.4844 128.129 82.2207 128.479 81.6934 128.738C82.0293 128.906 82.2676 129.083 82.4082 129.269C82.5508 129.454 82.6221 129.661 82.6221 129.89C82.6221 130.243 82.4922 130.526 82.2324 130.739C81.9727 130.952 81.6211 131.059 81.1777 131.059C80.7129 131.059 80.3525 130.959 80.0967 130.76C79.8408 130.561 79.7129 130.278 79.7129 129.913C79.7129 129.675 79.7793 129.461 79.9121 129.271C80.0469 129.08 80.2666 128.91 80.5713 128.762C80.3096 128.605 80.123 128.44 80.0117 128.267C79.9004 128.093 79.8447 127.897 79.8447 127.681C79.8447 127.37 79.9668 127.123 80.2109 126.939C80.4551 126.754 80.7734 126.661 81.166 126.661ZM80.3721 129.89C80.3721 130.093 80.4434 130.251 80.5859 130.364C80.7285 130.476 80.9219 130.531 81.166 130.531C81.418 130.531 81.6133 130.474 81.752 130.358C81.8926 130.241 81.9629 130.083 81.9629 129.884C81.9629 129.726 81.8984 129.581 81.7695 129.45C81.6406 129.319 81.4453 129.198 81.1836 129.087L81.0986 129.049C80.8408 129.162 80.6553 129.287 80.542 129.424C80.4287 129.559 80.3721 129.714 80.3721 129.89ZM81.1602 127.191C80.9648 127.191 80.8076 127.24 80.6885 127.338C80.5693 127.434 80.5098 127.564 80.5098 127.73C80.5098 127.832 80.5312 127.923 80.5742 128.003C80.6172 128.083 80.6797 128.156 80.7617 128.223C80.8438 128.287 80.9824 128.365 81.1777 128.457C81.4121 128.354 81.5771 128.245 81.6729 128.132C81.7705 128.017 81.8193 127.883 81.8193 127.73C81.8193 127.564 81.7588 127.434 81.6377 127.338C81.5186 127.24 81.3594 127.191 81.1602 127.191ZM86.0498 128.858C86.0498 129.603 85.9297 130.155 85.6895 130.517C85.4512 130.878 85.0859 131.059 84.5938 131.059C84.1172 131.059 83.7559 130.872 83.5098 130.499C83.2637 130.126 83.1406 129.579 83.1406 128.858C83.1406 128.103 83.2598 127.546 83.498 127.188C83.7383 126.829 84.1035 126.649 84.5938 126.649C85.0723 126.649 85.4346 126.837 85.6807 127.212C85.9268 127.587 86.0498 128.136 86.0498 128.858ZM83.8379 128.858C83.8379 129.442 83.8975 129.859 84.0166 130.109C84.1377 130.359 84.3301 130.484 84.5938 130.484C84.8574 130.484 85.0498 130.357 85.1709 130.104C85.2939 129.85 85.3555 129.435 85.3555 128.858C85.3555 128.284 85.2939 127.869 85.1709 127.613C85.0498 127.355 84.8574 127.227 84.5938 127.227C84.3301 127.227 84.1377 127.353 84.0166 127.604C83.8975 127.856 83.8379 128.274 83.8379 128.858ZM89.4775 128.858C89.4775 129.603 89.3574 130.155 89.1172 130.517C88.8789 130.878 88.5137 131.059 88.0215 131.059C87.5449 131.059 87.1836 130.872 86.9375 130.499C86.6914 130.126 86.5684 129.579 86.5684 128.858C86.5684 128.103 86.6875 127.546 86.9258 127.188C87.166 126.829 87.5312 126.649 88.0215 126.649C88.5 126.649 88.8623 126.837 89.1084 127.212C89.3545 127.587 89.4775 128.136 89.4775 128.858ZM87.2656 128.858C87.2656 129.442 87.3252 129.859 87.4443 130.109C87.5654 130.359 87.7578 130.484 88.0215 130.484C88.2852 130.484 88.4775 130.357 88.5986 130.104C88.7217 129.85 88.7832 129.435 88.7832 128.858C88.7832 128.284 88.7217 127.869 88.5986 127.613C88.4775 127.355 88.2852 127.227 88.0215 127.227C87.7578 127.227 87.5654 127.353 87.4443 127.604C87.3252 127.856 87.2656 128.274 87.2656 128.858ZM92.9053 128.858C92.9053 129.603 92.7852 130.155 92.5449 130.517C92.3066 130.878 91.9414 131.059 91.4492 131.059C90.9727 131.059 90.6113 130.872 90.3652 130.499C90.1191 130.126 89.9961 129.579 89.9961 128.858C89.9961 128.103 90.1152 127.546 90.3535 127.188C90.5938 126.829 90.959 126.649 91.4492 126.649C91.9277 126.649 92.29 126.837 92.5361 127.212C92.7822 127.587 92.9053 128.136 92.9053 128.858ZM90.6934 128.858C90.6934 129.442 90.7529 129.859 90.8721 130.109C90.9932 130.359 91.1855 130.484 91.4492 130.484C91.7129 130.484 91.9053 130.357 92.0264 130.104C92.1494 129.85 92.2109 129.435 92.2109 128.858C92.2109 128.284 92.1494 127.869 92.0264 127.613C91.9053 127.355 91.7129 127.227 91.4492 127.227C91.1855 127.227 90.9932 127.353 90.8721 127.604C90.7529 127.856 90.6934 128.274 90.6934 128.858ZM94.9648 129.356C94.9648 128.839 95.04 128.354 95.1904 127.903C95.3428 127.452 95.5615 127.057 95.8467 126.717H96.4473C96.1758 127.084 95.9678 127.496 95.8232 127.953C95.6787 128.408 95.6064 128.874 95.6064 129.351C95.6064 129.827 95.6787 130.289 95.8232 130.736C95.9678 131.184 96.1738 131.588 96.4414 131.949H95.8467C95.5596 131.617 95.3408 131.229 95.1904 130.786C95.04 130.343 94.9648 129.866 94.9648 129.356ZM97.8096 131H97.1211V127.76H97.8096V131ZM97.0801 126.901C97.0801 126.778 97.1133 126.684 97.1797 126.617C97.248 126.551 97.3447 126.518 97.4697 126.518C97.5908 126.518 97.6846 126.551 97.751 126.617C97.8193 126.684 97.8535 126.778 97.8535 126.901C97.8535 127.019 97.8193 127.111 97.751 127.18C97.6846 127.246 97.5908 127.279 97.4697 127.279C97.3447 127.279 97.248 127.246 97.1797 127.18C97.1133 127.111 97.0801 127.019 97.0801 126.901ZM101.647 131H100.956V129.008C100.956 128.758 100.905 128.571 100.804 128.448C100.704 128.325 100.545 128.264 100.326 128.264C100.035 128.264 99.8223 128.35 99.6875 128.521C99.5527 128.693 99.4854 128.981 99.4854 129.386V131H98.7969V127.76H99.3359L99.4326 128.185H99.4678C99.5654 128.03 99.7041 127.911 99.8838 127.827C100.063 127.743 100.263 127.701 100.481 127.701C101.259 127.701 101.647 128.097 101.647 128.888V131ZM103.912 131.059C103.422 131.059 103.049 130.916 102.793 130.631C102.539 130.344 102.412 129.933 102.412 129.397C102.412 128.853 102.545 128.434 102.811 128.141C103.078 127.848 103.464 127.701 103.968 127.701C104.31 127.701 104.617 127.765 104.891 127.892L104.683 128.445C104.392 128.332 104.151 128.275 103.962 128.275C103.401 128.275 103.121 128.647 103.121 129.392C103.121 129.755 103.19 130.028 103.329 130.212C103.47 130.394 103.675 130.484 103.944 130.484C104.251 130.484 104.541 130.408 104.814 130.256V130.856C104.691 130.929 104.56 130.98 104.419 131.012C104.28 131.043 104.111 131.059 103.912 131.059ZM108.761 128.281H107.97V131H107.278V128.281H106.745V127.959L107.278 127.748V127.537C107.278 127.154 107.368 126.871 107.548 126.688C107.728 126.502 108.002 126.409 108.371 126.409C108.613 126.409 108.852 126.449 109.086 126.529L108.904 127.051C108.734 126.996 108.572 126.969 108.418 126.969C108.262 126.969 108.147 127.018 108.075 127.115C108.005 127.211 107.97 127.355 107.97 127.549V127.76H108.761V128.281ZM110.729 131.059C110.226 131.059 109.831 130.912 109.546 130.619C109.263 130.324 109.121 129.919 109.121 129.403C109.121 128.874 109.253 128.458 109.517 128.155C109.78 127.853 110.143 127.701 110.604 127.701C111.031 127.701 111.369 127.831 111.617 128.091C111.865 128.351 111.989 128.708 111.989 129.163V129.535H109.83C109.84 129.85 109.925 130.092 110.085 130.262C110.245 130.43 110.471 130.514 110.762 130.514C110.953 130.514 111.131 130.496 111.295 130.461C111.461 130.424 111.639 130.363 111.828 130.279V130.839C111.66 130.919 111.49 130.976 111.318 131.009C111.146 131.042 110.95 131.059 110.729 131.059ZM110.604 128.223C110.385 128.223 110.209 128.292 110.076 128.431C109.945 128.569 109.867 128.771 109.842 129.037H111.312C111.309 128.77 111.244 128.567 111.119 128.431C110.994 128.292 110.822 128.223 110.604 128.223ZM114.187 131.059C113.683 131.059 113.288 130.912 113.003 130.619C112.72 130.324 112.578 129.919 112.578 129.403C112.578 128.874 112.71 128.458 112.974 128.155C113.237 127.853 113.6 127.701 114.061 127.701C114.488 127.701 114.826 127.831 115.074 128.091C115.322 128.351 115.446 128.708 115.446 129.163V129.535H113.287C113.297 129.85 113.382 130.092 113.542 130.262C113.702 130.43 113.928 130.514 114.219 130.514C114.41 130.514 114.588 130.496 114.752 130.461C114.918 130.424 115.096 130.363 115.285 130.279V130.839C115.117 130.919 114.947 130.976 114.775 131.009C114.604 131.042 114.407 131.059 114.187 131.059ZM114.061 128.223C113.842 128.223 113.666 128.292 113.533 128.431C113.402 128.569 113.324 128.771 113.299 129.037H114.77C114.766 128.77 114.701 128.567 114.576 128.431C114.451 128.292 114.279 128.223 114.061 128.223ZM117.397 129.356C117.397 129.87 117.321 130.349 117.169 130.792C117.019 131.235 116.801 131.621 116.516 131.949H115.921C116.19 131.584 116.396 131.179 116.539 130.733C116.684 130.288 116.756 129.827 116.756 129.351C116.756 128.872 116.684 128.406 116.539 127.953C116.395 127.498 116.187 127.086 115.915 126.717H116.516C116.803 127.059 117.021 127.456 117.172 127.909C117.322 128.36 117.397 128.843 117.397 129.356Z" fill="#9A9A9A"/>
<path d="M179.152 69.2305C179.152 69.6081 179.014 69.9193 178.738 70.1641C178.462 70.4089 178.064 70.5599 177.543 70.6172V71.4648H177.023V70.6406C176.378 70.6302 175.848 70.5312 175.434 70.3438V69.5195C175.658 69.6289 175.919 69.7214 176.219 69.7969C176.518 69.8698 176.786 69.9076 177.023 69.9102V68.4492L176.695 68.3281C176.268 68.1641 175.956 67.9688 175.758 67.7422C175.562 67.513 175.465 67.2305 175.465 66.8945C175.465 66.5352 175.604 66.2396 175.883 66.0078C176.164 65.776 176.544 65.6354 177.023 65.5859V64.9297H177.543V65.5742C178.072 65.5924 178.573 65.6992 179.047 65.8945L178.762 66.6094C178.353 66.4479 177.947 66.3516 177.543 66.3203V67.7422L177.84 67.8555C178.335 68.0456 178.677 68.2461 178.867 68.457C179.057 68.668 179.152 68.9258 179.152 69.2305ZM178.23 69.2891C178.23 69.138 178.177 69.0143 178.07 68.918C177.966 68.819 177.79 68.724 177.543 68.6328V69.8789C178.001 69.8086 178.23 69.612 178.23 69.2891ZM176.383 66.8867C176.383 67.0352 176.428 67.1589 176.52 67.2578C176.613 67.3568 176.781 67.4544 177.023 67.5508V66.3359C176.815 66.3672 176.656 66.431 176.547 66.5273C176.438 66.6237 176.383 66.7435 176.383 66.8867Z" fill="#4B4848"/>
<path d="M179.152 112.23C179.152 112.608 179.014 112.919 178.738 113.164C178.462 113.409 178.064 113.56 177.543 113.617V114.465H177.023V113.641C176.378 113.63 175.848 113.531 175.434 113.344V112.52C175.658 112.629 175.919 112.721 176.219 112.797C176.518 112.87 176.786 112.908 177.023 112.91V111.449L176.695 111.328C176.268 111.164 175.956 110.969 175.758 110.742C175.562 110.513 175.465 110.23 175.465 109.895C175.465 109.535 175.604 109.24 175.883 109.008C176.164 108.776 176.544 108.635 177.023 108.586V107.93H177.543V108.574C178.072 108.592 178.573 108.699 179.047 108.895L178.762 109.609C178.353 109.448 177.947 109.352 177.543 109.32V110.742L177.84 110.855C178.335 111.046 178.677 111.246 178.867 111.457C179.057 111.668 179.152 111.926 179.152 112.23ZM178.23 112.289C178.23 112.138 178.177 112.014 178.07 111.918C177.966 111.819 177.79 111.724 177.543 111.633V112.879C178.001 112.809 178.23 112.612 178.23 112.289ZM176.383 109.887C176.383 110.035 176.428 110.159 176.52 110.258C176.613 110.357 176.781 110.454 177.023 110.551V109.336C176.815 109.367 176.656 109.431 176.547 109.527C176.438 109.624 176.383 109.743 176.383 109.887Z" fill="#4B4848"/>
</g>
</g>
<defs>
<filter id="filter0_d" x="0" y="0" width="208" height="208" filterUnits="userSpaceOnUse" color-interpolation-filters="sRGB">
<feFlood flood-opacity="0" result="BackgroundImageFix"/>
<feColorMatrix in="SourceAlpha" type="matrix" values="0 0 0 0 0 0 0 0 0 0 0 0 0 0 0 0 0 0 127 0"/>
<feOffset dy="4"/>
<feGaussianBlur stdDeviation="2"/>
<feColorMatrix type="matrix" values="0 0 0 0 0 0 0 0 0 0 0 0 0 0 0 0 0 0 0.25 0"/>
<feBlend mode="normal" in2="BackgroundImageFix" result="effect1_dropShadow"/>
<feBlend mode="normal" in="SourceGraphic" in2="effect1_dropShadow" result="shape"/>
</filter>
<clipPath id="clip0">
<rect x="4" width="200" height="200" rx="20" fill="white"/>
</clipPath>
</defs>
</svg>
