<svg width="56" height="85" viewBox="0 0 56 85" fill="none" xmlns="http://www.w3.org/2000/svg">
<path d="M0.874023 48.313L2.89856 47.4387L27.8372 36.5798L54.8004 48.313L44.6777 69.2486L19.9231 72.7455L1.28813 52.6381L0.874023 48.313Z" fill="#133444"/>
<path d="M49.233 35.4295C44.7698 30.0461 38.4661 26.5952 31.5643 25.6749L31.1042 25.6289C28.9416 25.3529 26.779 25.3529 24.6164 25.6289L24.1563 25.6749C17.2545 26.5952 10.9508 30.0921 6.4876 35.4295L5.38331 37.27L3.49681 40.3528L2.11644 42.6074C2.11644 42.6535 2.07043 42.7455 2.02441 42.7915V42.8375L5.01521 44.632L24.1103 55.951L27.7913 58.1136V31.1044L24.1103 32.7608V28.7118L27.7913 27.0553L31.4723 28.7118L50.2453 37.27L49.233 35.4295Z" fill="#C42370"/>
<path d="M55.6288 55.0308C55.5828 63.9111 51.5798 72.2854 44.7239 77.8988C42.1012 80.0614 39.1564 81.6719 35.9356 82.7761C33.3129 83.6504 30.5982 84.0645 27.8374 84.0645C12.4693 84.0645 0 70.3988 0 55.0308C0 52.7762 0.276073 50.5216 0.82822 48.313L27.7914 64.2792L54.7546 48.313C55.3528 50.5216 55.6748 52.7762 55.6288 55.0308Z" fill="#1C4D6B"/>
<path d="M24.6164 25.629L27.8372 27.0554L24.1562 28.7578V25.3989L24.6164 25.629Z" fill="black"/>
<path d="M24.1562 32.8067L27.8372 31.1042V58.1595L24.1562 55.9509V32.8067Z" fill="black"/>
<path d="M27.8379 31.1042V58.1595L53.6968 42.8834L27.8379 31.1042Z" fill="#1D4259"/>
<path d="M27.8379 0V31.1043L53.6968 42.8835L27.8379 0Z" fill="#4B6B9A"/>
<path d="M27.8374 31.1043V58.1135L24.1564 55.9509L2.02453 42.8835H1.97852H2.02453C2.02453 42.8375 2.07054 42.7454 2.11655 42.6994L5.33741 37.316L24.1104 28.8037V32.8068L27.8374 31.1043Z" fill="#343535"/>
<path d="M27.8373 31.1042V58.1595L24.1563 55.9509L2.02441 42.8834L2.07043 42.8374L24.1563 32.8067L27.8373 31.1042Z" fill="#3E5578"/>
<path d="M27.8373 0V31.1043L2.02441 42.8835L27.8373 0Z" fill="#6DB2D8"/>
<path d="M17.3926 81.856C17.7607 82.04 18.1748 82.178 18.5429 82.3161C18.1748 82.178 17.8067 81.994 17.3926 81.856Z" fill="#335F8A"/>
<path d="M18.543 82.3159C18.9111 82.454 19.3252 82.638 19.7393 82.7301C19.3712 82.638 18.9571 82.5 18.543 82.3159Z" fill="#335F8A"/>
<path d="M20.7979 83.0522C21.1199 83.1443 21.396 83.2363 21.7181 83.2823C21.396 83.2363 21.0739 83.1443 20.7979 83.0522Z" fill="#335F8A"/>
<path d="M0.874119 48.313L27.8373 64.2792C27.4692 66.7179 26.825 69.0645 25.9048 71.3651C23.7422 76.6105 19.4171 82.132 10.9508 77.8989C4.09498 72.2854 0.0919107 63.9111 0.0458984 55.0308C0.0458984 52.7762 0.321972 50.5216 0.874119 48.313Z" fill="#6DB2D8"/>
<path d="M44.7235 77.8988L44.6315 77.9448C44.4934 78.0368 44.3554 78.1749 44.2174 78.2669L44.1713 78.3129C44.0333 78.451 43.8493 78.543 43.7112 78.681C43.5272 78.8191 43.3891 78.9571 43.2051 79.0491C43.021 79.1411 42.837 79.2792 42.699 79.4172C42.5149 79.5552 42.3769 79.6013 42.2388 79.7393L42.1468 79.7853C41.9628 79.8773 41.8247 79.9694 41.6867 80.1074C41.6867 80.1074 41.6407 80.1074 41.6407 80.1534C41.4566 80.2454 41.3186 80.3375 41.1345 80.4755C40.9505 80.5675 40.7664 80.6595 40.5824 80.7976C40.3983 80.8896 40.2143 80.9816 40.0302 81.0737L39.4781 81.3497C39.294 81.4418 39.11 81.5338 38.9259 81.6258C38.7419 81.7178 38.5578 81.8099 38.3738 81.9019C38.0057 82.0859 37.5916 82.224 37.2235 82.362C36.8554 82.5 36.4413 82.6381 36.0272 82.7761C35.8891 82.8221 35.7051 82.8681 35.5671 82.9141L35.0149 83.0982C34.6928 83.1902 34.4167 83.2822 34.0947 83.3282C34.0026 83.3743 33.8646 83.3743 33.7266 83.4203L33.5425 83.4663L33.0364 83.5583C32.8523 83.6043 32.7603 83.6043 32.5763 83.6503C32.4382 83.6964 32.3002 83.6964 32.1621 83.7424C32.0241 83.7424 31.8401 83.7884 31.702 83.8344C31.61 83.8344 31.564 83.8344 31.472 83.8804L31.1039 83.9264H30.9198C30.7818 83.9264 30.6437 83.9724 30.5517 83.9724C30.4137 83.9724 30.2296 84.0184 30.0916 84.0184C29.9536 84.0184 29.8615 84.0184 29.7235 84.0184C29.5855 84.0184 29.4934 84.0184 29.4014 84.0184C29.2634 84.0184 29.1253 84.0184 29.0333 84.0184C28.9413 84.0184 28.6652 84.0184 28.5272 84.0184H27.4229C27.2388 84.0184 27.0548 84.0184 26.9167 84.0184C26.7787 84.0184 26.6407 84.0184 26.5486 84.0184C26.4566 84.0184 26.3186 84.0184 26.2266 84.0184C26.1345 84.0184 25.9965 84.0184 25.8585 84.0184C25.7204 84.0184 25.5364 83.9724 25.3983 83.9724C25.2603 83.9724 25.1223 83.9724 25.0302 83.9264H24.8462C24.7542 83.9264 24.6161 83.8804 24.4781 83.8804C24.3861 83.8804 24.3401 83.8804 24.248 83.8344C24.11 83.8344 23.926 83.7884 23.7879 83.7424C23.6499 83.7424 23.5118 83.6964 23.3738 83.6503C23.2358 83.6503 23.0517 83.6043 22.9137 83.5583C22.7756 83.5123 22.5916 83.4663 22.4075 83.4663L22.2235 83.4203C22.0855 83.4203 21.9474 83.3743 21.8554 83.3743C21.5333 83.2822 21.2112 83.1902 20.9352 83.1442L20.383 82.9602C20.199 82.9141 20.0609 82.8681 19.9229 82.8221C19.5088 82.6841 19.1407 82.546 18.7266 82.408C18.3125 82.27 17.9444 82.0859 17.5763 81.9479C17.3922 81.8559 17.2082 81.7638 17.0241 81.6718L16.472 81.3957L15.9198 81.1197C15.7358 81.0276 15.5517 80.9356 15.3677 80.8436C15.1836 80.7516 14.9996 80.6595 14.8155 80.5215C14.6315 80.4295 14.4934 80.3375 14.3094 80.1994L14.2634 80.1534C14.0793 80.0614 13.9413 79.9694 13.8032 79.8313L13.7112 79.7853C13.5732 79.6933 13.3891 79.6013 13.2511 79.4632C13.1131 79.3712 12.883 79.2332 12.745 79.0951C12.5609 78.9571 12.3769 78.8651 12.2388 78.727L11.7787 78.3589L11.7327 78.3129C11.5947 78.2209 11.4566 78.0829 11.3186 77.9908L11.2266 77.9448C19.6468 82.1319 24.018 76.6105 26.1805 71.4111C27.1008 69.1565 27.745 66.7638 28.1131 64.3252C28.4812 66.7638 29.1253 69.1105 30.0456 71.4111C31.9321 76.5645 36.3032 82.0859 44.7235 77.8988Z" fill="#529BBA"/>
<path d="M34.0029 83.3282C34.325 83.2362 34.6471 83.1442 34.9232 83.0981C34.6471 83.1442 34.325 83.2362 34.0029 83.3282Z" fill="#335F8A"/>
<path d="M35.9355 82.7301C36.3497 82.592 36.7178 82.454 37.1319 82.3159C36.7638 82.5 36.3497 82.638 35.9355 82.7301Z" fill="#335F8A"/>
<path d="M37.1318 82.3161C37.4999 82.178 37.914 81.994 38.2821 81.856C37.914 81.994 37.5459 82.178 37.1318 82.3161Z" fill="#335F8A"/>
<path d="M55.6293 55.0308C55.5833 63.9111 51.5802 72.2854 44.7244 77.8989C36.3042 82.086 31.933 76.5645 29.7704 71.3651C28.8502 69.1105 28.206 66.7179 27.8379 64.2792L54.8011 48.313C55.3532 50.5216 55.6293 52.7762 55.6293 55.0308Z" fill="#4B6B9A"/>
</svg>
