<svg width="231" height="176" viewBox="0 0 231 176" fill="none" xmlns="http://www.w3.org/2000/svg">
<g clip-path="url(#clip0)">
<path d="M131.597 155.704C129.999 153.59 127.837 152.043 125.119 151.465C122.748 150.96 120.311 151.046 117.901 151.063L87.4332 151.285C84.8239 151.304 82.322 153.441 82.4432 156.001C82.5635 158.54 84.6362 160.737 87.4332 160.716C96.3583 160.651 105.283 160.586 114.208 160.521C116.312 160.506 118.418 160.47 120.522 160.477C120.994 160.478 121.465 160.502 121.937 160.507C122.051 160.508 122.134 160.507 122.192 160.505C122.207 160.509 122.219 160.513 122.238 160.518C122.485 160.582 122.737 160.626 122.985 160.686C122.898 160.689 123.146 160.835 123.27 160.884C123.287 160.916 123.323 160.972 123.384 161.059C123.469 161.21 123.72 161.666 123.73 161.652C124.108 162.553 124.419 163.478 124.662 164.42C125.242 166.497 125.369 166.931 125.453 168.88C125.558 171.341 127.672 173.713 130.443 173.595C133.056 173.485 135.546 171.52 135.433 168.88C135.242 164.431 134.416 159.434 131.597 155.704Z" fill="#E6E6E6"/>
<path d="M89.2242 166.344C88.6519 163.067 88.0906 159.788 87.5072 156.512C86.9153 153.19 85.7063 150.147 82.9701 147.966C82.2389 147.384 81.4809 146.84 80.7196 146.297C80.4519 146.107 80.1846 145.916 79.9201 145.721C79.9043 145.709 79.8942 145.702 79.8805 145.692C79.8514 145.668 79.8166 145.64 79.7696 145.603C78.6292 144.691 77.5273 143.738 76.4776 142.725C75.5454 141.826 74.654 140.888 73.8033 139.912C73.5907 139.668 73.3809 139.422 73.1738 139.174C73.1381 139.132 72.9463 138.897 72.8199 138.744C72.7023 138.591 72.4874 138.315 72.4513 138.267C72.2094 137.943 71.9717 137.617 71.7383 137.288C70.149 135.037 68.7728 132.659 67.6256 130.18C67.5119 129.934 67.4008 129.687 67.2924 129.438C67.2633 129.363 67.2257 129.265 67.1758 129.135C66.9446 128.534 66.7139 127.934 66.5025 127.327C66.0534 126.036 65.6674 124.725 65.3443 123.396C65.1845 122.74 65.0407 122.08 64.9128 121.417C64.8469 121.076 64.7852 120.735 64.7278 120.392C64.7184 120.335 64.6623 119.966 64.6293 119.757C64.6049 119.548 64.5595 119.176 64.5535 119.119C64.5169 118.774 64.4845 118.428 64.4562 118.082C64.3923 117.304 64.3492 116.525 64.3267 115.744C64.2883 114.357 64.3146 112.97 64.4056 111.582C64.4574 110.803 64.5311 110.025 64.6218 109.25C64.6273 109.202 64.6316 109.164 64.6356 109.13C64.641 109.095 64.6474 109.056 64.655 109.007C64.7222 108.578 64.7929 108.15 64.8719 107.723C65.1712 106.102 65.5605 104.497 66.0381 102.915C66.2642 102.167 66.5099 101.424 66.775 100.688C66.8932 100.361 67.0151 100.036 67.1408 99.7116C67.1326 99.7325 67.5095 98.8228 67.5145 98.7922C69.0099 95.4533 71.4559 92.4094 71.4592 88.6165C71.4615 86.0485 69.1625 83.5886 66.4692 83.7073C65.1264 83.755 63.8556 84.2935 62.9248 85.2093C61.9939 86.1252 61.4756 87.3467 61.4792 88.6165C61.4792 88.6742 61.4789 88.7234 61.4787 88.7711C61.4536 88.8511 61.4326 88.9178 61.4137 88.9768C61.1221 89.5757 60.7648 90.1447 60.4447 90.7287C59.5682 92.3271 58.82 93.978 58.1093 95.653C56.9458 98.3808 56.0552 101.206 55.4492 104.09C54.132 110.411 54.0297 116.904 55.1474 123.259C57.0821 134.403 63.4625 145.071 72.3327 152.242C73.1025 152.864 73.8911 153.465 74.687 154.055C75.0164 154.298 75.3486 154.538 75.6824 154.775C75.8401 154.888 76.4937 155.375 76.2062 155.139C76.8245 155.637 77.0847 155.888 77.2436 156.256C77.2666 156.34 77.2979 156.455 77.3404 156.613C77.4524 157.027 77.5587 157.44 77.647 157.86C78.4191 161.53 78.9557 165.261 79.6006 168.954C80.0439 171.492 83.35 173.144 85.739 172.383C88.5197 171.498 89.6992 169.063 89.2242 166.344Z" fill="#E6E6E6"/>
<path d="M132.101 175.862C130.005 175.868 127.993 175.087 126.506 173.692C125.018 172.297 124.177 170.401 124.167 168.421V163.042C118.207 163.672 97.7997 163.526 91.9499 162.638V168.206C91.9342 170.184 91.0914 172.077 89.6051 173.471C88.1189 174.865 86.1098 175.647 84.0157 175.647C81.9217 175.647 79.9125 174.865 78.4263 173.471C76.94 172.077 76.0972 170.184 76.0815 168.206V157.274C68.1585 153.114 61.5535 147.032 56.9483 139.656C52.343 132.279 49.9043 123.874 49.8838 115.309C49.8838 100.623 56.9269 86.9232 69.2073 77.7222C77.1919 71.7195 86.8931 68.1096 97.065 67.3559C98.4457 67.2536 99.8347 67.2018 101.194 67.2018C105.982 67.2018 127.585 67.9007 133.005 69.3743L145.364 57.7854C145.545 57.6127 145.777 57.4951 146.03 57.4475C146.283 57.3999 146.545 57.4245 146.783 57.5182C147.022 57.6083 147.228 57.7647 147.372 57.9671C147.515 58.1694 147.591 58.4081 147.589 58.6519V60.4944L149.995 58.2422C150.177 58.0693 150.409 57.9515 150.661 57.9038C150.914 57.8561 151.176 57.8807 151.413 57.9745C151.653 58.0646 151.859 58.2211 152.003 58.4235C152.147 58.6259 152.223 58.8647 152.22 59.1086V79.6992C158.422 84.9825 163.149 91.6299 165.981 99.0522C168.814 106.475 169.666 114.443 168.461 122.25C167.256 130.058 164.031 137.464 159.073 143.813C154.114 150.161 147.575 155.256 140.035 158.645V168.421C140.025 170.401 139.184 172.297 137.696 173.692C136.209 175.087 134.197 175.868 132.101 175.862ZM124.791 162.373V168.421C124.806 170.243 125.583 171.986 126.953 173.269C128.322 174.553 130.172 175.273 132.101 175.273C134.03 175.273 135.88 174.553 137.249 173.269C138.618 171.986 139.396 170.243 139.411 168.421V158.273L139.589 158.193C148.05 154.399 155.232 148.464 160.339 141.045C166.846 131.579 169.552 120.225 167.968 109.037C166.383 97.8483 160.613 87.5658 151.7 80.05L151.596 79.9621V59.1086C151.599 58.9819 151.56 58.8576 151.485 58.7524C151.41 58.6473 151.303 58.5663 151.178 58.5205C151.054 58.4702 150.916 58.4567 150.784 58.4816C150.651 58.5065 150.53 58.5686 150.435 58.6599L146.965 61.9079V58.6518C146.967 58.5251 146.928 58.4008 146.854 58.2957C146.779 58.1905 146.672 58.1096 146.547 58.0637C146.422 58.0136 146.284 58.0002 146.152 58.0252C146.019 58.0503 145.897 58.1126 145.803 58.2042L133.179 70.0412L133 69.9881C127.961 68.4978 106.018 67.7912 101.194 67.7912C99.8509 67.7912 98.4782 67.8424 97.114 67.9436C87.0657 68.688 77.4824 72.2542 69.5949 78.184C57.4646 87.2726 50.5075 100.804 50.5075 115.309C50.5282 123.798 52.9539 132.127 57.5325 139.431C62.1112 146.735 68.6758 152.747 76.5444 156.843L76.7052 156.927V168.206C76.7213 170.028 77.4986 171.77 78.8679 173.053C80.2371 174.337 82.0874 175.057 84.0157 175.057C85.9441 175.057 87.7943 174.337 89.1636 173.053C90.5328 171.77 91.3101 170.028 91.3262 168.206V161.932L91.6957 161.998C96.9526 162.933 119.088 163.08 124.438 162.417L124.791 162.373Z" fill="#3F3D56"/>
<path d="M89.8199 35.1059L55.2825 44.9142C54.184 45.2274 53.262 45.9399 52.719 46.8951C52.1761 47.8503 52.0566 48.9702 52.3868 50.0086C52.717 51.047 53.4699 51.9191 54.4801 52.4333C55.4904 52.9475 56.6753 53.0617 57.7745 52.7508L87.9985 44.1656L88.6317 43.9858C88.7598 40.9026 89.6449 37.8898 91.2171 35.1854C91.0198 35.1015 90.8089 35.0497 90.5934 35.0322C90.3329 35.0083 90.0701 35.0334 89.8199 35.1059Z" fill="#00E15D"/>
<path d="M57.1772 54.8429C56.7187 54.8418 56.2722 54.7046 55.9007 54.4507C55.5292 54.1968 55.2516 53.839 55.107 53.4278L52.9473 47.2693C52.8571 47.0122 52.8214 46.7407 52.8422 46.4705C52.863 46.2003 52.94 45.9366 53.0686 45.6944C53.1973 45.4523 53.3752 45.2365 53.5922 45.0594C53.8091 44.8823 54.0609 44.7472 54.333 44.662L82.4429 35.8587C82.7151 35.7734 83.0023 35.7397 83.2882 35.7593C83.5742 35.779 83.8532 35.8517 84.1094 35.9732C84.3656 36.0948 84.594 36.2629 84.7815 36.4678C84.9689 36.6728 85.1118 36.9107 85.202 37.1678L87.3617 43.3263C87.5414 43.8328 87.5054 44.3856 87.2613 44.8674C87.0172 45.3493 86.5842 45.7224 86.054 45.9078C86.028 45.9171 86.0018 45.9257 85.9753 45.9339L57.8661 54.7369C57.6439 54.8069 57.4113 54.8427 57.1772 54.8429Z" fill="#2F2E41"/>
<path d="M109.821 24.1699C104.147 24.172 98.6974 26.2601 94.6245 29.9924C90.5515 33.7246 88.1753 38.808 87.9985 44.1667C87.9923 44.376 87.9893 44.5882 87.9893 44.8004C87.9893 48.8807 89.2696 52.8694 91.6685 56.2621C94.0674 59.6547 97.477 62.299 101.466 63.8604C105.455 65.4219 109.845 65.8305 114.08 65.0344C118.315 64.2384 122.205 62.2736 125.258 59.3883C128.311 56.5031 130.39 52.8271 131.233 48.8252C132.075 44.8233 131.643 40.6752 129.99 36.9055C128.338 33.1357 125.54 29.9137 121.95 27.6468C118.359 25.3799 114.139 24.1699 109.821 24.1699ZM109.821 64.8414C104.198 64.8359 98.807 62.7226 94.8311 58.9654C90.8551 55.2082 88.6189 50.1139 88.613 44.8004C88.613 44.5263 88.6192 44.2552 88.6317 43.987C88.8006 40.0612 90.1869 36.269 92.6182 33.0818C95.0496 29.8946 98.4187 27.4532 102.307 26.0609C106.194 24.6687 110.43 24.3871 114.486 25.2513C118.541 26.1154 122.239 28.0871 125.119 30.9212C127.998 33.7553 129.933 37.3268 130.682 41.1916C131.43 45.0563 130.961 49.0438 129.33 52.6582C127.7 56.2726 124.982 59.3545 121.513 61.5206C118.044 63.6867 113.978 64.8415 109.821 64.8414Z" fill="#3F3D56"/>
<path d="M128.221 44.8006C128.221 49.4123 126.283 53.8351 122.832 57.0961C119.381 60.3571 114.701 62.1891 109.821 62.1891C104.941 62.1891 100.26 60.3571 96.8094 57.0961C93.3586 53.8351 91.4199 49.4123 91.4199 44.8006C91.4199 44.2495 91.4479 43.7072 91.5009 43.1708C91.9444 38.72 94.1847 34.6016 97.7569 31.6706C101.329 28.7397 105.958 27.2215 110.684 27.4313C115.409 27.641 119.868 29.5626 123.134 32.797C126.399 36.0314 128.221 40.3301 128.221 44.8006Z" fill="#E6E6E6"/>
<path d="M115.3 45.9558C114.854 45.4016 114.268 44.9627 113.594 44.6796C112.764 44.349 111.907 44.0828 111.031 43.8839V39.1507C112.377 39.3425 113.64 39.8867 114.677 40.7215L115.693 38.6732C115.109 38.1809 114.437 37.7889 113.71 37.515C112.903 37.2064 112.057 37.0012 111.193 36.9049V34.5059H108.838V36.9285C107.929 37.025 107.052 37.3033 106.265 37.7448C105.555 38.1423 104.956 38.6964 104.522 39.3599C104.107 40.0074 103.892 40.7516 103.901 41.5084C103.861 42.3286 104.112 43.1379 104.615 43.8073C105.079 44.3867 105.69 44.8452 106.393 45.1394C107.237 45.4798 108.109 45.7529 109 45.9558V50.4915C107.411 50.3783 105.897 49.8074 104.662 48.8558L103.646 50.9071C104.336 51.4466 105.121 51.8676 105.966 52.1508C106.891 52.4637 107.858 52.6541 108.838 52.7167V55.0951H111.193V52.6725C112.501 52.5374 113.727 52.006 114.689 51.1576C115.113 50.7737 115.447 50.311 115.672 49.7986C115.896 49.2862 116.005 48.7353 115.993 48.1809C116.032 47.3869 115.788 46.6034 115.3 45.9558ZM109 43.3829C108.427 43.2185 107.894 42.948 107.432 42.5871C107.249 42.4332 107.104 42.2429 107.008 42.0299C106.912 41.8169 106.867 41.5865 106.877 41.3552C106.86 40.8303 107.064 40.3204 107.444 39.9376C107.866 39.5359 108.41 39.269 109 39.1742V43.3829ZM112.509 49.6545C112.111 50.0401 111.593 50.2952 111.031 50.3825V46.4804C111.568 46.6167 112.071 46.8543 112.509 47.1789C112.675 47.3128 112.807 47.4805 112.895 47.6693C112.983 47.858 113.025 48.0632 113.017 48.2693C113.039 48.7751 112.857 49.27 112.509 49.6545Z" fill="#00E15D"/>
<path d="M58.1796 79.8021C57.6974 79.8013 57.229 79.6503 56.847 79.3723C56.465 79.0944 56.1906 78.7051 56.0666 78.2649L54.8908 74.0592C54.7436 73.5306 54.8243 72.9684 55.1152 72.4959C55.406 72.0234 55.8833 71.6793 56.4424 71.539L93.5373 62.276C94.0971 62.1379 94.6919 62.215 95.1917 62.4904C95.6915 62.7657 96.0555 63.2169 96.2042 63.7453L97.2003 67.3084L97.0136 67.3221C87.4999 68.0211 78.3972 71.2807 70.7824 76.7151L70.7283 76.7399L58.7334 79.7342C58.5527 79.7792 58.3665 79.8021 58.1796 79.8021Z" fill="#2F2E41"/>
<path d="M52.0363 100.576C47.6849 99.9688 43.5232 98.4818 39.835 96.2168C38.0078 95.0954 36.3162 93.788 34.7907 92.3181C33.285 90.8668 31.8446 89.2173 31.0988 87.2845C30.3812 85.4963 30.4182 83.516 31.2021 81.7528C31.9753 80.0005 33.4522 78.6093 35.3091 77.8844C37.1771 77.1805 39.4341 77.1052 41.2521 77.8761C42.1184 78.235 42.868 78.8052 43.4241 79.5283C43.6825 79.8616 43.8739 80.2371 43.9887 80.6359C44.0951 80.9973 44.1048 81.378 44.0169 81.7438C43.9102 82.109 43.7222 82.4484 43.4655 82.7393C43.2087 83.0302 42.889 83.2659 42.528 83.4305C41.7334 83.8157 40.8724 84.0638 39.9855 84.1632C39.0935 84.2782 37.8121 84.3827 37.095 83.7061C36.9474 83.5722 36.8313 83.4105 36.7543 83.2314C36.7004 83.0942 36.6819 82.9469 36.7005 82.8016C36.6901 82.8657 36.7438 82.6624 36.7407 82.6705C36.7294 82.7006 36.6803 82.7738 36.7501 82.6613C36.7719 82.6242 36.7962 82.5885 36.8228 82.5543C36.7991 82.5833 36.747 82.6316 36.84 82.5487C36.9168 82.4692 37.0156 82.4116 37.1251 82.3823C37.1683 82.3705 37.2121 82.361 37.2554 82.3498C37.3654 82.3214 37.1457 82.3514 37.2583 82.348C37.3017 82.3466 37.3457 82.3477 37.389 82.3458C37.4994 82.3411 37.28 82.3174 37.3858 82.3425C37.4269 82.3523 37.4676 82.3618 37.5081 82.3738C37.5961 82.4 37.4458 82.3129 37.5054 82.3781C37.5753 82.4546 37.4321 82.3037 37.5115 82.3778C37.551 82.4144 37.5882 82.4532 37.623 82.494C37.7607 82.6224 37.9464 82.6945 38.1399 82.6945C38.3335 82.6945 38.5192 82.6224 38.6569 82.494C38.7899 82.3624 38.8641 82.1874 38.8641 82.0055C38.8641 81.8235 38.7899 81.6485 38.6569 81.517C37.936 80.6725 36.5121 80.8811 35.7828 81.5949C34.8528 82.5051 35.2211 83.9477 36.1258 84.7419C37.1499 85.641 38.6003 85.7035 39.9177 85.5527C41.031 85.4519 42.1159 85.1622 43.1204 84.6974C44.1185 84.234 44.899 83.4371 45.311 82.4611C45.497 81.9401 45.5638 81.3878 45.507 80.8407C45.4502 80.2936 45.2711 79.7641 44.9816 79.2872C43.8185 77.2209 41.4101 76.1615 39.0296 75.978C37.804 75.8873 36.5715 76.0271 35.4035 76.3895C34.2354 76.7519 33.155 77.3295 32.2248 78.089C30.4318 79.6144 29.3277 81.7326 29.1409 84.0055C28.9331 86.3621 29.9006 88.6507 31.3113 90.5526C32.7881 92.4849 34.5504 94.2072 36.5444 95.6669C40.4427 98.608 45.0154 100.646 49.8965 101.618C50.4771 101.731 51.0608 101.828 51.6476 101.909C51.8344 101.951 52.0313 101.925 52.1984 101.836C52.3655 101.746 52.4901 101.6 52.5469 101.426C52.597 101.249 52.5716 101.061 52.476 100.902C52.3805 100.743 52.2225 100.626 52.0363 100.576L52.0363 100.576Z" fill="#3F3D56"/>
<path d="M121.705 70.5501C115.329 70.4651 108.974 70.618 102.639 71.0088C100.473 71.1424 98.5996 71.8657 98.5996 73.0813C98.5996 74.0977 100.458 75.2883 102.639 75.1538C108.971 74.763 115.326 74.6101 121.705 74.6951C126.905 74.7645 126.902 70.6194 121.705 70.5501Z" fill="#CCCCCC"/>
<path d="M112.282 74.4907C111.593 74.4907 95.4077 74.4664 95.4077 72.3537C95.4077 70.2411 111.593 70.2168 112.282 70.2168C112.971 70.2168 129.156 70.2411 129.156 72.3537C129.156 74.4664 112.971 74.4907 112.282 74.4907ZM96.0406 72.3537C96.4835 72.9942 102.433 73.9013 112.282 73.9013C122.131 73.9013 128.081 72.9942 128.524 72.3537C128.081 71.7133 122.131 70.8062 112.282 70.8062C102.433 70.8062 96.4835 71.7133 96.0406 72.3537V72.3537Z" fill="#3F3D56"/>
<path d="M163.634 130.032C167.217 129.938 171.676 129.82 175.111 127.449C176.134 126.714 176.974 125.776 177.574 124.702C178.173 123.627 178.516 122.442 178.579 121.229C178.649 119.356 177.933 117.722 176.563 116.627C174.769 115.195 172.149 114.859 169.325 115.643L172.251 95.4402L170.103 95.1621L166.664 118.913L168.457 118.135C170.536 117.234 173.39 116.775 175.164 118.192C175.599 118.562 175.939 119.022 176.155 119.536C176.372 120.051 176.46 120.605 176.413 121.157C176.361 122.06 176.103 122.941 175.657 123.742C175.212 124.542 174.59 125.242 173.832 125.794C171.159 127.64 167.605 127.878 163.573 127.984L163.634 130.032Z" fill="#3F3D56"/>
<path d="M157.696 97.1816H146.022V99.23H157.696V97.1816Z" fill="#3F3D56"/>
<path d="M63.4626 89.2234C62.943 89.2218 62.4409 89.0454 62.0463 88.7259C61.6518 88.4063 61.3905 87.9644 61.3094 87.4794L60.5968 83.1819C60.5078 82.6414 60.6493 82.0896 60.9903 81.6476C61.3313 81.2056 61.844 80.9095 62.4157 80.8243L100.319 75.2121C100.891 75.128 101.474 75.2617 101.942 75.584C102.41 75.9062 102.723 76.3906 102.813 76.9309L103.526 81.2285C103.615 81.769 103.473 82.3208 103.132 82.7628C102.791 83.2048 102.279 83.5009 101.707 83.5861L63.8041 89.1982C63.6912 89.2149 63.577 89.2233 63.4626 89.2234Z" fill="#2F2E41"/>
<path d="M47.7764 38.8604C56.5609 38.8604 63.6821 32.1309 63.6821 23.8296C63.6821 15.5283 56.5609 8.79883 47.7764 8.79883C38.9919 8.79883 31.8706 15.5283 31.8706 23.8296C31.8706 32.1309 38.9919 38.8604 47.7764 38.8604Z" fill="#00E15D"/>
<path d="M56.7818 27.7188C57.2901 27.5508 57.7545 27.2819 58.1437 26.9301C58.4012 26.6793 58.5976 26.3784 58.719 26.0483C58.8405 25.7183 58.8841 25.3671 58.8469 25.0194C58.8253 24.7716 58.7433 24.5319 58.6074 24.319C58.4715 24.1061 58.2853 23.9258 58.0634 23.7922C57.4878 23.4577 56.7272 23.4703 55.9592 23.8067L55.8706 17.9395L55.2469 17.9478L55.3511 24.8454L55.8259 24.5512C56.3764 24.2105 57.1675 23.9635 57.7366 24.2943C57.8774 24.3819 57.9949 24.499 58.08 24.6364C58.165 24.7739 58.2154 24.9281 58.2272 25.087C58.2534 25.346 58.2203 25.6073 58.1301 25.8531C58.0399 26.0989 57.8947 26.3235 57.7044 26.5115C57.0283 27.1455 56.0275 27.3579 54.8853 27.5522L54.9958 28.1323C55.603 28.0452 56.2007 27.9068 56.7818 27.7188Z" fill="#2F2E41"/>
<path d="M62.2933 17.5266L58.9717 18.002L59.0651 18.5847L62.3867 18.1093L62.2933 17.5266Z" fill="#2F2E41"/>
<path d="M51.8094 19.0285L48.4878 19.5039L48.5812 20.0866L51.9027 19.6113L51.8094 19.0285Z" fill="#2F2E41"/>
<path d="M58.2876 88.9605C57.7156 88.9593 57.1575 88.7936 56.6876 88.4854C56.2177 88.1771 55.8582 87.7409 55.6571 87.2349L44.6905 59.4814C43.3501 56.0776 43.4933 52.3103 45.0885 49.0061C46.6838 45.7019 49.6009 43.1306 53.1998 41.8564L62.1169 38.7099C62.4618 38.5874 62.8288 38.5305 63.1969 38.5426C63.5651 38.5547 63.9271 38.6354 64.2621 38.7802C64.5962 38.9213 64.8973 39.1239 65.1477 39.3762C65.398 39.6285 65.5927 39.9255 65.7202 40.2497L86.0348 76.4956C86.1667 76.8224 86.2289 77.1707 86.2178 77.5203C86.2067 77.87 86.1226 78.2141 85.9702 78.5329C85.8178 78.8517 85.6003 79.1388 85.33 79.3779C85.0597 79.6169 84.7421 79.803 84.3954 79.9256L59.2686 88.792C58.9549 88.9032 58.6226 88.9602 58.2876 88.9605Z" fill="#2F2E41"/>
<path d="M59.4116 39.6646L79.5679 65.1361L65.929 39.932C65.8164 39.6379 65.6436 39.3677 65.4204 39.1367C65.1972 38.9058 64.9281 38.7187 64.6283 38.586C64.3286 38.4534 64.0042 38.3779 63.6735 38.3638C63.3429 38.3496 63.0126 38.3972 62.7014 38.5038L59.4116 39.6646Z" fill="#E6E6E6"/>
<path d="M91.3267 59.0079L55.3376 56.8172C54.7703 56.7827 54.2158 56.6429 53.7057 56.4058C53.1955 56.1688 52.7398 55.8391 52.3645 55.4357C51.9893 55.0322 51.7017 54.5628 51.5184 54.0543C51.3351 53.5459 51.2595 53.0082 51.2961 52.4722C51.3326 51.9361 51.4805 51.4121 51.7314 50.93C51.9822 50.448 52.3311 50.0173 52.758 49.6627C53.185 49.308 53.6817 49.0363 54.2198 48.8631C54.7578 48.6899 55.3268 48.6185 55.894 48.653L91.8832 50.8435C92.1489 50.8597 92.4086 50.9251 92.6475 51.0361C92.8864 51.1471 93.0998 51.3015 93.2756 51.4904C93.4513 51.6794 93.586 51.8992 93.6718 52.1373C93.7577 52.3755 93.7931 52.6273 93.776 52.8783L93.4801 57.2193C93.4455 57.7263 93.1992 58.1996 92.7954 58.535C92.3916 58.8704 91.8633 59.0405 91.3267 59.0079Z" fill="#00E15D"/>
<path d="M81.7098 60.4136C81.6623 60.4136 81.6147 60.4122 81.5669 60.4093H81.5668L52.0145 58.6105C51.7284 58.5931 51.4487 58.5226 51.1915 58.4031C50.9342 58.2835 50.7043 58.1173 50.5151 57.9138C50.3258 57.7103 50.1808 57.4736 50.0883 57.2171C49.9959 56.9607 49.9578 56.6896 49.9762 56.4192L50.4816 49.0045C50.5 48.7342 50.5746 48.4699 50.7011 48.2268C50.8276 47.9836 51.0036 47.7665 51.219 47.5876C51.4343 47.4088 51.6848 47.2717 51.9562 47.1844C52.2276 47.097 52.5146 47.0611 52.8007 47.0785L82.3529 48.8772C82.9305 48.9129 83.4694 49.1637 83.8515 49.5745C84.2337 49.9853 84.4277 50.5226 84.3912 51.0684L83.8859 58.4832C83.8581 58.8805 83.7095 59.2618 83.458 59.5813C83.2065 59.9007 82.8627 60.1448 82.4681 60.2842C82.2256 60.3699 81.9687 60.4138 81.7098 60.4136Z" fill="#2F2E41"/>
<path d="M47.5938 13.8343C49.6862 12.1337 52.5597 13.655 54.9593 13.3887C57.2551 13.1339 59.0679 11.1879 59.531 9.12046C60.0713 6.70847 58.7464 4.292 56.7937 2.78816C54.6551 1.14109 51.8186 0.668254 49.1308 0.972975C46.0502 1.32222 43.2328 2.67922 40.7048 4.32057C38.2646 5.85581 36.0207 7.6527 34.0176 9.67541C32.224 11.5474 30.7043 13.7787 30.219 16.2977C29.778 18.587 30.1148 21.1238 31.5468 23.0631C32.3062 24.0571 33.3239 24.8493 34.5016 25.3635C35.7296 25.9333 37.0396 26.3406 38.2292 26.9849C40.0281 27.9591 41.7764 29.9789 41.2129 32.0809C41.0921 32.5401 40.8537 32.9642 40.5187 33.3158C40.1161 33.7381 39.3901 33.1801 39.7937 32.7567C40.5025 32.0131 40.4746 31.0214 40.0968 30.1336C39.6476 29.1332 38.8522 28.3066 37.8409 27.7893C36.5955 27.1165 35.2206 26.7012 33.9443 26.0883C32.7226 25.5285 31.6621 24.698 30.8531 23.6675C29.3255 21.6614 28.8685 19.0505 29.215 16.6352C29.5899 14.0215 31.011 11.6464 32.7924 9.65606C34.7311 7.49003 37.1125 5.65654 39.5453 4.0094C42.1558 2.242 45.0398 0.747792 48.2312 0.20736C50.9976 -0.261111 53.9961 0.0273091 56.4152 1.45195C58.6733 2.78175 60.4049 5.06928 60.5771 7.62538C60.6389 8.78839 60.3717 9.94597 59.8029 10.979C59.2341 12.012 58.3843 12.8831 57.341 13.5027C56.2704 14.1081 55.0257 14.3806 53.7824 14.2818C52.4533 14.2014 51.123 13.8168 49.7854 13.9235C49.1801 13.9583 48.6033 14.1785 48.1424 14.5508C47.6852 14.9224 47.1404 14.2029 47.5938 13.8344V13.8343Z" fill="#2F2E41"/>
<path d="M230.629 176.001H0.37125C0.272949 176 0.178774 175.963 0.109365 175.898C0.0399558 175.832 0.000976562 175.743 0.000976562 175.65C0.000976562 175.557 0.0399558 175.468 0.109365 175.402C0.178774 175.336 0.272949 175.299 0.37125 175.299H230.629C230.727 175.299 230.821 175.336 230.891 175.402C230.961 175.467 231 175.557 231 175.65C231 175.743 230.961 175.832 230.891 175.898C230.821 175.964 230.727 176.001 230.629 176.001Z" fill="#3F3D56"/>
</g>
<defs>
<clipPath id="clip0">
<rect width="231" height="176" fill="white"/>
</clipPath>
</defs>
</svg>
