<svg xmlns="http://www.w3.org/2000/svg" xmlns:xlink="http://www.w3.org/1999/xlink" width="442.08" height="305.867" viewBox="0 0 442.08 305.867"><defs><style>.a{fill:none;}.b{fill:#311b58;}.c{fill:#f7296e;}.d{fill:#b395e8;}.e{clip-path:url(#a);}.f{clip-path:url(#b);}.g{clip-path:url(#c);}.h{clip-path:url(#e);}.i{clip-path:url(#g);}.j{clip-path:url(#i);}.k{clip-path:url(#k);}.l{clip-path:url(#m);}.m{clip-path:url(#o);}.n{clip-path:url(#q);}.o{clip-path:url(#s);}.p{clip-path:url(#u);}.q{fill:#91a7f6;}.r{clip-path:url(#w);}.s{clip-path:url(#y);}.t{clip-path:url(#aa);}.u{clip-path:url(#ac);}.v{clip-path:url(#ae);}.w{fill:#ff8383;}.x{clip-path:url(#ag);}.y{clip-path:url(#ai);}.z{clip-path:url(#ak);}.aa{clip-path:url(#am);}.ab{clip-path:url(#ao);}.ac{clip-path:url(#aq);}.ad{fill:#d05e78;}.ae{clip-path:url(#as);}.af{clip-path:url(#au);}.ag{clip-path:url(#aw);}.ah{clip-path:url(#ay);}.ai{clip-path:url(#ba);}.aj{clip-path:url(#bc);}.ak{fill:#86284e;}.al{clip-path:url(#be);}.am{clip-path:url(#bg);}.an{clip-path:url(#bi);}.ao{clip-path:url(#bk);}.ap{clip-path:url(#bm);}.aq{clip-path:url(#bo);}.ar{fill:#fa8eb3;}.as{clip-path:url(#bq);}.at{clip-path:url(#bs);}.au{clip-path:url(#bu);}.av{clip-path:url(#bw);}.aw{clip-path:url(#by);}.ax{clip-path:url(#ca);}.ay{clip-path:url(#cc);}.az{clip-path:url(#cd);}.ba{clip-path:url(#ce);}.bb{clip-path:url(#cg);}.bc{fill:#c90547;}.bd{clip-path:url(#ci);}.be{clip-path:url(#ck);}.bf{clip-path:url(#cm);}.bg{clip-path:url(#co);}.bh{clip-path:url(#cq);}.bi{clip-path:url(#cs);}.bj{clip-path:url(#cu);}.bk{clip-path:url(#cv);}.bl{clip-path:url(#cw);}.bm{clip-path:url(#cy);}.bn{clip-path:url(#da);}.bo{clip-path:url(#dc);}.bp{clip-path:url(#de);}.bq{clip-path:url(#dg);}.br{clip-path:url(#di);}.bs{fill:#fff;}.bt{clip-path:url(#dk);}.bu{clip-path:url(#dm);}.bv{clip-path:url(#do);}.bw{clip-path:url(#dq);}.bx{clip-path:url(#ds);}.by{clip-path:url(#du);}.bz{clip-path:url(#dw);}.ca{clip-path:url(#dy);}.cb{clip-path:url(#ea);}.cc{clip-path:url(#ec);}.cd{clip-path:url(#ee);}.ce{clip-path:url(#eg);}.cf{clip-path:url(#ei);}.cg{clip-path:url(#ek);}.ch{clip-path:url(#em);}.ci{clip-path:url(#eo);}.cj{clip-path:url(#ep);}.ck{clip-path:url(#eq);}.cl{fill:#fb9aba;}.cm{clip-path:url(#es);}.cn{clip-path:url(#eu);}.co{clip-path:url(#ew);}.cp{clip-path:url(#ey);}.cq{clip-path:url(#fa);}.cr{clip-path:url(#fc);}.cs{clip-path:url(#fe);}</style><clipPath id="a"><path class="a" d="M437.61-188.62a4,4,0,0,1-1.58,3.115,3.622,3.622,0,0,1-2.28.745,3.86,3.86,0,0,1-3.86-3.86,3.86,3.86,0,0,1,3.86-3.86,3.86,3.86,0,0,1,3.86,3.86Zm-1.91,0a1.95,1.95,0,0,0-1.966-1.9,1.95,1.95,0,0,0-1.933,1.933,1.95,1.95,0,0,0,1.9,1.966,1.94,1.94,0,0,0,1.433-.567,1.94,1.94,0,0,0,.567-1.433Z"/></clipPath><clipPath id="b"><path class="a" d="M-595,220H685V-533H-595Z"/></clipPath><clipPath id="c"><path class="a" d="M148-266a1,1,0,0,0-.95,1v2.21a1,1,0,0,0,.371,1.108,1,1,0,0,0,1.169,0,1,1,0,0,0,.371-1.108V-265A1,1,0,0,0,148-266Z"/></clipPath><clipPath id="e"><path class="a" d="M145.5-268.18h-2.22a1,1,0,0,0-.7.955,1,1,0,0,0,.7.955h2.22a1,1,0,0,0,1.108-.371,1,1,0,0,0,0-1.169A1,1,0,0,0,145.5-268.18Z"/></clipPath><clipPath id="g"><path class="a" d="M148-272.78a1,1,0,0,0-.95,1v2.21a1,1,0,0,0,.371,1.108,1,1,0,0,0,1.169,0,1,1,0,0,0,.371-1.108v-2.21A1,1,0,0,0,148-272.78Z"/></clipPath><clipPath id="i"><path class="a" d="M152.72-268.34H150.5a1,1,0,0,0-.72.96,1,1,0,0,0,.72.96h2.22a1,1,0,0,0,.72-.96,1,1,0,0,0-.72-.96Z"/></clipPath><clipPath id="k"><path class="a" d="M388.4-327.92a.94.94,0,0,0-.693.293.94.94,0,0,0-.257.707v2.22a1,1,0,0,0,.955.7,1,1,0,0,0,.955-.7V-327A1,1,0,0,0,388.4-327.92Z"/></clipPath><clipPath id="m"><path class="a" d="M385.9-330.15h-2.22a1,1,0,0,0-.7.955,1,1,0,0,0,.7.955h2.22a1,1,0,0,0,1.108-.371,1,1,0,0,0,0-1.169A1,1,0,0,0,385.9-330.15Z"/></clipPath><clipPath id="o"><path class="a" d="M388.4-334.74a1,1,0,0,0-.95.95v2.22a1,1,0,0,0,.371,1.108,1,1,0,0,0,1.169,0,1,1,0,0,0,.371-1.108v-2.22A1,1,0,0,0,388.4-334.74Z"/></clipPath><clipPath id="q"><path class="a" d="M393.12-330.3H390.9a1,1,0,0,0-.7.955,1,1,0,0,0,.7.955h2.22a1,1,0,0,0,1.108-.371,1,1,0,0,0,0-1.169A1,1,0,0,0,393.12-330.3Z"/></clipPath><clipPath id="s"><path class="b" d="M504.51-94.36s1.3,9.31-9.57,9.09c0,0,9.34.1,9.09,8.83,0,0,.84-6.87,9.42-8.41C513.45-84.85,506.2-83.18,504.51-94.36Z"/></clipPath><clipPath id="u"><path class="a" d="M344.94-253.93s.45,3.24-3.33,3.17c0,0,3.25,0,3.16,3.08a3.7,3.7,0,0,1,3.29-2.93S345.53-250,344.94-253.93Z"/></clipPath><clipPath id="w"><path class="a" d="M312.56-111s.46,3.25-3.33,3.17c0,0,3.25,0,3.17,3.08a3.69,3.69,0,0,1,3.28-2.93S313.15-107.09,312.56-111Z"/></clipPath><clipPath id="y"><path class="a" d="M233.69-288.65H212.48a4.921,4.921,0,0,1-5-4.84,4.921,4.921,0,0,1,4.84-5,7.62,7.62,0,0,1,5.525-7.163,7.62,7.62,0,0,1,8.475,3.163,5.52,5.52,0,0,1,6.13,4h1.24a4.92,4.92,0,0,1,4.92,4.92,4.92,4.92,0,0,1-4.92,4.92ZM212.48-297a3.47,3.47,0,0,0-3.16,1.677,3.47,3.47,0,0,0,0,3.577,3.47,3.47,0,0,0,3.16,1.676h21.21a3.47,3.47,0,0,0,3.16-1.676,3.47,3.47,0,0,0,0-3.577A3.47,3.47,0,0,0,233.69-297h-2.45l-.09-.61a4.07,4.07,0,0,0-1.76-2.78,4.07,4.07,0,0,0-3.24-.57l-.54.13-.27-.49a6.16,6.16,0,0,0-6.93-2.962,6.16,6.16,0,0,0-4.61,5.962v.53l.07.79Z"/></clipPath><clipPath id="aa"><path class="a" d="M300.13-16.71h0A17.14,17.14,0,0,1,279-28.54L265.39-76.61a17.15,17.15,0,0,1,11.83-21.17h0a17.15,17.15,0,0,1,21.17,11.83L312-37.87a17.14,17.14,0,0,1-1.547,13.042A17.14,17.14,0,0,1,300.13-16.71Z"/></clipPath><clipPath id="ac"><path class="a" d="M280.72-17.11h0a17.15,17.15,0,0,1-.24-24.25l35-35.67a17.14,17.14,0,0,1,12.07-5.141,17.14,17.14,0,0,1,12.17,4.9h0a17.15,17.15,0,0,1,5.172,12.077A17.15,17.15,0,0,1,340-53L305-17.33a17.14,17.14,0,0,1-12.094,5.151A17.14,17.14,0,0,1,280.72-17.11Z"/></clipPath><clipPath id="ae"><path class="a" d="M350.34-85.62a15,15,0,0,1-4.193,20.784,15,15,0,0,1-20.788-4.172A15,15,0,0,1,329.51-89.8a15,15,0,0,1,11.283-2.233A15,15,0,0,1,350.34-85.62Z"/></clipPath><clipPath id="ag"><path class="a" d="M327.77-79.46h0A3.92,3.92,0,0,1,323-82.27l-1.33-5.17a3.91,3.91,0,0,1,.419-2.971,3.91,3.91,0,0,1,2.4-1.8h0a3.91,3.91,0,0,1,4.76,2.81l1.34,5.17a3.93,3.93,0,0,1-2.82,4.77Z"/></clipPath><clipPath id="ai"><path class="a" d="M342.84-97.26l-5.32,13.48a4.07,4.07,0,0,1-5.28,2.28h0a4.06,4.06,0,0,1-2.231-2.163,4.06,4.06,0,0,1-.049-3.107l5.32-13.47a4.06,4.06,0,0,1,2.16-2.238,4.06,4.06,0,0,1,3.11-.052h0a4.06,4.06,0,0,1,2.238,2.16,4.06,4.06,0,0,1,.052,3.11Z"/></clipPath><clipPath id="ak"><path class="a" d="M352.22-94.43l-6.43,13a4.06,4.06,0,0,1-2.339,2.047,4.06,4.06,0,0,1-3.1-.207h0a4.07,4.07,0,0,1-1.84-5.45l6.43-13a4.06,4.06,0,0,1,2.339-2.047,4.06,4.06,0,0,1,3.1.207h0a4.07,4.07,0,0,1,1.84,5.45Z"/></clipPath><clipPath id="am"><path class="a" d="M359.2-87.2l-9,11.37a4.07,4.07,0,0,1-5.71.67h0a4.07,4.07,0,0,1-.67-5.71l9-11.37a4.07,4.07,0,0,1,5.71-.67h0A4.07,4.07,0,0,1,359.2-87.2Z"/></clipPath><clipPath id="ao"><path class="a" d="M251.609-153.227l19.985.785-1.217,30.976a7.1,7.1,0,0,1-2.275,4.935,7.1,7.1,0,0,1-5.1,1.881l-5.826-.229a7.1,7.1,0,0,1-4.935-2.275,7.1,7.1,0,0,1-1.881-5.1l1.217-30.976Z"/></clipPath><clipPath id="aq"><path class="a" d="M271.61-153.51l-20-.79-.31,7.86c-.3,7.7,6,14.46,13.66,13.91q.72-.06,1.44-.18a14.11,14.11,0,0,0,4.47-1.64Z"/></clipPath><clipPath id="as"><path class="a" d="M264.172-155.757c13.264-3.753,21.674-15.076,18.784-25.29s-15.986-15.451-29.25-11.7-21.674,15.076-18.784,25.29S250.908-152,264.172-155.757Z"/></clipPath><clipPath id="au"><path class="a" d="M276.843-160.956c12.071-2.05,20.775-10.082,19.441-17.939s-12.2-12.564-24.273-10.514-20.775,10.082-19.44,17.939S264.772-158.906,276.843-160.956Z"/></clipPath><clipPath id="aw"><path class="a" d="M271.888-172.5c8.991-8.311,11.895-19.793,6.485-25.645S261.289-202,252.3-193.69,240.4-173.9,245.813-168.045,262.9-164.186,271.888-172.5Z"/></clipPath><clipPath id="ay"><path class="a" d="M283.2-158.48c2,11-3.81,21.31-12.9,22.93h0c-9.1,1.63-18.07-6-20-17.05l-1.55-8.69c-2-11,3.81-21.3,12.9-22.93h0c9.1-1.62,18.07,6,20,17.06Z"/></clipPath><clipPath id="ba"><path class="a" d="M263.77-185.53c-5-4.55-13.79-2.35-19.56,4.92s-6.37,16.86-1.33,21.41,13.78,2.35,19.55-4.92S268.8-181,263.77-185.53Z"/></clipPath><clipPath id="bc"><path class="a" d="M267.09-160.93a.91.91,0,0,1-.873-.638.91.91,0,0,1,.353-1.022,5.91,5.91,0,0,1,6.09-.26.914.914,0,0,1,.33,1.25.914.914,0,0,1-1.25.33,4.09,4.09,0,0,0-4.14.18.86.86,0,0,1-.51.16Z"/></clipPath><clipPath id="be"><path class="a" d="M282.87-160.93a.91.91,0,0,1-.52-.16h0a4.06,4.06,0,0,0-4.13-.18.9.9,0,0,1-.695.1.9.9,0,0,1-.555-.43.91.91,0,0,1-.1-.691.91.91,0,0,1,.42-.559,5.9,5.9,0,0,1,6.1.26.91.91,0,0,1,.353,1.022.91.91,0,0,1-.873.638Z"/></clipPath><clipPath id="bg"><path class="a" d="M271.22-158.47a1,1,0,0,1-.638.929,1,1,0,0,1-1.1-.255,1,1,0,0,1-.163-1.115,1,1,0,0,1,.979-.559A1,1,0,0,1,271.22-158.47Z"/></clipPath><clipPath id="bi"><path class="a" d="M280.37-158.11a1,1,0,0,1-.638.929,1,1,0,0,1-1.1-.255,1,1,0,0,1-.163-1.115,1,1,0,0,1,.979-.559A1,1,0,0,1,280.37-158.11Z"/></clipPath><clipPath id="bk"><path class="a" d="M282.59-151.47h-.3a7.27,7.27,0,0,1-7.12-7.344,7.27,7.27,0,0,1,7.27-7.195,7.27,7.27,0,0,1,7.27,7.195A7.27,7.27,0,0,1,282.59-151.47Zm0-13.74a6.25,6.25,0,0,0-6.23,6,6.24,6.24,0,0,0,1.657,4.484,6.24,6.24,0,0,0,4.343,2,6.31,6.31,0,0,0,4.48-1.66,6.23,6.23,0,0,0,1.624-6.746,6.23,6.23,0,0,0-5.624-4.064Z"/></clipPath><clipPath id="bm"><path class="a" d="M266.47-151.18h-.34a8.43,8.43,0,0,1-7.573-5.506,8.43,8.43,0,0,1,2.183-9.1,8.26,8.26,0,0,1,6.05-2.23,8.43,8.43,0,0,1,8.026,8.581,8.43,8.43,0,0,1-8.346,8.27Zm0-15.43a7,7,0,0,0-7,6.73h0a7,7,0,0,0,1.854,5.027,7,7,0,0,0,4.866,2.243,7.005,7.005,0,0,0,7.275-6.725,7.005,7.005,0,0,0-6.725-7.275Z"/></clipPath><clipPath id="bo"><path class="a" d="M273.43-158.29l3.1.12a.66.66,0,0,0,.68-.63h0a.66.66,0,0,0-.63-.68l-3.1-.12a.65.65,0,0,0-.466.176.65.65,0,0,0-.2.454h0a.65.65,0,0,0,.169.469.65.65,0,0,0,.451.211Z"/></clipPath><clipPath id="bq"><path class="a" d="M279-148a4.78,4.78,0,0,1-5.14,4.38c-2.74-.11-4.32-2.82-4.22-5.35A23.79,23.79,0,0,1,279-148Z"/></clipPath><clipPath id="bs"><path class="a" d="M276.78-2,224.45-.53a15.81,15.81,0,0,1-15.17-16.42l3.3-87.57a10.88,10.88,0,0,1,7.58-9.94l39-12.43,31.18,14.95a10.86,10.86,0,0,1,6.17,10.24l-3.32,84.52A15.81,15.81,0,0,1,276.78-2Z"/></clipPath><clipPath id="bu"><path class="a" d="M296.52-101.69c.18,9.13.08,18.26-.07,27.37-.059,3.562-.14,7.126-.245,10.98-.143,5.262-.33,10.816-.525,16.37q-.48,13.68-1.38,27.32a24,24,0,0,1-1.08,7A15.87,15.87,0,0,1,276.78-2a15.88,15.88,0,0,0,11.77-5.53,14.8,14.8,0,0,0,3.1-5.67,22.9,22.9,0,0,0,.65-6.54c.12-9.12.44-18.24.77-27.35s.78-18.21,1.38-27.32S295.63-92.6,296.52-101.69Z"/></clipPath><clipPath id="bw"><path class="a" d="M250.361-132.454l20.687,1.334a3.79,3.79,0,0,1,2.6,1.28,3.791,3.791,0,0,1,.935,2.746L273.5-110.308l-28.241-1.821,1.081-16.765a3.79,3.79,0,0,1,4.026-3.538Z"/></clipPath><clipPath id="by"><path class="a" d="M189.35-27.66h0a17.16,17.16,0,0,1-9.26-22.41l19.17-46.14a17.14,17.14,0,0,1,9.286-9.273,17.14,17.14,0,0,1,13.124.013h0a17.14,17.14,0,0,1,9.267,9.289,17.139,17.139,0,0,1-.017,13.121L211.76-36.92A17.15,17.15,0,0,1,189.35-27.66Z"/></clipPath><clipPath id="ca"><path class="a" d="M221.67-105.47a16.9,16.9,0,0,1,7.92,5.56,17.73,17.73,0,0,1,3.6,9.26c.45,3.36-.63,6.93-1.86,9.82l-1.508,3.712-2.112,5.2c-2.48,5.9-5,11.81-7.65,17.63l-4,8.74c-1.43,2.87-2.78,5.78-4.28,8.63.95-3.07,2.07-6.08,3.09-9.12l3.35-9c2.24-6,4.67-11.94,7.1-17.86l3.75-8.85a25.417,25.417,0,0,0,1.62-4.31,16.3,16.3,0,0,0,.52-4.46,17.41,17.41,0,0,0-9.54-14.95Z"/></clipPath><clipPath id="cc"><path class="c" d="M269.15-51.85l-8.74-.56a6,6,0,0,1-5.55-6.32l.26-3.93a5.94,5.94,0,0,1,2.005-4.083,5.94,5.94,0,0,1,4.3-1.467l8.73.56Zm-8-12.45a2,2,0,0,0-1.473.492,2,2,0,0,0-.677,1.4l-.26,3.94a2,2,0,0,0,.5,1.477,2,2,0,0,0,1.4.673l4.82.31.51-8Z"/></clipPath><clipPath id="cd"><path class="c" d="M-595,220H685V-533H-595Z"/></clipPath><clipPath id="ce"><path class="c" d="M277.63-39.29l-7.55-.49a8.31,8.31,0,0,1-5.713-2.811,8.31,8.31,0,0,1-2.047-6.029l1.56-24.27c.18-2.71,24.33-1.15,24.16,1.56l-1.57,24.27a8.31,8.31,0,0,1-2.807,5.72,8.31,8.31,0,0,1-6.033,2.05Z"/></clipPath><clipPath id="cg"><path class="c" d="M285.63-70.67c-.06,1-4.55,1.48-10,1.12s-9.86-1.43-9.79-2.4,4.54-1.48,10-1.13S285.69-71.65,285.63-70.67Z"/></clipPath><clipPath id="ci"><path class="a" d="M179.85-43.08h0a17.14,17.14,0,0,1,5.21-12.041,17.14,17.14,0,0,1,12.2-4.829l50,.79A17.14,17.14,0,0,1,259.3-53.95a17.14,17.14,0,0,1,4.829,12.2h0a17.14,17.14,0,0,1-5.211,12.041,17.14,17.14,0,0,1-12.2,4.829l-50-.79a17.14,17.14,0,0,1-12.041-5.211A17.14,17.14,0,0,1,179.85-43.08Z"/></clipPath><clipPath id="ck"><path class="a" d="M197.26-59.95c6.42-.44,12.83-.59,19.24-.7s12.82-.07,19.22,0l9.61.22c3.14,0,6.85.45,9.75,2.2a17.74,17.74,0,0,1,7.06,7,16.82,16.82,0,0,1,1.95,9.48,17.41,17.41,0,0,0-9.91-14.68,16.73,16.73,0,0,0-4.29-1.3,25.459,25.459,0,0,0-4.6-.23l-9.61-.08c-6.41-.13-12.81-.27-19.21-.61S203.66-59.31,197.26-59.95Z"/></clipPath><clipPath id="cm"><path class="a" d="M277.935-35.952a15.02,15.02,0,0,0-1.969-21.15,15.02,15.02,0,0,0-21.15,1.969,15.02,15.02,0,0,0,1.969,21.15A15.02,15.02,0,0,0,277.935-35.952Z"/></clipPath><clipPath id="co"><path class="a" d="M258.61-52.69h0a3.59,3.59,0,0,1-2.057-1.825,3.59,3.59,0,0,1-.163-2.745l1.6-4.63a3.59,3.59,0,0,1,1.825-2.057,3.59,3.59,0,0,1,2.745-.163h0a3.59,3.59,0,0,1,2.057,1.825,3.59,3.59,0,0,1,.163,2.745l-1.6,4.62A3.6,3.6,0,0,1,258.61-52.69Z"/></clipPath><clipPath id="cq"><path class="a" d="M287.37-50.73,274-49.49a3.77,3.77,0,0,1-4.09-3.39h0a3.76,3.76,0,0,1,3.39-4.09l13.34-1.24a3.75,3.75,0,0,1,2.742.85,3.75,3.75,0,0,1,1.338,2.54h0a3.74,3.74,0,0,1-3.35,4.09Z"/></clipPath><clipPath id="cs"><path class="a" d="M284.55-38.47l-13.36-.86a3.77,3.77,0,0,1-3.51-4h0a3.76,3.76,0,0,1,1.272-2.584,3.76,3.76,0,0,1,2.728-.926L285-46a3.77,3.77,0,0,1,3.51,4h0a3.77,3.77,0,0,1-3.96,3.53Z"/></clipPath><clipPath id="cu"><path class="b" d="M420.42-84a1.6,1.6,0,0,1-1.11-.46,1.58,1.58,0,0,1,0-2.22l15-15a1.57,1.57,0,0,1,1.557-.491,1.57,1.57,0,0,1,1.152,1.157,1.57,1.57,0,0,1-.5,1.554l-15,15a1.56,1.56,0,0,1-1.1.46Z"/></clipPath><clipPath id="cv"><path class="b" d="M-595,220H685V-533H-595Z"/></clipPath><clipPath id="cw"><path class="b" d="M408.2-94.77v-21.15c-.047-.589,3.177-.589,3.13,0v21.15C411.333-94.355,408.2-93.9,408.2-94.77Z"/></clipPath><clipPath id="cy"><path class="b" d="M450.75-73.37H429.59a1.57,1.57,0,0,1-1.445-1.565A1.57,1.57,0,0,1,429.59-76.5h21.16a1.57,1.57,0,0,1,1.464.744,1.57,1.57,0,0,1,0,1.642A1.57,1.57,0,0,1,450.75-73.37Z"/></clipPath><clipPath id="da"><path class="b" d="M262.85-7.57H392.29c3.61,0,4.72-2.92,4.72-6.54H256.31a6.54,6.54,0,0,0,6.54,6.54Z"/></clipPath><clipPath id="dc"><path class="b" d="M255.34-14.11h45.88c0,3.62-3.32,6.54-7.42,6.54H255.15C250.92-7.63,251.11-14.11,255.34-14.11Z"/></clipPath><clipPath id="de"><path class="d" d="M304.09-12.2H397a5.739,5.739,0,0,0,5.64-4.68l12.53-53.74a5.75,5.75,0,0,0-1.219-4.734,5.75,5.75,0,0,0-4.422-2.086H316.61a5.73,5.73,0,0,0-5.64,4.68L298.44-19a5.75,5.75,0,0,0,1.231,4.725A5.75,5.75,0,0,0,304.09-12.2Z"/></clipPath><clipPath id="dg"><path class="b" d="M311-72.76a5.74,5.74,0,0,1,2.29-3.6,5.73,5.73,0,0,1,2.29,5.74L303-16.88a5.78,5.78,0,0,1-2.29,3.59,5.73,5.73,0,0,1-2.3-5.73Z"/></clipPath><clipPath id="di"><path class="a" d="M369.41-38H354.17a5.65,5.65,0,0,1-4.005-1.655,5.65,5.65,0,0,1-1.655-4.005h0a5.66,5.66,0,0,1,5.66-5.66h15.24a5.66,5.66,0,0,1,4,1.658,5.66,5.66,0,0,1,1.658,4h0a5.65,5.65,0,0,1-1.655,4.005A5.65,5.65,0,0,1,369.41-38Z"/></clipPath><clipPath id="dk"><path class="b" d="M269.2-12.3h-4.58a1.63,1.63,0,0,1-1.156-.481,1.63,1.63,0,0,1-.474-1.159h0a1.63,1.63,0,0,1,1.63-1.63h4.58a1.63,1.63,0,0,1,1.63,1.63h0a1.63,1.63,0,0,1-.474,1.159A1.63,1.63,0,0,1,269.2-12.3Z"/></clipPath><clipPath id="dm"><path class="b" d="M278.12-12.3h-4.57a1.63,1.63,0,0,1-1.156-.481,1.63,1.63,0,0,1-.474-1.159h0a1.63,1.63,0,0,1,1.63-1.63h4.57a1.63,1.63,0,0,1,1.63,1.63h0a1.63,1.63,0,0,1-.474,1.159A1.63,1.63,0,0,1,278.12-12.3Z"/></clipPath><clipPath id="do"><path class="b" d="M287.05-12.3h-4.57a1.63,1.63,0,0,1-1.163-.477,1.63,1.63,0,0,1-.477-1.163h0a1.63,1.63,0,0,1,.481-1.156,1.63,1.63,0,0,1,1.159-.474h4.57a1.63,1.63,0,0,1,1.63,1.63h0a1.63,1.63,0,0,1-.474,1.159A1.63,1.63,0,0,1,287.05-12.3Z"/></clipPath><clipPath id="dq"><path class="b" d="M296-12.3h-4.6a1.63,1.63,0,0,1-1.156-.481,1.63,1.63,0,0,1-.474-1.159h0a1.63,1.63,0,0,1,1.63-1.63H296a1.64,1.64,0,0,1,1.64,1.63h0a1.64,1.64,0,0,1-.48,1.16,1.64,1.64,0,0,1-1.16.48Z"/></clipPath><clipPath id="ds"><path class="a" d="M466.29-.08h-391a3.92,3.92,0,0,1-2.772-1.148A3.92,3.92,0,0,1,71.37-4h0a3.921,3.921,0,0,1,1.145-2.775A3.91,3.91,0,0,1,75.29-7.92h391A3.92,3.92,0,0,1,470.21-4h0A3.93,3.93,0,0,1,466.29-.08Z"/></clipPath><clipPath id="du"><path class="a" d="M126.57-71.82c1.39,4.61,1.11,8.77-.64,9.3s-4.28-2.78-5.67-7.39a.744.744,0,0,1,0-.14c-1.18-4.1,5-6,6.31-1.9Z"/></clipPath><clipPath id="dw"><path class="a" d="M134.84-61.52c-4.61,1.39-8.77,1.11-9.3-.63s2.78-4.29,7.39-5.68h.14c4.1-1.18,6,5,1.91,6.31Z"/></clipPath><clipPath id="dy"><path class="c" d="M119.07-56.76c4.61-1.39,7.92-3.93,7.39-5.67s-4.68-2-9.29-.64h-.14c-4.07,1.29-2.2,7.49,1.91,6.31Z"/></clipPath><clipPath id="ea"><path class="c" d="M126.83-51.52c1.3-4.64.92-8.79-.83-9.28s-4.22,2.87-5.52,7.51v.14c-1.09,4.12,5.15,5.87,6.35,1.77C126.8-51.43,126.82-51.47,126.83-51.52Z"/></clipPath><clipPath id="ec"><path class="a" d="M131.28-52.86c-3.65-3.15-5.64-6.81-4.45-8.19s5.11.05,8.75,3.19l.11.1c3.2,2.83-1,7.74-4.3,5Z"/></clipPath><clipPath id="ee"><path class="a" d="M128.11-61.92a2.26,2.26,0,0,1-.723,2.408,2.26,2.26,0,0,1-2.5.25A2.26,2.26,0,0,1,123.7-61.48a2.26,2.26,0,0,1,1.6-1.94,2.25,2.25,0,0,1,1.716.167,2.25,2.25,0,0,1,1.094,1.333Z"/></clipPath><clipPath id="eg"><path class="b" d="M125.32-45.91c6,4.71,9.39,10.37,7.61,12.64s-8.09.27-14.07-4.44-7.61-12.64-7.61-12.64S119.33-50.63,125.32-45.91Z"/></clipPath><clipPath id="ei"><path class="b" d="M146.34-38.77c-6.31,5.93-13.26,8.8-15.5,6.41s1.06-9.14,7.37-15.07,15.51-6.42,15.51-6.42S152.66-44.71,146.34-38.77Z"/></clipPath><clipPath id="ek"><path class="c" d="M141.7-6.62H121.02L117.4-32.63h27.92L141.7-6.62Z"/></clipPath><clipPath id="em"><path class="c" d="M116.32-35.63h30.07a1.47,1.47,0,0,1,1.47,1.47v6.73a1.47,1.47,0,0,1-1.47,1.47H116.32a1.47,1.47,0,0,1-1.47-1.47v-6.73A1.47,1.47,0,0,1,116.32-35.63Z"/></clipPath><clipPath id="eo"><path class="a" d="M489.5-306.95H405.71a19,19,0,0,0-19,19v43.22a19,19,0,0,0,19,19H460.5l19.75,17.31v-17.39h9.29a19,19,0,0,0,19-19V-288a19,19,0,0,0-19.04-18.95Z" transform="translate(-386.71 306.95)"/></clipPath><clipPath id="ep"><path class="a" d="M685,220H-595V-533H685Z" transform="translate(595 533)"/></clipPath><clipPath id="eq"><path class="a" d="M477.35-280.2H417.94a2.38,2.38,0,0,1-2.38-2.38,2.38,2.38,0,0,1,2.38-2.38h59.41a2.38,2.38,0,0,1,2.38,2.38A2.38,2.38,0,0,1,477.35-280.2Z" transform="translate(-415.56 284.96)"/></clipPath><clipPath id="es"><path class="a" d="M477.35-264.36H417.94a2.38,2.38,0,0,1-2.38-2.38,2.38,2.38,0,0,1,2.38-2.38h59.41a2.38,2.38,0,0,1,2.38,2.38A2.38,2.38,0,0,1,477.35-264.36Z" transform="translate(-415.56 269.12)"/></clipPath><clipPath id="eu"><path class="a" d="M477.35-248.52h-8.72a2.38,2.38,0,0,1-2.38-2.38,2.38,2.38,0,0,1,2.38-2.38h8.72a2.38,2.38,0,0,1,2.38,2.38,2.38,2.38,0,0,1-2.38,2.38Z" transform="translate(-466.25 253.28)"/></clipPath><clipPath id="ew"><path class="a" d="M457.54-248.52h-8.71a2.38,2.38,0,0,1-2.38-2.38,2.38,2.38,0,0,1,2.38-2.38h8.71a2.38,2.38,0,0,1,2.38,2.38,2.38,2.38,0,0,1-2.38,2.38Z" transform="translate(-446.45 253.28)"/></clipPath><clipPath id="ey"><path class="a" d="M437.74-248.52h-19.8a2.38,2.38,0,0,1-2.38-2.38,2.38,2.38,0,0,1,2.38-2.38h19.8a2.38,2.38,0,0,1,2.38,2.38,2.38,2.38,0,0,1-2.38,2.38Z" transform="translate(-415.56 253.28)"/></clipPath><clipPath id="fa"><path class="a" d="M395.15-220.65H331a11.42,11.42,0,0,0-11.42,11.42v37a11.41,11.41,0,0,0,10.58,11.38L317-139.2l34.85-21.63h43.34a11.42,11.42,0,0,0,11.42-11.42v-37a11.42,11.42,0,0,0-3.366-8.076,11.421,11.421,0,0,0-8.094-3.324Z"/></clipPath><clipPath id="fc"><path class="a" d="M368.462-194.348a7.59,7.59,0,0,0,0-10.734,7.59,7.59,0,0,0-10.734,0,7.59,7.59,0,0,0,0,10.734A7.59,7.59,0,0,0,368.462-194.348Z"/></clipPath><clipPath id="fe"><path class="a" d="M381-174.17H345.14a11.5,11.5,0,0,1,3.365-8.138,11.5,11.5,0,0,1,8.135-3.372h12.89A11.5,11.5,0,0,1,381-174.17Z"/></clipPath></defs><g transform="translate(-105.37 324.947)"><g transform="translate(34 -19)"><g class="e"><g class="f"><path class="b" d="M424.89-197.48h17.72v17.72H424.89Z"/></g></g><g class="g"><g class="f"><path class="b" d="M142-271h12v14.507H142Z"/></g></g><g class="h"><g class="f"><path class="b" d="M137.577-273.225H151.8v12h-14.22Z"/></g></g><g class="i"><g class="f"><path class="b" d="M142-277.78h12v14.507H142Z"/></g></g><g class="j"><g class="f"><path class="b" d="M144.78-273.34h13.66v11.92H144.78Z"/></g></g><g class="k" transform="translate(-86 93)"><g class="f"><path class="b" d="M382.448-332.92H394.36V-319H382.448Z"/></g></g><g class="l" transform="translate(-86 93)"><g class="f"><path class="b" d="M377.977-335.2H392.2v12h-14.22Z"/></g></g><g class="m" transform="translate(-86 93)"><g class="f"><path class="b" d="M382.4-339.74h12v14.467h-12Z"/></g></g><g class="n" transform="translate(-86 93)"><g class="f"><path class="b" d="M385.2-335.345h14.22v12H385.2Z"/></g></g><g class="o"><g class="f"><path class="c" d="M489.94-99.36h28.51v27.92H489.94Z"/></g></g><g class="p"><g class="f"><path class="q" d="M336.61-258.93h16.45v16.25H336.61Z"/></g></g><g class="r"><g class="f"><path class="q" d="M304.23-116h16.45v16.25H304.23Z"/></g></g><g class="s"><g class="f"><path class="b" d="M202.479-310.947H243.61v27.3H202.479Z"/></g></g><g class="t"><g class="f"><path class="d" d="M259.738-103.432h57.907v92.366H259.738Z"/></g></g><g class="u"><g class="f"><path class="d" d="M270.578-87.172h79.315V-7.179H270.578Z"/></g></g><g class="v"><g class="f"><path class="w" d="M317.84-97.327h40v40h-40Z"/></g></g><g class="x"><g class="f"><path class="w" d="M316.545-97.334h19.167v23H316.545Z"/></g></g><g class="y"><g class="f"><path class="w" d="M324.675-107.814h23.449v31.6H324.675Z"/></g></g><g class="z"><g class="f"><path class="w" d="M333.087-105.3h24.555v31.132H333.087Z"/></g></g><g class="aa"><g class="f"><path class="w" d="M337.947-98.784h27.127v29.5H337.947Z"/></g></g><g class="ab"><g class="f"><path class="w" d="M246.779-158.421l30.007,1.179L274.9-109.179l-30.007-1.179Z"/></g></g><g class="ac"><g class="f"><path class="ad" d="M246.29-159.3h30.32v31.8H246.29Z"/></g></g><g class="ae"><g class="f"><path class="d" d="M223.516-189.4l57.656-16.315,13.189,46.61-57.656,16.315Z"/></g></g><g class="af"><g class="f"><path class="d" d="M244.387-189.788l53.573-9.1,6.507,38.311-53.573,9.1Z"/></g></g><g class="ag"><g class="f"><path class="d" d="M228.952-178.919l39.9-36.886,26.378,28.536-39.9,36.886Z"/></g></g><g class="ah"><g class="f"><path class="w" d="M243.356-189.437h45.238v59.106H243.356Z"/></g></g><g class="ai"><g class="f"><path class="d" d="M234.459-192.9h37.724v41.068H234.459Z"/></g></g><g class="aj"><g class="f"><path class="ak" d="M261.175-168.571h16.939v12.641H261.175Z"/></g></g><g class="al"><g class="f"><path class="ak" d="M271.842-168.576h16.943v12.646H271.842Z"/></g></g><g class="am"><g class="f"><path class="ak" d="M264.22-164.473h12v12h-12Z"/></g></g><g class="an"><g class="f"><path class="ak" d="M273.37-164.113h12v12h-12Z"/></g></g><g class="ao"><g class="f"><path class="c" d="M270.17-171.008h24.54v24.538H270.17Z"/></g></g><g class="ap"><g class="f"><path class="c" d="M253.036-173.029h26.782v26.859H253.036Z"/></g></g><g class="aq"><g class="f"><path class="ar" d="M267.809-164.6h14.4v11.431h-14.4Z"/></g></g><g class="as"><g class="f"><path class="ak" d="M264.635-154.079H284V-138.6H264.635Z"/></g></g><g class="at"><g class="f"><path class="d" d="M204.268-131.89h97.252V4.47H204.268Z"/></g></g><g class="au"><g class="f" transform="translate(2)"><path class="b" d="M271.78-106.69h29.836V3.065H271.78Z"/></g></g><g class="av"><g class="f"><path class="d" d="M241.921-138.008l38.221,2.465L278.172-105l-38.221-2.465Z"/></g></g><g class="aw"><g class="f"><path class="d" d="M173.779-111.783h63.455v90.437H173.779Z"/></g></g><g class="ax"><g class="f"><path class="b" d="M206.78-110.47h31.514v78.55H206.78Z"/></g></g><g class="ay"><g class="az"><path class="c" d="M249.85-73.222h25.31V-46.85H249.85Z"/></g></g><g class="ba"><g class="az"><path class="c" d="M257.3-79.3h35.739v45.031H257.3Z"/></g></g><g class="bb"><g class="f"><path class="bc" d="M260.839-78.19h29.791v13.76H260.839Z"/></g></g><g class="bd"><g class="f"><path class="d" d="M174.848-64.952h94.284v45.074H174.848Z"/></g></g><g class="be"><g class="f"><path class="b" d="M192.26-65.718h76.9V-36.75h-76.9Z"/></g></g><g class="bf"><g class="f"><path class="w" d="M238.184-42.917,263.75-73.733l30.816,25.566L269-17.352Z"/></g></g><g class="bg"><g class="f"><path class="w" d="M251.192-69.308h18.787v21.814H251.192Z"/></g></g><g class="bh"><g class="f"><path class="w" d="M264.894-63.226h30.845v18.751H264.894Z"/></g></g><g class="bi"><g class="f"><path class="w" d="M262.672-51.848h30.845v18.383H262.672Z"/></g></g><g class="bj"><g class="bk"><path class="b" d="M413.854-107.217h28.208V-79H413.854Z"/></g></g><g class="bl"><g class="bk"><path class="b" d="M403.2-121.362h13.131v32.087H403.2Z"/></g></g><g class="bm"><g class="bk"><path class="b" d="M423.145-81.505h34.3v13.14h-34.3Z"/></g></g><g class="bn"><g class="bk"><path class="b" d="M251.31-19.11h150.7V-2.57H251.31Z"/></g></g><g class="bo"><g class="bk"><path class="b" d="M247.071-19.11H306.22V-2.57H247.071Z"/></g></g><g class="bp"><g class="f"><path class="d" d="M293.343-82.44H420.271V-7.2H293.343Z"/></g></g><g class="bq"><g class="bk"><path class="b" d="M293.31-81.36h27.374V-8.29H293.31Z"/></g></g><g class="br"><g class="f"><path class="bs" d="M343.51-54.32h36.56V-33H343.51Z"/></g></g><g class="bt"><g class="bk"><path class="b" d="M257.99-20.57h17.84V-7.3H257.99Z"/></g></g><g class="bu"><g class="bk"><path class="b" d="M266.92-20.57h17.83V-7.3H266.92Z"/></g></g><g class="bv"><g class="bk"><path class="b" d="M275.84-20.57h17.84V-7.3H275.84Z"/></g></g><g class="bw"><g class="bk"><path class="b" d="M284.77-20.57h17.87V-7.3H284.77Z"/></g></g><g class="bx"><g class="f"><path class="b" d="M66.37-12.92H475.21V4.92H66.37Z"/></g></g><g class="by"><g class="f"><path class="c" d="M115.111-79.235h17.342v21.77H115.111Z"/></g></g><g class="bz"><g class="f"><path class="c" d="M120.484-72.979h21.773v17.342H120.484Z"/></g></g><g class="ca"><g class="az"><path class="c" d="M109.759-68.937h21.757v17.325H109.759Z"/></g></g><g class="cb"><g class="az"><path class="c" d="M115.353-65.847H132.6v21.8H115.353Z"/></g></g><g class="cc"><g class="f"><path class="c" d="M121.485-66.576h20.347v19.62H121.485Z"/></g></g><g class="cd"><g class="f"><path class="bs" d="M118.69-68.518h14.52V-54H118.69Z"/></g></g><g class="ce"><g class="bk"><path class="b" d="M106.25-55.353H138.4v28.02H106.25Z"/></g></g><g class="cf"><g class="bk"><path class="b" d="M125.138-58.85H158.72v32.332H125.138Z"/></g></g><g class="cg"><g class="az"><path class="c" d="M112.4-37.63h37.92V-1.62H112.4Z"/></g></g><g class="ch"><g class="az"><path class="c" d="M109.85-40.63h43.01v19.67H109.85Z"/></g></g><g class="ci" transform="translate(86.71 -221.95)"><g class="cj" transform="translate(-176.46 -226.05)"><path class="c" d="M513.54-311.95H381.71v108.53H513.54Z" transform="translate(-210.25 533)"/></g></g><g class="ck" transform="translate(115.52 -199.96)"><g class="cj" transform="translate(-205.27 -248.04)"><path class="cl" d="M484.73-289.96H410.56v14.76h74.17Z" transform="translate(-210.29 533)"/></g></g><g class="cm" transform="translate(115.52 -184.12)"><g class="cj" transform="translate(-205.27 -263.88)"><path class="cl" d="M484.73-274.12H410.56v14.76h74.17Z" transform="translate(-210.29 533)"/></g></g><g class="cn" transform="translate(115.52 -168.28)"><g class="cj" transform="translate(-205.27 -279.72)"><path class="cl" d="M484.73-258.28H461.25v14.76h23.48Z" transform="translate(-260.98 533)"/></g></g><g class="co" transform="translate(135.33 -168.28)"><g class="cj" transform="translate(-225.08 -279.72)"><path class="cl" d="M464.92-258.28H441.45v14.76h23.47Z" transform="translate(-221.37 533)"/></g></g><g class="cp" transform="translate(155.13 -168.28)"><g class="cj" transform="translate(-244.88 -279.72)"><path class="cl" d="M445.12-258.28H410.56v14.76h34.56Z" transform="translate(-170.68 533)"/></g></g><g class="cq"><g class="f"><path class="c" d="M312-225.65h99.61v91.45H312Z"/></g></g><g class="cr"><g class="f"><path class="cl" d="M345.29-199.715l17.8-17.8,17.8,17.8-17.8,17.8Z"/></g></g><g class="cs"><g class="f"><path class="cl" d="M340.14-190.68H386v21.51H340.14Z"/></g></g></g></g></svg>