<svg xmlns="http://www.w3.org/2000/svg" xmlns:xlink="http://www.w3.org/1999/xlink" width="299.333" height="339.681" viewBox="0 0 299.333 339.681"><defs><style>.a,.b,.f{fill:none;}.b{opacity:0.778;}.c{fill:#431212;}.d{fill:#311b58;}.e{fill:#f7296e;}.f{clip-rule:evenodd;}.g{clip-path:url(#a);}.h{clip-path:url(#b);}.i{fill:#fff;}.j{clip-path:url(#c);}.k{clip-path:url(#e);}.l{clip-path:url(#g);}.m{clip-path:url(#i);}.n{clip-path:url(#k);}.o{clip-path:url(#m);}.p{fill:#b395e8;}.q{clip-path:url(#o);}.r{clip-path:url(#q);}.s{clip-path:url(#s);}.t{clip-path:url(#u);}.u{clip-path:url(#w);}.v{clip-path:url(#y);}.w{fill:#fcede3;}.x{clip-path:url(#aa);}.y{clip-path:url(#ac);}.z{clip-path:url(#ae);}.aa{clip-path:url(#ag);}.ab{clip-path:url(#ai);}.ac{clip-path:url(#ak);}.ad{clip-path:url(#am);}.ae{clip-path:url(#ao);}.af{clip-path:url(#aq);}.ag{clip-path:url(#as);}.ah{clip-path:url(#au);}.ai{clip-path:url(#aw);}.aj,.br{fill:#fb9aba;}.ak{clip-path:url(#ay);}.al{clip-path:url(#az);}.am{clip-path:url(#ba);}.an{clip-path:url(#bc);}.ao{clip-path:url(#be);}.ap{clip-path:url(#bg);}.aq{clip-path:url(#bi);}.ar{clip-path:url(#bk);}.as{clip-path:url(#bm);}.at{clip-path:url(#bo);}.au{clip-path:url(#bq);}.av{clip-path:url(#bs);}.aw{clip-path:url(#bu);}.ax{clip-path:url(#bw);}.ay{clip-path:url(#by);}.az{clip-path:url(#ca);}.ba{clip-path:url(#cc);}.bb{clip-path:url(#ce);}.bc{clip-path:url(#cg);}.bd{clip-path:url(#ci);}.be{clip-path:url(#ck);}.bf{clip-path:url(#cm);}.bg{clip-path:url(#co);}.bh{clip-path:url(#cq);}.bi{clip-path:url(#cs);}.bj{clip-path:url(#cu);}.bk{clip-path:url(#cw);}.bl{clip-path:url(#cy);}.bm{clip-path:url(#da);}.bn{clip-path:url(#dc);}.bo{clip-path:url(#de);}.bp{clip-path:url(#dg);}.bq{clip-path:url(#di);}.br{opacity:0.995;}.bs{clip-path:url(#dk);}.bt{clip-path:url(#dm);}.bu{clip-path:url(#do);}.bv{clip-path:url(#dq);}.bw{clip-path:url(#ds);}.bx{clip-path:url(#du);}.by{clip-path:url(#dw);}.bz{clip-path:url(#dy);}.ca{fill:#f9d3be;}.cb{clip-path:url(#ea);}.cc{clip-path:url(#ec);}.cd{clip-path:url(#ee);}.ce{clip-path:url(#eg);}.cf{clip-path:url(#ei);}.cg{clip-path:url(#ek);}.ch{clip-path:url(#em);}.ci{clip-path:url(#eo);}.cj{clip-path:url(#eq);}.ck{clip-path:url(#es);}.cl{clip-path:url(#eu);}.cm{clip-path:url(#ew);}.cn{clip-path:url(#ey);}</style><clipPath id="a"><path class="a" d="M281.647-129.365H191.87a18.47,18.47,0,0,1-18.416-18.416V-334.24a18.47,18.47,0,0,1,18.416-18.416h89.777a18.47,18.47,0,0,1,18.416,18.416v186.46A18.47,18.47,0,0,1,281.647-129.365Z"/></clipPath><clipPath id="b"><path class="a" d="M-589,171H691V-582H-589Z"/></clipPath><clipPath id="c"><path class="a" d="M281.647-127.446H191.87a20.2,20.2,0,0,1-14.362-5.972,20.2,20.2,0,0,1-5.972-14.362V-334.24a20.2,20.2,0,0,1,5.972-14.362,20.2,20.2,0,0,1,14.362-5.972h89.777a20.353,20.353,0,0,1,20.334,20.334v186.46A20.353,20.353,0,0,1,281.647-127.446ZM191.87-350.737a16.415,16.415,0,0,0-11.651,4.847c-1.96,1.96-4.235,7.2-4.235,7.2a28.18,28.18,0,0,0-.612,4.455v186.46a16.415,16.415,0,0,0,4.847,11.65,16.393,16.393,0,0,0,11.651,4.847h89.777A16.415,16.415,0,0,0,293.3-136.13a16.34,16.34,0,0,0,4.847-11.65V-334.24a16.415,16.415,0,0,0-4.847-11.651,16.393,16.393,0,0,0-11.651-4.847Z"/></clipPath><clipPath id="e"><path class="a" d="M300.063-156.63H173.455a1.916,1.916,0,0,1-1.918-1.918V-323.459a1.916,1.916,0,0,1,1.918-1.918H300.063a1.916,1.916,0,0,1,1.918,1.918v164.911A1.916,1.916,0,0,1,300.063-156.63Zm-124.69-3.837H298.145V-321.541H175.373Z"/></clipPath><clipPath id="g"><path class="a" d="M251.146-334.9H222.384a3.875,3.875,0,0,1-3.862-3.862h0a3.875,3.875,0,0,1,3.862-3.862h28.762a3.875,3.875,0,0,1,3.862,3.862h0A3.875,3.875,0,0,1,251.146-334.9Z"/></clipPath><clipPath id="i"><path class="a" d="M251.146-332.987H222.384a5.791,5.791,0,0,1-5.78-5.78,5.791,5.791,0,0,1,5.78-5.781h28.762a5.791,5.791,0,0,1,5.781,5.781A5.791,5.791,0,0,1,251.146-332.987Zm-28.762-7.724a1.943,1.943,0,0,0-1.944,1.944,1.943,1.943,0,0,0,1.944,1.944h28.762a1.943,1.943,0,0,0,1.944-1.944,1.943,1.943,0,0,0-1.944-1.944Z"/></clipPath><clipPath id="k"><path class="a" d="M236.759-134.327a9.879,9.879,0,0,1-9.873-9.873,9.879,9.879,0,0,1,9.873-9.873,9.879,9.879,0,0,1,9.873,9.873A9.879,9.879,0,0,1,236.759-134.327Zm0-15.9a6.047,6.047,0,0,0-6.036,6.036,6.047,6.047,0,0,0,6.036,6.036,6.047,6.047,0,0,0,6.036-6.036A6.047,6.047,0,0,0,236.759-150.223Z"/></clipPath><clipPath id="m"><path class="b" d="M194.914-129.275c-5.64-26.716-16.331-31.371-16.5-36.589-.1-3.005.691-5.972.972-8.965.652-6.791-1.266-13.53-2.085-20.3-2.072-17.188,2.814-35.578-4.22-51.385-1.279-2.865-3.031-5.665-5.729-7.251s-6.522-1.573-8.658.716c-1.356,1.458-1.816,3.517-2.187,5.473-2.98,15.411-4.655,31.166-9.8,46-4.4,12.686-11.305,24.618-13.39,37.88-1.1,6.97-.831,14.08-.55,21.14q1.515,38.769,3.044,77.551l81.95,1.42L236-129.365H198.879Z"/></clipPath><clipPath id="o"><path class="a" d="M217.768-61.661h-.038l-81.95-1.42a1.91,1.91,0,0,1-1.88-1.842l-3.044-77.551c-.281-7.047-.563-14.323.576-21.511,1.407-8.914,4.949-17.29,8.377-25.386,1.765-4.182,3.606-8.5,5.09-12.814,3.67-10.615,5.6-21.971,7.456-32.957.716-4.195,1.445-8.53,2.264-12.789.46-2.366,1.01-4.63,2.673-6.42,2.583-2.775,7.328-3.235,11.037-1.074,2.634,1.547,4.757,4.195,6.509,8.121,4.63,10.385,4.3,21.83,3.99,32.905a131.05,131.05,0,0,0,.384,19.03c.243,1.982.588,4.029.921,6,.806,4.77,1.65,9.707,1.164,14.707-.115,1.138-.281,2.264-.46,3.351a28.23,28.23,0,0,0-.511,5.371c.038,1.164,1.2,2.724,2.8,4.9,3.568,4.821,9.477,12.789,13.313,29.811l2.379-.051h37.164a1.908,1.908,0,0,1,1.522.755,1.916,1.916,0,0,1,.32,1.675L219.584-63.068A1.863,1.863,0,0,1,217.768-61.661Zm-80.121-5.218L216.3-65.523l17.175-61.923H198.891l-3.939.09h-.038a1.929,1.929,0,0,1-1.88-1.522c-3.645-17.278-9.489-25.155-12.981-29.874-2.021-2.724-3.479-4.693-3.555-7.059a31.5,31.5,0,0,1,.563-6.088c.166-1.074.333-2.1.422-3.12.435-4.5-.332-8.965-1.125-13.7-.345-2.021-.691-4.105-.946-6.19A133.771,133.771,0,0,1,175-214.5c.307-11.139.614-21.651-3.658-31.243-1.407-3.172-3.031-5.256-4.949-6.369-1.893-1.113-4.757-1.266-6.279.371-.972,1.049-1.356,2.673-1.714,4.54-.818,4.208-1.547,8.517-2.251,12.7-1.88,11.139-3.837,22.662-7.622,33.57-1.535,4.438-3.389,8.824-5.192,13.057-3.338,7.891-6.791,16.037-8.121,24.49-1.074,6.816-.793,13.9-.524,20.769Z"/></clipPath><clipPath id="q"><path class="a" d="M190.515-91.958a1.839,1.839,0,0,1-.857-.2,1.916,1.916,0,0,1-.857-2.571A51.819,51.819,0,0,0,193.955-112a52.085,52.085,0,0,0-.972-17.994,1.911,1.911,0,0,1,1.432-2.3,1.91,1.91,0,0,1,2.3,1.432,55.571,55.571,0,0,1,1.049,19.311,55.746,55.746,0,0,1-5.538,18.531A1.952,1.952,0,0,1,190.515-91.958Z"/></clipPath><clipPath id="s"><path class="c" d="M127.466-76.176H228.817v59.365H127.466Z"/></clipPath><clipPath id="u"><path class="d" d="M228.817-14.893H127.466a1.916,1.916,0,0,1-1.918-1.918V-76.176a1.916,1.916,0,0,1,1.918-1.918H228.817a1.916,1.916,0,0,1,1.918,1.918v59.365A1.924,1.924,0,0,1,228.817-14.893Zm-99.432-3.837H226.9V-74.258H129.385Z"/></clipPath><clipPath id="w"><path class="a" d="M206.347-36.48a10.043,10.043,0,0,1-10.026-10.026,10.043,10.043,0,0,1,10.026-10.026,10.043,10.043,0,0,1,10.026,10.026A10.034,10.034,0,0,1,206.347-36.48Zm0-16.2a6.2,6.2,0,0,0-6.19,6.19,6.2,6.2,0,0,0,6.19,6.19,6.2,6.2,0,0,0,6.19-6.19A6.2,6.2,0,0,0,206.347-52.683Z"/></clipPath><clipPath id="y"><path class="a" d="M153.607-231.035h8.3s-.473-17.521-5.039-18.2Z"/></clipPath><clipPath id="aa"><path class="a" d="M161.906-229.117h-8.3a1.921,1.921,0,0,1-1.471-.691,1.94,1.94,0,0,1-.422-1.573l3.261-18.2a1.92,1.92,0,0,1,2.174-1.56c2.89.435,4.745,3.926,5.832,10.96a79.3,79.3,0,0,1,.831,9.08,1.95,1.95,0,0,1-.537,1.394A1.867,1.867,0,0,1,161.906-229.117Zm-6.011-3.837h3.99c-.1-1.6-.294-3.977-.652-6.382a31.788,31.788,0,0,0-1.215-5.448Z"/></clipPath><clipPath id="ac"><path class="a" d="M159.847-208.488a1.7,1.7,0,0,1-.358-.038l-9.988-1.918a1.921,1.921,0,0,1-1.522-2.251,1.921,1.921,0,0,1,2.251-1.522l9.988,1.918a1.922,1.922,0,0,1,1.522,2.251A1.928,1.928,0,0,1,159.847-208.488Z"/></clipPath><clipPath id="ae"><path class="a" d="M154.86-201.8a1.727,1.727,0,0,1-.563-.09l-6.279-1.918a1.922,1.922,0,0,1-1.279-2.392,1.922,1.922,0,0,1,2.391-1.279l6.279,1.918a1.922,1.922,0,0,1,1.279,2.391A1.922,1.922,0,0,1,154.86-201.8Z"/></clipPath><clipPath id="ag"><path class="a" d="M365.669-152.141h-92.59a18.714,18.714,0,0,0-4.425.537L254.663-165.6v62.78A18.47,18.47,0,0,0,273.079-84.4h92.59a18.47,18.47,0,0,0,18.416-18.416v-30.91A18.47,18.47,0,0,0,365.669-152.141Z"/></clipPath><clipPath id="ai"><path class="a" d="M365.669-82.481h-92.59a20.2,20.2,0,0,1-14.362-5.972,20.194,20.194,0,0,1-5.972-14.362v-62.767a1.937,1.937,0,0,1,1.189-1.778,1.909,1.909,0,0,1,2.084.422l13.249,13.249a20.036,20.036,0,0,1,3.811-.358h92.59A20.353,20.353,0,0,1,386-133.713v30.91a20.2,20.2,0,0,1-5.972,14.362A20.213,20.213,0,0,1,365.669-82.481ZM256.581-160.953v58.137a16.415,16.415,0,0,0,4.847,11.651,16.393,16.393,0,0,0,11.65,4.847h92.59a16.415,16.415,0,0,0,11.651-4.847,16.393,16.393,0,0,0,4.847-11.651v-30.91a16.415,16.415,0,0,0-4.847-11.651,16.341,16.341,0,0,0-11.651-4.847h-92.59a16.5,16.5,0,0,0-3.965.486,1.905,1.905,0,0,1-1.816-.5Z"/></clipPath><clipPath id="ak"><path class="a" d="M365.669-131.283a1.223,1.223,0,0,0,1.215-1.215,1.223,1.223,0,0,0-1.215-1.215h-92.59a1.223,1.223,0,0,0-1.215,1.215,1.223,1.223,0,0,0,1.215,1.215Z"/></clipPath><clipPath id="am"><path class="a" d="M341.669-118.072a1.223,1.223,0,0,0,1.215-1.215,1.223,1.223,0,0,0-1.215-1.215h-68.59a1.223,1.223,0,0,0-1.215,1.215,1.223,1.223,0,0,0,1.215,1.215Z"/></clipPath><clipPath id="ao"><path class="a" d="M329.208-104.874a1.223,1.223,0,0,0,1.215-1.215,1.223,1.223,0,0,0-1.215-1.215h-56.13a1.223,1.223,0,0,0-1.215,1.215,1.223,1.223,0,0,0,1.215,1.215Z"/></clipPath><clipPath id="aq"><path class="a" d="M378.036-59.935a28.647,28.647,0,0,0,28.647-28.647,28.647,28.647,0,0,0-28.647-28.647,28.647,28.647,0,0,0-28.647,28.647A28.647,28.647,0,0,0,378.036-59.935Z"/></clipPath><clipPath id="as"><path class="a" d="M376.5-57a32.31,32.31,0,0,1-22.981-9.519A32.31,32.31,0,0,1,344-89.5a32.311,32.311,0,0,1,9.519-22.981A32.311,32.311,0,0,1,376.5-122a32.311,32.311,0,0,1,22.981,9.519A32.311,32.311,0,0,1,409-89.5a32.31,32.31,0,0,1-9.519,22.981A32.334,32.334,0,0,1,376.5-57Zm0-61A28.54,28.54,0,0,0,348-89.5,28.54,28.54,0,0,0,376.5-61,28.54,28.54,0,0,0,405-89.5,28.54,28.54,0,0,0,376.5-118Z"/></clipPath><clipPath id="au"><path class="a" d="M378.036-58.016a30.386,30.386,0,0,1-21.613-8.952,30.387,30.387,0,0,1-8.952-21.613,30.387,30.387,0,0,1,8.952-21.613,30.386,30.386,0,0,1,21.613-8.952,30.387,30.387,0,0,1,21.613,8.952A30.387,30.387,0,0,1,408.6-88.581a30.387,30.387,0,0,1-8.952,21.613A30.409,30.409,0,0,1,378.036-58.016Zm0-57.293a26.766,26.766,0,0,0-26.728,26.728,26.766,26.766,0,0,0,26.728,26.728,26.766,26.766,0,0,0,26.729-26.728A26.766,26.766,0,0,0,378.036-115.31Z"/></clipPath><clipPath id="aw"><path class="a" d="M191.3-304.455h90.908a4,4,0,0,1,4,4v12.027a4,4,0,0,1-4,4H191.3a4,4,0,0,1-4-4v-12.027A4,4,0,0,1,191.3-304.455Z"/></clipPath><clipPath id="ay"><path class="e" d="M277.888-296.57A1.175,1.175,0,0,0,279-297.785,1.174,1.174,0,0,0,277.888-299H193.112A1.174,1.174,0,0,0,192-297.785a1.175,1.175,0,0,0,1.112,1.215Z"/></clipPath><clipPath id="az"><path class="e" d="M-589,171H691V-582H-589Z"/></clipPath><clipPath id="ba"><path class="e" d="M277.888-289.57A1.175,1.175,0,0,0,279-290.785,1.174,1.174,0,0,0,277.888-292H193.112A1.174,1.174,0,0,0,192-290.785a1.175,1.175,0,0,0,1.112,1.215Z"/></clipPath><clipPath id="bc"><path class="a" d="M191.3-268.826h90.908a4,4,0,0,1,4,4V-252.8a4,4,0,0,1-4,4H191.3a4,4,0,0,1-4-4v-12.027A4,4,0,0,1,191.3-268.826Z"/></clipPath><clipPath id="be"><path class="e" d="M277.888-260.57A1.175,1.175,0,0,0,279-261.785,1.174,1.174,0,0,0,277.888-263H193.112A1.174,1.174,0,0,0,192-261.785a1.175,1.175,0,0,0,1.112,1.215Z"/></clipPath><clipPath id="bg"><path class="e" d="M269.888-253.57A1.175,1.175,0,0,0,271-254.785,1.174,1.174,0,0,0,269.888-256H193.112A1.174,1.174,0,0,0,192-254.785a1.175,1.175,0,0,0,1.112,1.215Z"/></clipPath><clipPath id="bi"><path class="a" d="M191.3-233.209h39a4,4,0,0,1,4,4v12.027a4,4,0,0,1-4,4h-39a4,4,0,0,1-4-4v-12.027A4,4,0,0,1,191.3-233.209Z"/></clipPath><clipPath id="bk"><path class="e" d="M227.888-224.57A1.175,1.175,0,0,0,229-225.785,1.174,1.174,0,0,0,227.888-227H193.112A1.174,1.174,0,0,0,192-225.785a1.175,1.175,0,0,0,1.112,1.215Z"/></clipPath><clipPath id="bm"><path class="e" d="M227.888-217.57A1.175,1.175,0,0,0,229-218.785,1.174,1.174,0,0,0,227.888-220H193.112A1.174,1.174,0,0,0,192-218.785a1.175,1.175,0,0,0,1.112,1.215Z"/></clipPath><clipPath id="bo"><path class="a" d="M191.3-197.58h90.908a4,4,0,0,1,4,4v12.027a4,4,0,0,1-4,4H191.3a4,4,0,0,1-4-4V-193.58A4,4,0,0,1,191.3-197.58Z"/></clipPath><clipPath id="bq"><path class="e" d="M278.888-189.57A1.175,1.175,0,0,0,280-190.785,1.174,1.174,0,0,0,278.888-192H194.112A1.174,1.174,0,0,0,193-190.785a1.175,1.175,0,0,0,1.112,1.215Z"/></clipPath><clipPath id="bs"><path class="e" d="M238.888-182.57A1.175,1.175,0,0,0,240-183.785,1.174,1.174,0,0,0,238.888-185H194.112A1.174,1.174,0,0,0,193-183.785a1.175,1.175,0,0,0,1.112,1.215Z"/></clipPath><clipPath id="bu"><path class="a" d="M395.428-334.9h-92.59a18.47,18.47,0,0,0-18.416,18.416v55.708l8.991-8.991a18.208,18.208,0,0,0,9.425,2.609h92.59c10.129,0,4.809-21.907,4.809-32.036q7.83-1.352,9.643-.8c4.754,1.443,3.214-4.752,2.852-3.087a86.538,86.538,0,0,1,1.113-13.4A18.47,18.47,0,0,0,395.428-334.9Z"/></clipPath><clipPath id="bw"><path class="a" d="M284.422-258.863a2.052,2.052,0,0,1-.729-.141,1.924,1.924,0,0,1-1.189-1.778v-55.708a20.353,20.353,0,0,1,20.334-20.334h92.59a20.353,20.353,0,0,1,20.334,20.334v30.91a20.353,20.353,0,0,1-20.334,20.334h-92.59a20.15,20.15,0,0,1-9.08-2.161l-7.98,7.98A1.907,1.907,0,0,1,284.422-258.863Zm18.416-74.123a16.415,16.415,0,0,0-11.651,4.847,16.393,16.393,0,0,0-4.847,11.651v51.078l5.717-5.717a1.917,1.917,0,0,1,2.34-.294,16.366,16.366,0,0,0,8.44,2.34h92.59a16.415,16.415,0,0,0,11.651-4.847,16.393,16.393,0,0,0,4.847-11.65q-9.732-7.95-9.732-11.859,0-6.394,9.732-19.051a16.415,16.415,0,0,0-4.847-11.651,16.393,16.393,0,0,0-11.651-4.847Z"/></clipPath><clipPath id="by"><path class="a" d="M391.316-236.191a30.387,30.387,0,0,1-21.613-8.952,30.387,30.387,0,0,1-8.952-21.613,30.387,30.387,0,0,1,8.952-21.613,30.387,30.387,0,0,1,21.613-8.952,30.387,30.387,0,0,1,21.613,8.952,30.387,30.387,0,0,1,8.952,21.613,30.387,30.387,0,0,1-8.952,21.613A30.365,30.365,0,0,1,391.316-236.191Zm0-57.293a26.766,26.766,0,0,0-26.728,26.728,26.766,26.766,0,0,0,26.728,26.728,26.766,26.766,0,0,0,26.728-26.728A26.758,26.758,0,0,0,391.316-293.485Z"/></clipPath><clipPath id="ca"><path class="a" d="M396.416-239a38.415,38.415,0,0,1-25.869-9.687c-6.9-6.242-11.547-12.524-11.547-21.353s4.643-19.182,11.547-25.424a66.085,66.085,0,0,1,8.218-5.788s33.161-.159,37.184-.159c.245,0,.574,0,.568.159C416.194-293.485,406.2-239,396.416-239ZM384.9-294.4c-11.31,4.5-19.9,10.324-19.9,22.26C365-256.08,379.362-243,397-243S388.815-295.96,384.9-294.4Z"/></clipPath><clipPath id="cc"><path class="f" d="M376-286a8,8,0,0,0,8-8,8,8,0,0,0-8-8,8,8,0,0,0-8,8A8,8,0,0,0,376-286Z"/></clipPath><clipPath id="ce"><path class="a" d="M394.316-237.11a28.647,28.647,0,0,0,28.647-28.647A28.647,28.647,0,0,0,394.316-294.4a28.647,28.647,0,0,0-28.647,28.647A28.647,28.647,0,0,0,394.316-237.11Z"/></clipPath><clipPath id="cg"><path class="a" d="M394.316-235.191a30.387,30.387,0,0,1-21.613-8.952,30.387,30.387,0,0,1-8.952-21.613,30.387,30.387,0,0,1,8.952-21.613,30.387,30.387,0,0,1,21.613-8.952,30.387,30.387,0,0,1,21.613,8.952,30.387,30.387,0,0,1,8.952,21.613,30.387,30.387,0,0,1-8.952,21.613A30.365,30.365,0,0,1,394.316-235.191Zm0-57.293a26.766,26.766,0,0,0-26.728,26.728,26.766,26.766,0,0,0,26.728,26.728,26.766,26.766,0,0,0,26.728-26.728A26.758,26.758,0,0,0,394.316-292.485Z"/></clipPath><clipPath id="ci"><path class="a" d="M395.428-313.855a1.223,1.223,0,0,0,1.215-1.215,1.223,1.223,0,0,0-1.215-1.215h-92.59a1.223,1.223,0,0,0-1.215,1.215,1.223,1.223,0,0,0,1.215,1.215Z"/></clipPath><clipPath id="ck"><path class="a" d="M363.428-300.657a1.223,1.223,0,0,0,1.215-1.215,1.223,1.223,0,0,0-1.215-1.215h-60.59a1.223,1.223,0,0,0-1.215,1.215,1.223,1.223,0,0,0,1.215,1.215Z"/></clipPath><clipPath id="cm"><path class="a" d="M358.955-287.446a1.223,1.223,0,0,0,1.215-1.215,1.223,1.223,0,0,0-1.215-1.215H302.838a1.223,1.223,0,0,0-1.215,1.215,1.223,1.223,0,0,0,1.215,1.215Z"/></clipPath><clipPath id="co"><path class="a" d="M412.962-253.824a9,9,0,0,0-1.036.064,3.526,3.526,0,0,1,1.036,2.507v7.238a28.951,28.951,0,0,0,6.062-7.238A8.409,8.409,0,0,0,412.962-253.824Z"/></clipPath><clipPath id="cq"><path class="a" d="M412.962-242.1a1.8,1.8,0,0,1-.806-.179,1.916,1.916,0,0,1-1.113-1.739v-7.238a1.615,1.615,0,0,0-.473-1.151,1.906,1.906,0,0,1-.46-1.982,1.935,1.935,0,0,1,1.586-1.279,10.877,10.877,0,0,1,1.279-.077,10.329,10.329,0,0,1,7.443,3.146,1.913,1.913,0,0,1,.281,2.3,30.256,30.256,0,0,1-6.471,7.724A1.9,1.9,0,0,1,412.962-242.1Zm1.918-9.528a3.586,3.586,0,0,1,.013.371v2.571a24.626,24.626,0,0,0,1.624-2.174A6.592,6.592,0,0,0,414.88-251.625Z"/></clipPath><clipPath id="cs"><path class="a" d="M375.67-244.016v-7.238a3.527,3.527,0,0,1,1.036-2.507,9.374,9.374,0,0,0-1.036-.064,8.409,8.409,0,0,0-6.062,2.57A28.949,28.949,0,0,0,375.67-244.016Z"/></clipPath><clipPath id="cu"><path class="a" d="M375.67-242.1a1.922,1.922,0,0,1-1.253-.46,31.012,31.012,0,0,1-6.471-7.724,1.913,1.913,0,0,1,.281-2.3,10.278,10.278,0,0,1,7.443-3.146,11.04,11.04,0,0,1,1.279.077,1.935,1.935,0,0,1,1.586,1.279,1.906,1.906,0,0,1-.46,1.982,1.615,1.615,0,0,0-.473,1.151V-244a1.9,1.9,0,0,1-1.113,1.739A2.037,2.037,0,0,1,375.67-242.1Zm-3.542-8.76c.512.755,1.049,1.484,1.624,2.174v-2.571a3.586,3.586,0,0,1,.013-.371A6.594,6.594,0,0,0,372.127-250.857Z"/></clipPath><clipPath id="cw"><path class="a" d="M411.926-253.76a3.519,3.519,0,0,0-2.494-1.036h-30.22a3.519,3.519,0,0,0-2.494,1.036,3.527,3.527,0,0,0-1.036,2.507v7.238a28.673,28.673,0,0,0,6.382,4.156,28.538,28.538,0,0,0,12.264,2.75,28.539,28.539,0,0,0,12.264-2.75,28.235,28.235,0,0,0,6.382-4.156v-7.238A3.592,3.592,0,0,0,411.926-253.76Z"/></clipPath><clipPath id="cy"><path class="a" d="M394.316-235.191a30.155,30.155,0,0,1-13.083-2.941,31.006,31.006,0,0,1-6.816-4.425,1.913,1.913,0,0,1-.665-1.458v-7.238a5.448,5.448,0,0,1,1.6-3.862A5.428,5.428,0,0,1,379.2-256.7h30.22a5.406,5.406,0,0,1,3.849,1.586h0a5.417,5.417,0,0,1,1.6,3.862v7.238a1.933,1.933,0,0,1-.665,1.458,30.548,30.548,0,0,1-6.816,4.425A30.241,30.241,0,0,1,394.316-235.191Zm-16.728-9.719a26.659,26.659,0,0,0,5.295,3.312,26.537,26.537,0,0,0,11.433,2.571,26.313,26.313,0,0,0,11.433-2.571,27.414,27.414,0,0,0,5.294-3.312v-6.343a1.615,1.615,0,0,0-.473-1.151h0a1.607,1.607,0,0,0-1.138-.473h-30.22a1.586,1.586,0,0,0-1.138.473,1.615,1.615,0,0,0-.473,1.151v6.343Z"/></clipPath><clipPath id="da"><path class="a" d="M406.171-254.8h-23.7a1.8,1.8,0,0,1-1.79-1.79v-1.893a1.8,1.8,0,0,1,1.79-1.79h23.7a1.8,1.8,0,0,1,1.79,1.79v1.893A1.8,1.8,0,0,1,406.171-254.8Z"/></clipPath><clipPath id="dc"><path class="a" d="M406.171-252.878h-23.7a3.711,3.711,0,0,1-3.709-3.709v-1.893a3.711,3.711,0,0,1,3.709-3.709h23.7a3.712,3.712,0,0,1,3.709,3.709v1.893A3.711,3.711,0,0,1,406.171-252.878Zm-23.57-3.837h23.442v-1.637H382.6Z"/></clipPath><clipPath id="de"><path class="a" d="M406.171-260.283h-23.7a1.8,1.8,0,0,1-1.79-1.79v-1.893a1.8,1.8,0,0,1,1.79-1.79h23.7a1.8,1.8,0,0,1,1.79,1.79v1.893A1.8,1.8,0,0,1,406.171-260.283Z"/></clipPath><clipPath id="dg"><path class="a" d="M406.171-258.364h-23.7a3.711,3.711,0,0,1-3.709-3.709v-1.893a3.711,3.711,0,0,1,3.709-3.709h23.7a3.711,3.711,0,0,1,3.709,3.709v1.893A3.72,3.72,0,0,1,406.171-258.364ZM382.6-262.2h23.442v-1.637H382.6Z"/></clipPath><clipPath id="di"><path class="a" d="M412.859-266.756H375.772a1.8,1.8,0,0,1-1.79-1.79v-25.578a1.8,1.8,0,0,1,1.79-1.79h37.087a1.8,1.8,0,0,1,1.79,1.79v25.578A1.8,1.8,0,0,1,412.859-266.756Z"/></clipPath><clipPath id="dk"><path class="a" d="M406.171-278.826h-23.7a1.8,1.8,0,0,1-1.79-1.79V-286.6a1.8,1.8,0,0,1,1.79-1.79h23.7a1.8,1.8,0,0,1,1.79,1.79v5.985A1.8,1.8,0,0,1,406.171-278.826Z"/></clipPath><clipPath id="dm"><path class="a" d="M406.171-276.908h-23.7a3.711,3.711,0,0,1-3.709-3.709V-286.6a3.711,3.711,0,0,1,3.709-3.709h23.7a3.712,3.712,0,0,1,3.709,3.709v5.985A3.711,3.711,0,0,1,406.171-276.908Zm-23.57-3.837h23.442v-5.729H382.6Z"/></clipPath><clipPath id="do"><path class="a" d="M387.6-282.225a1.956,1.956,0,0,0,0-2.767,1.956,1.956,0,0,0-2.767,0,1.957,1.957,0,0,0,0,2.767A1.957,1.957,0,0,0,387.6-282.225Z"/></clipPath><clipPath id="dq"><path class="a" d="M402.194-281.653a1.957,1.957,0,0,0,1.957-1.957,1.957,1.957,0,0,0-1.957-1.957,1.957,1.957,0,0,0-1.957,1.957A1.957,1.957,0,0,0,402.194-281.653Z"/></clipPath><clipPath id="ds"><path class="a" d="M394.316-268.3c-5.371,0-9.412-2.6-9.412-6.049a1.916,1.916,0,0,1,1.918-1.918,1.916,1.916,0,0,1,1.918,1.918c0,.294.371.78,1.2,1.241a9.445,9.445,0,0,0,4.374.972,9.407,9.407,0,0,0,4.374-.972c.831-.46,1.2-.959,1.2-1.241a1.916,1.916,0,0,1,1.918-1.918,1.916,1.916,0,0,1,1.918,1.918C403.741-270.91,399.687-268.3,394.316-268.3Z"/></clipPath><clipPath id="du"><path class="a" d="M378.036-59.935A28.567,28.567,0,0,0,399.841-70a11.677,11.677,0,0,0-11.446-9.5H367.677A11.69,11.69,0,0,0,356.231-70,28.566,28.566,0,0,0,378.036-59.935Z"/></clipPath><clipPath id="dw"><path class="a" d="M378.036-58.016a30.516,30.516,0,0,1-23.263-10.743,1.9,1.9,0,0,1-.422-1.6,13.566,13.566,0,0,1,13.326-11.075h20.718a13.566,13.566,0,0,1,13.326,11.075,1.951,1.951,0,0,1-.422,1.6A30.556,30.556,0,0,1,378.036-58.016ZM358.328-70.524a26.692,26.692,0,0,0,19.707,8.671,26.692,26.692,0,0,0,19.707-8.671,9.722,9.722,0,0,0-9.349-7.059H367.677A9.722,9.722,0,0,0,358.328-70.524Z"/></clipPath><clipPath id="dy"><path class="a" d="M382.9-79.5v-7.545h-9.72V-79.5h-5.793a10.654,10.654,0,0,0,10.653,10.653A10.654,10.654,0,0,0,388.689-79.5Z"/></clipPath><clipPath id="ea"><path class="a" d="M378.036-66.93A12.586,12.586,0,0,1,365.465-79.5a1.916,1.916,0,0,1,1.918-1.918h3.875v-5.627a1.916,1.916,0,0,1,1.918-1.918h9.72a1.916,1.916,0,0,1,1.918,1.918v5.627h3.875a1.916,1.916,0,0,1,1.918,1.918A12.586,12.586,0,0,1,378.036-66.93Zm-8.53-10.653a8.75,8.75,0,0,0,8.53,6.816,8.75,8.75,0,0,0,8.53-6.816H382.9a1.916,1.916,0,0,1-1.918-1.918v-5.627h-5.883V-79.5a1.916,1.916,0,0,1-1.918,1.918Z"/></clipPath><clipPath id="ec"><path class="a" d="M381.335-84.4h-6.612a11.672,11.672,0,0,1-11.638-11.638V-110.36A11.672,11.672,0,0,1,374.724-122h6.612a11.664,11.664,0,0,1,11.638,11.638v14.323A11.672,11.672,0,0,1,381.335-84.4Z"/></clipPath><clipPath id="ee"><path class="a" d="M381.335-82.481h-6.612a13.579,13.579,0,0,1-13.556-13.556V-110.36a13.579,13.579,0,0,1,13.556-13.556h6.612a13.579,13.579,0,0,1,13.556,13.556v14.323A13.571,13.571,0,0,1,381.335-82.481Zm-6.612-37.6a9.732,9.732,0,0,0-9.72,9.72v14.323a9.732,9.732,0,0,0,9.72,9.719h6.612a9.732,9.732,0,0,0,9.72-9.719V-110.36a9.732,9.732,0,0,0-9.72-9.72Z"/></clipPath><clipPath id="eg"><path class="a" d="M378.036-113.839A8.159,8.159,0,0,0,386.2-122a8.159,8.159,0,0,0-8.159-8.159A8.159,8.159,0,0,0,369.877-122,8.159,8.159,0,0,0,378.036-113.839Z"/></clipPath><clipPath id="ei"><path class="a" d="M377.5-112A11.513,11.513,0,0,1,366-123.5,11.513,11.513,0,0,1,377.5-135,11.522,11.522,0,0,1,389-123.5,11.5,11.5,0,0,1,377.5-112Zm.5-18a7.009,7.009,0,0,0-7,7,7.009,7.009,0,0,0,7,7,7.009,7.009,0,0,0,7-7A7.009,7.009,0,0,0,378-130Z"/></clipPath><clipPath id="ek"><path class="a" d="M378.036-111.921A10.089,10.089,0,0,1,367.958-122a10.089,10.089,0,0,1,10.077-10.078A10.1,10.1,0,0,1,388.113-122,10.081,10.081,0,0,1,378.036-111.921Zm0-16.331a6.249,6.249,0,0,0-6.241,6.241,6.249,6.249,0,0,0,6.241,6.241,6.249,6.249,0,0,0,6.241-6.241A6.249,6.249,0,0,0,378.036-128.252Z"/></clipPath><clipPath id="em"><path class="a" d="M381.335-122h-6.612a11.664,11.664,0,0,0-11.638,11.638v5.269a14.837,14.837,0,0,0,4.284.627,14.837,14.837,0,0,0,12.239-6.446,14.8,14.8,0,0,0,12.239,6.446c.384,0,.755-.013,1.125-.038v-5.857A11.664,11.664,0,0,0,381.335-122Z"/></clipPath><clipPath id="eo"><path class="a" d="M360.155-113.225c0-7.684,4.676-10.619,7.8-10.691a5.161,5.161,0,0,1-.687,2.917A73.627,73.627,0,0,1,360.155-113.225Z"/></clipPath><clipPath id="eq"><path class="a" d="M391.848-102.534a16.762,16.762,0,0,1-12.239-5.307,16.74,16.74,0,0,1-12.239,5.307,16.784,16.784,0,0,1-4.847-.716,1.922,1.922,0,0,1-1.368-1.842v-5.269a13.579,13.579,0,0,1,13.556-13.556h6.612a13.579,13.579,0,0,1,13.556,13.556v5.857a1.924,1.924,0,0,1-1.778,1.918C392.7-102.559,392.27-102.534,391.848-102.534ZM365-106.588a13.345,13.345,0,0,0,2.366.217,12.92,12.92,0,0,0,10.653-5.614,1.907,1.907,0,0,1,1.586-.831,1.907,1.907,0,0,1,1.586.831,12.918,12.918,0,0,0,9.86,5.589v-3.964a9.732,9.732,0,0,0-9.72-9.72h-6.612a9.732,9.732,0,0,0-9.72,9.72v3.773Z"/></clipPath><clipPath id="es"><path class="a" d="M371.422-97.376a1.957,1.957,0,0,0,0-2.767,1.957,1.957,0,0,0-2.767,0,1.957,1.957,0,0,0,0,2.767A1.957,1.957,0,0,0,371.422-97.376Z"/></clipPath><clipPath id="eu"><path class="a" d="M386.016-96.8a1.957,1.957,0,0,0,1.957-1.957,1.957,1.957,0,0,0-1.957-1.957,1.957,1.957,0,0,0-1.957,1.957A1.957,1.957,0,0,0,386.016-96.8Z"/></clipPath><clipPath id="ew"><path class="a" d="M378.036-87.865c-4.45,0-7.942-2.724-7.942-6.19a1.916,1.916,0,0,1,1.918-1.918,1.916,1.916,0,0,1,1.918,1.918c0,1.113,1.752,2.353,4.105,2.353,1.944,0,4.105-1.01,4.105-2.353a1.916,1.916,0,0,1,1.918-1.918,1.916,1.916,0,0,1,1.918,1.918C385.978-90.589,382.486-87.865,378.036-87.865Z"/></clipPath><clipPath id="ey"><path class="a" d="M412.859-264.838H375.772a3.711,3.711,0,0,1-3.709-3.709v-25.578a3.711,3.711,0,0,1,3.709-3.709h37.087a3.711,3.711,0,0,1,3.709,3.709v25.578A3.711,3.711,0,0,1,412.859-264.838ZM375.9-268.675h36.832V-294H375.9Z"/></clipPath></defs><g transform="translate(-125.548 354.574)"><g class="g"><g class="h"><path class="i" d="M168.455-357.656H305.063v233.291H168.455Z"/></g></g><g class="j"><g class="h"><path class="d" d="M166.536-359.574H306.981v237.128H166.536Z"/></g></g><g class="k"><g class="h"><path class="d" d="M166.536-330.377H306.981V-151.63H166.536Z"/></g></g><g class="l"><g class="h"><path class="a" d="M213.522-347.629h46.486V-329.9H213.522Z"/></g></g><g class="m"><g class="h"><path class="d" d="M211.6-349.548h50.323v21.561H211.6Z"/></g></g><g class="n"><g class="h"><path class="d" d="M221.886-159.072h29.746v29.746H221.886Z"/></g></g><g class="o"><g class="h"><path class="p" d="M127.525-259.868H241V-58.579H127.525Z"/></g></g><g class="q"><g class="h"><path class="d" d="M125.6-261.782H242.892V-56.661H125.6Z"/></g></g><g class="r"><g class="h"><path class="d" d="M183.6-137.345h19.57v50.387H183.6Z"/></g></g><g class="s"><g class="h"><path class="i" d="M122.466-81.176H233.817v69.365H122.466Z"/></g></g><g class="t"><g class="h"><path class="d" d="M120.548-83.095H235.735v73.2H120.548Z"/></g></g><g class="u"><g class="h"><path class="d" d="M191.321-61.533h30.053V-31.48H191.321Z"/></g></g><g class="v"><g class="h"><path class="w" d="M148.607-254.233h18.3v28.2h-18.3Z"/></g></g><g class="x"><g class="h"><path class="d" d="M146.688-256.16h22.125v32.044H146.688Z"/></g></g><g class="y"><g class="h"><path class="d" d="M142.944-219.254h23.832v15.765H142.944Z"/></g></g><g class="z"><g class="h"><path class="d" d="M141.656-212.561h20.115V-196.8H141.656Z"/></g></g><g class="aa"><g class="h"><path class="d" d="M249.663-170.6H389.085v91.2H249.663Z"/></g></g><g class="ab"><g class="h"><path class="d" d="M247.745-172.5H391v95.022H247.745Z"/></g></g><g class="ac"><g class="h"><path class="i" d="M266.864-138.713h105.02v12.43H266.864Z"/></g></g><g class="ad"><g class="h"><path class="i" d="M266.864-125.5h81.02v12.43h-81.02Z"/></g></g><g class="ae"><g class="h"><path class="i" d="M266.864-112.3h68.56v12.43h-68.56Z"/></g></g><g class="af"><g class="h"><path class="i" d="M344.389-122.228h67.293v67.293H344.389Z"/></g></g><g class="ag"><g class="h"><path class="i" d="M339-127h75v75H339Z"/></g></g><g class="ah"><g class="h"><path class="d" d="M342.471-124.146H413.6v71.13h-71.13Z"/></g></g><g class="ai"><g class="h"><path class="aj" d="M182.3-309.455H291.213v30.027H182.3Z"/></g></g><g class="ak"><g class="al"><path class="e" d="M187-304h97v12.43H187Z"/></g></g><g class="am"><g class="al"><path class="e" d="M187-297h97v12.43H187Z"/></g></g><g class="an"><g class="h"><path class="aj" d="M182.3-273.826H291.213V-243.8H182.3Z"/></g></g><g class="ao"><g class="al"><path class="e" d="M187-268h97v12.43H187Z"/></g></g><g class="ap"><g class="al"><path class="e" d="M187-261h89v12.43H187Z"/></g></g><g class="aq"><g class="h"><path class="aj" d="M182.3-238.209h57v30.027h-57Z"/></g></g><g class="ar"><g class="al"><path class="e" d="M187-232h47v12.43H187Z"/></g></g><g class="as"><g class="al"><path class="e" d="M187-225h47v12.43H187Z"/></g></g><g class="at"><g class="h"><path class="aj" d="M182.3-202.58H291.213v30.027H182.3Z"/></g></g><g class="au"><g class="al"><path class="e" d="M188-197h97v12.43H188Z"/></g></g><g class="av"><g class="al"><path class="e" d="M188-190h57v12.43H188Z"/></g></g><g class="aw"><g class="h"><path class="e" d="M279.422-339.9H418.844v84.123H279.422Z"/></g></g><g class="ax"><g class="h"><path class="e" d="M277.5-341.823H420.763v87.96H277.5Z"/></g></g><g class="ay"><g class="h"><path class="i" d="M355.751-302.321h71.13v71.13h-71.13Z"/></g></g><g class="az"><g class="h"><path class="i" d="M354-306.411h67.517V-234H354Z"/></g></g><g class="ba"><g class="h"><path class="i" d="M363-307h26v26H363Z"/></g></g><g class="bb"><g class="h"><path class="i" d="M360.669-299.4h67.293v67.294H360.669Z"/></g></g><g class="bc"><g class="h"><path class="e" d="M358.751-301.321h71.13v71.13h-71.13Z"/></g></g><g class="bd"><g class="h"><path class="i" d="M296.623-321.285h105.02v12.43H296.623Z"/></g></g><g class="be"><g class="h"><path class="i" d="M296.623-308.087h73.02v12.43h-73.02Z"/></g></g><g class="bf"><g class="h"><path class="i" d="M296.623-294.876H365.17v12.43H296.623Z"/></g></g><g class="bg"><g class="h"><path class="aj" d="M406.926-258.824h17.1v19.809h-17.1Z"/></g></g><g class="bh"><g class="h"><path class="e" d="M405-260.743h20.958V-237.1H405Z"/></g></g><g class="bi"><g class="h"><path class="aj" d="M364.608-258.824h17.1v19.809h-17.1Z"/></g></g><g class="bj"><g class="h"><path class="e" d="M362.684-260.73h20.958V-237.1H362.684Z"/></g></g><g class="bk"><g class="h"><path class="aj" d="M370.683-259.8h47.292v27.687H370.683Z"/></g></g><g class="bl"><g class="h"><path class="e" d="M368.752-261.7h51.116v31.511H368.752Z"/></g></g><g class="bm"><g class="h"><path class="aj" d="M375.683-265.27h37.278V-249.8H375.683Z"/></g></g><g class="bn"><g class="h"><path class="e" d="M373.765-267.188H414.88v19.31H373.765Z"/></g></g><g class="bo"><g class="h"><path class="aj" d="M375.683-270.756h37.278v15.474H375.683Z"/></g></g><g class="bp"><g class="h"><path class="e" d="M373.765-272.675H414.88v19.31H373.765Z"/></g></g><g class="bq"><g class="h"><path class="br" d="M368.982-300.915H419.65v39.158H368.982Z"/></g></g><g class="bs"><g class="h"><path class="i" d="M375.683-293.392h37.278v19.566H375.683Z"/></g></g><g class="bt"><g class="h"><path class="e" d="M373.765-295.311H414.88v23.4H373.765Z"/></g></g><g class="bu"><g class="h"><path class="e" d="M376.377-283.609l9.838-9.838,9.838,9.838-9.838,9.838Z"/></g></g><g class="bv"><g class="h"><path class="e" d="M395.237-290.566H409.15v13.913H395.237Z"/></g></g><g class="bw"><g class="h"><path class="e" d="M379.9-281.269h28.825V-263.3H379.9Z"/></g></g><g class="bx"><g class="h"><path class="p" d="M351.231-84.5h53.609v29.567H351.231Z"/></g></g><g class="by"><g class="h"><path class="d" d="M349.315-86.432h57.436v33.416H349.315Z"/></g></g><g class="bz"><g class="h"><path class="ca" d="M362.383-92.047h31.306v28.2H362.383Z"/></g></g><g class="cb"><g class="h"><path class="d" d="M360.465-93.965h35.143V-61.93H360.465Z"/></g></g><g class="cc"><g class="h"><path class="ca" d="M358.086-127h39.887v47.6H358.086Z"/></g></g><g class="cd"><g class="h"><path class="d" d="M356.168-128.917h43.724v51.435H356.168Z"/></g></g><g class="ce"><g class="h"><path class="p" d="M364.877-135.158H391.2v26.318H364.877Z"/></g></g><g class="cf"><g class="h"><path class="i" d="M361-140h33v33H361Z"/></g></g><g class="cg"><g class="h"><path class="d" d="M362.958-137.076h30.155v30.155H362.958Z"/></g></g><g class="ch"><g class="h"><path class="p" d="M358.086-127h39.887v27.533H358.086Z"/></g></g><g class="ci"><g class="h"><path class="i" d="M355.155-128.917h17.8v20.691h-17.8Z"/></g></g><g class="cj"><g class="h"><path class="d" d="M356.155-128.917h43.724v31.383H356.155Z"/></g></g><g class="ck"><g class="h"><path class="d" d="M363.082-105.716H377V-91.8H363.082Z"/></g></g><g class="cl"><g class="h"><path class="d" d="M379.059-105.718h13.913V-91.8H379.059Z"/></g></g><g class="cm"><g class="h"><path class="d" d="M365.094-100.973h25.884v18.108H365.094Z"/></g></g><g class="cn"><g class="h"><path class="e" d="M367.064-302.833h54.5v42.995h-54.5Z"/></g></g></g></svg>