<svg xmlns="http://www.w3.org/2000/svg" width="19.175" height="23.232" viewBox="0 0 19.175 23.232"><defs><style>.a{fill:#206dfe;}</style></defs><g transform="translate(-65.976 -371.065)"><path class="a" d="M57.907,0h-9.76a2.574,2.574,0,0,0-2.571,2.571v.316h-1.7A2.574,2.574,0,0,0,41.3,5.458v15.2a2.574,2.574,0,0,0,2.571,2.571h9.76a2.574,2.574,0,0,0,2.571-2.571v-.316h1.7a2.574,2.574,0,0,0,2.571-2.571V2.571A2.574,2.574,0,0,0,57.907,0ZM54.547,20.661a.914.914,0,0,1-.913.913h-9.76a.914.914,0,0,1-.913-.913V5.458a.914.914,0,0,1,.913-.913h9.76a.914.914,0,0,1,.913.913v15.2Zm4.272-2.887a.914.914,0,0,1-.913.913h-1.7V5.458a2.574,2.574,0,0,0-2.571-2.571h-6.4V2.571a.914.914,0,0,1,.913-.913h9.76a.914.914,0,0,1,.913.913v15.2Z" transform="translate(24.673 371.065)"/></g></svg>