<svg xmlns="http://www.w3.org/2000/svg" xmlns:xlink="http://www.w3.org/1999/xlink" width="330" height="364" viewBox="0 0 330 364"><defs><style>.a{fill:none;}.b{clip-path:url(#a);}.c{clip-path:url(#b);}.d{fill:#eacdb0;}.e{clip-path:url(#c);}.f{fill:#206dff;}.g{clip-path:url(#e);}.h{fill:#a7ceff;}.i{clip-path:url(#g);}.j{clip-path:url(#i);}.k{fill:#2e4561;}.l{clip-path:url(#k);}.m{fill:#99c7ff;}.n{clip-path:url(#m);}.o{clip-path:url(#o);}.p{clip-path:url(#q);}.q{fill:#00e05d;}.r{clip-path:url(#s);}.s{clip-path:url(#u);}.t{clip-path:url(#w);}.u{clip-path:url(#y);}.v{clip-path:url(#aa);}.w{clip-path:url(#ac);}.x{clip-path:url(#ae);}.y{clip-path:url(#ag);}.z{clip-path:url(#ai);}.aa{clip-path:url(#ak);}.ab{clip-path:url(#am);}.ac{clip-path:url(#ao);}.ad{clip-path:url(#aq);}.ae{clip-path:url(#as);}.af{clip-path:url(#au);}.ag{clip-path:url(#aw);}.ah{clip-path:url(#ay);}.ai{clip-path:url(#ba);}.aj{clip-path:url(#bc);}.ak{clip-path:url(#be);}.al{clip-path:url(#bg);}.am{clip-path:url(#bi);}.an{clip-path:url(#bk);}.ao{clip-path:url(#bm);}.ap{clip-path:url(#bo);}</style><clipPath id="a"><path class="a" d="M327.091-109.055s-18.612-23.575-18.548-23.511c-1.356.9-8.511,6.449-10.075,5.768l-9.28-4.055a4.831,4.831,0,0,1-2.756-3.23c-.825.047-17.148.845-13.884-8.917-3.977,10.994.966,16.805.966,16.805s26.68,20.414,33.985,23.93S323.446-70,323.446-70L339-76.991Z"/></clipPath><clipPath id="b"><path class="a" d="M-571,200H709V-553H-571Z"/></clipPath><clipPath id="c"><path class="a" d="M186.977-272.018A27.906,27.906,0,0,1,214-289.978L194.532-240A28.963,28.963,0,0,1,186.977-272.018Z"/></clipPath><clipPath id="e"><path class="a" d="M335.428-249.427l44.05,17.535a4.491,4.491,0,0,1,2.632,5.777L360.5-171.859a4.492,4.492,0,0,1-5.884,2.387h0l-44.05-17.535"/></clipPath><clipPath id="g"><path class="a" d="M312.169-186.738A180.041,180.041,0,0,0,172-184h0l65.052-164A180.95,180.95,0,0,0,337-249.34"/></clipPath><clipPath id="i"><path class="a" d="M338-176.2,302.966-107.89a6.451,6.451,0,0,1-7.762,2.433l-24.141-9.6a6.443,6.443,0,0,1-3.768-4.057,6.427,6.427,0,0,1,.777-5.477L313.282-186Z"/></clipPath><clipPath id="k"><path class="a" d="M236.464-346,172-184c42.252-18.7,94.13-19.96,140.555-2.216"/></clipPath><clipPath id="m"><path class="a" d="M286.2-134.034h.4l-.041-.02a7.112,7.112,0,0,0,5.271-2.639s9.441-9.453,14.485-16.7,1.426-11.539,1.426-11.539l-1.35-.632L299.071-169s-13.062,2.747-22.943,18.568a39.011,39.011,0,0,0-3.7,7.481C269.2-133.189,285.383-133.987,286.2-134.034Z"/></clipPath><clipPath id="o"><path class="a" d="M343.182-120.57c0-1.325-.235-34.777-.235-34.777L316.488-181.61s-5.833-.878-8.523,0,0,19.643,11.214,24.283a55.165,55.165,0,0,0-5.878,18.186l-1.784,13.165L316.53-110.4s2.777,0,4.126-1.223l6.6,5.942L336-75l21-10.825S343.182-119.259,343.182-120.57Z"/></clipPath><clipPath id="q"><path class="a" d="M368.652-95,317-71.592,334.91-7H414L368.652-95Z"/></clipPath><clipPath id="s"><path class="a" d="M193.57-333s1.3,9.31-9.57,9.09c0,0,9.34.1,9.09,8.83,0,0,.84-6.87,9.42-8.41C202.51-323.49,195.26-321.82,193.57-333Z"/></clipPath><clipPath id="u"><path class="a" d="M125.57-262s1.3,9.31-9.57,9.09c0,0,9.34.1,9.09,8.83,0,0,.84-6.87,9.42-8.41C134.51-252.49,127.26-250.82,125.57-262Z"/></clipPath><clipPath id="w"><path class="a" d="M125.57-333s1.3,9.31-9.57,9.09c0,0,9.34.1,9.09,8.83,0,0,.84-6.87,9.42-8.41C134.51-323.49,127.26-321.82,125.57-333Z"/></clipPath><clipPath id="y"><path class="a" d="M172.929-281.555a2.285,2.285,0,0,1,.371,1.675,2.254,2.254,0,0,1-2.6,1.817l-29.823-5.266a2.243,2.243,0,0,1-1.849-1.419,2.241,2.241,0,0,1,.409-2.294,2.24,2.24,0,0,1,2.225-.69l29.823,5.266a2.228,2.228,0,0,1,1.439.91Z"/></clipPath><clipPath id="aa"><path class="a" d="M173.3-246.675a2.286,2.286,0,0,1,.947,1.431,2.254,2.254,0,0,1-1.772,2.627l-29.73,5.771a2.243,2.243,0,0,1-2.235-.662,2.241,2.241,0,0,1-.44-2.288,2.24,2.24,0,0,1,1.83-1.441l29.729-5.771a2.228,2.228,0,0,1,1.669.334Z"/></clipPath><clipPath id="ac"><path class="a" d="M183.994-307.326a2.286,2.286,0,0,1-.516,1.636,2.254,2.254,0,0,1-3.157.276l-23.194-19.472a2.243,2.243,0,0,1-.892-2.153,2.241,2.241,0,0,1,1.5-1.782,2.24,2.24,0,0,1,2.272.515L183.2-308.834a2.228,2.228,0,0,1,.791,1.507Z"/></clipPath><clipPath id="ae"><path class="a" d="M124.72-289.14a3.86,3.86,0,0,1-3.86,3.86,3.86,3.86,0,0,1-3.86-3.86,3.86,3.86,0,0,1,3.86-3.86,3.86,3.86,0,0,1,3.86,3.86Zm-1.91,0a1.95,1.95,0,0,0-1.966-1.9,1.95,1.95,0,0,0-1.933,1.933,1.95,1.95,0,0,0,1.9,1.966,1.94,1.94,0,0,0,1.433-.567,1.94,1.94,0,0,0,.567-1.433Z"/></clipPath><clipPath id="ag"><path class="a" d="M148.72-353.14a3.86,3.86,0,0,1-3.86,3.86,3.86,3.86,0,0,1-3.86-3.86,3.86,3.86,0,0,1,3.86-3.86,3.86,3.86,0,0,1,3.86,3.86Zm-1.91,0a1.95,1.95,0,0,0-1.966-1.9,1.95,1.95,0,0,0-1.933,1.933,1.95,1.95,0,0,0,1.9,1.966,1.94,1.94,0,0,0,1.433-.567,1.94,1.94,0,0,0,.567-1.433Z"/></clipPath><clipPath id="ai"><path class="a" d="M164.72-217.14a3.86,3.86,0,0,1-3.86,3.86,3.86,3.86,0,0,1-3.86-3.86,3.86,3.86,0,0,1,3.86-3.86,3.86,3.86,0,0,1,3.86,3.86Zm-1.91,0a1.95,1.95,0,0,0-1.966-1.9,1.95,1.95,0,0,0-1.933,1.933,1.95,1.95,0,0,0,1.9,1.966,1.94,1.94,0,0,0,1.433-.567,1.94,1.94,0,0,0,.567-1.433Z"/></clipPath><clipPath id="ak"><path class="a" d="M145.423-212.18a.94.94,0,0,0-.693.292.94.94,0,0,0-.257.708v2.22a1,1,0,0,0,.955.7,1,1,0,0,0,.955-.7v-2.3A1,1,0,0,0,145.423-212.18Z"/></clipPath><clipPath id="am"><path class="a" d="M142.923-214.41H140.7a1,1,0,0,0-.7.955,1,1,0,0,0,.7.955h2.22a1,1,0,0,0,1.108-.371,1,1,0,0,0,0-1.169A1,1,0,0,0,142.923-214.41Z"/></clipPath><clipPath id="ao"><path class="a" d="M145.423-219a1,1,0,0,0-.95.95v2.22a1,1,0,0,0,.371,1.108,1,1,0,0,0,1.169,0,1,1,0,0,0,.371-1.108v-2.22A1,1,0,0,0,145.423-219Z"/></clipPath><clipPath id="aq"><path class="a" d="M150.143-214.56h-2.22a1,1,0,0,0-.7.955,1,1,0,0,0,.7.955h2.22a1,1,0,0,0,1.108-.371,1,1,0,0,0,0-1.169A1,1,0,0,0,150.143-214.56Z"/></clipPath><clipPath id="as"><path class="a" d="M161.423-260.18a.94.94,0,0,0-.693.292.94.94,0,0,0-.257.708v2.22a1,1,0,0,0,.955.7,1,1,0,0,0,.955-.7v-2.3A1,1,0,0,0,161.423-260.18Z"/></clipPath><clipPath id="au"><path class="a" d="M158.923-262.41H156.7a1,1,0,0,0-.7.955,1,1,0,0,0,.7.955h2.22a1,1,0,0,0,1.108-.371,1,1,0,0,0,0-1.169A1,1,0,0,0,158.923-262.41Z"/></clipPath><clipPath id="aw"><path class="a" d="M161.423-267a1,1,0,0,0-.95.95v2.22a1,1,0,0,0,.371,1.108,1,1,0,0,0,1.169,0,1,1,0,0,0,.371-1.108v-2.22A1,1,0,0,0,161.423-267Z"/></clipPath><clipPath id="ay"><path class="a" d="M166.143-262.56h-2.22a1,1,0,0,0-.7.955,1,1,0,0,0,.7.955h2.22a1,1,0,0,0,1.108-.371,1,1,0,0,0,0-1.169A1,1,0,0,0,166.143-262.56Z"/></clipPath><clipPath id="ba"><path class="a" d="M89.423-268.18a.94.94,0,0,0-.693.292.94.94,0,0,0-.257.708v2.22a1,1,0,0,0,.955.7,1,1,0,0,0,.955-.7v-2.3A1,1,0,0,0,89.423-268.18Z"/></clipPath><clipPath id="bc"><path class="a" d="M86.923-270.41H84.7a1,1,0,0,0-.7.955,1,1,0,0,0,.7.955h2.22a1,1,0,0,0,1.108-.371,1,1,0,0,0,0-1.169A1,1,0,0,0,86.923-270.41Z"/></clipPath><clipPath id="be"><path class="a" d="M89.423-275a1,1,0,0,0-.95.95v2.22a1,1,0,0,0,.371,1.108,1,1,0,0,0,1.169,0,1,1,0,0,0,.371-1.108v-2.22A1,1,0,0,0,89.423-275Z"/></clipPath><clipPath id="bg"><path class="a" d="M94.143-270.56h-2.22a1,1,0,0,0-.7.955,1,1,0,0,0,.7.955h2.22a1,1,0,0,0,1.108-.371,1,1,0,0,0,0-1.169A1,1,0,0,0,94.143-270.56Z"/></clipPath><clipPath id="bi"><path class="a" d="M193.423-364.18a.94.94,0,0,0-.693.292.94.94,0,0,0-.257.708v2.22a1,1,0,0,0,.955.7,1,1,0,0,0,.955-.7v-2.3A1,1,0,0,0,193.423-364.18Z"/></clipPath><clipPath id="bk"><path class="a" d="M190.923-366.41H188.7a1,1,0,0,0-.7.955,1,1,0,0,0,.7.955h2.22a1,1,0,0,0,1.108-.371,1,1,0,0,0,0-1.169A1,1,0,0,0,190.923-366.41Z"/></clipPath><clipPath id="bm"><path class="a" d="M193.423-371a1,1,0,0,0-.95.95v2.22a1,1,0,0,0,.371,1.108,1,1,0,0,0,1.169,0,1,1,0,0,0,.371-1.108v-2.22A1,1,0,0,0,193.423-371Z"/></clipPath><clipPath id="bo"><path class="a" d="M198.143-366.56h-2.22a1,1,0,0,0-.7.955,1,1,0,0,0,.7.955h2.22a1,1,0,0,0,1.108-.371,1,1,0,0,0,0-1.169A1,1,0,0,0,198.143-366.56Z"/></clipPath></defs><g transform="translate(-84 371)"><g class="b"><g class="c"><path class="d" d="M266-148h78v83H266Z"/></g></g><g class="e"><g class="c"><path class="f" d="M180-295h39v60H180Z"/></g></g><g class="g"><g class="c"><path class="h" d="M361.677-161.277l-57.6-22.934,28.554-71.716,57.6,22.934Z"/></g></g><g class="i"><g class="c"><path class="h" d="M167-353H342v174H167Z"/></g></g><g class="j"><g class="c"><path class="k" d="M262-191h81v91H262Z"/></g></g><g class="l"><g class="c"><path class="m" d="M167-351H317.555v172H167Z"/></g></g><g class="n"><g class="c"><path class="d" d="M267-174h47v45H267Z"/></g></g><g class="o"><g class="c"><path class="d" d="M302-187h60V-70H302Z"/></g></g><g class="p"><g class="c"><path class="q" d="M312-100H419V-2H312Z"/></g></g><g class="r"><g class="c"><path class="q" d="M179-338h28.51v27.92H179Z"/></g></g><g class="s"><g class="c"><path class="q" d="M111-267h28.51v27.92H111Z"/></g></g><g class="t"><g class="c"><path class="q" d="M111-338h28.51v27.92H111Z"/></g></g><g class="u"><g class="c"><path class="f" d="M151.685-257.847l-20.649-29.49,29.489-20.649,20.649,29.49Z"/></g></g><g class="v"><g class="c"><path class="f" d="M161.963-216.928l-29.845-20.131L152.248-266.9l29.845,20.131Z"/></g></g><g class="w"><g class="c"><path class="f" d="M153.743-297.416l-3.138-35.863,35.863-3.138,3.138,35.863Z"/></g></g><g class="x"><g class="c"><path class="q" d="M112-298h17.72v17.72H112Z"/></g></g><g class="y"><g class="c"><path class="q" d="M136-362h17.72v17.72H136Z"/></g></g><g class="z"><g class="c"><path class="q" d="M152-226h17.72v17.72H152Z"/></g></g><g class="aa"><g class="c"><path class="q" d="M139.471-217.18h11.912v13.923H139.471Z"/></g></g><g class="ab"><g class="c"><path class="q" d="M135-219.455h14.22v12H135Z"/></g></g><g class="ac"><g class="c"><path class="q" d="M139.428-224h12v14.467h-12Z"/></g></g><g class="ad"><g class="c"><path class="q" d="M142.22-219.605h14.22v12H142.22Z"/></g></g><g class="ae"><g class="c"><path class="q" d="M155.471-265.18h11.912v13.924H155.471Z"/></g></g><g class="af"><g class="c"><path class="q" d="M151-267.455h14.22v12H151Z"/></g></g><g class="ag"><g class="c"><path class="q" d="M155.428-272h12v14.467h-12Z"/></g></g><g class="ah"><g class="c"><path class="q" d="M158.22-267.605h14.22v12H158.22Z"/></g></g><g class="ai"><g class="c"><path class="q" d="M83.471-273.18H95.383v13.924H83.471Z"/></g></g><g class="aj"><g class="c"><path class="q" d="M79-275.455H93.22v12H79Z"/></g></g><g class="ak"><g class="c"><path class="q" d="M83.428-280h12v14.467h-12Z"/></g></g><g class="al"><g class="c"><path class="q" d="M86.22-275.605h14.22v12H86.22Z"/></g></g><g class="am"><g class="c"><path class="q" d="M187.471-369.18h11.912v13.924H187.471Z"/></g></g><g class="an"><g class="c"><path class="q" d="M183-371.455h14.22v12H183Z"/></g></g><g class="ao"><g class="c"><path class="q" d="M187.428-376h12v14.467h-12Z"/></g></g><g class="ap"><g class="c"><path class="q" d="M190.22-371.605h14.22v12H190.22Z"/></g></g></g></svg>