<svg xmlns="http://www.w3.org/2000/svg" width="224" height="57.125" viewBox="0 0 224 57.125"><defs><style>.a{fill:none;stroke:#206dff;stroke-width:4px;}.b,.c{fill:#206dff;}.c{fill-rule:evenodd;}</style></defs><path class="a" d="M51.875,26.938A24.938,24.938,0,1,0,26.938,51.875h0"/><path class="a" d="M41.375,26.5A14.875,14.875,0,1,0,26.5,41.375h0"/><path class="b" d="M39.492,57.125a5.684,5.684,0,0,1-1.317-.156,5.6,5.6,0,0,1-4.054-3.7L27.664,33.923A5.641,5.641,0,0,1,34.8,26.789l19.347,6.447a5.64,5.64,0,0,1,2.2,9.34L51.819,47.1l-2.576-2.576L53.771,40a2,2,0,0,0-.781-3.309L33.659,30.244a2,2,0,0,0-2.529,2.524L37.577,52.1a2,2,0,0,0,3.31.781L45.263,48.5l2.6,2.576-4.376,4.376A5.594,5.594,0,0,1,39.492,57.125Z"/><path class="c" d="M154.164,39.57H150.61V37.325h-.063a5.088,5.088,0,0,1-2.167,2,6.626,6.626,0,0,1-2.977.686,6.98,6.98,0,0,1-5.378-2.354,7.608,7.608,0,0,1-1.465-2.525,9.207,9.207,0,0,1-.515-3.1,8.842,8.842,0,0,1,.53-3.086,7.533,7.533,0,0,1,1.5-2.494,6.979,6.979,0,0,1,5.237-2.276,6.531,6.531,0,0,1,3.258.811,5.474,5.474,0,0,1,1.045.748,5.975,5.975,0,0,1,.717.779h.093V16h3.742Zm-73.173-16.9a5.03,5.03,0,0,0-2.276-1.73,7.64,7.64,0,0,0-5.861.078,7.308,7.308,0,0,0-2.416,1.715,7.619,7.619,0,0,0-1.559,2.557,9.044,9.044,0,0,0-.546,3.18,9.842,9.842,0,0,0,.53,3.3,7.452,7.452,0,0,0,1.512,2.572,6.793,6.793,0,0,0,2.354,1.668,7.712,7.712,0,0,0,3.087.592,6.821,6.821,0,0,0,3.149-.7,6.154,6.154,0,0,0,2.214-1.855l3.149,2.214a10.089,10.089,0,0,1-3.585,2.853,11.38,11.38,0,0,1-4.957,1.013,12.811,12.811,0,0,1-4.754-.857,10.747,10.747,0,0,1-6.157-6.08A12.371,12.371,0,0,1,64,28.471a11.984,11.984,0,0,1,.92-4.786,10.658,10.658,0,0,1,2.525-3.632,11.211,11.211,0,0,1,3.788-2.307,13.507,13.507,0,0,1,4.739-.811,12.8,12.8,0,0,1,2.214.2,11.262,11.262,0,0,1,2.214.623,10.718,10.718,0,0,1,2,1.044,6.422,6.422,0,0,1,1.59,1.5ZM85.949,24.6h3.585V27.1H89.6a5.457,5.457,0,0,1,1.746-2.12,4.355,4.355,0,0,1,2.619-.811q.218,0,.468.016a1.724,1.724,0,0,1,.436.078v3.429a5.237,5.237,0,0,0-.639-.125,4.42,4.42,0,0,0-.514-.031A3.969,3.969,0,0,0,91.654,28a3.741,3.741,0,0,0-1.216,1.122,4.02,4.02,0,0,0-.592,1.341,5.218,5.218,0,0,0-.156,1.091V39.57H85.949Zm9.93,4.193a7.914,7.914,0,0,0-.639,3.227,8.024,8.024,0,0,0,.639,3.242,7.679,7.679,0,0,0,1.73,2.51,7.9,7.9,0,0,0,2.587,1.637,8.835,8.835,0,0,0,6.361,0,7.9,7.9,0,0,0,2.587-1.637,7.686,7.686,0,0,0,1.731-2.51,8.025,8.025,0,0,0,.639-3.242,7.916,7.916,0,0,0-.639-3.227,7.442,7.442,0,0,0-4.318-4.069,9.295,9.295,0,0,0-6.361,0,7.631,7.631,0,0,0-2.587,1.59A7.546,7.546,0,0,0,95.878,28.8Zm3.164,3.227a5.982,5.982,0,0,0,.265,1.746,4.8,4.8,0,0,0,.8,1.559,4.159,4.159,0,0,0,1.34,1.122,4.5,4.5,0,0,0,3.866,0,4.153,4.153,0,0,0,1.341-1.122,4.822,4.822,0,0,0,.795-1.559,5.971,5.971,0,0,0,.265-1.746,5.819,5.819,0,0,0-.265-1.73,4.849,4.849,0,0,0-.795-1.543,3.985,3.985,0,0,0-1.341-1.107,4.649,4.649,0,0,0-3.866,0,3.991,3.991,0,0,0-1.34,1.107,4.83,4.83,0,0,0-.8,1.543A5.829,5.829,0,0,0,99.043,32.025Zm17.4-7.42h-4.053l5.206,14.965h3.8l3.367-10.476h.062l3.4,10.476h3.8L137.2,24.6h-3.9l-3.18,10.725h-.062L126.822,24.6h-3.991L119.62,35.33h-.063Zm25.674,9.166a5.971,5.971,0,0,1-.265-1.746,5.819,5.819,0,0,1,.265-1.73,4.808,4.808,0,0,1,.795-1.543,3.991,3.991,0,0,1,1.34-1.107,4.077,4.077,0,0,1,1.9-.421,3.821,3.821,0,0,1,1.84.437,4.71,4.71,0,0,1,1.387,1.122,4.772,4.772,0,0,1,.873,1.559,5.417,5.417,0,0,1,.3,1.746,5.279,5.279,0,0,1-.3,1.73,4.807,4.807,0,0,1-.873,1.543,4.5,4.5,0,0,1-1.387,1.107,4.3,4.3,0,0,1-3.742-.016,4.159,4.159,0,0,1-1.34-1.122A4.782,4.782,0,0,1,142.114,33.771Zm32.1-11.1a5.029,5.029,0,0,0-2.275-1.73,7.642,7.642,0,0,0-5.862.078,7.316,7.316,0,0,0-2.416,1.715,7.632,7.632,0,0,0-1.559,2.557,9.037,9.037,0,0,0-.545,3.18,9.824,9.824,0,0,0,.53,3.3,7.442,7.442,0,0,0,1.512,2.572,6.782,6.782,0,0,0,2.354,1.668,7.708,7.708,0,0,0,3.086.592,6.823,6.823,0,0,0,3.149-.7,6.168,6.168,0,0,0,2.214-1.855l3.148,2.214a10.092,10.092,0,0,1-3.585,2.853A11.379,11.379,0,0,1,169,40.131a12.817,12.817,0,0,1-4.755-.857,10.75,10.75,0,0,1-6.157-6.08,12.371,12.371,0,0,1-.873-4.723,11.985,11.985,0,0,1,.92-4.786,10.661,10.661,0,0,1,2.525-3.632,11.206,11.206,0,0,1,3.788-2.307,13.509,13.509,0,0,1,4.739-.811,12.809,12.809,0,0,1,2.214.2,11.262,11.262,0,0,1,2.213.623,10.684,10.684,0,0,1,2,1.044,6.4,6.4,0,0,1,1.59,1.5ZM182.971,16H179.23V39.57h3.741Zm3.991,8.6H190.7V39.57h-3.741Zm.14-6.656a2.185,2.185,0,0,0,0,3.149,2.3,2.3,0,0,0,1.7.67,2.476,2.476,0,0,0,1.731-.639,2.189,2.189,0,0,0,0-3.211,2.476,2.476,0,0,0-1.731-.639A2.3,2.3,0,0,0,187.1,17.949Zm17.755,10.8a3.3,3.3,0,0,0-1.309-1.045,4.051,4.051,0,0,0-1.777-.421,3.744,3.744,0,0,0-1.808.421,3.924,3.924,0,0,0-1.294,1.107,4.761,4.761,0,0,0-.764,1.543,6.176,6.176,0,0,0-.25,1.73,5.82,5.82,0,0,0,.266,1.73,4.81,4.81,0,0,0,.795,1.543,4.036,4.036,0,0,0,1.325,1.107,3.908,3.908,0,0,0,1.855.421,4.74,4.74,0,0,0,1.745-.343,3.324,3.324,0,0,0,1.4-1l2.339,2.369A6.205,6.205,0,0,1,205,39.461a8.826,8.826,0,0,1-3.134.546,9.226,9.226,0,0,1-3.133-.53,7.3,7.3,0,0,1-4.333-4.053,8.253,8.253,0,0,1-.64-3.336,8.09,8.09,0,0,1,.64-3.274,7.494,7.494,0,0,1,1.73-2.494,7.722,7.722,0,0,1,2.541-1.59,8.67,8.67,0,0,1,6.3.062,6.042,6.042,0,0,1,2.448,1.715ZM213.026,16h-3.742V39.57h3.742V31.9h.093l5.924,7.67H224l-6.89-8.2L223.6,24.6h-4.8l-5.674,6.3h-.093Z"/></svg>