<?xml version="1.0" standalone="no"?>
<!DOCTYPE svg PUBLIC "-//W3C//DTD SVG 20010904//EN"
 "http://www.w3.org/TR/2001/REC-SVG-20010904/DTD/svg10.dtd">
<svg version="1.0" xmlns="http://www.w3.org/2000/svg"
 width="1280.000000pt" height="1152.000000pt" viewBox="0 0 1280.000000 1152.000000"
 preserveAspectRatio="xMidYMid meet">
<metadata>
Created by potrace 1.15, written by Peter Selinger 2001-2017
</metadata>
<g transform="translate(0.000000,1152.000000) scale(0.100000,-0.100000)"
fill="#000000" stroke="none">
<path d="M3660 11510 c-74 -5 -203 -16 -285 -24 -83 -9 -232 -23 -332 -31
-172 -14 -465 -44 -470 -49 -2 -2 43 -15 100 -31 335 -92 707 -242 942 -380
1002 -585 1923 -1544 2191 -2280 35 -95 45 -93 18 3 -88 312 -287 647 -618
1042 -39 46 -154 170 -256 274 -149 153 -165 172 -81 96 122 -111 320 -322
454 -482 512 -613 865 -1299 1056 -2050 26 -99 44 -154 54 -156 14 -3 70 34
160 107 l55 45 -42 55 c-61 82 -89 127 -140 229 -134 267 -148 561 -39 805
l27 61 13 -83 c44 -284 218 -568 482 -787 76 -63 73 -64 177 57 l68 80 29 -83
c15 -46 39 -123 53 -173 15 -49 30 -94 34 -98 11 -12 85 185 109 291 41 175
47 347 19 527 l-11 70 -24 -90 c-13 -49 -40 -128 -60 -175 -37 -85 -125 -244
-142 -254 -5 -3 -32 54 -61 127 -63 160 -223 492 -310 642 -412 718 -1006
1344 -1730 1826 -419 279 -934 530 -1422 694 -90 30 -158 55 -152 55 52 1 504
-118 734 -193 1418 -465 2899 -1483 3537 -2432 33 -49 68 -105 77 -122 18 -35
30 -45 19 -15 -4 9 -31 62 -61 117 -145 263 -353 526 -639 806 -1022 1001
-2665 1818 -3854 1919 -79 7 -40 8 156 5 1113 -18 2209 -351 3125 -950 1058
-692 1785 -1675 2050 -2774 l23 -94 -24 -18 c-42 -32 -220 -97 -329 -120 -89
-20 -134 -23 -295 -23 -167 0 -205 3 -317 27 -121 26 -308 86 -375 121 -40 20
-47 20 -38 -1 24 -62 120 -541 110 -551 -11 -11 -228 89 -338 155 l-59 35 -31
-30 c-45 -42 -174 -133 -249 -175 -85 -47 -246 -110 -264 -103 -9 4 -14 21
-14 53 0 65 -26 306 -40 370 -11 52 -12 52 -35 37 -42 -27 -208 -40 -353 -26
-149 14 -240 32 -364 73 -348 113 -628 351 -729 619 -87 229 -108 547 -50 770
10 41 18 76 16 78 -4 4 -52 -99 -82 -178 -13 -35 -36 -112 -51 -170 -24 -96
-26 -122 -27 -305 0 -219 10 -287 66 -452 173 -512 633 -878 1163 -925 34 -3
40 -14 55 -93 22 -123 113 -255 221 -325 56 -36 155 -70 205 -70 l33 0 -5
-112 c-2 -62 -11 -180 -18 -263 l-13 -150 -154 -150 c-403 -394 -889 -681
-1443 -851 -60 -19 -118 -34 -127 -34 -37 0 -15 -19 70 -58 97 -45 215 -82
350 -109 110 -22 431 -25 537 -4 166 32 338 90 463 156 34 18 62 28 61 21 0
-6 -15 -49 -33 -96 l-33 -85 -99 -41 c-170 -70 -293 -153 -416 -282 -204 -214
-329 -528 -328 -822 l0 -55 33 60 c69 128 154 232 264 324 62 51 187 131 206
131 9 0 -55 -104 -155 -254 -438 -656 -1043 -1220 -1737 -1620 -840 -484
-1756 -726 -2745 -726 -398 0 -762 35 -1091 104 -38 8 -71 13 -72 12 -4 -3 72
-57 229 -162 76 -50 135 -94 132 -97 -11 -11 276 -195 510 -327 150 -85 462
-237 621 -303 748 -312 1465 -468 2330 -507 116 -5 278 -14 360 -21 180 -13
532 -6 765 16 811 77 1620 310 2350 675 427 214 788 462 1047 719 l102 101
197 56 c109 30 204 53 211 52 6 -2 276 -381 600 -843 323 -463 593 -842 598
-843 6 -2 20 50 32 115 247 1338 434 2342 438 2359 3 16 285 180 1131 660
l1126 639 -58 8 c-33 4 -462 34 -954 67 -969 66 -1204 82 -1207 84 0 0 23 109
52 241 29 132 131 591 225 1020 94 429 189 857 210 950 21 94 37 171 36 172
-1 1 -218 -292 -481 -652 -264 -359 -483 -654 -486 -654 -3 -1 -2 23 2 52 34
208 43 365 43 727 1 381 -3 448 -45 750 -214 1553 -1133 2975 -2519 3897 -874
581 -1866 929 -2946 1033 -238 23 -782 34 -1004 20z m5523 -3312 c38 -113 50
-212 44 -350 -6 -128 -23 -204 -70 -310 -53 -118 -158 -248 -266 -328 -33 -25
-60 -51 -61 -57 0 -7 13 -79 30 -160 31 -156 61 -358 82 -558 18 -162 17 -837
0 -1005 -30 -292 -72 -539 -134 -793 -29 -118 -45 -167 -53 -163 -7 2 -181 59
-386 126 -206 67 -435 141 -509 165 -74 25 -135 43 -137 41 -2 -1 57 -108 130
-237 74 -129 232 -407 352 -619 l219 -385 43 90 c69 146 177 427 238 620 32
99 61 184 65 188 4 4 18 3 31 -2 13 -6 179 -61 369 -122 190 -61 350 -113 355
-116 6 -2 141 174 300 391 160 217 291 393 293 391 8 -7 -54 -313 -98 -491
-179 -710 -490 -1358 -939 -1959 -222 -297 -636 -736 -909 -963 -67 -56 -120
-102 -118 -102 3 0 63 16 133 35 69 19 128 33 130 31 2 -2 -49 -46 -114 -98
-564 -450 -1302 -812 -2153 -1057 -151 -43 -351 -93 -356 -88 -2 2 49 18 114
36 629 174 1240 451 1785 812 167 111 440 309 434 316 -2 1 -91 -22 -198 -51
-684 -190 -1108 -308 -1132 -316 -39 -13 -48 -23 1023 1084 509 526 925 962
925 969 0 6 -49 99 -109 205 l-109 193 -59 -112 c-153 -291 -395 -668 -483
-753 -211 -203 -536 -435 -860 -613 -1563 -859 -3973 -1277 -5830 -1012 -243
34 -675 126 -715 151 -12 7 -10 8 5 4 38 -10 200 -35 320 -51 484 -63 1049
-70 1520 -19 1703 184 3198 1007 4161 2289 l85 113 68 -39 c173 -99 316 -266
392 -455 l12 -29 9 35 c6 19 8 85 5 145 -4 89 -10 125 -35 191 -32 89 -81 170
-139 234 -45 50 -161 135 -171 125 -4 -3 -37 -50 -73 -103 -36 -54 -72 -96
-80 -95 -8 1 -47 13 -87 27 -225 79 -505 55 -711 -60 -24 -13 -45 -23 -47 -21
-1 1 21 31 49 66 94 116 247 215 398 257 47 14 100 18 204 19 133 0 144 -2
230 -33 50 -18 97 -35 106 -38 11 -4 29 17 63 72 46 74 47 78 30 92 -34 26
-160 81 -250 109 -83 25 -102 27 -274 27 -197 1 -247 -7 -381 -59 -32 -13 -59
-21 -59 -19 0 3 20 39 44 82 62 110 164 317 226 460 59 136 47 126 187 154 87
17 333 14 421 -6 111 -24 218 -63 311 -111 47 -24 88 -42 92 -40 12 8 127 327
169 472 107 366 168 716 190 1098 15 268 25 234 -82 288 -152 76 -253 183
-299 315 -25 72 -27 185 -3 238 l16 39 12 -55 c19 -90 55 -149 141 -235 60
-60 98 -89 152 -115 l73 -35 0 -97 0 -96 33 -12 c50 -19 220 -25 285 -10 123
27 227 102 274 198 20 40 23 62 23 147 -1 62 -6 111 -15 130 -11 26 -14 27
-17 10 -33 -179 -142 -275 -339 -300 -55 -8 -183 9 -223 28 -25 12 -26 16 -34
142 -4 72 -13 182 -21 245 -8 63 -13 117 -11 119 2 1 32 -6 67 -18 345 -113
720 -119 1043 -14 100 32 275 121 275 140 0 22 -47 204 -86 332 -19 62 -34
119 -34 125 0 6 24 27 52 46 209 142 340 361 364 608 l7 73 18 -40 c9 -22 29
-73 42 -113z m-3054 -1248 c11 -30 21 -56 21 -57 0 -2 -29 -3 -64 -3 l-65 0 5
58 c7 77 21 137 47 197 l22 50 6 -95 c4 -61 14 -115 28 -150z m871 -23 c0 -45
-7 -109 -15 -142 -53 -201 -229 -359 -416 -373 l-69 -5 0 118 c0 113 1 117 20
112 41 -11 155 13 218 45 110 55 218 189 238 294 11 61 24 36 24 -49z m-517
-69 c4 -46 7 -114 7 -151 l0 -69 -32 7 c-60 13 -152 63 -200 108 -49 47 -104
124 -96 132 3 3 43 10 89 16 46 5 109 16 139 23 91 23 86 26 93 -66z m1377
-4212 c0 -2 -8 -10 -17 -17 -16 -13 -17 -12 -4 4 13 16 21 21 21 13z m-86
-103 c-115 -137 -280 -316 -385 -418 -865 -836 -2006 -1360 -3284 -1509 -264
-31 -448 -40 -800 -39 -1087 1 -1882 150 -2570 483 -143 69 -332 174 -280 155
396 -142 821 -232 1316 -280 551 -52 1242 -43 1874 25 1423 154 2796 595 3628
1166 174 119 291 217 422 350 66 68 122 123 124 123 2 1 -18 -25 -45 -56z"/>
<path d="M7077 4458 c-47 -109 -160 -336 -211 -427 -26 -44 -46 -84 -46 -89 0
-4 28 -29 63 -54 183 -135 320 -340 383 -574 22 -84 27 -121 28 -244 1 -180
-26 -314 -91 -442 -13 -27 -19 -48 -14 -48 15 0 158 138 211 204 103 131 180
288 227 463 23 87 26 117 26 273 1 186 -8 247 -58 396 -71 213 -221 422 -399
558 -40 31 -76 56 -80 56 -4 0 -21 -33 -39 -72z"/>
</g>
</svg>
