<svg xmlns="http://www.w3.org/2000/svg" xmlns:xlink="http://www.w3.org/1999/xlink" width="300.033" height="215.661" viewBox="0 0 300.033 215.661"><defs><style>.a{fill:#206dff;}.b{fill:none;}.c{clip-path:url(#a);}.d{clip-path:url(#b);}.e{clip-path:url(#c);}.f{fill:#a7ceff;}.g{clip-path:url(#e);}.h{clip-path:url(#g);}.i{clip-path:url(#h);}.j{clip-path:url(#i);}</style><clipPath id="a"><path class="a" d="M194.44-227.06l10.25,11,78.16-32.6-88.41,21.6Z"/></clipPath><clipPath id="b"><path class="b" d="M-595,220H685V-533H-595Z"/></clipPath><clipPath id="c"><path class="b" d="M198.09-263.34l-7.72,11.64,5.22,11.41-11.71,1.99-10.35,22.72,111.82-33.84-87.26-13.92Z"/></clipPath><clipPath id="e"><path class="b" d="M195.59-240.29l-5.22-11.41,60.57,2.83-55.35,8.58Z"/></clipPath><clipPath id="g"><path class="a" d="M189.7-127.43h-2.58a1.56,1.56,0,0,1-1.1-.467,1.561,1.561,0,0,1-.446-1.112,1.541,1.541,0,0,1,.462-1.11,1.54,1.54,0,0,1,1.118-.44c4.06.05,8.09,0,12.51-.2h.07a1.57,1.57,0,0,1,1.478,1.537,1.57,1.57,0,0,1-1.418,1.593C196.25-127.5,193-127.43,189.7-127.43ZM174.56-128h-.14c-4.32-.37-8.56-.93-12.62-1.65a1.56,1.56,0,0,1-1.015-.645,1.56,1.56,0,0,1-.255-1.175,1.6,1.6,0,0,1,1.82-1.27q6,1.065,12.34,1.61a1.58,1.58,0,0,1,1.43,1.7A1.57,1.57,0,0,1,174.56-128Zm-24.74-4.52a1.508,1.508,0,0,1-.46-.07,92.428,92.428,0,0,1-11.94-4.59,1.57,1.57,0,0,1-.968-1.293,1.57,1.57,0,0,1,.685-1.463,1.57,1.57,0,0,1,1.613-.084,88.107,88.107,0,0,0,11.53,4.43,1.56,1.56,0,0,1,.922.789,1.56,1.56,0,0,1,.078,1.211,1.58,1.58,0,0,1-1.46,1.02Zm-22.7-10.69a1.509,1.509,0,0,1-.86-.27,82.178,82.178,0,0,1-10.09-7.92,1.564,1.564,0,0,1-.09-2.21,1.564,1.564,0,0,1,2.21-.09,80.42,80.42,0,0,0,9.71,7.62,1.57,1.57,0,0,1,.621,1.76,1.57,1.57,0,0,1-1.5,1.11Zm-18.47-17a1.58,1.58,0,0,1-1.23-.59,83.534,83.534,0,0,1-7.19-10.62,1.6,1.6,0,0,1,.008-1.594,1.6,1.6,0,0,1,1.385-.79A1.6,1.6,0,0,1,103-173a80.864,80.864,0,0,0,6.93,10.22,1.56,1.56,0,0,1,.19,1.66,1.56,1.56,0,0,1-1.42.88ZM96.24-182a1.57,1.57,0,0,1-1.47-1,76.35,76.35,0,0,1-3.52-12.35,1.564,1.564,0,0,1,.508-1.479,1.564,1.564,0,0,1,1.535-.3,1.564,1.564,0,0,1,1.027,1.179A74.56,74.56,0,0,0,97.7-184.1a1.56,1.56,0,0,1-.91,2,1.52,1.52,0,0,1-.55.1Zm-5-24.59a1.57,1.57,0,0,1-1.56-1.47c-.17-2.56-.25-5.26-.25-8v-.64c0-1.36,0-2.72.07-4.09a1.58,1.58,0,0,1,1.57-1.52h.05a1.57,1.57,0,0,1,1.1.495,1.57,1.57,0,0,1,.424,1.125c0,1.34-.07,2.67-.08,4v.63c0,2.69.09,5.31.24,7.81a1.56,1.56,0,0,1-.385,1.133,1.56,1.56,0,0,1-1.075.527Z"/></clipPath><clipPath id="h"><path class="a" d="M-595,220H685V-533H-595Z"/></clipPath><clipPath id="i"><path class="a" d="M104.42-231.49c-2.4,0-4.75,0-7.07-.08a1.57,1.57,0,0,1-1.57-1.57,1.57,1.57,0,0,1,1.57-1.57h0q6.07.15,12.53,0a1.47,1.47,0,0,1,1.141.406,1.47,1.47,0,0,1,.449,1.124,1.56,1.56,0,0,1-.432,1.118,1.56,1.56,0,0,1-1.1.482C108.13-231.51,106.26-231.49,104.42-231.49Zm18.15-.52a1.57,1.57,0,0,1-1.5-1.523,1.57,1.57,0,0,1,1.408-1.607c2.306-.131,7.358-.489,7.358-.489s3.326-.261,5.162-.421a1.57,1.57,0,0,1,1.514.62,1.57,1.57,0,0,1,.141,1.63,1.57,1.57,0,0,1-1.385.871c-4.28.38-8.52.69-12.61.91Zm-37.75-.2h-.13c-4.36-.33-8.61-.8-12.62-1.37a1.57,1.57,0,0,1-1.32-1.78,1.59,1.59,0,0,1,1.77-1.33c3.94.57,8.12,1,12.42,1.36a1.57,1.57,0,0,1,1.4,1.621A1.57,1.57,0,0,1,84.82-232.2Zm62.84-2a1.57,1.57,0,0,1-1.505-1.478,1.57,1.57,0,0,1,1.325-1.642c4.07-.48,8.22-1,12.45-1.62a1.571,1.571,0,0,1,1.459.583,1.571,1.571,0,0,1,.225,1.555,1.571,1.571,0,0,1-1.234.972c-4.26.6-8.44,1.15-12.54,1.62Zm-87.76-1.6a2.1,2.1,0,0,1-.34,0c-3-.68-6-1.45-8.78-2.28-1.19-.35-2.36-.72-3.51-1.1a1.581,1.581,0,0,1-1-2,1.581,1.581,0,0,1,2-1c1.12.37,2.26.73,3.41,1.08,2.73.81,5.61,1.55,8.57,2.22a1.57,1.57,0,0,1,1.209,1.7,1.57,1.57,0,0,1-1.549,1.4Zm-23.8-8.05a1.7,1.7,0,0,1-.69-.16,76.86,76.86,0,0,1-11.06-6.52,1.57,1.57,0,0,1-.742-1.452,1.57,1.57,0,0,1,.947-1.327,1.57,1.57,0,0,1,1.614.23,74.46,74.46,0,0,0,10.61,6.25,1.57,1.57,0,0,1,.884,1.777A1.57,1.57,0,0,1,36.1-243.84Zm54-1.41a1.56,1.56,0,0,1-1.11-.453,1.56,1.56,0,0,1-.46-1.107v-.56c0-3.95-.16-8-.47-11.94a1.565,1.565,0,0,1,.676-1.411,1.565,1.565,0,0,1,1.56-.12,1.565,1.565,0,0,1,.884,1.291c.32,4.05.48,8.15.48,12.18v.56a1.56,1.56,0,0,1-.475,1.111,1.56,1.56,0,0,1-1.125.439ZM15.87-258.56a1.57,1.57,0,0,1-1.16-.51,54.421,54.421,0,0,1-7.53-10.51,1.57,1.57,0,0,1-.01-1.608,1.57,1.57,0,0,1,1.409-.774,1.57,1.57,0,0,1,1.351.871,51.471,51.471,0,0,0,7.1,9.91,1.56,1.56,0,0,1,.41,1.126,1.56,1.56,0,0,1-.51,1.084,1.54,1.54,0,0,1-1.1.4ZM88-270.41a1.58,1.58,0,0,1-1.55-1.3,105.163,105.163,0,0,0-2.76-12.11,1.565,1.565,0,0,1,.365-1.521,1.564,1.564,0,0,1,1.5-.445,1.564,1.564,0,0,1,1.135,1.077,109.3,109.3,0,0,1,2.86,12.47,1.58,1.58,0,0,1-1.28,1.81Zm-84.23-10a1.57,1.57,0,0,1-1.51-1.15q-.28-1.06-.54-2.13a30.19,30.19,0,0,1-.84-7,26.8,26.8,0,0,1,.3-4,1.57,1.57,0,0,1,.964-1.3,1.57,1.57,0,0,1,1.6.243,1.57,1.57,0,0,1,.535,1.527,23.181,23.181,0,0,0-.27,3.55,27.18,27.18,0,0,0,.76,6.22c.16.68.33,1.36.51,2a1.55,1.55,0,0,1-.139,1.194,1.55,1.55,0,0,1-.951.736,1.523,1.523,0,0,1-.38.1Zm77-14.06a1.57,1.57,0,0,1-1.41-.89,53.071,53.071,0,0,0-6.43-10.37,1.578,1.578,0,0,1-.256-1.557,1.578,1.578,0,0,1,1.22-1,1.578,1.578,0,0,1,1.476.557,56.321,56.321,0,0,1,6.81,11,1.56,1.56,0,0,1,.07,1.2,1.56,1.56,0,0,1-.8.893,1.509,1.509,0,0,1-.68.16ZM7.7-304.31a1.61,1.61,0,0,1-1-.31,1.57,1.57,0,0,1-.29-2.2,35.3,35.3,0,0,1,9.81-8.67,1.57,1.57,0,0,1,1.624-.114,1.57,1.57,0,0,1,.852,1.387,1.57,1.57,0,0,1-.836,1.4,32.34,32.34,0,0,0-9,7.9,1.57,1.57,0,0,1-1.16.61Zm57.22-9.32a1.59,1.59,0,0,1-.86-.25,35.47,35.47,0,0,0-11-4.76,1.57,1.57,0,0,1-1.371-1.047,1.57,1.57,0,0,1,.418-1.674,1.57,1.57,0,0,1,1.7-.279,38.339,38.339,0,0,1,11.95,5.18,1.56,1.56,0,0,1,.647,1.758A1.56,1.56,0,0,1,64.9-313.59Zm-36.32-4a1.57,1.57,0,0,1-1.531-1.347A1.57,1.57,0,0,1,28.16-320.7a58.6,58.6,0,0,1,12.32-2.23h.47a1.67,1.67,0,0,1,1.6,1.54,1.56,1.56,0,0,1-.432,1.118,1.56,1.56,0,0,1-1.1.482h-.35a55.739,55.739,0,0,0-11.62,2.1,1.409,1.409,0,0,1-.45.07Z"/></clipPath></defs><g transform="translate(-496.228 -5911.758)"><g class="c" transform="matrix(0.866, -0.5, 0.5, 0.866, 656.931, 6282.492)"><g class="d"><path class="a" d="M189.44-253.66h98.41v42.6H189.44Z"/></g></g><g class="e" transform="matrix(0.866, -0.5, 0.5, 0.866, 656.931, 6282.492)"><g class="d"><path class="f" d="M168.53-268.34H290.35v57.76H168.53Z"/></g></g><g class="g" transform="matrix(0.866, -0.5, 0.5, 0.866, 656.931, 6282.492)"><g class="d"><path class="a" d="M185.37-256.7h70.57v21.41H185.37Z"/></g></g><g class="h" transform="matrix(0.866, -0.5, 0.5, 0.866, 656.931, 6282.492)"><g class="i"><path class="a" d="M84.43-227.31H206.208v104.88H84.43Z"/></g></g><g class="j" transform="matrix(0.866, -0.5, 0.5, 0.866, 656.931, 6282.492)"><g class="i"><path class="a" d="M-4.12-327.93H166.726v101.44H-4.12Z"/></g></g></g></svg>