<?xml version="1.0" standalone="no"?>
<!DOCTYPE svg PUBLIC "-//W3C//DTD SVG 20010904//EN"
 "http://www.w3.org/TR/2001/REC-SVG-20010904/DTD/svg10.dtd">
<svg version="1.0" xmlns="http://www.w3.org/2000/svg"
 width="1198.000000pt" height="1280.000000pt" viewBox="0 0 1198.000000 1280.000000"
 preserveAspectRatio="xMidYMid meet">
<metadata>
Created by potrace 1.15, written by Peter Selinger 2001-2017
</metadata>
<g transform="translate(0.000000,1280.000000) scale(0.100000,-0.100000)"
fill="#000000" stroke="none">
<path d="M6222 12313 c-2 -270 -14 -343 -27 -161 -8 104 -18 112 -30 23 -11
-86 -25 -88 -26 -5 -1 41 -5 102 -9 135 -6 45 -8 22 -7 -95 1 -85 -5 -213 -11
-285 -17 -174 -19 -1088 -3 -1295 18 -246 63 -593 80 -617 9 -15 100 -43 116
-36 8 3 15 11 15 19 0 8 4 14 9 14 15 0 31 -26 51 -85 38 -111 88 -164 155
-167 50 -2 60 11 41 56 -11 26 -12 42 -6 54 6 9 15 30 20 45 6 16 20 31 31 34
20 6 21 11 17 97 -4 67 -11 103 -27 136 -12 25 -40 108 -62 185 -41 145 -58
271 -44 341 l7 39 14 -28 c27 -50 31 -19 11 78 -19 87 -22 95 -44 95 -18 0
-23 5 -23 28 -1 146 -42 436 -116 814 -82 421 -111 602 -127 803 -2 22 -4 -78
-5 -222z"/>
<path d="M8513 11808 c-128 -167 -229 -350 -393 -708 -62 -135 -134 -288 -160
-340 -26 -52 -59 -126 -73 -165 -14 -38 -54 -144 -90 -235 -119 -302 -164
-462 -174 -624 l-6 -98 34 17 c44 23 127 89 211 167 66 63 67 63 126 223 79
210 195 572 332 1035 61 206 140 465 175 575 35 110 62 201 61 202 -2 2 -21
-20 -43 -49z"/>
<path d="M3754 11754 c10 -25 110 -354 146 -479 44 -151 110 -408 106 -412 -2
-2 -23 44 -46 102 -23 58 -44 104 -46 102 -7 -6 153 -471 208 -607 125 -309
266 -538 437 -712 69 -72 79 -78 116 -78 55 0 101 31 127 85 21 42 21 49 8 93
-7 26 -15 66 -18 90 -4 41 -14 53 -27 32 -15 -25 -38 -1 -120 128 -373 578
-713 1212 -859 1600 -15 39 -30 72 -33 72 -3 0 -2 -7 1 -16z"/>
<path d="M10623 10398 c-324 -138 -552 -295 -1083 -743 -392 -332 -613 -506
-695 -548 -17 -8 -65 -22 -108 -31 -108 -23 -153 -43 -190 -86 -23 -27 -47
-42 -87 -54 -57 -17 -74 -27 -100 -60 -14 -18 -13 -19 13 -12 41 10 63 -7 95
-76 37 -76 32 -92 -47 -145 -54 -36 -55 -38 -28 -41 15 -2 25 -8 21 -13 -3 -5
2 -29 11 -54 10 -24 15 -52 11 -61 -6 -15 2 -16 76 -12 103 7 184 31 402 119
94 38 178 69 187 69 8 0 26 19 39 43 13 23 60 96 104 162 285 426 687 810
1428 1365 114 85 207 160 207 166 1 5 -5 18 -12 28 -11 15 -29 19 -85 20 -62
2 -82 -3 -159 -36z"/>
<path d="M1953 9543 c73 -87 157 -176 197 -208 93 -74 181 -166 210 -218 27
-48 27 -48 -70 34 -70 59 -129 99 -147 99 -24 0 12 -43 99 -116 74 -63 138
-134 138 -156 0 -4 -11 -8 -23 -8 -27 0 -86 41 -132 90 -16 17 -39 37 -50 42
-11 6 25 -40 80 -103 55 -63 145 -166 200 -229 275 -316 462 -478 670 -583 71
-35 206 -87 228 -87 7 0 20 35 31 83 15 68 16 90 6 126 -17 64 1 84 90 106 40
10 83 27 97 40 22 19 25 25 16 51 -8 23 -22 34 -70 54 -77 32 -97 48 -82 66 6
8 25 14 41 14 38 0 44 19 18 63 -22 37 -47 52 -72 42 -19 -8 -39 17 -47 58
l-7 32 -124 0 c-139 0 -158 6 -316 89 -118 63 -227 138 -434 301 -101 80 -220
171 -263 202 -70 50 -81 55 -99 44 -17 -11 -27 -8 -74 23 -29 20 -95 73 -146
118 l-92 83 127 -152z"/>
<path d="M6132 9638 c-230 -19 -451 -76 -617 -160 -55 -28 -126 -57 -159 -64
-76 -18 -185 -74 -262 -132 -34 -26 -130 -108 -214 -182 -166 -147 -239 -202
-319 -239 l-52 -25 28 -23 28 -23 -25 -19 c-33 -26 -66 -34 -90 -21 -17 9 -26
5 -55 -24 -19 -20 -35 -37 -35 -40 0 -2 12 -7 28 -11 l27 -7 -24 -19 c-13 -10
-20 -19 -15 -19 4 0 18 9 30 21 24 22 44 19 44 -7 0 -27 -115 -134 -144 -134
-28 0 -65 -42 -90 -102 -16 -37 -59 -78 -82 -78 -24 0 -28 23 -6 38 21 14 21
14 -14 44 -18 16 -31 34 -28 39 3 5 25 9 48 9 29 0 52 7 67 20 l24 20 -27 -11
c-22 -10 -36 -9 -71 5 -57 21 -79 20 -112 -6 -41 -32 -137 -165 -202 -281 -70
-124 -111 -190 -151 -240 -20 -25 -35 -61 -47 -111 -17 -81 -28 -96 -72 -100
-24 -2 -33 -13 -62 -72 -55 -115 -93 -241 -96 -319 -1 -47 -12 -101 -33 -165
-25 -74 -40 -155 -66 -360 -58 -440 -61 -476 -60 -720 0 -259 11 -349 65 -515
16 -51 29 -101 29 -113 0 -11 16 -71 35 -132 34 -110 45 -199 26 -228 -6 -10
-18 10 -40 65 -18 43 -36 87 -40 98 -6 12 -7 -6 -3 -45 3 -36 14 -85 24 -110
11 -25 62 -147 113 -271 170 -411 263 -571 429 -734 117 -114 241 -194 443
-283 29 -12 72 -41 97 -65 151 -140 532 -286 880 -337 112 -17 455 -37 469
-28 8 5 4 8 -10 8 -17 0 -23 6 -23 23 0 42 55 50 335 52 187 1 293 7 420 23
94 12 208 22 255 22 193 0 337 37 736 185 139 52 260 95 269 95 23 0 174 82
271 148 511 344 868 808 1042 1352 89 279 132 728 102 1065 -24 277 -94 544
-211 809 -241 544 -735 1069 -1234 1311 -461 224 -954 281 -1420 165 -276 -69
-498 -182 -752 -386 -459 -368 -770 -860 -877 -1386 -53 -265 -44 -640 24
-899 25 -96 54 -170 120 -304 161 -325 423 -590 735 -742 123 -60 397 -147
530 -169 224 -37 513 -21 882 46 90 17 166 30 171 30 18 0 160 113 236 187
151 150 277 338 381 573 41 93 51 128 82 310 41 237 48 397 21 490 -11 36 -16
95 -16 170 -1 126 -25 238 -96 449 -42 121 -77 171 -210 298 -174 166 -371
270 -612 323 l-81 17 -204 -33 c-113 -19 -248 -48 -301 -65 -166 -53 -270
-141 -319 -269 l-21 -55 31 -340 c18 -187 36 -365 42 -395 30 -177 181 -335
421 -441 40 -18 78 -32 83 -31 49 6 161 34 172 43 7 6 13 22 13 34 0 21 -5 23
-77 27 -115 6 -302 81 -381 152 -146 133 -185 257 -222 706 l-11 135 48 43
c138 122 384 192 682 192 l114 0 100 -52 c105 -55 199 -134 230 -194 17 -33
90 -361 128 -579 20 -108 23 -165 23 -335 0 -220 -11 -294 -66 -422 -94 -218
-223 -369 -393 -455 -116 -59 -213 -93 -357 -125 -90 -20 -130 -22 -318 -22
-155 0 -241 5 -310 17 -308 54 -567 188 -729 379 -73 86 -173 251 -228 377
-145 337 -150 811 -13 1224 93 279 243 512 492 766 342 347 707 523 1158 557
147 11 512 -39 684 -93 465 -146 898 -538 1145 -1034 135 -272 170 -433 171
-789 0 -434 -79 -820 -246 -1197 -97 -218 -180 -360 -353 -603 -201 -282 -360
-409 -770 -614 -142 -72 -201 -96 -229 -96 -61 0 -175 -33 -340 -99 l-152 -61
-133 -4 c-117 -3 -150 -8 -292 -46 -181 -48 -162 -47 -710 -39 -288 4 -291 4
-365 32 -41 15 -96 32 -122 37 -72 13 -102 34 -157 110 -54 74 -108 117 -125
100 -20 -20 -63 -8 -129 35 -38 24 -82 47 -100 51 -35 7 -144 117 -211 214
-23 32 -71 98 -108 146 -109 143 -209 355 -248 524 -15 67 -55 192 -69 219 -6
11 -20 22 -30 26 -17 5 -19 13 -14 59 5 53 0 77 -39 184 -14 37 -24 52 -34 48
-21 -8 -44 46 -44 103 0 27 -4 53 -10 56 -17 10 -11 25 10 25 17 0 20 7 20 44
0 25 -6 51 -13 58 -45 44 -48 127 -12 273 14 55 25 122 25 150 0 82 27 220 76
390 38 132 47 181 53 280 8 136 22 177 63 185 23 4 47 36 143 189 86 137 114
188 109 204 -14 45 -5 98 30 164 20 37 34 68 32 70 -9 9 -86 -89 -86 -111 0
-18 -4 -23 -18 -19 -18 4 -25 -5 -50 -68 -14 -36 -71 -99 -89 -99 -20 0 -12
22 62 170 102 206 213 376 372 567 101 122 352 368 493 484 94 77 108 86 138
82 67 -10 246 59 262 101 10 26 43 42 119 56 30 6 60 15 68 22 11 9 15 7 19
-10 6 -20 7 -20 50 -4 41 15 44 18 38 47 -12 69 98 159 240 194 27 6 72 24
100 38 146 74 375 130 586 142 266 15 511 -15 890 -109 159 -40 523 -136 550
-146 75 -27 -202 136 -390 230 -246 122 -467 196 -698 232 -110 17 -493 25
-640 12z"/>
<path d="M2040 9238 c0 -2 24 -30 54 -61 34 -37 57 -54 61 -47 4 6 13 9 21 6
30 -12 11 6 -61 54 -41 28 -75 49 -75 48z"/>
<path d="M4290 8633 c0 -8 5 -13 12 -11 18 6 21 25 3 25 -8 0 -15 -7 -15 -14z"/>
<path d="M11430 8050 c-58 -3 -110 -9 -116 -13 -21 -12 -289 -58 -459 -77 -93
-11 -354 -31 -580 -45 -557 -35 -556 -35 -640 -77 -109 -55 -249 -108 -349
-132 -89 -22 -91 -23 -94 -54 -4 -34 0 -36 86 -45 23 -3 54 -13 68 -22 l25
-16 -32 -37 c-18 -20 -43 -61 -57 -91 l-25 -54 21 -17 c11 -9 48 -23 82 -30
56 -12 76 -11 198 9 347 57 627 145 1259 396 339 135 556 218 666 254 37 13
67 26 67 29 -1 23 -23 27 -120 22z"/>
<path d="M85 7569 c512 -222 707 -295 960 -361 l150 -38 -95 5 c-52 2 -138 7
-190 11 -62 4 -91 3 -85 -3 14 -14 211 -85 320 -116 188 -53 385 -94 625 -127
125 -17 198 -20 546 -20 220 0 469 3 552 7 l150 6 -15 24 c-16 24 -15 26 30
70 26 25 47 51 47 58 0 25 -58 72 -142 115 -46 24 -86 48 -90 54 -12 18 -8 69
7 96 19 32 18 45 -1 64 -22 22 -38 20 -49 -6 -9 -20 -19 -24 -83 -28 -66 -4
-76 -8 -96 -33 l-23 -28 -224 -6 c-169 -4 -301 0 -538 16 -172 12 -383 21
-467 21 -140 0 -169 3 -341 40 -492 103 -1005 210 -1011 210 -4 0 25 -14 63
-31z"/>
<path d="M9492 6165 c-108 -54 -107 -52 -11 -147 205 -203 449 -307 832 -355
112 -14 222 -16 712 -14 643 2 730 -3 854 -49 46 -16 85 -30 89 -30 3 0 -9 15
-27 34 -24 25 -33 43 -33 68 0 27 -8 38 -42 64 -190 140 -426 219 -762 253
-54 6 -218 17 -364 26 -466 27 -534 37 -760 110 -173 57 -255 75 -346 75 -62
0 -81 -5 -142 -35z"/>
<path d="M3160 6011 c0 -11 5 -23 10 -26 6 -4 10 5 10 19 0 14 -4 26 -10 26
-5 0 -10 -9 -10 -19z"/>
<path d="M2844 5685 c-23 -17 -103 -19 -208 -5 -85 12 -142 2 -170 -29 -9 -10
-34 -21 -54 -25 -57 -9 -144 -55 -300 -159 -78 -53 -156 -98 -172 -102 -20 -4
-30 -13 -30 -25 0 -38 -69 -79 -275 -165 -60 -25 -139 -63 -175 -84 -112 -66
-168 -91 -218 -97 -35 -4 -43 -3 -32 5 12 8 4 11 -31 11 -53 0 -83 -21 -53
-38 27 -15 8 -29 -50 -36 -60 -8 -81 -20 -99 -56 -9 -19 -22 -26 -50 -28 -20
-2 -37 -7 -37 -11 0 -5 -28 -14 -63 -21 l-62 -13 45 -9 c75 -13 78 -17 40 -41
-19 -11 -109 -69 -200 -128 -91 -58 -192 -121 -224 -138 -33 -17 -62 -34 -65
-38 -13 -14 204 8 319 32 124 26 330 47 330 33 0 -7 -169 -74 -277 -109 -40
-12 -71 -24 -69 -26 2 -2 86 12 186 31 100 20 223 41 273 46 213 25 420 73
662 154 185 62 458 166 528 202 73 37 168 69 307 104 179 44 271 76 337 119
76 49 85 62 100 135 11 52 11 63 -4 85 -15 24 -15 26 12 48 26 23 27 26 16 70
-20 79 -38 113 -60 113 -11 0 -23 -4 -26 -10 -10 -16 -45 -12 -52 7 -6 16 29
55 58 65 24 8 -13 80 -60 115 -47 36 -68 40 -97 18z"/>
<path d="M9080 4530 c-67 -14 -77 -19 -61 -29 26 -16 0 -31 -53 -31 -40 0 -57
-5 -71 -20 -17 -19 -17 -21 20 -62 55 -62 185 -179 269 -242 187 -140 385
-251 776 -434 151 -71 326 -155 389 -186 62 -32 116 -55 119 -52 8 8 -53 147
-96 221 -124 210 -334 423 -486 493 -37 18 -143 81 -235 141 -178 116 -243
153 -331 183 -66 22 -178 31 -240 18z"/>
<path d="M3616 4064 c-14 -15 -26 -35 -26 -45 0 -10 -33 -45 -77 -81 -506
-412 -999 -944 -1572 -1697 -121 -159 -131 -174 -114 -186 17 -13 17 -15 -7
-41 -14 -14 -65 -60 -115 -101 -91 -76 -168 -156 -129 -135 10 6 121 80 247
165 160 110 227 150 227 138 0 -22 -52 -106 -98 -156 -20 -22 -5 -10 33 26
102 96 243 208 270 215 60 15 52 -3 -58 -120 -62 -66 -107 -117 -101 -115 17
6 356 314 579 524 104 99 381 367 614 595 233 228 462 448 508 489 100 90 103
104 43 200 -49 81 -56 110 -35 155 16 34 16 35 -18 88 -41 64 -90 108 -121
108 -13 0 -35 -12 -50 -26z"/>
<path d="M3980 3946 c0 -9 128 -100 174 -123 46 -23 137 -55 142 -50 2 1 -30
28 -70 59 -58 44 -80 56 -109 56 -26 0 -47 9 -74 31 -33 27 -63 40 -63 27z"/>
<path d="M7475 3335 c-74 -13 -160 -45 -211 -80 -32 -20 -32 -20 -13 -44 22
-28 24 -50 5 -57 -11 -4 -5 -25 26 -97 53 -121 131 -330 224 -595 195 -560
297 -794 452 -1041 l47 -73 3 158 c7 350 -46 771 -154 1228 -36 149 -36 149
-17 190 10 22 18 54 19 70 0 17 5 52 9 78 7 45 6 48 -20 58 -14 5 -30 8 -35 5
-5 -3 -12 31 -16 75 l-7 81 -37 19 c-36 18 -143 41 -185 39 -11 0 -51 -7 -90
-14z"/>
<path d="M5258 3182 c-31 -20 -60 -40 -64 -44 -4 -4 1 -26 11 -48 l18 -40 -63
-132 c-185 -392 -411 -968 -612 -1558 -358 -1055 -440 -1312 -429 -1336 10
-22 14 -23 33 -13 47 25 133 118 203 219 57 84 89 147 160 315 442 1055 652
1481 963 1957 66 101 81 118 103 118 34 0 46 15 64 79 10 32 24 55 38 62 12 7
24 13 26 15 2 2 -17 23 -43 45 -39 34 -47 47 -43 67 5 28 -31 84 -119 181 -44
49 -169 152 -183 150 -3 0 -32 -17 -63 -37z"/>
</g>
</svg>
