<svg width="208" height="208" viewBox="0 0 208 208" fill="none" xmlns="http://www.w3.org/2000/svg">
<g filter="url(#filter0_dd)">
<rect x="4" width="200" height="200" rx="20" fill="white"/>
<rect x="25.35" y="82.35" width="145.3" height="15.3" rx="1.65" fill="white" stroke="#E7E7EA" stroke-width="0.7"/>
<rect x="25.35" y="101.35" width="145.3" height="15.3" rx="1.65" fill="white" stroke="#00E15D" stroke-width="0.7"/>
<rect x="25.35" y="119.35" width="145.3" height="16.3" rx="1.65" fill="white" stroke="#E7E7EA" stroke-width="0.7"/>
<rect x="25.35" y="138.35" width="145.3" height="15.3" rx="1.65" fill="white" stroke="#E7E7EA" stroke-width="0.7"/>
<path d="M50.7988 36H48.7305L47.5703 31.5C47.5273 31.3398 47.4531 31.0098 47.3477 30.5098C47.2461 30.0059 47.1875 29.668 47.1719 29.4961C47.1484 29.707 47.0898 30.0469 46.9961 30.5156C46.9023 30.9805 46.8301 31.3125 46.7793 31.5117L45.625 36H43.5625L41.377 27.4336H43.1641L44.2598 32.1094C44.4512 32.9727 44.5898 33.7207 44.6758 34.3535C44.6992 34.1309 44.752 33.7871 44.834 33.3223C44.9199 32.8535 45 32.4902 45.0742 32.2324L46.3223 27.4336H48.0391L49.2871 32.2324C49.3418 32.4473 49.4102 32.7754 49.4922 33.2168C49.5742 33.6582 49.6367 34.0371 49.6797 34.3535C49.7188 34.0488 49.7812 33.6699 49.8672 33.2168C49.9531 32.7598 50.0312 32.3906 50.1016 32.1094L51.1914 27.4336H52.9785L50.7988 36ZM59.9629 36H58.1758V32.1738C58.1758 31.2285 57.8242 30.7559 57.1211 30.7559C56.6211 30.7559 56.2598 30.9258 56.0371 31.2656C55.8145 31.6055 55.7031 32.1562 55.7031 32.918V36H53.916V26.8828H55.7031V28.7402C55.7031 28.8848 55.6895 29.2246 55.6621 29.7598L55.6211 30.2871H55.7148C56.1133 29.6465 56.7461 29.3262 57.6133 29.3262C58.3828 29.3262 58.9668 29.5332 59.3652 29.9473C59.7637 30.3613 59.9629 30.9551 59.9629 31.7285V36ZM64.5156 30.5977C64.1367 30.5977 63.8398 30.7188 63.625 30.9609C63.4102 31.1992 63.2871 31.5391 63.2559 31.9805H65.7637C65.7559 31.5391 65.6406 31.1992 65.418 30.9609C65.1953 30.7188 64.8945 30.5977 64.5156 30.5977ZM64.7676 36.1172C63.7129 36.1172 62.8887 35.8262 62.2949 35.2441C61.7012 34.6621 61.4043 33.8379 61.4043 32.7715C61.4043 31.6738 61.6777 30.8262 62.2246 30.2285C62.7754 29.627 63.5352 29.3262 64.5039 29.3262C65.4297 29.3262 66.1504 29.5898 66.666 30.1172C67.1816 30.6445 67.4395 31.373 67.4395 32.3027V33.1699H63.2148C63.2344 33.6777 63.3848 34.0742 63.666 34.3594C63.9473 34.6445 64.3418 34.7871 64.8496 34.7871C65.2441 34.7871 65.6172 34.7461 65.9688 34.6641C66.3203 34.582 66.6875 34.4512 67.0703 34.2715V35.6543C66.7578 35.8105 66.4238 35.9258 66.0684 36C65.7129 36.0781 65.2793 36.1172 64.7676 36.1172ZM72.5488 29.3262C72.791 29.3262 72.9922 29.3438 73.1523 29.3789L73.0176 31.0547C72.873 31.0156 72.6973 30.9961 72.4902 30.9961C71.9199 30.9961 71.4746 31.1426 71.1543 31.4355C70.8379 31.7285 70.6797 32.1387 70.6797 32.666V36H68.8926V29.4492H70.2461L70.5098 30.5508H70.5977C70.8008 30.1836 71.0742 29.8887 71.418 29.666C71.7656 29.4395 72.1426 29.3262 72.5488 29.3262ZM77.0547 30.5977C76.6758 30.5977 76.3789 30.7188 76.1641 30.9609C75.9492 31.1992 75.8262 31.5391 75.7949 31.9805H78.3027C78.2949 31.5391 78.1797 31.1992 77.957 30.9609C77.7344 30.7188 77.4336 30.5977 77.0547 30.5977ZM77.3066 36.1172C76.252 36.1172 75.4277 35.8262 74.834 35.2441C74.2402 34.6621 73.9434 33.8379 73.9434 32.7715C73.9434 31.6738 74.2168 30.8262 74.7637 30.2285C75.3145 29.627 76.0742 29.3262 77.043 29.3262C77.9688 29.3262 78.6895 29.5898 79.2051 30.1172C79.7207 30.6445 79.9785 31.373 79.9785 32.3027V33.1699H75.7539C75.7734 33.6777 75.9238 34.0742 76.2051 34.3594C76.4863 34.6445 76.8809 34.7871 77.3887 34.7871C77.7832 34.7871 78.1562 34.7461 78.5078 34.6641C78.8594 34.582 79.2266 34.4512 79.6094 34.2715V35.6543C79.2969 35.8105 78.9629 35.9258 78.6074 36C78.252 36.0781 77.8184 36.1172 77.3066 36.1172ZM87.209 36.1172C85.1699 36.1172 84.1504 34.998 84.1504 32.7598C84.1504 31.6465 84.4277 30.7969 84.9824 30.2109C85.5371 29.6211 86.332 29.3262 87.3672 29.3262C88.125 29.3262 88.8047 29.4746 89.4062 29.7715L88.8789 31.1543C88.5977 31.041 88.3359 30.9492 88.0938 30.8789C87.8516 30.8047 87.6094 30.7676 87.3672 30.7676C86.4375 30.7676 85.9727 31.4277 85.9727 32.748C85.9727 34.0293 86.4375 34.6699 87.3672 34.6699C87.7109 34.6699 88.0293 34.625 88.3223 34.5352C88.6152 34.4414 88.9082 34.2969 89.2012 34.1016V35.6309C88.9121 35.8145 88.6191 35.9414 88.3223 36.0117C88.0293 36.082 87.6582 36.1172 87.209 36.1172ZM94.8848 36L94.5391 35.1094H94.4922C94.1914 35.4883 93.8809 35.752 93.5605 35.9004C93.2441 36.0449 92.8301 36.1172 92.3184 36.1172C91.6895 36.1172 91.1934 35.9375 90.8301 35.5781C90.4707 35.2188 90.291 34.707 90.291 34.043C90.291 33.3477 90.5332 32.8359 91.0176 32.5078C91.5059 32.1758 92.2402 31.9922 93.2207 31.957L94.3574 31.9219V31.6348C94.3574 30.9707 94.0176 30.6387 93.3379 30.6387C92.8145 30.6387 92.1992 30.7969 91.4922 31.1133L90.9004 29.9062C91.6543 29.5117 92.4902 29.3145 93.4082 29.3145C94.2871 29.3145 94.9609 29.5059 95.4297 29.8887C95.8984 30.2715 96.1328 30.8535 96.1328 31.6348V36H94.8848ZM94.3574 32.9648L93.666 32.9883C93.1465 33.0039 92.7598 33.0977 92.5059 33.2695C92.252 33.4414 92.125 33.7031 92.125 34.0547C92.125 34.5586 92.4141 34.8105 92.9922 34.8105C93.4062 34.8105 93.7363 34.6914 93.9824 34.4531C94.2324 34.2148 94.3574 33.8984 94.3574 33.5039V32.9648ZM104.025 36H102.238V32.1738C102.238 31.7012 102.154 31.3477 101.986 31.1133C101.818 30.875 101.551 30.7559 101.184 30.7559C100.684 30.7559 100.322 30.9238 100.1 31.2598C99.877 31.5918 99.7656 32.1445 99.7656 32.918V36H97.9785V29.4492H99.3438L99.584 30.2871H99.6836C99.8828 29.9707 100.156 29.7324 100.504 29.5723C100.855 29.4082 101.254 29.3262 101.699 29.3262C102.461 29.3262 103.039 29.5332 103.434 29.9473C103.828 30.3574 104.025 30.9512 104.025 31.7285V36ZM108.045 29.4492H110.002L111.238 33.1348C111.344 33.4551 111.416 33.834 111.455 34.2715H111.49C111.533 33.8691 111.617 33.4902 111.742 33.1348L112.955 29.4492H114.871L112.1 36.8379C111.846 37.5215 111.482 38.0332 111.01 38.373C110.541 38.7129 109.992 38.8828 109.363 38.8828C109.055 38.8828 108.752 38.8496 108.455 38.7832V37.3652C108.67 37.416 108.904 37.4414 109.158 37.4414C109.475 37.4414 109.75 37.3438 109.984 37.1484C110.223 36.957 110.408 36.666 110.541 36.2754L110.646 35.9531L108.045 29.4492ZM117.238 32.7129C117.238 33.3613 117.344 33.8516 117.555 34.1836C117.77 34.5156 118.117 34.6816 118.598 34.6816C119.074 34.6816 119.416 34.5176 119.623 34.1895C119.834 33.8574 119.939 33.3652 119.939 32.7129C119.939 32.0645 119.834 31.5781 119.623 31.2539C119.412 30.9297 119.066 30.7676 118.586 30.7676C118.109 30.7676 117.766 30.9297 117.555 31.2539C117.344 31.5742 117.238 32.0605 117.238 32.7129ZM121.768 32.7129C121.768 33.7793 121.486 34.6133 120.924 35.2148C120.361 35.8164 119.578 36.1172 118.574 36.1172C117.945 36.1172 117.391 35.9805 116.91 35.707C116.43 35.4297 116.061 35.0332 115.803 34.5176C115.545 34.002 115.416 33.4004 115.416 32.7129C115.416 31.6426 115.695 30.8105 116.254 30.2168C116.812 29.623 117.598 29.3262 118.609 29.3262C119.238 29.3262 119.793 29.4629 120.273 29.7363C120.754 30.0098 121.123 30.4023 121.381 30.9141C121.639 31.4258 121.768 32.0254 121.768 32.7129ZM127.885 36L127.645 35.1621H127.551C127.359 35.4668 127.088 35.7031 126.736 35.8711C126.385 36.0352 125.984 36.1172 125.535 36.1172C124.766 36.1172 124.186 35.9121 123.795 35.502C123.404 35.0879 123.209 34.4941 123.209 33.7207V29.4492H124.996V33.2754C124.996 33.748 125.08 34.1035 125.248 34.3418C125.416 34.5762 125.684 34.6934 126.051 34.6934C126.551 34.6934 126.912 34.5273 127.135 34.1953C127.357 33.8594 127.469 33.3047 127.469 32.5312V29.4492H129.256V36H127.885ZM137.893 29.3262C138.666 29.3262 139.271 29.6289 139.709 30.2344C140.146 30.8359 140.365 31.6621 140.365 32.7129C140.365 33.7949 140.139 34.6328 139.686 35.2266C139.236 35.8203 138.623 36.1172 137.846 36.1172C137.076 36.1172 136.473 35.8379 136.035 35.2793H135.912L135.613 36H134.248V26.8828H136.035V29.0039C136.035 29.2734 136.012 29.7051 135.965 30.2988H136.035C136.453 29.6504 137.072 29.3262 137.893 29.3262ZM137.318 30.7559C136.877 30.7559 136.555 30.8926 136.352 31.166C136.148 31.4355 136.043 31.8828 136.035 32.5078V32.7012C136.035 33.4043 136.139 33.9082 136.346 34.2129C136.557 34.5176 136.889 34.6699 137.342 34.6699C137.709 34.6699 138 34.502 138.215 34.166C138.434 33.8262 138.543 33.334 138.543 32.6895C138.543 32.0449 138.434 31.5625 138.215 31.2422C137.996 30.918 137.697 30.7559 137.318 30.7559ZM146.482 36L146.242 35.1621H146.148C145.957 35.4668 145.686 35.7031 145.334 35.8711C144.982 36.0352 144.582 36.1172 144.133 36.1172C143.363 36.1172 142.783 35.9121 142.393 35.502C142.002 35.0879 141.807 34.4941 141.807 33.7207V29.4492H143.594V33.2754C143.594 33.748 143.678 34.1035 143.846 34.3418C144.014 34.5762 144.281 34.6934 144.648 34.6934C145.148 34.6934 145.51 34.5273 145.732 34.1953C145.955 33.8594 146.066 33.3047 146.066 32.5312V29.4492H147.854V36H146.482ZM148.791 29.4492H150.748L151.984 33.1348C152.09 33.4551 152.162 33.834 152.201 34.2715H152.236C152.279 33.8691 152.363 33.4902 152.488 33.1348L153.701 29.4492H155.617L152.846 36.8379C152.592 37.5215 152.229 38.0332 151.756 38.373C151.287 38.7129 150.738 38.8828 150.109 38.8828C149.801 38.8828 149.498 38.8496 149.201 38.7832V37.3652C149.416 37.416 149.65 37.4414 149.904 37.4414C150.221 37.4414 150.496 37.3438 150.73 37.1484C150.969 36.957 151.154 36.666 151.287 36.2754L151.393 35.9531L148.791 29.4492ZM53.7051 47.1895H57.1035V51.6309C56.5527 51.8105 56.0332 51.9355 55.5449 52.0059C55.0605 52.0801 54.5645 52.1172 54.0566 52.1172C52.7637 52.1172 51.7754 51.7383 51.0918 50.9805C50.4121 50.2188 50.0723 49.127 50.0723 47.7051C50.0723 46.3223 50.4668 45.2441 51.2559 44.4707C52.0488 43.6973 53.1465 43.3105 54.5488 43.3105C55.4277 43.3105 56.2754 43.4863 57.0918 43.8379L56.4883 45.291C55.8633 44.9785 55.2129 44.8223 54.5371 44.8223C53.752 44.8223 53.123 45.0859 52.6504 45.6133C52.1777 46.1406 51.9414 46.8496 51.9414 47.7402C51.9414 48.6699 52.1309 49.3809 52.5098 49.873C52.8926 50.3613 53.4473 50.6055 54.1738 50.6055C54.5527 50.6055 54.9375 50.5664 55.3281 50.4883V48.7012H53.7051V47.1895ZM63.168 52L62.8223 51.1094H62.7754C62.4746 51.4883 62.1641 51.752 61.8438 51.9004C61.5273 52.0449 61.1133 52.1172 60.6016 52.1172C59.9727 52.1172 59.4766 51.9375 59.1133 51.5781C58.7539 51.2188 58.5742 50.707 58.5742 50.043C58.5742 49.3477 58.8164 48.8359 59.3008 48.5078C59.7891 48.1758 60.5234 47.9922 61.5039 47.957L62.6406 47.9219V47.6348C62.6406 46.9707 62.3008 46.6387 61.6211 46.6387C61.0977 46.6387 60.4824 46.7969 59.7754 47.1133L59.1836 45.9062C59.9375 45.5117 60.7734 45.3145 61.6914 45.3145C62.5703 45.3145 63.2441 45.5059 63.7129 45.8887C64.1816 46.2715 64.416 46.8535 64.416 47.6348V52H63.168ZM62.6406 48.9648L61.9492 48.9883C61.4297 49.0039 61.043 49.0977 60.7891 49.2695C60.5352 49.4414 60.4082 49.7031 60.4082 50.0547C60.4082 50.5586 60.6973 50.8105 61.2754 50.8105C61.6895 50.8105 62.0195 50.6914 62.2656 50.4531C62.5156 50.2148 62.6406 49.8984 62.6406 49.5039V48.9648ZM68.0488 52H66.2617V42.8828H68.0488V52ZM74.0898 52L73.7441 51.1094H73.6973C73.3965 51.4883 73.0859 51.752 72.7656 51.9004C72.4492 52.0449 72.0352 52.1172 71.5234 52.1172C70.8945 52.1172 70.3984 51.9375 70.0352 51.5781C69.6758 51.2188 69.4961 50.707 69.4961 50.043C69.4961 49.3477 69.7383 48.8359 70.2227 48.5078C70.7109 48.1758 71.4453 47.9922 72.4258 47.957L73.5625 47.9219V47.6348C73.5625 46.9707 73.2227 46.6387 72.543 46.6387C72.0195 46.6387 71.4043 46.7969 70.6973 47.1133L70.1055 45.9062C70.8594 45.5117 71.6953 45.3145 72.6133 45.3145C73.4922 45.3145 74.166 45.5059 74.6348 45.8887C75.1035 46.2715 75.3379 46.8535 75.3379 47.6348V52H74.0898ZM73.5625 48.9648L72.8711 48.9883C72.3516 49.0039 71.9648 49.0977 71.7109 49.2695C71.457 49.4414 71.3301 49.7031 71.3301 50.0547C71.3301 50.5586 71.6191 50.8105 72.1973 50.8105C72.6113 50.8105 72.9414 50.6914 73.1875 50.4531C73.4375 50.2148 73.5625 49.8984 73.5625 49.5039V48.9648ZM78.5254 48.6543L76.416 45.4492H78.4434L79.7148 47.5352L80.998 45.4492H83.0254L80.8926 48.6543L83.125 52H81.0918L79.7148 49.7559L78.332 52H76.3047L78.5254 48.6543ZM84.0449 43.7559C84.0449 43.1738 84.3691 42.8828 85.0176 42.8828C85.666 42.8828 85.9902 43.1738 85.9902 43.7559C85.9902 44.0332 85.9082 44.25 85.7441 44.4062C85.584 44.5586 85.3418 44.6348 85.0176 44.6348C84.3691 44.6348 84.0449 44.3418 84.0449 43.7559ZM85.9082 52H84.1211V45.4492H85.9082V52ZM91.9492 52L91.6035 51.1094H91.5566C91.2559 51.4883 90.9453 51.752 90.625 51.9004C90.3086 52.0449 89.8945 52.1172 89.3828 52.1172C88.7539 52.1172 88.2578 51.9375 87.8945 51.5781C87.5352 51.2188 87.3555 50.707 87.3555 50.043C87.3555 49.3477 87.5977 48.8359 88.082 48.5078C88.5703 48.1758 89.3047 47.9922 90.2852 47.957L91.4219 47.9219V47.6348C91.4219 46.9707 91.082 46.6387 90.4023 46.6387C89.8789 46.6387 89.2637 46.7969 88.5566 47.1133L87.9648 45.9062C88.7188 45.5117 89.5547 45.3145 90.4727 45.3145C91.3516 45.3145 92.0254 45.5059 92.4941 45.8887C92.9629 46.2715 93.1973 46.8535 93.1973 47.6348V52H91.9492ZM91.4219 48.9648L90.7305 48.9883C90.2109 49.0039 89.8242 49.0977 89.5703 49.2695C89.3164 49.4414 89.1895 49.7031 89.1895 50.0547C89.1895 50.5586 89.4785 50.8105 90.0566 50.8105C90.4707 50.8105 90.8008 50.6914 91.0469 50.4531C91.2969 50.2148 91.4219 49.8984 91.4219 49.5039V48.9648ZM101.758 52.1172C100.988 52.1172 100.385 51.8379 99.9473 51.2793H99.8535C99.916 51.8262 99.9473 52.1426 99.9473 52.2285V54.8828H98.1602V45.4492H99.6133L99.8652 46.2988H99.9473C100.365 45.6504 100.984 45.3262 101.805 45.3262C102.578 45.3262 103.184 45.625 103.621 46.2227C104.059 46.8203 104.277 47.6504 104.277 48.7129C104.277 49.4121 104.174 50.0195 103.967 50.5352C103.764 51.0508 103.473 51.4434 103.094 51.7129C102.715 51.9824 102.27 52.1172 101.758 52.1172ZM101.23 46.7559C100.789 46.7559 100.467 46.8926 100.264 47.166C100.061 47.4355 99.9551 47.8828 99.9473 48.5078V48.7012C99.9473 49.4043 100.051 49.9082 100.258 50.2129C100.469 50.5176 100.801 50.6699 101.254 50.6699C102.055 50.6699 102.455 50.0098 102.455 48.6895C102.455 48.0449 102.355 47.5625 102.156 47.2422C101.961 46.918 101.652 46.7559 101.23 46.7559ZM107.541 52H105.754V42.8828H107.541V52ZM113.582 52L113.236 51.1094H113.189C112.889 51.4883 112.578 51.752 112.258 51.9004C111.941 52.0449 111.527 52.1172 111.016 52.1172C110.387 52.1172 109.891 51.9375 109.527 51.5781C109.168 51.2188 108.988 50.707 108.988 50.043C108.988 49.3477 109.23 48.8359 109.715 48.5078C110.203 48.1758 110.938 47.9922 111.918 47.957L113.055 47.9219V47.6348C113.055 46.9707 112.715 46.6387 112.035 46.6387C111.512 46.6387 110.896 46.7969 110.189 47.1133L109.598 45.9062C110.352 45.5117 111.188 45.3145 112.105 45.3145C112.984 45.3145 113.658 45.5059 114.127 45.8887C114.596 46.2715 114.83 46.8535 114.83 47.6348V52H113.582ZM113.055 48.9648L112.363 48.9883C111.844 49.0039 111.457 49.0977 111.203 49.2695C110.949 49.4414 110.822 49.7031 110.822 50.0547C110.822 50.5586 111.111 50.8105 111.689 50.8105C112.104 50.8105 112.434 50.6914 112.68 50.4531C112.93 50.2148 113.055 49.8984 113.055 49.5039V48.9648ZM122.723 52H120.936V48.1738C120.936 47.7012 120.852 47.3477 120.684 47.1133C120.516 46.875 120.248 46.7559 119.881 46.7559C119.381 46.7559 119.02 46.9238 118.797 47.2598C118.574 47.5918 118.463 48.1445 118.463 48.918V52H116.676V45.4492H118.041L118.281 46.2871H118.381C118.58 45.9707 118.854 45.7324 119.201 45.5723C119.553 45.4082 119.951 45.3262 120.396 45.3262C121.158 45.3262 121.736 45.5332 122.131 45.9473C122.525 46.3574 122.723 46.9512 122.723 47.7285V52ZM127.275 46.5977C126.896 46.5977 126.6 46.7188 126.385 46.9609C126.17 47.1992 126.047 47.5391 126.016 47.9805H128.523C128.516 47.5391 128.4 47.1992 128.178 46.9609C127.955 46.7188 127.654 46.5977 127.275 46.5977ZM127.527 52.1172C126.473 52.1172 125.648 51.8262 125.055 51.2441C124.461 50.6621 124.164 49.8379 124.164 48.7715C124.164 47.6738 124.438 46.8262 124.984 46.2285C125.535 45.627 126.295 45.3262 127.264 45.3262C128.189 45.3262 128.91 45.5898 129.426 46.1172C129.941 46.6445 130.199 47.373 130.199 48.3027V49.1699H125.975C125.994 49.6777 126.145 50.0742 126.426 50.3594C126.707 50.6445 127.102 50.7871 127.609 50.7871C128.004 50.7871 128.377 50.7461 128.729 50.6641C129.08 50.582 129.447 50.4512 129.83 50.2715V51.6543C129.518 51.8105 129.184 51.9258 128.828 52C128.473 52.0781 128.039 52.1172 127.527 52.1172ZM134.412 50.6934C134.725 50.6934 135.1 50.625 135.537 50.4883V51.8184C135.092 52.0176 134.545 52.1172 133.896 52.1172C133.182 52.1172 132.66 51.9375 132.332 51.5781C132.008 51.2148 131.846 50.6719 131.846 49.9492V46.791H130.99V46.0352L131.975 45.4375L132.49 44.0547H133.633V45.4492H135.467V46.791H133.633V49.9492C133.633 50.2031 133.703 50.3906 133.844 50.5117C133.988 50.6328 134.178 50.6934 134.412 50.6934ZM141.438 50.0547C141.438 50.7266 141.203 51.2383 140.734 51.5898C140.27 51.9414 139.572 52.1172 138.643 52.1172C138.166 52.1172 137.76 52.084 137.424 52.0176C137.088 51.9551 136.773 51.8613 136.48 51.7363V50.2598C136.812 50.416 137.186 50.5469 137.6 50.6523C138.018 50.7578 138.385 50.8105 138.701 50.8105C139.35 50.8105 139.674 50.623 139.674 50.248C139.674 50.1074 139.631 49.9941 139.545 49.9082C139.459 49.8184 139.311 49.7188 139.1 49.6094C138.889 49.4961 138.607 49.3652 138.256 49.2168C137.752 49.0059 137.381 48.8105 137.143 48.6309C136.908 48.4512 136.736 48.2461 136.627 48.0156C136.521 47.7812 136.469 47.4941 136.469 47.1543C136.469 46.5723 136.693 46.123 137.143 45.8066C137.596 45.4863 138.236 45.3262 139.064 45.3262C139.854 45.3262 140.621 45.498 141.367 45.8418L140.828 47.1309C140.5 46.9902 140.193 46.875 139.908 46.7852C139.623 46.6953 139.332 46.6504 139.035 46.6504C138.508 46.6504 138.244 46.793 138.244 47.0781C138.244 47.2383 138.328 47.377 138.496 47.4941C138.668 47.6113 139.041 47.7852 139.615 48.0156C140.127 48.2227 140.502 48.416 140.74 48.5957C140.979 48.7754 141.154 48.9824 141.268 49.2168C141.381 49.4512 141.438 49.7305 141.438 50.0547ZM143.512 49.1582V48.7246C143.512 48.3496 143.592 48.0234 143.752 47.7461C143.912 47.4688 144.205 47.1738 144.631 46.8613C145.041 46.5684 145.311 46.3301 145.439 46.1465C145.572 45.9629 145.639 45.7578 145.639 45.5312C145.639 45.2773 145.545 45.084 145.357 44.9512C145.17 44.8184 144.908 44.752 144.572 44.752C143.986 44.752 143.318 44.9434 142.568 45.3262L141.93 44.043C142.801 43.5547 143.725 43.3105 144.701 43.3105C145.506 43.3105 146.145 43.5039 146.617 43.8906C147.094 44.2773 147.332 44.793 147.332 45.4375C147.332 45.8672 147.234 46.2383 147.039 46.5508C146.844 46.8633 146.473 47.2148 145.926 47.6055C145.551 47.8828 145.312 48.0938 145.211 48.2383C145.113 48.3828 145.064 48.5723 145.064 48.8066V49.1582H143.512ZM143.324 51.1621C143.324 50.834 143.412 50.5859 143.588 50.418C143.764 50.25 144.02 50.166 144.355 50.166C144.68 50.166 144.93 50.252 145.105 50.4238C145.285 50.5957 145.375 50.8418 145.375 51.1621C145.375 51.4707 145.285 51.7148 145.105 51.8945C144.926 52.0703 144.676 52.1582 144.355 52.1582C144.027 52.1582 143.773 52.0723 143.594 51.9004C143.414 51.7246 143.324 51.4785 143.324 51.1621Z" fill="#333333"/>
<line x1="178" y1="16.5" x2="195" y2="16.5" stroke="#9A9A9A"/>
<path d="M36.2969 92L35.7266 90.4141H33.543L32.9844 92H32L34.1367 86.2656H35.1523L37.2891 92H36.2969ZM35.4805 89.6094L34.9453 88.0547C34.9062 87.9505 34.8516 87.7865 34.7812 87.5625C34.7135 87.3385 34.6667 87.1745 34.6406 87.0703C34.5703 87.3906 34.4674 87.7409 34.332 88.1211L33.8164 89.6094H35.4805ZM39.5039 89.8086C39.5039 90.4935 39.4023 91.1315 39.1992 91.7227C38.9987 92.3138 38.7083 92.8281 38.3281 93.2656H37.5352C37.8945 92.7786 38.1693 92.2383 38.3594 91.6445C38.5521 91.0508 38.6484 90.4362 38.6484 89.8008C38.6484 89.1628 38.5521 88.5417 38.3594 87.9375C38.1667 87.3307 37.8893 86.7812 37.5273 86.2891H38.3281C38.7109 86.7448 39.0026 87.2747 39.2031 87.8789C39.4036 88.4805 39.5039 89.1237 39.5039 89.8086ZM45.0898 87.0078C44.5534 87.0078 44.1315 87.1979 43.8242 87.5781C43.5169 87.9583 43.3633 88.4831 43.3633 89.1523C43.3633 89.8529 43.5104 90.3828 43.8047 90.7422C44.1016 91.1016 44.5299 91.2812 45.0898 91.2812C45.332 91.2812 45.5664 91.2578 45.793 91.2109C46.0195 91.1615 46.2552 91.099 46.5 91.0234V91.8242C46.0521 91.9935 45.5443 92.0781 44.9766 92.0781C44.1406 92.0781 43.4987 91.8255 43.0508 91.3203C42.6029 90.8125 42.3789 90.0872 42.3789 89.1445C42.3789 88.5508 42.487 88.0312 42.7031 87.5859C42.9219 87.1406 43.237 86.7995 43.6484 86.5625C44.0599 86.3255 44.543 86.207 45.0977 86.207C45.681 86.207 46.2201 86.3294 46.7148 86.5742L46.3789 87.3516C46.1862 87.2604 45.9818 87.181 45.7656 87.1133C45.5521 87.043 45.3268 87.0078 45.0898 87.0078ZM51.4648 89.832C51.4648 90.5378 51.2839 91.0885 50.9219 91.4844C50.5599 91.8802 50.056 92.0781 49.4102 92.0781C49.0065 92.0781 48.6497 91.987 48.3398 91.8047C48.0299 91.6224 47.7917 91.3607 47.625 91.0195C47.4583 90.6784 47.375 90.2826 47.375 89.832C47.375 89.1315 47.5547 88.5846 47.9141 88.1914C48.2734 87.7982 48.7799 87.6016 49.4336 87.6016C50.0586 87.6016 50.5534 87.8034 50.918 88.207C51.2826 88.6081 51.4648 89.1497 51.4648 89.832ZM48.3203 89.832C48.3203 90.8294 48.6888 91.3281 49.4258 91.3281C50.1549 91.3281 50.5195 90.8294 50.5195 89.832C50.5195 88.8451 50.1523 88.3516 49.418 88.3516C49.0326 88.3516 48.7526 88.4792 48.5781 88.7344C48.4062 88.9896 48.3203 89.3555 48.3203 89.832ZM53.4414 92H52.5234V87.6797H53.4414V92ZM52.4688 86.5352C52.4688 86.3711 52.513 86.2448 52.6016 86.1562C52.6927 86.0677 52.8216 86.0234 52.9883 86.0234C53.1497 86.0234 53.2747 86.0677 53.3633 86.1562C53.4544 86.2448 53.5 86.3711 53.5 86.5352C53.5 86.6914 53.4544 86.8151 53.3633 86.9062C53.2747 86.9948 53.1497 87.0391 52.9883 87.0391C52.8216 87.0391 52.6927 86.9948 52.6016 86.9062C52.513 86.8151 52.4688 86.6914 52.4688 86.5352ZM58.5586 92H57.6367V89.3438C57.6367 89.0104 57.569 88.7617 57.4336 88.5977C57.3008 88.4336 57.0885 88.3516 56.7969 88.3516C56.4089 88.3516 56.125 88.4661 55.9453 88.6953C55.7656 88.9245 55.6758 89.3086 55.6758 89.8477V92H54.7578V87.6797H55.4766L55.6055 88.2461H55.6523C55.7826 88.0404 55.9674 87.8815 56.207 87.7695C56.4466 87.6576 56.7122 87.6016 57.0039 87.6016C58.0404 87.6016 58.5586 88.1289 58.5586 89.1836V92ZM62.043 87.6016C62.582 87.6016 63.0013 87.7969 63.3008 88.1875C63.6029 88.5781 63.7539 89.1263 63.7539 89.832C63.7539 90.5404 63.6016 91.0924 63.2969 91.4883C62.9922 91.8815 62.569 92.0781 62.0273 92.0781C61.4805 92.0781 61.056 91.8815 60.7539 91.4883H60.6914L60.5234 92H59.8359V85.9219H60.7539V87.3672C60.7539 87.474 60.7487 87.6328 60.7383 87.8438C60.7279 88.0547 60.7201 88.1888 60.7148 88.2461H60.7539C61.0456 87.8164 61.4753 87.6016 62.043 87.6016ZM61.8047 88.3516C61.4349 88.3516 61.168 88.4609 61.0039 88.6797C60.8424 88.8958 60.7591 89.2591 60.7539 89.7695V89.832C60.7539 90.3581 60.8372 90.7396 61.0039 90.9766C61.1706 91.2109 61.4427 91.3281 61.8203 91.3281C62.1458 91.3281 62.3919 91.1992 62.5586 90.9414C62.7279 90.6836 62.8125 90.3112 62.8125 89.8242C62.8125 88.8424 62.4766 88.3516 61.8047 88.3516ZM67.5234 92L67.3398 91.3984H67.3086C67.1003 91.6615 66.8906 91.8411 66.6797 91.9375C66.4688 92.0312 66.1979 92.0781 65.8672 92.0781C65.4427 92.0781 65.1107 91.9635 64.8711 91.7344C64.6341 91.5052 64.5156 91.181 64.5156 90.7617C64.5156 90.3164 64.681 89.9805 65.0117 89.7539C65.3424 89.5273 65.8464 89.4036 66.5234 89.3828L67.2695 89.3594V89.1289C67.2695 88.8529 67.2044 88.6471 67.0742 88.5117C66.9466 88.3737 66.7474 88.3047 66.4766 88.3047C66.2552 88.3047 66.043 88.3372 65.8398 88.4023C65.6367 88.4674 65.4414 88.5443 65.2539 88.6328L64.957 87.9766C65.1914 87.8542 65.4479 87.7617 65.7266 87.6992C66.0052 87.6341 66.2682 87.6016 66.5156 87.6016C67.0651 87.6016 67.4792 87.7214 67.7578 87.9609C68.0391 88.2005 68.1797 88.5768 68.1797 89.0898V92H67.5234ZM66.1562 91.375C66.4896 91.375 66.7565 91.2826 66.957 91.0977C67.1602 90.9102 67.2617 90.6484 67.2617 90.3125V89.9375L66.707 89.9609C66.2747 89.9766 65.9596 90.0495 65.7617 90.1797C65.5664 90.3073 65.4688 90.5039 65.4688 90.7695C65.4688 90.9622 65.526 91.112 65.6406 91.2188C65.7552 91.3229 65.9271 91.375 66.1562 91.375ZM72.3633 90.7695C72.3633 91.1914 72.2096 91.5156 71.9023 91.7422C71.5951 91.9661 71.1549 92.0781 70.582 92.0781C70.0065 92.0781 69.5443 91.9909 69.1953 91.8164V91.0234C69.7031 91.2578 70.1758 91.375 70.6133 91.375C71.1784 91.375 71.4609 91.2044 71.4609 90.8633C71.4609 90.7539 71.4297 90.6628 71.3672 90.5898C71.3047 90.5169 71.2018 90.4414 71.0586 90.3633C70.9154 90.2852 70.7161 90.1966 70.4609 90.0977C69.9635 89.9049 69.6263 89.7122 69.4492 89.5195C69.2747 89.3268 69.1875 89.0768 69.1875 88.7695C69.1875 88.3997 69.3359 88.1133 69.6328 87.9102C69.9323 87.7044 70.3385 87.6016 70.8516 87.6016C71.3594 87.6016 71.8398 87.7044 72.293 87.9102L71.9961 88.6016C71.5299 88.4089 71.138 88.3125 70.8203 88.3125C70.3359 88.3125 70.0938 88.4505 70.0938 88.7266C70.0938 88.862 70.1562 88.9766 70.2812 89.0703C70.4089 89.1641 70.6849 89.293 71.1094 89.457C71.4661 89.5951 71.7253 89.7214 71.8867 89.8359C72.0482 89.9505 72.168 90.0833 72.2461 90.2344C72.3242 90.3828 72.3633 90.5612 72.3633 90.7695ZM75.2461 92.0781C74.5742 92.0781 74.0482 91.8828 73.668 91.4922C73.2904 91.099 73.1016 90.5586 73.1016 89.8711C73.1016 89.1654 73.2773 88.6107 73.6289 88.207C73.9805 87.8034 74.4635 87.6016 75.0781 87.6016C75.6484 87.6016 76.099 87.7747 76.4297 88.1211C76.7604 88.4674 76.9258 88.944 76.9258 89.5508V90.0469H74.0469C74.0599 90.4661 74.1732 90.7891 74.3867 91.0156C74.6003 91.2396 74.901 91.3516 75.2891 91.3516C75.5443 91.3516 75.7812 91.3281 76 91.2812C76.2214 91.2318 76.4583 91.151 76.7109 91.0391V91.7852C76.487 91.8919 76.2604 91.9674 76.0312 92.0117C75.8021 92.056 75.5404 92.0781 75.2461 92.0781ZM75.0781 88.2969C74.7865 88.2969 74.5521 88.3893 74.375 88.5742C74.2005 88.7591 74.0964 89.0286 74.0625 89.3828H76.0234C76.0182 89.026 75.9323 88.7565 75.7656 88.5742C75.599 88.3893 75.3698 88.2969 75.0781 88.2969Z" fill="#8E8E8E"/>
<path d="M32.7539 105.289H34.4492C35.2357 105.289 35.8034 105.404 36.1523 105.633C36.5039 105.862 36.6797 106.224 36.6797 106.719C36.6797 107.052 36.5938 107.329 36.4219 107.551C36.25 107.772 36.0026 107.911 35.6797 107.969V108.008C36.0807 108.083 36.375 108.233 36.5625 108.457C36.7526 108.678 36.8477 108.979 36.8477 109.359C36.8477 109.872 36.668 110.275 36.3086 110.566C35.9518 110.855 35.4544 111 34.8164 111H32.7539V105.289ZM33.6875 107.648H34.5859C34.9766 107.648 35.2617 107.587 35.4414 107.465C35.6211 107.34 35.7109 107.129 35.7109 106.832C35.7109 106.564 35.6133 106.37 35.418 106.25C35.2253 106.13 34.918 106.07 34.4961 106.07H33.6875V107.648ZM33.6875 108.406V110.215H34.6797C35.0703 110.215 35.3646 110.141 35.5625 109.992C35.763 109.841 35.8633 109.604 35.8633 109.281C35.8633 108.984 35.7617 108.764 35.5586 108.621C35.3555 108.478 35.0469 108.406 34.6328 108.406H33.6875ZM39.4961 108.809C39.4961 109.493 39.3945 110.132 39.1914 110.723C38.9909 111.314 38.7005 111.828 38.3203 112.266H37.5273C37.8867 111.779 38.1615 111.238 38.3516 110.645C38.5443 110.051 38.6406 109.436 38.6406 108.801C38.6406 108.163 38.5443 107.542 38.3516 106.938C38.1589 106.331 37.8815 105.781 37.5195 105.289H38.3203C38.7031 105.745 38.9948 106.275 39.1953 106.879C39.3958 107.48 39.4961 108.124 39.4961 108.809ZM47.7227 108.137C47.7227 109.066 47.4896 109.789 47.0234 110.305C46.5599 110.82 45.9023 111.078 45.0508 111.078C44.1888 111.078 43.526 110.823 43.0625 110.312C42.6016 109.799 42.3711 109.072 42.3711 108.129C42.3711 107.186 42.6029 106.462 43.0664 105.957C43.5326 105.452 44.1966 105.199 45.0586 105.199C45.9076 105.199 46.5638 105.456 47.0273 105.969C47.4909 106.482 47.7227 107.204 47.7227 108.137ZM43.3633 108.137C43.3633 108.84 43.5052 109.374 43.7891 109.738C44.0729 110.1 44.4935 110.281 45.0508 110.281C45.6055 110.281 46.0234 110.102 46.3047 109.742C46.5885 109.383 46.7305 108.848 46.7305 108.137C46.7305 107.436 46.5898 106.905 46.3086 106.543C46.0299 106.181 45.6133 106 45.0586 106C44.4987 106 44.0755 106.181 43.7891 106.543C43.5052 106.905 43.3633 107.436 43.3633 108.137ZM51.043 111.078C50.4961 111.078 50.0716 110.882 49.7695 110.488H49.7148C49.7513 110.853 49.7695 111.074 49.7695 111.152V112.922H48.8516V106.68H49.5938C49.6146 106.76 49.6576 106.953 49.7227 107.258H49.7695C50.056 106.82 50.4857 106.602 51.0586 106.602C51.5977 106.602 52.0169 106.797 52.3164 107.188C52.6185 107.578 52.7695 108.126 52.7695 108.832C52.7695 109.538 52.6159 110.089 52.3086 110.484C52.0039 110.88 51.582 111.078 51.043 111.078ZM50.8203 107.352C50.4557 107.352 50.1888 107.458 50.0195 107.672C49.8529 107.885 49.7695 108.227 49.7695 108.695V108.832C49.7695 109.358 49.8529 109.74 50.0195 109.977C50.1862 110.211 50.4583 110.328 50.8359 110.328C51.1536 110.328 51.3984 110.198 51.5703 109.938C51.7422 109.677 51.8281 109.306 51.8281 108.824C51.8281 108.34 51.7422 107.974 51.5703 107.727C51.401 107.477 51.151 107.352 50.8203 107.352ZM55.7227 111.078C55.0508 111.078 54.5247 110.883 54.1445 110.492C53.7669 110.099 53.5781 109.559 53.5781 108.871C53.5781 108.165 53.7539 107.611 54.1055 107.207C54.457 106.803 54.9401 106.602 55.5547 106.602C56.125 106.602 56.5755 106.775 56.9062 107.121C57.237 107.467 57.4023 107.944 57.4023 108.551V109.047H54.5234C54.5365 109.466 54.6497 109.789 54.8633 110.016C55.0768 110.24 55.3776 110.352 55.7656 110.352C56.0208 110.352 56.2578 110.328 56.4766 110.281C56.6979 110.232 56.9349 110.151 57.1875 110.039V110.785C56.9635 110.892 56.737 110.967 56.5078 111.012C56.2786 111.056 56.0169 111.078 55.7227 111.078ZM55.5547 107.297C55.263 107.297 55.0286 107.389 54.8516 107.574C54.6771 107.759 54.5729 108.029 54.5391 108.383H56.5C56.4948 108.026 56.4089 107.757 56.2422 107.574C56.0755 107.389 55.8464 107.297 55.5547 107.297ZM62.2461 111H61.3242V108.344C61.3242 108.01 61.2565 107.762 61.1211 107.598C60.9883 107.434 60.776 107.352 60.4844 107.352C60.0964 107.352 59.8125 107.466 59.6328 107.695C59.4531 107.924 59.3633 108.309 59.3633 108.848V111H58.4453V106.68H59.1641L59.293 107.246H59.3398C59.4701 107.04 59.6549 106.882 59.8945 106.77C60.1341 106.658 60.3997 106.602 60.6914 106.602C61.7279 106.602 62.2461 107.129 62.2461 108.184V111ZM66.4258 109.77C66.4258 110.191 66.2721 110.516 65.9648 110.742C65.6576 110.966 65.2174 111.078 64.6445 111.078C64.069 111.078 63.6068 110.991 63.2578 110.816V110.023C63.7656 110.258 64.2383 110.375 64.6758 110.375C65.2409 110.375 65.5234 110.204 65.5234 109.863C65.5234 109.754 65.4922 109.663 65.4297 109.59C65.3672 109.517 65.2643 109.441 65.1211 109.363C64.9779 109.285 64.7786 109.197 64.5234 109.098C64.026 108.905 63.6888 108.712 63.5117 108.52C63.3372 108.327 63.25 108.077 63.25 107.77C63.25 107.4 63.3984 107.113 63.6953 106.91C63.9948 106.704 64.401 106.602 64.9141 106.602C65.4219 106.602 65.9023 106.704 66.3555 106.91L66.0586 107.602C65.5924 107.409 65.2005 107.312 64.8828 107.312C64.3984 107.312 64.1562 107.451 64.1562 107.727C64.1562 107.862 64.2188 107.977 64.3438 108.07C64.4714 108.164 64.7474 108.293 65.1719 108.457C65.5286 108.595 65.7878 108.721 65.9492 108.836C66.1107 108.951 66.2305 109.083 66.3086 109.234C66.3867 109.383 66.4258 109.561 66.4258 109.77ZM69.3086 111.078C68.6367 111.078 68.1107 110.883 67.7305 110.492C67.3529 110.099 67.1641 109.559 67.1641 108.871C67.1641 108.165 67.3398 107.611 67.6914 107.207C68.043 106.803 68.526 106.602 69.1406 106.602C69.7109 106.602 70.1615 106.775 70.4922 107.121C70.8229 107.467 70.9883 107.944 70.9883 108.551V109.047H68.1094C68.1224 109.466 68.2357 109.789 68.4492 110.016C68.6628 110.24 68.9635 110.352 69.3516 110.352C69.6068 110.352 69.8438 110.328 70.0625 110.281C70.2839 110.232 70.5208 110.151 70.7734 110.039V110.785C70.5495 110.892 70.3229 110.967 70.0938 111.012C69.8646 111.056 69.6029 111.078 69.3086 111.078ZM69.1406 107.297C68.849 107.297 68.6146 107.389 68.4375 107.574C68.263 107.759 68.1589 108.029 68.125 108.383H70.0859C70.0807 108.026 69.9948 107.757 69.8281 107.574C69.6615 107.389 69.4323 107.297 69.1406 107.297ZM74.7344 111L74.5508 110.398H74.5195C74.3112 110.661 74.1016 110.841 73.8906 110.938C73.6797 111.031 73.4089 111.078 73.0781 111.078C72.6536 111.078 72.3216 110.964 72.082 110.734C71.8451 110.505 71.7266 110.181 71.7266 109.762C71.7266 109.316 71.8919 108.98 72.2227 108.754C72.5534 108.527 73.0573 108.404 73.7344 108.383L74.4805 108.359V108.129C74.4805 107.853 74.4154 107.647 74.2852 107.512C74.1576 107.374 73.9583 107.305 73.6875 107.305C73.4661 107.305 73.2539 107.337 73.0508 107.402C72.8477 107.467 72.6523 107.544 72.4648 107.633L72.168 106.977C72.4023 106.854 72.6589 106.762 72.9375 106.699C73.2161 106.634 73.4792 106.602 73.7266 106.602C74.276 106.602 74.6901 106.721 74.9688 106.961C75.25 107.201 75.3906 107.577 75.3906 108.09V111H74.7344ZM73.3672 110.375C73.7005 110.375 73.9674 110.283 74.168 110.098C74.3711 109.91 74.4727 109.648 74.4727 109.312V108.938L73.918 108.961C73.4857 108.977 73.1706 109.049 72.9727 109.18C72.7773 109.307 72.6797 109.504 72.6797 109.77C72.6797 109.962 72.737 110.112 72.8516 110.219C72.9661 110.323 73.138 110.375 73.3672 110.375Z" fill="#8E8E8E"/>
<path d="M35.1836 125.008C34.6471 125.008 34.2253 125.198 33.918 125.578C33.6107 125.958 33.457 126.483 33.457 127.152C33.457 127.853 33.6042 128.383 33.8984 128.742C34.1953 129.102 34.6237 129.281 35.1836 129.281C35.4258 129.281 35.6602 129.258 35.8867 129.211C36.1133 129.161 36.349 129.099 36.5938 129.023V129.824C36.1458 129.993 35.638 130.078 35.0703 130.078C34.2344 130.078 33.5924 129.826 33.1445 129.32C32.6966 128.812 32.4727 128.087 32.4727 127.145C32.4727 126.551 32.5807 126.031 32.7969 125.586C33.0156 125.141 33.3307 124.799 33.7422 124.562C34.1536 124.326 34.6367 124.207 35.1914 124.207C35.7747 124.207 36.3138 124.329 36.8086 124.574L36.4727 125.352C36.2799 125.26 36.0755 125.181 35.8594 125.113C35.6458 125.043 35.4206 125.008 35.1836 125.008ZM39.2852 127.809C39.2852 128.493 39.1836 129.132 38.9805 129.723C38.7799 130.314 38.4896 130.828 38.1094 131.266H37.3164C37.6758 130.779 37.9505 130.238 38.1406 129.645C38.3333 129.051 38.4297 128.436 38.4297 127.801C38.4297 127.163 38.3333 126.542 38.1406 125.938C37.9479 125.331 37.6706 124.781 37.3086 124.289H38.1094C38.4922 124.745 38.7839 125.275 38.9844 125.879C39.1849 126.48 39.2852 127.124 39.2852 127.809ZM42.4414 124.289H44.1367C44.9232 124.289 45.4909 124.404 45.8398 124.633C46.1914 124.862 46.3672 125.224 46.3672 125.719C46.3672 126.052 46.2812 126.329 46.1094 126.551C45.9375 126.772 45.6901 126.911 45.3672 126.969V127.008C45.7682 127.083 46.0625 127.233 46.25 127.457C46.4401 127.678 46.5352 127.979 46.5352 128.359C46.5352 128.872 46.3555 129.275 45.9961 129.566C45.6393 129.855 45.1419 130 44.5039 130H42.4414V124.289ZM43.375 126.648H44.2734C44.6641 126.648 44.9492 126.587 45.1289 126.465C45.3086 126.34 45.3984 126.129 45.3984 125.832C45.3984 125.564 45.3008 125.37 45.1055 125.25C44.9128 125.13 44.6055 125.07 44.1836 125.07H43.375V126.648ZM43.375 127.406V129.215H44.3672C44.7578 129.215 45.0521 129.141 45.25 128.992C45.4505 128.841 45.5508 128.604 45.5508 128.281C45.5508 127.984 45.4492 127.764 45.2461 127.621C45.043 127.478 44.7344 127.406 44.3203 127.406H43.375ZM48.543 130H47.625V125.68H48.543V130ZM47.5703 124.535C47.5703 124.371 47.6146 124.245 47.7031 124.156C47.7943 124.068 47.9232 124.023 48.0898 124.023C48.2513 124.023 48.3763 124.068 48.4648 124.156C48.556 124.245 48.6016 124.371 48.6016 124.535C48.6016 124.691 48.556 124.815 48.4648 124.906C48.3763 124.995 48.2513 125.039 48.0898 125.039C47.9232 125.039 47.7943 124.995 47.7031 124.906C47.6146 124.815 47.5703 124.691 47.5703 124.535ZM53.6602 130H52.7383V127.344C52.7383 127.01 52.6706 126.762 52.5352 126.598C52.4023 126.434 52.1901 126.352 51.8984 126.352C51.5104 126.352 51.2266 126.466 51.0469 126.695C50.8672 126.924 50.7773 127.309 50.7773 127.848V130H49.8594V125.68H50.5781L50.707 126.246H50.7539C50.8841 126.04 51.069 125.882 51.3086 125.77C51.5482 125.658 51.8138 125.602 52.1055 125.602C53.1419 125.602 53.6602 126.129 53.6602 127.184V130ZM57.6406 130L57.457 129.398H57.4258C57.2174 129.661 57.0078 129.841 56.7969 129.938C56.5859 130.031 56.3151 130.078 55.9844 130.078C55.5599 130.078 55.2279 129.964 54.9883 129.734C54.7513 129.505 54.6328 129.181 54.6328 128.762C54.6328 128.316 54.7982 127.98 55.1289 127.754C55.4596 127.527 55.9635 127.404 56.6406 127.383L57.3867 127.359V127.129C57.3867 126.853 57.3216 126.647 57.1914 126.512C57.0638 126.374 56.8646 126.305 56.5938 126.305C56.3724 126.305 56.1602 126.337 55.957 126.402C55.7539 126.467 55.5586 126.544 55.3711 126.633L55.0742 125.977C55.3086 125.854 55.5651 125.762 55.8438 125.699C56.1224 125.634 56.3854 125.602 56.6328 125.602C57.1823 125.602 57.5964 125.721 57.875 125.961C58.1562 126.201 58.2969 126.577 58.2969 127.09V130H57.6406ZM56.2734 129.375C56.6068 129.375 56.8737 129.283 57.0742 129.098C57.2773 128.91 57.3789 128.648 57.3789 128.312V127.938L56.8242 127.961C56.3919 127.977 56.0768 128.049 55.8789 128.18C55.6836 128.307 55.5859 128.504 55.5859 128.77C55.5859 128.962 55.6432 129.112 55.7578 129.219C55.8724 129.323 56.0443 129.375 56.2734 129.375ZM63.3789 130H62.457V127.344C62.457 127.01 62.3893 126.762 62.2539 126.598C62.1211 126.434 61.9089 126.352 61.6172 126.352C61.2292 126.352 60.9453 126.466 60.7656 126.695C60.5859 126.924 60.4961 127.309 60.4961 127.848V130H59.5781V125.68H60.2969L60.4258 126.246H60.4727C60.6029 126.04 60.7878 125.882 61.0273 125.77C61.2669 125.658 61.5326 125.602 61.8242 125.602C62.8607 125.602 63.3789 126.129 63.3789 127.184V130ZM66.3984 130.078C65.7448 130.078 65.2474 129.888 64.9062 129.508C64.5677 129.125 64.3984 128.577 64.3984 127.863C64.3984 127.137 64.5755 126.578 64.9297 126.188C65.2865 125.797 65.8008 125.602 66.4727 125.602C66.9284 125.602 67.3385 125.686 67.7031 125.855L67.4258 126.594C67.0378 126.443 66.7174 126.367 66.4648 126.367C65.7174 126.367 65.3438 126.863 65.3438 127.855C65.3438 128.34 65.4362 128.704 65.6211 128.949C65.8086 129.191 66.082 129.312 66.4414 129.312C66.8503 129.312 67.237 129.211 67.6016 129.008V129.809C67.4375 129.905 67.2617 129.974 67.0742 130.016C66.8893 130.057 66.6641 130.078 66.3984 130.078ZM70.5039 130.078C69.832 130.078 69.306 129.883 68.9258 129.492C68.5482 129.099 68.3594 128.559 68.3594 127.871C68.3594 127.165 68.5352 126.611 68.8867 126.207C69.2383 125.803 69.7214 125.602 70.3359 125.602C70.9062 125.602 71.3568 125.775 71.6875 126.121C72.0182 126.467 72.1836 126.944 72.1836 127.551V128.047H69.3047C69.3177 128.466 69.431 128.789 69.6445 129.016C69.8581 129.24 70.1589 129.352 70.5469 129.352C70.8021 129.352 71.0391 129.328 71.2578 129.281C71.4792 129.232 71.7161 129.151 71.9688 129.039V129.785C71.7448 129.892 71.5182 129.967 71.2891 130.012C71.0599 130.056 70.7982 130.078 70.5039 130.078ZM70.3359 126.297C70.0443 126.297 69.8099 126.389 69.6328 126.574C69.4583 126.759 69.3542 127.029 69.3203 127.383H71.2812C71.276 127.026 71.1901 126.757 71.0234 126.574C70.8568 126.389 70.6276 126.297 70.3359 126.297Z" fill="#8E8E8E"/>
<path d="M37.3984 146.09C37.3984 147.033 37.1367 147.754 36.6133 148.254C36.0898 148.751 35.3359 149 34.3516 149H32.7539V143.289H34.5195C35.4284 143.289 36.1354 143.534 36.6406 144.023C37.1458 144.513 37.3984 145.202 37.3984 146.09ZM36.4141 146.121C36.4141 144.754 35.7747 144.07 34.4961 144.07H33.6875V148.215H34.3516C35.7266 148.215 36.4141 147.517 36.4141 146.121ZM40.0898 146.809C40.0898 147.493 39.9883 148.132 39.7852 148.723C39.5846 149.314 39.2943 149.828 38.9141 150.266H38.1211C38.4805 149.779 38.7552 149.238 38.9453 148.645C39.138 148.051 39.2344 147.436 39.2344 146.801C39.2344 146.163 39.138 145.542 38.9453 144.938C38.7526 144.331 38.4753 143.781 38.1133 143.289H38.9141C39.2969 143.745 39.5885 144.275 39.7891 144.879C39.9896 145.48 40.0898 146.124 40.0898 146.809ZM45.7148 149L44.0586 144.23H44.0273C44.0716 144.939 44.0938 145.603 44.0938 146.223V149H43.2461V143.289H44.5625L46.1484 147.832H46.1719L47.8047 143.289H49.125V149H48.2266V146.176C48.2266 145.892 48.2331 145.522 48.2461 145.066C48.2617 144.611 48.2747 144.335 48.2852 144.238H48.2539L46.5391 149H45.7148ZM52.418 149.078C51.7461 149.078 51.2201 148.883 50.8398 148.492C50.4622 148.099 50.2734 147.559 50.2734 146.871C50.2734 146.165 50.4492 145.611 50.8008 145.207C51.1523 144.803 51.6354 144.602 52.25 144.602C52.8203 144.602 53.2708 144.775 53.6016 145.121C53.9323 145.467 54.0977 145.944 54.0977 146.551V147.047H51.2188C51.2318 147.466 51.3451 147.789 51.5586 148.016C51.7721 148.24 52.0729 148.352 52.4609 148.352C52.7161 148.352 52.9531 148.328 53.1719 148.281C53.3932 148.232 53.6302 148.151 53.8828 148.039V148.785C53.6589 148.892 53.4323 148.967 53.2031 149.012C52.974 149.056 52.7122 149.078 52.418 149.078ZM52.25 145.297C51.9583 145.297 51.724 145.389 51.5469 145.574C51.3724 145.759 51.2682 146.029 51.2344 146.383H53.1953C53.1901 146.026 53.1042 145.757 52.9375 145.574C52.7708 145.389 52.5417 145.297 52.25 145.297ZM56.75 148.336C56.974 148.336 57.1979 148.301 57.4219 148.23V148.922C57.3203 148.966 57.1888 149.003 57.0273 149.031C56.8685 149.062 56.7031 149.078 56.5312 149.078C55.6615 149.078 55.2266 148.62 55.2266 147.703V145.375H54.6367V144.969L55.2695 144.633L55.582 143.719H56.1484V144.68H57.3789V145.375H56.1484V147.688C56.1484 147.909 56.2031 148.073 56.3125 148.18C56.4245 148.284 56.5703 148.336 56.75 148.336ZM60.9922 149L60.8086 148.398H60.7773C60.569 148.661 60.3594 148.841 60.1484 148.938C59.9375 149.031 59.6667 149.078 59.3359 149.078C58.9115 149.078 58.5794 148.964 58.3398 148.734C58.1029 148.505 57.9844 148.181 57.9844 147.762C57.9844 147.316 58.1497 146.98 58.4805 146.754C58.8112 146.527 59.3151 146.404 59.9922 146.383L60.7383 146.359V146.129C60.7383 145.853 60.6732 145.647 60.543 145.512C60.4154 145.374 60.2161 145.305 59.9453 145.305C59.724 145.305 59.5117 145.337 59.3086 145.402C59.1055 145.467 58.9102 145.544 58.7227 145.633L58.4258 144.977C58.6602 144.854 58.9167 144.762 59.1953 144.699C59.474 144.634 59.737 144.602 59.9844 144.602C60.5339 144.602 60.9479 144.721 61.2266 144.961C61.5078 145.201 61.6484 145.577 61.6484 146.09V149H60.9922ZM59.625 148.375C59.9583 148.375 60.2253 148.283 60.4258 148.098C60.6289 147.91 60.7305 147.648 60.7305 147.312V146.938L60.1758 146.961C59.7435 146.977 59.4284 147.049 59.2305 147.18C59.0352 147.307 58.9375 147.504 58.9375 147.77C58.9375 147.962 58.9948 148.112 59.1094 148.219C59.224 148.323 59.3958 148.375 59.625 148.375ZM66.5703 149H65.6484V146.336C65.6484 146.005 65.5859 145.759 65.4609 145.598C65.3359 145.434 65.1406 145.352 64.875 145.352C64.5208 145.352 64.2604 145.467 64.0938 145.699C63.9297 145.928 63.8477 146.311 63.8477 146.848V149H62.9297V144.68H63.6484L63.7773 145.246H63.8242C63.944 145.04 64.1172 144.882 64.3438 144.77C64.5729 144.658 64.8242 144.602 65.0977 144.602C65.7617 144.602 66.2018 144.828 66.418 145.281H66.4805C66.6081 145.068 66.7878 144.901 67.0195 144.781C67.2513 144.661 67.5169 144.602 67.8164 144.602C68.332 144.602 68.707 144.732 68.9414 144.992C69.1784 145.253 69.2969 145.65 69.2969 146.184V149H68.3789V146.336C68.3789 146.005 68.3151 145.759 68.1875 145.598C68.0625 145.434 67.8672 145.352 67.6016 145.352C67.2448 145.352 66.9831 145.464 66.8164 145.688C66.6523 145.909 66.5703 146.25 66.5703 146.711V149ZM73.2812 149L73.0977 148.398H73.0664C72.8581 148.661 72.6484 148.841 72.4375 148.938C72.2266 149.031 71.9557 149.078 71.625 149.078C71.2005 149.078 70.8685 148.964 70.6289 148.734C70.3919 148.505 70.2734 148.181 70.2734 147.762C70.2734 147.316 70.4388 146.98 70.7695 146.754C71.1003 146.527 71.6042 146.404 72.2812 146.383L73.0273 146.359V146.129C73.0273 145.853 72.9622 145.647 72.832 145.512C72.7044 145.374 72.5052 145.305 72.2344 145.305C72.013 145.305 71.8008 145.337 71.5977 145.402C71.3945 145.467 71.1992 145.544 71.0117 145.633L70.7148 144.977C70.9492 144.854 71.2057 144.762 71.4844 144.699C71.763 144.634 72.026 144.602 72.2734 144.602C72.8229 144.602 73.237 144.721 73.5156 144.961C73.7969 145.201 73.9375 145.577 73.9375 146.09V149H73.2812ZM71.9141 148.375C72.2474 148.375 72.5143 148.283 72.7148 148.098C72.918 147.91 73.0195 147.648 73.0195 147.312V146.938L72.4648 146.961C72.0326 146.977 71.7174 147.049 71.5195 147.18C71.3242 147.307 71.2266 147.504 71.2266 147.77C71.2266 147.962 71.2839 148.112 71.3984 148.219C71.513 148.323 71.6849 148.375 71.9141 148.375ZM78.1211 147.77C78.1211 148.191 77.9674 148.516 77.6602 148.742C77.3529 148.966 76.9128 149.078 76.3398 149.078C75.7643 149.078 75.3021 148.991 74.9531 148.816V148.023C75.4609 148.258 75.9336 148.375 76.3711 148.375C76.9362 148.375 77.2188 148.204 77.2188 147.863C77.2188 147.754 77.1875 147.663 77.125 147.59C77.0625 147.517 76.9596 147.441 76.8164 147.363C76.6732 147.285 76.474 147.197 76.2188 147.098C75.7214 146.905 75.3841 146.712 75.207 146.52C75.0326 146.327 74.9453 146.077 74.9453 145.77C74.9453 145.4 75.0938 145.113 75.3906 144.91C75.6901 144.704 76.0964 144.602 76.6094 144.602C77.1172 144.602 77.5977 144.704 78.0508 144.91L77.7539 145.602C77.2878 145.409 76.8958 145.312 76.5781 145.312C76.0938 145.312 75.8516 145.451 75.8516 145.727C75.8516 145.862 75.9141 145.977 76.0391 146.07C76.1667 146.164 76.4427 146.293 76.8672 146.457C77.224 146.595 77.4831 146.721 77.6445 146.836C77.806 146.951 77.9258 147.083 78.0039 147.234C78.082 147.383 78.1211 147.561 78.1211 147.77ZM80.0039 146.719L80.5234 146.07L81.8281 144.68H82.8867L81.1484 146.535L82.9961 149H81.918L80.5312 147.105L80.0273 147.52V149H79.1172V142.922H80.0273V145.887L79.9805 146.719H80.0039Z" fill="#8E8E8E"/>
<rect x="25.35" y="156.35" width="145.3" height="15.3" rx="1.65" fill="white" stroke="#E7E7EA" stroke-width="0.7"/>
<path d="M35.9844 167H32.7539V161.289H35.9844V162.078H33.6875V163.633H35.8398V164.414H33.6875V166.207H35.9844V167ZM38.6836 164.809C38.6836 165.493 38.582 166.132 38.3789 166.723C38.1784 167.314 37.888 167.828 37.5078 168.266H36.7148C37.0742 167.779 37.349 167.238 37.5391 166.645C37.7318 166.051 37.8281 165.436 37.8281 164.801C37.8281 164.163 37.7318 163.542 37.5391 162.938C37.3464 162.331 37.069 161.781 36.707 161.289H37.5078C37.8906 161.745 38.1823 162.275 38.3828 162.879C38.5833 163.48 38.6836 164.124 38.6836 164.809ZM43.8125 167H42.8789V162.09H41.1992V161.289H45.4922V162.09H43.8125V167ZM48.4648 162.602C48.6497 162.602 48.8021 162.615 48.9219 162.641L48.832 163.496C48.7018 163.465 48.5664 163.449 48.4258 163.449C48.0586 163.449 47.7604 163.569 47.5312 163.809C47.3047 164.048 47.1914 164.359 47.1914 164.742V167H46.2734V162.68H46.9922L47.1133 163.441H47.1602C47.3034 163.184 47.4896 162.979 47.7188 162.828C47.9505 162.677 48.1992 162.602 48.4648 162.602ZM52.7734 167L52.6445 166.434H52.5977C52.4701 166.634 52.2878 166.792 52.0508 166.906C51.8164 167.021 51.5482 167.078 51.2461 167.078C50.7227 167.078 50.332 166.948 50.0742 166.688C49.8164 166.427 49.6875 166.033 49.6875 165.504V162.68H50.6133V165.344C50.6133 165.674 50.681 165.923 50.8164 166.09C50.9518 166.254 51.1641 166.336 51.4531 166.336C51.8385 166.336 52.1211 166.221 52.3008 165.992C52.4831 165.76 52.5742 165.374 52.5742 164.832V162.68H53.4961V167H52.7734ZM57.707 165.77C57.707 166.191 57.5534 166.516 57.2461 166.742C56.9388 166.966 56.4987 167.078 55.9258 167.078C55.3503 167.078 54.888 166.991 54.5391 166.816V166.023C55.0469 166.258 55.5195 166.375 55.957 166.375C56.5221 166.375 56.8047 166.204 56.8047 165.863C56.8047 165.754 56.7734 165.663 56.7109 165.59C56.6484 165.517 56.5456 165.441 56.4023 165.363C56.2591 165.285 56.0599 165.197 55.8047 165.098C55.3073 164.905 54.9701 164.712 54.793 164.52C54.6185 164.327 54.5312 164.077 54.5312 163.77C54.5312 163.4 54.6797 163.113 54.9766 162.91C55.276 162.704 55.6823 162.602 56.1953 162.602C56.7031 162.602 57.1836 162.704 57.6367 162.91L57.3398 163.602C56.8737 163.409 56.4818 163.312 56.1641 163.312C55.6797 163.312 55.4375 163.451 55.4375 163.727C55.4375 163.862 55.5 163.977 55.625 164.07C55.7526 164.164 56.0286 164.293 56.4531 164.457C56.8099 164.595 57.069 164.721 57.2305 164.836C57.3919 164.951 57.5117 165.083 57.5898 165.234C57.668 165.383 57.707 165.561 57.707 165.77ZM60.3125 166.336C60.5365 166.336 60.7604 166.301 60.9844 166.23V166.922C60.8828 166.966 60.7513 167.003 60.5898 167.031C60.431 167.062 60.2656 167.078 60.0938 167.078C59.224 167.078 58.7891 166.62 58.7891 165.703V163.375H58.1992V162.969L58.832 162.633L59.1445 161.719H59.7109V162.68H60.9414V163.375H59.7109V165.688C59.7109 165.909 59.7656 166.073 59.875 166.18C59.987 166.284 60.1328 166.336 60.3125 166.336ZM67.4727 167L66.9141 164.984C66.8464 164.771 66.724 164.275 66.5469 163.496H66.5117C66.3607 164.199 66.2409 164.698 66.1523 164.992L65.5781 167H64.5625L63.3516 162.68H64.2891L64.8398 164.809C64.9648 165.335 65.0534 165.785 65.1055 166.16H65.1289C65.1549 165.97 65.194 165.753 65.2461 165.508C65.3008 165.26 65.3477 165.076 65.3867 164.953L66.043 162.68H67.0508L67.6875 164.953C67.7266 165.081 67.7747 165.276 67.832 165.539C67.8919 165.802 67.9271 166.007 67.9375 166.152H67.9688C68.0078 165.832 68.099 165.384 68.2422 164.809L68.8008 162.68H69.7227L68.5039 167H67.4727ZM73.1719 167L72.9883 166.398H72.957C72.7487 166.661 72.5391 166.841 72.3281 166.938C72.1172 167.031 71.8464 167.078 71.5156 167.078C71.0911 167.078 70.7591 166.964 70.5195 166.734C70.2826 166.505 70.1641 166.181 70.1641 165.762C70.1641 165.316 70.3294 164.98 70.6602 164.754C70.9909 164.527 71.4948 164.404 72.1719 164.383L72.918 164.359V164.129C72.918 163.853 72.8529 163.647 72.7227 163.512C72.5951 163.374 72.3958 163.305 72.125 163.305C71.9036 163.305 71.6914 163.337 71.4883 163.402C71.2852 163.467 71.0898 163.544 70.9023 163.633L70.6055 162.977C70.8398 162.854 71.0964 162.762 71.375 162.699C71.6536 162.634 71.9167 162.602 72.1641 162.602C72.7135 162.602 73.1276 162.721 73.4062 162.961C73.6875 163.201 73.8281 163.577 73.8281 164.09V167H73.1719ZM71.8047 166.375C72.138 166.375 72.4049 166.283 72.6055 166.098C72.8086 165.91 72.9102 165.648 72.9102 165.312V164.938L72.3555 164.961C71.9232 164.977 71.6081 165.049 71.4102 165.18C71.2148 165.307 71.1172 165.504 71.1172 165.77C71.1172 165.962 71.1745 166.112 71.2891 166.219C71.4036 166.323 71.5755 166.375 71.8047 166.375ZM76.0273 167H75.1094V160.922H76.0273V167ZM78.2617 167H77.3438V160.922H78.2617V167ZM81.4648 167.078C80.793 167.078 80.2669 166.883 79.8867 166.492C79.5091 166.099 79.3203 165.559 79.3203 164.871C79.3203 164.165 79.4961 163.611 79.8477 163.207C80.1992 162.803 80.6823 162.602 81.2969 162.602C81.8672 162.602 82.3177 162.775 82.6484 163.121C82.9792 163.467 83.1445 163.944 83.1445 164.551V165.047H80.2656C80.2786 165.466 80.3919 165.789 80.6055 166.016C80.819 166.24 81.1198 166.352 81.5078 166.352C81.763 166.352 82 166.328 82.2188 166.281C82.4401 166.232 82.6771 166.151 82.9297 166.039V166.785C82.7057 166.892 82.4792 166.967 82.25 167.012C82.0208 167.056 81.7591 167.078 81.4648 167.078ZM81.2969 163.297C81.0052 163.297 80.7708 163.389 80.5938 163.574C80.4193 163.759 80.3151 164.029 80.2812 164.383H82.2422C82.237 164.026 82.151 163.757 81.9844 163.574C81.8177 163.389 81.5885 163.297 81.2969 163.297ZM85.7969 166.336C86.0208 166.336 86.2448 166.301 86.4688 166.23V166.922C86.3672 166.966 86.2357 167.003 86.0742 167.031C85.9154 167.062 85.75 167.078 85.5781 167.078C84.7083 167.078 84.2734 166.62 84.2734 165.703V163.375H83.6836V162.969L84.3164 162.633L84.6289 161.719H85.1953V162.68H86.4258V163.375H85.1953V165.688C85.1953 165.909 85.25 166.073 85.3594 166.18C85.4714 166.284 85.6172 166.336 85.7969 166.336Z" fill="#8E8E8E"/>
<line x1="187.65" y1="82" x2="187.65" y2="172" stroke="#E7E7EA" stroke-width="1.3"/>
<line y1="-0.65" x2="26.0392" y2="-0.65" transform="matrix(-0.0035341 0.999994 -0.999994 -0.0035281 187.359 146.111)" stroke="#8E8E8E" stroke-width="1.3"/>
</g>
<defs>
<filter id="filter0_dd" x="0" y="0" width="208" height="208" filterUnits="userSpaceOnUse" color-interpolation-filters="sRGB">
<feFlood flood-opacity="0" result="BackgroundImageFix"/>
<feColorMatrix in="SourceAlpha" type="matrix" values="0 0 0 0 0 0 0 0 0 0 0 0 0 0 0 0 0 0 127 0"/>
<feOffset dy="4"/>
<feGaussianBlur stdDeviation="2"/>
<feColorMatrix type="matrix" values="0 0 0 0 0 0 0 0 0 0 0 0 0 0 0 0 0 0 0.25 0"/>
<feBlend mode="normal" in2="BackgroundImageFix" result="effect1_dropShadow"/>
<feColorMatrix in="SourceAlpha" type="matrix" values="0 0 0 0 0 0 0 0 0 0 0 0 0 0 0 0 0 0 127 0"/>
<feOffset dy="4"/>
<feGaussianBlur stdDeviation="2"/>
<feColorMatrix type="matrix" values="0 0 0 0 0 0 0 0 0 0 0 0 0 0 0 0 0 0 0.25 0"/>
<feBlend mode="normal" in2="effect1_dropShadow" result="effect2_dropShadow"/>
<feBlend mode="normal" in="SourceGraphic" in2="effect2_dropShadow" result="shape"/>
</filter>
</defs>
</svg>
