<svg width="203" height="189" viewBox="0 0 203 189" fill="none" xmlns="http://www.w3.org/2000/svg">
<rect width="203" height="189" fill="#E5E5E5"/>
<rect x="-131" y="-107" width="952" height="352" fill="white"/>
<g filter="url(#filter0_d)">
<path d="M4 10C4 4.47715 8.47715 0 14 0H189C194.523 0 199 4.47715 199 10V171C199 176.523 194.523 181 189 181H14C8.47715 181 4 176.523 4 171V10Z" fill="white"/>
</g>
<rect x="35.35" y="69.35" width="133.3" height="14.3" rx="1.65" fill="white" stroke="#E7E7EA" stroke-width="0.7"/>
<rect x="35.35" y="86.35" width="133.3" height="14.3" rx="1.65" fill="white" stroke="#00E15D" stroke-width="0.7"/>
<rect x="35.35" y="103.35" width="133.3" height="14.3" rx="1.65" fill="white" stroke="#E7E7EA" stroke-width="0.7"/>
<rect x="35.35" y="120.35" width="133.3" height="14.3" rx="1.65" fill="white" stroke="#E7E7EA" stroke-width="0.7"/>
<path d="M54.2988 28H52.2305L51.0703 23.5C51.0273 23.3398 50.9531 23.0098 50.8477 22.5098C50.7461 22.0059 50.6875 21.668 50.6719 21.4961C50.6484 21.707 50.5898 22.0469 50.4961 22.5156C50.4023 22.9805 50.3301 23.3125 50.2793 23.5117L49.125 28H47.0625L44.877 19.4336H46.6641L47.7598 24.1094C47.9512 24.9727 48.0898 25.7207 48.1758 26.3535C48.1992 26.1309 48.252 25.7871 48.334 25.3223C48.4199 24.8535 48.5 24.4902 48.5742 24.2324L49.8223 19.4336H51.5391L52.7871 24.2324C52.8418 24.4473 52.9102 24.7754 52.9922 25.2168C53.0742 25.6582 53.1367 26.0371 53.1797 26.3535C53.2188 26.0488 53.2812 25.6699 53.3672 25.2168C53.4531 24.7598 53.5312 24.3906 53.6016 24.1094L54.6914 19.4336H56.4785L54.2988 28ZM63.4629 28H61.6758V24.1738C61.6758 23.2285 61.3242 22.7559 60.6211 22.7559C60.1211 22.7559 59.7598 22.9258 59.5371 23.2656C59.3145 23.6055 59.2031 24.1562 59.2031 24.918V28H57.416V18.8828H59.2031V20.7402C59.2031 20.8848 59.1895 21.2246 59.1621 21.7598L59.1211 22.2871H59.2148C59.6133 21.6465 60.2461 21.3262 61.1133 21.3262C61.8828 21.3262 62.4668 21.5332 62.8652 21.9473C63.2637 22.3613 63.4629 22.9551 63.4629 23.7285V28ZM68.0156 22.5977C67.6367 22.5977 67.3398 22.7188 67.125 22.9609C66.9102 23.1992 66.7871 23.5391 66.7559 23.9805H69.2637C69.2559 23.5391 69.1406 23.1992 68.918 22.9609C68.6953 22.7188 68.3945 22.5977 68.0156 22.5977ZM68.2676 28.1172C67.2129 28.1172 66.3887 27.8262 65.7949 27.2441C65.2012 26.6621 64.9043 25.8379 64.9043 24.7715C64.9043 23.6738 65.1777 22.8262 65.7246 22.2285C66.2754 21.627 67.0352 21.3262 68.0039 21.3262C68.9297 21.3262 69.6504 21.5898 70.166 22.1172C70.6816 22.6445 70.9395 23.373 70.9395 24.3027V25.1699H66.7148C66.7344 25.6777 66.8848 26.0742 67.166 26.3594C67.4473 26.6445 67.8418 26.7871 68.3496 26.7871C68.7441 26.7871 69.1172 26.7461 69.4688 26.6641C69.8203 26.582 70.1875 26.4512 70.5703 26.2715V27.6543C70.2578 27.8105 69.9238 27.9258 69.5684 28C69.2129 28.0781 68.7793 28.1172 68.2676 28.1172ZM76.0488 21.3262C76.291 21.3262 76.4922 21.3438 76.6523 21.3789L76.5176 23.0547C76.373 23.0156 76.1973 22.9961 75.9902 22.9961C75.4199 22.9961 74.9746 23.1426 74.6543 23.4355C74.3379 23.7285 74.1797 24.1387 74.1797 24.666V28H72.3926V21.4492H73.7461L74.0098 22.5508H74.0977C74.3008 22.1836 74.5742 21.8887 74.918 21.666C75.2656 21.4395 75.6426 21.3262 76.0488 21.3262ZM80.5547 22.5977C80.1758 22.5977 79.8789 22.7188 79.6641 22.9609C79.4492 23.1992 79.3262 23.5391 79.2949 23.9805H81.8027C81.7949 23.5391 81.6797 23.1992 81.457 22.9609C81.2344 22.7188 80.9336 22.5977 80.5547 22.5977ZM80.8066 28.1172C79.752 28.1172 78.9277 27.8262 78.334 27.2441C77.7402 26.6621 77.4434 25.8379 77.4434 24.7715C77.4434 23.6738 77.7168 22.8262 78.2637 22.2285C78.8145 21.627 79.5742 21.3262 80.543 21.3262C81.4688 21.3262 82.1895 21.5898 82.7051 22.1172C83.2207 22.6445 83.4785 23.373 83.4785 24.3027V25.1699H79.2539C79.2734 25.6777 79.4238 26.0742 79.7051 26.3594C79.9863 26.6445 80.3809 26.7871 80.8887 26.7871C81.2832 26.7871 81.6562 26.7461 82.0078 26.6641C82.3594 26.582 82.7266 26.4512 83.1094 26.2715V27.6543C82.7969 27.8105 82.4629 27.9258 82.1074 28C81.752 28.0781 81.3184 28.1172 80.8066 28.1172ZM90.709 28.1172C88.6699 28.1172 87.6504 26.998 87.6504 24.7598C87.6504 23.6465 87.9277 22.7969 88.4824 22.2109C89.0371 21.6211 89.832 21.3262 90.8672 21.3262C91.625 21.3262 92.3047 21.4746 92.9062 21.7715L92.3789 23.1543C92.0977 23.041 91.8359 22.9492 91.5938 22.8789C91.3516 22.8047 91.1094 22.7676 90.8672 22.7676C89.9375 22.7676 89.4727 23.4277 89.4727 24.748C89.4727 26.0293 89.9375 26.6699 90.8672 26.6699C91.2109 26.6699 91.5293 26.625 91.8223 26.5352C92.1152 26.4414 92.4082 26.2969 92.7012 26.1016V27.6309C92.4121 27.8145 92.1191 27.9414 91.8223 28.0117C91.5293 28.082 91.1582 28.1172 90.709 28.1172ZM98.3848 28L98.0391 27.1094H97.9922C97.6914 27.4883 97.3809 27.752 97.0605 27.9004C96.7441 28.0449 96.3301 28.1172 95.8184 28.1172C95.1895 28.1172 94.6934 27.9375 94.3301 27.5781C93.9707 27.2188 93.791 26.707 93.791 26.043C93.791 25.3477 94.0332 24.8359 94.5176 24.5078C95.0059 24.1758 95.7402 23.9922 96.7207 23.957L97.8574 23.9219V23.6348C97.8574 22.9707 97.5176 22.6387 96.8379 22.6387C96.3145 22.6387 95.6992 22.7969 94.9922 23.1133L94.4004 21.9062C95.1543 21.5117 95.9902 21.3145 96.9082 21.3145C97.7871 21.3145 98.4609 21.5059 98.9297 21.8887C99.3984 22.2715 99.6328 22.8535 99.6328 23.6348V28H98.3848ZM97.8574 24.9648L97.166 24.9883C96.6465 25.0039 96.2598 25.0977 96.0059 25.2695C95.752 25.4414 95.625 25.7031 95.625 26.0547C95.625 26.5586 95.9141 26.8105 96.4922 26.8105C96.9062 26.8105 97.2363 26.6914 97.4824 26.4531C97.7324 26.2148 97.8574 25.8984 97.8574 25.5039V24.9648ZM107.525 28H105.738V24.1738C105.738 23.7012 105.654 23.3477 105.486 23.1133C105.318 22.875 105.051 22.7559 104.684 22.7559C104.184 22.7559 103.822 22.9238 103.6 23.2598C103.377 23.5918 103.266 24.1445 103.266 24.918V28H101.479V21.4492H102.844L103.084 22.2871H103.184C103.383 21.9707 103.656 21.7324 104.004 21.5723C104.355 21.4082 104.754 21.3262 105.199 21.3262C105.961 21.3262 106.539 21.5332 106.934 21.9473C107.328 22.3574 107.525 22.9512 107.525 23.7285V28ZM111.545 21.4492H113.502L114.738 25.1348C114.844 25.4551 114.916 25.834 114.955 26.2715H114.99C115.033 25.8691 115.117 25.4902 115.242 25.1348L116.455 21.4492H118.371L115.6 28.8379C115.346 29.5215 114.982 30.0332 114.51 30.373C114.041 30.7129 113.492 30.8828 112.863 30.8828C112.555 30.8828 112.252 30.8496 111.955 30.7832V29.3652C112.17 29.416 112.404 29.4414 112.658 29.4414C112.975 29.4414 113.25 29.3438 113.484 29.1484C113.723 28.957 113.908 28.666 114.041 28.2754L114.146 27.9531L111.545 21.4492ZM120.738 24.7129C120.738 25.3613 120.844 25.8516 121.055 26.1836C121.27 26.5156 121.617 26.6816 122.098 26.6816C122.574 26.6816 122.916 26.5176 123.123 26.1895C123.334 25.8574 123.439 25.3652 123.439 24.7129C123.439 24.0645 123.334 23.5781 123.123 23.2539C122.912 22.9297 122.566 22.7676 122.086 22.7676C121.609 22.7676 121.266 22.9297 121.055 23.2539C120.844 23.5742 120.738 24.0605 120.738 24.7129ZM125.268 24.7129C125.268 25.7793 124.986 26.6133 124.424 27.2148C123.861 27.8164 123.078 28.1172 122.074 28.1172C121.445 28.1172 120.891 27.9805 120.41 27.707C119.93 27.4297 119.561 27.0332 119.303 26.5176C119.045 26.002 118.916 25.4004 118.916 24.7129C118.916 23.6426 119.195 22.8105 119.754 22.2168C120.312 21.623 121.098 21.3262 122.109 21.3262C122.738 21.3262 123.293 21.4629 123.773 21.7363C124.254 22.0098 124.623 22.4023 124.881 22.9141C125.139 23.4258 125.268 24.0254 125.268 24.7129ZM131.385 28L131.145 27.1621H131.051C130.859 27.4668 130.588 27.7031 130.236 27.8711C129.885 28.0352 129.484 28.1172 129.035 28.1172C128.266 28.1172 127.686 27.9121 127.295 27.502C126.904 27.0879 126.709 26.4941 126.709 25.7207V21.4492H128.496V25.2754C128.496 25.748 128.58 26.1035 128.748 26.3418C128.916 26.5762 129.184 26.6934 129.551 26.6934C130.051 26.6934 130.412 26.5273 130.635 26.1953C130.857 25.8594 130.969 25.3047 130.969 24.5312V21.4492H132.756V28H131.385ZM141.393 21.3262C142.166 21.3262 142.771 21.6289 143.209 22.2344C143.646 22.8359 143.865 23.6621 143.865 24.7129C143.865 25.7949 143.639 26.6328 143.186 27.2266C142.736 27.8203 142.123 28.1172 141.346 28.1172C140.576 28.1172 139.973 27.8379 139.535 27.2793H139.412L139.113 28H137.748V18.8828H139.535V21.0039C139.535 21.2734 139.512 21.7051 139.465 22.2988H139.535C139.953 21.6504 140.572 21.3262 141.393 21.3262ZM140.818 22.7559C140.377 22.7559 140.055 22.8926 139.852 23.166C139.648 23.4355 139.543 23.8828 139.535 24.5078V24.7012C139.535 25.4043 139.639 25.9082 139.846 26.2129C140.057 26.5176 140.389 26.6699 140.842 26.6699C141.209 26.6699 141.5 26.502 141.715 26.166C141.934 25.8262 142.043 25.334 142.043 24.6895C142.043 24.0449 141.934 23.5625 141.715 23.2422C141.496 22.918 141.197 22.7559 140.818 22.7559ZM149.982 28L149.742 27.1621H149.648C149.457 27.4668 149.186 27.7031 148.834 27.8711C148.482 28.0352 148.082 28.1172 147.633 28.1172C146.863 28.1172 146.283 27.9121 145.893 27.502C145.502 27.0879 145.307 26.4941 145.307 25.7207V21.4492H147.094V25.2754C147.094 25.748 147.178 26.1035 147.346 26.3418C147.514 26.5762 147.781 26.6934 148.148 26.6934C148.648 26.6934 149.01 26.5273 149.232 26.1953C149.455 25.8594 149.566 25.3047 149.566 24.5312V21.4492H151.354V28H149.982ZM152.291 21.4492H154.248L155.484 25.1348C155.59 25.4551 155.662 25.834 155.701 26.2715H155.736C155.779 25.8691 155.863 25.4902 155.988 25.1348L157.201 21.4492H159.117L156.346 28.8379C156.092 29.5215 155.729 30.0332 155.256 30.373C154.787 30.7129 154.238 30.8828 153.609 30.8828C153.301 30.8828 152.998 30.8496 152.701 30.7832V29.3652C152.916 29.416 153.15 29.4414 153.404 29.4414C153.721 29.4414 153.996 29.3438 154.23 29.1484C154.469 28.957 154.654 28.666 154.787 28.2754L154.893 27.9531L152.291 21.4492ZM57.2051 39.1895H60.6035V43.6309C60.0527 43.8105 59.5332 43.9355 59.0449 44.0059C58.5605 44.0801 58.0645 44.1172 57.5566 44.1172C56.2637 44.1172 55.2754 43.7383 54.5918 42.9805C53.9121 42.2188 53.5723 41.127 53.5723 39.7051C53.5723 38.3223 53.9668 37.2441 54.7559 36.4707C55.5488 35.6973 56.6465 35.3105 58.0488 35.3105C58.9277 35.3105 59.7754 35.4863 60.5918 35.8379L59.9883 37.291C59.3633 36.9785 58.7129 36.8223 58.0371 36.8223C57.252 36.8223 56.623 37.0859 56.1504 37.6133C55.6777 38.1406 55.4414 38.8496 55.4414 39.7402C55.4414 40.6699 55.6309 41.3809 56.0098 41.873C56.3926 42.3613 56.9473 42.6055 57.6738 42.6055C58.0527 42.6055 58.4375 42.5664 58.8281 42.4883V40.7012H57.2051V39.1895ZM66.668 44L66.3223 43.1094H66.2754C65.9746 43.4883 65.6641 43.752 65.3438 43.9004C65.0273 44.0449 64.6133 44.1172 64.1016 44.1172C63.4727 44.1172 62.9766 43.9375 62.6133 43.5781C62.2539 43.2188 62.0742 42.707 62.0742 42.043C62.0742 41.3477 62.3164 40.8359 62.8008 40.5078C63.2891 40.1758 64.0234 39.9922 65.0039 39.957L66.1406 39.9219V39.6348C66.1406 38.9707 65.8008 38.6387 65.1211 38.6387C64.5977 38.6387 63.9824 38.7969 63.2754 39.1133L62.6836 37.9062C63.4375 37.5117 64.2734 37.3145 65.1914 37.3145C66.0703 37.3145 66.7441 37.5059 67.2129 37.8887C67.6816 38.2715 67.916 38.8535 67.916 39.6348V44H66.668ZM66.1406 40.9648L65.4492 40.9883C64.9297 41.0039 64.543 41.0977 64.2891 41.2695C64.0352 41.4414 63.9082 41.7031 63.9082 42.0547C63.9082 42.5586 64.1973 42.8105 64.7754 42.8105C65.1895 42.8105 65.5195 42.6914 65.7656 42.4531C66.0156 42.2148 66.1406 41.8984 66.1406 41.5039V40.9648ZM71.5488 44H69.7617V34.8828H71.5488V44ZM77.5898 44L77.2441 43.1094H77.1973C76.8965 43.4883 76.5859 43.752 76.2656 43.9004C75.9492 44.0449 75.5352 44.1172 75.0234 44.1172C74.3945 44.1172 73.8984 43.9375 73.5352 43.5781C73.1758 43.2188 72.9961 42.707 72.9961 42.043C72.9961 41.3477 73.2383 40.8359 73.7227 40.5078C74.2109 40.1758 74.9453 39.9922 75.9258 39.957L77.0625 39.9219V39.6348C77.0625 38.9707 76.7227 38.6387 76.043 38.6387C75.5195 38.6387 74.9043 38.7969 74.1973 39.1133L73.6055 37.9062C74.3594 37.5117 75.1953 37.3145 76.1133 37.3145C76.9922 37.3145 77.666 37.5059 78.1348 37.8887C78.6035 38.2715 78.8379 38.8535 78.8379 39.6348V44H77.5898ZM77.0625 40.9648L76.3711 40.9883C75.8516 41.0039 75.4648 41.0977 75.2109 41.2695C74.957 41.4414 74.8301 41.7031 74.8301 42.0547C74.8301 42.5586 75.1191 42.8105 75.6973 42.8105C76.1113 42.8105 76.4414 42.6914 76.6875 42.4531C76.9375 42.2148 77.0625 41.8984 77.0625 41.5039V40.9648ZM82.0254 40.6543L79.916 37.4492H81.9434L83.2148 39.5352L84.498 37.4492H86.5254L84.3926 40.6543L86.625 44H84.5918L83.2148 41.7559L81.832 44H79.8047L82.0254 40.6543ZM87.5449 35.7559C87.5449 35.1738 87.8691 34.8828 88.5176 34.8828C89.166 34.8828 89.4902 35.1738 89.4902 35.7559C89.4902 36.0332 89.4082 36.25 89.2441 36.4062C89.084 36.5586 88.8418 36.6348 88.5176 36.6348C87.8691 36.6348 87.5449 36.3418 87.5449 35.7559ZM89.4082 44H87.6211V37.4492H89.4082V44ZM95.4492 44L95.1035 43.1094H95.0566C94.7559 43.4883 94.4453 43.752 94.125 43.9004C93.8086 44.0449 93.3945 44.1172 92.8828 44.1172C92.2539 44.1172 91.7578 43.9375 91.3945 43.5781C91.0352 43.2188 90.8555 42.707 90.8555 42.043C90.8555 41.3477 91.0977 40.8359 91.582 40.5078C92.0703 40.1758 92.8047 39.9922 93.7852 39.957L94.9219 39.9219V39.6348C94.9219 38.9707 94.582 38.6387 93.9023 38.6387C93.3789 38.6387 92.7637 38.7969 92.0566 39.1133L91.4648 37.9062C92.2188 37.5117 93.0547 37.3145 93.9727 37.3145C94.8516 37.3145 95.5254 37.5059 95.9941 37.8887C96.4629 38.2715 96.6973 38.8535 96.6973 39.6348V44H95.4492ZM94.9219 40.9648L94.2305 40.9883C93.7109 41.0039 93.3242 41.0977 93.0703 41.2695C92.8164 41.4414 92.6895 41.7031 92.6895 42.0547C92.6895 42.5586 92.9785 42.8105 93.5566 42.8105C93.9707 42.8105 94.3008 42.6914 94.5469 42.4531C94.7969 42.2148 94.9219 41.8984 94.9219 41.5039V40.9648ZM105.258 44.1172C104.488 44.1172 103.885 43.8379 103.447 43.2793H103.354C103.416 43.8262 103.447 44.1426 103.447 44.2285V46.8828H101.66V37.4492H103.113L103.365 38.2988H103.447C103.865 37.6504 104.484 37.3262 105.305 37.3262C106.078 37.3262 106.684 37.625 107.121 38.2227C107.559 38.8203 107.777 39.6504 107.777 40.7129C107.777 41.4121 107.674 42.0195 107.467 42.5352C107.264 43.0508 106.973 43.4434 106.594 43.7129C106.215 43.9824 105.77 44.1172 105.258 44.1172ZM104.73 38.7559C104.289 38.7559 103.967 38.8926 103.764 39.166C103.561 39.4355 103.455 39.8828 103.447 40.5078V40.7012C103.447 41.4043 103.551 41.9082 103.758 42.2129C103.969 42.5176 104.301 42.6699 104.754 42.6699C105.555 42.6699 105.955 42.0098 105.955 40.6895C105.955 40.0449 105.855 39.5625 105.656 39.2422C105.461 38.918 105.152 38.7559 104.73 38.7559ZM111.041 44H109.254V34.8828H111.041V44ZM117.082 44L116.736 43.1094H116.689C116.389 43.4883 116.078 43.752 115.758 43.9004C115.441 44.0449 115.027 44.1172 114.516 44.1172C113.887 44.1172 113.391 43.9375 113.027 43.5781C112.668 43.2188 112.488 42.707 112.488 42.043C112.488 41.3477 112.73 40.8359 113.215 40.5078C113.703 40.1758 114.438 39.9922 115.418 39.957L116.555 39.9219V39.6348C116.555 38.9707 116.215 38.6387 115.535 38.6387C115.012 38.6387 114.396 38.7969 113.689 39.1133L113.098 37.9062C113.852 37.5117 114.688 37.3145 115.605 37.3145C116.484 37.3145 117.158 37.5059 117.627 37.8887C118.096 38.2715 118.33 38.8535 118.33 39.6348V44H117.082ZM116.555 40.9648L115.863 40.9883C115.344 41.0039 114.957 41.0977 114.703 41.2695C114.449 41.4414 114.322 41.7031 114.322 42.0547C114.322 42.5586 114.611 42.8105 115.189 42.8105C115.604 42.8105 115.934 42.6914 116.18 42.4531C116.43 42.2148 116.555 41.8984 116.555 41.5039V40.9648ZM126.223 44H124.436V40.1738C124.436 39.7012 124.352 39.3477 124.184 39.1133C124.016 38.875 123.748 38.7559 123.381 38.7559C122.881 38.7559 122.52 38.9238 122.297 39.2598C122.074 39.5918 121.963 40.1445 121.963 40.918V44H120.176V37.4492H121.541L121.781 38.2871H121.881C122.08 37.9707 122.354 37.7324 122.701 37.5723C123.053 37.4082 123.451 37.3262 123.896 37.3262C124.658 37.3262 125.236 37.5332 125.631 37.9473C126.025 38.3574 126.223 38.9512 126.223 39.7285V44ZM130.775 38.5977C130.396 38.5977 130.1 38.7188 129.885 38.9609C129.67 39.1992 129.547 39.5391 129.516 39.9805H132.023C132.016 39.5391 131.9 39.1992 131.678 38.9609C131.455 38.7188 131.154 38.5977 130.775 38.5977ZM131.027 44.1172C129.973 44.1172 129.148 43.8262 128.555 43.2441C127.961 42.6621 127.664 41.8379 127.664 40.7715C127.664 39.6738 127.938 38.8262 128.484 38.2285C129.035 37.627 129.795 37.3262 130.764 37.3262C131.689 37.3262 132.41 37.5898 132.926 38.1172C133.441 38.6445 133.699 39.373 133.699 40.3027V41.1699H129.475C129.494 41.6777 129.645 42.0742 129.926 42.3594C130.207 42.6445 130.602 42.7871 131.109 42.7871C131.504 42.7871 131.877 42.7461 132.229 42.6641C132.58 42.582 132.947 42.4512 133.33 42.2715V43.6543C133.018 43.8105 132.684 43.9258 132.328 44C131.973 44.0781 131.539 44.1172 131.027 44.1172ZM137.912 42.6934C138.225 42.6934 138.6 42.625 139.037 42.4883V43.8184C138.592 44.0176 138.045 44.1172 137.396 44.1172C136.682 44.1172 136.16 43.9375 135.832 43.5781C135.508 43.2148 135.346 42.6719 135.346 41.9492V38.791H134.49V38.0352L135.475 37.4375L135.99 36.0547H137.133V37.4492H138.967V38.791H137.133V41.9492C137.133 42.2031 137.203 42.3906 137.344 42.5117C137.488 42.6328 137.678 42.6934 137.912 42.6934ZM144.938 42.0547C144.938 42.7266 144.703 43.2383 144.234 43.5898C143.77 43.9414 143.072 44.1172 142.143 44.1172C141.666 44.1172 141.26 44.084 140.924 44.0176C140.588 43.9551 140.273 43.8613 139.98 43.7363V42.2598C140.312 42.416 140.686 42.5469 141.1 42.6523C141.518 42.7578 141.885 42.8105 142.201 42.8105C142.85 42.8105 143.174 42.623 143.174 42.248C143.174 42.1074 143.131 41.9941 143.045 41.9082C142.959 41.8184 142.811 41.7188 142.6 41.6094C142.389 41.4961 142.107 41.3652 141.756 41.2168C141.252 41.0059 140.881 40.8105 140.643 40.6309C140.408 40.4512 140.236 40.2461 140.127 40.0156C140.021 39.7812 139.969 39.4941 139.969 39.1543C139.969 38.5723 140.193 38.123 140.643 37.8066C141.096 37.4863 141.736 37.3262 142.564 37.3262C143.354 37.3262 144.121 37.498 144.867 37.8418L144.328 39.1309C144 38.9902 143.693 38.875 143.408 38.7852C143.123 38.6953 142.832 38.6504 142.535 38.6504C142.008 38.6504 141.744 38.793 141.744 39.0781C141.744 39.2383 141.828 39.377 141.996 39.4941C142.168 39.6113 142.541 39.7852 143.115 40.0156C143.627 40.2227 144.002 40.416 144.24 40.5957C144.479 40.7754 144.654 40.9824 144.768 41.2168C144.881 41.4512 144.938 41.7305 144.938 42.0547ZM147.012 41.1582V40.7246C147.012 40.3496 147.092 40.0234 147.252 39.7461C147.412 39.4688 147.705 39.1738 148.131 38.8613C148.541 38.5684 148.811 38.3301 148.939 38.1465C149.072 37.9629 149.139 37.7578 149.139 37.5312C149.139 37.2773 149.045 37.084 148.857 36.9512C148.67 36.8184 148.408 36.752 148.072 36.752C147.486 36.752 146.818 36.9434 146.068 37.3262L145.43 36.043C146.301 35.5547 147.225 35.3105 148.201 35.3105C149.006 35.3105 149.645 35.5039 150.117 35.8906C150.594 36.2773 150.832 36.793 150.832 37.4375C150.832 37.8672 150.734 38.2383 150.539 38.5508C150.344 38.8633 149.973 39.2148 149.426 39.6055C149.051 39.8828 148.812 40.0938 148.711 40.2383C148.613 40.3828 148.564 40.5723 148.564 40.8066V41.1582H147.012ZM146.824 43.1621C146.824 42.834 146.912 42.5859 147.088 42.418C147.264 42.25 147.52 42.166 147.855 42.166C148.18 42.166 148.43 42.252 148.605 42.4238C148.785 42.5957 148.875 42.8418 148.875 43.1621C148.875 43.4707 148.785 43.7148 148.605 43.8945C148.426 44.0703 148.176 44.1582 147.855 44.1582C147.527 44.1582 147.273 44.0723 147.094 43.9004C146.914 43.7246 146.824 43.4785 146.824 43.1621Z" fill="#333333"/>
<line x1="175" y1="8.5" x2="191" y2="8.5" stroke="#9A9A9A"/>
<path d="M45.2969 79L44.7266 77.4141H42.543L41.9844 79H41L43.1367 73.2656H44.1523L46.2891 79H45.2969ZM44.4805 76.6094L43.9453 75.0547C43.9062 74.9505 43.8516 74.7865 43.7812 74.5625C43.7135 74.3385 43.6667 74.1745 43.6406 74.0703C43.5703 74.3906 43.4674 74.7409 43.332 75.1211L42.8164 76.6094H44.4805ZM48.5039 76.8086C48.5039 77.4935 48.4023 78.1315 48.1992 78.7227C47.9987 79.3138 47.7083 79.8281 47.3281 80.2656H46.5352C46.8945 79.7786 47.1693 79.2383 47.3594 78.6445C47.5521 78.0508 47.6484 77.4362 47.6484 76.8008C47.6484 76.1628 47.5521 75.5417 47.3594 74.9375C47.1667 74.3307 46.8893 73.7812 46.5273 73.2891H47.3281C47.7109 73.7448 48.0026 74.2747 48.2031 74.8789C48.4036 75.4805 48.5039 76.1237 48.5039 76.8086ZM54.0898 74.0078C53.5534 74.0078 53.1315 74.1979 52.8242 74.5781C52.5169 74.9583 52.3633 75.4831 52.3633 76.1523C52.3633 76.8529 52.5104 77.3828 52.8047 77.7422C53.1016 78.1016 53.5299 78.2812 54.0898 78.2812C54.332 78.2812 54.5664 78.2578 54.793 78.2109C55.0195 78.1615 55.2552 78.099 55.5 78.0234V78.8242C55.0521 78.9935 54.5443 79.0781 53.9766 79.0781C53.1406 79.0781 52.4987 78.8255 52.0508 78.3203C51.6029 77.8125 51.3789 77.0872 51.3789 76.1445C51.3789 75.5508 51.487 75.0312 51.7031 74.5859C51.9219 74.1406 52.237 73.7995 52.6484 73.5625C53.0599 73.3255 53.543 73.207 54.0977 73.207C54.681 73.207 55.2201 73.3294 55.7148 73.5742L55.3789 74.3516C55.1862 74.2604 54.9818 74.181 54.7656 74.1133C54.5521 74.043 54.3268 74.0078 54.0898 74.0078ZM60.4648 76.832C60.4648 77.5378 60.2839 78.0885 59.9219 78.4844C59.5599 78.8802 59.056 79.0781 58.4102 79.0781C58.0065 79.0781 57.6497 78.987 57.3398 78.8047C57.0299 78.6224 56.7917 78.3607 56.625 78.0195C56.4583 77.6784 56.375 77.2826 56.375 76.832C56.375 76.1315 56.5547 75.5846 56.9141 75.1914C57.2734 74.7982 57.7799 74.6016 58.4336 74.6016C59.0586 74.6016 59.5534 74.8034 59.918 75.207C60.2826 75.6081 60.4648 76.1497 60.4648 76.832ZM57.3203 76.832C57.3203 77.8294 57.6888 78.3281 58.4258 78.3281C59.1549 78.3281 59.5195 77.8294 59.5195 76.832C59.5195 75.8451 59.1523 75.3516 58.418 75.3516C58.0326 75.3516 57.7526 75.4792 57.5781 75.7344C57.4062 75.9896 57.3203 76.3555 57.3203 76.832ZM62.4414 79H61.5234V74.6797H62.4414V79ZM61.4688 73.5352C61.4688 73.3711 61.513 73.2448 61.6016 73.1562C61.6927 73.0677 61.8216 73.0234 61.9883 73.0234C62.1497 73.0234 62.2747 73.0677 62.3633 73.1562C62.4544 73.2448 62.5 73.3711 62.5 73.5352C62.5 73.6914 62.4544 73.8151 62.3633 73.9062C62.2747 73.9948 62.1497 74.0391 61.9883 74.0391C61.8216 74.0391 61.6927 73.9948 61.6016 73.9062C61.513 73.8151 61.4688 73.6914 61.4688 73.5352ZM67.5586 79H66.6367V76.3438C66.6367 76.0104 66.569 75.7617 66.4336 75.5977C66.3008 75.4336 66.0885 75.3516 65.7969 75.3516C65.4089 75.3516 65.125 75.4661 64.9453 75.6953C64.7656 75.9245 64.6758 76.3086 64.6758 76.8477V79H63.7578V74.6797H64.4766L64.6055 75.2461H64.6523C64.7826 75.0404 64.9674 74.8815 65.207 74.7695C65.4466 74.6576 65.7122 74.6016 66.0039 74.6016C67.0404 74.6016 67.5586 75.1289 67.5586 76.1836V79ZM71.043 74.6016C71.582 74.6016 72.0013 74.7969 72.3008 75.1875C72.6029 75.5781 72.7539 76.1263 72.7539 76.832C72.7539 77.5404 72.6016 78.0924 72.2969 78.4883C71.9922 78.8815 71.569 79.0781 71.0273 79.0781C70.4805 79.0781 70.056 78.8815 69.7539 78.4883H69.6914L69.5234 79H68.8359V72.9219H69.7539V74.3672C69.7539 74.474 69.7487 74.6328 69.7383 74.8438C69.7279 75.0547 69.7201 75.1888 69.7148 75.2461H69.7539C70.0456 74.8164 70.4753 74.6016 71.043 74.6016ZM70.8047 75.3516C70.4349 75.3516 70.168 75.4609 70.0039 75.6797C69.8424 75.8958 69.7591 76.2591 69.7539 76.7695V76.832C69.7539 77.3581 69.8372 77.7396 70.0039 77.9766C70.1706 78.2109 70.4427 78.3281 70.8203 78.3281C71.1458 78.3281 71.3919 78.1992 71.5586 77.9414C71.7279 77.6836 71.8125 77.3112 71.8125 76.8242C71.8125 75.8424 71.4766 75.3516 70.8047 75.3516ZM76.5234 79L76.3398 78.3984H76.3086C76.1003 78.6615 75.8906 78.8411 75.6797 78.9375C75.4688 79.0312 75.1979 79.0781 74.8672 79.0781C74.4427 79.0781 74.1107 78.9635 73.8711 78.7344C73.6341 78.5052 73.5156 78.181 73.5156 77.7617C73.5156 77.3164 73.681 76.9805 74.0117 76.7539C74.3424 76.5273 74.8464 76.4036 75.5234 76.3828L76.2695 76.3594V76.1289C76.2695 75.8529 76.2044 75.6471 76.0742 75.5117C75.9466 75.3737 75.7474 75.3047 75.4766 75.3047C75.2552 75.3047 75.043 75.3372 74.8398 75.4023C74.6367 75.4674 74.4414 75.5443 74.2539 75.6328L73.957 74.9766C74.1914 74.8542 74.4479 74.7617 74.7266 74.6992C75.0052 74.6341 75.2682 74.6016 75.5156 74.6016C76.0651 74.6016 76.4792 74.7214 76.7578 74.9609C77.0391 75.2005 77.1797 75.5768 77.1797 76.0898V79H76.5234ZM75.1562 78.375C75.4896 78.375 75.7565 78.2826 75.957 78.0977C76.1602 77.9102 76.2617 77.6484 76.2617 77.3125V76.9375L75.707 76.9609C75.2747 76.9766 74.9596 77.0495 74.7617 77.1797C74.5664 77.3073 74.4688 77.5039 74.4688 77.7695C74.4688 77.9622 74.526 78.112 74.6406 78.2188C74.7552 78.3229 74.9271 78.375 75.1562 78.375ZM81.3633 77.7695C81.3633 78.1914 81.2096 78.5156 80.9023 78.7422C80.5951 78.9661 80.1549 79.0781 79.582 79.0781C79.0065 79.0781 78.5443 78.9909 78.1953 78.8164V78.0234C78.7031 78.2578 79.1758 78.375 79.6133 78.375C80.1784 78.375 80.4609 78.2044 80.4609 77.8633C80.4609 77.7539 80.4297 77.6628 80.3672 77.5898C80.3047 77.5169 80.2018 77.4414 80.0586 77.3633C79.9154 77.2852 79.7161 77.1966 79.4609 77.0977C78.9635 76.9049 78.6263 76.7122 78.4492 76.5195C78.2747 76.3268 78.1875 76.0768 78.1875 75.7695C78.1875 75.3997 78.3359 75.1133 78.6328 74.9102C78.9323 74.7044 79.3385 74.6016 79.8516 74.6016C80.3594 74.6016 80.8398 74.7044 81.293 74.9102L80.9961 75.6016C80.5299 75.4089 80.138 75.3125 79.8203 75.3125C79.3359 75.3125 79.0938 75.4505 79.0938 75.7266C79.0938 75.862 79.1562 75.9766 79.2812 76.0703C79.4089 76.1641 79.6849 76.293 80.1094 76.457C80.4661 76.5951 80.7253 76.7214 80.8867 76.8359C81.0482 76.9505 81.168 77.0833 81.2461 77.2344C81.3242 77.3828 81.3633 77.5612 81.3633 77.7695ZM84.2461 79.0781C83.5742 79.0781 83.0482 78.8828 82.668 78.4922C82.2904 78.099 82.1016 77.5586 82.1016 76.8711C82.1016 76.1654 82.2773 75.6107 82.6289 75.207C82.9805 74.8034 83.4635 74.6016 84.0781 74.6016C84.6484 74.6016 85.099 74.7747 85.4297 75.1211C85.7604 75.4674 85.9258 75.944 85.9258 76.5508V77.0469H83.0469C83.0599 77.4661 83.1732 77.7891 83.3867 78.0156C83.6003 78.2396 83.901 78.3516 84.2891 78.3516C84.5443 78.3516 84.7812 78.3281 85 78.2812C85.2214 78.2318 85.4583 78.151 85.7109 78.0391V78.7852C85.487 78.8919 85.2604 78.9674 85.0312 79.0117C84.8021 79.056 84.5404 79.0781 84.2461 79.0781ZM84.0781 75.2969C83.7865 75.2969 83.5521 75.3893 83.375 75.5742C83.2005 75.7591 83.0964 76.0286 83.0625 76.3828H85.0234C85.0182 76.026 84.9323 75.7565 84.7656 75.5742C84.599 75.3893 84.3698 75.2969 84.0781 75.2969Z" fill="#8E8E8E"/>
<path d="M41.7539 91.2891H43.4492C44.2357 91.2891 44.8034 91.4036 45.1523 91.6328C45.5039 91.862 45.6797 92.224 45.6797 92.7188C45.6797 93.0521 45.5938 93.3294 45.4219 93.5508C45.25 93.7721 45.0026 93.9115 44.6797 93.9688V94.0078C45.0807 94.0833 45.375 94.2331 45.5625 94.457C45.7526 94.6784 45.8477 94.9792 45.8477 95.3594C45.8477 95.8724 45.668 96.2747 45.3086 96.5664C44.9518 96.8555 44.4544 97 43.8164 97H41.7539V91.2891ZM42.6875 93.6484H43.5859C43.9766 93.6484 44.2617 93.5872 44.4414 93.4648C44.6211 93.3398 44.7109 93.1289 44.7109 92.832C44.7109 92.5638 44.6133 92.3698 44.418 92.25C44.2253 92.1302 43.918 92.0703 43.4961 92.0703H42.6875V93.6484ZM42.6875 94.4062V96.2148H43.6797C44.0703 96.2148 44.3646 96.1406 44.5625 95.9922C44.763 95.8411 44.8633 95.6042 44.8633 95.2812C44.8633 94.9844 44.7617 94.7643 44.5586 94.6211C44.3555 94.4779 44.0469 94.4062 43.6328 94.4062H42.6875ZM48.4961 94.8086C48.4961 95.4935 48.3945 96.1315 48.1914 96.7227C47.9909 97.3138 47.7005 97.8281 47.3203 98.2656H46.5273C46.8867 97.7786 47.1615 97.2383 47.3516 96.6445C47.5443 96.0508 47.6406 95.4362 47.6406 94.8008C47.6406 94.1628 47.5443 93.5417 47.3516 92.9375C47.1589 92.3307 46.8815 91.7812 46.5195 91.2891H47.3203C47.7031 91.7448 47.9948 92.2747 48.1953 92.8789C48.3958 93.4805 48.4961 94.1237 48.4961 94.8086ZM56.7227 94.1367C56.7227 95.0664 56.4896 95.7891 56.0234 96.3047C55.5599 96.8203 54.9023 97.0781 54.0508 97.0781C53.1888 97.0781 52.526 96.8229 52.0625 96.3125C51.6016 95.7995 51.3711 95.0716 51.3711 94.1289C51.3711 93.1862 51.6029 92.4622 52.0664 91.957C52.5326 91.4518 53.1966 91.1992 54.0586 91.1992C54.9076 91.1992 55.5638 91.4557 56.0273 91.9688C56.4909 92.4818 56.7227 93.2044 56.7227 94.1367ZM52.3633 94.1367C52.3633 94.8398 52.5052 95.3737 52.7891 95.7383C53.0729 96.1003 53.4935 96.2812 54.0508 96.2812C54.6055 96.2812 55.0234 96.1016 55.3047 95.7422C55.5885 95.3828 55.7305 94.8477 55.7305 94.1367C55.7305 93.4362 55.5898 92.9049 55.3086 92.543C55.0299 92.181 54.6133 92 54.0586 92C53.4987 92 53.0755 92.181 52.7891 92.543C52.5052 92.9049 52.3633 93.4362 52.3633 94.1367ZM60.043 97.0781C59.4961 97.0781 59.0716 96.8815 58.7695 96.4883H58.7148C58.7513 96.8529 58.7695 97.0742 58.7695 97.1523V98.9219H57.8516V92.6797H58.5938C58.6146 92.7604 58.6576 92.9531 58.7227 93.2578H58.7695C59.056 92.8203 59.4857 92.6016 60.0586 92.6016C60.5977 92.6016 61.0169 92.7969 61.3164 93.1875C61.6185 93.5781 61.7695 94.1263 61.7695 94.832C61.7695 95.5378 61.6159 96.0885 61.3086 96.4844C61.0039 96.8802 60.582 97.0781 60.043 97.0781ZM59.8203 93.3516C59.4557 93.3516 59.1888 93.4583 59.0195 93.6719C58.8529 93.8854 58.7695 94.2266 58.7695 94.6953V94.832C58.7695 95.3581 58.8529 95.7396 59.0195 95.9766C59.1862 96.2109 59.4583 96.3281 59.8359 96.3281C60.1536 96.3281 60.3984 96.1979 60.5703 95.9375C60.7422 95.6771 60.8281 95.306 60.8281 94.8242C60.8281 94.3398 60.7422 93.974 60.5703 93.7266C60.401 93.4766 60.151 93.3516 59.8203 93.3516ZM64.7227 97.0781C64.0508 97.0781 63.5247 96.8828 63.1445 96.4922C62.7669 96.099 62.5781 95.5586 62.5781 94.8711C62.5781 94.1654 62.7539 93.6107 63.1055 93.207C63.457 92.8034 63.9401 92.6016 64.5547 92.6016C65.125 92.6016 65.5755 92.7747 65.9062 93.1211C66.237 93.4674 66.4023 93.944 66.4023 94.5508V95.0469H63.5234C63.5365 95.4661 63.6497 95.7891 63.8633 96.0156C64.0768 96.2396 64.3776 96.3516 64.7656 96.3516C65.0208 96.3516 65.2578 96.3281 65.4766 96.2812C65.6979 96.2318 65.9349 96.151 66.1875 96.0391V96.7852C65.9635 96.8919 65.737 96.9674 65.5078 97.0117C65.2786 97.056 65.0169 97.0781 64.7227 97.0781ZM64.5547 93.2969C64.263 93.2969 64.0286 93.3893 63.8516 93.5742C63.6771 93.7591 63.5729 94.0286 63.5391 94.3828H65.5C65.4948 94.026 65.4089 93.7565 65.2422 93.5742C65.0755 93.3893 64.8464 93.2969 64.5547 93.2969ZM71.2461 97H70.3242V94.3438C70.3242 94.0104 70.2565 93.7617 70.1211 93.5977C69.9883 93.4336 69.776 93.3516 69.4844 93.3516C69.0964 93.3516 68.8125 93.4661 68.6328 93.6953C68.4531 93.9245 68.3633 94.3086 68.3633 94.8477V97H67.4453V92.6797H68.1641L68.293 93.2461H68.3398C68.4701 93.0404 68.6549 92.8815 68.8945 92.7695C69.1341 92.6576 69.3997 92.6016 69.6914 92.6016C70.7279 92.6016 71.2461 93.1289 71.2461 94.1836V97ZM75.4258 95.7695C75.4258 96.1914 75.2721 96.5156 74.9648 96.7422C74.6576 96.9661 74.2174 97.0781 73.6445 97.0781C73.069 97.0781 72.6068 96.9909 72.2578 96.8164V96.0234C72.7656 96.2578 73.2383 96.375 73.6758 96.375C74.2409 96.375 74.5234 96.2044 74.5234 95.8633C74.5234 95.7539 74.4922 95.6628 74.4297 95.5898C74.3672 95.5169 74.2643 95.4414 74.1211 95.3633C73.9779 95.2852 73.7786 95.1966 73.5234 95.0977C73.026 94.9049 72.6888 94.7122 72.5117 94.5195C72.3372 94.3268 72.25 94.0768 72.25 93.7695C72.25 93.3997 72.3984 93.1133 72.6953 92.9102C72.9948 92.7044 73.401 92.6016 73.9141 92.6016C74.4219 92.6016 74.9023 92.7044 75.3555 92.9102L75.0586 93.6016C74.5924 93.4089 74.2005 93.3125 73.8828 93.3125C73.3984 93.3125 73.1562 93.4505 73.1562 93.7266C73.1562 93.862 73.2188 93.9766 73.3438 94.0703C73.4714 94.1641 73.7474 94.293 74.1719 94.457C74.5286 94.5951 74.7878 94.7214 74.9492 94.8359C75.1107 94.9505 75.2305 95.0833 75.3086 95.2344C75.3867 95.3828 75.4258 95.5612 75.4258 95.7695ZM78.3086 97.0781C77.6367 97.0781 77.1107 96.8828 76.7305 96.4922C76.3529 96.099 76.1641 95.5586 76.1641 94.8711C76.1641 94.1654 76.3398 93.6107 76.6914 93.207C77.043 92.8034 77.526 92.6016 78.1406 92.6016C78.7109 92.6016 79.1615 92.7747 79.4922 93.1211C79.8229 93.4674 79.9883 93.944 79.9883 94.5508V95.0469H77.1094C77.1224 95.4661 77.2357 95.7891 77.4492 96.0156C77.6628 96.2396 77.9635 96.3516 78.3516 96.3516C78.6068 96.3516 78.8438 96.3281 79.0625 96.2812C79.2839 96.2318 79.5208 96.151 79.7734 96.0391V96.7852C79.5495 96.8919 79.3229 96.9674 79.0938 97.0117C78.8646 97.056 78.6029 97.0781 78.3086 97.0781ZM78.1406 93.2969C77.849 93.2969 77.6146 93.3893 77.4375 93.5742C77.263 93.7591 77.1589 94.0286 77.125 94.3828H79.0859C79.0807 94.026 78.9948 93.7565 78.8281 93.5742C78.6615 93.3893 78.4323 93.2969 78.1406 93.2969ZM83.7344 97L83.5508 96.3984H83.5195C83.3112 96.6615 83.1016 96.8411 82.8906 96.9375C82.6797 97.0312 82.4089 97.0781 82.0781 97.0781C81.6536 97.0781 81.3216 96.9635 81.082 96.7344C80.8451 96.5052 80.7266 96.181 80.7266 95.7617C80.7266 95.3164 80.8919 94.9805 81.2227 94.7539C81.5534 94.5273 82.0573 94.4036 82.7344 94.3828L83.4805 94.3594V94.1289C83.4805 93.8529 83.4154 93.6471 83.2852 93.5117C83.1576 93.3737 82.9583 93.3047 82.6875 93.3047C82.4661 93.3047 82.2539 93.3372 82.0508 93.4023C81.8477 93.4674 81.6523 93.5443 81.4648 93.6328L81.168 92.9766C81.4023 92.8542 81.6589 92.7617 81.9375 92.6992C82.2161 92.6341 82.4792 92.6016 82.7266 92.6016C83.276 92.6016 83.6901 92.7214 83.9688 92.9609C84.25 93.2005 84.3906 93.5768 84.3906 94.0898V97H83.7344ZM82.3672 96.375C82.7005 96.375 82.9674 96.2826 83.168 96.0977C83.3711 95.9102 83.4727 95.6484 83.4727 95.3125V94.9375L82.918 94.9609C82.4857 94.9766 82.1706 95.0495 81.9727 95.1797C81.7773 95.3073 81.6797 95.5039 81.6797 95.7695C81.6797 95.9622 81.737 96.112 81.8516 96.2188C81.9661 96.3229 82.138 96.375 82.3672 96.375Z" fill="#8E8E8E"/>
<path d="M44.1836 109.008C43.6471 109.008 43.2253 109.198 42.918 109.578C42.6107 109.958 42.457 110.483 42.457 111.152C42.457 111.853 42.6042 112.383 42.8984 112.742C43.1953 113.102 43.6237 113.281 44.1836 113.281C44.4258 113.281 44.6602 113.258 44.8867 113.211C45.1133 113.161 45.349 113.099 45.5938 113.023V113.824C45.1458 113.993 44.638 114.078 44.0703 114.078C43.2344 114.078 42.5924 113.826 42.1445 113.32C41.6966 112.812 41.4727 112.087 41.4727 111.145C41.4727 110.551 41.5807 110.031 41.7969 109.586C42.0156 109.141 42.3307 108.799 42.7422 108.562C43.1536 108.326 43.6367 108.207 44.1914 108.207C44.7747 108.207 45.3138 108.329 45.8086 108.574L45.4727 109.352C45.2799 109.26 45.0755 109.181 44.8594 109.113C44.6458 109.043 44.4206 109.008 44.1836 109.008ZM48.2852 111.809C48.2852 112.493 48.1836 113.132 47.9805 113.723C47.7799 114.314 47.4896 114.828 47.1094 115.266H46.3164C46.6758 114.779 46.9505 114.238 47.1406 113.645C47.3333 113.051 47.4297 112.436 47.4297 111.801C47.4297 111.163 47.3333 110.542 47.1406 109.938C46.9479 109.331 46.6706 108.781 46.3086 108.289H47.1094C47.4922 108.745 47.7839 109.275 47.9844 109.879C48.1849 110.48 48.2852 111.124 48.2852 111.809ZM51.4414 108.289H53.1367C53.9232 108.289 54.4909 108.404 54.8398 108.633C55.1914 108.862 55.3672 109.224 55.3672 109.719C55.3672 110.052 55.2812 110.329 55.1094 110.551C54.9375 110.772 54.6901 110.911 54.3672 110.969V111.008C54.7682 111.083 55.0625 111.233 55.25 111.457C55.4401 111.678 55.5352 111.979 55.5352 112.359C55.5352 112.872 55.3555 113.275 54.9961 113.566C54.6393 113.855 54.1419 114 53.5039 114H51.4414V108.289ZM52.375 110.648H53.2734C53.6641 110.648 53.9492 110.587 54.1289 110.465C54.3086 110.34 54.3984 110.129 54.3984 109.832C54.3984 109.564 54.3008 109.37 54.1055 109.25C53.9128 109.13 53.6055 109.07 53.1836 109.07H52.375V110.648ZM52.375 111.406V113.215H53.3672C53.7578 113.215 54.0521 113.141 54.25 112.992C54.4505 112.841 54.5508 112.604 54.5508 112.281C54.5508 111.984 54.4492 111.764 54.2461 111.621C54.043 111.478 53.7344 111.406 53.3203 111.406H52.375ZM57.543 114H56.625V109.68H57.543V114ZM56.5703 108.535C56.5703 108.371 56.6146 108.245 56.7031 108.156C56.7943 108.068 56.9232 108.023 57.0898 108.023C57.2513 108.023 57.3763 108.068 57.4648 108.156C57.556 108.245 57.6016 108.371 57.6016 108.535C57.6016 108.691 57.556 108.815 57.4648 108.906C57.3763 108.995 57.2513 109.039 57.0898 109.039C56.9232 109.039 56.7943 108.995 56.7031 108.906C56.6146 108.815 56.5703 108.691 56.5703 108.535ZM62.6602 114H61.7383V111.344C61.7383 111.01 61.6706 110.762 61.5352 110.598C61.4023 110.434 61.1901 110.352 60.8984 110.352C60.5104 110.352 60.2266 110.466 60.0469 110.695C59.8672 110.924 59.7773 111.309 59.7773 111.848V114H58.8594V109.68H59.5781L59.707 110.246H59.7539C59.8841 110.04 60.069 109.882 60.3086 109.77C60.5482 109.658 60.8138 109.602 61.1055 109.602C62.1419 109.602 62.6602 110.129 62.6602 111.184V114ZM66.6406 114L66.457 113.398H66.4258C66.2174 113.661 66.0078 113.841 65.7969 113.938C65.5859 114.031 65.3151 114.078 64.9844 114.078C64.5599 114.078 64.2279 113.964 63.9883 113.734C63.7513 113.505 63.6328 113.181 63.6328 112.762C63.6328 112.316 63.7982 111.98 64.1289 111.754C64.4596 111.527 64.9635 111.404 65.6406 111.383L66.3867 111.359V111.129C66.3867 110.853 66.3216 110.647 66.1914 110.512C66.0638 110.374 65.8646 110.305 65.5938 110.305C65.3724 110.305 65.1602 110.337 64.957 110.402C64.7539 110.467 64.5586 110.544 64.3711 110.633L64.0742 109.977C64.3086 109.854 64.5651 109.762 64.8438 109.699C65.1224 109.634 65.3854 109.602 65.6328 109.602C66.1823 109.602 66.5964 109.721 66.875 109.961C67.1562 110.201 67.2969 110.577 67.2969 111.09V114H66.6406ZM65.2734 113.375C65.6068 113.375 65.8737 113.283 66.0742 113.098C66.2773 112.91 66.3789 112.648 66.3789 112.312V111.938L65.8242 111.961C65.3919 111.977 65.0768 112.049 64.8789 112.18C64.6836 112.307 64.5859 112.504 64.5859 112.77C64.5859 112.962 64.6432 113.112 64.7578 113.219C64.8724 113.323 65.0443 113.375 65.2734 113.375ZM72.3789 114H71.457V111.344C71.457 111.01 71.3893 110.762 71.2539 110.598C71.1211 110.434 70.9089 110.352 70.6172 110.352C70.2292 110.352 69.9453 110.466 69.7656 110.695C69.5859 110.924 69.4961 111.309 69.4961 111.848V114H68.5781V109.68H69.2969L69.4258 110.246H69.4727C69.6029 110.04 69.7878 109.882 70.0273 109.77C70.2669 109.658 70.5326 109.602 70.8242 109.602C71.8607 109.602 72.3789 110.129 72.3789 111.184V114ZM75.3984 114.078C74.7448 114.078 74.2474 113.888 73.9062 113.508C73.5677 113.125 73.3984 112.577 73.3984 111.863C73.3984 111.137 73.5755 110.578 73.9297 110.188C74.2865 109.797 74.8008 109.602 75.4727 109.602C75.9284 109.602 76.3385 109.686 76.7031 109.855L76.4258 110.594C76.0378 110.443 75.7174 110.367 75.4648 110.367C74.7174 110.367 74.3438 110.863 74.3438 111.855C74.3438 112.34 74.4362 112.704 74.6211 112.949C74.8086 113.191 75.082 113.312 75.4414 113.312C75.8503 113.312 76.237 113.211 76.6016 113.008V113.809C76.4375 113.905 76.2617 113.974 76.0742 114.016C75.8893 114.057 75.6641 114.078 75.3984 114.078ZM79.5039 114.078C78.832 114.078 78.306 113.883 77.9258 113.492C77.5482 113.099 77.3594 112.559 77.3594 111.871C77.3594 111.165 77.5352 110.611 77.8867 110.207C78.2383 109.803 78.7214 109.602 79.3359 109.602C79.9062 109.602 80.3568 109.775 80.6875 110.121C81.0182 110.467 81.1836 110.944 81.1836 111.551V112.047H78.3047C78.3177 112.466 78.431 112.789 78.6445 113.016C78.8581 113.24 79.1589 113.352 79.5469 113.352C79.8021 113.352 80.0391 113.328 80.2578 113.281C80.4792 113.232 80.7161 113.151 80.9688 113.039V113.785C80.7448 113.892 80.5182 113.967 80.2891 114.012C80.0599 114.056 79.7982 114.078 79.5039 114.078ZM79.3359 110.297C79.0443 110.297 78.8099 110.389 78.6328 110.574C78.4583 110.759 78.3542 111.029 78.3203 111.383H80.2812C80.276 111.026 80.1901 110.757 80.0234 110.574C79.8568 110.389 79.6276 110.297 79.3359 110.297Z" fill="#8E8E8E"/>
<path d="M46.3984 128.09C46.3984 129.033 46.1367 129.754 45.6133 130.254C45.0898 130.751 44.3359 131 43.3516 131H41.7539V125.289H43.5195C44.4284 125.289 45.1354 125.534 45.6406 126.023C46.1458 126.513 46.3984 127.202 46.3984 128.09ZM45.4141 128.121C45.4141 126.754 44.7747 126.07 43.4961 126.07H42.6875V130.215H43.3516C44.7266 130.215 45.4141 129.517 45.4141 128.121ZM49.0898 128.809C49.0898 129.493 48.9883 130.132 48.7852 130.723C48.5846 131.314 48.2943 131.828 47.9141 132.266H47.1211C47.4805 131.779 47.7552 131.238 47.9453 130.645C48.138 130.051 48.2344 129.436 48.2344 128.801C48.2344 128.163 48.138 127.542 47.9453 126.938C47.7526 126.331 47.4753 125.781 47.1133 125.289H47.9141C48.2969 125.745 48.5885 126.275 48.7891 126.879C48.9896 127.48 49.0898 128.124 49.0898 128.809ZM54.7148 131L53.0586 126.23H53.0273C53.0716 126.939 53.0938 127.603 53.0938 128.223V131H52.2461V125.289H53.5625L55.1484 129.832H55.1719L56.8047 125.289H58.125V131H57.2266V128.176C57.2266 127.892 57.2331 127.522 57.2461 127.066C57.2617 126.611 57.2747 126.335 57.2852 126.238H57.2539L55.5391 131H54.7148ZM61.418 131.078C60.7461 131.078 60.2201 130.883 59.8398 130.492C59.4622 130.099 59.2734 129.559 59.2734 128.871C59.2734 128.165 59.4492 127.611 59.8008 127.207C60.1523 126.803 60.6354 126.602 61.25 126.602C61.8203 126.602 62.2708 126.775 62.6016 127.121C62.9323 127.467 63.0977 127.944 63.0977 128.551V129.047H60.2188C60.2318 129.466 60.3451 129.789 60.5586 130.016C60.7721 130.24 61.0729 130.352 61.4609 130.352C61.7161 130.352 61.9531 130.328 62.1719 130.281C62.3932 130.232 62.6302 130.151 62.8828 130.039V130.785C62.6589 130.892 62.4323 130.967 62.2031 131.012C61.974 131.056 61.7122 131.078 61.418 131.078ZM61.25 127.297C60.9583 127.297 60.724 127.389 60.5469 127.574C60.3724 127.759 60.2682 128.029 60.2344 128.383H62.1953C62.1901 128.026 62.1042 127.757 61.9375 127.574C61.7708 127.389 61.5417 127.297 61.25 127.297ZM65.75 130.336C65.974 130.336 66.1979 130.301 66.4219 130.23V130.922C66.3203 130.966 66.1888 131.003 66.0273 131.031C65.8685 131.062 65.7031 131.078 65.5312 131.078C64.6615 131.078 64.2266 130.62 64.2266 129.703V127.375H63.6367V126.969L64.2695 126.633L64.582 125.719H65.1484V126.68H66.3789V127.375H65.1484V129.688C65.1484 129.909 65.2031 130.073 65.3125 130.18C65.4245 130.284 65.5703 130.336 65.75 130.336ZM69.9922 131L69.8086 130.398H69.7773C69.569 130.661 69.3594 130.841 69.1484 130.938C68.9375 131.031 68.6667 131.078 68.3359 131.078C67.9115 131.078 67.5794 130.964 67.3398 130.734C67.1029 130.505 66.9844 130.181 66.9844 129.762C66.9844 129.316 67.1497 128.98 67.4805 128.754C67.8112 128.527 68.3151 128.404 68.9922 128.383L69.7383 128.359V128.129C69.7383 127.853 69.6732 127.647 69.543 127.512C69.4154 127.374 69.2161 127.305 68.9453 127.305C68.724 127.305 68.5117 127.337 68.3086 127.402C68.1055 127.467 67.9102 127.544 67.7227 127.633L67.4258 126.977C67.6602 126.854 67.9167 126.762 68.1953 126.699C68.474 126.634 68.737 126.602 68.9844 126.602C69.5339 126.602 69.9479 126.721 70.2266 126.961C70.5078 127.201 70.6484 127.577 70.6484 128.09V131H69.9922ZM68.625 130.375C68.9583 130.375 69.2253 130.283 69.4258 130.098C69.6289 129.91 69.7305 129.648 69.7305 129.312V128.938L69.1758 128.961C68.7435 128.977 68.4284 129.049 68.2305 129.18C68.0352 129.307 67.9375 129.504 67.9375 129.77C67.9375 129.962 67.9948 130.112 68.1094 130.219C68.224 130.323 68.3958 130.375 68.625 130.375ZM75.5703 131H74.6484V128.336C74.6484 128.005 74.5859 127.759 74.4609 127.598C74.3359 127.434 74.1406 127.352 73.875 127.352C73.5208 127.352 73.2604 127.467 73.0938 127.699C72.9297 127.928 72.8477 128.311 72.8477 128.848V131H71.9297V126.68H72.6484L72.7773 127.246H72.8242C72.944 127.04 73.1172 126.882 73.3438 126.77C73.5729 126.658 73.8242 126.602 74.0977 126.602C74.7617 126.602 75.2018 126.828 75.418 127.281H75.4805C75.6081 127.068 75.7878 126.901 76.0195 126.781C76.2513 126.661 76.5169 126.602 76.8164 126.602C77.332 126.602 77.707 126.732 77.9414 126.992C78.1784 127.253 78.2969 127.65 78.2969 128.184V131H77.3789V128.336C77.3789 128.005 77.3151 127.759 77.1875 127.598C77.0625 127.434 76.8672 127.352 76.6016 127.352C76.2448 127.352 75.9831 127.464 75.8164 127.688C75.6523 127.909 75.5703 128.25 75.5703 128.711V131ZM82.2812 131L82.0977 130.398H82.0664C81.8581 130.661 81.6484 130.841 81.4375 130.938C81.2266 131.031 80.9557 131.078 80.625 131.078C80.2005 131.078 79.8685 130.964 79.6289 130.734C79.3919 130.505 79.2734 130.181 79.2734 129.762C79.2734 129.316 79.4388 128.98 79.7695 128.754C80.1003 128.527 80.6042 128.404 81.2812 128.383L82.0273 128.359V128.129C82.0273 127.853 81.9622 127.647 81.832 127.512C81.7044 127.374 81.5052 127.305 81.2344 127.305C81.013 127.305 80.8008 127.337 80.5977 127.402C80.3945 127.467 80.1992 127.544 80.0117 127.633L79.7148 126.977C79.9492 126.854 80.2057 126.762 80.4844 126.699C80.763 126.634 81.026 126.602 81.2734 126.602C81.8229 126.602 82.237 126.721 82.5156 126.961C82.7969 127.201 82.9375 127.577 82.9375 128.09V131H82.2812ZM80.9141 130.375C81.2474 130.375 81.5143 130.283 81.7148 130.098C81.918 129.91 82.0195 129.648 82.0195 129.312V128.938L81.4648 128.961C81.0326 128.977 80.7174 129.049 80.5195 129.18C80.3242 129.307 80.2266 129.504 80.2266 129.77C80.2266 129.962 80.2839 130.112 80.3984 130.219C80.513 130.323 80.6849 130.375 80.9141 130.375ZM87.1211 129.77C87.1211 130.191 86.9674 130.516 86.6602 130.742C86.3529 130.966 85.9128 131.078 85.3398 131.078C84.7643 131.078 84.3021 130.991 83.9531 130.816V130.023C84.4609 130.258 84.9336 130.375 85.3711 130.375C85.9362 130.375 86.2188 130.204 86.2188 129.863C86.2188 129.754 86.1875 129.663 86.125 129.59C86.0625 129.517 85.9596 129.441 85.8164 129.363C85.6732 129.285 85.474 129.197 85.2188 129.098C84.7214 128.905 84.3841 128.712 84.207 128.52C84.0326 128.327 83.9453 128.077 83.9453 127.77C83.9453 127.4 84.0938 127.113 84.3906 126.91C84.6901 126.704 85.0964 126.602 85.6094 126.602C86.1172 126.602 86.5977 126.704 87.0508 126.91L86.7539 127.602C86.2878 127.409 85.8958 127.312 85.5781 127.312C85.0938 127.312 84.8516 127.451 84.8516 127.727C84.8516 127.862 84.9141 127.977 85.0391 128.07C85.1667 128.164 85.4427 128.293 85.8672 128.457C86.224 128.595 86.4831 128.721 86.6445 128.836C86.806 128.951 86.9258 129.083 87.0039 129.234C87.082 129.383 87.1211 129.561 87.1211 129.77ZM89.0039 128.719L89.5234 128.07L90.8281 126.68H91.8867L90.1484 128.535L91.9961 131H90.918L89.5312 129.105L89.0273 129.52V131H88.1172V124.922H89.0273V127.887L88.9805 128.719H89.0039Z" fill="#8E8E8E"/>
<rect x="35.35" y="137.35" width="133.3" height="14.3" rx="1.65" fill="white" stroke="#E7E7EA" stroke-width="0.7"/>
<path d="M44.9844 148H41.7539V142.289H44.9844V143.078H42.6875V144.633H44.8398V145.414H42.6875V147.207H44.9844V148ZM47.6836 145.809C47.6836 146.493 47.582 147.132 47.3789 147.723C47.1784 148.314 46.888 148.828 46.5078 149.266H45.7148C46.0742 148.779 46.349 148.238 46.5391 147.645C46.7318 147.051 46.8281 146.436 46.8281 145.801C46.8281 145.163 46.7318 144.542 46.5391 143.938C46.3464 143.331 46.069 142.781 45.707 142.289H46.5078C46.8906 142.745 47.1823 143.275 47.3828 143.879C47.5833 144.48 47.6836 145.124 47.6836 145.809ZM52.8125 148H51.8789V143.09H50.1992V142.289H54.4922V143.09H52.8125V148ZM57.4648 143.602C57.6497 143.602 57.8021 143.615 57.9219 143.641L57.832 144.496C57.7018 144.465 57.5664 144.449 57.4258 144.449C57.0586 144.449 56.7604 144.569 56.5312 144.809C56.3047 145.048 56.1914 145.359 56.1914 145.742V148H55.2734V143.68H55.9922L56.1133 144.441H56.1602C56.3034 144.184 56.4896 143.979 56.7188 143.828C56.9505 143.677 57.1992 143.602 57.4648 143.602ZM61.7734 148L61.6445 147.434H61.5977C61.4701 147.634 61.2878 147.792 61.0508 147.906C60.8164 148.021 60.5482 148.078 60.2461 148.078C59.7227 148.078 59.332 147.948 59.0742 147.688C58.8164 147.427 58.6875 147.033 58.6875 146.504V143.68H59.6133V146.344C59.6133 146.674 59.681 146.923 59.8164 147.09C59.9518 147.254 60.1641 147.336 60.4531 147.336C60.8385 147.336 61.1211 147.221 61.3008 146.992C61.4831 146.76 61.5742 146.374 61.5742 145.832V143.68H62.4961V148H61.7734ZM66.707 146.77C66.707 147.191 66.5534 147.516 66.2461 147.742C65.9388 147.966 65.4987 148.078 64.9258 148.078C64.3503 148.078 63.888 147.991 63.5391 147.816V147.023C64.0469 147.258 64.5195 147.375 64.957 147.375C65.5221 147.375 65.8047 147.204 65.8047 146.863C65.8047 146.754 65.7734 146.663 65.7109 146.59C65.6484 146.517 65.5456 146.441 65.4023 146.363C65.2591 146.285 65.0599 146.197 64.8047 146.098C64.3073 145.905 63.9701 145.712 63.793 145.52C63.6185 145.327 63.5312 145.077 63.5312 144.77C63.5312 144.4 63.6797 144.113 63.9766 143.91C64.276 143.704 64.6823 143.602 65.1953 143.602C65.7031 143.602 66.1836 143.704 66.6367 143.91L66.3398 144.602C65.8737 144.409 65.4818 144.312 65.1641 144.312C64.6797 144.312 64.4375 144.451 64.4375 144.727C64.4375 144.862 64.5 144.977 64.625 145.07C64.7526 145.164 65.0286 145.293 65.4531 145.457C65.8099 145.595 66.069 145.721 66.2305 145.836C66.3919 145.951 66.5117 146.083 66.5898 146.234C66.668 146.383 66.707 146.561 66.707 146.77ZM69.3125 147.336C69.5365 147.336 69.7604 147.301 69.9844 147.23V147.922C69.8828 147.966 69.7513 148.003 69.5898 148.031C69.431 148.062 69.2656 148.078 69.0938 148.078C68.224 148.078 67.7891 147.62 67.7891 146.703V144.375H67.1992V143.969L67.832 143.633L68.1445 142.719H68.7109V143.68H69.9414V144.375H68.7109V146.688C68.7109 146.909 68.7656 147.073 68.875 147.18C68.987 147.284 69.1328 147.336 69.3125 147.336ZM76.4727 148L75.9141 145.984C75.8464 145.771 75.724 145.275 75.5469 144.496H75.5117C75.3607 145.199 75.2409 145.698 75.1523 145.992L74.5781 148H73.5625L72.3516 143.68H73.2891L73.8398 145.809C73.9648 146.335 74.0534 146.785 74.1055 147.16H74.1289C74.1549 146.97 74.194 146.753 74.2461 146.508C74.3008 146.26 74.3477 146.076 74.3867 145.953L75.043 143.68H76.0508L76.6875 145.953C76.7266 146.081 76.7747 146.276 76.832 146.539C76.8919 146.802 76.9271 147.007 76.9375 147.152H76.9688C77.0078 146.832 77.099 146.384 77.2422 145.809L77.8008 143.68H78.7227L77.5039 148H76.4727ZM82.1719 148L81.9883 147.398H81.957C81.7487 147.661 81.5391 147.841 81.3281 147.938C81.1172 148.031 80.8464 148.078 80.5156 148.078C80.0911 148.078 79.7591 147.964 79.5195 147.734C79.2826 147.505 79.1641 147.181 79.1641 146.762C79.1641 146.316 79.3294 145.98 79.6602 145.754C79.9909 145.527 80.4948 145.404 81.1719 145.383L81.918 145.359V145.129C81.918 144.853 81.8529 144.647 81.7227 144.512C81.5951 144.374 81.3958 144.305 81.125 144.305C80.9036 144.305 80.6914 144.337 80.4883 144.402C80.2852 144.467 80.0898 144.544 79.9023 144.633L79.6055 143.977C79.8398 143.854 80.0964 143.762 80.375 143.699C80.6536 143.634 80.9167 143.602 81.1641 143.602C81.7135 143.602 82.1276 143.721 82.4062 143.961C82.6875 144.201 82.8281 144.577 82.8281 145.09V148H82.1719ZM80.8047 147.375C81.138 147.375 81.4049 147.283 81.6055 147.098C81.8086 146.91 81.9102 146.648 81.9102 146.312V145.938L81.3555 145.961C80.9232 145.977 80.6081 146.049 80.4102 146.18C80.2148 146.307 80.1172 146.504 80.1172 146.77C80.1172 146.962 80.1745 147.112 80.2891 147.219C80.4036 147.323 80.5755 147.375 80.8047 147.375ZM85.0273 148H84.1094V141.922H85.0273V148ZM87.2617 148H86.3438V141.922H87.2617V148ZM90.4648 148.078C89.793 148.078 89.2669 147.883 88.8867 147.492C88.5091 147.099 88.3203 146.559 88.3203 145.871C88.3203 145.165 88.4961 144.611 88.8477 144.207C89.1992 143.803 89.6823 143.602 90.2969 143.602C90.8672 143.602 91.3177 143.775 91.6484 144.121C91.9792 144.467 92.1445 144.944 92.1445 145.551V146.047H89.2656C89.2786 146.466 89.3919 146.789 89.6055 147.016C89.819 147.24 90.1198 147.352 90.5078 147.352C90.763 147.352 91 147.328 91.2188 147.281C91.4401 147.232 91.6771 147.151 91.9297 147.039V147.785C91.7057 147.892 91.4792 147.967 91.25 148.012C91.0208 148.056 90.7591 148.078 90.4648 148.078ZM90.2969 144.297C90.0052 144.297 89.7708 144.389 89.5938 144.574C89.4193 144.759 89.3151 145.029 89.2812 145.383H91.2422C91.237 145.026 91.151 144.757 90.9844 144.574C90.8177 144.389 90.5885 144.297 90.2969 144.297ZM94.7969 147.336C95.0208 147.336 95.2448 147.301 95.4688 147.23V147.922C95.3672 147.966 95.2357 148.003 95.0742 148.031C94.9154 148.062 94.75 148.078 94.5781 148.078C93.7083 148.078 93.2734 147.62 93.2734 146.703V144.375H92.6836V143.969L93.3164 143.633L93.6289 142.719H94.1953V143.68H95.4258V144.375H94.1953V146.688C94.1953 146.909 94.25 147.073 94.3594 147.18C94.4714 147.284 94.6172 147.336 94.7969 147.336Z" fill="#8E8E8E"/>
<line x1="183.65" y1="69" x2="183.65" y2="152" stroke="#E7E7EA" stroke-width="1.3"/>
<line x1="183.692" y1="128.002" x2="183.608" y2="152.002" stroke="#8E8E8E" stroke-width="1.3"/>
<defs>
<filter id="filter0_d" x="0" y="0" width="203" height="189" filterUnits="userSpaceOnUse" color-interpolation-filters="sRGB">
<feFlood flood-opacity="0" result="BackgroundImageFix"/>
<feColorMatrix in="SourceAlpha" type="matrix" values="0 0 0 0 0 0 0 0 0 0 0 0 0 0 0 0 0 0 127 0"/>
<feOffset dy="4"/>
<feGaussianBlur stdDeviation="2"/>
<feColorMatrix type="matrix" values="0 0 0 0 0 0 0 0 0 0 0 0 0 0 0 0 0 0 0.25 0"/>
<feBlend mode="normal" in2="BackgroundImageFix" result="effect1_dropShadow"/>
<feBlend mode="normal" in="SourceGraphic" in2="effect1_dropShadow" result="shape"/>
</filter>
</defs>
</svg>
