<svg width="287" height="204" viewBox="0 0 287 204" fill="none" xmlns="http://www.w3.org/2000/svg">
<g clip-path="url(#clip0)">
<path opacity="0.3" d="M139.756 204.001C203.719 204.001 255.572 201.109 255.572 197.542C255.572 193.976 203.719 191.084 139.756 191.084C75.7922 191.084 23.9395 193.976 23.9395 197.542C23.9395 201.109 75.7922 204.001 139.756 204.001Z" fill="#0FFFFF"/>
<path d="M69.5192 198.537C69.5192 198.537 79.4168 148.016 48.9747 138.021C25.9415 130.459 14.763 104.491 36.8151 88.6021C36.8151 88.6021 -11.4025 93.6857 11.6587 149.693L2.01503 138.021C2.01503 138.021 -18.2143 200.911 69.5192 198.537Z" fill="#F3F6FE"/>
<path d="M124.368 26.5537L106.866 -0.00292969C106.866 -0.00292969 93.1924 2.79989 93.8627 29.0496L124.368 26.5537Z" fill="#3C2A34"/>
<path d="M117.261 28.0201L106.214 7.56934C106.214 7.56934 96.0014 13.5828 96.5433 28.8329L117.261 28.0201Z" fill="#E76650"/>
<path d="M111.783 24.8023C111.783 24.8023 111.091 16.7568 103.301 15.2671L106.299 20.5924C106.299 20.5924 104.606 19.6009 101.345 20.0354C101.345 20.0354 105.127 22.8767 105.39 25.9451C105.704 24.9963 105.71 23.9796 105.407 23.0275C105.104 22.0753 104.507 21.2317 103.692 20.6064C103.692 20.6064 106.823 21.4599 107.476 22.574C107.476 22.574 107.476 19.2303 105.389 17.2487C105.39 17.2459 109.564 19.1034 111.783 24.8023Z" fill="#FBE4D3"/>
<path d="M165.268 26.5537L182.769 -0.00292969C182.769 -0.00292969 196.443 2.79989 195.772 29.0496L165.268 26.5537Z" fill="#3C2A34"/>
<path d="M172.375 28.0201L183.421 7.56934C183.421 7.56934 193.634 13.5828 193.092 28.8329L172.375 28.0201Z" fill="#E76650"/>
<path d="M177.853 24.8023C177.853 24.8023 178.544 16.7568 186.334 15.2671L183.336 20.5924C183.336 20.5924 185.03 19.6009 188.291 20.0354C188.291 20.0354 184.508 22.8767 184.246 25.9451C183.931 24.9963 183.925 23.9796 184.228 23.0275C184.531 22.0753 185.129 21.2317 185.944 20.6064C185.944 20.6064 182.812 21.4599 182.159 22.574C182.159 22.574 182.159 19.2303 184.246 17.2487C184.246 17.2459 180.072 19.1034 177.853 24.8023Z" fill="#FBE4D3"/>
<path d="M94.0205 29.0525C94.0205 29.0525 59.4567 76.5392 66.0411 89.4335C72.6255 102.328 144.582 166.089 144.582 166.089C144.582 166.089 224.165 92.2223 224.165 76.4516C224.165 60.6809 195.778 29.0525 195.778 29.0525C195.778 29.0525 140.153 18.2007 94.0205 29.0525Z" fill="#F3F6FE"/>
<path d="M72.1494 198.603C72.1494 198.603 26.0291 161.002 71.3129 66.0604C87.3387 32.4582 210.3 41.123 218.49 59.5144C259.315 151.192 224.159 198.604 224.159 198.604L72.1494 198.603Z" fill="#F3F6FE" stroke="#E5E5E5"/>
<path d="M144.302 50.0278V80.2751L137.584 92.4919L146.295 82.0514L154.136 92.4919L147.492 79.1638L146.295 48.9551L144.302 50.0278Z" fill="#3C2A34"/>
<path d="M196.069 129.722C196.069 129.722 200.393 157.005 188.701 166.089C189.289 161.116 189.289 156.096 188.701 151.124C188.701 151.124 181.425 172.085 159.341 175.614C159.341 175.614 174.683 180.028 187.004 158.184C187.004 158.184 187.932 168.334 187.004 171.642C187.004 171.643 204.67 161.273 196.069 129.722Z" fill="#A5FFFF"/>
<path d="M188.223 84.2222C188.223 84.2222 191.25 111.662 179.137 120.238C179.96 115.296 180.198 110.282 179.847 105.289C179.847 105.289 171.584 125.918 149.357 128.5C149.357 128.5 164.476 133.563 177.82 112.269C177.82 112.269 178.267 122.448 177.182 125.714C177.178 125.714 195.319 116.108 188.223 84.2222Z" fill="#A5FFFF" stroke="#A5FFFF"/>
<path d="M89.7984 129.722C89.7984 129.722 85.4738 157.005 97.1661 166.089C96.5785 161.116 96.5785 156.096 97.1661 151.124C97.1661 151.124 104.443 172.085 126.526 175.614C126.526 175.614 111.184 180.028 98.8648 158.184C98.8648 158.184 97.9346 168.334 98.8648 171.642C98.8648 171.643 81.1972 161.273 89.7984 129.722Z" fill="#A5FFFF"/>
<path d="M77.254 85.9927C77.254 85.9927 58.9456 112.545 63.9546 126.575C66.1305 121.186 68.8205 115.997 71.9911 111.073C71.9911 111.073 66.8884 135.661 83.6701 148.04C83.6701 148.04 68.325 146.55 69.6354 119.057C69.6354 119.057 63.3979 129.204 62.4072 133.001C62.4102 132.998 53.0397 115.277 77.254 85.9927Z" fill="#A5FFFF"/>
<path d="M104.207 97.2344C104.207 97.2344 115.408 120.398 138.616 129.473L125.085 113.357C125.085 113.357 144.703 126.132 158.547 119.923C158.547 119.923 146.931 128.52 133.373 119.207L141.448 132.341C141.448 132.341 114.009 126.144 104.207 97.2344Z" fill="#A5FFFF"/>
<path d="M19.7172 117.015C19.7172 117.015 15.3925 144.298 27.0848 153.381C26.4977 148.408 26.4977 143.389 27.0848 138.416C27.0848 138.416 34.3624 159.376 56.4448 162.906C56.4448 162.906 41.1033 167.32 28.7828 145.476C28.7828 145.476 27.8526 155.626 28.7828 158.934C28.7828 158.936 11.1166 148.567 19.7172 117.015Z" fill="#A5FFFF"/>
<path d="M166.393 75.9352C166.393 75.9352 153.622 45.8365 143.118 48.366C133.144 50.7666 123.242 76.8909 123.242 76.8909C123.242 76.8909 133.231 44.0868 145.296 44.7693C157.362 45.4518 166.393 75.9352 166.393 75.9352Z" fill="#3C2A34"/>
<path d="M138.246 30.688L137.742 43.9411H98.4941L135.997 42.0303L138.246 30.688Z" fill="#3C2A34"/>
<path d="M151.392 30.688L151.894 43.9411H191.142L153.64 42.0303L151.392 30.688Z" fill="#3C2A34"/>
<path d="M138.225 48.0383C138.225 48.0383 142.218 58.0184 145.366 57.6036C149.353 57.078 152.095 48.245 152.095 48.245C152.095 48.245 145.857 39.7111 138.225 48.0383Z" fill="#E76650"/>
<path d="M144.228 55.4166C144.228 55.4166 143.939 49.5826 141.443 49.584C142.874 51.2748 143.832 53.281 144.228 55.4166Z" fill="#FBE4D3"/>
<path d="M145.857 55.4166C145.857 55.4166 146.148 49.5826 148.644 49.584C147.212 51.2743 146.254 53.2807 145.857 55.4166Z" fill="#FBE4D3"/>
<path d="M96.4775 45.8359H133.98C133.98 45.8359 129.456 75.4638 115.229 71.5455C101.002 67.6271 96.4775 45.8359 96.4775 45.8359Z" fill="#707173"/>
<path d="M96.4775 45.9165H133.98C133.98 45.9165 129.456 67.8885 115.229 64.5776C101.002 61.2668 96.4775 45.9165 96.4775 45.9165Z" fill="#FAB217"/>
<path d="M105.766 45.9165H128.681C128.681 45.9165 126.171 57.1215 117.224 57.3191C107.839 57.5251 105.766 45.9165 105.766 45.9165Z" fill="#3C2A34"/>
<path d="M129.133 49.8113C129.133 50.174 129.019 50.5285 128.807 50.8301C128.595 51.1316 128.293 51.3666 127.94 51.5054C127.587 51.6442 127.198 51.6805 126.824 51.6098C126.449 51.539 126.105 51.3644 125.834 51.1079C125.564 50.8515 125.38 50.5247 125.306 50.169C125.231 49.8133 125.269 49.4446 125.416 49.1096C125.562 48.7745 125.809 48.4881 126.127 48.2866C126.445 48.0851 126.818 47.9775 127.201 47.9775C127.454 47.9774 127.706 48.0248 127.94 48.1169C128.174 48.2091 128.387 48.3441 128.567 48.5144C128.746 48.6847 128.889 48.8869 128.986 49.1094C129.083 49.3319 129.133 49.5704 129.133 49.8113Z" fill="#FBE4D3"/>
<path d="M193.159 45.8359H155.656C155.656 45.8359 160.734 75.2298 174.961 71.3114C189.189 67.3931 193.159 45.8359 193.159 45.8359Z" fill="#707173"/>
<path d="M193.159 45.9165H155.656C155.656 45.9165 160.181 67.8885 174.408 64.5776C188.634 61.2668 193.159 45.9165 193.159 45.9165Z" fill="#FAB217"/>
<path d="M183.871 45.9165H160.955C160.955 45.9165 163.465 57.1215 172.413 57.3191C181.799 57.5251 183.871 45.9165 183.871 45.9165Z" fill="#3C2A34"/>
<path d="M179.419 49.8113C179.419 50.174 179.532 50.5285 179.745 50.8301C179.957 51.1316 180.259 51.3666 180.612 51.5054C180.965 51.6442 181.353 51.6805 181.728 51.6098C182.103 51.539 182.447 51.3644 182.717 51.1079C182.987 50.8515 183.171 50.5247 183.246 50.169C183.32 49.8133 183.282 49.4446 183.136 49.1096C182.99 48.7745 182.742 48.4881 182.424 48.2866C182.107 48.0851 181.733 47.9775 181.351 47.9775C181.097 47.9775 180.846 48.025 180.612 48.1171C180.377 48.2093 180.164 48.3444 179.985 48.5146C179.805 48.6849 179.663 48.8871 179.566 49.1096C179.469 49.332 179.419 49.5705 179.419 49.8113Z" fill="#FBE4D3"/>
<path d="M270.184 102.526C270.184 102.526 265.663 138.921 229.556 140.58L228.09 84.2222C228.09 84.2222 242.05 113.573 255.505 86.9549C255.505 86.9549 270.004 93.0952 270.184 102.526Z" fill="#F3F6FE"/>
<path d="M252.909 73.2056L255.506 120.607H249.821L248.073 73.2056H252.909Z" fill="#3C2A34"/>
<path d="M255.414 85.0254C255.414 85.0254 239.516 85.6413 242.051 97.3578C244.587 109.074 253.23 120.299 262.845 114.69C272.46 109.082 275.08 86.6896 255.414 85.0254Z" fill="#F3F6FE"/>
<path d="M233.893 76.9046L216.191 47.8022L233.894 18.6992H269.298L287.001 47.8022L269.298 76.9046H233.893Z" fill="#EE3A3D"/>
<path d="M231.012 29.2474C231.013 26.8812 231.257 24.5208 231.742 22.1997L216.17 47.802L233.873 76.9043H269.278L276.801 64.532C271.271 65.6318 265.553 65.5473 260.062 64.2847C254.571 63.0221 249.445 60.6132 245.059 57.2332C240.672 53.8533 237.135 49.5875 234.705 44.7464C232.275 39.9053 231.012 34.6107 231.01 29.2481L231.012 29.2474Z" fill="#EE3A3D"/>
<path d="M267.703 73.846H235.485L219.361 47.8022L235.485 21.7578H267.703L283.83 47.8022L267.703 73.846ZM236.611 71.9793H266.577L281.548 47.8051L266.577 23.6273H236.611L221.642 47.8051L236.611 71.9793Z" fill="#FFF9EF"/>
<path d="M67.0381 45.9165C67.0381 45.9165 89.9915 67.2417 141.545 63.3024C141.545 63.3024 92.9622 71.3619 67.0381 45.9165Z" fill="#767676"/>
<path d="M58.7236 57.0781C58.7236 57.0781 90.5493 76.8912 141.148 64.7158C141.148 64.7172 87.8798 79.1482 58.7236 57.0781Z" fill="#767676"/>
<path d="M67.0381 73.044C67.0381 73.044 97.0026 87.7496 141.564 66.0601C141.564 66.0601 99.038 91.2202 67.0381 73.044Z" fill="#767676"/>
<path d="M222.598 45.9165C222.598 45.9165 199.643 67.2417 148.09 63.3024C148.09 63.3024 196.673 71.3619 222.598 45.9165Z" fill="#767676"/>
<path d="M230.912 57.0781C230.912 57.0781 199.087 76.8912 148.488 64.7158C148.488 64.7172 201.756 79.1482 230.912 57.0781Z" fill="#767676"/>
<path d="M222.598 73.044C222.598 73.044 192.631 87.7496 148.07 66.0601C148.07 66.0601 190.597 91.2202 222.598 73.044Z" fill="#767676"/>
<path d="M216.377 94.4243C216.377 94.4243 233.356 116.82 227.323 129.971C225.453 125.292 223.038 120.826 220.121 116.658C220.121 116.658 223.738 138.459 205.788 151.172C205.788 151.172 221.56 148.446 222.009 123.674C222.009 123.674 227.72 132.3 228.485 135.646C228.485 135.647 239.211 118.763 216.377 94.4243Z" fill="#A5FFFF"/>
</g>
<defs>
<clipPath id="clip0">
<rect width="287" height="204" fill="white"/>
</clipPath>
</defs>
</svg>
