<svg width="248" height="257" viewBox="0 0 248 257" fill="none" xmlns="http://www.w3.org/2000/svg">
<g clip-path="url(#clip0)">
<path d="M149.356 252.004H0V251.014H149.577L149.356 252.004Z" fill="#3F3D56"/>
<path d="M51.6054 237.644L42.9131 238.115L44.0721 164.252H65.5131L51.6054 237.644Z" fill="#A0616A"/>
<path d="M93.328 237.644L84.6357 238.115L85.7947 164.252L99.6618 164.255L93.328 237.644Z" fill="#A0616A"/>
<path d="M102.599 229.648C93.5004 233.017 84.9481 232.845 76.8075 230.006L72.466 145.435L60.031 229.265C50.9385 231.092 41.748 231.084 32.4814 229.648C34.6158 217.09 43.727 140.638 42.9122 126.616L103.758 124.264L102.599 229.648Z" fill="#2F2E41"/>
<path d="M50.0504 257C48.8521 257 47.6665 256.801 46.5663 256.415C45.4662 256.03 44.4747 255.466 43.6528 254.758C42.8309 254.05 42.1959 253.213 41.7869 252.299C41.3778 251.384 41.2034 250.412 41.2741 249.441L42.1128 237.937C45.4895 233.022 49.5881 233.002 54.365 237.582L58.4088 247.649C58.8392 248.721 58.9509 249.86 58.7348 250.973C58.5187 252.086 57.981 253.142 57.1657 254.055C56.3503 254.967 55.2805 255.709 54.0437 256.221C52.807 256.733 51.4386 257 50.0504 257Z" fill="#2F2E41"/>
<path d="M91.1939 257C89.9956 257 88.81 256.801 87.7098 256.415C86.6097 256.03 85.6182 255.466 84.7963 254.758C83.9744 254.05 83.3395 253.213 82.9304 252.299C82.5214 251.384 82.3469 250.412 82.4177 249.441L83.2563 237.937C86.6331 233.022 90.7317 233.002 95.5085 237.582L99.5523 247.649C99.9827 248.721 100.094 249.86 99.8783 250.973C99.6623 252.086 99.1246 253.142 98.3092 254.055C97.4938 254.967 96.424 255.709 95.1873 256.221C93.9506 256.733 92.5821 257 91.1939 257Z" fill="#2F2E41"/>
<path d="M79.4203 32.992C88.7015 32.992 96.2254 26.8836 96.2254 19.3485C96.2254 11.8135 88.7015 5.70508 79.4203 5.70508C70.1391 5.70508 62.6152 11.8135 62.6152 19.3485C62.6152 26.8836 70.1391 32.992 79.4203 32.992Z" fill="#A0616A"/>
<path d="M78.8403 45.2251L51.6045 36.2863C58.1226 33.6925 62.5481 28.8721 66.0917 23.1133H78.2609C77.6804 31.9005 77.2129 40.4808 78.8403 45.2251Z" fill="#A0616A"/>
<path d="M105.497 127.556L40.5943 128.968C41.3847 103.667 39.9981 77.6326 36.7445 50.97C36.3796 47.9644 37.248 44.945 39.2148 42.3814C41.1815 39.8177 44.1363 37.8534 47.62 36.7938L53.9225 34.875L79.4199 40.5206L91.4535 48.0106C93.0657 49.0174 94.3458 50.3326 95.1794 51.8389C96.013 53.3451 96.3743 54.9955 96.2309 56.6427C94.4091 78.2424 98.4767 102.287 105.497 127.556Z" fill="#206DFF"/>
<path d="M112.734 145.377C111.006 145.458 109.306 144.998 107.983 144.092C106.661 143.185 105.817 141.902 105.626 140.505L104.191 130.017L111.859 128.283L118.189 137.147C118.768 137.958 119.082 138.875 119.1 139.812C119.118 140.749 118.841 141.674 118.294 142.5C117.747 143.325 116.949 144.022 115.975 144.526C115.002 145.03 113.886 145.323 112.734 145.377Z" fill="#A0616A"/>
<path d="M119.405 130.85L104.339 131.321L92.749 93.6834L89.8516 47.1074C92.5035 47.3765 94.9695 48.3549 96.8606 49.888C98.7517 51.4211 99.9602 53.4218 100.295 55.5744L105.498 88.9788L119.405 130.85Z" fill="#206DFF"/>
<path opacity="0.2" d="M47.8383 60.9844L47.2588 92.035L72.7562 126.849L50.1562 91.0941L47.8383 60.9844Z" fill="black"/>
<path opacity="0.2" d="M40.1455 107.883L55.2579 128.967L49.9023 128.731L40.1455 107.883Z" fill="black"/>
<path d="M75.1495 103.781C74.4445 103.782 73.7686 104.01 73.27 104.414C72.7715 104.819 72.4911 105.368 72.4902 105.94V239.795C72.4911 240.367 72.7715 240.916 73.27 241.321C73.7686 241.726 74.4445 241.953 75.1495 241.954H245.34C246.045 241.953 246.721 241.726 247.22 241.321C247.718 240.916 247.999 240.367 248 239.795V105.94C247.999 105.368 247.718 104.819 247.22 104.414C246.721 104.01 246.045 103.782 245.34 103.781L75.1495 103.781Z" fill="#E6E6E6"/>
<path d="M79.1543 236.543H241.336V109.191H79.1543V236.543Z" fill="white"/>
<path d="M93.5991 129.48C92.5171 129.48 91.6367 130.74 91.6367 132.287C91.6367 133.835 92.5171 135.094 93.5991 135.094H167.568C168.65 135.094 169.53 133.835 169.53 132.287C169.53 130.74 168.65 129.48 167.568 129.48H93.5991Z" fill="#E6E6E6"/>
<path d="M93.5991 146.752C92.5171 146.752 91.6367 148.011 91.6367 149.559C91.6367 151.106 92.5171 152.365 93.5991 152.365H167.568C168.65 152.365 169.53 151.106 169.53 149.559C169.53 148.011 168.65 146.752 167.568 146.752H93.5991Z" fill="#E6E6E6"/>
<path d="M93.5991 163.824C92.5171 163.824 91.6367 165.083 91.6367 166.631C91.6367 168.178 92.5171 169.437 93.5991 169.437H167.568C168.65 169.437 169.53 168.178 169.53 166.631C169.53 165.083 168.65 163.824 167.568 163.824H93.5991Z" fill="#E6E6E6"/>
<path d="M93.5991 181.096C92.5171 181.096 91.6367 182.355 91.6367 183.902C91.6367 185.45 92.5171 186.709 93.5991 186.709H167.568C168.65 186.709 169.53 185.45 169.53 183.902C169.53 182.355 168.65 181.096 167.568 181.096H93.5991Z" fill="#E6E6E6"/>
<path d="M205.043 129.664C204.126 129.664 203.247 129.96 202.598 130.486C201.95 131.012 201.586 131.726 201.586 132.471C201.586 133.215 201.95 133.929 202.598 134.455C203.247 134.982 204.126 135.277 205.043 135.277H218.871C219.788 135.277 220.667 134.982 221.315 134.455C221.964 133.929 222.328 133.215 222.328 132.471C222.328 131.726 221.964 131.012 221.315 130.486C220.667 129.96 219.788 129.664 218.871 129.664H205.043Z" fill="#E6E6E6"/>
<path d="M205.043 146.602C204.126 146.602 203.247 146.897 202.598 147.424C201.95 147.95 201.586 148.664 201.586 149.408C201.586 150.153 201.95 150.866 202.598 151.393C203.247 151.919 204.126 152.215 205.043 152.215H218.871C219.788 152.215 220.667 151.919 221.315 151.393C221.964 150.866 222.328 150.153 222.328 149.408C222.328 148.664 221.964 147.95 221.315 147.424C220.667 146.897 219.788 146.602 218.871 146.602H205.043Z" fill="#E6E6E6"/>
<path d="M205.043 163.537C204.126 163.537 203.247 163.833 202.598 164.359C201.95 164.885 201.586 165.599 201.586 166.344C201.586 167.088 201.95 167.802 202.598 168.328C203.247 168.855 204.126 169.15 205.043 169.15H218.871C219.788 169.15 220.667 168.855 221.315 168.328C221.964 167.802 222.328 167.088 222.328 166.344C222.328 165.599 221.964 164.885 221.315 164.359C220.667 163.833 219.788 163.537 218.871 163.537H205.043Z" fill="#E6E6E6"/>
<path d="M205.043 180.475C204.126 180.475 203.247 180.77 202.598 181.297C201.95 181.823 201.586 182.537 201.586 183.281C201.586 184.026 201.95 184.739 202.598 185.266C203.247 185.792 204.126 186.088 205.043 186.088H218.871C219.788 186.088 220.667 185.792 221.315 185.266C221.964 184.739 222.328 184.026 222.328 183.281C222.328 182.537 221.964 181.823 221.315 181.297C220.667 180.77 219.788 180.475 218.871 180.475H205.043Z" fill="#E6E6E6"/>
<path d="M200.829 208.875C199.661 208.875 198.54 209.252 197.714 209.922C196.888 210.593 196.424 211.503 196.424 212.451C196.424 213.4 196.888 214.309 197.714 214.98C198.54 215.651 199.661 216.027 200.829 216.027H218.449C219.617 216.027 220.737 215.651 221.563 214.98C222.39 214.309 222.854 213.4 222.854 212.451C222.854 211.503 222.39 210.593 221.563 209.922C220.737 209.252 219.617 208.875 218.449 208.875H200.829Z" fill="#6C63FF"/>
<path d="M222.263 199.303H91.8789V200.244H222.263V199.303Z" fill="#E6E6E6"/>
<path d="M76.7226 143.058C75.1658 143.672 73.3783 143.778 71.7284 143.353C70.0785 142.929 68.6921 142.006 67.855 140.777L61.5684 131.541L67.8267 127.549L77.8657 133.759C78.7838 134.326 79.5074 135.076 79.9677 135.935C80.4279 136.795 80.6093 137.735 80.4947 138.668C80.3801 139.6 79.9733 140.493 79.3129 141.262C78.6526 142.03 77.7608 142.649 76.7226 143.058Z" fill="#A0616A"/>
<path d="M72.4661 128.026L59.7174 133.672L30.7431 93.2121L27.4041 57.6327C27.0294 53.6405 28.2529 49.6569 30.8924 46.2749C33.5319 42.8929 37.4462 40.2935 42.0525 38.8636L45.8097 37.6973L48.1277 91.3302L72.4661 128.026Z" fill="#206DFF"/>
<path d="M93.6802 4.37477L93.867 6.64978L92.4242 3.52606C88.7955 1.3846 84.4583 0.177161 79.9745 0.0601776L79.9744 0.0601489C77.3107 -0.155289 74.6224 0.158477 72.1413 0.974388C69.6602 1.7903 67.4608 3.08387 65.7326 4.74359C64.0044 6.4033 62.7994 8.37936 62.2214 10.5014C61.6434 12.6234 61.7098 14.8277 62.4148 16.9243L62.6154 18.8788L67.2513 13.7037H67.2513C69.3391 12.1668 71.882 11.0957 74.6319 10.5949C77.3818 10.0942 80.2447 10.181 82.9409 10.8467C84.9665 11.3485 86.9143 12.0376 88.7462 12.9004C91.5416 14.2596 94.064 15.9584 96.2257 17.9378L96.6284 15.7146C99.3351 11.5811 97.7238 7.38492 93.6802 4.37477Z" fill="#2F2E41"/>
<path d="M114.923 215.025H110.943V207.887H114.923V208.624H111.773V210.924H114.732V211.656H111.773V214.283H114.923V215.025ZM120.05 215.025V211.563C120.05 211.127 119.951 210.802 119.752 210.587C119.553 210.372 119.243 210.265 118.819 210.265C118.259 210.265 117.849 210.416 117.589 210.719C117.328 211.021 117.198 211.521 117.198 212.218V215.025H116.388V209.674H117.047L117.179 210.406H117.218C117.384 210.143 117.617 209.939 117.916 209.796C118.215 209.649 118.549 209.576 118.917 209.576C119.562 209.576 120.047 209.732 120.372 210.045C120.698 210.354 120.86 210.851 120.86 211.534V215.025H120.05ZM126.173 214.308H126.129C125.755 214.851 125.195 215.123 124.449 215.123C123.749 215.123 123.204 214.884 122.813 214.405C122.426 213.927 122.232 213.246 122.232 212.364C122.232 211.482 122.428 210.797 122.818 210.309C123.209 209.82 123.753 209.576 124.449 209.576C125.175 209.576 125.732 209.84 126.119 210.367H126.183L126.148 209.981L126.129 209.605V207.428H126.939V215.025H126.28L126.173 214.308ZM124.552 214.444C125.105 214.444 125.506 214.295 125.753 213.995C126.004 213.692 126.129 213.206 126.129 212.535V212.364C126.129 211.606 126.002 211.065 125.748 210.743C125.497 210.418 125.095 210.255 124.542 210.255C124.067 210.255 123.702 210.44 123.448 210.812C123.198 211.179 123.072 211.7 123.072 212.374C123.072 213.058 123.198 213.574 123.448 213.922C123.699 214.27 124.067 214.444 124.552 214.444ZM133.399 215.123C132.625 215.123 132.024 214.885 131.598 214.41C131.174 213.932 130.963 213.256 130.963 212.384C130.963 211.489 131.178 210.797 131.607 210.309C132.04 209.82 132.656 209.576 133.453 209.576C133.71 209.576 133.967 209.604 134.225 209.659C134.482 209.715 134.684 209.78 134.83 209.854L134.581 210.543C134.402 210.471 134.207 210.413 133.995 210.367C133.784 210.318 133.596 210.294 133.434 210.294C132.346 210.294 131.803 210.987 131.803 212.374C131.803 213.032 131.935 213.536 132.198 213.888C132.465 214.239 132.859 214.415 133.38 214.415C133.826 214.415 134.283 214.319 134.752 214.127V214.845C134.394 215.03 133.943 215.123 133.399 215.123ZM139.317 215.025L139.156 214.264H139.117C138.85 214.599 138.583 214.827 138.316 214.947C138.053 215.064 137.722 215.123 137.325 215.123C136.795 215.123 136.378 214.986 136.075 214.713C135.776 214.439 135.626 214.05 135.626 213.546C135.626 212.465 136.49 211.899 138.219 211.847L139.127 211.817V211.485C139.127 211.065 139.036 210.756 138.854 210.558C138.674 210.356 138.386 210.255 137.989 210.255C137.543 210.255 137.039 210.392 136.476 210.665L136.227 210.045C136.49 209.902 136.778 209.789 137.091 209.708C137.407 209.627 137.722 209.586 138.038 209.586C138.676 209.586 139.148 209.728 139.454 210.011C139.763 210.294 139.918 210.748 139.918 211.373V215.025H139.317ZM137.486 214.454C137.991 214.454 138.386 214.316 138.673 214.039C138.963 213.762 139.107 213.375 139.107 212.877V212.394L138.297 212.428C137.652 212.451 137.187 212.551 136.9 212.73C136.617 212.906 136.476 213.181 136.476 213.556C136.476 213.849 136.563 214.072 136.739 214.225C136.918 214.378 137.167 214.454 137.486 214.454ZM148.414 215.025V211.544C148.414 211.118 148.323 210.799 148.141 210.587C147.958 210.372 147.675 210.265 147.291 210.265C146.786 210.265 146.414 210.41 146.173 210.699C145.932 210.989 145.812 211.435 145.812 212.037V215.025H145.001V211.544C145.001 211.118 144.91 210.799 144.728 210.587C144.545 210.372 144.26 210.265 143.873 210.265C143.365 210.265 142.993 210.418 142.755 210.724C142.521 211.026 142.403 211.524 142.403 212.218V215.025H141.593V209.674H142.252L142.384 210.406H142.423C142.576 210.146 142.791 209.942 143.067 209.796C143.347 209.649 143.66 209.576 144.005 209.576C144.841 209.576 145.388 209.879 145.646 210.484H145.685C145.844 210.204 146.075 209.983 146.378 209.82C146.681 209.658 147.026 209.576 147.413 209.576C148.019 209.576 148.471 209.732 148.771 210.045C149.073 210.354 149.225 210.851 149.225 211.534V215.025H148.414ZM153.39 215.123C153.041 215.123 152.722 215.06 152.433 214.933C152.146 214.802 151.905 214.604 151.71 214.337H151.651C151.69 214.649 151.71 214.946 151.71 215.226V217.428H150.899V209.674H151.559L151.671 210.406H151.71C151.918 210.113 152.161 209.902 152.438 209.771C152.714 209.641 153.032 209.576 153.39 209.576C154.099 209.576 154.646 209.819 155.03 210.304C155.418 210.789 155.611 211.469 155.611 212.345C155.611 213.224 155.414 213.907 155.021 214.396C154.63 214.881 154.086 215.123 153.39 215.123ZM153.272 210.265C152.726 210.265 152.33 210.416 152.086 210.719C151.842 211.021 151.716 211.503 151.71 212.164V212.345C151.71 213.097 151.835 213.635 152.086 213.961C152.337 214.283 152.739 214.444 153.292 214.444C153.754 214.444 154.116 214.257 154.376 213.883C154.64 213.508 154.771 212.993 154.771 212.335C154.771 211.668 154.64 211.157 154.376 210.802C154.116 210.444 153.748 210.265 153.272 210.265ZM160.323 215.025L160.162 214.264H160.123C159.856 214.599 159.589 214.827 159.322 214.947C159.059 215.064 158.728 215.123 158.331 215.123C157.8 215.123 157.384 214.986 157.081 214.713C156.782 214.439 156.632 214.05 156.632 213.546C156.632 212.465 157.496 211.899 159.225 211.847L160.133 211.817V211.485C160.133 211.065 160.042 210.756 159.859 210.558C159.68 210.356 159.392 210.255 158.995 210.255C158.549 210.255 158.045 210.392 157.481 210.665L157.232 210.045C157.496 209.902 157.784 209.789 158.097 209.708C158.412 209.627 158.728 209.586 159.044 209.586C159.682 209.586 160.154 209.728 160.46 210.011C160.769 210.294 160.924 210.748 160.924 211.373V215.025H160.323ZM158.492 214.454C158.997 214.454 159.392 214.316 159.679 214.039C159.968 213.762 160.113 213.375 160.113 212.877V212.394L159.303 212.428C158.658 212.451 158.193 212.551 157.906 212.73C157.623 212.906 157.481 213.181 157.481 213.556C157.481 213.849 157.569 214.072 157.745 214.225C157.924 214.378 158.173 214.454 158.492 214.454ZM163.409 215.025H162.599V209.674H163.409V215.025ZM162.53 208.224C162.53 208.038 162.576 207.903 162.667 207.818C162.758 207.73 162.872 207.687 163.009 207.687C163.139 207.687 163.251 207.73 163.346 207.818C163.44 207.906 163.487 208.041 163.487 208.224C163.487 208.406 163.44 208.543 163.346 208.634C163.251 208.722 163.139 208.766 163.009 208.766C162.872 208.766 162.758 208.722 162.667 208.634C162.576 208.543 162.53 208.406 162.53 208.224ZM169.508 209.674V210.187L168.517 210.304C168.608 210.418 168.689 210.567 168.761 210.753C168.832 210.935 168.868 211.142 168.868 211.373C168.868 211.897 168.689 212.315 168.331 212.628C167.973 212.94 167.481 213.097 166.856 213.097C166.697 213.097 166.547 213.084 166.407 213.058C166.062 213.24 165.89 213.469 165.89 213.746C165.89 213.893 165.95 214.002 166.07 214.073C166.191 214.142 166.397 214.176 166.69 214.176H167.638C168.217 214.176 168.661 214.298 168.971 214.542C169.283 214.786 169.439 215.141 169.439 215.606C169.439 216.199 169.202 216.65 168.727 216.959C168.251 217.271 167.558 217.428 166.646 217.428C165.947 217.428 165.406 217.298 165.025 217.037C164.648 216.777 164.459 216.409 164.459 215.934C164.459 215.608 164.563 215.326 164.771 215.089C164.98 214.851 165.273 214.69 165.65 214.605C165.514 214.544 165.398 214.448 165.304 214.317C165.213 214.187 165.167 214.036 165.167 213.863C165.167 213.668 165.219 213.497 165.323 213.351C165.427 213.204 165.592 213.062 165.816 212.926C165.54 212.812 165.313 212.618 165.138 212.345C164.965 212.071 164.879 211.759 164.879 211.407C164.879 210.821 165.055 210.37 165.406 210.055C165.758 209.736 166.256 209.576 166.9 209.576C167.18 209.576 167.433 209.609 167.657 209.674H169.508ZM165.24 215.924C165.24 216.214 165.362 216.433 165.606 216.583C165.851 216.733 166.201 216.808 166.656 216.808C167.337 216.808 167.84 216.705 168.165 216.5C168.494 216.298 168.658 216.023 168.658 215.675C168.658 215.385 168.569 215.183 168.39 215.069C168.211 214.959 167.874 214.903 167.379 214.903H166.407C166.039 214.903 165.753 214.991 165.548 215.167C165.343 215.343 165.24 215.595 165.24 215.924ZM165.68 211.388C165.68 211.762 165.785 212.045 165.997 212.237C166.209 212.429 166.503 212.525 166.881 212.525C167.672 212.525 168.067 212.141 168.067 211.373C168.067 210.569 167.667 210.167 166.866 210.167C166.485 210.167 166.192 210.27 165.987 210.475C165.782 210.68 165.68 210.984 165.68 211.388ZM174.269 215.025V211.563C174.269 211.127 174.169 210.802 173.971 210.587C173.772 210.372 173.461 210.265 173.038 210.265C172.478 210.265 172.068 210.416 171.808 210.719C171.547 211.021 171.417 211.521 171.417 212.218V215.025H170.606V209.674H171.266L171.397 210.406H171.437C171.603 210.143 171.835 209.939 172.135 209.796C172.434 209.649 172.768 209.576 173.136 209.576C173.78 209.576 174.265 209.732 174.591 210.045C174.916 210.354 175.079 210.851 175.079 211.534V215.025H174.269Z" fill="black"/>
<path d="M232.666 213.052C232.666 213.451 232.517 213.78 232.218 214.041C231.919 214.299 231.501 214.461 230.965 214.529V215.548H230.398V214.568C230.07 214.568 229.752 214.543 229.445 214.494C229.137 214.441 228.885 214.369 228.689 214.278V213.593C228.932 213.701 229.212 213.791 229.528 213.861C229.848 213.928 230.138 213.962 230.398 213.962V212.028C229.798 211.838 229.376 211.617 229.133 211.365C228.893 211.113 228.772 210.788 228.772 210.389C228.772 210.005 228.92 209.69 229.216 209.444C229.515 209.198 229.909 209.049 230.398 208.996V208.196H230.965V208.987C231.504 209.002 232.024 209.11 232.525 209.312L232.297 209.888C231.86 209.715 231.417 209.613 230.965 209.581V211.488C231.425 211.634 231.77 211.778 231.998 211.918C232.227 212.056 232.395 212.216 232.503 212.397C232.612 212.576 232.666 212.794 232.666 213.052ZM231.919 213.109C231.919 212.898 231.853 212.729 231.721 212.6C231.592 212.468 231.34 212.337 230.965 212.208V213.918C231.601 213.83 231.919 213.561 231.919 213.109ZM229.515 210.38C229.515 210.603 229.581 210.782 229.713 210.917C229.845 211.051 230.073 211.179 230.398 211.299V209.598C230.108 209.645 229.889 209.737 229.739 209.875C229.59 210.01 229.515 210.178 229.515 210.38Z" fill="black"/>
</g>
<defs>
<clipPath id="clip0">
<rect width="248" height="257" fill="white"/>
</clipPath>
</defs>
</svg>
