<svg xmlns="http://www.w3.org/2000/svg" width="163.031" height="119.025" viewBox="0 0 163.031 119.025">
  <g id="Group_10220" data-name="Group 10220" transform="translate(-371.484 -154.687)">
    <g id="Group" transform="translate(447.011 154.687)">
      <g id="Group-2" data-name="Group" transform="translate(0 66.249)" opacity="0.16">
        <path id="Path" d="M57.56,34.01c-13.487,7.435-34.927,7-47.982-.951s-12.709-20.4.692-27.752c13.487-7.435,34.927-7,47.982.951C71.393,14.212,71.047,26.661,57.56,34.01Z" transform="translate(0)" fill="rgba(0,0,0,0.2)"/>
      </g>
      <g id="Group-3" data-name="Group" transform="translate(17.619 54.664)">
        <path id="Path-2" data-name="Path" d="M10.374,28.876c.086,0,.086.086.173.086a.655.655,0,0,0,.346.173c.173.086.259.173.432.259.086.086.259.086.346.173.173.086.259.173.432.173.086.086.173.086.259.173.173.086.432.173.605.259.086.086.259.086.346.173a.085.085,0,0,1,.086.086c.346.173.778.346,1.124.519h0c.086,0,.086,0,.173.086.346.086.605.259.951.346.086,0,.086,0,.173.086.173.086.346.086.432.173a1.249,1.249,0,0,0,.605.173c.086,0,.173.086.346.086.173.086.346.086.519.173.173,0,.259.086.432.086.173.086.346.086.519.173s.346.086.519.173c.086,0,.173.086.259.086.259.086.432.086.692.173.173,0,.259.086.432.086h.086a7.2,7.2,0,0,1,1.3.346h.086c.346.086.778.173,1.124.259h.173c.173,0,.259.086.432.086s.432.086.605.086a.779.779,0,0,1,.432.086c.173,0,.346.086.519.086a.52.52,0,0,1,.346.086c.259,0,.519.086.692.086a.52.52,0,0,1,.346.086h.173c.432.086.865.086,1.3.173h.432c.346,0,.692.086.951.086h.173a2.394,2.394,0,0,1,.778.086,1.9,1.9,0,0,1,.692.086H31.3c.692,0,1.383.086,2.161.086H33.8c1.037,0,1.988,0,3.026-.086h.432a21.2,21.2,0,0,0,2.334-.173h.086c.519-.086,1.124-.086,1.643-.173h.086c.432-.086.778-.086,1.21-.173h.259c.432-.086.951-.173,1.383-.259h.086c.173,0,.259-.086.432-.086.259-.086.605-.086.865-.173h.173c.173,0,.346-.086.605-.086.173-.086.432-.086.692-.173a.318.318,0,0,0,.259-.086c.173-.086.432-.086.605-.173s.346-.086.519-.173c.086,0,.173-.086.259-.086.173-.086.432-.086.605-.173a.779.779,0,0,1,.432-.086c.086,0,.259-.086.346-.086a1.6,1.6,0,0,1,.605-.173c.086,0,.259-.086.346-.086.173-.086.259-.086.432-.173a1.6,1.6,0,0,1,.605-.173c.086,0,.173-.086.346-.086.173-.086.346-.086.519-.173a1.229,1.229,0,0,1,.519-.173c.086,0,.173-.086.259-.086.173-.086.432-.173.605-.259s.259-.086.432-.173a.085.085,0,0,0,.086-.086c.346-.173.778-.346,1.124-.519h.086a9.431,9.431,0,0,0,.951-.519c.086,0,.173-.086.259-.173.259-.173.519-.259.778-.432.086-.086.173-.086.259-.173s.259-.173.346-.259.173-.086.259-.173c.173-.086.259-.173.432-.259a.449.449,0,0,1,.346-.173.3.3,0,0,1,.173-.086c.259-.173.605-.432.865-.605h0c.259-.173.519-.432.778-.605l.086-.086.259-.259c.173-.086.259-.259.432-.346l.173-.173.346-.346.259-.259.259-.259a1.193,1.193,0,0,0,.259-.346l.173-.173a1.193,1.193,0,0,0,.259-.346l.346-.346c0-.086.086-.086.086-.173a1.193,1.193,0,0,0,.259-.346,1.518,1.518,0,0,1,.346-.432l.086-.086c.086-.086.086-.173.173-.259.086-.173.259-.346.346-.519,0-.086.086-.086.086-.173a.318.318,0,0,0,.086-.259c.086-.259.259-.432.346-.692a.3.3,0,0,1,.086-.173c0-.086,0-.086.086-.173a5.289,5.289,0,0,0,.432-1.037v-.086h0c0-.086.086-.173.086-.259a2.035,2.035,0,0,0,.173-.692c0-.086.086-.259.086-.346,0-.173.086-.259.086-.432V17.55a1.9,1.9,0,0,0,.086-.692.52.52,0,0,1,.086-.346c0-.346.086-.692.086-1.037L67.78,1.383a4.209,4.209,0,0,1-.086,1.037.52.52,0,0,1-.086.346c0,.259-.086.432-.086.692,0,.173-.086.346-.086.519,0,.086-.086.259-.086.346a2.035,2.035,0,0,0-.173.692c0,.086-.086.173-.086.259A.085.085,0,0,1,67,5.36c-.173.346-.259.692-.432,1.037-.086.086-.086.259-.173.346-.086.259-.259.432-.346.692-.086.086-.173.259-.259.346-.086.173-.259.346-.346.519s-.173.259-.259.432a1.518,1.518,0,0,1-.346.432,1.886,1.886,0,0,1-.346.432c-.086.086-.173.259-.346.346-.173.173-.259.346-.432.432a1.193,1.193,0,0,0-.259.346l-.519.519-.346.346a3.76,3.76,0,0,1-.605.519l-.259.259a3.839,3.839,0,0,1-.951.692h0c-.346.259-.605.432-.951.692a.449.449,0,0,1-.346.173,3.5,3.5,0,0,1-.778.432c-.086.086-.259.173-.346.259-.346.173-.692.432-1.037.605a7.9,7.9,0,0,1-1.21.605h-.086c-.432.173-.778.432-1.21.605-.173.086-.259.086-.432.173a8.97,8.97,0,0,1-.865.346,1.229,1.229,0,0,1-.519.173l-.778.259a1.6,1.6,0,0,1-.605.173l-.778.259a1.6,1.6,0,0,1-.605.173l-.778.259c-.173.086-.432.086-.605.173-.259.086-.519.173-.865.259-.173.086-.432.086-.605.173a3.072,3.072,0,0,1-.865.173,1.282,1.282,0,0,1-.605.086,4.339,4.339,0,0,1-1.037.173c-.173,0-.259.086-.432.086-.519.086-1.037.173-1.47.259h-.259c-.432.086-.865.086-1.3.173-.519.086-1.124.086-1.643.173h0c-.778.086-1.556.086-2.334.173H37c-1.037,0-1.988.086-3.026.086h-.346a18.8,18.8,0,0,1-2.161-.086,2.394,2.394,0,0,1-.778-.086,2.394,2.394,0,0,1-.778-.086c-.346,0-.778-.086-1.124-.086h-.346c-.519-.086-.951-.086-1.47-.173a.52.52,0,0,1-.346-.086c-.346-.086-.692-.086-1.037-.173-.173,0-.346-.086-.519-.086-.346-.086-.692-.086-1.037-.173-.173,0-.259-.086-.432-.086l-1.3-.259h-.086c-.519-.086-.951-.259-1.383-.346-.173,0-.259-.086-.432-.086-.346-.086-.605-.173-.951-.259-.173-.086-.346-.086-.519-.173-.259-.086-.605-.173-.865-.259-.173-.086-.346-.086-.519-.173a3.613,3.613,0,0,1-.865-.346c-.173-.086-.346-.086-.432-.173-.346-.173-.778-.259-1.124-.432-.086,0-.086,0-.173-.086l-1.3-.519c-.086-.086-.259-.086-.346-.173-.259-.173-.605-.259-.865-.432-.173-.086-.259-.173-.432-.173-.259-.173-.519-.259-.778-.432a.655.655,0,0,0-.346-.173c-.346-.173-.778-.432-1.124-.605-.346-.259-.778-.432-1.124-.692-.086-.086-.173-.173-.259-.173a4.8,4.8,0,0,1-.692-.519c-.173-.086-.259-.173-.432-.259-.173-.173-.432-.259-.605-.432-.173-.086-.259-.259-.432-.346-.173-.173-.346-.259-.519-.432l-.432-.432-.432-.432-.519-.519-.346-.346c-.173-.173-.346-.432-.519-.605-.086-.086-.173-.259-.259-.346L2.421,7.435A7.6,7.6,0,0,1,1.9,6.57h0a4.038,4.038,0,0,1-.432-.865C1.3,5.274,1.124,4.928.951,4.5c0-.086-.086-.173-.086-.259a6.368,6.368,0,0,1-.346-1.21V2.939a6.673,6.673,0,0,1-.173-1.3V1.3C.346.865.259.432.259,0h0L0,14.092a6.543,6.543,0,0,0,.086,1.3v.346c.086.432.086.865.173,1.3v.086a6.368,6.368,0,0,0,.346,1.21c0,.086.086.173.086.259.173.432.346.865.519,1.21h0a16.059,16.059,0,0,0,.951,1.643h0l.778,1.037a.085.085,0,0,0,.086.086c.086.086.173.173.173.259.173.173.346.432.519.605l.173.173.259.259.519.519c.086.086.086.173.173.173.086.086.173.173.259.173l.432.432c.086.086.173.173.259.173l.259.259c.173.086.259.259.432.346.086.086.173.086.173.173.086.086.259.173.346.259a1.518,1.518,0,0,1,.432.346c.086,0,.086.086.173.086a1.809,1.809,0,0,0,.519.346c.086.086.173.173.259.173a.085.085,0,0,1,.086.086c.346.173.605.432.951.605H9.51A2.04,2.04,0,0,0,10.374,28.876Z" transform="translate(0 18.794)" fill="#888"/>
        <path id="Path-3" data-name="Path" d="M57.56,34.01c-13.487,7.435-34.927,7-47.982-.951s-12.709-20.4.692-27.752c13.487-7.435,34.927-7,47.982.951S71.047,26.661,57.56,34.01Z" transform="translate(0.104)" fill="#a3a3a3"/>
        <path id="Shape" d="M27.582,31.382a44.424,44.424,0,0,1-10.667-1.275,33.644,33.644,0,0,1-9.3-3.739,18.086,18.086,0,0,1-5.777-5.274A10.152,10.152,0,0,1,0,15.181,10.222,10.222,0,0,1,2.126,9.306a18.389,18.389,0,0,1,6.09-5.07C13.1,1.5,19.579,0,26.458,0V.864h-.007c-6.832,0-13.154,1.443-17.8,4.062C3.717,7.61.954,11.233.868,15.129.781,19.047,3.329,22.762,8.044,25.59,13,28.667,20.09,30.432,27.5,30.432c6.835,0,13.16-1.443,17.809-4.063,4.931-2.682,7.694-6.3,7.781-10.2.088-3.917-2.461-7.632-7.175-10.461C40.954,2.629,33.864.864,26.458.864V0A44.985,44.985,0,0,1,37.125,1.243a32.139,32.139,0,0,1,9.3,3.771,18.089,18.089,0,0,1,5.777,5.275A10.152,10.152,0,0,1,54.038,16.2a10.222,10.222,0,0,1-2.124,5.875,18.389,18.389,0,0,1-6.09,5.07C40.941,29.878,34.463,31.382,27.582,31.382Z" transform="translate(6.999 4.01)" fill="#fff"/>
        <g id="Group_10173" data-name="Group 10173" transform="translate(19.917 10.946)">
          <g id="Group_10178" data-name="Group 10178" transform="translate(0)">
            <g id="Group_10174" data-name="Group 10174" transform="translate(7.447 12.527)">
              <path id="Path_4715" data-name="Path 4715" d="M27.93,27.426l-14.149,2.1,21.39,2.1Z" transform="translate(-13.781 -27.426)" fill="#fff"/>
            </g>
            <g id="Group_10175" data-name="Group 10175" transform="translate(21.596 4.353)">
              <path id="Path_4716" data-name="Path 4716" d="M17.46,22.5l-3.678,8.174,7.241,4.2Z" transform="translate(-13.781 -22.505)" fill="#fff"/>
            </g>
            <g id="Group_10176" data-name="Group 10176" transform="translate(0)">
              <path id="Path_4717" data-name="Path 4717" d="M40.527,23.264l-23.6-3.38L36.848,31.437Z" transform="translate(-16.931 -19.884)" fill="#fff"/>
            </g>
            <g id="Group_10177" data-name="Group 10177">
              <path id="Path_4718" data-name="Path 4718" d="M19.141,19.884,24.91,33.537l14.149-2.1Z" transform="translate(-19.141 -19.884)" fill="#fff"/>
            </g>
          </g>
        </g>
      </g>
      <g id="Group-4" data-name="Group" transform="translate(1.835 48.06) rotate(-45)">
        <path id="Path-4" data-name="Path" d="M10.374,28.876c.086,0,.086.086.173.086a.655.655,0,0,0,.346.173c.173.086.259.173.432.259.086.086.259.086.346.173.173.086.259.173.432.173.086.086.173.086.259.173.173.086.432.173.605.259.086.086.259.086.346.173a.085.085,0,0,1,.086.086c.346.173.778.346,1.124.519h0c.086,0,.086,0,.173.086.346.086.605.259.951.346.086,0,.086,0,.173.086.173.086.346.086.432.173a1.249,1.249,0,0,0,.605.173c.086,0,.173.086.346.086.173.086.346.086.519.173.173,0,.259.086.432.086.173.086.346.086.519.173s.346.086.519.173c.086,0,.173.086.259.086.259.086.432.086.692.173.173,0,.259.086.432.086h.086a7.2,7.2,0,0,1,1.3.346h.086c.346.086.778.173,1.124.259h.173c.173,0,.259.086.432.086s.432.086.605.086a.779.779,0,0,1,.432.086c.173,0,.346.086.519.086a.52.52,0,0,1,.346.086c.259,0,.519.086.692.086a.52.52,0,0,1,.346.086h.173c.432.086.865.086,1.3.173h.432c.346,0,.692.086.951.086h.173a2.394,2.394,0,0,1,.778.086,1.9,1.9,0,0,1,.692.086H31.3c.692,0,1.383.086,2.161.086H33.8c1.037,0,1.988,0,3.026-.086h.432a21.2,21.2,0,0,0,2.334-.173h.086c.519-.086,1.124-.086,1.643-.173h.086c.432-.086.778-.086,1.21-.173h.259c.432-.086.951-.173,1.383-.259h.086c.173,0,.259-.086.432-.086.259-.086.605-.086.865-.173h.173c.173,0,.346-.086.605-.086.173-.086.432-.086.692-.173a.318.318,0,0,0,.259-.086c.173-.086.432-.086.605-.173s.346-.086.519-.173c.086,0,.173-.086.259-.086.173-.086.432-.086.605-.173a.779.779,0,0,1,.432-.086c.086,0,.259-.086.346-.086a1.6,1.6,0,0,1,.605-.173c.086,0,.259-.086.346-.086.173-.086.259-.086.432-.173a1.6,1.6,0,0,1,.605-.173c.086,0,.173-.086.346-.086.173-.086.346-.086.519-.173a1.229,1.229,0,0,1,.519-.173c.086,0,.173-.086.259-.086.173-.086.432-.173.605-.259s.259-.086.432-.173a.085.085,0,0,0,.086-.086c.346-.173.778-.346,1.124-.519h.086a9.431,9.431,0,0,0,.951-.519c.086,0,.173-.086.259-.173.259-.173.519-.259.778-.432.086-.086.173-.086.259-.173s.259-.173.346-.259.173-.086.259-.173c.173-.086.259-.173.432-.259a.449.449,0,0,1,.346-.173.3.3,0,0,1,.173-.086c.259-.173.605-.432.865-.605h0c.259-.173.519-.432.778-.605l.086-.086.259-.259c.173-.086.259-.259.432-.346l.173-.173.346-.346.259-.259.259-.259a1.193,1.193,0,0,0,.259-.346l.173-.173a1.193,1.193,0,0,0,.259-.346l.346-.346c0-.086.086-.086.086-.173a1.193,1.193,0,0,0,.259-.346,1.518,1.518,0,0,1,.346-.432l.086-.086c.086-.086.086-.173.173-.259.086-.173.259-.346.346-.519,0-.086.086-.086.086-.173a.318.318,0,0,0,.086-.259c.086-.259.259-.432.346-.692a.3.3,0,0,1,.086-.173c0-.086,0-.086.086-.173a5.289,5.289,0,0,0,.432-1.037v-.086h0c0-.086.086-.173.086-.259a2.035,2.035,0,0,0,.173-.692c0-.086.086-.259.086-.346,0-.173.086-.259.086-.432V17.55a1.9,1.9,0,0,0,.086-.692.52.52,0,0,1,.086-.346c0-.346.086-.692.086-1.037L67.78,1.383a4.209,4.209,0,0,1-.086,1.037.52.52,0,0,1-.086.346c0,.259-.086.432-.086.692,0,.173-.086.346-.086.519,0,.086-.086.259-.086.346a2.035,2.035,0,0,0-.173.692c0,.086-.086.173-.086.259A.085.085,0,0,1,67,5.36c-.173.346-.259.692-.432,1.037-.086.086-.086.259-.173.346-.086.259-.259.432-.346.692-.086.086-.173.259-.259.346-.086.173-.259.346-.346.519s-.173.259-.259.432a1.518,1.518,0,0,1-.346.432,1.886,1.886,0,0,1-.346.432c-.086.086-.173.259-.346.346-.173.173-.259.346-.432.432a1.193,1.193,0,0,0-.259.346l-.519.519-.346.346a3.76,3.76,0,0,1-.605.519l-.259.259a3.839,3.839,0,0,1-.951.692h0c-.346.259-.605.432-.951.692a.449.449,0,0,1-.346.173,3.5,3.5,0,0,1-.778.432c-.086.086-.259.173-.346.259-.346.173-.692.432-1.037.605a7.9,7.9,0,0,1-1.21.605h-.086c-.432.173-.778.432-1.21.605-.173.086-.259.086-.432.173a8.97,8.97,0,0,1-.865.346,1.229,1.229,0,0,1-.519.173l-.778.259a1.6,1.6,0,0,1-.605.173l-.778.259a1.6,1.6,0,0,1-.605.173l-.778.259c-.173.086-.432.086-.605.173-.259.086-.519.173-.865.259-.173.086-.432.086-.605.173a3.072,3.072,0,0,1-.865.173,1.282,1.282,0,0,1-.605.086,4.339,4.339,0,0,1-1.037.173c-.173,0-.259.086-.432.086-.519.086-1.037.173-1.47.259h-.259c-.432.086-.865.086-1.3.173-.519.086-1.124.086-1.643.173h0c-.778.086-1.556.086-2.334.173H37c-1.037,0-1.988.086-3.026.086h-.346a18.8,18.8,0,0,1-2.161-.086,2.394,2.394,0,0,1-.778-.086,2.394,2.394,0,0,1-.778-.086c-.346,0-.778-.086-1.124-.086h-.346c-.519-.086-.951-.086-1.47-.173a.52.52,0,0,1-.346-.086c-.346-.086-.692-.086-1.037-.173-.173,0-.346-.086-.519-.086-.346-.086-.692-.086-1.037-.173-.173,0-.259-.086-.432-.086l-1.3-.259h-.086c-.519-.086-.951-.259-1.383-.346-.173,0-.259-.086-.432-.086-.346-.086-.605-.173-.951-.259-.173-.086-.346-.086-.519-.173-.259-.086-.605-.173-.865-.259-.173-.086-.346-.086-.519-.173a3.613,3.613,0,0,1-.865-.346c-.173-.086-.346-.086-.432-.173-.346-.173-.778-.259-1.124-.432-.086,0-.086,0-.173-.086l-1.3-.519c-.086-.086-.259-.086-.346-.173-.259-.173-.605-.259-.865-.432-.173-.086-.259-.173-.432-.173-.259-.173-.519-.259-.778-.432a.655.655,0,0,0-.346-.173c-.346-.173-.778-.432-1.124-.605-.346-.259-.778-.432-1.124-.692-.086-.086-.173-.173-.259-.173a4.8,4.8,0,0,1-.692-.519c-.173-.086-.259-.173-.432-.259-.173-.173-.432-.259-.605-.432-.173-.086-.259-.259-.432-.346-.173-.173-.346-.259-.519-.432l-.432-.432-.432-.432-.519-.519-.346-.346c-.173-.173-.346-.432-.519-.605-.086-.086-.173-.259-.259-.346L2.421,7.435A7.6,7.6,0,0,1,1.9,6.57h0a4.038,4.038,0,0,1-.432-.865C1.3,5.274,1.124,4.928.951,4.5c0-.086-.086-.173-.086-.259a6.368,6.368,0,0,1-.346-1.21V2.939a6.673,6.673,0,0,1-.173-1.3V1.3C.346.865.259.432.259,0h0L0,14.092a6.543,6.543,0,0,0,.086,1.3v.346c.086.432.086.865.173,1.3v.086a6.368,6.368,0,0,0,.346,1.21c0,.086.086.173.086.259.173.432.346.865.519,1.21h0a16.059,16.059,0,0,0,.951,1.643h0l.778,1.037a.085.085,0,0,0,.086.086c.086.086.173.173.173.259.173.173.346.432.519.605l.173.173.259.259.519.519c.086.086.086.173.173.173.086.086.173.173.259.173l.432.432c.086.086.173.173.259.173l.259.259c.173.086.259.259.432.346.086.086.173.086.173.173.086.086.259.173.346.259a1.518,1.518,0,0,1,.432.346c.086,0,.086.086.173.086a1.809,1.809,0,0,0,.519.346c.086.086.173.173.259.173a.085.085,0,0,1,.086.086c.346.173.605.432.951.605H9.51A2.04,2.04,0,0,0,10.374,28.876Z" transform="translate(0 18.794)" fill="#888"/>
        <path id="Path-5" data-name="Path" d="M57.56,34.01c-13.487,7.435-34.927,7-47.982-.951s-12.709-20.4.692-27.752c13.487-7.435,34.927-7,47.982.951S71.047,26.661,57.56,34.01Z" transform="translate(0.104 0)" fill="#a3a3a3"/>
        <path id="Shape-2" data-name="Shape" d="M27.582,31.382a44.424,44.424,0,0,1-10.667-1.275,33.644,33.644,0,0,1-9.3-3.739,18.086,18.086,0,0,1-5.777-5.274A10.152,10.152,0,0,1,0,15.181,10.222,10.222,0,0,1,2.126,9.306a18.389,18.389,0,0,1,6.09-5.07C13.1,1.5,19.579,0,26.458,0V.864h-.007c-6.832,0-13.154,1.443-17.8,4.062C3.717,7.61.954,11.233.868,15.129.781,19.047,3.329,22.762,8.044,25.59,13,28.667,20.09,30.432,27.5,30.432c6.835,0,13.16-1.443,17.809-4.063,4.931-2.682,7.694-6.3,7.781-10.2.088-3.917-2.461-7.632-7.175-10.461C40.954,2.629,33.864.864,26.458.864V0A44.985,44.985,0,0,1,37.125,1.243a32.139,32.139,0,0,1,9.3,3.771,18.089,18.089,0,0,1,5.777,5.275A10.152,10.152,0,0,1,54.038,16.2a10.222,10.222,0,0,1-2.124,5.875,18.389,18.389,0,0,1-6.09,5.07C40.941,29.878,34.463,31.382,27.582,31.382Z" transform="translate(6.999 4.01)" fill="#fff"/>
        <g id="Group_10173-2" data-name="Group 10173" transform="translate(19.917 10.946)">
          <g id="Group_10178-2" data-name="Group 10178" transform="translate(0 0)">
            <g id="Group_10174-2" data-name="Group 10174" transform="translate(7.447 12.527)">
              <path id="Path_4715-2" data-name="Path 4715" d="M14.149,0,0,2.1,21.39,4.2Z" fill="#fff"/>
            </g>
            <g id="Group_10175-2" data-name="Group 10175" transform="translate(21.596 4.353)">
              <path id="Path_4716-2" data-name="Path 4716" d="M3.678,0,0,8.174l7.241,4.2Z" fill="#fff"/>
            </g>
            <g id="Group_10176-2" data-name="Group 10176" transform="translate(0 0)">
              <path id="Path_4717-2" data-name="Path 4717" d="M23.6,3.38,0,0,19.918,11.554Z" fill="#fff"/>
            </g>
            <g id="Group_10177-2" data-name="Group 10177" transform="translate(0)">
              <path id="Path_4718-2" data-name="Path 4718" d="M0,0,5.768,13.654l14.149-2.1Z" fill="#fff"/>
            </g>
          </g>
        </g>
      </g>
    </g>
    <g id="Group-5" data-name="Group" transform="translate(371.484 220.336)">
      <g id="Group-6" data-name="Group" transform="translate(0 11.585)" opacity="0.16">
        <path id="Path-6" data-name="Path" d="M57.56,34.01c-13.487,7.435-34.927,7-47.982-.951s-12.709-20.4.692-27.752c13.487-7.435,34.927-7,47.982.951C71.393,14.212,71.047,26.661,57.56,34.01Z" transform="translate(0)" fill="rgba(0,0,0,0.2)"/>
      </g>
      <g id="Group-7" data-name="Group" transform="translate(17.619 0)">
        <path id="Path-7" data-name="Path" d="M10.374,28.876c.086,0,.086.086.173.086a.655.655,0,0,0,.346.173c.173.086.259.173.432.259.086.086.259.086.346.173.173.086.259.173.432.173.086.086.173.086.259.173.173.086.432.173.605.259.086.086.259.086.346.173a.085.085,0,0,1,.086.086c.346.173.778.346,1.124.519h0c.086,0,.086,0,.173.086.346.086.605.259.951.346.086,0,.086,0,.173.086.173.086.346.086.432.173a1.249,1.249,0,0,0,.605.173c.086,0,.173.086.346.086.173.086.346.086.519.173.173,0,.259.086.432.086.173.086.346.086.519.173s.346.086.519.173c.086,0,.173.086.259.086.259.086.432.086.692.173.173,0,.259.086.432.086h.086a7.2,7.2,0,0,1,1.3.346h.086c.346.086.778.173,1.124.259h.173c.173,0,.259.086.432.086s.432.086.605.086a.779.779,0,0,1,.432.086c.173,0,.346.086.519.086a.52.52,0,0,1,.346.086c.259,0,.519.086.692.086a.52.52,0,0,1,.346.086h.173c.432.086.865.086,1.3.173h.432c.346,0,.692.086.951.086h.173a2.394,2.394,0,0,1,.778.086,1.9,1.9,0,0,1,.692.086H31.3c.692,0,1.383.086,2.161.086H33.8c1.037,0,1.988,0,3.026-.086h.432a21.2,21.2,0,0,0,2.334-.173h.086c.519-.086,1.124-.086,1.643-.173h.086c.432-.086.778-.086,1.21-.173h.259c.432-.086.951-.173,1.383-.259h.086c.173,0,.259-.086.432-.086.259-.086.605-.086.865-.173h.173c.173,0,.346-.086.605-.086.173-.086.432-.086.692-.173a.318.318,0,0,0,.259-.086c.173-.086.432-.086.605-.173s.346-.086.519-.173c.086,0,.173-.086.259-.086.173-.086.432-.086.605-.173a.779.779,0,0,1,.432-.086c.086,0,.259-.086.346-.086a1.6,1.6,0,0,1,.605-.173c.086,0,.259-.086.346-.086.173-.086.259-.086.432-.173a1.6,1.6,0,0,1,.605-.173c.086,0,.173-.086.346-.086.173-.086.346-.086.519-.173a1.229,1.229,0,0,1,.519-.173c.086,0,.173-.086.259-.086.173-.086.432-.173.605-.259s.259-.086.432-.173a.085.085,0,0,0,.086-.086c.346-.173.778-.346,1.124-.519h.086a9.431,9.431,0,0,0,.951-.519c.086,0,.173-.086.259-.173.259-.173.519-.259.778-.432.086-.086.173-.086.259-.173s.259-.173.346-.259.173-.086.259-.173c.173-.086.259-.173.432-.259a.449.449,0,0,1,.346-.173.3.3,0,0,1,.173-.086c.259-.173.605-.432.865-.605h0c.259-.173.519-.432.778-.605l.086-.086.259-.259c.173-.086.259-.259.432-.346l.173-.173.346-.346.259-.259.259-.259a1.193,1.193,0,0,0,.259-.346l.173-.173a1.193,1.193,0,0,0,.259-.346l.346-.346c0-.086.086-.086.086-.173a1.193,1.193,0,0,0,.259-.346,1.518,1.518,0,0,1,.346-.432l.086-.086c.086-.086.086-.173.173-.259.086-.173.259-.346.346-.519,0-.086.086-.086.086-.173a.318.318,0,0,0,.086-.259c.086-.259.259-.432.346-.692a.3.3,0,0,1,.086-.173c0-.086,0-.086.086-.173a5.289,5.289,0,0,0,.432-1.037v-.086h0c0-.086.086-.173.086-.259a2.035,2.035,0,0,0,.173-.692c0-.086.086-.259.086-.346,0-.173.086-.259.086-.432V17.55a1.9,1.9,0,0,0,.086-.692.52.52,0,0,1,.086-.346c0-.346.086-.692.086-1.037L67.78,1.383a4.209,4.209,0,0,1-.086,1.037.52.52,0,0,1-.086.346c0,.259-.086.432-.086.692,0,.173-.086.346-.086.519,0,.086-.086.259-.086.346a2.035,2.035,0,0,0-.173.692c0,.086-.086.173-.086.259A.085.085,0,0,1,67,5.36c-.173.346-.259.692-.432,1.037-.086.086-.086.259-.173.346-.086.259-.259.432-.346.692-.086.086-.173.259-.259.346-.086.173-.259.346-.346.519s-.173.259-.259.432a1.518,1.518,0,0,1-.346.432,1.886,1.886,0,0,1-.346.432c-.086.086-.173.259-.346.346-.173.173-.259.346-.432.432a1.193,1.193,0,0,0-.259.346l-.519.519-.346.346a3.76,3.76,0,0,1-.605.519l-.259.259a3.839,3.839,0,0,1-.951.692h0c-.346.259-.605.432-.951.692a.449.449,0,0,1-.346.173,3.5,3.5,0,0,1-.778.432c-.086.086-.259.173-.346.259-.346.173-.692.432-1.037.605a7.9,7.9,0,0,1-1.21.605h-.086c-.432.173-.778.432-1.21.605-.173.086-.259.086-.432.173a8.97,8.97,0,0,1-.865.346,1.229,1.229,0,0,1-.519.173l-.778.259a1.6,1.6,0,0,1-.605.173l-.778.259a1.6,1.6,0,0,1-.605.173l-.778.259c-.173.086-.432.086-.605.173-.259.086-.519.173-.865.259-.173.086-.432.086-.605.173a3.072,3.072,0,0,1-.865.173,1.282,1.282,0,0,1-.605.086,4.339,4.339,0,0,1-1.037.173c-.173,0-.259.086-.432.086-.519.086-1.037.173-1.47.259h-.259c-.432.086-.865.086-1.3.173-.519.086-1.124.086-1.643.173h0c-.778.086-1.556.086-2.334.173H37c-1.037,0-1.988.086-3.026.086h-.346a18.8,18.8,0,0,1-2.161-.086,2.394,2.394,0,0,1-.778-.086,2.394,2.394,0,0,1-.778-.086c-.346,0-.778-.086-1.124-.086h-.346c-.519-.086-.951-.086-1.47-.173a.52.52,0,0,1-.346-.086c-.346-.086-.692-.086-1.037-.173-.173,0-.346-.086-.519-.086-.346-.086-.692-.086-1.037-.173-.173,0-.259-.086-.432-.086l-1.3-.259h-.086c-.519-.086-.951-.259-1.383-.346-.173,0-.259-.086-.432-.086-.346-.086-.605-.173-.951-.259-.173-.086-.346-.086-.519-.173-.259-.086-.605-.173-.865-.259-.173-.086-.346-.086-.519-.173a3.613,3.613,0,0,1-.865-.346c-.173-.086-.346-.086-.432-.173-.346-.173-.778-.259-1.124-.432-.086,0-.086,0-.173-.086l-1.3-.519c-.086-.086-.259-.086-.346-.173-.259-.173-.605-.259-.865-.432-.173-.086-.259-.173-.432-.173-.259-.173-.519-.259-.778-.432a.655.655,0,0,0-.346-.173c-.346-.173-.778-.432-1.124-.605-.346-.259-.778-.432-1.124-.692-.086-.086-.173-.173-.259-.173a4.8,4.8,0,0,1-.692-.519c-.173-.086-.259-.173-.432-.259-.173-.173-.432-.259-.605-.432-.173-.086-.259-.259-.432-.346-.173-.173-.346-.259-.519-.432l-.432-.432-.432-.432-.519-.519-.346-.346c-.173-.173-.346-.432-.519-.605-.086-.086-.173-.259-.259-.346L2.421,7.435A7.6,7.6,0,0,1,1.9,6.57h0a4.038,4.038,0,0,1-.432-.865C1.3,5.274,1.124,4.928.951,4.5c0-.086-.086-.173-.086-.259a6.368,6.368,0,0,1-.346-1.21V2.939a6.673,6.673,0,0,1-.173-1.3V1.3C.346.865.259.432.259,0h0L0,14.092a6.543,6.543,0,0,0,.086,1.3v.346c.086.432.086.865.173,1.3v.086a6.368,6.368,0,0,0,.346,1.21c0,.086.086.173.086.259.173.432.346.865.519,1.21h0a16.059,16.059,0,0,0,.951,1.643h0l.778,1.037a.085.085,0,0,0,.086.086c.086.086.173.173.173.259.173.173.346.432.519.605l.173.173.259.259.519.519c.086.086.086.173.173.173.086.086.173.173.259.173l.432.432c.086.086.173.173.259.173l.259.259c.173.086.259.259.432.346.086.086.173.086.173.173.086.086.259.173.346.259a1.518,1.518,0,0,1,.432.346c.086,0,.086.086.173.086a1.809,1.809,0,0,0,.519.346c.086.086.173.173.259.173a.085.085,0,0,1,.086.086c.346.173.605.432.951.605H9.51A2.04,2.04,0,0,0,10.374,28.876Z" transform="translate(0 18.794)" fill="#888"/>
        <path id="Path-8" data-name="Path" d="M57.56,34.01c-13.487,7.435-34.927,7-47.982-.951s-12.709-20.4.692-27.752c13.487-7.435,34.927-7,47.982.951S71.047,26.661,57.56,34.01Z" transform="translate(0.104)" fill="#a3a3a3"/>
        <path id="Shape-3" data-name="Shape" d="M27.582,31.382a44.424,44.424,0,0,1-10.667-1.275,33.644,33.644,0,0,1-9.3-3.739,18.086,18.086,0,0,1-5.777-5.274A10.152,10.152,0,0,1,0,15.181,10.222,10.222,0,0,1,2.126,9.306a18.389,18.389,0,0,1,6.09-5.07C13.1,1.5,19.579,0,26.458,0V.864h-.007c-6.832,0-13.154,1.443-17.8,4.062C3.717,7.61.954,11.233.868,15.129.781,19.047,3.329,22.762,8.044,25.59,13,28.667,20.09,30.432,27.5,30.432c6.835,0,13.16-1.443,17.809-4.063,4.931-2.682,7.694-6.3,7.781-10.2.088-3.917-2.461-7.632-7.175-10.461C40.954,2.629,33.864.864,26.458.864V0A44.985,44.985,0,0,1,37.125,1.243a32.139,32.139,0,0,1,9.3,3.771,18.089,18.089,0,0,1,5.777,5.275A10.152,10.152,0,0,1,54.038,16.2a10.222,10.222,0,0,1-2.124,5.875,18.389,18.389,0,0,1-6.09,5.07C40.941,29.878,34.463,31.382,27.582,31.382Z" transform="translate(6.999 4.01)" fill="#fff"/>
        <g id="Group_10173-3" data-name="Group 10173" transform="translate(19.971 10.946)">
          <g id="Group_10178-3" data-name="Group 10178">
            <g id="Group_10174-3" data-name="Group 10174" transform="translate(0 12.527)">
              <path id="Path_4715-3" data-name="Path 4715" d="M21.009,27.426l14.123,2.1-21.351,2.1Z" transform="translate(-13.781 -27.426)" fill="#fff"/>
            </g>
            <g id="Group_10175-3" data-name="Group 10175" transform="translate(0 4.353)">
              <path id="Path_4716-3" data-name="Path 4716" d="M17.337,22.5l3.672,8.174-7.228,4.2Z" transform="translate(-13.781 -22.505)" fill="#fff"/>
            </g>
            <g id="Group_10176-3" data-name="Group 10176" transform="translate(5.231)">
              <path id="Path_4717-3" data-name="Path 4717" d="M16.931,23.264l23.553-3.38L20.6,31.437Z" transform="translate(-16.931 -19.884)" fill="#fff"/>
            </g>
            <g id="Group_10177-3" data-name="Group 10177" transform="translate(8.903)">
              <path id="Path_4718-3" data-name="Path 4718" d="M39.022,19.884,33.264,33.537l-14.123-2.1Z" transform="translate(-19.141 -19.884)" fill="#fff"/>
            </g>
          </g>
        </g>
      </g>
    </g>
    <g id="Group-8" data-name="Group" transform="translate(393.223 205.231)">
      <g id="Group-9" data-name="Group" transform="translate(0 0)">
        <path id="Path-9" data-name="Path" d="M10.374,28.876c.086,0,.086.086.173.086a.655.655,0,0,0,.346.173c.173.086.259.173.432.259.086.086.259.086.346.173.173.086.259.173.432.173.086.086.173.086.259.173.173.086.432.173.605.259.086.086.259.086.346.173a.085.085,0,0,1,.086.086c.346.173.778.346,1.124.519h0c.086,0,.086,0,.173.086.346.086.605.259.951.346.086,0,.086,0,.173.086.173.086.346.086.432.173a1.249,1.249,0,0,0,.605.173c.086,0,.173.086.346.086.173.086.346.086.519.173.173,0,.259.086.432.086.173.086.346.086.519.173s.346.086.519.173c.086,0,.173.086.259.086.259.086.432.086.692.173.173,0,.259.086.432.086h.086a7.2,7.2,0,0,1,1.3.346h.086c.346.086.778.173,1.124.259h.173c.173,0,.259.086.432.086s.432.086.605.086a.779.779,0,0,1,.432.086c.173,0,.346.086.519.086a.52.52,0,0,1,.346.086c.259,0,.519.086.692.086a.52.52,0,0,1,.346.086h.173c.432.086.865.086,1.3.173h.432c.346,0,.692.086.951.086h.173a2.394,2.394,0,0,1,.778.086,1.9,1.9,0,0,1,.692.086H31.3c.692,0,1.383.086,2.161.086H33.8c1.037,0,1.988,0,3.026-.086h.432a21.2,21.2,0,0,0,2.334-.173h.086c.519-.086,1.124-.086,1.643-.173h.086c.432-.086.778-.086,1.21-.173h.259c.432-.086.951-.173,1.383-.259h.086c.173,0,.259-.086.432-.086.259-.086.605-.086.865-.173h.173c.173,0,.346-.086.605-.086.173-.086.432-.086.692-.173a.318.318,0,0,0,.259-.086c.173-.086.432-.086.605-.173s.346-.086.519-.173c.086,0,.173-.086.259-.086.173-.086.432-.086.605-.173a.779.779,0,0,1,.432-.086c.086,0,.259-.086.346-.086a1.6,1.6,0,0,1,.605-.173c.086,0,.259-.086.346-.086.173-.086.259-.086.432-.173a1.6,1.6,0,0,1,.605-.173c.086,0,.173-.086.346-.086.173-.086.346-.086.519-.173a1.229,1.229,0,0,1,.519-.173c.086,0,.173-.086.259-.086.173-.086.432-.173.605-.259s.259-.086.432-.173a.085.085,0,0,0,.086-.086c.346-.173.778-.346,1.124-.519h.086a9.431,9.431,0,0,0,.951-.519c.086,0,.173-.086.259-.173.259-.173.519-.259.778-.432.086-.086.173-.086.259-.173s.259-.173.346-.259.173-.086.259-.173c.173-.086.259-.173.432-.259a.449.449,0,0,1,.346-.173.3.3,0,0,1,.173-.086c.259-.173.605-.432.865-.605h0c.259-.173.519-.432.778-.605l.086-.086.259-.259c.173-.086.259-.259.432-.346l.173-.173.346-.346.259-.259.259-.259a1.193,1.193,0,0,0,.259-.346l.173-.173a1.193,1.193,0,0,0,.259-.346l.346-.346c0-.086.086-.086.086-.173a1.193,1.193,0,0,0,.259-.346,1.518,1.518,0,0,1,.346-.432l.086-.086c.086-.086.086-.173.173-.259.086-.173.259-.346.346-.519,0-.086.086-.086.086-.173a.318.318,0,0,0,.086-.259c.086-.259.259-.432.346-.692a.3.3,0,0,1,.086-.173c0-.086,0-.086.086-.173a5.289,5.289,0,0,0,.432-1.037v-.086h0c0-.086.086-.173.086-.259a2.035,2.035,0,0,0,.173-.692c0-.086.086-.259.086-.346,0-.173.086-.259.086-.432V17.55a1.9,1.9,0,0,0,.086-.692.52.52,0,0,1,.086-.346c0-.346.086-.692.086-1.037L67.78,1.383a4.209,4.209,0,0,1-.086,1.037.52.52,0,0,1-.086.346c0,.259-.086.432-.086.692,0,.173-.086.346-.086.519,0,.086-.086.259-.086.346a2.035,2.035,0,0,0-.173.692c0,.086-.086.173-.086.259A.085.085,0,0,1,67,5.36c-.173.346-.259.692-.432,1.037-.086.086-.086.259-.173.346-.086.259-.259.432-.346.692-.086.086-.173.259-.259.346-.086.173-.259.346-.346.519s-.173.259-.259.432a1.518,1.518,0,0,1-.346.432,1.886,1.886,0,0,1-.346.432c-.086.086-.173.259-.346.346-.173.173-.259.346-.432.432a1.193,1.193,0,0,0-.259.346l-.519.519-.346.346a3.76,3.76,0,0,1-.605.519l-.259.259a3.839,3.839,0,0,1-.951.692h0c-.346.259-.605.432-.951.692a.449.449,0,0,1-.346.173,3.5,3.5,0,0,1-.778.432c-.086.086-.259.173-.346.259-.346.173-.692.432-1.037.605a7.9,7.9,0,0,1-1.21.605h-.086c-.432.173-.778.432-1.21.605-.173.086-.259.086-.432.173a8.97,8.97,0,0,1-.865.346,1.229,1.229,0,0,1-.519.173l-.778.259a1.6,1.6,0,0,1-.605.173l-.778.259a1.6,1.6,0,0,1-.605.173l-.778.259c-.173.086-.432.086-.605.173-.259.086-.519.173-.865.259-.173.086-.432.086-.605.173a3.072,3.072,0,0,1-.865.173,1.282,1.282,0,0,1-.605.086,4.339,4.339,0,0,1-1.037.173c-.173,0-.259.086-.432.086-.519.086-1.037.173-1.47.259h-.259c-.432.086-.865.086-1.3.173-.519.086-1.124.086-1.643.173h0c-.778.086-1.556.086-2.334.173H37c-1.037,0-1.988.086-3.026.086h-.346a18.8,18.8,0,0,1-2.161-.086,2.394,2.394,0,0,1-.778-.086,2.394,2.394,0,0,1-.778-.086c-.346,0-.778-.086-1.124-.086h-.346c-.519-.086-.951-.086-1.47-.173a.52.52,0,0,1-.346-.086c-.346-.086-.692-.086-1.037-.173-.173,0-.346-.086-.519-.086-.346-.086-.692-.086-1.037-.173-.173,0-.259-.086-.432-.086l-1.3-.259h-.086c-.519-.086-.951-.259-1.383-.346-.173,0-.259-.086-.432-.086-.346-.086-.605-.173-.951-.259-.173-.086-.346-.086-.519-.173-.259-.086-.605-.173-.865-.259-.173-.086-.346-.086-.519-.173a3.613,3.613,0,0,1-.865-.346c-.173-.086-.346-.086-.432-.173-.346-.173-.778-.259-1.124-.432-.086,0-.086,0-.173-.086l-1.3-.519c-.086-.086-.259-.086-.346-.173-.259-.173-.605-.259-.865-.432-.173-.086-.259-.173-.432-.173-.259-.173-.519-.259-.778-.432a.655.655,0,0,0-.346-.173c-.346-.173-.778-.432-1.124-.605-.346-.259-.778-.432-1.124-.692-.086-.086-.173-.173-.259-.173a4.8,4.8,0,0,1-.692-.519c-.173-.086-.259-.173-.432-.259-.173-.173-.432-.259-.605-.432-.173-.086-.259-.259-.432-.346-.173-.173-.346-.259-.519-.432l-.432-.432-.432-.432-.519-.519-.346-.346c-.173-.173-.346-.432-.519-.605-.086-.086-.173-.259-.259-.346L2.421,7.435A7.6,7.6,0,0,1,1.9,6.57h0a4.038,4.038,0,0,1-.432-.865C1.3,5.274,1.124,4.928.951,4.5c0-.086-.086-.173-.086-.259a6.368,6.368,0,0,1-.346-1.21V2.939a6.673,6.673,0,0,1-.173-1.3V1.3C.346.865.259.432.259,0h0L0,14.092a6.543,6.543,0,0,0,.086,1.3v.346c.086.432.086.865.173,1.3v.086a6.368,6.368,0,0,0,.346,1.21c0,.086.086.173.086.259.173.432.346.865.519,1.21h0a16.059,16.059,0,0,0,.951,1.643h0l.778,1.037a.085.085,0,0,0,.086.086c.086.086.173.173.173.259.173.173.346.432.519.605l.173.173.259.259.519.519c.086.086.086.173.173.173.086.086.173.173.259.173l.432.432c.086.086.173.173.259.173l.259.259c.173.086.259.259.432.346.086.086.173.086.173.173.086.086.259.173.346.259a1.518,1.518,0,0,1,.432.346c.086,0,.086.086.173.086a1.809,1.809,0,0,0,.519.346c.086.086.173.173.259.173a.085.085,0,0,1,.086.086c.346.173.605.432.951.605H9.51A2.04,2.04,0,0,0,10.374,28.876Z" transform="translate(0 18.794)" fill="#888"/>
        <path id="Path-10" data-name="Path" d="M57.56,34.01c-13.487,7.435-34.927,7-47.982-.951s-12.709-20.4.692-27.752c13.487-7.435,34.927-7,47.982.951S71.047,26.661,57.56,34.01Z" transform="translate(0.104)" fill="#a3a3a3"/>
        <path id="Shape-4" data-name="Shape" d="M27.582,31.382a44.424,44.424,0,0,1-10.667-1.275,33.644,33.644,0,0,1-9.3-3.739,18.086,18.086,0,0,1-5.777-5.274A10.152,10.152,0,0,1,0,15.181,10.222,10.222,0,0,1,2.126,9.306a18.389,18.389,0,0,1,6.09-5.07C13.1,1.5,19.579,0,26.458,0V.864h-.007c-6.832,0-13.154,1.443-17.8,4.062C3.717,7.61.954,11.233.868,15.129.781,19.047,3.329,22.762,8.044,25.59,13,28.667,20.09,30.432,27.5,30.432c6.835,0,13.16-1.443,17.809-4.063,4.931-2.682,7.694-6.3,7.781-10.2.088-3.917-2.461-7.632-7.175-10.461C40.954,2.629,33.864.864,26.458.864V0A44.985,44.985,0,0,1,37.125,1.243a32.139,32.139,0,0,1,9.3,3.771,18.089,18.089,0,0,1,5.777,5.275A10.152,10.152,0,0,1,54.038,16.2a10.222,10.222,0,0,1-2.124,5.875,18.389,18.389,0,0,1-6.09,5.07C40.941,29.878,34.463,31.382,27.582,31.382Z" transform="translate(6.999 4.01)" fill="#fff"/>
        <g id="Group_10173-4" data-name="Group 10173" transform="translate(19.971 10.946)">
          <g id="Group_10178-4" data-name="Group 10178">
            <g id="Group_10174-4" data-name="Group 10174" transform="translate(0 12.527)">
              <path id="Path_4715-4" data-name="Path 4715" d="M21.009,27.426l14.123,2.1-21.351,2.1Z" transform="translate(-13.781 -27.426)" fill="#fff"/>
            </g>
            <g id="Group_10175-4" data-name="Group 10175" transform="translate(0 4.353)">
              <path id="Path_4716-4" data-name="Path 4716" d="M17.337,22.5l3.672,8.174-7.228,4.2Z" transform="translate(-13.781 -22.505)" fill="#fff"/>
            </g>
            <g id="Group_10176-4" data-name="Group 10176" transform="translate(5.231)">
              <path id="Path_4717-4" data-name="Path 4717" d="M16.931,23.264l23.553-3.38L20.6,31.437Z" transform="translate(-16.931 -19.884)" fill="#fff"/>
            </g>
            <g id="Group_10177-4" data-name="Group 10177" transform="translate(8.903)">
              <path id="Path_4718-4" data-name="Path 4718" d="M39.022,19.884,33.264,33.537l-14.123-2.1Z" transform="translate(-19.141 -19.884)" fill="#fff"/>
            </g>
          </g>
        </g>
      </g>
    </g>
    <g id="Group-10" data-name="Group" transform="translate(389.103 188.752)">
      <g id="Group-11" data-name="Group" transform="translate(0 0)">
        <path id="Path-11" data-name="Path" d="M10.374,28.876c.086,0,.086.086.173.086a.655.655,0,0,0,.346.173c.173.086.259.173.432.259.086.086.259.086.346.173.173.086.259.173.432.173.086.086.173.086.259.173.173.086.432.173.605.259.086.086.259.086.346.173a.085.085,0,0,1,.086.086c.346.173.778.346,1.124.519h0c.086,0,.086,0,.173.086.346.086.605.259.951.346.086,0,.086,0,.173.086.173.086.346.086.432.173a1.249,1.249,0,0,0,.605.173c.086,0,.173.086.346.086.173.086.346.086.519.173.173,0,.259.086.432.086.173.086.346.086.519.173s.346.086.519.173c.086,0,.173.086.259.086.259.086.432.086.692.173.173,0,.259.086.432.086h.086a7.2,7.2,0,0,1,1.3.346h.086c.346.086.778.173,1.124.259h.173c.173,0,.259.086.432.086s.432.086.605.086a.779.779,0,0,1,.432.086c.173,0,.346.086.519.086a.52.52,0,0,1,.346.086c.259,0,.519.086.692.086a.52.52,0,0,1,.346.086h.173c.432.086.865.086,1.3.173h.432c.346,0,.692.086.951.086h.173a2.394,2.394,0,0,1,.778.086,1.9,1.9,0,0,1,.692.086H31.3c.692,0,1.383.086,2.161.086H33.8c1.037,0,1.988,0,3.026-.086h.432a21.2,21.2,0,0,0,2.334-.173h.086c.519-.086,1.124-.086,1.643-.173h.086c.432-.086.778-.086,1.21-.173h.259c.432-.086.951-.173,1.383-.259h.086c.173,0,.259-.086.432-.086.259-.086.605-.086.865-.173h.173c.173,0,.346-.086.605-.086.173-.086.432-.086.692-.173a.318.318,0,0,0,.259-.086c.173-.086.432-.086.605-.173s.346-.086.519-.173c.086,0,.173-.086.259-.086.173-.086.432-.086.605-.173a.779.779,0,0,1,.432-.086c.086,0,.259-.086.346-.086a1.6,1.6,0,0,1,.605-.173c.086,0,.259-.086.346-.086.173-.086.259-.086.432-.173a1.6,1.6,0,0,1,.605-.173c.086,0,.173-.086.346-.086.173-.086.346-.086.519-.173a1.229,1.229,0,0,1,.519-.173c.086,0,.173-.086.259-.086.173-.086.432-.173.605-.259s.259-.086.432-.173a.085.085,0,0,0,.086-.086c.346-.173.778-.346,1.124-.519h.086a9.431,9.431,0,0,0,.951-.519c.086,0,.173-.086.259-.173.259-.173.519-.259.778-.432.086-.086.173-.086.259-.173s.259-.173.346-.259.173-.086.259-.173c.173-.086.259-.173.432-.259a.449.449,0,0,1,.346-.173.3.3,0,0,1,.173-.086c.259-.173.605-.432.865-.605h0c.259-.173.519-.432.778-.605l.086-.086.259-.259c.173-.086.259-.259.432-.346l.173-.173.346-.346.259-.259.259-.259a1.193,1.193,0,0,0,.259-.346l.173-.173a1.193,1.193,0,0,0,.259-.346l.346-.346c0-.086.086-.086.086-.173a1.193,1.193,0,0,0,.259-.346,1.518,1.518,0,0,1,.346-.432l.086-.086c.086-.086.086-.173.173-.259.086-.173.259-.346.346-.519,0-.086.086-.086.086-.173a.318.318,0,0,0,.086-.259c.086-.259.259-.432.346-.692a.3.3,0,0,1,.086-.173c0-.086,0-.086.086-.173a5.289,5.289,0,0,0,.432-1.037v-.086h0c0-.086.086-.173.086-.259a2.035,2.035,0,0,0,.173-.692c0-.086.086-.259.086-.346,0-.173.086-.259.086-.432V17.55a1.9,1.9,0,0,0,.086-.692.52.52,0,0,1,.086-.346c0-.346.086-.692.086-1.037L67.78,1.383a4.209,4.209,0,0,1-.086,1.037.52.52,0,0,1-.086.346c0,.259-.086.432-.086.692,0,.173-.086.346-.086.519,0,.086-.086.259-.086.346a2.035,2.035,0,0,0-.173.692c0,.086-.086.173-.086.259A.085.085,0,0,1,67,5.36c-.173.346-.259.692-.432,1.037-.086.086-.086.259-.173.346-.086.259-.259.432-.346.692-.086.086-.173.259-.259.346-.086.173-.259.346-.346.519s-.173.259-.259.432a1.518,1.518,0,0,1-.346.432,1.886,1.886,0,0,1-.346.432c-.086.086-.173.259-.346.346-.173.173-.259.346-.432.432a1.193,1.193,0,0,0-.259.346l-.519.519-.346.346a3.76,3.76,0,0,1-.605.519l-.259.259a3.839,3.839,0,0,1-.951.692h0c-.346.259-.605.432-.951.692a.449.449,0,0,1-.346.173,3.5,3.5,0,0,1-.778.432c-.086.086-.259.173-.346.259-.346.173-.692.432-1.037.605a7.9,7.9,0,0,1-1.21.605h-.086c-.432.173-.778.432-1.21.605-.173.086-.259.086-.432.173a8.97,8.97,0,0,1-.865.346,1.229,1.229,0,0,1-.519.173l-.778.259a1.6,1.6,0,0,1-.605.173l-.778.259a1.6,1.6,0,0,1-.605.173l-.778.259c-.173.086-.432.086-.605.173-.259.086-.519.173-.865.259-.173.086-.432.086-.605.173a3.072,3.072,0,0,1-.865.173,1.282,1.282,0,0,1-.605.086,4.339,4.339,0,0,1-1.037.173c-.173,0-.259.086-.432.086-.519.086-1.037.173-1.47.259h-.259c-.432.086-.865.086-1.3.173-.519.086-1.124.086-1.643.173h0c-.778.086-1.556.086-2.334.173H37c-1.037,0-1.988.086-3.026.086h-.346a18.8,18.8,0,0,1-2.161-.086,2.394,2.394,0,0,1-.778-.086,2.394,2.394,0,0,1-.778-.086c-.346,0-.778-.086-1.124-.086h-.346c-.519-.086-.951-.086-1.47-.173a.52.52,0,0,1-.346-.086c-.346-.086-.692-.086-1.037-.173-.173,0-.346-.086-.519-.086-.346-.086-.692-.086-1.037-.173-.173,0-.259-.086-.432-.086l-1.3-.259h-.086c-.519-.086-.951-.259-1.383-.346-.173,0-.259-.086-.432-.086-.346-.086-.605-.173-.951-.259-.173-.086-.346-.086-.519-.173-.259-.086-.605-.173-.865-.259-.173-.086-.346-.086-.519-.173a3.613,3.613,0,0,1-.865-.346c-.173-.086-.346-.086-.432-.173-.346-.173-.778-.259-1.124-.432-.086,0-.086,0-.173-.086l-1.3-.519c-.086-.086-.259-.086-.346-.173-.259-.173-.605-.259-.865-.432-.173-.086-.259-.173-.432-.173-.259-.173-.519-.259-.778-.432a.655.655,0,0,0-.346-.173c-.346-.173-.778-.432-1.124-.605-.346-.259-.778-.432-1.124-.692-.086-.086-.173-.173-.259-.173a4.8,4.8,0,0,1-.692-.519c-.173-.086-.259-.173-.432-.259-.173-.173-.432-.259-.605-.432-.173-.086-.259-.259-.432-.346-.173-.173-.346-.259-.519-.432l-.432-.432-.432-.432-.519-.519-.346-.346c-.173-.173-.346-.432-.519-.605-.086-.086-.173-.259-.259-.346L2.421,7.435A7.6,7.6,0,0,1,1.9,6.57h0a4.038,4.038,0,0,1-.432-.865C1.3,5.274,1.124,4.928.951,4.5c0-.086-.086-.173-.086-.259a6.368,6.368,0,0,1-.346-1.21V2.939a6.673,6.673,0,0,1-.173-1.3V1.3C.346.865.259.432.259,0h0L0,14.092a6.543,6.543,0,0,0,.086,1.3v.346c.086.432.086.865.173,1.3v.086a6.368,6.368,0,0,0,.346,1.21c0,.086.086.173.086.259.173.432.346.865.519,1.21h0a16.059,16.059,0,0,0,.951,1.643h0l.778,1.037a.085.085,0,0,0,.086.086c.086.086.173.173.173.259.173.173.346.432.519.605l.173.173.259.259.519.519c.086.086.086.173.173.173.086.086.173.173.259.173l.432.432c.086.086.173.173.259.173l.259.259c.173.086.259.259.432.346.086.086.173.086.173.173.086.086.259.173.346.259a1.518,1.518,0,0,1,.432.346c.086,0,.086.086.173.086a1.809,1.809,0,0,0,.519.346c.086.086.173.173.259.173a.085.085,0,0,1,.086.086c.346.173.605.432.951.605H9.51A2.04,2.04,0,0,0,10.374,28.876Z" transform="translate(0 18.794)" fill="#888"/>
        <path id="Path-12" data-name="Path" d="M57.56,34.01c-13.487,7.435-34.927,7-47.982-.951s-12.709-20.4.692-27.752c13.487-7.435,34.927-7,47.982.951S71.047,26.661,57.56,34.01Z" transform="translate(0.104)" fill="#a3a3a3"/>
        <path id="Shape-5" data-name="Shape" d="M27.582,31.382a44.424,44.424,0,0,1-10.667-1.275,33.644,33.644,0,0,1-9.3-3.739,18.086,18.086,0,0,1-5.777-5.274A10.152,10.152,0,0,1,0,15.181,10.222,10.222,0,0,1,2.126,9.306a18.389,18.389,0,0,1,6.09-5.07C13.1,1.5,19.579,0,26.458,0V.864h-.007c-6.832,0-13.154,1.443-17.8,4.062C3.717,7.61.954,11.233.868,15.129.781,19.047,3.329,22.762,8.044,25.59,13,28.667,20.09,30.432,27.5,30.432c6.835,0,13.16-1.443,17.809-4.063,4.931-2.682,7.694-6.3,7.781-10.2.088-3.917-2.461-7.632-7.175-10.461C40.954,2.629,33.864.864,26.458.864V0A44.985,44.985,0,0,1,37.125,1.243a32.139,32.139,0,0,1,9.3,3.771,18.089,18.089,0,0,1,5.777,5.275A10.152,10.152,0,0,1,54.038,16.2a10.222,10.222,0,0,1-2.124,5.875,18.389,18.389,0,0,1-6.09,5.07C40.941,29.878,34.463,31.382,27.582,31.382Z" transform="translate(6.999 4.01)" fill="#fff"/>
        <g id="Group_10173-5" data-name="Group 10173" transform="translate(19.971 10.946)">
          <g id="Group_10178-5" data-name="Group 10178">
            <g id="Group_10174-5" data-name="Group 10174" transform="translate(0 12.527)">
              <path id="Path_4715-5" data-name="Path 4715" d="M21.009,27.426l14.123,2.1-21.351,2.1Z" transform="translate(-13.781 -27.426)" fill="#fff"/>
            </g>
            <g id="Group_10175-5" data-name="Group 10175" transform="translate(0 4.353)">
              <path id="Path_4716-5" data-name="Path 4716" d="M17.337,22.5l3.672,8.174-7.228,4.2Z" transform="translate(-13.781 -22.505)" fill="#fff"/>
            </g>
            <g id="Group_10176-5" data-name="Group 10176" transform="translate(5.231)">
              <path id="Path_4717-5" data-name="Path 4717" d="M16.931,23.264l23.553-3.38L20.6,31.437Z" transform="translate(-16.931 -19.884)" fill="#fff"/>
            </g>
            <g id="Group_10177-5" data-name="Group 10177" transform="translate(8.903)">
              <path id="Path_4718-5" data-name="Path 4718" d="M39.022,19.884,33.264,33.537l-14.123-2.1Z" transform="translate(-19.141 -19.884)" fill="#fff"/>
            </g>
          </g>
        </g>
      </g>
    </g>
  </g>
</svg>
