<svg xmlns="http://www.w3.org/2000/svg" xmlns:xlink="http://www.w3.org/1999/xlink" width="245.793" height="264.32" viewBox="0 0 245.793 264.32">
  <defs>
    <linearGradient id="linear-gradient" x1="0.5" y1="1" x2="0.5" gradientUnits="objectBoundingBox">
      <stop offset="0" stop-color="#7af6e4" stop-opacity="0"/>
      <stop offset="0.888" stop-color="#3dda4a"/>
      <stop offset="1" stop-color="#3dda4a"/>
    </linearGradient>
  </defs>
  <g id="Group_10217" data-name="Group 10217" transform="translate(-524.7 -477.15)">
    <g id="Group" transform="translate(524.7 477.15)">
      <path id="Path" d="M113.449,0,85.424,135.393l88.47-2.6L151.679,0Z" transform="translate(-7.201 66.642)" fill="url(#linear-gradient)"/>
      <g id="Group-2" data-name="Group" transform="translate(0 0)">
        <g id="Group-3" data-name="Group" transform="translate(0 0)">
          <g id="Group-4" data-name="Group" transform="translate(96.856 120.809)">
            <path id="Path-2" data-name="Path" d="M37,1.708a.766.766,0,0,0,.664-.854A.766.766,0,0,0,37,0H0A.766.766,0,0,1,.664.854.766.766,0,0,1,0,1.708Z" transform="translate(0.664 0)" fill="#4d89ff"/>
            <path id="Path-3" data-name="Path" d="M1.328.854A.766.766,0,0,0,.664,0,.766.766,0,0,0,0,.854a.766.766,0,0,0,.664.854A.766.766,0,0,0,1.328.854Z" transform="translate(0 0)" fill="#4d89ff"/>
          </g>
          <g id="Group-5" data-name="Group" transform="translate(142.676 120.809)">
            <path id="Path-4" data-name="Path" d="M37.092,1.708a.766.766,0,0,0,.664-.854A.766.766,0,0,0,37.092,0H0A.766.766,0,0,1,.664.854.766.766,0,0,1,0,1.708Z" transform="translate(0.664 0)" fill="#4d89ff"/>
            <path id="Path-5" data-name="Path" d="M1.328.854A.766.766,0,0,0,.664,0,.766.766,0,0,0,0,.854a.766.766,0,0,0,.664.854A.766.766,0,0,0,1.328.854Z" transform="translate(0 0)" fill="#4d89ff"/>
          </g>
          <g id="Group-6" data-name="Group" transform="translate(3.51 65.978)">
            <path id="Path-6" data-name="Path" d="M37.092,1.708a.766.766,0,0,0,.664-.854A.766.766,0,0,0,37.092,0L0,.095A.766.766,0,0,1,.664.949.766.766,0,0,1,0,1.8Z" transform="translate(0.569 0)" fill="#7da9ff"/>
            <path id="Path-7" data-name="Path" d="M1.328.854A.766.766,0,0,0,.664,0,.766.766,0,0,0,0,.854a.766.766,0,0,0,.664.854A.766.766,0,0,0,1.328.854Z" transform="translate(0 0.095)" fill="#4d89ff"/>
          </g>
          <g id="Group-7" data-name="Group" transform="translate(65.551 28.222)">
            <path id="Path-8" data-name="Path" d="M37,1.708a.766.766,0,0,0,.664-.854A.766.766,0,0,0,37,0H0A.766.766,0,0,1,.664.854.766.766,0,0,1,0,1.708Z" transform="translate(0.664 0)" fill="#4d89ff"/>
            <path id="Path-9" data-name="Path" d="M1.328.854A.766.766,0,0,0,.664,0,.766.766,0,0,0,0,.854a.766.766,0,0,0,.664.854A.842.842,0,0,0,1.328.854Z" transform="translate(0 0)" fill="#4d89ff"/>
          </g>
          <g id="Group-8" data-name="Group" transform="translate(108.714 28.222)">
            <path id="Path-10" data-name="Path" d="M37,1.708a.766.766,0,0,0,.664-.854A.766.766,0,0,0,37,0H0A.766.766,0,0,1,.664.854.766.766,0,0,1,0,1.708Z" transform="translate(0.664 0)" fill="#4d89ff"/>
            <path id="Path-11" data-name="Path" d="M1.328.854A.766.766,0,0,0,.664,0,.766.766,0,0,0,0,.854a.766.766,0,0,0,.664.854A.842.842,0,0,0,1.328.854Z" transform="translate(0 0)" fill="#4d89ff"/>
          </g>
          <g id="Group-9" data-name="Group" transform="translate(204.243 82.769)">
            <path id="Path-12" data-name="Path" d="M37.092,1.708a.766.766,0,0,0,.664-.854A.766.766,0,0,0,37.092,0L0,.095A.766.766,0,0,1,.664.949.766.766,0,0,1,0,1.8Z" transform="translate(0.569 0)" fill="#4d89ff"/>
            <path id="Path-13" data-name="Path" d="M1.328.854A.766.766,0,0,0,.664,0,.766.766,0,0,0,0,.854a.766.766,0,0,0,.664.854A.842.842,0,0,0,1.328.854Z" transform="translate(0 0)" fill="#4d89ff"/>
          </g>
          <path id="Path-14" data-name="Path" d="M46.1.474V0L0,.19H0v5.6H0L46.1,5.6V.474Z" transform="translate(152.257 80.777)" fill="#4d89ff"/>
          <path id="Path-15" data-name="Path" d="M46.1.474V0L0,.19H0v5.6H0L46.1,5.6V4.364A26.534,26.534,0,0,0,46.1.474Z" transform="translate(48.855 63.986)" fill="#7da9ff"/>
          <g id="Group-10" data-name="Group" transform="translate(136.225 88.366)">
            <path id="Path-16" data-name="Path" d="M5.692,2.277A2.6,2.6,0,0,0,2.846,0C1.328,0,0,1.044,0,2.277L.19,31.495a2.6,2.6,0,0,1,2.846-2.277c1.518,0,2.846,1.044,2.846,2.277Z" transform="translate(0 0)" fill="#4d89ff"/>
            <path id="Path-17" data-name="Path" d="M2.846,0C1.328,0,0,1.044,0,2.277A2.6,2.6,0,0,0,2.846,4.553c1.518,0,2.846-1.044,2.846-2.277A2.6,2.6,0,0,0,2.846,0Z" transform="translate(0.19 29.218)" fill="#304ccf"/>
          </g>
          <g id="Group-11" data-name="Group" transform="translate(103.781 29.929)">
            <path id="Path-18" data-name="Path" d="M5.692,2.277A2.6,2.6,0,0,0,2.846,0C1.328,0,0,1.044,0,2.277L.19,31.495a2.6,2.6,0,0,1,2.846-2.277c1.518,0,2.846,1.044,2.846,2.277Z" transform="translate(0 0)" fill="#4d89ff"/>
            <path id="Path-19" data-name="Path" d="M2.846,0C1.328,0,0,1.044,0,2.277A2.6,2.6,0,0,0,2.846,4.553c1.518,0,2.846-1.044,2.846-2.277A2.6,2.6,0,0,0,2.846,0Z" transform="translate(0.19 29.218)" fill="#304ccf"/>
          </g>
          <g id="Group-12" data-name="Group" transform="translate(62.041)">
            <path id="Path-20" data-name="Path" d="M80.753,22.293V22.1c-.569-5.6-4.459-11-11.858-15.273-15.842-9.107-41.456-9.107-57.2,0C4.387,11.1.5,16.6.024,22.2v.474a13.044,13.044,0,0,0,.569,4.648c1.423-4.553,5.123-8.822,11.1-12.332,15.747-9.107,41.361-9.107,57.2,0,6.166,3.51,9.866,7.969,11.289,12.522a12.8,12.8,0,0,0,.664-4.174v-.569A.711.711,0,0,1,80.753,22.293Z" transform="translate(4.055 2.324)" fill="#7da9ff"/>
            <path id="Path-21" data-name="Path" d="M88.508.759v.949C87.939,7.779,83.67,13.66,75.7,18.309,58.436,28.364,30.357,28.364,13,18.309,4.838,13.566.474,7.494,0,1.328V8.253c0,6.64,4.364,13.281,13.091,18.309,17.36,10.056,45.44,10.056,62.705,0C84.334,21.629,88.6,15.083,88.7,8.538V.285A.522.522,0,0,0,88.508.759Z" transform="translate(0.19 25.566)" fill="#7da9ff"/>
            <path id="Shape" d="M44.48,51.416a73.02,73.02,0,0,1-16.695-1.885,53.921,53.921,0,0,1-14.694-5.656,30.271,30.271,0,0,1-9.379-7.921A17.244,17.244,0,0,1,.095,26.894v-.569A1.4,1.4,0,0,0,0,25.661a16.646,16.646,0,0,1,3.249-9.629A30.371,30.371,0,0,1,12.9,7.541a53.41,53.41,0,0,1,14.64-5.656,74.782,74.782,0,0,1,33.372,0A53.922,53.922,0,0,1,75.607,7.541a29.522,29.522,0,0,1,9.949,8.751,18.24,18.24,0,0,1,2.391,4.936,15.36,15.36,0,0,1,.657,5.1v.949a17.929,17.929,0,0,1-3.664,8.87A29.693,29.693,0,0,1,75.8,43.875a53.409,53.409,0,0,1-14.64,5.656A72.788,72.788,0,0,1,44.48,51.416Zm-.261-49A66.855,66.855,0,0,0,29.006,4.126,48.924,48.924,0,0,0,15.652,9.249a27.812,27.812,0,0,0-8.4,7.186,15.869,15.869,0,0,0-3.273,8.182v.475a13.032,13.032,0,0,0,.569,4.648,18.382,18.382,0,0,0,3.866,6.653,28.874,28.874,0,0,0,7.424,5.87,49.428,49.428,0,0,0,13.407,5.123,67.079,67.079,0,0,0,15.23,1.708,66.85,66.85,0,0,0,15.212-1.708,48.922,48.922,0,0,0,13.354-5.123A30.031,30.031,0,0,0,80.3,36.487a17.957,17.957,0,0,0,3.842-6.557,12.423,12.423,0,0,0,.663-4.174.717.717,0,0,0-.095-.475v-.759c-.6-5.782-4.809-11.207-11.858-15.273A49.431,49.431,0,0,0,59.449,4.126,67.085,67.085,0,0,0,44.219,2.419Z" transform="translate(0 0)" fill="#b0cbff"/>
          </g>
          <path id="Path-22" data-name="Path" d="M12.427,16.981v-.474c0-.379-.095-.759-.095-1.138v-.285c-.095-.474-.19-.949-.285-1.328,0-.095-.095-.285-.095-.379-.095-.379-.19-.664-.285-1.044-.095-.19-.095-.285-.19-.474-.095-.285-.285-.664-.379-.949-.095-.095-.095-.285-.19-.379A9.48,9.48,0,0,0,10.15,9.2l-.095-.095A14.043,14.043,0,0,1,9.3,7.874c-.095-.095-.19-.285-.285-.379-.19-.285-.474-.569-.759-.949l-.379-.379a8.944,8.944,0,0,0-.949-.949L6.64,4.933A16.96,16.96,0,0,0,5.312,3.7c-.095-.095-.285-.19-.379-.285L3.795,2.561a2.069,2.069,0,0,1-.474-.379,7.913,7.913,0,0,0-1.138-.759.947.947,0,0,1-.474-.379A16.5,16.5,0,0,0,0,0V9.107c5.976,3.51,9.866,12.617,11.479,17.17V22.862A18.581,18.581,0,0,0,12.427,16.981Z" transform="translate(76.176 44.159)" fill="#304ccf"/>
          <g id="Group-13" data-name="Group" transform="translate(0 35.669)">
            <path id="Path-23" data-name="Path" d="M80.753,22.293V22.1C80.184,16.506,76.295,11,68.9,6.83c-15.842-9.107-41.456-9.107-57.2,0C4.387,11.1.5,16.6.024,22.2v.474a12.789,12.789,0,0,0,.569,4.648c1.423-4.553,5.123-8.822,11.1-12.332,15.747-9.107,41.361-9.107,57.2,0,6.166,3.51,9.866,7.969,11.289,12.522a12.8,12.8,0,0,0,.664-4.174v-.569A.711.711,0,0,1,80.753,22.293Z" transform="translate(3.961 2.324)" fill="#7da9ff"/>
            <path id="Path-24" data-name="Path" d="M88.508.759v.949C87.939,7.779,83.67,13.66,75.7,18.309,58.436,28.364,30.357,28.364,13,18.309,4.838,13.566.474,7.494,0,1.328V8.253c0,6.64,4.364,13.281,13.091,18.309,17.36,10.056,45.44,10.056,62.705,0C84.334,21.629,88.6,15.083,88.7,8.538V.285C88.508.379,88.508.569,88.508.759Z" transform="translate(0.19 25.661)" fill="#7da9ff"/>
            <path id="Shape-2" data-name="Shape" d="M44.48,51.416a73.02,73.02,0,0,1-16.695-1.885,53.921,53.921,0,0,1-14.694-5.656,30.271,30.271,0,0,1-9.379-7.921A17.244,17.244,0,0,1,.095,26.894v-.569A1.615,1.615,0,0,0,0,25.661a16.69,16.69,0,0,1,3.214-9.629A29.92,29.92,0,0,1,12.9,7.541a53.41,53.41,0,0,1,14.64-5.656,74.782,74.782,0,0,1,33.372,0A53.922,53.922,0,0,1,75.607,7.541a29.522,29.522,0,0,1,9.949,8.751,18.24,18.24,0,0,1,2.391,4.936,15.36,15.36,0,0,1,.657,5.1v.949a17.8,17.8,0,0,1-3.664,8.835A30.629,30.629,0,0,1,75.8,43.875a53.408,53.408,0,0,1-14.64,5.656A72.788,72.788,0,0,1,44.48,51.416Zm-.261-49A66.855,66.855,0,0,0,29.006,4.126,48.924,48.924,0,0,0,15.652,9.249a27.812,27.812,0,0,0-8.4,7.186,15.869,15.869,0,0,0-3.273,8.182v.475a13.032,13.032,0,0,0,.569,4.648,18.382,18.382,0,0,0,3.866,6.653,28.874,28.874,0,0,0,7.424,5.87,49.428,49.428,0,0,0,13.407,5.123,67.079,67.079,0,0,0,15.23,1.708,66.85,66.85,0,0,0,15.212-1.708,48.922,48.922,0,0,0,13.354-5.123A30.031,30.031,0,0,0,80.3,36.487a17.957,17.957,0,0,0,3.842-6.557,12.423,12.423,0,0,0,.663-4.174.717.717,0,0,0-.095-.475v-.759c-.6-5.782-4.809-11.207-11.858-15.273A49.431,49.431,0,0,0,59.449,4.126,67.085,67.085,0,0,0,44.219,2.419Z" transform="translate(0 0)" fill="#b0cbff"/>
          </g>
          <path id="Path-25" data-name="Path" d="M16.412,8.443C11.384,13.376.569,20.586,0,20.965l7.3,4.269v4.648a98.629,98.629,0,0,0,9.107-7.4l8.822-8.538V0Z" transform="translate(150.834 50.136)" fill="#4d89ff"/>
          <g id="Group-14" data-name="Group" transform="translate(156.905 54.832)">
            <path id="Path-26" data-name="Path" d="M80.753,22.293V22.1C80.184,16.506,76.295,11,68.9,6.83c-15.842-9.107-41.456-9.107-57.2,0C4.387,11.1.5,16.6.024,22.2v.474a13.566,13.566,0,0,0,.569,4.743c1.423-4.553,5.123-8.822,11.1-12.332,15.747-9.107,41.361-9.107,57.2,0,6.166,3.51,9.866,7.969,11.289,12.522a12.8,12.8,0,0,0,.664-4.174v-.569A1.2,1.2,0,0,1,80.753,22.293Z" transform="translate(4.055 2.324)" fill="#7da9ff"/>
            <path id="Path-27" data-name="Path" d="M88.508.759v.949C87.939,7.779,83.67,13.66,75.7,18.309,58.436,28.364,30.357,28.27,13,18.309,4.838,13.566.474,7.494,0,1.328V8.253c0,6.64,4.364,13.281,13.091,18.309,17.36,10.056,45.44,10.056,62.705,0C84.334,21.629,88.6,15.083,88.7,8.538V.285A.522.522,0,0,0,88.508.759Z" transform="translate(0.19 25.566)" fill="#7da9ff"/>
            <path id="Shape-3" data-name="Shape" d="M44.48,51.416a73.02,73.02,0,0,1-16.695-1.885,53.921,53.921,0,0,1-14.694-5.656,30.271,30.271,0,0,1-9.379-7.921A17.244,17.244,0,0,1,.095,26.894v-.569A1.4,1.4,0,0,0,0,25.661a16.646,16.646,0,0,1,3.249-9.629A30.371,30.371,0,0,1,12.9,7.541a53.41,53.41,0,0,1,14.64-5.656,74.782,74.782,0,0,1,33.372,0A53.922,53.922,0,0,1,75.607,7.541a29.522,29.522,0,0,1,9.949,8.751,18.24,18.24,0,0,1,2.391,4.936,15.36,15.36,0,0,1,.657,5.1v.949a17.8,17.8,0,0,1-3.664,8.835A30.629,30.629,0,0,1,75.8,43.875a53.408,53.408,0,0,1-14.64,5.656A72.788,72.788,0,0,1,44.48,51.416ZM44.219,2.324A66.857,66.857,0,0,0,29.006,4.032,48.925,48.925,0,0,0,15.652,9.154a27.812,27.812,0,0,0-8.4,7.186,15.869,15.869,0,0,0-3.273,8.182V25a13.244,13.244,0,0,0,.569,4.743,18.382,18.382,0,0,0,3.866,6.653,28.874,28.874,0,0,0,7.424,5.87,49.428,49.428,0,0,0,13.407,5.123,67.079,67.079,0,0,0,15.23,1.708,66.85,66.85,0,0,0,15.212-1.708,48.922,48.922,0,0,0,13.354-5.123A30.031,30.031,0,0,0,80.3,36.487a17.957,17.957,0,0,0,3.842-6.557,12.423,12.423,0,0,0,.663-4.174.717.717,0,0,0-.095-.475v-.854c-.6-5.782-4.809-11.207-11.858-15.273A49.432,49.432,0,0,0,59.449,4.032,67.086,67.086,0,0,0,44.219,2.324Z" transform="translate(0 0)" fill="#b0cbff"/>
          </g>
          <path id="Path-28" data-name="Path" d="M.545.2C.545.39.45.579.45.769A1.669,1.669,0,0,0,.545.2Z" transform="translate(156.74 78.015)" fill="#304ccf"/>
          <path id="Path-29" data-name="Path" d="M.534.2V.769A.6.6,0,0,1,.534.2Z" transform="translate(156.656 79.438)" fill="#304ccf"/>
          <path id="Path-30" data-name="Path" d="M.545.25C.545.44.45.535.45.724A1.031,1.031,0,0,1,.545.25Z" transform="translate(157.119 76.447)" fill="#304ccf"/>
          <path id="Path-31" data-name="Path" d="M.095,0,0,2.751,3.6,4.838,3.7,2.087Z" transform="translate(70.105 91.876)" fill="#206dff"/>
          <path id="Path-32" data-name="Path" d="M16.886,0,0,16.222v2.751l10.34-3.036a15.85,15.85,0,0,1,12.427,1.518l5.882,3.415,9.107-8.728Z" transform="translate(73.709 77.741)" fill="#9fa1ff"/>
          <path id="Path-33" data-name="Path" d="M.095,0,0,13.945,7.4,13V4.174Z" transform="translate(122.849 87.322)" fill="#206dff"/>
          <path id="Path-34" data-name="Path" d="M.095,4.553,0,18.5l7.874-4.553L7.969,0Z" transform="translate(114.975 87.322)" fill="#4d89ff"/>
          <path id="Path-35" data-name="Path" d="M0,.612V9.434c13.66-1.8,28.649.379,39.369,6.546V7.157C28.649.991,13.66-1.191,0,.612Z" transform="translate(130.249 90.885)" fill="#304ccf"/>
          <path id="Path-36" data-name="Path" d="M0,0V2.751L3.6,4.743V2.087Z" transform="translate(94.58 106.011)" fill="#206dff"/>
          <path id="Path-37" data-name="Path" d="M0,16.222v2.656l16.791-4.933L16.886,0Z" transform="translate(98.184 91.876)" fill="#b9baff"/>
          <g id="Group-15" data-name="Group" transform="translate(94.864 90.785)">
            <path id="Path-38" data-name="Path" d="M80.753,22.293V22.1C80.184,16.506,76.295,11,68.9,6.83c-15.842-9.107-41.456-9.107-57.2,0C4.387,11.1.5,16.6.024,22.2v.474a12.789,12.789,0,0,0,.569,4.648c1.423-4.553,5.123-8.822,11.1-12.332,15.747-9.107,41.361-9.107,57.2,0,6.166,3.51,9.866,7.969,11.289,12.522a12.8,12.8,0,0,0,.664-4.174v-.569C80.753,22.767,80.753,22.483,80.753,22.293Z" transform="translate(3.961 2.324)" fill="#7da9ff"/>
            <path id="Path-39" data-name="Path" d="M88.508.759v.949C87.939,7.779,83.67,13.66,75.7,18.309,58.436,28.364,30.357,28.27,13,18.309,4.838,13.566.474,7.494,0,1.328V8.253c0,6.64,4.364,13.281,13.091,18.309,17.36,10.056,45.44,10.056,62.705,0C84.334,21.629,88.6,15.083,88.7,8.538V.285C88.508.379,88.508.569,88.508.759Z" transform="translate(0.19 25.661)" fill="#7da9ff"/>
            <path id="Shape-4" data-name="Shape" d="M44.48,51.416a73.02,73.02,0,0,1-16.695-1.885,53.921,53.921,0,0,1-14.694-5.656,30.271,30.271,0,0,1-9.379-7.921A17.244,17.244,0,0,1,.095,26.894v-.569A1.615,1.615,0,0,0,0,25.661a16.646,16.646,0,0,1,3.249-9.629A30.371,30.371,0,0,1,12.9,7.541a53.41,53.41,0,0,1,14.64-5.656,74.782,74.782,0,0,1,33.372,0A53.922,53.922,0,0,1,75.607,7.541a29.522,29.522,0,0,1,9.949,8.751,18.24,18.24,0,0,1,2.391,4.936,15.36,15.36,0,0,1,.657,5.1v.949a17.8,17.8,0,0,1-3.664,8.835A30.629,30.629,0,0,1,75.8,43.875a53.408,53.408,0,0,1-14.64,5.656A72.788,72.788,0,0,1,44.48,51.416Zm-.261-49A66.855,66.855,0,0,0,29.006,4.126,48.924,48.924,0,0,0,15.652,9.249a27.812,27.812,0,0,0-8.4,7.186,15.869,15.869,0,0,0-3.273,8.182v.475a13.032,13.032,0,0,0,.569,4.648,18.382,18.382,0,0,0,3.866,6.653,28.874,28.874,0,0,0,7.424,5.87,49.428,49.428,0,0,0,13.407,5.123,67.079,67.079,0,0,0,15.23,1.708,66.85,66.85,0,0,0,15.212-1.708,48.922,48.922,0,0,0,13.354-5.123A30.031,30.031,0,0,0,80.3,36.487a17.957,17.957,0,0,0,3.842-6.557,12.423,12.423,0,0,0,.663-4.174c0-.19,0-.285-.095-.38v-.854c-.6-5.782-4.809-11.207-11.858-15.273A49.431,49.431,0,0,0,59.449,4.126,67.085,67.085,0,0,0,44.219,2.419Z" transform="translate(0 0)" fill="#b0cbff"/>
          </g>
          <path id="Path-40" data-name="Path" d="M44.491,18.309l8.822-8.538L36.333,0l-14.8,5.123A210.291,210.291,0,0,0,0,14.7L27.985,30.926C28.554,30.451,39.369,23.242,44.491,18.309Z" transform="translate(122.754 40.27)" fill="#eef"/>
          <path id="Path-41" data-name="Path" d="M87.939,41.835a13.333,13.333,0,0,1-.949-5.692v-.569c0-.285.095-.569.095-.854,0-.19.095-.379.095-.569.095-.285.095-.664.19-.949,0-.19.095-.285.095-.474a8.349,8.349,0,0,1,.474-1.423l-7.3-4.269L52.65,10.815l-7.3-4.269C31.685,8.348,16.7,6.166,5.976,0A16.5,16.5,0,0,0,7.684,1.044a.947.947,0,0,1,.474.379A7.913,7.913,0,0,0,9.3,2.182a2.069,2.069,0,0,1,.474.379l1.138.854c.095.095.285.19.379.285a15.752,15.752,0,0,1,1.328,1.233l.285.285.949.949.379.379a8.3,8.3,0,0,1,.759.949c.095.095.19.285.285.379a5.379,5.379,0,0,1,.759,1.233l.095.095c.285.474.474.854.759,1.328.095.095.095.285.19.379a3.965,3.965,0,0,1,.379.949c.095.19.095.285.19.474.095.379.19.664.285,1.044,0,.095.095.285.095.379.095.474.19.949.285,1.328v.285a4.619,4.619,0,0,1,.095,1.138v.474a15.441,15.441,0,0,1-.949,5.787l7.3,4.269-7.3,4.269-.569.285L0,47.812,3.6,49.9,14.514,39.464a11.031,11.031,0,0,1,13.091-1.613l7.21,4.174a5.684,5.684,0,0,1,1.044,9.012l-3.7,3.51-7.779,7.4,3.6,2.087L44.871,47.812l7.874-4.553,7.3,4.269c13.66-1.8,28.649.379,39.369,6.546C93.441,50.563,89.647,46.294,87.939,41.835Z" transform="translate(70.105 44.064)" fill="#eef"/>
          <path id="Path-42" data-name="Path" d="M7.3,4.174,0,0V8.443Z" transform="translate(87.56 66.926)" fill="#4d89ff"/>
          <g id="Group-16" data-name="Group" transform="translate(112.129 96.334)">
            <g id="Group-17" data-name="Group" transform="translate(22.008 17.55)">
              <path id="Path-43" data-name="Path" d="M10.435.285V.569c0,.095,0,.095-.095.19a.093.093,0,0,1-.095.095c0,.095-.095.095-.095.19a.093.093,0,0,1-.095.095c0,.095-.095.095-.095.19l-.095.095-.19.19-.095.095c-.095.095-.19.095-.19.19a.093.093,0,0,0-.095.095.493.493,0,0,1-.379.19,8.139,8.139,0,0,1-7.4,0,.719.719,0,0,0-.379-.19L1.044,1.9l-.19-.19L.759,1.613l-.19-.19L.474,1.328c0-.095-.095-.095-.095-.19L.285,1.044C.285.949.19.949.19.854A.093.093,0,0,0,.095.759C.095.664,0,.664,0,.569V0H0V8.822A2.708,2.708,0,0,0,1.518,11a7.862,7.862,0,0,0,7.4,0,2.467,2.467,0,0,0,1.518-2.087V.285Z" transform="translate(0 2.36)" fill="#206dff"/>
              <g id="Group-18" data-name="Group" transform="translate(0 0)">
                <path id="Path-44" data-name="Path" d="M8.348.854A6.872,6.872,0,0,0,4.838,0a6.872,6.872,0,0,0-3.51.854A2.213,2.213,0,0,0,0,2.656V3.32H0V3.7a.093.093,0,0,0,.095.095v.285a.093.093,0,0,0,.095.095h0v.19l.095.095h0v.095H.379l.095.095h0l.095.095H.664c.095.095.19.095.285.19a6.872,6.872,0,0,0,3.51.854,6.872,6.872,0,0,0,3.51-.854c.095-.095.19-.095.285-.19l.095-.095.19-.19h0l.095-.095h0l.095-.095h0V4.174h0l.095-.095V3.795A.093.093,0,0,1,8.917,3.7V3.51h0V3.036h0V2.941C9.771,2.087,9.3,1.423,8.348.854Z" transform="translate(0.379 0.285)" fill="#304ccf"/>
                <path id="Shape-5" data-name="Shape" d="M5.217,6.071a7.859,7.859,0,0,1-3.7-.854.5.5,0,0,1-.38-.19l-.095-.095-.19-.19-.095-.1-.19-.19L.475,4.364a.123.123,0,0,0-.048-.095.123.123,0,0,1-.048-.095L.284,4.079a.124.124,0,0,0-.047-.095A.124.124,0,0,1,.19,3.89a.094.094,0,0,1-.095-.1C0,3.7,0,3.7,0,3.6V3.036A2.476,2.476,0,0,1,1.518.854,7.859,7.859,0,0,1,5.217,0a9.063,9.063,0,0,1,1.52.127C6.5.106,6.24.095,5.976.095a6.834,6.834,0,0,0-3.51.854,2.211,2.211,0,0,0-1.328,1.8V3.794a.094.094,0,0,1,.095.1v.284l.1.095v.19l.095.095v.095h.095l.095.1.095.095H1.8a.5.5,0,0,0,.142.095.5.5,0,0,1,.142.095A6.84,6.84,0,0,0,5.6,5.882a6.834,6.834,0,0,0,3.51-.854.5.5,0,0,1,.142-.095.5.5,0,0,0,.142-.095l.095-.095.19-.19.095-.095.1-.095V4.269l.095-.095V3.89a.094.094,0,0,0,.095-.1V3.131a2.86,2.86,0,0,0-.3-1.418c-.05-.126-.1-.255-.148-.386a2.193,2.193,0,0,1,.832,1.9V3.6a.124.124,0,0,1-.047.095.124.124,0,0,0-.047.095.094.094,0,0,0-.095.1.124.124,0,0,1-.047.095.124.124,0,0,0-.047.095.094.094,0,0,0-.095.095c0,.095,0,.095-.095.19l-.095.095-.19.19-.095.1c0,.059-.036.081-.086.112a.526.526,0,0,0-.1.078.093.093,0,0,1-.095.095.719.719,0,0,0-.38.19A7.859,7.859,0,0,1,5.217,6.071ZM9.6,1.327l0,0A3.8,3.8,0,0,0,8.917.854,6.994,6.994,0,0,0,6.738.127,6.445,6.445,0,0,1,9.486.949c.028.114.066.237.115.375Z" transform="translate(0)" fill="#4878ff"/>
              </g>
            </g>
            <g id="Group-19" data-name="Group" transform="translate(0 0)">
              <path id="Path-45" data-name="Path" d="M9.3,7.115,0,.664V0L9.3,6.451Z" transform="translate(0 0.285)" fill="#4d89ff"/>
              <g id="Group-20" data-name="Group">
                <path id="Path-46" data-name="Path" d="M15.937,8.253v.664A76.178,76.178,0,0,1,0,.664V0A76.178,76.178,0,0,0,15.937,8.253Z" transform="translate(9.297 6.83)" fill="#4d89ff"/>
                <path id="Path-47" data-name="Path" d="M25.234,15.083A76.178,76.178,0,0,1,9.3,6.83L0,.379.664,0l11.1,5.407a60.519,60.519,0,0,1,14.23,9.3l.379.285-.664.379Z" fill="#206dff"/>
                <g id="Group-21" data-name="Group" transform="translate(24.57 12.475)">
                  <g id="Group-22" data-name="Group" transform="translate(0 0)">
                    <path id="Path-48" data-name="Path" d="M.19.285h0V.759A.093.093,0,0,0,.285.854V.949l.095.095h0l.095.095h0c.095,0,.095.095.19.095a3.629,3.629,0,0,0,3.415,0c.095,0,.095-.095.19-.095h.095l.095-.095h.095L4.648.949V.854A.093.093,0,0,1,4.743.759V0h0V6.975a.988.988,0,0,1-.664.949,3.629,3.629,0,0,1-3.415,0A1.192,1.192,0,0,1,0,6.975V0C.19.19.19.19.19.285Z" transform="translate(0 1.281)" fill="#206dff"/>
                    <path id="Path-49" data-name="Path" d="M4.553,1.565h0v.569l-.095.095v.095l-.095.095H4.269l-.095.095H4.079c-.095,0-.095.095-.19.095a3.629,3.629,0,0,1-3.415,0c-.095,0-.095-.095-.19-.095h0L.19,2.419h0L.095,2.324V2.229L0,2.134V1.47A1.2,1.2,0,0,1,.664.427a3.629,3.629,0,0,1,3.415,0,1.571,1.571,0,0,1,.474,1.138Z" transform="translate(0.379)" fill="#4878ff"/>
                  </g>
                  <path id="Path-50" data-name="Path" d="M4.079,1.4h0v.095h0v.285h0l-.095.095h0a.093.093,0,0,1-.095.095h0a.093.093,0,0,0-.095.095H3.7a.331.331,0,0,1-.19.095,3.416,3.416,0,0,1-3.036,0c-.095,0-.095-.095-.19-.095h0A.093.093,0,0,1,.19,1.968h0a.093.093,0,0,1-.095-.095h0L0,1.779H0V1.21A.966.966,0,0,1,.664.356,3.416,3.416,0,0,1,3.7.356c.095.474.379.759.379,1.044Z" transform="translate(0.664 0.071)" fill="#304ccf"/>
                </g>
                <g id="Group-23" data-name="Group" transform="translate(25.424 14.754)">
                  <path id="Path-51" data-name="Path" d="M4.459,4.648v.569L0,.664V0Z" transform="translate(0.19 2.321)" fill="#4d89ff"/>
                  <path id="Path-52" data-name="Path" d="M3.51,2.087v.664A15.609,15.609,0,0,1,0,.664V0A13.74,13.74,0,0,0,3.51,2.087Z" transform="translate(4.648 6.97)" fill="#4d89ff"/>
                  <path id="Path-53" data-name="Path" d="M18.4,7.874v.664L0,.569V0Z" transform="translate(8.158 9.057)" fill="#4d89ff"/>
                  <path id="Path-54" data-name="Path" d="M2.466,0V.664L0,2.087V1.423Z" transform="translate(26.562 15.507)" fill="#4d89ff"/>
                  <path id="Path-55" data-name="Path" d="M3.415,2.15a1.071,1.071,0,0,0,.434-.925V-.032l7.914,2.751a14.323,14.323,0,0,1,3.6,1.992l13.566,10.72-2.466,1.423L7.969,8.98a15.609,15.609,0,0,1-3.51-2.087L0,2.339H0A4.248,4.248,0,0,0,3.415,2.15Z" transform="translate(0 0.077)" fill="#206dff"/>
                </g>
              </g>
            </g>
          </g>
          <g id="Group-24" data-name="Group" transform="translate(138.312 124.889)">
            <path id="Path-56" data-name="Path" d="M1.708.664A.766.766,0,0,0,.854,0,.766.766,0,0,0,0,.664V15.653a.766.766,0,0,1,.854-.664.766.766,0,0,1,.854.664Z" transform="translate(0 0)" fill="#4d89ff"/>
            <path id="Path-57" data-name="Path" d="M.854,0A.766.766,0,0,0,0,.664a.766.766,0,0,0,.854.664A.766.766,0,0,0,1.708.664.842.842,0,0,0,.854,0Z" transform="translate(0.095 14.989)" fill="#4d89ff"/>
          </g>
          <g id="Group-25" data-name="Group" transform="translate(43.827 42.641)">
            <path id="Path-58" data-name="Path" d="M1.708.664A.766.766,0,0,0,.854,0,.766.766,0,0,0,0,.664L.095,15.653a.766.766,0,0,1,.854-.664.766.766,0,0,1,.854.664Z" transform="translate(0 0)" fill="#7da9ff"/>
            <path id="Path-59" data-name="Path" d="M.854,0A.766.766,0,0,0,0,.664a.766.766,0,0,0,.854.664A.766.766,0,0,0,1.708.664.766.766,0,0,0,.854,0Z" transform="translate(0 14.989)" fill="#4d89ff"/>
          </g>
          <g id="Group-26" data-name="Group" transform="translate(200.733 60.571)">
            <path id="Path-60" data-name="Path" d="M1.708.664A.766.766,0,0,0,.854,0,.766.766,0,0,0,0,.664L.095,18.688a.766.766,0,0,1,.854-.664.766.766,0,0,1,.854.664Z" transform="translate(0)" fill="#4d89ff"/>
            <path id="Path-61" data-name="Path" d="M.854,0A.766.766,0,0,0,0,.664a.766.766,0,0,0,.854.664A.766.766,0,0,0,1.708.664.766.766,0,0,0,.854,0Z" transform="translate(0.095 18.024)" fill="#4d89ff"/>
          </g>
          <g id="Group-27" data-name="Group" transform="translate(174.36 57.725)">
            <g id="Group-28" data-name="Group" transform="translate(22.008 17.55)">
              <g id="Group-29" data-name="Group" transform="translate(0.095 0)">
                <path id="Path-62" data-name="Path" d="M8.348.932A6.417,6.417,0,0,0,4.838,0a6.417,6.417,0,0,0-3.51.932A2.418,2.418,0,0,0,0,2.9v.932H0v.1H0s0,.1.095.1v.311s0,.1.095.1h0v.207l.095.1h0l.095.1v.1l.095.1h.19c.095.1.19.1.379.207a6.417,6.417,0,0,0,3.51.932,6.417,6.417,0,0,0,3.51-.932c.095-.1.19-.1.285-.207l.095-.1c.095-.1.19-.1.19-.207h0l.095-.1h0l.095-.1h0v-.1h0l.095-.1V4.144h0s0-.1.095-.1V3.419h0V3.108C9.771,2.279,9.3,1.554,8.348.932Z" transform="translate(0.285 0.285)" fill="#304ccf"/>
                <path id="Shape-6" data-name="Shape" d="M5.217,5.976a7.859,7.859,0,0,1-3.7-.854.5.5,0,0,1-.38-.19l-.095-.095-.19-.19L.759,4.553l-.19-.19L.475,4.269a.123.123,0,0,0-.048-.095.123.123,0,0,1-.048-.095L.284,3.985A.124.124,0,0,0,.237,3.89a.125.125,0,0,1-.048-.1A.093.093,0,0,1,.095,3.7C0,3.6,0,3.6,0,3.51V2.94A2.483,2.483,0,0,1,1.518.854,7.859,7.859,0,0,1,5.217,0,9.018,9.018,0,0,1,6.856.148,8.8,8.8,0,0,0,5.882.095a6.834,6.834,0,0,0-3.51.854,2.211,2.211,0,0,0-1.328,1.8V3.7a.093.093,0,0,1,.095.095v.285l.095.095v.19l.1.095.095.095v.095l.095.1h.19a1.853,1.853,0,0,0,.181.078.5.5,0,0,1,.2.112A6.847,6.847,0,0,0,5.6,5.787a6.841,6.841,0,0,0,3.51-.854c.095,0,.191-.1.284-.19l.095-.1.19-.19.095-.095.1-.095V4.174l.095-.095V3.89a.094.094,0,0,0,.095-.1V3.131A3.49,3.49,0,0,0,9.7,1.8c-.077-.186-.157-.378-.222-.573a2.455,2.455,0,0,1,.962,1.905V3.51a.124.124,0,0,1-.047.095.124.124,0,0,0-.047.095.094.094,0,0,0-.095.095.125.125,0,0,1-.048.1.124.124,0,0,0-.047.095l-.095.095c0,.095,0,.095-.095.19l-.095.095-.19.19-.095.095c0,.059-.036.082-.087.113a.527.527,0,0,0-.1.077.093.093,0,0,1-.095.095.719.719,0,0,0-.38.19A7.859,7.859,0,0,1,5.217,5.976ZM9.473,1.225l0,0a3.613,3.613,0,0,0-.554-.37A6.929,6.929,0,0,0,6.856.148a6.331,6.331,0,0,1,2.535.8c.022.087.048.176.081.274Z" transform="translate(0 0)" fill="#4878ff"/>
              </g>
              <path id="Path-63" data-name="Path" d="M10.435.29V.58c0,.1,0,.1-.095.193,0,.1,0,.1-.095.1,0,.1-.095.1-.095.193a.094.094,0,0,1-.095.1c0,.1-.095.1-.095.193a.094.094,0,0,1-.095.1l-.19.193-.095.1c-.095.1-.19.1-.19.193a.093.093,0,0,0-.095.1.49.49,0,0,1-.379.193,8.01,8.01,0,0,1-7.4,0,.714.714,0,0,0-.379-.193l-.095-.1-.19-.193-.095-.1c-.095,0-.095-.1-.19-.193l-.095-.1c0-.1-.095-.1-.095-.193a.094.094,0,0,0-.095-.1A.339.339,0,0,1,.19.869a.094.094,0,0,0-.095-.1c0-.1,0-.1-.095-.193V0H0V8.984a2.76,2.76,0,0,0,1.518,2.222,8.307,8.307,0,0,0,7.4,0A2.511,2.511,0,0,0,10.435,9.08V.29C10.53.193,10.53.29,10.435.29Z" transform="translate(0 2.724)" fill="#206dff"/>
            </g>
            <g id="Group-30" data-name="Group" transform="translate(0)">
              <path id="Path-64" data-name="Path" d="M9.2,7.115,0,.664V0L9.2,6.451Z" transform="translate(0.095 0.285)" fill="#4d89ff"/>
              <g id="Group-31" data-name="Group">
                <path id="Path-65" data-name="Path" d="M15.937,8.253v.664A76.178,76.178,0,0,1,0,.664V0A78.608,78.608,0,0,0,15.937,8.253Z" transform="translate(9.297 6.83)" fill="#4d89ff"/>
                <path id="Path-66" data-name="Path" d="M25.234,15.083A76.178,76.178,0,0,1,9.3,6.83L0,.379.664,0l11.1,5.407a60.519,60.519,0,0,1,14.23,9.3l.379.285-.664.379Z" fill="#206dff"/>
                <g id="Group-32" data-name="Group" transform="translate(24.665 12.664)">
                  <g id="Group-33" data-name="Group" transform="translate(0 0)">
                    <path id="Path-67" data-name="Path" d="M.19.474h0V.949a.093.093,0,0,0,.095.095v.095l.095.095h0l.095.095h0c.095,0,.095.095.19.095a3.629,3.629,0,0,0,3.415,0c.095,0,.095-.095.19-.095l.095-.095a.093.093,0,0,0,.095-.095l.095-.095L4.648.949V.854A.093.093,0,0,1,4.743.759V0h0V7.556a.988.988,0,0,1-.664.949,3.629,3.629,0,0,1-3.415,0A1.192,1.192,0,0,1,0,7.556V0C.095.379.095.379.19.474Z" transform="translate(0 0.901)" fill="#206dff"/>
                    <path id="Path-68" data-name="Path" d="M4.553,1.376h0v.569a.093.093,0,0,1-.095.095v.095a.093.093,0,0,0-.095.095l-.095.095a.093.093,0,0,0-.095.095l-.095.095c-.095,0-.095.095-.19.095a3.629,3.629,0,0,1-3.415,0c-.095,0-.095-.095-.19-.095h0L.19,2.419h0L.095,2.324V2.229L0,2.134V1.47A1.2,1.2,0,0,1,.664.427a3.629,3.629,0,0,1,3.415,0,.947.947,0,0,1,.474.949Z" transform="translate(0.379)" fill="#4878ff"/>
                  </g>
                  <path id="Path-69" data-name="Path" d="M3.984,1.3h0V1.4h0v.379l-.095.095v.095l-.095.095h0a.093.093,0,0,0-.095.095h0c-.095,0-.095.095-.19.095a3.416,3.416,0,0,1-3.036,0c-.095,0-.095-.095-.19-.095h0L.19,2.063h0a.093.093,0,0,1-.095-.095h0L0,1.874V1.21A.966.966,0,0,1,.664.356,3.416,3.416,0,0,1,3.7.356a2.784,2.784,0,0,1,.285.949Z" transform="translate(0.664 0.071)" fill="#304ccf"/>
                </g>
                <g id="Group-34" data-name="Group" transform="translate(25.424 14.78)">
                  <path id="Path-70" data-name="Path" d="M4.553,4.553v.664L0,.664V0Z" transform="translate(0.19 2.295)" fill="#4d89ff"/>
                  <path id="Path-71" data-name="Path" d="M3.51,2.087v.664A15.609,15.609,0,0,1,0,.664V0A15.609,15.609,0,0,0,3.51,2.087Z" transform="translate(4.648 6.943)" fill="#4d89ff"/>
                  <path id="Path-72" data-name="Path" d="M18.5,7.874l-.164.59L0,.569V0Z" transform="translate(8.158 9.031)" fill="#4d89ff"/>
                  <path id="Path-73" data-name="Path" d="M2.1-.022V.67L-.319,2.025V1.407Z" transform="translate(26.791 15.491)" fill="#4d89ff"/>
                  <path id="Path-74" data-name="Path" d="M3.415,2.169a.951.951,0,0,0,.506-.926V.059l7.842,2.679a14.323,14.323,0,0,1,3.6,1.992L28.934,15.45l-2.466,1.423L7.969,9a15.609,15.609,0,0,1-3.51-2.087L0,2.358H0A4.221,4.221,0,0,0,3.415,2.169Z" transform="translate(0 0.032)" fill="#206dff"/>
                </g>
              </g>
            </g>
          </g>
          <g id="Group-35" data-name="Group" transform="translate(200.733 86.089)">
            <path id="Path-75" data-name="Path" d="M1.708.664A.766.766,0,0,0,.854,0,.766.766,0,0,0,0,.664L.095,18.688a.766.766,0,0,1,.854-.664.766.766,0,0,1,.854.664Z" transform="translate(0 0)" fill="#4d89ff"/>
            <path id="Path-76" data-name="Path" d="M.854,0A.766.766,0,0,0,0,.664a.766.766,0,0,0,.854.664A.766.766,0,0,0,1.708.664.766.766,0,0,0,.854,0Z" transform="translate(0.095 18.024)" fill="#4d89ff"/>
          </g>
          <g id="Group-36" data-name="Group" transform="translate(17.455 40.554)">
            <g id="Group-37" data-name="Group" transform="translate(22.008 17.55)">
              <path id="Path-77" data-name="Path" d="M10.435.285V.569c0,.095,0,.095-.095.19a.093.093,0,0,1-.095.095c0,.095-.095.095-.095.19a.093.093,0,0,1-.095.095c0,.095-.095.095-.095.19l-.095.095-.19.19-.095.095c-.095.095-.19.095-.19.19a.093.093,0,0,0-.095.095.493.493,0,0,1-.379.19,8.139,8.139,0,0,1-7.4,0,.719.719,0,0,0-.379-.19L1.044,1.9l-.19-.19L.759,1.613l-.19-.19L.474,1.328a.331.331,0,0,1-.095-.19L.285,1.044C.285.949.19.949.19.854A.093.093,0,0,0,.095.759C.095.664,0,.664,0,.569V0H0V8.822A2.708,2.708,0,0,0,1.518,11a8.139,8.139,0,0,0,7.4,0,2.467,2.467,0,0,0,1.518-2.087V.285Z" transform="translate(0 2.455)" fill="#206dff"/>
              <g id="Group-38" data-name="Group" transform="translate(0 0)">
                <path id="Path-78" data-name="Path" d="M8.348.854A6.872,6.872,0,0,0,4.838,0a6.872,6.872,0,0,0-3.51.854A2.213,2.213,0,0,0,0,2.656V3.7H0a.093.093,0,0,0,.095.095v.285l.095.095v.19h0l.095.095h0l.095.095h0l.095.095h.19a.493.493,0,0,0,.379.19,6.872,6.872,0,0,0,3.51.854,6.872,6.872,0,0,0,3.51-.854c.095-.095.19-.095.285-.19l.095-.095c.095-.095.19-.095.19-.19h.095l.095-.095h0V4.174h0l.095-.095h0v-.19a.093.093,0,0,1,.095-.095V3.415h0V2.941C9.771,2.087,9.3,1.328,8.348.854Z" transform="translate(0.379 0.379)" fill="#304ccf"/>
                <path id="Shape-7" data-name="Shape" d="M5.217,5.976a7.859,7.859,0,0,1-3.7-.854.5.5,0,0,1-.38-.19l-.095-.095-.19-.19L.759,4.553a.526.526,0,0,0-.1-.078c-.05-.031-.086-.053-.086-.112L.475,4.269a.123.123,0,0,0-.048-.095.123.123,0,0,1-.048-.095L.284,3.985A.124.124,0,0,0,.237,3.89a.125.125,0,0,1-.048-.1c-.095,0-.095,0-.095-.095C0,3.6,0,3.6,0,3.51V2.94A2.483,2.483,0,0,1,1.518.854,7.859,7.859,0,0,1,5.217,0,9.018,9.018,0,0,1,6.856.148,8.8,8.8,0,0,0,5.882.095a6.834,6.834,0,0,0-3.51.854,2.211,2.211,0,0,0-1.328,1.8V3.794a.094.094,0,0,1,.095.1v.284l.095.095v.19l.1.095.095.095.095.1h.19a1.853,1.853,0,0,0,.181.078.5.5,0,0,1,.2.112A6.847,6.847,0,0,0,5.6,5.787a6.841,6.841,0,0,0,3.51-.854c.095,0,.191-.1.284-.19l.095-.1.19-.19h.093c-.022.024-.045.047-.089.09l0,0-.095.095c0,.059-.036.082-.087.113a.527.527,0,0,0-.1.077L9.3,4.933a.719.719,0,0,0-.38.19A7.859,7.859,0,0,1,5.217,5.976ZM9.866,4.364V4.269l.095-.095v-.19a.094.094,0,0,0,.095-.095V3.226a3.4,3.4,0,0,0-.427-1.706c-.036-.082-.071-.163-.106-.245a2.129,2.129,0,0,1,.912,1.856V3.51c-.095.095-.095.095-.095.19a.094.094,0,0,0-.095.095.125.125,0,0,1-.048.1.124.124,0,0,0-.047.095.094.094,0,0,0-.095.095c0,.095,0,.095-.095.19l-.093.093ZM9.52,1.272a4.475,4.475,0,0,0-.6-.418A6.929,6.929,0,0,0,6.856.148a6.331,6.331,0,0,1,2.535.8c.035.094.076.2.13.322Z" transform="translate(0)" fill="#4878ff"/>
              </g>
            </g>
            <g id="Group-39" data-name="Group" transform="translate(0 0)">
              <path id="Path-79" data-name="Path" d="M9.3,7.115,0,.569V0L9.3,6.451Z" transform="translate(0 0.379)" fill="#4d89ff"/>
              <g id="Group-40" data-name="Group">
                <path id="Path-80" data-name="Path" d="M15.937,8.253v.664A76.178,76.178,0,0,1,0,.664V0A71.931,71.931,0,0,0,15.937,8.253Z" transform="translate(9.297 6.83)" fill="#4d89ff"/>
                <path id="Path-81" data-name="Path" d="M25.234,15.083A76.178,76.178,0,0,1,9.3,6.83L0,.379.664,0l11.1,5.407a60.519,60.519,0,0,1,14.23,9.3l.379.379-.664.379Z" fill="#206dff"/>
                <g id="Group-41" data-name="Group" transform="translate(24.57 12.57)">
                  <g id="Group-42" data-name="Group" transform="translate(0 0)">
                    <path id="Path-82" data-name="Path" d="M.19.379h0V.854A.093.093,0,0,0,.285.949v.095a.093.093,0,0,1,.095.095h0l.095.095h0c.095,0,.095.095.19.095a3.629,3.629,0,0,0,3.415,0c.095,0,.095-.095.19-.095h.095a.093.093,0,0,0,.095-.095l.095-.095A.093.093,0,0,0,4.648.949V.854L4.743.759V0h0V6.975a.988.988,0,0,1-.664.949,3.629,3.629,0,0,1-3.415,0A1.192,1.192,0,0,1,0,6.975V0C.19.285.19.285.19.379Z" transform="translate(0 1.186)" fill="#206dff"/>
                    <path id="Path-83" data-name="Path" d="M4.553,1.47h0V2.04a.093.093,0,0,1-.095.095v.095l-.095.095-.095.095-.095.095H4.079c-.095,0-.095.095-.19.095a3.629,3.629,0,0,1-3.415,0c-.095,0-.095-.095-.19-.095h0L.19,2.419h0L.095,2.324V2.229A.093.093,0,0,0,0,2.134V1.47A1.2,1.2,0,0,1,.664.427a3.5,3.5,0,0,1,3.35,0A1.41,1.41,0,0,1,4.553,1.47Z" transform="translate(0.474)" fill="#4878ff"/>
                  </g>
                  <path id="Path-84" data-name="Path" d="M4.079,1.115h0v.569l-.095.095v.095l-.095.095h0a.093.093,0,0,0-.095.095H3.7a.331.331,0,0,1-.19.095,3.416,3.416,0,0,1-3.036,0c-.095,0-.095-.095-.19-.095h0A.093.093,0,0,1,.19,1.968h0L.095,1.874h0L0,1.779H0V1.21A.966.966,0,0,1,.664.356,3.416,3.416,0,0,1,3.7.356a.848.848,0,0,1,.379.759Z" transform="translate(0.664 0.356)" fill="#304ccf"/>
                </g>
                <g id="Group-43" data-name="Group" transform="translate(25.518 14.837)">
                  <path id="Path-85" data-name="Path" d="M4.459,4.553v.664L0,.569V0Z" transform="translate(0.095 2.333)" fill="#4d89ff"/>
                  <path id="Path-86" data-name="Path" d="M3.51,2.087v.664A15.609,15.609,0,0,1,0,.664V0A11.478,11.478,0,0,0,3.51,2.087Z" transform="translate(4.553 6.887)" fill="#4d89ff"/>
                  <path id="Path-87" data-name="Path" d="M18.4,7.969v.569L0,.664V0Z" transform="translate(8.063 8.974)" fill="#4d89ff"/>
                  <path id="Path-88" data-name="Path" d="M2.466,0V.569L0,1.992V1.423Z" transform="translate(26.467 15.52)" fill="#8487ff"/>
                  <path id="Path-89" data-name="Path" d="M3.32,2.141c.474-.285.392-.664.392-.948L3.65-.1h.062L11.668,2.71a17,17,0,0,1,3.7,1.992l13.566,10.72-2.466,1.423L7.969,8.971a15.609,15.609,0,0,1-3.51-2.087L0,2.331H0A4.936,4.936,0,0,0,3.32,2.141Z" transform="translate(0 0.098)" fill="#206dff"/>
                </g>
              </g>
            </g>
          </g>
          <g id="Group-44" data-name="Group" transform="translate(43.827 69.962)">
            <path id="Path-90" data-name="Path" d="M1.708.664A.766.766,0,0,0,.854,0,.766.766,0,0,0,0,.664L.095,15.653a.766.766,0,0,1,.854-.664.766.766,0,0,1,.854.664Z" transform="translate(0 0)" fill="#7da9ff"/>
            <path id="Path-91" data-name="Path" d="M.854,0A.766.766,0,0,0,0,.664a.766.766,0,0,0,.854.664A.766.766,0,0,0,1.708.664.842.842,0,0,0,.854,0Z" transform="translate(0 14.989)" fill="#4d89ff"/>
          </g>
          <g id="Group-45" data-name="Group" transform="translate(105.963 6.403)">
            <path id="Path-92" data-name="Path" d="M1.708.664A.766.766,0,0,0,.854,0,.766.766,0,0,0,0,.664V15.653a.766.766,0,0,1,.854-.664.766.766,0,0,1,.854.664Z" transform="translate(0 0)" fill="#4d89ff"/>
            <path id="Path-93" data-name="Path" d="M.854,0A.766.766,0,0,0,0,.664a.766.766,0,0,0,.854.664A.766.766,0,0,0,1.708.664.766.766,0,0,0,.854,0Z" transform="translate(0.095 14.989)" fill="#4d89ff"/>
          </g>
          <g id="Group-46" data-name="Group" transform="translate(79.496 3.273)">
            <g id="Group-47" data-name="Group" transform="translate(22.103 17.55)">
              <path id="Path-94" data-name="Path" d="M10.435.285V.569c0,.095,0,.095-.095.19a.093.093,0,0,1-.095.095c0,.095-.095.095-.095.19a.093.093,0,0,1-.095.095c0,.095-.095.095-.095.19l-.095.095-.19.19-.095.095c-.095.095-.19.095-.19.19a.093.093,0,0,0-.095.095.493.493,0,0,1-.379.19,8.442,8.442,0,0,1-7.4,0,.719.719,0,0,0-.379-.19L1.044,1.9c-.095,0-.095-.095-.19-.19L.759,1.613l-.19-.19L.474,1.328c0-.095-.095-.095-.095-.19L.285,1.044C.285.949.19.949.19.854A.093.093,0,0,0,.095.759c0-.095,0-.095-.095-.19V0H0V8.822A2.708,2.708,0,0,0,1.518,11a8.442,8.442,0,0,0,7.4,0,2.467,2.467,0,0,0,1.518-2.087V.285Z" transform="translate(0 2.36)" fill="#206dff"/>
              <g id="Group-48" data-name="Group" transform="translate(0 0)">
                <path id="Path-95" data-name="Path" d="M8.348.854A6.872,6.872,0,0,0,4.838,0a6.872,6.872,0,0,0-3.51.854A2.213,2.213,0,0,0,0,2.656v.095H0v.095H0V3.6A.093.093,0,0,0,.095,3.7v.285a.093.093,0,0,0,.095.095h0v.19l.095.095h0l.095.095h0l.095.095h.19c.095.095.19.19.285.19a6.872,6.872,0,0,0,3.51.854,6.872,6.872,0,0,0,3.51-.854c.095-.095.19-.095.285-.19l.095-.095c.095-.095.19-.095.19-.19h.095l.095-.095h0V4.079h0l.095-.095h0V3.889h0a.093.093,0,0,1,.095-.095h0V2.941C9.676,2.087,9.2,1.423,8.348.854Z" transform="translate(0.379 0.285)" fill="#304ccf"/>
                <path id="Shape-8" data-name="Shape" d="M5.217,5.976a7.859,7.859,0,0,1-3.7-.854.5.5,0,0,1-.38-.19l-.095-.095-.19-.19L.759,4.553l-.19-.19L.475,4.269a.332.332,0,0,0-.1-.19.093.093,0,0,1-.095-.095A.124.124,0,0,0,.237,3.89a.125.125,0,0,1-.048-.1A.093.093,0,0,1,.095,3.7C0,3.6,0,3.6,0,3.51V2.94A2.483,2.483,0,0,1,1.518.854,7.859,7.859,0,0,1,5.217,0c.126,0,.254,0,.381.008A6.644,6.644,0,0,0,2.467.854a2.211,2.211,0,0,0-1.328,1.8V3.6a.093.093,0,0,1,.095.095v.285a.094.094,0,0,1,.1.095v.19l.095.095.095.095a.114.114,0,0,0,.026.068.089.089,0,0,0,.069.027H1.8a.5.5,0,0,0,.142.095.5.5,0,0,1,.143.1A6.847,6.847,0,0,0,5.6,5.6a6.841,6.841,0,0,0,3.51-.854.5.5,0,0,1,.143-.1.5.5,0,0,0,.142-.095l.095-.095.19-.19h.095l.1-.095V4.079l.095-.095V3.89a.094.094,0,0,0,.095-.1V3.131a3.5,3.5,0,0,0-.274-1.174c-.074-.208-.151-.423-.209-.647a2.4,2.4,0,0,1,.862,1.821V3.51c-.095.095-.095.095-.095.19a.094.094,0,0,0-.095.095.125.125,0,0,1-.048.1.124.124,0,0,0-.047.095l-.095.095a.124.124,0,0,1-.047.095.124.124,0,0,0-.047.095l-.095.095-.19.19-.095.095c0,.059-.036.082-.087.113a.527.527,0,0,0-.1.077.093.093,0,0,1-.095.095.719.719,0,0,0-.38.19A7.859,7.859,0,0,1,5.217,5.976ZM9.573,1.31l0,0A3.527,3.527,0,0,0,8.917.854,7.728,7.728,0,0,0,5.6.008C5.7,0,5.84,0,5.976,0a6.834,6.834,0,0,1,3.51.854,3.207,3.207,0,0,0,.085.453Z" transform="translate(0)" fill="#4878ff"/>
              </g>
            </g>
            <g id="Group-49" data-name="Group" transform="translate(0 0)">
              <path id="Path-96" data-name="Path" d="M9.2,7.115,0,.664V0L9.2,6.451Z" transform="translate(0.095 0.285)" fill="#4d89ff"/>
              <g id="Group-50" data-name="Group">
                <path id="Path-97" data-name="Path" d="M15.937,8.253v.664A76.178,76.178,0,0,1,0,.664V0A78.608,78.608,0,0,0,15.937,8.253Z" transform="translate(9.297 6.83)" fill="#4d89ff"/>
                <path id="Path-98" data-name="Path" d="M25.234,15.083A76.178,76.178,0,0,1,9.3,6.83L0,.379.664,0l11.1,5.407a60.519,60.519,0,0,1,14.23,9.3l.379.285-.664.379Z" fill="#206dff"/>
                <g id="Group-51" data-name="Group" transform="translate(24.665 12.475)">
                  <g id="Group-52" data-name="Group" transform="translate(0 0)">
                    <path id="Path-99" data-name="Path" d="M.19.285h0V.759A.093.093,0,0,0,.285.854V.949l.095.095h0l.095.095h0c.095,0,.095.095.19.095a3.629,3.629,0,0,0,3.415,0c.095,0,.095-.095.19-.095h.095l.095-.095h.095L4.648.949V.854L4.743.759V0h0V6.975a1.142,1.142,0,0,1-.664.949,3.629,3.629,0,0,1-3.415,0A1.192,1.192,0,0,1,0,6.975V0A.729.729,0,0,0,.19.285Z" transform="translate(0 1.281)" fill="#206dff"/>
                    <path id="Path-100" data-name="Path" d="M4.553,1.565h0v.569a.093.093,0,0,1-.095.095v.095l-.095.095H4.269l-.095.095H4.079c-.095,0-.095.095-.19.095a3.629,3.629,0,0,1-3.415,0c-.095,0-.095-.095-.19-.095h0L.19,2.419h0L.095,2.324V2.229L0,2.134V1.47A1.2,1.2,0,0,1,.664.427a3.629,3.629,0,0,1,3.415,0,1.571,1.571,0,0,1,.474,1.138Z" transform="translate(0.379 0)" fill="#4878ff"/>
                  </g>
                  <path id="Path-101" data-name="Path" d="M4.079,1.3h0v.569l-.095.095h0l-.095.095h0a.093.093,0,0,0-.095.095H3.7c-.095,0-.095.095-.19.095a3.416,3.416,0,0,1-3.036,0c-.095,0-.095-.095-.19-.095h0L.19,2.063h0L.095,1.968h0L0,1.874V1.21A.966.966,0,0,1,.664.356,3.416,3.416,0,0,1,3.7.356a2.463,2.463,0,0,1,.379.949Z" transform="translate(0.569 0.166)" fill="#304ccf"/>
                </g>
                <g id="Group-53" data-name="Group" transform="translate(25.518 14.794)">
                  <path id="Path-102" data-name="Path" d="M4.553,4.553v.664L0,.664V0Z" transform="translate(0.095 2.281)" fill="#4d89ff"/>
                  <path id="Path-103" data-name="Path" d="M3.51,2.087v.664A15.609,15.609,0,0,1,0,.664V0A15.609,15.609,0,0,0,3.51,2.087Z" transform="translate(4.553 6.93)" fill="#4d89ff"/>
                  <path id="Path-104" data-name="Path" d="M18.5,7.874v.664L0,.569V0Z" transform="translate(8.063 9.017)" fill="#4d89ff"/>
                  <path id="Path-105" data-name="Path" d="M2.466,0V.664L0,2.087V1.423Z" transform="translate(26.562 15.467)" fill="#4d89ff"/>
                  <path id="Path-106" data-name="Path" d="M3.32,2.179a1.01,1.01,0,0,0,.526-.953V-.008h0l7.822,2.756a17,17,0,0,1,3.7,1.992L28.934,15.46l-2.466,1.423L7.969,9.009a15.609,15.609,0,0,1-3.51-2.087L0,2.368H0A4.429,4.429,0,0,0,3.32,2.179Z" transform="translate(0 0.008)" fill="#206dff"/>
                </g>
              </g>
            </g>
          </g>
          <path id="Path-107" data-name="Path" d="M.285,3.6.19,3.51a.093.093,0,0,0-.095-.095c0-.095,0-.095-.095-.19V2.751A3.378,3.378,0,0,1,1.518.095.348.348,0,0,1,1.8,0h.664a.093.093,0,0,1,.095.095,1.047,1.047,0,0,1,.474.949A3.378,3.378,0,0,1,1.518,3.7,1.151,1.151,0,0,1,.285,3.6Z" transform="translate(101.22 104.113)" fill="#304ccf"/>
        </g>
        <path id="Path-108" data-name="Path" d="M0,17.521,20.87,29.569V26.818l11.573-11.1A5.507,5.507,0,0,0,31.4,6.991L20.491.73a5.58,5.58,0,0,0-6.546.759L.095,14.77Z" transform="translate(73.709 79.193)" fill="#206dff"/>
        <path id="Path-109" data-name="Path" d="M.095,0,20.87,12.048V14.8L0,2.751Z" transform="translate(73.709 93.963)" fill="#206dff"/>
        <g id="Group-54" data-name="Group" transform="translate(102.928 51.392)">
          <path id="Path-110" data-name="Path" d="M43.448.095a13.563,13.563,0,0,1-5.123,4.553C29.6,9.676,15.368,9.676,6.64,4.648A15.685,15.685,0,0,1,1.423.095H0V3.7A8.351,8.351,0,0,0,1.708,8.538,15.706,15.706,0,0,0,6.64,12.712c8.822,5.028,22.957,5.028,31.685,0,4.364-2.466,6.546-5.692,6.546-9.012V0H43.448Z" transform="translate(0 12.783)" fill="#d3d4ff"/>
          <path id="Path-111" data-name="Path" d="M6.64,21.89c8.822,5.028,22.957,5.028,31.685,0,4.364-2.466,6.546-5.787,6.546-9.107,0-3.225-2.277-6.546-6.64-9.012-8.822-5.028-22.957-5.028-31.685,0C2.182,6.237,0,9.558,0,12.783,0,16.1,2.277,19.423,6.64,21.89Z" transform="translate(0 0)" fill="#fff"/>
          <path id="Path-112" data-name="Path" d="M5.787,19.02c7.684,4.364,20.016,4.364,27.605,0,3.795-2.182,5.692-5.028,5.692-7.874S37.092,5.455,33.3,3.273c-7.684-4.364-20.016-4.364-27.605,0C1.9,5.455,0,8.3,0,11.147.095,13.992,1.992,16.838,5.787,19.02Z" transform="translate(2.846 1.731)" fill="#4d89ff"/>
          <path id="Path-113" data-name="Path" d="M32.823,3.273c-7.684-4.364-20.016-4.364-27.605,0A10.9,10.9,0,0,0,0,8.68a11.284,11.284,0,0,0,5.312,5.5c7.684,4.364,20.016,4.364,27.605,0a10.9,10.9,0,0,0,5.218-5.407A12.159,12.159,0,0,0,32.823,3.273Z" transform="translate(3.415 6.474)" fill="#3dda4a"/>
        </g>
      </g>
    </g>
    <g id="Camada_x0020_1" transform="translate(605.007 645.776)">
      <path id="polygon9" d="M43.58,7132.532,0,7107.354l.51,45.225,43.069,27.787Z" transform="translate(0 -7084.67)" fill="#b3926f" fill-rule="evenodd"/>
      <path id="polygon11" d="M43.58,26.553,84.836,50.4,43.58,74.414,18.09,59.7,0,49.236Z" transform="translate(0 -26.553)" fill="#d0b08e" fill-rule="evenodd"/>
      <path id="path13" d="M13618.859,7509.2l-32.154,18.571Zm0,0-.085-47.8-41.341,23.874V7533.1l.256.057Z" transform="translate(-13533.938 -7437.575)" fill="#947451" fill-rule="evenodd"/>
      <line id="line15" x1="37.654" y1="21.747" transform="translate(26.624 14.149)" fill="none"/>
      <line id="line17" x2="0.113" y2="1.077" transform="translate(64.278 35.896)" fill="none"/>
      <path id="polygon19" d="M13603.8,7450.909l41.349-23.925v-.863l-.239-.131-41,23.676Z" transform="translate(-13560.328 -7402.286)" fill="#a98c6d" fill-rule="evenodd"/>
      <path id="polygon21" d="M.482,7027.694l43.1,24.951v1.19L0,7028.8Z" transform="translate(0 -7005.266)" fill="#c09f7d" fill-rule="evenodd"/>
      <path id="polygon23" d="M5558.428,2748.517l8.9-4.707,42.077,24.583-8.875,5.132Z" transform="translate(-5540.621 -2735.105)" fill="#ddc5ac" fill-rule="evenodd"/>
      <path id="polygon31" d="M18709.789,10429.139l-.934,2.07-1.391-.908-.822,1.7-1.219-.681-.936,2.1-1.021-.992-1.021,2.07-.283-11.739,8.875-5.132v11.908Z" transform="translate(-18642.25 -10384.339)" fill="#a58869" fill-rule="evenodd"/>
      <path id="polygon33" d="M6833.228,3558.1l42.36,24.441-.34.2-42.276-24.441Z" transform="translate(-6811.083 -3546.789)" fill="#9b7b58"/>
      <path id="polygon35" d="M13471.365,14944.122l-.143-47.208.426-.681.765.481v47.011Z" transform="translate(-13428.068 -14848.6)" fill="#a98966" fill-rule="evenodd"/>
      <g id="Logo" transform="translate(12.829 48.313)">
        <g id="Group_4" data-name="Group 4" transform="translate(0 0)">
          <g id="Group_1" data-name="Group 1">
            <path id="Path_3988" data-name="Path 3988" d="M42.67,20.2c4.663,1.12,8.365,6.587,8.25,12.19l-1.255-.3c.1-4.768-3.055-9.427-7.026-10.382s-7.284,2.152-7.382,6.92,3.055,9.427,7.026,10.382l-.031,1.507c-4.663-1.12-8.365-6.59-8.25-12.19S38.007,19.08,42.67,20.2Z" transform="translate(-33.999 -19.998)" fill="#9b7b58"/>
          </g>
          <g id="Group_2" data-name="Group 2" transform="translate(8.558 10.609)">
            <path id="Path_3989" data-name="Path 3989" d="M57.519,46.947a1.815,1.815,0,0,1,.559.244L64.1,51.084a2.723,2.723,0,0,1,1.064,2.96,1.678,1.678,0,0,1-.444.729l-1.457,1.362-.791-1.166,1.46-1.365a.917.917,0,0,0-.22-1.3l-6.021-3.892a.634.634,0,0,0-.2-.085.5.5,0,0,0-.608.372.9.9,0,0,0-.01.475l1.873,7.776a.871.871,0,0,0,.585.657.5.5,0,0,0,.2.009.452.452,0,0,0,.25-.124l1.407-1.319.8,1.167-1.408,1.319a1.337,1.337,0,0,1-1.268.33,1.854,1.854,0,0,1-.412-.157,2.6,2.6,0,0,1-1.246-1.7l-1.876-7.784a1.834,1.834,0,0,1,1.175-2.422A1.436,1.436,0,0,1,57.519,46.947Z" transform="translate(-55.703 -46.905)" fill="#9b7b58"/>
          </g>
          <g id="Group_3" data-name="Group 3" transform="translate(3.026 3.67)">
            <path id="Path_3990" data-name="Path 3990" d="M47.1,29.433c2.923.7,5.241,4.128,5.168,7.636l-1.255-.3c.055-2.678-1.714-5.289-3.945-5.825s-4.086,1.2-4.141,3.882,1.714,5.292,3.941,5.827l-.031,1.507c-2.92-.7-5.241-4.127-5.168-7.636S44.185,28.732,47.1,29.433Z" transform="translate(-41.673 -29.307)" fill="#9b7b58"/>
          </g>
        </g>
      </g>
    </g>
  </g>
</svg>
